<?xml version="1.0" encoding="utf-8"?>
<!-- Generator: Adobe Illustrator 23.0.5, SVG Export Plug-In . SVG Version: 6.00 Build 0)  -->
<svg version="1.0" id="Layer_1" xmlns="http://www.w3.org/2000/svg" xmlns:xlink="http://www.w3.org/1999/xlink" x="0px" y="0px"
	 viewBox="0 0 5000 5000" style="enable-background:new 0 0 5000 5000;" xml:space="preserve">
<g>
	<g>
		<path d="M1457.1,4579.8c8.1-7.1,13-16.9,13-29.3c0-25.9-21.2-42.8-47.2-42.8h-58.6v149.7h62.9c26.7,0,48.3-17.3,48.3-43.8
			C1475.5,4598.4,1468.3,4586.9,1457.1,4579.8z M1398.6,4539.8h24.4c7.9,0,13,5.6,13,13.3c0,7.7-5.3,13.3-13,13.3h-24.4V4539.8z
			 M1427.2,4625.3h-28.7v-28.7h28.7c8.6,0,14.1,6,14.1,14.3C1441.3,4619.4,1435.8,4625.3,1427.2,4625.3z"/>
		<path d="M1530.7,4507.7l-50.9,149.7h37.4l7.5-23.5h55.6l7.5,23.5h37.4l-50.9-149.7H1530.7z M1535,4601.8l17.5-54.9l17.5,54.9H1535
			z"/>
		<path d="M1749.2,4559.1c0-28.4-22.9-51.3-51.3-51.3H1638v149.7h34.2v-49.2h16.3l28.2,49.2h36.8l-31.9-54.9
			C1738.1,4594.1,1749.2,4577.5,1749.2,4559.1z M1697.9,4578.3h-25.7v-38.5h25.7c9.4,0,17.1,8.3,17.1,19.2
			C1715,4570,1707.3,4578.3,1697.9,4578.3z"/>
		<path d="M1862.3,4579.8c8.1-7.1,13-16.9,13-29.3c0-25.9-21.2-42.8-47.2-42.8h-58.6v149.7h62.9c26.7,0,48.3-17.3,48.3-43.8
			C1880.7,4598.4,1873.4,4586.9,1862.3,4579.8z M1803.7,4539.8h24.4c7.9,0,13,5.6,13,13.3c0,7.7-5.3,13.3-13,13.3h-24.4V4539.8z
			 M1832.4,4625.3h-28.7v-28.7h28.7c8.6,0,14.1,6,14.1,14.3C1846.5,4619.4,1840.9,4625.3,1832.4,4625.3z"/>
		<polygon points="1932,4598 1985.5,4598 1985.5,4565.5 1932,4565.5 1932,4540.7 1990.8,4540.7 1990.8,4507.7 1897.8,4507.7 
			1897.8,4657.4 1991.9,4657.4 1991.9,4624.5 1932,4624.5 		"/>
		<path d="M2122.3,4559.1c0-28.4-22.9-51.3-51.3-51.3h-59.9v149.7h34.2v-49.2h16.2l28.2,49.2h36.8l-31.9-54.9
			C2111.2,4594.1,2122.3,4577.5,2122.3,4559.1z M2071,4578.3h-25.7v-38.5h25.7c9.4,0,17.1,8.3,17.1,19.2
			C2088.1,4570,2080.4,4578.3,2071,4578.3z"/>
		<path d="M2256,4568c-23.3-7.1-26.9-11.8-26.9-18.6c0-6,5.3-11.3,16-11.3c13.7,0,20.7,6.6,25.9,17.3l28.9-16.9
			c-10.9-22-30.1-33.8-54.7-33.8c-25.9,0-50.2,16.7-50.2,45.5c0,28.7,21.8,39.3,44,45.5c22.4,6.2,31,9.8,31,19
			c0,5.8-4.1,12.2-20.3,12.2c-16.9,0-26.1-8.3-31.4-20.7l-29.5,17.1c8.3,22,28.4,37,59.9,37c32.5,0,55.6-17.1,55.6-46
			C2304.1,4582.8,2278.6,4574.9,2256,4568z"/>
		<polygon points="2401.4,4565.1 2354.3,4565.1 2354.3,4507.7 2320.1,4507.7 2320.1,4657.4 2354.3,4657.4 2354.3,4598 2401.4,4598 
			2401.4,4657.4 2435.6,4657.4 2435.6,4507.7 2401.4,4507.7 		"/>
		<path d="M2532.6,4504.8c-43,0-77.8,33.8-77.8,77.8c0,44,34.8,77.8,77.8,77.8c43,0,77.8-33.8,77.8-77.8
			C2610.5,4538.5,2575.6,4504.8,2532.6,4504.8z M2532.6,4627.1c-24.4,0-43.6-17.7-43.6-44.5c0-26.7,19.2-44.5,43.6-44.5
			c24.4,0,43.6,17.7,43.6,44.5C2576.3,4609.3,2557,4627.1,2532.6,4627.1z"/>
		<path d="M2686.4,4507.7h-56.7v149.7h34.2v-47h22.4c29.5,0,52.4-22.9,52.4-51.3C2738.8,4530.6,2715.9,4507.7,2686.4,4507.7z
			 M2686.4,4578.3h-22.4v-38.5h22.4c10.5,0,18.2,8.3,18.2,19.2C2704.6,4570,2696.9,4578.3,2686.4,4578.3z"/>
		<rect x="2809.3" y="4507.7" width="34.2" height="149.7"/>
		<path d="M2940.6,4538.1c15.2,0,28,6.8,34.6,18.4l29.5-17.1c-13-21.2-37-34.6-64.1-34.6c-45.1,0-77.8,33.8-77.8,77.8
			c0,44,32.7,77.8,77.8,77.8c27.4,0,51.3-13.5,64.1-34.6l-29.5-17.1c-6.4,11.5-19.5,18.4-34.6,18.4c-26.5,0-43.6-17.7-43.6-44.5
			C2897,4555.9,2914.1,4538.1,2940.6,4538.1z"/>
		<path d="M3090.1,4504.8c-43,0-77.8,33.8-77.8,77.8c0,44,34.8,77.8,77.8,77.8s77.8-33.8,77.8-77.8
			C3167.9,4538.5,3133,4504.8,3090.1,4504.8z M3090.1,4627.1c-24.4,0-43.6-17.7-43.6-44.5c0-26.7,19.2-44.5,43.6-44.5
			c24.4,0,43.6,17.7,43.6,44.5C3133.7,4609.3,3114.5,4627.1,3090.1,4627.1z"/>
		<polygon points="3270.5,4589 3212.8,4507.7 3187.2,4507.7 3187.2,4657.4 3221.4,4657.4 3221.4,4576.2 3279.1,4657.4 
			3304.7,4657.4 3304.7,4507.7 3270.5,4507.7 		"/>
		<path d="M3443.7,4568c-23.3-7.1-26.9-11.8-26.9-18.6c0-6,5.3-11.3,16-11.3c13.7,0,20.7,6.6,25.9,17.3l28.9-16.9
			c-10.9-22-30.1-33.8-54.7-33.8c-25.9,0-50.2,16.7-50.2,45.5c0,28.7,21.8,39.3,44,45.5c22.4,6.2,31,9.8,31,19
			c0,5.8-4.1,12.2-20.3,12.2c-16.9,0-26.1-8.3-31.4-20.7l-29.5,17.1c8.3,22,28.4,37,59.9,37c32.5,0,55.6-17.1,55.6-46
			C3491.8,4582.8,3466.4,4574.9,3443.7,4568z"/>
		<polygon points="3542.1,4598 3595.5,4598 3595.5,4565.5 3542.1,4565.5 3542.1,4540.7 3600.9,4540.7 3600.9,4507.7 3507.9,4507.7 
			3507.9,4657.4 3602,4657.4 3602,4624.5 3542.1,4624.5 		"/>
		<polygon points="3610.5,4540.7 3649,4540.7 3649,4657.4 3683.2,4657.4 3683.2,4540.7 3721.7,4540.7 3721.7,4507.7 3610.5,4507.7 
					"/>
		<path d="M1253.4,4832.7h2568.5v-500.1H1253.4V4832.7z M1289.8,4369h2495.7v427.3H1289.8V4369z"/>
	</g>
	<path d="M680.2,632.1h135.6c21.7,0,39.4-17.7,39.4-39.4V476.2H640.8v116.6C640.8,614.5,658.5,632.1,680.2,632.1z M815.8,613.9
		H680.2c-11.7,0-21.2-9.5-21.2-21.2v-58.8h178v58.8C837,604.4,827.5,613.9,815.8,613.9z M837,494.3v21.4H659v-21.4H837z"/>
	<path d="M414.5,746.9c-4.2,10.6,12.9,15.1,17,4.7c5-12.7,3.1-23.2-1.9-35.5c-4.7-11.6-10-19.9-2-31.2c6.5-9.1,14.7-9.1,24.9-11.8
		c24.1-6.3,38.8-26.4,30.6-51.4c-6.3-19.4-18.4-39.2,10.8-47.4c11.8-3.3,23.4-4.6,32.3-13.9c24.5-25.7-7.2-48.3,0-73.9
		c0.3-0.4,0.5-0.7,0.8-1.1c9.2-16.8,18.4-33.5,27.6-50.3V545h0l0,146.3c0,44.2,36,80.2,80.2,80.2h226.9c44.2,0,80.2-36,80.2-80.2
		V540.9v-18.8v-87c9.2,16.8,18.4,33.5,27.6,50.3c0.2,0.4,0.5,0.8,0.8,1.1c7.1,25.6-24.5,48.3,0,73.9c8.9,9.3,20.5,10.6,32.3,13.9
		c29.2,8.2,17.1,28,10.8,47.4c-8.2,25,6.5,45,30.6,51.4c10.1,2.7,18.4,2.7,24.9,11.8c8,11.3,2.7,19.6-2,31.2
		c-5,12.3-6.9,22.8-1.9,35.5c4.1,10.4,21.1,5.9,17-4.7c-10.6-26.8,24.4-50.2-1-76.8c-8.9-9.3-20.5-10.6-32.3-13.9
		c-29.2-8.2-17.1-28-10.8-47.4c8.2-25-6.5-45-30.6-51.4c-10.1-2.7-18.4-2.7-24.9-11.8c-8-11.3-2.7-19.6,2-31.2
		c5-12.3,7-22.8,1.9-35.5c-0.5-1.2-1.1-2.2-1.9-3c-14.5-26.3-28.9-52.6-43.4-78.9c-1.3-2.3-3-3.5-5-4.1l0,0l-47.2-23.4V235.4V119.4
		v-4.8c0-11.2-9.1-20.3-20.3-20.3h-20.6c-11.2,0-20.3,9.1-20.3,20.3v4.8v0.4v67.8v18.7H668.6v-8v-78.9v-3.7v-1.1
		c0-11.2-9.1-20.3-20.3-20.3h-20.6c-11.2,0-20.3,9.1-20.3,20.3v6v114.7v134.1l-48.8,22.9l-1.6,2.5c-0.7,0.6-1.3,1.3-1.8,2.2
		c-14.5,26.3-28.9,52.6-43.4,78.9c-0.8,0.8-1.4,1.8-1.9,3c-5,12.7-3.1,23.2,1.9,35.5c4.7,11.6,10,19.9,2,31.2
		c-6.5,9.1-14.7,9.1-24.9,11.8c-24.1,6.3-38.8,26.4-30.6,51.4c6.3,19.4,18.4,39.2-10.8,47.4c-11.8,3.3-23.4,4.6-32.3,13.9
		C390.1,696.7,425,720.1,414.5,746.9z M572.6,405.9l44.6-20.9c20.6,0,41.2,0,61.8,0c11.7,0,11.7-18.2,0-18.2c-17.8,0-35.6,0-53.4,0
		V235.4V120.7v-6c0-1.2,0.9-2.1,2.1-2.1h20.6c1.2,0,2.1,0.9,2.1,2.1v1.1v3.7v78.9v8.2v2.1c0,8.7,7.1,15.9,15.9,15.9h163.5
		c8.7,0,15.9-7.1,15.9-15.9v-2.1v-19v-67.8v-0.4v-4.8c0-1.2,0.9-2.1,2.1-2.1h20.6c1.2,0,2.1,0.9,2.1,2.1v4.8v115.9v130.7
		c-50.1,0-100.2,0-150.4,0c-11.7,0-11.7,18.2,0,18.2c52.4,0,104.9,0,157.3,0l45.7,22.6l0.4,0.6v114.6v18.8v150.3
		c0,34.2-27.8,62-62,62H634.6c-34.2,0-62-27.8-62-62V545v-37.4V405.9z"/>
	<path d="M987.8,1133.3c14.3-6.4,24.4-20.8,24.4-37.5c0-22.6-18.4-41.1-41.1-41.1h-40.1c-18.7-81.5-91.8-142.5-178.9-142.5
		c-87.1,0-160.2,61-178.9,142.5h-40.1c-22.6,0-41.1,18.4-41.1,41.1c0,16.7,10,31.1,24.4,37.5c16.4,104.3,99,184.9,203.4,199v38.9h-8
		c-16,0-29.1,13.1-29.1,29.1V1519h-84.9c-36.7,0-66.6,29.9-66.6,66.6v9.1H973v-9.1c0-36.7-29.9-66.6-66.6-66.6h-84.9v-118.6
		c0-16-13.1-29.1-29.1-29.1h-8v-38.9C888.8,1318.3,971.3,1237.7,987.8,1133.3z M784.4,1314v-37.5c72.4-12.9,130.2-68.4,146.5-139.6
		h37.8C951.4,1229.4,877.6,1300.4,784.4,1314z M971.1,1073c12.6,0,22.9,10.3,22.9,22.9s-10.3,22.9-22.9,22.9h-36.9
		c0.9-7.5,1.5-15.1,1.5-22.9c0-7.7-0.5-15.4-1.5-22.9H971.1z M752.1,930.5c91.2,0,165.3,74.2,165.3,165.3s-74.2,165.3-165.3,165.3
		s-165.3-74.2-165.3-165.3S660.9,930.5,752.1,930.5z M533.1,1073H570c-0.9,7.5-1.5,15.1-1.5,22.9c0,7.7,0.5,15.4,1.5,22.9h-36.9
		c-12.6,0-22.9-10.3-22.9-22.9S520.5,1073,533.1,1073z M535.4,1136.9h37.8c16.3,71.2,74.1,126.7,146.5,139.6v37.5
		C626.6,1300.4,552.7,1229.3,535.4,1136.9z M906.4,1537.2c23.6,0,43.3,17,47.6,39.3H550.2c4.3-22.4,24-39.3,47.6-39.3h84.9h138.9
		H906.4z M792.4,1389.5c6,0,10.9,4.9,10.9,10.9V1519H700.8v-118.6c0-6,4.9-10.9,10.9-10.9h8h64.6H792.4z M737.9,1371.3v-92.5
		c4.7,0.4,9.4,0.6,14.1,0.6c4.8,0,9.5-0.2,14.1-0.6v92.5H737.9z"/>
	<path d="M752.1,1242.7c81,0,147-65.9,147-147c0-81-65.9-147-147-147s-147,65.9-147,147C605.1,1176.8,671,1242.7,752.1,1242.7z
		 M752.1,966.9c71,0,128.8,57.8,128.8,128.8c0,71-57.8,128.8-128.8,128.8s-128.8-57.8-128.8-128.8
		C623.3,1024.7,681.1,966.9,752.1,966.9z"/>
	<path d="M433.1,2275.6c-11.9,0-21.6,9.7-21.6,21.6v18.6c0,11.9,9.7,21.6,21.6,21.6h35.2v14.5c0,31.2,25.4,56.6,56.6,56.6h92.8
		c31.2,0,56.6-25.4,56.6-56.6v-14.5h35.2c11.9,0,21.6-9.7,21.6-21.6v-18.6c0-11.9-9.7-21.6-21.6-21.6h-35.2v-73.4h259.1v57.3
		c0,39.7,29.8,72.4,68.2,77.1v0.6h9.1c0.1,0,0.1,0,0.2,0c0.1,0,0.1,0,0.2,0h9.1v-0.6c38.4-4.7,68.2-37.5,68.2-77.1v-384.7
		c0-39.7-29.8-72.4-68.2-77.1v-0.6h-9.1c-0.1,0-0.1,0-0.2,0c-0.1,0-0.1,0-0.2,0h-9.1v0.6c-38.4,4.7-68.2,37.5-68.2,77.1v57.3H674.3
		v-73.4h35.2c11.9,0,21.6-9.7,21.6-21.6v-18.6c0-11.9-9.7-21.6-21.6-21.6h-35.2v-14.5c0-31.2-25.4-56.6-56.6-56.6h-92.8
		c-31.2,0-56.6,25.4-56.6,56.6v14.5h-35.2c-11.9,0-21.6,9.7-21.6,21.6v18.6c0,11.9,9.7,21.6,21.6,21.6h35.2v416.8H433.1z
		 M656.1,2351.9c0,21.2-17.2,38.4-38.4,38.4h-92.8c-21.2,0-38.4-17.2-38.4-38.4v-14.5h169.6V2351.9z M709.5,2293.8
		c1.9,0,3.4,1.5,3.4,3.4v18.6c0,1.9-1.5,3.4-3.4,3.4h-35.2h-206h-35.2c-1.9,0-3.4-1.5-3.4-3.4v-18.6c0-1.9,1.5-3.4,3.4-3.4h35.2h206
		H709.5z M575,2275.6l-88.5-86.3v-91.2l169.6,165.4v12.1H575z M567.6,1858.8l88.5,86.3v72.8l-163.1-159.1H567.6z M674.3,2036.4
		l0.4-0.4l-0.4-0.4v-15.3h259.1v93.8H674.3V2036.4z M656.1,2043.3v70.8v10.8l-169.6-165.4v-81.7L656.1,2043.3z M656.1,2238.1
		l-169.6-165.4V1985l169.6,165.4v51.9V2238.1z M674.3,2184.1v-51.7h259.1v51.7H674.3z M1070.3,1874.9v384.7
		c0,29.6-21.7,54.2-50,58.8v-502.3C1048.6,1820.7,1070.3,1845.3,1070.3,1874.9z M951.6,1874.9c0-29.6,21.7-54.2,50-58.8v502.3
		c-28.3-4.6-50-29.2-50-58.8v-57.3v-88.1v-93.8v-88.1V1874.9z M933.4,1950.4v51.7H674.3v-51.7H933.4z M656.1,1919.7l-62.4-60.9h62.4
		V1919.7z M486.5,1782.6c0-21.2,17.2-38.4,38.4-38.4h92.8c21.2,0,38.4,17.2,38.4,38.4v14.5H486.5V1782.6z M433.1,1840.6
		c-1.9,0-3.4-1.5-3.4-3.4v-18.6c0-1.9,1.5-3.4,3.4-3.4h35.2h206h35.2c1.9,0,3.4,1.5,3.4,3.4v18.6c0,1.9-1.5,3.4-3.4,3.4h-35.2h-206
		H433.1z M486.5,2214.8l62.4,60.9h-62.4V2214.8z"/>
	<path d="M1393.8,760.5c8.2,8.2,19.2,12.8,30.8,12.8c11.6,0,22.6-4.5,30.8-12.8l72.6-72.6c1.7,0.4,3.5,0.6,5.4,0.6
		c6.9,0,13.3-2.6,18.3-7.4l400.2-357.7l0.4-0.3c4.9-4.9,7.6-11.5,7.6-18.4c0-7-2.7-13.5-7.6-18.4l-185.4-185.4
		c-4.9-4.9-11.5-7.6-18.4-7.6c-7,0-13.5,2.7-18.5,7.6l-358,400.6c-4.8,4.9-7.4,11.4-7.4,18.2c0,1.8,0.2,3.6,0.6,5.4l-72.6,72.6
		c-17,17-17,44.6,0,61.6L1393.8,760.5z M1486.6,703.7l-29.3-29.3l0.3-0.3l-78.6-78.6l-0.3,0.3l-29.4-29.4l25.6-25.6L1512.2,678
		L1486.6,703.7z M1379.6,622.4l51,51c-14.3,8.3-32.9,6.4-45.2-5.9C1373.2,655.4,1371.3,636.7,1379.6,622.4z M1941.7,304.6
		c0,2-0.8,4-2.2,5.4l-43.5,38.9l-36.5-36.5l46.6-46.6l33.2,33.2C1940.9,300.5,1941.7,302.5,1941.7,304.6z M1750.6,203.4l46.6-46.6
		l41.7,41.7l-46.6,46.6L1750.6,203.4z M1851.7,211.3l41.7,41.7l-46.6,46.6l-41.7-41.7L1851.7,211.3z M1743,113.4
		c3-2.8,8.1-2.8,11,0.1l30.3,30.3l-46.6,46.6l-33.6-33.6L1743,113.4z M1385,513.9l307-343.5L1882.5,361l-343.1,306.6l-0.4,0.3
		c-3,3-8.2,3-11.2,0L1385,525.1c-1.5-1.5-2.3-3.5-2.3-5.6C1382.7,517.4,1383.5,515.4,1385,513.9z M1305.3,610.4l31.1-31.1l30,30
		c-15.2,21.7-13.2,51.8,6.1,71.2c10.8,10.8,25.1,16.2,39.3,16.2c11.2,0,22.4-3.4,31.9-10.1l30,30l-31.1,31.1c-9.9,9.9-26,9.9-35.9,0
		l-101.4-101.4C1295.4,636.4,1295.4,620.3,1305.3,610.4z"/>
	<path d="M1487.9,575.3c13.2,13.2,30.5,19.8,47.8,19.8c17.3,0,34.6-6.6,47.8-19.8l182.7-182.7c12.7-12.7,19.7-29.7,19.7-47.8
		s-7-35.1-19.7-47.8l-10.2-10.2c-12.7-12.7-29.7-19.7-47.8-19.7c-18.1,0-35.1,7-47.8,19.7l-182.7,182.7
		c-12.7,12.7-19.7,29.7-19.7,47.8c0,18.1,7,35.1,19.7,47.8L1487.9,575.3z M1490.5,482.3l182.7-182.7c9.3-9.3,21.7-14.4,35-14.4
		c13.2,0,25.7,5.1,35,14.4l10.2,10.2c19.3,19.3,19.3,50.6,0,69.9l-182.7,182.7c-19.3,19.3-50.6,19.3-69.9,0l-10.2-10.2
		c-9.3-9.3-14.4-21.7-14.4-35C1476.1,504,1481.2,491.6,1490.5,482.3z"/>
	<path d="M1958.7,991.8l-71.4-71.4c-10-10-26.2-10-36.2,0l-51.1,51l-9.3-9.3c-4.4-4.4-10.2-6.8-16.4-6.8c-6.2,0-12,2.4-16.4,6.8
		l-23.3,23.3c-25.8-19-62.4-16.9-85.7,6.4l-79.5,79.5l0,0l-184.2,184.2l0,0l-79.7,79.7c-12.5,12.5-19.3,29-19.3,46.6
		c0,17.6,6.9,34.2,19.3,46.6l145,145c12.5,12.5,29,19.3,46.6,19.3c17.6,0,34.2-6.9,46.6-19.3l79.7-79.7l0,0l122.8-122.8l140.9-140.9
		c23.3-23.3,25.4-59.9,6.4-85.7l23.3-23.3c4.4-4.4,6.8-10.2,6.8-16.4c0-6.2-2.4-12-6.8-16.4l-9.3-9.3l51-51.1
		c4.8-4.8,7.5-11.3,7.5-18.1C1966.2,1003.1,1963.5,996.6,1958.7,991.8z M1821.1,1070.7l26.2-26.2l22.3,22.3l-26.2,26.2
		L1821.1,1070.7z M1808.2,1057.8l-22.1-22.1l26.2-26.2l22.1,22.1L1808.2,1057.8z M1770.8,975c1.9-1.9,5.2-1.9,7,0l9.3,9.3l12.3,12.3
		l-26.2,26.2l-25.1-25.1L1770.8,975z M1569.5,1097.1l212.6,212.6l-158.5,158.5L1411,1255.5l79.2-79.2L1569.5,1097.1z M1531,1560.6
		c-9,9-21,14-33.8,14c-12.8,0-24.8-5-33.8-14l-145-145c-9-9-14-21-14-33.8s5-24.7,14-33.8l79.7-79.7l212.6,212.6L1531,1560.6z
		 M1874.4,1217.2l-79.5,79.5l-212.6-212.6l79.5-79.5c9.3-9.3,21.5-14,33.8-14c12.2,0,24.5,4.7,33.8,14l145,145
		C1893,1168.3,1893,1198.6,1874.4,1217.2z M1904.1,1101.2c0.9,0.9,1.5,2.2,1.5,3.5c0,1.3-0.5,2.6-1.5,3.5l-22.7,22.7l-25.1-25.1
		l26.2-26.2l12.3,12.3L1904.1,1101.2z M1945.8,1015.1l-51,51l-81.8-81.8l51.1-51c2.9-2.9,7.5-2.9,10.4,0l71.4,71.4
		c1.4,1.4,2.2,3.2,2.2,5.2C1948,1011.9,1947.2,1013.7,1945.8,1015.1z"/>
	<path d="M1553.7,1321.5c0.6,0.7,1.2,1.4,1.9,2c0.6,0.6,1.3,1.3,2,1.9c8.2,7.3,18.3,11.1,29,11.1c3.7,0,7.4-0.5,11.1-1.4
		c14.8-3.7,26.8-14.4,32-28.7c20-54.1,12.8-61.3,8.9-65.2l-0.8-0.8c-3.9-3.9-11.1-11.1-65.2,8.9c-14.2,5.3-25,17.2-28.6,32
		C1540.4,1295.9,1543.9,1310.5,1553.7,1321.5z M1561.6,1285.8c2.2-8.9,8.7-16.2,17.3-19.4c26.5-9.8,40.3-12.3,45.5-12.3
		c0.2,0,0.4,0,0.5,0c0.2,4.8-2.1,18.6-12.3,46c-3.2,8.6-10.4,15.1-19.4,17.3c-8.6,2.1-17.2,0.1-23.6-5.6c-0.4-0.4-0.8-0.8-1.3-1.2
		c-0.4-0.4-0.8-0.8-1.2-1.2C1561.6,1303,1559.5,1294.4,1561.6,1285.8z"/>
	<path d="M1882,988c-11.7,0-11.7,18.2,0,18.2C1893.7,1006.2,1893.7,988,1882,988z"/>
	<path d="M1368.8,2184.4l164.7,146l261-294.3l-164.7-146L1368.8,2184.4z M1768.8,2037.7L1532,2304.8l-137.5-121.9l236.8-267.1
		L1768.8,2037.7z"/>
	<path d="M1541.8,2151.3c0.6,0.6,1.3,1.2,1.9,1.8l0,0c0.7,0.6,1.3,1.1,2,1.7c7.6,6,16.6,9,25.9,9c4.3,0,8.8-0.7,13.1-2
		c13.9-4.4,24.8-15.3,29-29.3c14.7-48.6,10.1-57.8,4.6-62.7l-0.8-0.7c-5.5-4.9-15.3-8.4-61.7,12c-13.3,5.9-22.9,17.9-25.6,32.3
		C1527.5,2127.5,1531.8,2141.3,1541.8,2151.3z M1548,2116.8c1.6-8.5,7.2-15.6,15-19c24.6-10.8,37.4-13.9,42.3-14.2
		c0.3,4.8-1.2,18-9,43.6c-2.5,8.2-8.9,14.6-17.1,17.2c-7.8,2.5-15.9,1-22.2-3.9c-0.4-0.3-0.8-0.7-1.2-1c-0.4-0.4-0.8-0.7-1.2-1.1
		C1548.9,2132.7,1546.5,2124.8,1548,2116.8z"/>
	<path d="M1854.5,1738.8l-0.9-1c-16.4-14.5-41.4-13-55.9,3.4c-14.5,16.3-13,41.4,3.4,55.9l13.1,11.6l-30.2,34.1l-32.1-28.5
		c-4-3.5-9.1-5.3-14.5-5c-5.3,0.3-10.2,2.7-13.8,6.7l-15.1,17l-6.2-5.5c-26-23.1-65.9-20.7-89,5.4l-305.7,344.8
		c-23.1,26-20.7,65.9,5.3,89l145.6,129.1v0c11.6,10.3,26.3,15.9,41.7,15.9c1.3,0,2.6,0,3.9-0.1c16.8-1,32.2-8.5,43.4-21.1
		l305.7-344.8c23.1-26,20.7-65.9-5.3-89l-6.2-5.5l15.1-17c7.3-8.3,6.5-20.9-1.7-28.2l-26.7-23.7l30.2-34.1l71,63l35.5-40
		L1854.5,1738.8z M1835.7,1970.3c18.5,16.4,20.2,44.8,3.8,63.3l-305.7,344.8c-7.9,9-18.9,14.3-30.9,15c-11.9,0.7-23.5-3.3-32.4-11.2
		L1325,2253.1c-18.5-16.4-20.2-44.8-3.8-63.3l305.7-344.8c8.8-10,21.2-15.1,33.6-15.1c10.6,0,21.2,3.7,29.7,11.3l6.2,5.5l0,0
		l133.3,118.1l0,0L1835.7,1970.3z M1843.1,1922.1l-15.1,17l-106-94l15.1-17c0.4-0.5,0.9-0.6,1.2-0.6c0.3,0,0.8,0,1.3,0.4l103.3,91.6
		C1843.7,1920.3,1843.8,1921.4,1843.1,1922.1z M1845,1836.2l-30.2,34.1l-7.8-6.9l-9.5-8.5l30.2-34.1l16.7,14.8L1845,1836.2z
		 M1928.1,1885.5l-115-102c-8.8-7.8-9.6-21.4-1.8-30.2c4.2-4.8,10.1-7.2,16-7.2c4.9,0,9.7,1.6,13.7,5l100.1,119.7L1928.1,1885.5z"/>
	<path d="M2167.5,2385.2c-3.6,6.4-6.3,15.6-3.6,22.9c4,10.9,21.6,6.2,17.5-4.8c-0.2-0.6-0.3-0.8-0.4-0.9c0-0.2,0.1-0.4,0.1-1
		c0.1-1.3,0.5-4.1,2.1-7c6.8-12.6,22.9-19.8,36.7-24.8c10.5,22.4,23.8,36,39.5,40.3c3.7,1,7.2,1.4,10.5,1.4
		c12.5,0,21.9-5.8,24.6-7.7c18.3-9.8,22-27.7,20.8-43.7l511.4-306.8c16.7-10,22.2-31.8,12.1-48.5l-40.1-66.8
		c-4.9-8.1-12.6-13.8-21.8-16.1c-9.2-2.3-18.7-0.9-26.8,4L2464.8,2097c-8.1,4.9-13.8,12.6-16.1,21.8c-2.3,9.2-0.9,18.7,4,26.8
		l15.3,25.6l-172.2,103.3c-58.4-297.7,15.7-468.6,16.5-470.4l0.5-1.3c5.2-18.6,3.9-34.7-3.6-47.7c-10.5-18-29.3-23-30.1-23.2
		l-1.2-0.2c-36.8-4.3-56.3,19.7-61.6,33.4c-61.2,183.7-57.9,336-44.4,431.5c11.6,81.7,32,136,40.7,156.6
		C2195.1,2359.7,2176.8,2369,2167.5,2385.2z M2493,2177.4l-24.7-41.2c-2.4-3.9-3-8.6-1.9-13c1.1-4.5,3.9-8.2,7.8-10.6l285.4-171.3
		c3.9-2.4,8.6-3.1,13-1.9c4.5,1.1,8.2,3.9,10.6,7.8l15.3,25.6c-93.1,55.8-186.1,111.7-279.2,167.5c-10,6-0.9,21.8,9.2,15.7
		c93.1-55.9,186.2-111.8,279.4-167.6l15.3,25.6c4.9,8.1,2.2,18.7-5.9,23.6l-505.5,303.3c-1.7-6.2-3.6-10.8-4.4-12.7
		c-2.8-11.8-5.4-23.4-7.8-34.8L2493,2177.4z M2233.4,1771.1c1-2.4,11.4-24.5,41.6-21.5c2.4,0.8,12.8,4.6,18.5,14.7
		c4.8,8.5,5.5,19.6,1.9,32.9c-6.5,14.8-84.7,204.7-5.4,535.9l0.6,1.6c0.2,0.4,18.1,41.2-5,53.1l-1.4,0.9c-0.1,0.1-9,6.7-20,3.7
		c-11.6-3.1-22.3-16.1-30.9-37.5l-0.3-0.6c-0.7-1.5-46.5-97.5-50.6-255.4c10.2,0,20.4,0,30.6,0c11.7,0,11.7-18.2,0-18.2
		c-10.3,0-20.6,0-30.9,0c0-10.1,0.1-20.5,0.4-31.1c10.2,0,20.3,0,30.5,0c11.7,0,11.7-18.2,0-18.2c-9.9,0-19.8,0-29.8,0
		c0.5-10.2,1.2-20.5,2.1-31.1c9.2,0,18.4,0,27.6,0c11.7,0,11.7-18.2,0-18.2c-8.6,0-17.3,0-25.9,0
		C2193.9,1918,2208.1,1847.1,2233.4,1771.1z"/>
	<path d="M2258.4,1803.1c11.7,0,11.7-18.2,0-18.2C2246.7,1784.9,2246.7,1803.1,2258.4,1803.1z"/>
	<path d="M2261.5,2353.3c11.7,0,11.7-18.2,0-18.2C2249.8,2335.1,2249.8,2353.3,2261.5,2353.3z"/>
	<path d="M3136.5,628.6c25.2,0,50.5-9.6,69.7-28.8c31-31,37-77.8,17.9-114.9c65.6-54.4,128.3-82.2,182.5-80.5
		c1.5,43.8-15.4,104.9-80.4,183.1c-36.9-18.5-83.1-12.4-113.8,18.3c-38.4,38.4-38.4,100.9,0,139.4c19.2,19.2,44.4,28.8,69.7,28.8
		c25.2,0,50.5-9.6,69.7-28.8c18.6-18.6,28.9-43.4,28.9-69.7c0-17.9-4.9-35.1-13.8-50.1c22.3-29.2,105.3-138.4,185.4-248.3
		c193.1-265,181.6-275.2,172.4-283.5c-8.4-7.5-19.9-17.8-284.4,167.9c-120.7,84.8-240.3,172.8-254.4,183.2
		c-37.7-21.7-86.7-16.6-118.9,15.6c-38.4,38.4-38.4,100.9,0,139.4C3086.1,619,3111.3,628.6,3136.5,628.6z M3338.8,732.4
		L3338.8,732.4c-31.3,31.3-82.3,31.3-113.6,0c-31.3-31.3-31.3-82.3,0-113.6c15.7-15.7,36.2-23.5,56.8-23.5
		c20.6,0,41.2,7.8,56.8,23.5c15.2,15.2,23.5,35.4,23.5,56.8C3362.3,697,3354,717.2,3338.8,732.4z M3708.7,110.3
		c-20.2,54.1-219.5,324.9-353.2,499.8c-1.3-1.4-2.5-2.9-3.9-4.3c-3.2-3.2-6.5-6-10-8.6c63.8-77.3,91.3-148.7,81.7-212.5
		c-5.2-34.3-20.1-57.1-29.3-68.3C3533.8,217.1,3671.9,123.4,3708.7,110.3z M3379.2,327.1c7.3,8.7,20.8,28.5,25.7,59.1
		c-58.2-1.1-122.2,26.9-190.7,83.3c-2.5-3.1-5.1-6.2-8-9.1c-1.6-1.6-3.2-3-4.9-4.4C3254.3,416.9,3316.5,371.7,3379.2,327.1z
		 M3079.7,473.3c15.7-15.7,36.2-23.5,56.8-23.5c20.6,0,41.2,7.8,56.8,23.5c31.3,31.3,31.3,82.3,0,113.6
		c-31.3,31.3-82.3,31.3-113.6,0C3048.4,555.6,3048.4,504.6,3079.7,473.3z"/>
	<path d="M3136.5,587.2c14.6,0,29.2-5.6,40.3-16.7c22.2-22.2,22.2-58.4,0-80.7c-22.2-22.2-58.4-22.2-80.7,0
		c-22.2,22.2-22.2,58.4,0,80.7C3107.3,581.6,3121.9,587.2,3136.5,587.2z M3109.1,502.6c7.6-7.6,17.5-11.4,27.5-11.4
		c10,0,19.9,3.8,27.5,11.4c15.2,15.2,15.2,39.8,0,55c-15.1,15.1-39.8,15.1-55,0C3093.9,542.5,3093.9,517.8,3109.1,502.6z"/>
	<path d="M3241.6,635.2c-22.2,22.2-22.2,58.4,0,80.7c11.1,11.1,25.7,16.7,40.3,16.7c14.6,0,29.2-5.6,40.3-16.7
		c22.2-22.2,22.2-58.4,0-80.7C3300.1,613,3263.9,613,3241.6,635.2z M3309.5,703.1c-15.2,15.2-39.8,15.2-55,0
		c-15.2-15.2-15.2-39.8,0-55c7.6-7.6,17.5-11.4,27.5-11.4c10,0,19.9,3.8,27.5,11.4C3324.6,663.3,3324.6,687.9,3309.5,703.1z"/>
	<path d="M3478.3,369.3c8.5,0,16.9-3.2,23.4-9.7c12.9-12.9,12.9-33.9,0-46.8c-12.9-12.9-33.9-12.9-46.8,0
		c-12.9,12.9-12.9,33.9,0,46.8C3461.4,366,3469.8,369.3,3478.3,369.3z M3467.8,325.7c2.9-2.9,6.7-4.4,10.5-4.4
		c3.8,0,7.6,1.5,10.5,4.4c5.8,5.8,5.8,15.2,0,21c-5.8,5.8-15.2,5.8-21,0C3462,340.9,3462,331.5,3467.8,325.7z"/>
	<path d="M3658.3,1115.7c17.1,12.1,40.9,8,52.9-9.2c5.8-8.3,8.1-18.4,6.4-28.4c-1.7-10-7.2-18.7-15.5-24.6l-137.8-97.1l-51.1-36
		c-18.3-12.9-43.7-8.5-56.7,9.8l-400.2,567.8c-10.7,15.1-16.1,30.9-15.8,45.5c0.4,16.8,8.4,31.1,23.1,41.5
		c9.8,6.9,20.3,10.4,30.9,10.4c5.3,0,10.6-0.9,15.9-2.6c13.9-4.6,26.9-15,37.6-30.1l160.4-227.6l130.4,91.9
		c8.3,5.8,18.4,8.1,28.4,6.4c10-1.7,18.7-7.2,24.6-15.5c12.1-17.1,8-40.9-9.2-52.9l-130.4-91.9l15.6-22.1
		c48.2,34,96.4,67.9,144.5,101.9c9.6,6.8,18.7-9,9.2-15.7c-47.8-33.7-95.5-67.3-143.3-101l12-17c48.2,34,96.4,67.9,144.5,101.9
		c9.6,6.8,18.7-9,9.2-15.7c-47.8-33.7-95.5-67.3-143.3-101l12-17c48.2,34,96.4,67.9,144.5,101.9c9.6,6.8,18.7-9,9.2-15.7
		c-47.8-33.7-95.5-67.3-143.3-101l12-17c48.2,34,96.4,67.9,144.5,101.9c9.6,6.8,18.7-9,9.2-15.7c-47.8-33.7-95.5-67.3-143.3-101
		l12.2-17.3c48.2,34,96.4,67.9,144.5,101.9c9.6,6.8,18.7-9,9.2-15.7c-47.8-33.7-95.5-67.3-143.3-101l12-17
		c48.2,34,96.4,67.9,144.5,101.9c9.6,6.8,18.7-9,9.2-15.7c-47.8-33.7-95.5-67.3-143.3-101l12-17c48.2,34,96.4,67.9,144.5,101.9
		c9.6,6.8,18.7-9,9.2-15.7c-47.8-33.7-95.5-67.3-143.3-101l14.9-21.2L3658.3,1115.7z M3132,1422.2l62,43.7l-19.6,27.7l-62-43.7
		L3132,1422.2z M3133.1,1552.3c-8.4,11.9-18.2,20-28.4,23.3c-10.4,3.4-20.7,1.6-30.7-5.4c-9.9-7-15.1-16.1-15.4-27.1
		c-0.3-10.7,4-22.6,12.4-34.6l30.8-43.7l62,43.7L3133.1,1552.3z M3326.8,1277.5l145.2,102.4c8.9,6.3,11.1,18.6,4.8,27.6
		c-3,4.3-7.6,7.2-12.8,8.1c-5.2,0.9-10.4-0.3-14.8-3.3L3304,1309.8l-99.6,141.3l-62-43.7l313.8-445.2l15.1-21.4
		c4.4-6.2,11.3-9.5,18.4-9.5c4.5,0,9,1.3,12.9,4.1l188.9,133.1c4.3,3,7.2,7.6,8.1,12.8c0.9,5.2-0.3,10.5-3.3,14.8
		c-6.3,8.9-18.6,11.1-27.6,4.8l-145.2-102.4L3326.8,1277.5z"/>
	<path d="M3104.7,2404.5c4,4,9.2,6.2,14.9,6.2c5.6,0,10.9-2.2,14.9-6.2l183.7-183.7l3.5,3.5c3.5,3.5,8.2,5.3,12.9,5.3
		c4.7,0,9.3-1.8,12.9-5.3l26.3-26.3c1.2-1.2,2.1-2.6,2.9-4l0.4,0.4c27,27,62.8,41.8,101,41.8c38.1,0,74-14.9,101-41.8l104.2-104.2
		c27-27,41.8-62.8,41.8-101c0-38.1-14.9-74-41.8-101l-0.2-0.2c1-0.7,1.9-1.4,2.8-2.3l0.8-0.8c19.8-19.8,19.8-51.9,0-71.7l-46.7-46.7
		c-19.8-19.8-51.9-19.8-71.7,0l-0.8,0.8c-0.9,0.9-1.6,1.8-2.3,2.8l-0.2-0.2c-27-27-62.8-41.8-101-41.8c-38.1,0-74,14.9-101,41.8
		l-104.2,104.2c-27,27-41.8,62.8-41.8,101c0,38.1,14.9,74,41.8,101l0.4,0.4c-1.4,0.8-2.8,1.7-4,2.9l-26.3,26.3
		c-7.1,7.1-7.1,18.6,0,25.7l3.5,3.5l-183.7,183.7c-8.2,8.2-8.2,21.5,0,29.7L3104.7,2404.5z M3248.6,1918.8
		c39.5,39.5,79,79,118.5,118.5l-22.7,22.7c-35.7-35.7-71.5-71.5-107.2-107.2C3239.3,1940.9,3243.2,1929.5,3248.6,1918.8z
		 M3599.6,1830.4l23.2,23.2L3342.3,2134l-23.2-23.2L3599.6,1830.4z M3315.4,1843.3c40.9,40.9,81.9,81.9,122.8,122.8l-22.7,22.7
		c-40.9-40.9-81.9-81.9-122.8-122.8L3315.4,1843.3z M3351.3,1807.4c40.9,40.9,81.9,81.9,122.8,122.8l-23,23
		c-40.9-40.9-81.9-81.9-122.8-122.8L3351.3,1807.4z M3435.7,1749.6c36.5,36.5,73,73,109.5,109.5l-22.7,22.7
		c-39.8-39.8-79.7-79.7-119.5-119.5C3413.3,1756.5,3424.3,1752.3,3435.7,1749.6z M3690.9,2050.2c-39.8-39.8-79.7-79.7-119.5-119.5
		l22.7-22.7c36.5,36.5,73,73,109.5,109.5C3701,2028.9,3696.7,2039.9,3690.9,2050.2z M3622.8,2124.9
		c-40.9-40.9-81.9-81.9-122.8-122.8l23-23c40.9,40.9,81.9,81.9,122.8,122.8L3622.8,2124.9z M3587.2,2160.5
		c-40.9-40.9-81.9-81.9-122.8-122.8l22.7-22.7c40.9,40.9,81.9,81.9,122.8,122.8L3587.2,2160.5z M3500.5,2216
		c-35.7-35.7-71.5-71.5-107.2-107.2l22.7-22.7c39.5,39.5,79,79,118.5,118.5C3523.8,2210,3512.3,2213.9,3500.5,2216z M3355.2,2146.9
		l25.2-25.2c32.1,32.1,64.2,64.2,96.3,96.3c-32.8-0.3-63.6-13.2-86.9-36.5L3355.2,2146.9z M3550.4,2194.9
		c-40.5-40.5-81.1-81.1-121.6-121.6l22.7-22.7c40.9,40.9,81.9,81.9,122.8,122.8l-8.2,8.2C3561.2,2186.5,3556,2190.9,3550.4,2194.9z
		 M3658.7,2089c-40.9-40.9-81.9-81.9-122.8-122.8l22.7-22.7c40.7,40.7,81.4,81.4,122.1,122.1c-3.2,4.1-6.6,8-10.3,11.7L3658.7,2089z
		 M3706.8,1989.2c0,1.9-0.1,3.7-0.1,5.6c-33.2-33.2-66.5-66.5-99.7-99.7l28.7-28.7l19.4,19.4c0,0,0,0,0,0l15.3,15.3
		C3693.9,1924.7,3706.8,1956,3706.8,1989.2z M3580.3,1780.3l0.8-0.8c6.3-6.3,14.7-9.5,23-9.5c8.3,0,16.6,3.2,23,9.5l46.7,46.7
		c12.7,12.7,12.7,33.3,0,46l-0.8,0.8c-1.4,1.4-3.7,1.4-5.1,0l-26.9-26.9l-41.4-41.4l0,0l-19.4-19.4
		C3578.9,1783.9,3578.9,1781.7,3580.3,1780.3z M3552.1,1782.9l34.7,34.7l-28.7,28.7c-33.2-33.2-66.5-66.5-99.7-99.7
		c1.9-0.1,3.7-0.1,5.6-0.1C3497.3,1746.4,3528.5,1759.3,3552.1,1782.9z M3387.6,1772.6c40.7,40.7,81.4,81.4,122.1,122.1l-22.7,22.7
		c-40.9-40.9-81.9-81.9-122.8-122.8l11.7-11.7C3379.6,1779.2,3383.5,1775.7,3387.6,1772.6z M3271.6,1887.1l8.2-8.2
		c40.9,40.9,81.9,81.9,122.8,122.8l-22.7,22.7c-40.5-40.5-81.1-81.1-121.6-121.6C3262.3,1897.3,3266.7,1892,3271.6,1887.1z
		 M3235.2,1976.5c32.1,32.1,64.2,64.2,96.3,96.3l-25.2,25.2l-34.7-34.7C3248.4,2040.1,3235.5,2009.3,3235.2,1976.5z M3241.8,2118.8
		l26.3-26.3l92.7,92.7l-26.3,26.3l-3.5-3.5v0l-85.7-85.7l0,0L3241.8,2118.8z M3061.6,2331.7l183.7-183.7l41.3,41.3l18.7,18.7
		l-183.7,183.7c-0.7,0.7-1.5,0.8-2,0.8s-1.3-0.1-2-0.8l-56-56C3060.5,2334.6,3060.5,2332.8,3061.6,2331.7z"/>
	<path d="M2176.8,773.1c36.2,0,72.3,0,108.5,0h175.6c52.5,0,104.9,0,157.4,0c34,0,67.9,0,101.8,0c10.6,0,21.2,0,31.8,0
		c27.4,0,54.8,0,82.3,0c11.7,0,11.7-18.2,0-18.2c-28.1,0-56.2,0-84.3,0c2.4-4.6,3.8-9.8,3.8-15.4v-71.7c5-3.8,8.3-9.7,8.4-16.5
		l21.4-380.6l0-0.5c0-11.7-9.5-21.2-21.2-21.2h-186.3c-11.7,0-21.2,9.5-21.2,21.2l21.4,381.1c0.1,6.7,3.4,12.7,8.4,16.5v71.7
		c0,5.6,1.4,10.8,3.8,15.4c-28.5,0-57.1,0-85.6,0c9.8-10.3,15.8-24.3,15.8-39.6V299.6c0-31.9-25.9-57.8-57.8-57.8h-6.5v-19.6
		c0-10.4-8.5-18.9-18.9-18.9h-31.3v-39.3h85.6V114l-154.7-23.2l-1.4-0.1c-20.2,0-36.6,16.4-36.6,36.6s16.4,36.6,36.6,36.6h14.9v39.3
		h-37.9c-10.4,0-18.9,8.5-18.9,18.9v19.6h-6.5c-31.9,0-57.8,25.9-57.8,57.8v415.7c0,15.3,6,29.2,15.8,39.6c-22.2,0-44.3,0-66.5,0
		C2165.1,754.9,2165.1,773.1,2176.8,773.1z M2691.2,710.9c-3.7,8.5-12.1,14.5-21.9,14.5s-18.3-6-21.9-14.5H2691.2z M2627.1,692.3
		v0.3h-24.3v-20.5h132.7v20.5h-24.2v-0.3H2627.1z M2765.3,270l-2.2,38.8h-31.5v-41.6h30.7C2763.9,267.2,2765.2,268.4,2765.3,270z
		 M2622.1,308.8v-41.6h36.6v41.6H2622.1z M2676.9,267.2h36.6v41.6h-36.6V267.2z M2576.1,267.2h27.8v41.6h-28.6l-2.2-38.8
		C2573.2,268.4,2574.5,267.2,2576.1,267.2z M2576.3,327h185.8l-18.2,323.6l0,0.5c0,1.6-1.3,3-3,3h-143.5c-1.6,0-3-1.3-3-3
		L2576.3,327z M2602.9,739.5v-28.6h25.4c4.3,18.7,21,32.7,41,32.7s36.7-14,41-32.7h25.3v28.6c0,8.5-6.9,15.4-15.4,15.4
		c-33.9,0-67.9,0-101.8,0C2609.8,754.9,2602.9,748,2602.9,739.5z M2333.7,145.7c-10.2,0-18.4-8.3-18.4-18.4c0-10,7.9-18.1,17.8-18.4
		l138.4,20.8v16.1h-67.4h-55.5H2333.7z M2366.8,163.9h19.1v39.3h-19.1V163.9z M2310.1,222.2c0-0.4,0.3-0.7,0.7-0.7h37.9h55.5h31.3
		c0.4,0,0.7,0.3,0.7,0.7v19.6h-126.1V222.2z M2245.8,299.6c0-21.8,17.7-39.6,39.6-39.6h6.5h162.5h6.5c21.8,0,39.6,17.7,39.6,39.6
		v415.7c0,21.8-17.7,39.6-39.6,39.6h-175.6c-21.8,0-39.6-17.7-39.6-39.6V299.6z"/>
	<path d="M2305.4,561h117.1c1.4,0,2.8-0.1,3.9-0.3c24-2.7,42.2-23,42.2-47.2c0-21-13.9-39.4-33.7-45.4c-38.7-72-44.2-70.6-51.1-69
		c-3.6,0.9-7.6,4.1-7.8,10.4c-0.9,34.6-32.4,43.1-37.4,44.2c-18.3,0.5-33,15.6-33,34c0,6.3,1.7,12.4,4.7,17.7h-4.9
		c-15.3,0-27.8,12.5-27.8,27.8C2277.6,548.5,2290.1,561,2305.4,561z M2305.4,523.5h34.3v0c9.7,0,19.3,0,29,0
		c11.7,0,11.7-18.2,0-18.2c-9.7,0-19.4,0-29.1,0c-8.2-0.1-15.8-8.6-15.8-17.7c0-8.7,7.1-15.8,15.8-15.8l1.6-0.1
		c14.9-2.7,41.1-15,50-43.1c5.9,9.4,13.6,22.6,21.1,36l-0.6,0l2.2,3.8c-1.6,0-3.2,0-4.8,0c-11.7,0-11.7,18.2,0,18.2
		c7.7,0,15.4,0,23.1,0c0.1,0,0.2,0,0.3,0c10.6,4.5,17.9,15,17.9,26.9c0,14.9-11.2,27.4-26.4,29.2c-0.5,0.1-1,0.1-1.5,0.1h-117.1
		c-5.3,0-9.6-4.3-9.6-9.6C2295.8,527.9,2300.1,523.5,2305.4,523.5z"/>
	<path d="M2666.7,537.8c0.8,0,1.7,0.1,2.5,0.1c0.8,0,1.7,0,2.5-0.1c13.3-0.8,25-7.9,32-19.5c7.1-11.8,7.9-26.4,2.2-38.9
		c-19.9-43.2-29.1-46.9-36.1-46.9h-1c-7.1,0-16.2,3.6-36.1,46.9c-5.7,12.5-4.9,27,2.2,38.9C2641.7,529.9,2653.4,537,2666.7,537.8z
		 M2649.1,487.1c10-21.6,16.8-31.8,20.1-35.3c3.3,3.5,10.1,13.7,20.1,35.3c3.2,7,2.8,15.2-1.2,21.9c-3.8,6.4-10.2,10.3-17.4,10.7
		c-0.9,0.1-1.9,0.1-2.9,0c-7.2-0.4-13.6-4.3-17.4-10.7C2646.3,502.3,2645.9,494.1,2649.1,487.1z"/>
	<path d="M2843.3,1250c0-19.9-16.2-36.2-36.2-36.2h-15.7c21.8-16.5,35.8-42.6,35.8-71.8c0-41.1-28.3-77.1-67.8-87.2
		c-4.4-8.1-21.3-39.4-39.2-70.1c-45.1-77.3-51.7-75.8-59.3-73.9c-2,0.5-8.4,2.7-8.6,12.4c-2.1,82.9-78.9,101.1-87.7,102.9
		c-33.5,0.5-60.6,27.9-60.6,61.5c0,18.2,7.8,35.2,20,47.3h-30.4c-26.8,0-48.5,21.8-48.5,48.5c0,11.5,4,22,10.7,30.3h-18.5
		c-19.9,0-36.2,16.2-36.2,36.2c0,16.6,11.3,30.6,26.6,34.8l-22.5,57.5h-1.3v3.4v1.7v171h0.8l10.3,62.3c0.5,6.8,6.2,12.2,13.1,12.2
		h388c6.9,0,12.6-5.4,13.1-12.2l10.4-62.3h0.7v-171v-1.7v-3.4h-1.3l-22.5-57.5C2832,1280.6,2843.3,1266.6,2843.3,1250z
		 M2463.4,1183.5c0-16.7,13.6-30.3,30.3-30.3h72.2v0c20.3,0,40.7,0,61,0c11.7,0,11.7-18.2,0-18.2c-20.5,0-41,0-61.5,0
		c-22.6-0.3-43.1-22.7-43.1-47.3c0-23.9,19.4-43.3,43.3-43.3l1.6-0.1c1-0.2,91-17.6,102.3-106.1c14.6,20,41.5,65.7,66.4,111.3
		l-0.9-0.1l4.6,7.8c-9.2,0-18.4,0-27.6,0c-11.7,0-11.7,18.2,0,18.2c16.2,0,32.5,0,48.7,0c0.8,0,1.5-0.1,2.2-0.3
		c27.3,10.5,46.2,37,46.2,67c0,36.6-27.4,67.2-64.1,71.3c-1.8,0.3-3.3,0.4-4.7,0.4h-246.6C2477,1213.9,2463.4,1200.2,2463.4,1183.5z
		 M2822.3,1500.2h-400.1v-139.6h400.1V1500.2z M2811.9,1574.6h-379.3l-9.4-56.2h398.1L2811.9,1574.6z M2424.9,1342.4l22-56.2h350.8
		l22,56.2H2424.9z M2807.2,1268h-5.7h-358.3h-5.7c-9.9,0-18-8.1-18-18c0-9.9,8.1-18,18-18h56.3h246.6h66.9c9.9,0,18,8.1,18,18
		C2825.1,1259.9,2817.1,1268,2807.2,1268z"/>
	<path d="M2197.5,1487.5v71.7c0,18.5,15.1,33.6,33.6,33.6H2333c18.5,0,33.6-15.1,33.6-33.6v-71.7c5-3.8,8.3-9.7,8.4-16.5l21.4-380.6
		l0-0.5c0-11.7-9.5-21.2-21.2-21.2h-186.3c-11.7,0-21.2,9.5-21.2,21.2l21.4,381.1C2189.2,1477.8,2192.5,1483.7,2197.5,1487.5z
		 M2348.4,1512.4h-24.2v-0.3H2240v0.3h-24.3v-20.5h132.7V1512.4z M2304,1530.6c-3.7,8.5-12.1,14.5-21.9,14.5
		c-9.8,0-18.3-6-21.9-14.5H2304z M2333,1574.6h-101.8c-8.5,0-15.4-6.9-15.4-15.4v-28.6h25.4c4.3,18.7,21,32.7,41,32.7
		c20,0,36.7-14,41-32.7h25.3v28.6C2348.4,1567.7,2341.5,1574.6,2333,1574.6z M2356.8,1470.2l0,0.5c0,1.6-1.3,3-3,3h-143.5
		c-1.6,0-3-1.3-3-3l-18.2-324.1H2375L2356.8,1470.2z M2289.7,1128.5v-41.6h36.6v41.6H2289.7z M2271.5,1128.5h-36.6v-41.6h36.6
		V1128.5z M2378.1,1089.7l-2.2,38.8h-31.5v-41.6h30.7C2376.8,1086.9,2378.1,1088.2,2378.1,1089.7z M2188.9,1086.9h27.8v41.6h-28.6
		l-2.2-38.8C2186,1088.2,2187.3,1086.9,2188.9,1086.9z"/>
	<path d="M2282.6,1258.1h-1c-7.1,0-16.3,3.6-36.1,46.9c-5.7,12.5-4.9,27,2.2,38.9c7,11.6,18.6,18.7,32,19.5c0.8,0,1.7,0.1,2.5,0.1
		c0.8,0,1.7,0,2.5-0.1c13.3-0.8,25-7.9,32-19.5c7.1-11.8,7.9-26.4,2.2-38.9C2298.8,1261.8,2289.6,1258.1,2282.6,1258.1z
		 M2300.9,1334.5c-3.8,6.4-10.2,10.3-17.4,10.7c-1,0.1-1.9,0.1-2.9,0c-7.2-0.4-13.6-4.3-17.4-10.7c-4-6.7-4.5-14.9-1.2-21.9
		c10-21.6,16.8-31.8,20.1-35.3c3.3,3.5,10.1,13.7,20.1,35.3C2305.4,1319.6,2304.9,1327.8,2300.9,1334.5z"/>
	<path d="M928.1,3010.3c23.7,0,43.5-17.1,47.8-39.6h41.9v-135.4h39.7c18.6,0,33.8-15.2,33.8-33.8v-14c0-18.6-15.2-33.8-33.8-33.8
		h-97.6c-5.6,0-10.9,1.4-15.6,3.8v-25.1c0-107.1-87.1-194.2-194.2-194.2c-107.1,0-194.2,87.1-194.2,194.2v22.8
		c-4.7-2.4-10-3.8-15.6-3.8h-97.6c-18.6,0-33.8,15.2-33.8,33.8v14c0,18.6,15.2,33.8,33.8,33.8h39.7v137.6h41.9
		c4.3,22.5,24.1,39.6,47.8,39.6H704v125.2h-42.6c-34.8,0-63.1,28.3-63.1,63.1c0,16.8,13.7,30.5,30.5,30.5h242.6
		c16.8,0,30.5-13.7,30.5-30.5c0-34.8-28.3-63.1-63.1-63.1h-42.6v-125.2H928.1z M999.6,2952.6h-23.8c-4.3-22.5-24.1-39.6-47.8-39.6
		H796.2v-48.4h113.6c18.5,0,33.7-14.7,34.4-33c4.7,2.5,10,3.9,15.7,3.9h39.7V2952.6z M722.2,2864.6H778v48.4h-55.7V2864.6z
		 M959.9,2772.1h97.6c8.6,0,15.6,7,15.6,15.6v14c0,8.6-7,15.6-15.6,15.6h-97.6c-8.6,0-15.6-7-15.6-15.6v-14
		C944.3,2779.1,951.3,2772.1,959.9,2772.1z M574.1,2732.6c0-97.1,79-176,176-176c97.1,0,176,79,176,176v55v14v28.4
		c0,9-7.3,16.3-16.3,16.3H796.2H704H590.4c-9,0-16.3-7.3-16.3-16.3v-30.7v-14V2732.6z M427.1,2799.3v-14c0-8.6,7-15.6,15.6-15.6
		h97.6c8.6,0,15.6,7,15.6,15.6v14c0,8.6-7,15.6-15.6,15.6h-97.6C434.1,2814.9,427.1,2807.9,427.1,2799.3z M524.3,2952.6h-23.8
		v-119.4h39.7c5.6,0,10.9-1.4,15.6-3.8v0.8c0,19,15.5,34.5,34.5,34.5H704v48.4H572.1C548.4,2913,528.6,2930.1,524.3,2952.6z
		 M572.1,2992.1c-16.8,0-30.5-13.7-30.5-30.5s13.7-30.5,30.5-30.5H704h92.1h131.9c16.8,0,30.5,13.7,30.5,30.5s-13.7,30.5-30.5,30.5
		H796.2H704H572.1z M838.8,3153.8c24.7,0,44.9,20.1,44.9,44.9c0,6.8-5.5,12.3-12.3,12.3H628.8c-6.8,0-12.3-5.5-12.3-12.3
		c0-24.7,20.1-44.9,44.9-44.9H704h92.1H838.8z M778,3135.6h-55.7v-125.2H778V3135.6z"/>
	<path d="M713.5,2687.5c1,0.2,2.1,0.5,3.1,0.8c0.4,0.1,1.8,0.6,2.3,0.8c0.4,0.2,0.9,0.4,1,0.5c0.7,0.4,1.5,0.8,2.2,1.2
		c1.6,0.9,3.8,2.9,4.8,4.6c1.9,3.1,2.1,6.6,1.8,10.6c0,0.3,0,0.6,0,0.9c-5.3,5.4-8.5,12.8-8.5,20.9c0,8.3,3.4,15.9,9,21.3
		c-0.1,2.2-0.6,4.2-1.5,6c-1.1,2.1-3.3,4.1-5.1,5.1c-1,0.6-2.1,1.1-3.1,1.6c-0.3,0.1-1.7,0.7-2.1,0.8c-1.1,0.3-2.2,0.7-3.3,0.9
		c-4.8,0.8-7.6,6.8-6.4,11.2c1.4,5.1,6.3,7.2,11.2,6.4c13-2.3,23.5-11.6,27.2-23.6c1.4,0.2,2.8,0.3,4.2,0.3c1.4,0,2.7-0.1,4-0.3
		c3.7,12,14.1,21.3,27.2,23.6c4.8,0.8,9.8-1.3,11.2-6.4c1.2-4.4-1.5-10.3-6.4-11.2c-1-0.2-2.1-0.5-3.1-0.8c-0.4-0.1-1.8-0.6-2.3-0.8
		c-0.4-0.2-0.9-0.4-1-0.5c-0.7-0.4-1.5-0.8-2.2-1.2c-1.6-0.9-3.8-2.9-4.8-4.6c-1.2-1.9-1.7-4-1.8-6.3c5.6-5.4,9.1-13.1,9.1-21.5
		c0-8.6-3.7-16.3-9.5-21.8c-0.3-3.8-0.1-7.2,1.5-10.1c1.1-2.1,3.3-4.1,5.1-5.1c1-0.6,2.1-1.1,3.1-1.6c0.3-0.1,1.7-0.7,2.1-0.8
		c1.1-0.3,2.2-0.7,3.3-0.9c4.8-0.8,7.6-6.8,6.4-11.2c-1.4-5.1-6.3-7.2-11.2-6.4c-14.6,2.5-25.9,13.9-28.2,28
		c-0.9-0.1-1.7-0.1-2.6-0.1c-1.2,0-2.4,0.1-3.6,0.2c-2.3-14.1-13.6-25.5-28.2-28.1c-4.8-0.8-9.8,1.3-11.2,6.4
		C705.9,2680.7,708.6,2686.7,713.5,2687.5z M761.8,2727.7c0,6.5-5.3,11.8-11.8,11.8c-6.5,0-11.8-5.3-11.8-11.8
		c0-6.5,5.3-11.8,11.8-11.8C756.6,2716,761.8,2721.3,761.8,2727.7z"/>
	<path d="M1091.5,3934.4c0-24.2-19.7-43.8-43.8-43.8H932.9v-200.8v-162.8v-124.5c0-19.6-16-35.6-35.6-35.6H514.5h-18.2h-43.2
		c-24.6,0-44.6,20-44.6,44.6v388.7c0,15.8,12.8,28.6,28.6,28.6h59.2v130.2c0,19.6,16,35.6,35.6,35.6h111.1
		c10.6,30.9,39.9,53.3,74.3,53.3h60.8c0.4,0,0.8,0,1.3-0.1c0.4,0,0.9,0.1,1.3,0.1h266.9c24.2,0,43.8-19.7,43.8-43.8
		c0-14.1-6.7-26.7-17.1-34.7C1084.8,3961.1,1091.5,3948.5,1091.5,3934.4z M914.7,3616.6c-11.2-2.1-18-7.9-26.1-15.1
		c-10.9-9.6-23.2-20.5-47.2-20.5c-24,0-36.4,10.9-47.2,20.5c-10.1,8.9-18,15.9-35.2,15.9c-17.1,0-25.1-7-35.2-15.9
		c-10.9-9.6-23.2-20.5-47.2-20.5c-24,0-36.3,10.9-47.2,20.5c-10.1,8.9-18,15.9-35.2,15.9c-17.1,0-25.1-7-35.1-15.9
		c-10.5-9.3-22.3-19.7-44.7-20.4v-36h400.2V3616.6z M514.5,3599.4c15.4,0.7,23.1,7.4,32.6,15.8c10.9,9.6,23.2,20.5,47.2,20.5
		c24,0,36.3-10.9,47.2-20.5c10.1-8.9,18-15.9,35.2-15.9c17.1,0,25.1,7,35.2,15.9c10.9,9.6,23.2,20.5,47.2,20.5
		c24,0,36.4-10.9,47.2-20.5c10.1-8.9,18-15.9,35.2-15.9s25.1,7,35.2,15.9c9.4,8.3,19.9,17.5,38.1,19.9v36.5H514.5V3599.4z
		 M897.3,3385c9.6,0,17.4,7.8,17.4,17.4v124.5H514.5V3385H897.3z M437.2,3810.5c-5.7,0-10.4-4.7-10.4-10.4v-388.7
		c0-14.6,11.8-26.4,26.4-26.4h43.2v141.9v162.8v120.8H437.2z M514.5,3689.7h400.2v200.8h-134c-0.4,0-0.8,0-1.3,0.1
		c-0.4,0-0.9-0.1-1.3-0.1h-60.8c-23.7,0-45,10.6-59.4,27.3H514.5v-89.2V3689.7z M531.9,3976.2c-9.6,0-17.4-7.8-17.4-17.4v-22.8
		h131.7c-4.7,10.1-7.4,21.3-7.4,33.1c0,2.4,0.1,4.8,0.4,7.1H531.9z M1047.7,3960C1047.7,3960,1047.7,3960,1047.7,3960
		c-99,0-197.9,0-296.9,0c-11.7,0-11.7,18.2,0,18.2c99,0,197.9,0,296.9,0v0c14.1,0,25.6,11.5,25.6,25.6s-11.5,25.6-25.6,25.6H781.2
		c-0.4-0.1-0.9-0.1-1.3-0.1l-0.3,0l-0.3,0c-0.5,0-1,0.1-1.5,0.1h-60.4c-33.3,0-60.4-27.1-60.4-60.4s27.1-60.4,60.4-60.4h60.4
		c0.5,0.1,1,0.1,1.4,0.1l0.3,0l0.3,0c0.4,0,0.9-0.1,1.3-0.1h266.5c14.1,0,25.6,11.5,25.6,25.6
		C1073.3,3948.5,1061.8,3960,1047.7,3960z"/>
	<path d="M2843.9,2726.2c0-11.7-9.5-21.2-21.2-21.2H2688c-22-68.1-79.9-149-231.1-151c-2.4,0-59.2,1.3-121.2,38.7
		c-56.9,34.4-128.7,107.1-147.8,258.1c-6.4,31-57.1,288,8.9,339.3l12.4,9.6l2.2-15.5c0.2-1.3,17.6-108.5,160-156
		c14.2,28.6,28.4,57.3,42.5,85.9c11.5,23.2,24,67.4,58.9,57.1c25.6-7.5,37.8-52.4,48.1-73.2c14.2-28.7,28.4-57.4,42.6-86.1
		c21.4,3.6,45,9.5,68.7,19.1l4.3,76.3c0.1,6.7,3.4,12.7,8.4,16.5v71.7c0,18.5,15.1,33.6,33.6,33.6h101.8c18.5,0,33.6-15.1,33.6-33.6
		v-71.7c5-3.8,8.3-9.7,8.4-16.5l21.4-380.6L2843.9,2726.2z M2825.7,2726l-2.2,38.8H2792v-41.6h30.7
		C2824.3,2723.2,2825.6,2724.5,2825.7,2726z M2633.5,2726c0.1-1.6,1.4-2.8,3-2.8h27.8v41.6h-28.6L2633.5,2726z M2682.5,2723.2h36.6
		v41.6h-36.6V2723.2z M2737.2,2723.2h36.6v41.6h-36.6V2723.2z M2513.2,3072.9c-11.4,23-20.8,51.7-35.9,72.5
		c-22.7,31.3-48.3-41.9-55.3-56.1c-11-22.2-21.9-44.3-32.9-66.5c26.5-7.4,56.9-12.8,91.9-15.3c0.5,0,26.8-2.5,63.8,1.7
		C2534.2,3030.5,2523.7,3051.7,2513.2,3072.9z M2321.7,2816c142.7,0,200.9-83.6,217.4-114c27.8,24.3,43.5,57.9,44.2,95.3
		c0.4,17.8,0,35.7,0,53.6c0,2.8-0.1,5.6-0.2,8.4c-6.4-26.5-30.3-46.3-58.7-46.3c-30.2,0-55.3,22.3-59.7,51.3c-10.8,0-21.7,0-32.5,0
		c-4.4-29-29.5-51.3-59.7-51.3c-28.8,0-53,20.3-59,47.3c-0.6-14.7-0.2-29.6,0-44.5C2316.3,2815.8,2319.1,2816,2321.7,2816z
		 M2566.7,2873.4c0,23.3-19,42.2-42.2,42.2s-42.2-19-42.2-42.2s19-42.2,42.2-42.2S2566.7,2850.1,2566.7,2873.4z M2414.8,2873.4
		c0,23.3-19,42.2-42.2,42.2s-42.2-19-42.2-42.2s19-42.2,42.2-42.2S2414.8,2850.1,2414.8,2873.4z M2372.6,2933.8
		c30.2,0,55.3-22.3,59.7-51.3c10.8,0,21.7,0,32.5,0c4.4,29,29.5,51.3,59.7,51.3c20.8,0,39.1-10.5,50-26.5
		c-12.4,36-37.9,65.3-79,78.2c-5.1,1.6-10.4,2.8-15.7,3.9c-0.1,0-0.2,0-0.3,0c-10.2,0.7-20.1,1.8-29.6,3
		c-44.7,0.1-89.4-18.8-114.9-56.6c-7.1-10.6-11.9-21.6-15.1-33C2330.1,2921.3,2349.9,2933.8,2372.6,2933.8z M2530,2989.5
		c13.7-7.7,26.3-17.7,37.5-30.9c32.4-38.2,34.1-82,34.1-129.3c0-22,1.1-44.2-4-65.7c-8.2-34.4-29-62.7-57-83.7
		c-5.5-4.1-10.9-0.4-12.5,4.9l-0.6-0.2c-1.9,4.9-48.1,121-222.5,112.8l0,0.3c-4.7-0.2-9.5,2.7-9.5,8.8c0,38.6-4.1,79.3,11.5,115.6
		c16.7,38.9,49.6,67.7,88.7,80.3c-81.3,20.2-129.1,57.7-156.3,89.3c-24.1,28-35.8,55.1-41.3,72.2c-33.7-57.7-6.7-239,7.9-309.6
		l0.1-0.7c14.5-115.3,61-197.6,138.4-244.7c57.8-35.2,112.3-36.6,112.5-36.6c135.9,1.7,190.3,71.6,211.9,132.8h-32.4
		c-11.7,0-21.2,9.5-21.2,21.2l16,284.9C2593.9,2997.1,2557.7,2991.5,2530,2989.5z M2795.9,3148.7h-24.2v-0.3h-84.2v0.3h-24.3v-20.5
		h132.7V3148.7z M2751.6,3166.9c-3.7,8.5-12.1,14.5-21.9,14.5c-9.8,0-18.3-6-21.9-14.5H2751.6z M2780.5,3210.9h-101.8
		c-8.5,0-15.4-6.9-15.4-15.4v-28.6h25.4c4.3,18.7,21,32.7,41,32.7c20,0,36.7-14,41-32.7h25.3v28.6
		C2795.9,3204,2789,3210.9,2780.5,3210.9z M2804.3,3106.5l0,0.5c0,1.6-1.3,3-3,3h-143.5c-1.6,0-3-1.3-3-3l-18.2-324.1h185.8
		L2804.3,3106.5z"/>
	<path d="M2730.1,2888.6h-1c-7.1,0-16.2,3.6-36.1,46.9c-5.7,12.5-4.9,27,2.2,38.9c7,11.6,18.6,18.7,32,19.5c0.8,0,1.6,0.1,2.5,0.1
		c0.8,0,1.6,0,2.5-0.1c13.3-0.8,25-7.9,32-19.5c7.1-11.8,7.9-26.4,2.2-38.9C2746.3,2892.3,2737.1,2888.6,2730.1,2888.6z
		 M2748.4,2965c-3.8,6.4-10.2,10.3-17.4,10.7c-1,0.1-2,0.1-2.9,0c-7.2-0.4-13.6-4.3-17.4-10.7c-4-6.7-4.5-14.9-1.2-21.9
		c10-21.6,16.8-31.8,20.1-35.3c3.3,3.5,10.1,13.7,20.1,35.3C2752.9,2950.1,2752.5,2958.3,2748.4,2965z"/>
	<path d="M2744.5,2594.9c0,5.6,0,11.2,0,16.9c-5.6,0-11.2,0-16.9,0c-11.7,0-11.7,18.2,0,18.2c5.6,0,11.2,0,16.9,0
		c0,5.6,0,11.2,0,16.9c0,11.7,18.2,11.7,18.2,0c0-5.6,0-11.2,0-16.9c5.6,0,11.2,0,16.9,0c11.7,0,11.7-18.2,0-18.2
		c-5.6,0-11.2,0-16.9,0c0-5.6,0-11.2,0-16.9C2762.7,2583.2,2744.5,2583.1,2744.5,2594.9z"/>
	<path d="M2405.1,2678.7c-5.6,0-11.2,0-16.9,0c0-5.6,0-11.2,0-16.9c0-11.7-18.2-11.7-18.2,0c0,5.6,0,11.2,0,16.9
		c-5.6,0-11.2,0-16.9,0c-11.7,0-11.7,18.2,0,18.2c5.6,0,11.2,0,16.9,0c0,5.6,0,11.2,0,16.9c0,11.7,18.2,11.7,18.2,0
		c0-5.6,0-11.2,0-16.9c5.6,0,11.2,0,16.9,0C2416.8,2696.9,2416.8,2678.7,2405.1,2678.7z"/>
	<path d="M2573.9,3119.1c0,5.6,0,11.2,0,16.9c-5.6,0-11.2,0-16.9,0c-11.7,0-11.7,18.2,0,18.2c5.6,0,11.2,0,16.9,0
		c0,5.6,0,11.2,0,16.9c0,11.7,18.2,11.7,18.2,0c0-5.6,0-11.2,0-16.9c5.6,0,11.2,0,16.9,0c11.7,0,11.7-18.2,0-18.2
		c-5.6,0-11.2,0-16.9,0c0-5.6,0-11.2,0-16.9C2592.1,3107.4,2573.9,3107.4,2573.9,3119.1z"/>
	<path d="M1957.6,2837.4l-283.2-283.2c-9.5-9.5-25.1-9.5-34.6,0l-103.3,103.3c-4.6,4.6-7.2,10.8-7.2,17.3c0,6.5,2.5,12.7,7.2,17.3
		l58.9,58.9l-25.5,25.5c-3.3,3.3-5.2,7.7-5.2,12.4c0,4.7,1.8,9.1,5.1,12.4l44.9,44.9l-98.9,98.9l-28-28c-6.3-6.3-17.2-6.3-23.5,0
		l-17.8,17.8c-3.1,3.1-4.9,7.3-4.9,11.7s1.7,8.6,4.9,11.7l14.8,14.8l-170.5,170.5c-9.4,9.4-9.4,24.6,0,33.9l43.3,43.3v0
		c4.7,4.7,10.8,7,17,7c6.1,0,12.3-2.3,17-7l170.5-170.5l14.8,14.8c3.1,3.1,7.3,4.9,11.7,4.9s8.6-1.7,11.7-4.9l17.8-17.8
		c3.1-3.1,4.9-7.3,4.9-11.7c0-4.4-1.7-8.6-4.9-11.7l-28-28l98.9-98.9l44.9,44.9c3.4,3.4,7.9,5.1,12.4,5.1c4.5,0,9-1.7,12.4-5.1
		l25.5-25.5l58.9,58.9c4.8,4.8,11,7.2,17.3,7.2c6.3,0,12.5-2.4,17.3-7.2l103.3-103.3C1967.1,2862.5,1967.1,2847,1957.6,2837.4z
		 M1355.3,3208c-2.3,2.3-6,2.3-8.2,0l-43.3-43.3c-2.3-2.3-2.3-5.9,0-8.2l170.5-170.5l25.8,25.8l25.8,25.8L1355.3,3208z
		 M1580.7,3035.6l-15.5,15.5l-13.7-13.7l0,0l-38.6-38.6l-52.3-52.3l15.5-15.5l26.9,26.9l50.7,50.7L1580.7,3035.6z M1553.8,2982.9
		l-25-25l98.9-98.9l25,25L1553.8,2982.9z M1747.9,2903.5l-25,25l-44.4-44.4l-50.7-50.7l-44.4-44.4l25-25l69.8,69.8L1747.9,2903.5z
		 M1944.7,2859.1l-103.3,103.3c-2.4,2.4-6.4,2.4-8.9,0l-141.6-141.6l-82.7-82.7l0,0l-58.9-58.9c-2.4-2.4-2.4-6.4,0-8.9l103.3-103.3
		c1.2-1.2,2.8-1.8,4.4-1.8c1.6,0,3.2,0.6,4.4,1.8l283.2,283.2C1947.1,2852.7,1947.1,2856.7,1944.7,2859.1z"/>
	<path d="M1665.7,2602.3c-8.3-8.3-21.2,4.6-12.9,12.9c81.2,81.2,162.5,162.5,243.7,243.7c8.3,8.3,21.2-4.6,12.9-12.9
		C1828.2,2764.8,1747,2683.5,1665.7,2602.3z"/>
	<path d="M1750.9,2780.3c8.3,8.3,21.2-4.6,12.9-12.9c-43.9-43.9-87.7-87.7-131.6-131.6c-8.3-8.3-21.2,4.6-12.9,12.9
		C1663.2,2692.6,1707,2736.4,1750.9,2780.3z"/>
	<path d="M1808.2,2811.8c-8.3-8.3-21.2,4.6-12.9,12.9c22.6,22.6,45.2,45.2,67.7,67.7c8.3,8.3,21.2-4.6,12.9-12.9
		C1853.3,2857,1830.8,2834.4,1808.2,2811.8z"/>
	<path d="M1710.8,2781.5c-8.3-8.3-21.2,4.6-12.9,12.9c43.9,43.9,87.7,87.7,131.6,131.6c8.3,8.3,21.2-4.6,12.9-12.9
		C1798.5,2869.2,1754.7,2825.4,1710.8,2781.5z"/>
	<path d="M1598.7,2669.4c-8.3-8.3-21.2,4.6-12.9,12.9c22.6,22.6,45.2,45.2,67.7,67.7c8.3,8.3,21.2-4.6,12.9-12.9
		C1643.8,2714.5,1621.2,2691.9,1598.7,2669.4z"/>
	<path d="M1402.2,3935.6c2.8,0.6,5.5,0.9,8.3,0.9c6.9,0,13.6-1.9,19.6-5.7c8.4-5.2,14.2-13.4,16.4-23.1c2.2-9.6,0.5-19.5-4.7-27.9
		c-10.8-17.2-33.7-22.5-50.9-11.6c-17.2,10.8-22.5,33.7-11.6,50.9C1384.4,3927.5,1392.6,3933.4,1402.2,3935.6z M1400.4,3883.7
		c3.1-1.9,6.5-2.9,9.9-2.9c6.2,0,12.3,3.1,15.9,8.8c2.7,4.2,3.5,9.3,2.4,14.2s-4.1,9-8.3,11.7c-8.8,5.5-20.3,2.8-25.8-5.9
		C1389,3900.8,1391.7,3889.2,1400.4,3883.7z"/>
	<path d="M1283.7,4014.5c1.3,11.8,7.1,22.3,16.3,29.6c7.9,6.3,17.5,9.6,27.4,9.6c1.7,0,3.4-0.1,5.1-0.3c11.8-1.3,22.3-7.1,29.6-16.3
		l31.1-39c5.8,1,11.6,1.5,17.5,1.5c18.2,0,36.1-5,52-14.8l450.4-162.2c19.3-7.2,34.7-21.4,43.4-40.2c7.3-16,8.9-33.5,4.8-50.4
		l0.5-0.2l-19.6-52.7c-4.8-13-19.3-19.6-32.2-14.8l-177.2,65.7c-6.3,2.3-11.3,7-14.1,13c-2.8,6.1-3,12.9-0.7,19.2l13.2,35.7
		l-222.6,82.5c-2.3-12-6.8-23.6-13.5-34.3c-11.4-18.1-27.9-31.7-47.4-39.5l136.7-226l32.6,19.7v0c4,2.4,8.5,3.6,12.9,3.6
		c8.5,0,16.8-4.3,21.5-12.1l97.8-161.7c7.1-11.8,3.3-27.3-8.5-34.4l-48.1-29.1l-0.3,0.5c-15.7-7.2-33.3-8.9-50.4-4.7
		c-20,4.9-37,17.4-47.7,35.1c-2.5,4.1-246.5,412.3-265.3,443.5c-7.7,10.7-13.2,22.9-16.2,36.1c-5.4,23.5-2.1,47.6,9,68.7L1293,3982
		C1285.6,3991.2,1282.3,4002.8,1283.7,4014.5z M1748.3,3791.7l-13.2-35.7v0c-1.3-3.5,0.5-7.5,4-8.8l177.2-65.7
		c0.8-0.3,1.6-0.4,2.4-0.4c2.8,0,5.4,1.7,6.4,4.5l13.2,35.7l-51,18.9L1748.3,3791.7z M1944,3738.5c5.7,28-9.7,56.9-37.3,67.1
		l-412.5,148.6c6.4-9.8,11.1-20.6,13.8-32.4c1.7-7.5,2.5-15.1,2.4-22.6L1944,3738.5z M1734.5,3415.6c0.4,1.8,0.2,3.6-0.8,5.2
		l-97.8,161.7c-2,3.2-6.2,4.3-9.4,2.3l-32.6-19.7l104.9-173.4l32.6,19.7C1733,3412.4,1734.1,3413.9,1734.5,3415.6z M1609.9,3407
		c8.2-13.5,21.1-23,36.4-26.8c12.3-3,25-2.1,36.5,2.7l-63.9,105.6l-50.1,82.8l0,0l-139.2,230.1c-20.3-4-40.9-1.7-59.6,6.6
		C1437.3,3695.8,1607.9,3410.4,1609.9,3407z M1330.5,3881.3c4.9-21.3,17.8-39.5,36.3-51.1c13.2-8.3,28.2-12.6,43.4-12.6
		c6.1,0,12.3,0.7,18.4,2.1c21.3,4.9,39.5,17.8,51.1,36.3c11.6,18.5,15.4,40.5,10.5,61.8c-4.9,21.3-17.8,39.5-36.3,51.1
		c-18.5,11.6-40.5,15.4-61.8,10.5c-21.3-4.9-39.5-17.8-51.1-36.3C1329.4,3924.6,1325.7,3902.6,1330.5,3881.3z M1307.2,3993.4
		l25-31.4c11,13.9,25.5,24.4,42,30.8l-26.3,33c-4.3,5.4-10.5,8.8-17.4,9.6c-6.9,0.8-13.7-1.2-19.1-5.5c-5.4-4.3-8.8-10.5-9.6-17.4
		C1301,4005.6,1302.9,3998.8,1307.2,3993.4z"/>
	<path d="M2176.8,4049.2c33.8,0,67.6,0,101.5,0c0,0,0,0,0,0h181.1c0,0,0,0,0,0c52.9,0,105.8,0,158.7,0c0,0,0,0,0,0h101.8
		c0,0,0,0,0,0c10.7,0,21.4,0,32.1,0c27.4,0,54.8,0,82.3,0c11.7,0,11.7-18.2,0-18.2c-28.2,0-56.4,0-84.5,0c2.4-4.6,3.8-9.8,3.8-15.4
		v-71.7c5-3.8,8.3-9.7,8.4-16.5l21.4-380.6l0-0.5c0-11.7-9.5-21.2-21.2-21.2h-186.3c-11.7,0-21.2,9.5-21.2,21.2l21.4,381.1
		c0.1,6.7,3.4,12.7,8.4,16.5v71.7c0,5.6,1.4,10.8,3.8,15.4c-28.7,0-57.5,0-86.2,0c10.3-10.7,16.6-25.1,16.6-41.1v-98.4v-232.1v-98.2
		c0-29.3-21.5-53.7-49.5-58.4v-28.1c0-11.9-9.7-21.5-21.5-21.5H2437v-62.7c0-13-10.6-23.6-23.6-23.6h-89.1
		c-13,0-23.6,10.6-23.6,23.6v62.7H2290c-11.9,0-21.5,9.7-21.5,21.5v28.1c-28,4.7-49.5,29.1-49.5,58.4v98.2v232.1v98.4
		c0,16,6.4,30.4,16.6,41.1c-19.6,0-39.2,0-58.8,0C2165.1,4031,2165.1,4049.2,2176.8,4049.2z M2690.9,3987
		c-3.7,8.5-12.1,14.5-21.9,14.5s-18.3-6-21.9-14.5H2690.9z M2626.9,3968.5v0.3h-24.3v-20.5h132.7v20.5h-24.2v-0.3H2626.9z
		 M2765.1,3546.1l-2.2,38.8h-31.5v-41.6h30.7C2763.7,3543.3,2765,3544.6,2765.1,3546.1z M2621.8,3584.9v-41.6h36.6v41.6H2621.8z
		 M2676.6,3543.3h36.6v41.6h-36.6V3543.3z M2575.8,3543.3h27.8v41.6H2575l-2.2-38.8C2572.9,3544.6,2574.2,3543.3,2575.8,3543.3z
		 M2576,3603.1h185.8l-18.2,323.6l0,0.5c0,1.6-1.3,3-3,3h-143.5c-1.6,0-3-1.3-3-3L2576,3603.1z M2602.6,4015.6V3987h25.4
		c4.3,18.7,21,32.7,41,32.7c20,0,36.7-14,41-32.7h25.3v28.6c0,8.5-6.9,15.4-15.4,15.4c-34,0-67.9,0-101.9,0
		C2609.5,4031,2602.6,4024.1,2602.6,4015.6z M2500.4,3873.3h-263.2v-195.7h263.2V3873.3z M2447.6,3471.3c1.8,0,3.3,1.5,3.3,3.3v27.3
		h-29.2v-30.6h15.3H2447.6z M2359.6,3471.3v30.6h-25.5v-30.6H2359.6z M2377.8,3471.3h25.7v30.6h-25.7V3471.3z M2318.8,3390.4
		c0-3,2.4-5.4,5.4-5.4h89.1c3,0,5.4,2.4,5.4,5.4v62.7h-100V3390.4z M2286.7,3474.6c0-1.8,1.5-3.3,3.3-3.3h10.6h15.3v30.6h-29.2
		V3474.6z M2237.2,3561.2c0-22.7,18.4-41.1,41.1-41.1h181.1c22.7,0,41.1,18.4,41.1,41.1v98.2h-263.2V3561.2z M2500.4,3891.5v98.4
		c0,22.7-18.4,41.1-41.1,41.1c-60.4,0-120.7,0-181.1,0c-22.7,0-41.1-18.4-41.1-41.1v-98.4H2500.4z"/>
	<path d="M2366.3,3827.5c0.8,0.1,1.7,0.1,2.5,0.1c0.8,0,1.7,0,2.5-0.1c13.3-0.8,25-7.9,32-19.5c7.1-11.8,7.9-26.4,2.2-38.9
		c-19.9-43.2-29.1-46.9-36.1-46.9h-1c-7.1,0-16.2,3.6-36.1,46.9c-5.7,12.5-4.9,27,2.2,38.9C2341.3,3819.6,2353,3826.7,2366.3,3827.5
		z M2348.7,3776.8c10-21.6,16.8-31.8,20.1-35.3c3.3,3.5,10.1,13.7,20.1,35.3c3.2,7,2.8,15.2-1.2,21.9c-3.8,6.4-10.2,10.3-17.4,10.7
		c-0.9,0.1-1.9,0.1-2.8,0c-7.2-0.4-13.6-4.3-17.4-10.7C2346,3792,2345.5,3783.8,2348.7,3776.8z"/>
	<path d="M2368.8,3409.9c-11.7,0-11.7,18.2,0,18.2C2380.5,3428.1,2380.5,3409.9,2368.8,3409.9z"/>
	<path d="M2622.2,3816.5h80.8c1.2,0,2.3-0.1,3-0.2c18-2,31.6-17.2,31.6-35.4c0-15.3-9.9-28.8-24.1-33.7
		c-27.2-50.6-31.3-49.6-37.9-48c-3.4,0.8-7.4,3.9-7.5,9.9c-0.5,21.4-19.2,26.9-23.4,27.8c-14,0.5-25.2,12.1-25.2,26.3
		c0,3.3,0.6,6.4,1.7,9.4c-11.7,0.5-21,10.2-21,22C2600.2,3806.6,2610.1,3816.5,2622.2,3816.5z M2622.2,3790.6h23.7v0
		c6.7,0,13.3,0,20,0c11.7,0,11.7-18.2,0-18.2c-6.7,0-13.4,0-20.1,0c-4.1-0.1-8.1-4.7-8.1-9.4c0-4.5,3.6-8.1,8.1-8.1l1.6-0.1
		c9.9-1.8,26.7-9.4,34.6-26.3c3,5,6.5,10.9,9.9,17.1l-0.7,0l0.9,1.5c-4.1,0.8-7.4,4.6-7.4,8.9c0,4.9,4.2,9.1,9.1,9.1
		c5.2,0,10.4,0,15.6,0c6.1,2.8,10.2,8.9,10.2,15.8c0,8.9-6.6,16.3-15.9,17.3c-0.2,0-0.4,0.1-0.6,0.1h-80.8c-2.1,0-3.8-1.8-3.8-3.8
		C2618.4,3792.4,2620.2,3790.6,2622.2,3790.6z"/>
	<path d="M3208.9,3666.1L3170,3705c-4.9,4.9-7.6,11.4-7.6,18.3c0,6.9,2.7,13.4,7.5,18.3h0v0c4.9,4.9,11.4,7.5,18.3,7.5
		c6.9,0,13.4-2.7,18.3-7.6l38.9-38.9c4.9-4.9,7.6-11.4,7.6-18.3s-2.7-13.4-7.6-18.3C3235.4,3656.1,3219,3656.1,3208.9,3666.1z
		 M3232.6,3689.8l-38.9,38.9c-2.9,2.9-8,2.9-10.8,0l0,0c-1.4-1.4-2.2-3.3-2.2-5.4c0-2.1,0.8-4,2.2-5.4l38.9-38.9
		c1.5-1.5,3.5-2.2,5.4-2.2c2,0,3.9,0.7,5.4,2.2C3235.6,3682,3235.6,3686.9,3232.6,3689.8z"/>
	<path d="M3560.1,3811.3c0,9.2,3.6,17.8,10,24.2c6.5,6.5,15.1,10,24.2,10s17.8-3.6,24.2-10l88.9-88.9c6.5-6.5,10-15.1,10-24.2
		c0-9.2-3.6-17.8-10-24.2c-6.5-6.5-15.1-10-24.2-10c-9.2,0-17.8,3.6-24.2,10l-1.8,1.8c-41-23.7-94.3-143.9-122-215.7
		c-2.6-10.7-6.5-21.1-11.5-31c0-0.1,0-0.1-0.1-0.2l0,0c-7-13.8-16.2-26.5-27.4-37.8c-27.9-27.9-65-43.3-104.5-43.3
		c-39.5,0-76.6,15.4-104.5,43.3s-43.3,65-43.3,104.5c0,4.4,0.2,8.7,0.6,13l-117.4,117.4c-34.5,34.5-36.8,89.2-6.9,126.4
		c-0.2,0.4-0.4,0.8-0.5,1.3c-5.7,18.4-21.8,21.3-35.1,32.4c-10.9,9.1-17.4,22.2-17.5,36.5c-0.2,13.9,6.5,23.8,13.3,35.3
		c12.1,20.3,8.2,35-7.7,51.6c-12,12.5-42.6,31.7-34.3,53c7.9,20.3,36.5,21.6,52.1,11.2c25.7-17.1,37.1-51,72.5-52
		c30.8-0.8,52.2,24.4,84.9,18.6c14-2.5,26.1-8.7,36.5-18.4c10.4-9.8,17.7-24.3,30.1-31.9c38.8-24,50.8,26,68.5,47.3
		c11,13.4,27.3,21.8,44.5,23.8c17.8,2.1,32.7-6.3,49.9-7.7c49.1-3.8,54,54.7,91.3,73.3c10.5,5.2,19.7-10.5,9.2-15.7
		c-30.3-15.1-33.2-52.1-63.7-67.7c-13.2-6.7-27.1-9.5-41.7-7.5c-15.9,2.2-30.7,10-47.1,6.6c-36.4-7.5-35-44.2-59.3-64.4
		c-18.5-15.4-47.5-14.6-66,0.1c-25.3,20.1-37.3,52.9-77,44.1c-29.2-6.5-47.7-25.6-79.9-15.6c-25.7,8-38.3,30.9-57.5,47.6
		c-9.7,8.5-37,11.5-25.4-7c7.3-11.6,21.5-20.1,30.5-30.5c21.8-25.2,17.5-47.4,1.6-74c-14.6-24.4-1.7-39.3,19.2-52.3
		c10.4-6.5,17.8-13.8,22.6-24.1c17.4,14.2,38.7,21.4,60,21.4c24.3,0,48.6-9.2,67.1-27.7l55-55c10.8,14.3,23.8,28.1,34.1,28.1
		c4.5,0,15,0,57.9-72c65.5,28.1,143.7,67.8,162.6,100.8l-0.8,0.8C3563.7,3793.5,3560.1,3802.1,3560.1,3811.3z M3683.3,3706.3
		c4.3,0,8.4,1.7,11.4,4.7c3,3,4.7,7.1,4.7,11.4c0,4.3-1.7,8.4-4.7,11.4l-88.9,88.9c-6,6-16.7,6-22.7,0c-3-3-4.7-7.1-4.7-11.4
		c0-4.3,1.7-8.4,4.7-11.4l88.9-88.9C3675,3708,3679,3706.3,3683.3,3706.3z M3300.2,3428.2c25.3-25.3,58.4-37.9,91.6-37.9
		c33.2,0,66.3,12.6,91.6,37.9c9.8,9.8,17.7,20.8,23.7,32.5c1.4,4,5.1,14.1,10.5,28.2c10.4,42.5-1,89.3-34.2,122.5
		c-50.5,50.5-132.7,50.5-183.2,0C3249.7,3560.9,3249.7,3478.7,3300.2,3428.2z M3248.5,3771.5c-29.9,29.9-78.5,29.9-108.4,0
		c-29.9-29.9-29.9-78.5,0-108.4l108.1-108.1c6.3,26,19.6,49.9,39.1,69.3c13.8,13.8,29.8,24.5,47.3,31.8l-0.1,0.3
		c6.1,2.1,13.3,4.8,21.3,7.8l-50.1,50.1L3248.5,3771.5z M3349.7,3738.5c-4.4-2.9-12.6-11.9-20.3-22.2l43.8-43.8l17.2,7.4
		C3375,3705.4,3357.1,3731.8,3349.7,3738.5z M3410,3666.4c32.6-4,62.7-18.6,86.3-42.1c23.1-23.1,37.6-52.6,41.9-84.5
		c7.9,18.5,16.8,38.5,26.6,58.2c-19.5,19.5-39,39-58.5,58.5c-8.3,8.3,4.6,21.2,12.9,12.9c18.1-18.1,36.2-36.2,54.3-54.3
		c22,42.5,47,81.4,70.7,98l-60,60C3557.2,3733.9,3472.2,3692.6,3410,3666.4z"/>
	<path d="M3062.9,3218.5c7.9,7.9,18.2,11.8,28.5,11.8c10.3,0,20.7-3.9,28.5-11.8l0.5-0.5c0.5-0.6,53.1-62.4,101.1-107.8
		c40.3-38.1,104.3-90.2,124.5-106.4l47,47c14.6,14.6,34,22.6,54.6,22.6c20.6,0,40-8,54.6-22.6l56.5-56.5c0,0,0,0,0,0
		c51.9-51.9,103.8-103.8,155.7-155.7c8.3-8.3-4.6-21.2-12.9-12.9c-49.8,49.8-99.5,99.5-149.3,149.3l-21.3-21.3
		c49.8-49.8,99.5-99.5,149.3-149.3c8.3-8.3-4.6-21.2-12.9-12.9c-49.8,49.8-99.5,99.5-149.3,149.3l-21.3-21.3
		c49.8-49.8,99.5-99.5,149.3-149.3c8.3-8.3-4.6-21.2-12.9-12.9c-49.8,49.8-99.5,99.5-149.3,149.3l-21.3-21.3
		c49.8-49.8,99.5-99.5,149.3-149.3c8.3-8.3-4.6-21.2-12.9-12.9c-49.8,49.8-99.5,99.5-149.3,149.3l-21.3-21.3
		c49.8-49.8,99.5-99.5,149.3-149.3c8.3-8.3-4.6-21.2-12.9-12.9c-49.8,49.8-99.5,99.5-149.3,149.3l-21.3-21.3
		c49.8-49.8,99.5-99.5,149.3-149.3c8.3-8.3-4.6-21.2-12.9-12.9c-49.8,49.8-99.5,99.5-149.3,149.3l-21.3-21.3
		c49.8-49.8,99.5-99.5,149.3-149.3c8.3-8.3-4.6-21.2-12.9-12.9c-49.8,49.8-99.5,99.5-149.3,149.3l-21.3-21.3
		c49.8-49.8,99.5-99.5,149.3-149.3c8.3-8.3-4.6-21.2-12.9-12.9c-49.8,49.8-99.5,99.5-149.3,149.3l-21.3-21.3
		c49.8-49.8,99.5-99.5,149.3-149.3c8.3-8.3-4.6-21.2-12.9-12.9c-51.9,51.9-103.8,103.8-155.7,155.7c0,0,0,0,0,0l-56.5,56.5
		c-14.6,14.6-22.6,34-22.6,54.6c0,20.6,8,40,22.6,54.6l47.1,47.1c-14.2,18.1-57.5,72.6-106.5,124.4
		c-59.4,62.8-107.1,100.5-107.6,100.9l-0.8,0.7c-15.7,15.7-15.7,41.3,0,57L3062.9,3218.5z M3229.1,2777.4l50.1-50.1l260.4,260.4
		l-50.1,50.1c-11.2,11.2-26,17.3-41.8,17.3c-15.8,0-30.6-6.1-41.8-17.3l-71.2-71.2l-60.3-60.3l0,0l-45.4-45.4
		C3206.1,2837.9,3206.1,2800.4,3229.1,2777.4z M3292.4,2950l40.7,40.7c-16.5,13.3-56.1,45.5-91.6,76.7l-42-42
		c35.2-39.5,64.3-75.9,76.6-91.6L3292.4,2950z M3187.4,3039l40.5,40.5c-6.6,6-13,11.8-18.9,17.3c-0.3,0.3-0.7,0.6-1,1l-39.1-39.1
		c0.3-0.3,0.6-0.7,1-1C3175.9,3051.5,3181.7,3045.2,3187.4,3039z M3156.4,3071.9l38.6,38.6c-6.4,6.3-12.7,12.8-19,19.2l-38.7-38.7
		C3143.5,3085,3149.8,3078.6,3156.4,3071.9z M3060.9,3160.1c3.7-3,28.6-23.1,63.4-56.4l39.2,39.2c-29.7,31.6-53.8,59.7-56.6,62.9
		c-4.1,4-9.6,6.2-15.4,6.2c-5.9,0-11.5-2.3-15.7-6.5l-14.6-14.6C3052.7,3182.5,3052.6,3168.7,3060.9,3160.1z"/>
	<path d="M3460.4,3005.7c8.3,8.3,21.2-4.6,12.9-12.9c-66.4-66.4-132.9-132.9-199.3-199.3c-8.3-8.3-21.2,4.6-12.9,12.9
		C3327.6,2872.9,3394,2939.3,3460.4,3005.7z"/>
	<path d="M4070.8,238.1c-4.5,0-8.7,1.7-11.8,4.9c-3.2,3.2-4.9,7.5-4.9,12.4c0,21.6-16.1,40-37.5,42.9c-8.4,1.1-14.8,8.3-14.8,16.6
		v215.6c0,8.4,6.4,15.5,14.8,16.6c21.4,2.8,37.5,21.2,37.5,43.1c0,4.6,1.7,8.9,4.9,12.1c3.1,3.2,7.3,4.9,11.8,4.9H4302
		c4.5,0,8.7-1.8,11.8-4.9c3.2-3.2,4.9-7.5,4.9-12.4c0-21.6,16.1-40,37.5-42.9c8.4-1.1,14.8-8.3,14.8-16.6V314.9
		c0-8.4-6.4-15.5-14.8-16.6c-21.4-2.8-37.5-21.2-37.5-42.9h-9.1l9.1-0.3c0-4.6-1.7-8.9-4.9-12.1c-3.1-3.2-7.3-4.9-11.8-4.9H4070.8z
		 M4352.9,316.2v213.1c-29.6,4.4-51.9,29.9-52.3,59.9h-228.3c-0.4-30-22.7-55.5-52.3-59.9V316.2c29.5-4.4,51.7-29.7,52.3-59.9h228.3
		C4300.9,286.3,4323.2,311.8,4352.9,316.2z"/>
	<path d="M4571.6,86.6h-258.1c-1.2-0.4-2.5-0.6-3.8-0.6h-35.2c-1.3,0-2.6,0.3-3.8,0.6h-168.6c-1.2-0.4-2.5-0.6-3.8-0.6h-35.2
		c-1.3,0-2.6,0.3-3.8,0.6h-129.8c-11.1,0-20.1,9-20.1,20.1v22.1c0,11.1,9,20.1,20.1,20.1h120.1V194H3982
		c-13.4,0-24.3,10.9-24.3,24.3v408.9c0,13.4,10.9,24.3,24.3,24.3h408.9c13.4,0,24.3-10.9,24.3-24.3V218.3
		c0-13.4-10.9-24.3-24.3-24.3h-67.5v-45.1h201.2c2.7,0,4.9,2.2,4.9,4.9v603.5c0,11.1,9,20.1,20.1,20.1h22.1c11.1,0,20.1-9,20.1-20.1
		V106.7C4591.7,95.6,4582.7,86.6,4571.6,86.6z M4111.8,194v-45.1H4261V194H4111.8z M4261,130.7h-149.1v-25.9H4261V130.7z
		 M3929.4,130.7c-1,0-1.9-0.9-1.9-1.9v-22.1c0-1,0.9-1.9,1.9-1.9h120.1v25.9H3929.4z M4067.7,104.8h25.9V194h-25.9V104.8z
		 M4396.9,218.3v408.9c0,3.4-2.7,6.1-6.1,6.1H3982c-3.4,0-6.1-2.7-6.1-6.1V218.3c0-3.4,2.7-6.1,6.1-6.1h81.1h35.2h176.2h35.2h81.1
		C4394.2,212.2,4396.9,215,4396.9,218.3z M4279.2,194v-89.2h25.9V194H4279.2z M4573.5,757.4c0,1-0.9,1.9-1.9,1.9h-22.1
		c-1,0-1.9-0.9-1.9-1.9V153.9c0-12.8-10.4-23.1-23.1-23.1h-201.2v-25.9h248.3c1,0,1.9,0.9,1.9,1.9V757.4z"/>
	<path d="M4010.1,1204.1c-12.9-4-26.6-2.6-38.6,3.7c-24.6,13.1-34,43.8-20.9,68.4c6.3,11.9,17,20.7,29.9,24.6
		c4.9,1.5,9.9,2.2,14.9,2.2c8.2,0,16.3-2,23.7-5.9c11.9-6.3,20.7-17,24.6-29.9c4-12.9,2.6-26.6-3.7-38.6
		C4033.7,1216.8,4023.1,1208.1,4010.1,1204.1z M4026.3,1262c-2.5,8.3-8.1,15.1-15.8,19.1c-15.8,8.4-35.4,2.4-43.8-13.4
		c-8.4-15.8-2.4-35.4,13.4-43.8c4.8-2.5,9.9-3.8,15.2-3.8c3.2,0,6.4,0.5,9.5,1.4c8.3,2.5,15.1,8.1,19.1,15.8
		C4028,1245,4028.9,1253.7,4026.3,1262z"/>
	<path d="M4533.5,1032.7c-22,5.5-52.1,14.2-89.5,26c43.3-137,33.9-141.3,25.4-145.3c-9.2-4.3-21.9-10.2-127.9,129.1
		c-17.6,23.1-34.9,46.5-50,67.2c-103.7,36.1-203.8,73-233,83.8c-26-28-68.6-36.3-103.9-17.5c-42.1,22.4-58.2,74.9-35.8,117
		c15.5,29.2,45.5,45.9,76.5,45.9c13.7,0,27.6-3.3,40.5-10.1c33.4-17.8,50.3-54.4,44.8-89.9c99.9-41.7,159.1-29.1,191.4-10.6
		c20.2,33,33.8,92.9-8.6,194.3c-12.8-2-26-1.2-38.8,2.7c-22.1,6.8-40.2,21.7-51.1,42.1c-10.8,20.4-13.1,43.8-6.3,65.9
		c6.8,22.1,21.7,40.2,42.1,51.1c12.9,6.9,26.8,10.1,40.5,10.1c31,0,61-16.7,76.5-45.9c10.8-20.4,13.1-43.8,6.3-65.9
		c-4.5-14.8-12.8-27.7-23.8-38c10.8-29.2,47.7-129.3,83.9-233.1c209.1-152.9,201.7-169.1,197.2-178.7
		C4585.5,1023.2,4572.3,1023.1,4533.5,1032.7z M4027.4,1312.8c-33.3,17.7-74.7,5-92.4-28.3c-17.7-33.3-5-74.7,28.3-92.4
		c33.3-17.7,74.7-5,92.4,28.3C4073.3,1253.7,4060.7,1295.2,4027.4,1312.8z M4076,1221.3c-1.2-3.2-2.6-6.3-4.2-9.4
		c-0.6-1.1-1.2-2-1.8-3c31.4-11.6,113.8-41.9,203-73.2c-17.9,24.9-29.8,41.8-30,42.1l0.5,0.3l-6.9,15.1c0.2,0.1,3.3,1.6,8,4.9
		C4206.5,1188.7,4152,1190,4076,1221.3z M4315.4,1488.2c5.3,17.5,3.6,35.9-5,52c-17.7,33.3-59.1,45.9-92.4,28.3
		c-16.1-8.6-27.9-22.9-33.3-40.3c-5.3-17.5-3.6-35.9,5-52c8.6-16.1,22.9-27.9,40.3-33.3c6.6-2,13.4-3,20.1-3c11,0,22,2.7,32,8
		C4298.2,1456.4,4310,1470.7,4315.4,1488.2z M4290.6,1431.8c-3.1-1.6-6.2-3-9.4-4.2c32.9-79.9,37.5-145.9,13.3-196.3
		c-10.7-22.3-24.8-36.5-35.5-44.9c79.5-113.4,171-232.1,199.7-252.8c-4.4,52.4-99.4,323.1-165.1,500.1
		C4292.7,1433,4291.7,1432.3,4290.6,1431.8z M4403.3,1181.4c13.6-39.4,24.8-72.9,34-101.4c85.8-27.5,119.3-34.6,132.2-36
		C4560,1056.5,4525.7,1090.9,4403.3,1181.4z"/>
	<path d="M4273.8,1463.5c-24.6-13.1-55.3-3.7-68.4,20.9c-13.1,24.6-3.7,55.3,20.9,68.4c7.4,3.9,15.5,5.9,23.7,5.9
		c5,0,10-0.7,14.9-2.2c12.9-4,23.5-12.7,29.9-24.6C4307.8,1507.3,4298.4,1476.6,4273.8,1463.5z M4278.6,1523.4
		c-4.1,7.6-10.9,13.3-19.1,15.8c-8.3,2.5-17,1.7-24.7-2.4c-15.8-8.4-21.8-28.1-13.4-43.8c5.8-10.9,17.1-17.2,28.7-17.2
		c5.1,0,10.3,1.2,15.2,3.8c7.6,4.1,13.2,10.9,15.8,19.1C4283.5,1506.9,4282.7,1515.7,4278.6,1523.4z"/>
	<path d="M4353.7,1165.2c-0.4-1.1-0.9-2.2-1.5-3.2c-3.7-7-10-12.2-17.6-14.5c-7.6-2.3-15.7-1.6-22.7,2.2
		c-14,7.4-19.6,24.5-13.1,38.7c2.6,6.7,7.4,12.3,13.8,15.7c4.4,2.3,9.2,3.5,14,3.5c2.9,0,5.9-0.4,8.8-1.3
		c7.6-2.3,13.9-7.5,17.6-14.5c3.7-7,4.5-15.1,2.2-22.7C4354.7,1167.6,4354.3,1166.4,4353.7,1165.2z M4331.4,1186.2
		c-2.8,1.5-5.9,1.8-8.9,0.9c-2.9-0.9-5.4-2.9-6.8-5.6c-0.1-0.2-0.1-0.3-0.2-0.5c-0.9-3-0.6-6.1,0.9-8.9c1.5-2.8,3.9-4.8,6.9-5.7
		c1.1-0.3,2.3-0.5,3.4-0.5c1.9,0,3.7,0.5,5.5,1.4c2.1,1.1,3.7,2.8,4.7,4.7C4338.7,1177.4,4336.5,1183.5,4331.4,1186.2z"/>
	<path d="M4203.5,402.3c2.2,4.2,7.4,5.7,11.6,3.5c4.2-2.2,5.7-7.4,3.5-11.6c-2.2-4.2-7.4-5.7-11.6-3.5
		C4202.9,393,4201.3,398.1,4203.5,402.3z"/>
	<path d="M4270.8,332.1c9.3-31.9,10.8-42.6,1.7-46.8c-6.4-3-15-6.8-77.8,80.8c-39.3,13.7-77.3,27.6-92.3,33.2
		c-4.4-3.9-9.6-7-15.4-8.7c-10.5-3.2-21.6-2.1-31.2,3c-19.9,10.6-27.6,35.5-16.9,55.4c5.1,9.7,13.7,16.7,24.2,19.9
		c4,1.2,8,1.8,12,1.8c6.6,0,13.2-1.6,19.2-4.8c14.5-7.7,22.4-22.9,21.6-38.3c35.9-14.1,57.3-10.2,69.4-3.7
		c6.8,12.2,11,33.8-3.3,70.2c-4.7-0.2-9.5,0.3-14.1,1.7c-10.5,3.2-19.1,10.3-24.2,19.9c-5.1,9.7-6.2,20.7-3,31.2
		c3.2,10.5,10.3,19.1,19.9,24.2c6,3.2,12.6,4.8,19.2,4.8c4,0,8.1-0.6,12-1.8c10.5-3.2,19.1-10.3,24.2-19.9
		c8.3-15.6,5.4-34.1-5.7-46.6c5.5-14.8,19.2-52.3,32.9-91.4c88.2-64.6,85.1-71.4,81.6-79.1c-3.8-8.2-9.5-9.9-56.8,4.7
		C4268.9,338.5,4269.9,335.2,4270.8,332.1z M4256.5,315.7c-7.8,28.7-26.3,83.7-47.1,141.4c1.7-28.4-9-45.4-18.1-54.6
		C4215,368.6,4240.6,334.2,4256.5,315.7z M4085.6,449.9c-5.4,2.9-11.5,3.5-17.3,1.7c-5.8-1.8-10.6-5.7-13.4-11.1
		c-5.9-11.1-1.7-24.9,9.4-30.8h0c3.3-1.8,7-2.7,10.7-2.7c2.2,0,4.5,0.3,6.7,1c5.8,1.8,10.6,5.7,13.4,11.1
		C4101,430.2,4096.7,444,4085.6,449.9z M4153.2,400.2c7.4-2.6,15.2-5.5,23.3-8.3c-2,2.9-4,5.8-6.1,8.8
		C4165.2,400,4159.5,399.8,4153.2,400.2z M4199.9,545.7c-2.9,5.4-7.6,9.3-13.5,11.1c-5.8,1.8-12,1.2-17.3-1.7
		c-5.4-2.9-9.3-7.6-11.1-13.4c-1.8-5.8-1.2-12,1.7-17.4c2.9-5.4,7.6-9.3,13.4-11.1c2.2-0.7,4.5-1,6.7-1c3.7,0,7.3,0.9,10.7,2.7
		C4201.6,520.8,4205.8,534.7,4199.9,545.7z M4294.6,353.1c-8,7-20.7,17.5-41,32.8c2.8-8.2,5.3-15.8,7.6-22.9
		C4276.1,358.3,4286.9,355.1,4294.6,353.1z"/>
	<path d="M4061.4,3224.6c5,5,11.7,7.8,18.8,7.8s13.7-2.8,18.8-7.8l41.5-41.5l26.8,26.9c3.7,3.7,8.6,5.7,13.8,5.7
		c5.2,0,10.1-2,13.8-5.7l371.7-371.7c7.6-7.6,7.6-19.9,0-27.5l-26.9-26.8l41.5-41.5c5-5,7.8-11.7,7.8-18.8s-2.8-13.7-7.8-18.8
		L4437,2560.6c-5-5-11.7-7.8-18.8-7.8c-7.1,0-13.7,2.8-18.8,7.8l-41.5,41.5l-26.8-26.9c-3.7-3.7-8.6-5.7-13.8-5.7
		c-5.2,0-10.1,2-13.8,5.7L3931.8,2947c-3.7,3.7-5.7,8.6-5.7,13.8c0,5.2,2,10.1,5.7,13.8l26.9,26.8l-41.5,41.5
		c-5,5-7.8,11.7-7.8,18.8s2.8,13.7,7.8,18.8L4061.4,3224.6z M3930,3055.7l54.4-54.4l-39.7-39.7c-0.3-0.3-0.4-0.7-0.4-0.9
		c0-0.2,0.1-0.6,0.4-0.9l371.7-371.7c0.3-0.3,0.7-0.4,0.9-0.4c0.2,0,0.6,0.1,0.9,0.4l39.7,39.7l54.4-54.4c3.3-3.2,8.5-3.2,11.8,0
		l144.2,144.2c3.2,3.2,3.2,8.5,0,11.8l-54.4,54.4l39.7,39.7c0.5,0.5,0.5,1.3,0,1.8L4181.9,3197c-0.6,0.6-1.2,0.6-1.8,0l-39.7-39.7
		l-54.4,54.4c-3.3,3.2-8.5,3.2-11.8,0L3930,3067.5C3926.8,3064.3,3926.8,3059,3930,3055.7z"/>
	<path d="M4086.4,3105.5c8.7,8.7,20.1,13,31.5,13s22.8-4.3,31.5-13c17.3-17.3,17.4-45.5,0.2-62.9l74.3-74.3
		c28.5,9.5,59.8,2.2,81.2-19.3c21.5-21.5,28.7-52.8,19.3-81.2l74.9-74.9c17.4,17.2,45.5,17.2,62.9-0.2c17.4-17.4,17.4-45.7,0-63
		l-50.2-50.2c-17.4-17.4-45.7-17.4-63,0c-16.9,16.9-17.4,44.1-1.4,61.6l-75.6,75.6c-27.9-8.5-58.5-1-79.3,19.8
		c-20.8,20.8-28.3,51.4-19.8,79.3l-75,75c-8.2-7.5-18.8-11.6-30.1-11.6c-11.9,0-23.1,4.6-31.5,13c-17.4,17.4-17.4,45.7,0,63
		L4086.4,3105.5z M4049.1,3005.2c5-5,11.6-7.7,18.7-7.7c7.1,0,13.7,2.7,18.6,7.7l11.5,11.4l96-96l-2.1-5.5
		c-8.8-22.7-3.4-48.4,13.8-65.6c17.2-17.2,42.9-22.6,65.6-13.8l5.5,2.1l96.6-96.6l-11.4-11.4c-10.3-10.3-10.3-27,0-37.3
		c10.3-10.3,27-10.3,37.3,0l50.2,50.2c10.3,10.3,10.3,27,0,37.3c-10.3,10.3-27,10.3-37.3,0l-12.7-12.7l-96.2,96.2l2.4,5.6
		c9.7,23.1,4.5,49.5-13.2,67.1c-17.7,17.7-44,22.9-67.2,13.2l-5.6-2.4l-95.6,95.6l12.7,12.7c10.3,10.3,10.3,27,0,37.3
		c-10.3,10.3-27,10.3-37.3,0l-50.2-50.2C4038.8,3032.2,4038.8,3015.5,4049.1,3005.2z"/>
	<path d="M4041.3,2941.3c85.5-85.5,171-171,256.5-256.5c8.3-8.3-4.6-21.2-12.9-12.9c-85.5,85.5-171,171-256.5,256.5
		C4020.1,2936.7,4033,2949.5,4041.3,2941.3z"/>
	<path d="M4461.7,2848.6c-85.5,85.5-171,171-256.5,256.5c-8.3,8.3,4.6,21.2,12.9,12.9c85.5-85.5,171-171,256.5-256.5
		C4482.8,2853.1,4469.9,2840.3,4461.7,2848.6z"/>
	<path d="M4065.5,1956.2c-18.1,0-32.8,14.7-32.8,32.8v12.7c-76.5,43.1-123.8,123.7-123.8,211.6c0,79.1,38.7,153.5,103.6,199l2.4,1.6
		h274l2.4-1.6c64.9-45.5,103.6-119.9,103.6-199c0-87.9-47.3-168.4-123.8-211.6v-12.7c0-18.1-14.7-32.8-32.8-32.8h-9.8v-68.4
		l19.8-37.4l12.6,69.2c1,7.8,6.4,21.7,19.8,26.1l91.3,34.4l-2.1-15.2c-0.1-0.9-3.3-22.4-19.8-39.8l-1.2-1.3l-41.3-18.7
		c-1-2.2-3.2-8.5-5.1-24.2l-4.9-40.1h27.8c20.1,0,36.4-16.3,36.4-36.4v-36.6c0-20.1-16.3-36.4-36.4-36.4h-307l-93.3,93.3
		c-15.9,15.9-15.9,41.8,0,57.7c7.7,7.7,17.9,11.9,28.9,11.9c10.9,0,21.2-4.2,28.9-11.9l37.2-37.2l55.5,43.2v67.7H4065.5z
		 M4050.8,1989.1c0-8.1,6.6-14.6,14.6-14.6h9.8h13v24.5h-37.4v-7V1989.1z M4160.9,1998.9v-24.5h36.2v24.5H4160.9z M4142.7,1998.9
		h-36.2v-24.5h36.2V1998.9z M4042.3,2017.1h96c-2.3,11.8-4.1,23.8-5.3,35.8c-4-0.6-8.6-0.9-13.7-0.9c-20.6,0-31.4,5.3-41,10
		c-8.9,4.4-16.6,8.2-33,8.2c-16.4,0-24-3.8-32.9-8.2c-5.5-2.7-11.5-5.6-19.6-7.6C4007.4,2040,4023.9,2027.4,4042.3,2017.1z
		 M4283,2395.7h-262.4c-58.6-42.2-93.6-110.2-93.6-182.4c0-53.1,18.7-103.2,51.3-142.8c11.8,0.9,18.6,4.2,26.1,7.9
		c9.6,4.7,20.4,10,41,10c20.6,0,31.4-5.3,41-10c8.9-4.4,16.6-8.2,33-8.2c4.8,0,8.7,0.4,12.3,0.9c-5.9,104.5,27.8,214.4,104.1,285.8
		c8.5,8,21.4-4.8,12.9-12.9c-71.2-66.7-103.6-169.1-99.2-267.1c1,0.5,1.9,0.9,2.9,1.4c9.6,4.7,20.4,10,41,10c20.6,0,31.4-5.3,41-10
		c8.9-4.4,16.6-8.2,33-8.2s24.1,3.8,33,8.2c9.1,4.5,19.5,9.5,38.4,9.9c24.4,36.3,38,79.6,38,124.9
		C4376.5,2285.5,4341.6,2353.5,4283,2395.7z M4323.3,2068.1c-5.7-1.5-10.2-3.7-15-6.1c-9.6-4.7-20.4-10-41-10s-31.4,5.3-41,10
		c-8.9,4.4-16.6,8.2-33,8.2c-16.4,0-24.1-3.8-33-8.2c-3-1.5-6.1-3-9.6-4.4c1.3-13.7,3.4-27.3,6.1-40.6h104.4
		C4285.2,2030.5,4306.1,2047.9,4323.3,2068.1z M4238.1,1974.4c8.1,0,14.6,6.6,14.6,14.6v2.8v7h-37.4v-24.5h13H4238.1z
		 M4337.8,1938.9c3.5,3.9,6.1,8.1,8.1,12.1l-59.5-22.4c-6.5-2.1-7.8-11.4-7.8-11.4l-13.6-75h14.2l5,41.1c3.5,28.1,8.3,34.6,13,37.4
		c1,0.6,2.1,1.1,3.2,1.3L4337.8,1938.9z M4343.3,1767.9v36.6c0,10-8.2,18.2-18.2,18.2h-28.8v-73h28.8
		C4335.2,1749.7,4343.3,1757.9,4343.3,1767.9z M4018.3,1821.1l-48.5,48.5c-4.2,4.2-9.9,6.6-16,6.6c-6.1,0-11.7-2.3-16-6.6
		c-8.8-8.8-8.8-23.2,0-32l87.9-87.9h252.4v73h-36l-27.9,52.5h-126.5L4018.3,1821.1z M4093.5,1894.4H4210v61.8h-116.5V1894.4z"/>
	<path d="M4432.9,1953.5c10.6,9.1,23.5,13.8,36.7,13.8c4.9,0,9.9-0.7,14.8-2c1.1-0.3,2.3-0.7,3.4-1c1.1-0.4,2.2-0.8,3.3-1.2
		c17.5-7,29.9-21.7,34.1-40.4c4.2-19.1-1.2-39-14.5-53.2c-52-55.4-64.3-51.3-70.3-49.3l-1.4,0.5c-5.9,2-18.3,6.1-26.5,81.6
		C4410.4,1921.6,4418,1940.8,4432.9,1953.5z M4430.6,1904.2c5-46,11.7-63.4,14.8-66.6l0.2-0.1c4.3,0.7,20.2,10.6,51.8,44.3
		c9.2,9.8,13,23.6,10,36.8c-2.8,12.7-11.2,22.7-23.1,27.5c-0.8,0.3-1.5,0.6-2.3,0.9l0,0c-0.8,0.3-1.6,0.5-2.4,0.7
		c-12.3,3.3-25,0.4-35-8.1C4434.4,1930.9,4429.2,1917.6,4430.6,1904.2z"/>
	<path d="M4463.6,1884.5c11.7,0,11.7-18.2,0-18.2C4451.9,1866.3,4451.9,1884.5,4463.6,1884.5z"/>
	<path d="M4473,1897.2c7.7,8.1,8.7,18.1,2.2,27.3c-6.8,9.6,9,18.7,15.7,9.2c11.3-15.9,7.8-35.7-5-49.4
		C4477.8,1875.8,4465,1888.7,4473,1897.2z"/>
	<path d="M4531.1,2011.5l-0.9,0.3c-6.7,2.2-14.2,8.5-19.4,55.7c-1.5,13.6,3.9,27.1,14.3,36.1c7.5,6.4,16.5,9.7,25.9,9.7
		c3.5,0,7-0.5,10.5-1.4c0.8-0.2,1.6-0.4,2.4-0.7l0,0c0.8-0.3,1.6-0.5,2.3-0.9c12.4-4.9,21.1-15.3,24-28.5c3-13.4-0.8-27.4-10.2-37.4
		C4547.6,2009.7,4537.7,2009.2,4531.1,2011.5z M4572.4,2077.8c-1.6,7.2-6.3,12.9-13,15.5c-0.4,0.2-0.9,0.3-1.3,0.5
		c-0.5,0.2-0.9,0.3-1.4,0.4c-7,1.9-14.2,0.2-19.8-4.6c-5.9-5-8.9-12.6-8.1-20.3c2.6-23.5,5.8-35.2,7.8-39.6c4.2,2.3,13.9,9.7,30,27
		C4572,2062.4,4574.1,2070.2,4572.4,2077.8z"/>
	<path d="M4577.3,3441.9c-33.3,16.5-73.9,6-106.2,23.7c-26.7,14.7-38.4,45.5-47.2,72.8c-11.9,36.9-38.6,60.5-62.3,90.1
		c-10.7,13.3-23.7,31.6-10,47.5c6,7,16.6,11.8,25.4,13.5c22.3,4.3,48.8,0.5,71.5,0.5c30.4-0.1,76.1-5.3,101.6,15.4
		c36.6,29.8,11.2,87.5-3.6,121.8c-14,32.3-28.1,62.1-31.9,97.5c-2.9,27.2,2.1,61.9-12.9,86.2c-8.3,13.5-24.7,22.1-40.2,24.4
		c-18.1,2.8-24.9-10.7-32.4-24.5c-12.9-23.5-26.9-44.2-54.8-50.6c-32.8-7.5-64.6,20-94.4-5.4c-19.1-16.2-20.8-45.3-43.6-58.4
		c-21.2-12.1-47.7-7.6-64.9,8.7c-24.2,22.8-40.7,51.3-79.9,38.1c-26.9-9-46.3-22.7-76-12.6c-28.2,9.6-38.1,39.7-62.8,52.4
		c-5.5,2.8-16.7,5.2-21.1-1.4c-5.2-7.9,4.5-14.1,9.6-19.2c10.5-10.4,22.2-19.9,30.4-32.4c7.1-11,10.8-23.8,8.3-36.9
		c-2.7-14.1-13.2-23.8-18.3-36.7c-9.3-23.6,8.9-34.6,25.5-45.5c8.1-5.3,14.2-11.2,18.6-18.7c16.8,12.5,36.8,18.8,56.9,18.8
		c24.5,0,49.1-9.3,67.7-28l252.5-252.5c1.3-1.3,2.2-2.8,2.9-4.5c7.7-7.7,15.4-15.4,23-23c8.3-8.3-4.6-21.2-12.9-12.9
		c-6,6-11.9,11.9-17.9,17.9l-7.3-7.3c7-7,14.1-14.1,21.1-21.1c8.3-8.3-4.6-21.2-12.9-12.9c-7,7-14.1,14.1-21.1,21.1l-7.3-7.3
		c7-7,14.1-14.1,21.1-21.1c8.3-8.3-4.6-21.2-12.9-12.9c-7,7-14.1,14.1-21.1,21.1l-7.3-7.3c7-7,14.1-14.1,21.1-21.1
		c8.3-8.3-4.6-21.2-12.9-12.9c-7,7-14.1,14.1-21.1,21.1l-7.5-7.5c7-7,14.1-14.1,21.1-21.1c8.3-8.3-4.6-21.2-12.9-12.9
		c-7,7-14.1,14.1-21.1,21.1l-7.3-7.3c7-7,14.1-14.1,21.1-21.1c8.3-8.3-4.6-21.2-12.9-12.9c-7,7-14.1,14.1-21.1,21.1l-7.3-7.3
		c6-6,11.9-11.9,17.9-17.9c8.3-8.3-4.6-21.2-12.9-12.9c-7.7,7.7-15.4,15.4-23,23c-1.6,0.6-3.2,1.5-4.5,2.9l-252.5,252.5
		c-36.3,36.3-37.2,94.5-3.1,132.1c-11.6,24.5-46.4,26.6-50.5,59.3c-3.7,29.7,32.7,51.4,15.9,79.9c-11.2,19.2-45.2,33.9-46.7,58
		c-1.2,19.1,23.5,29.6,39.5,26.4c24.1-4.8,36.9-32.1,55-46.2c14.5-11.3,32.7-15.3,50.5-9.9c13.1,4,24.4,12.3,37.8,15.5
		c28.9,6.8,55.9-5,74.8-26.5c8.9-10.1,16.7-23,30.3-27.1c22.4-6.8,36.5,6.9,45.9,24.8c13.7,26.1,30,47.3,61.8,50.5
		c34.6,3.4,65.9-22.7,93.4,12.5c14,17.8,19.6,46.4,43.1,54.9c22.3,8.1,53.6-6.6,68.3-23.4c17-19.4,18.1-46.9,19.4-71.3
		c2.3-42.3,11.6-75.6,28.7-114.3c22.6-51.3,54-139.7-21.1-163.9c-38.9-12.6-84-7.3-124.1-7.4c-15.9,0-61.8,3.9-45.2-22.7
		c11.6-18.7,29.2-34.3,43.1-51.3c11.2-13.6,19.8-25.8,25.6-42.3c6.8-19.3,11.4-39.3,23.7-56.1c27.8-38,86-22.4,125.3-41.9
		C4597,3452.4,4587.8,3436.7,4577.3,3441.9z M4358.2,3529.7l-17.9-17.9l-73.8-73.8l-17.9-17.9l7.7-7.7l109.7,109.7L4358.2,3529.7z
		 M4238.1,3492l48.1,48.1l-15.1,15.1l-48.1-48.1L4238.1,3492z M4299.1,3527.2l-48.1-48.1l15.5-15.5l48.1,48.1L4299.1,3527.2z
		 M4007.7,3660.8l227.9-227.9l17.9,17.9l-43.9,43.9c-3.3,3.3-5.2,7.7-5.2,12.4c0,4.7,1.8,9.1,5.2,12.4l49,49
		c3.4,3.4,7.9,5.1,12.4,5.1c4.5,0,9-1.7,12.4-5.1l43.9-43.9l17.9,17.9l-227.9,227.9c-29.3,29.3-76.5,30.1-106.9,2.6
		c-0.8-1.3-1.9-2.3-3.3-3C3977.5,3739.8,3977.6,3690.9,4007.7,3660.8z"/>
	<path d="M4134.9,3668c6.3,0,12.6-2.4,17.4-7.2l44.4-44.4c9.6-9.6,9.6-25.2,0-34.8c-9.6-9.6-25.2-9.6-34.8,0l-44.4,44.4
		c-4.6,4.6-7.2,10.8-7.2,17.4c0,6.6,2.6,12.8,7.2,17.4C4122.2,3665.6,4128.5,3668,4134.9,3668z M4179.3,3592.5
		c1.7,0,3.3,0.6,4.5,1.9c2.5,2.5,2.5,6.6,0,9.1l-2,2l-9.1-9.1l2-2C4176,3593.1,4177.6,3592.5,4179.3,3592.5z M4130.3,3638.8
		l29.6-29.6l9.1,9.1l-29.6,29.6c-2.5,2.5-6.6,2.5-9.1,0C4127.8,3645.4,4127.8,3641.3,4130.3,3638.8z"/>
	<path d="M3392,3616.5c25.9,0,50.2-10.1,68.5-28.4c18.3-18.3,28.4-42.7,28.4-68.5c0-25.9-10.1-50.2-28.4-68.5
		c-18.3-18.3-42.6-28.4-68.5-28.4c-25.9,0-50.2,10.1-68.5,28.4c-18.3,18.3-28.4,42.6-28.4,68.5c0,25.9,10.1,50.2,28.4,68.5
		C3341.8,3606.5,3366.1,3616.5,3392,3616.5z M3343.2,3457.9c7.2-5.8,13.5-9.5,22.2-12.3l0.5,0.7l99.5,99.5l0.7,0.5
		c-2.9,8.7-6.6,14.9-12.3,22.2L3343.2,3457.9z M3440.8,3581.3c-7,5.5-14.7,9.7-23,12.6l-98.8-98.8l-1.5-0.8
		c2.8-9.8,6.4-15.4,12.8-23.5L3440.8,3581.3z M3447.7,3463.9c14.9,14.9,23.1,34.6,23.1,55.7c0,1.9-0.1,3.7-0.3,5.5l-84-84
		c1.8-0.1,3.7-0.3,5.5-0.3C3413,3440.9,3432.8,3449.1,3447.7,3463.9z M3313.5,3515.3l82.8,82.8c-1.4,0.1-2.9,0.2-4.3,0.2
		c-21,0-40.8-8.2-55.7-23.1c-14.9-14.9-23.1-34.6-23.1-55.7C3313.3,3518.2,3313.4,3516.7,3313.5,3515.3z"/>
</g>
</svg>
