<svg xmlns="http://www.w3.org/2000/svg" viewBox="0 0 64 64"><g id="Expanded"><path d="M53,58H46a4.92,4.92,0,0,0,1-3V31a13,13,0,0,0-.76-4.33l0-.09a13,13,0,0,0-6.82-7.39,4,4,0,0,0-1.39-7V7a3,3,0,0,0-3-3H29a3,3,0,0,0-3,3v5.14a4,4,0,0,0-1.39,7.05,13,13,0,0,0-6.82,7.39l0,.09A13,13,0,0,0,17,31V55a4.92,4.92,0,0,0,1,3H11a1,1,0,0,0,0,2H53a1,1,0,0,0,0-2ZM19,31a10.66,10.66,0,0,1,.43-3H44.57A10.66,10.66,0,0,1,45,31V52H19ZM28,8.46a6,6,0,0,0,8,0V12H28ZM35,6a.9.9,0,0,1,.4.09,4,4,0,0,1-6.8,0A.9.9,0,0,1,29,6ZM27,18a2,2,0,0,1,0-4H37a2,2,0,0,1,0,4H27Zm3,2h4a11,11,0,0,1,9.79,6H20.21A11,11,0,0,1,30,20ZM22,58a3,3,0,0,1-3-3V54H45v1a3,3,0,0,1-3,3ZM32,30A10,10,0,1,0,42,40,10,10,0,0,0,32,30Zm0,18a8,8,0,1,1,8-8A8,8,0,0,1,32,48Z"/></g></svg>