<svg xmlns="http://www.w3.org/2000/svg" viewBox="0 0 64 64"><g id="Expanded"><path d="M56,55H55a1,1,0,0,1-1-1V46a3,3,0,0,0-3-3H49V32.66a5,5,0,0,0-1.46-3.54l-1.08-1.07A5,5,0,0,1,45,24.51V20a5,5,0,0,0-4-4.9V9a1,1,0,0,0-.29-.71l-4-4h0a1.07,1.07,0,0,0-.28-.19l-.1,0A1.1,1.1,0,0,0,36.06,4H27.94a1.31,1.31,0,0,0-.27.06l-.09,0a1.32,1.32,0,0,0-.29.19h0l-4,4A1,1,0,0,0,23,9v6.1A5,5,0,0,0,19,20v4.51a5,5,0,0,1-1.46,3.54l-1.08,1.07A5,5,0,0,0,15,32.66V43H13a3,3,0,0,0-3,3v8a1,1,0,0,1-1,1H8a1,1,0,0,0,0,2H9a3,3,0,0,0,3-3V46a1,1,0,0,1,1-1h2V55a5,5,0,0,0,5,5H44a5,5,0,0,0,5-5V45h2a1,1,0,0,1,1,1v8a3,3,0,0,0,3,3h1a1,1,0,0,0,0-2ZM39,15H37V7.41l2,2ZM29,15V10h6v5Zm6-7H29V6h6ZM25,9.41l2-2V15H25ZM47,55a3,3,0,0,1-3,3H20a3,3,0,0,1-3-3V32.66a3,3,0,0,1,.88-2.12L19,29.46A7,7,0,0,0,21,24.51V20a3,3,0,0,1,3-3H40a3,3,0,0,1,3,3v4.51a6.94,6.94,0,0,0,2,4.95l1.07,1.08A3,3,0,0,1,47,32.66ZM40,38H24a3,3,0,0,0-3,3v8a3,3,0,0,0,3,3H40a3,3,0,0,0,3-3V41A3,3,0,0,0,40,38ZM24,40H40a1,1,0,0,1,1,1v1H23V41A1,1,0,0,1,24,40Zm-1,9V44h8v6H24A1,1,0,0,1,23,49Zm17,1H33V44h8v5A1,1,0,0,1,40,50ZM32,33a5,5,0,1,0-5-5A5,5,0,0,0,32,33Zm0-8a3,3,0,1,1-3,3A3,3,0,0,1,32,25Z"/></g></svg>