<svg xmlns="http://www.w3.org/2000/svg" viewBox="0 0 64 64"><g id="Expanded"><path d="M51,10H47a3,3,0,0,0-3,3v7H39.86A4,4,0,0,0,37,17.14V16a3,3,0,0,0-2-2.83,10,10,0,0,0-19.92,0A3,3,0,0,0,13,16v1.14A4,4,0,0,0,14,25V39a4,4,0,0,0-1,7.86V48a3,3,0,0,0,2,2.83,10,10,0,0,0,19.92,0A3,3,0,0,0,37,48V46.86A4,4,0,0,0,39.86,44H44v7a3,3,0,0,0,3,3h4a3,3,0,0,0,3-3V13A3,3,0,0,0,51,10Zm1,34H51a1,1,0,0,1-1-1V21a1,1,0,0,1,1-1h1ZM25,6a8,8,0,0,1,7.93,7H17.07A8,8,0,0,1,25,6ZM15,16a1,1,0,0,1,1-1H34a1,1,0,0,1,1,1v1H15Zm-3,5a2,2,0,0,1,2-2H36a2,2,0,0,1,0,4H14A2,2,0,0,1,12,21ZM34,39H25.41L34,30.41ZM24.59,25,16,33.59V25ZM16,36.41,27.41,25H34v2.59L22.59,39H16ZM25,58a8,8,0,0,1-7.93-7H32.93A8,8,0,0,1,25,58ZM35,48a1,1,0,0,1-1,1H16a1,1,0,0,1-1-1V47H35Zm1-3H14a2,2,0,0,1,0-4H36a2,2,0,0,1,0,4Zm3.86-3A4,4,0,0,0,36,39V25a4,4,0,0,0,3.86-3H44V42ZM51,52H47a1,1,0,0,1-1-1V13a1,1,0,0,1,1-1h4a1,1,0,0,1,1,1v5H51a3,3,0,0,0-3,3V43a3,3,0,0,0,3,3h1v5A1,1,0,0,1,51,52Z"/></g></svg>