<svg xmlns="http://www.w3.org/2000/svg" viewBox="0 0 64 64"><g id="Expanded"><path d="M57,52H53V33h1.48a3,3,0,0,0,2.22-5l-6.37-7a3,3,0,0,0-2.21-1H37V15a3,3,0,0,0,.93-5.84,6,6,0,0,0-11.86,0A3,3,0,0,0,27,15v5H15.88a3,3,0,0,0-2.22,1L7.3,28a3,3,0,0,0,2.22,5H11V52H7a3,3,0,0,0-3,3v2a3,3,0,0,0,3,3H57a3,3,0,0,0,3-3V55A3,3,0,0,0,57,52ZM48.86,22.32l6.36,7a1,1,0,0,1,.18,1.09,1,1,0,0,1-.92.59H39.82A3,3,0,0,0,37,29V22H48.12A1,1,0,0,1,48.86,22.32ZM37,33H27a1,1,0,0,1,0-2H37a1,1,0,0,1,0,2Zm-1.14,2a4,4,0,0,1-7.72,0ZM35,20.59l-6,6V23.41l6-6Zm0,2.82V29H29.41ZM32,6a4,4,0,0,1,3.86,3H28.14A4,4,0,0,1,32,6Zm-6,6a1,1,0,0,1,1-1H37a1,1,0,0,1,0,2H27A1,1,0,0,1,26,12Zm8.59,3L29,20.59V15ZM8.6,30.41a1,1,0,0,1,.18-1.09l6.35-7a1,1,0,0,1,.75-.33H27v7a3,3,0,0,0-2.82,2H9.52A1,1,0,0,1,8.6,30.41ZM13,33H24.18a3,3,0,0,0,1.89,1.84,6,6,0,0,0,11.86,0A3,3,0,0,0,39.82,33H51V52H27V45a3,3,0,0,0-3-3H20a3,3,0,0,0-3,3v7H13ZM25,52H19V45a1,1,0,0,1,1-1h4a1,1,0,0,1,1,1Zm33,5a1,1,0,0,1-1,1H7a1,1,0,0,1-1-1V55a1,1,0,0,1,1-1H57a1,1,0,0,1,1,1ZM34,50H46a3,3,0,0,0,3-3V45a3,3,0,0,0-3-3H34a3,3,0,0,0-3,3v2A3,3,0,0,0,34,50Zm13-5v2a1,1,0,0,1-1,1H41V44h5A1,1,0,0,1,47,45ZM33,45a1,1,0,0,1,1-1h5v4H34a1,1,0,0,1-1-1Z"/></g></svg>