<svg xmlns="http://www.w3.org/2000/svg" viewBox="0 0 64 64"><g id="Expanded"><path d="M51,22H48a13,13,0,0,0-9-11.37A4,4,0,0,0,36,4H28a4,4,0,0,0-3,6.63,13,13,0,0,0-9,11.37H13a3,3,0,0,0,0,6h2v8a3,3,0,0,0,3,3h2v4H17.82A3,3,0,0,0,15,41H13a3,3,0,0,0,0,6h2a3,3,0,0,0,2.82-2H20.1A5,5,0,0,0,25,49h2v3H24.83a3,3,0,0,0-2.12.88l-2,2A3,3,0,0,0,22.83,60H41.17a3,3,0,0,0,2.12-5.12l-2-2A3,3,0,0,0,39.17,52H37V49h2a5,5,0,0,0,5-5V39h2a3,3,0,0,0,3-3V28h2a3,3,0,0,0,0-6ZM28,10a2,2,0,0,1,0-4h8a2,2,0,0,1,0,4H28Zm1,2h6A11,11,0,0,1,46,22H45a3,3,0,0,0-3,2.77A3,3,0,0,0,41,27v4H23V27a3,3,0,0,0-1-2.23A3,3,0,0,0,19,22h-.95A11,11,0,0,1,29,12ZM43.14,36.47a1,1,0,0,1-.88.53H21.74a1,1,0,0,1-.88-.53,1,1,0,0,1,.05-1l1.33-2a1,1,0,0,1,.83-.45H40.93a1,1,0,0,1,.83.45l1.33,2A1,1,0,0,1,43.14,36.47ZM12,25a1,1,0,0,1,1-1h6a1,1,0,0,1,0,2H13A1,1,0,0,1,12,25Zm5,11V28h2a3,3,0,0,0,2-.78v4.62a3,3,0,0,0-.43.5l-1.33,2a3,3,0,0,0-.3,2.66H18A1,1,0,0,1,17,36Zm-2,9H13a1,1,0,0,1,0-2h2a1,1,0,0,1,0,2Zm24.88,9.29,2,2A1,1,0,0,1,41.17,58H22.83a1,1,0,0,1-.71-1.71l2-2a1.05,1.05,0,0,1,.71-.29H39.17A1.05,1.05,0,0,1,39.88,54.29ZM35,52H29V49h6Zm7-8a3,3,0,0,1-3,3H25a3,3,0,0,1-3-3V39H42Zm5-8a1,1,0,0,1-1,1h-.94a3,3,0,0,0-.3-2.66l-1.33-2a3,3,0,0,0-.43-.5V27.22A3,3,0,0,0,45,28h2Zm4-10H45a1,1,0,0,1,0-2h6a1,1,0,0,1,0,2Z"/></g></svg>