<svg xmlns="http://www.w3.org/2000/svg" viewBox="0 0 64 64"><g id="Expanded"><path d="M39,17a4,4,0,1,0-4-4A4,4,0,0,0,39,17Zm0-6a2,2,0,1,1-2,2A2,2,0,0,1,39,11ZM25,17a4,4,0,1,0-4-4A4,4,0,0,0,25,17Zm0-6a2,2,0,1,1-2,2A2,2,0,0,1,25,11Zm7,13a4,4,0,1,0-4-4A4,4,0,0,0,32,24Zm0-6a2,2,0,1,1-2,2A2,2,0,0,1,32,18Zm0,15a4,4,0,0,0-4,4v8a4,4,0,0,0,8,0V37A4,4,0,0,0,32,33Zm0,2a2,2,0,0,1,2,2v.56a3.85,3.85,0,0,0-4,0V37A2,2,0,0,1,32,35Zm2,6a2,2,0,1,1-2-2A2,2,0,0,1,34,41Zm-2,6a2,2,0,0,1-2-2v-.56a3.85,3.85,0,0,0,4,0V45A2,2,0,0,1,32,47ZM45,29H44V21.41l2-2.05a8.85,8.85,0,0,0,2-9.8A8.85,8.85,0,0,0,39.69,4H24.31A8.85,8.85,0,0,0,16,9.56,8.85,8.85,0,0,0,18,19.36L20,21.41V42a12,12,0,0,0,5,9.73V55a5,5,0,0,0,5,5h4a5,5,0,0,0,5-5V51.73A12,12,0,0,0,44,42V41h1a3,3,0,0,0,3-3V32A3,3,0,0,0,45,29Zm0,2a1,1,0,0,1,1,1v2H44V31ZM17.85,10.32A6.89,6.89,0,0,1,24.31,6H39.69a6.89,6.89,0,0,1,6.46,4.32A6.88,6.88,0,0,1,44.64,18l-2.35,2.34h0L37,25.64a7,7,0,0,1-9.9,0l-5.34-5.35h0L19.36,18A6.88,6.88,0,0,1,17.85,10.32ZM37,55a3,3,0,0,1-3,3H30a3,3,0,0,1-3-3V52.89a11.82,11.82,0,0,0,10,0Zm5-13a10,10,0,0,1-20,0V23.41l3.64,3.64a9,9,0,0,0,12.72,0L42,23.41Zm3-3H44V36h2v2A1,1,0,0,1,45,39Z"/></g></svg>