<svg xmlns="http://www.w3.org/2000/svg" viewBox="0 0 64 64"><g id="Expanded"><path d="M49,4H15a5,5,0,0,0-5,5V37a5,5,0,0,0,5,5h4v2a3,3,0,0,0-3,3v2a3,3,0,0,0,3,3h9v2H25a3,3,0,0,0-3,3v1H17a1,1,0,0,0,0,2H47a1,1,0,0,0,0-2H42V57a3,3,0,0,0-3-3H36V52h9a3,3,0,0,0,3-3V47a3,3,0,0,0-3-3V42h4a5,5,0,0,0,5-5V9A5,5,0,0,0,49,4ZM40,24H38.44A3.91,3.91,0,0,0,39,22a4,4,0,0,0-4-4H29a4,4,0,0,0-4,4,3.91,3.91,0,0,0,.56,2H24a5,5,0,0,0-5,5v6H18a1,1,0,0,1-1-1V12a1,1,0,0,1,1-1H46a1,1,0,0,1,1,1V34a1,1,0,0,1-1,1H45V29A5,5,0,0,0,40,24ZM33,44V26h4V44Zm-6,0V26h4V44Zm0-22a2,2,0,0,1,2-2h6a2,2,0,0,1,0,4H29A2,2,0,0,1,27,22Zm-6,7a3,3,0,0,1,3-3h1V44H21ZM40,57v1H24V57a1,1,0,0,1,1-1H39A1,1,0,0,1,40,57Zm-6-3H30V52h4Zm12-7v2a1,1,0,0,1-1,1H19a1,1,0,0,1-1-1V47a1,1,0,0,1,1-1H45A1,1,0,0,1,46,47Zm-7-3V26h1a3,3,0,0,1,3,3V44Zm13-7a3,3,0,0,1-3,3H45V37h1a3,3,0,0,0,3-3V12a3,3,0,0,0-3-3H18a3,3,0,0,0-3,3V34a3,3,0,0,0,3,3h1v3H15a3,3,0,0,1-3-3V9a3,3,0,0,1,3-3H49a3,3,0,0,1,3,3Z"/></g></svg>