<svg xmlns="http://www.w3.org/2000/svg" viewBox="0 0 64 64"><g id="Expanded"><path d="M57,10H18.36A14.16,14.16,0,0,0,4,23.33,14,14,0,0,0,18,38a14,14,0,0,0,8-2.53V44a5,5,0,0,0,4,4.9V49a3,3,0,0,1-3,3H23a3,3,0,0,1-3-3V46a5,5,0,0,0-5-5H9a1,1,0,0,0,0,2h6a3,3,0,0,1,3,3v3a5,5,0,0,0,5,5h4a5,5,0,0,0,5-5v-.1A5,5,0,0,0,36,44V39h1a3,3,0,0,0,3-3V28H57a3,3,0,0,0,3-3V13A3,3,0,0,0,57,10ZM46.09,12l-.37,1.65A3,3,0,0,1,42.79,16H31.21a3,3,0,0,1-2.93-2.35L27.91,12ZM9.32,32.28A11.91,11.91,0,0,1,6,23.42,12.18,12.18,0,0,1,18.36,12h7.5l.46,2.09A5,5,0,0,0,31.21,18H42.79a5,5,0,0,0,4.89-3.91L48.14,12H52V26H33.49a5.06,5.06,0,0,0-4.59,3A12,12,0,0,1,18,36,11.87,11.87,0,0,1,9.32,32.28ZM34,44a3,3,0,0,1-6,0V33.78a13.69,13.69,0,0,0,2.72-3.92A3.06,3.06,0,0,1,33.49,28H34Zm4-8a1,1,0,0,1-1,1H36V28h2ZM58,25a1,1,0,0,1-1,1H54V12h3a1,1,0,0,1,1,1ZM18,15a9,9,0,1,0,9,9A9,9,0,0,0,18,15Zm0,16a7,7,0,1,1,7-7A7,7,0,0,1,18,31Zm4-5a1,1,0,0,1-1,1H15a1,1,0,0,1,0-2h6A1,1,0,0,1,22,26Zm0-4a1,1,0,0,1-1,1H15a1,1,0,0,1,0-2h6A1,1,0,0,1,22,22Z"/></g></svg>