<svg xmlns="http://www.w3.org/2000/svg" viewBox="0 0 64 64"><g id="Expanded"><path d="M49,16a1,1,0,0,0,0-2h-6a10.24,10.24,0,0,0-.38-2H49a1,1,0,0,0,0-2H41.76a11.06,11.06,0,0,0-6.4-5.46h0a10.85,10.85,0,0,0-6.76,0h0A11.06,11.06,0,0,0,22.18,10H15a1,1,0,0,0,0,2H21.4A10.24,10.24,0,0,0,21,14H15a1,1,0,0,0,0,2H21v2H15a1,1,0,0,0,0,2H21v2H15a1,1,0,0,0,0,2H21v2H15a1,1,0,0,0,0,2H21v2H15a1,1,0,0,0,0,2h6a10.24,10.24,0,0,0,.38,2H15a1,1,0,0,0,0,2h7.15A11.13,11.13,0,0,0,26,40.21V43a3,3,0,0,0,2,2.82V56a4,4,0,0,0,8,0V45.82A3,3,0,0,0,38,43V40.21A11.13,11.13,0,0,0,41.76,36H49a1,1,0,0,0,0-2H42.54a10.24,10.24,0,0,0,.38-2h6a1,1,0,0,0,0-2H43V28h6a1,1,0,0,0,0-2H43V24h6a1,1,0,0,0,0-2H43V20h6a1,1,0,0,0,0-2H43V16ZM34,6.23V30a2,2,0,0,1-4,0V6.23a8.81,8.81,0,0,1,4,0ZM34,56a2,2,0,0,1-4,0V46h4Zm2-13a1,1,0,0,1-1,1H29a1,1,0,0,1-1-1V41.24a10.91,10.91,0,0,0,8,0Zm-4-3a9,9,0,0,1-9-9V15a9,9,0,0,1,5-8V30a4,4,0,0,0,8,0V7A9,9,0,0,1,41,15V31A9,9,0,0,1,32,40Z"/></g></svg>