<svg xmlns="http://www.w3.org/2000/svg" viewBox="0 0 64 64"><g id="Expanded"><path d="M49,30h-.18A3,3,0,0,0,49,29V27a3,3,0,0,0-3-3H43.46A6,6,0,0,0,39,14H37.46A6,6,0,1,0,27,10a.34.34,0,0,0,0,.1A5,5,0,0,0,24,18H23a4,4,0,0,0-4,4,3.91,3.91,0,0,0,.56,2H18a3,3,0,0,0-3,3v2a3,3,0,0,0,.18,1H15a5,5,0,0,0-5,5V51a5,5,0,0,0,5,5h1v1a3,3,0,0,0,3,3H45a3,3,0,0,0,3-3V56h1a5,5,0,0,0,5-5V35A5,5,0,0,0,49,30ZM33,6a4,4,0,1,1-4,4A4,4,0,0,1,33,6ZM21,22a2,2,0,0,1,2-2H34a1,1,0,0,0,0-2H28a3,3,0,0,1-.63-5.93A6,6,0,0,0,33,16h6a4,4,0,0,1,0,8H23A2,2,0,0,1,21,22Zm-4,7V27a1,1,0,0,1,1-1H46a1,1,0,0,1,1,1v2a1,1,0,0,1-1,1H18A1,1,0,0,1,17,29ZM46,57a1,1,0,0,1-1,1H19a1,1,0,0,1-1-1V56H46Zm6-6a3,3,0,0,1-3,3H15a3,3,0,0,1-3-3V35a3,3,0,0,1,3-3H49a3,3,0,0,1,3,3ZM46,35H18a3,3,0,0,0-3,3V48a3,3,0,0,0,3,3H46a3,3,0,0,0,3-3V38A3,3,0,0,0,46,35Zm-8,8a6,6,0,1,1-6-6A6,6,0,0,1,38,43ZM18,49a1,1,0,0,1-1-1V38a1,1,0,0,1,1-1h8.73a8,8,0,0,0,0,12Zm29-1a1,1,0,0,1-1,1H37.27a8,8,0,0,0,0-12H46a1,1,0,0,1,1,1Z"/></g></svg>