<svg xmlns="http://www.w3.org/2000/svg" viewBox="0 0 64 64"><g id="Expanded"><path d="M54,26.71A4.08,4.08,0,0,0,50,23V16a3,3,0,0,0-3-3H45a3,3,0,0,0-3,3v7H40.94a2.93,2.93,0,0,0-2.2,1A3.09,3.09,0,0,0,38,26.37q0,.31,0,.63a6,6,0,0,1-11.42,2.56A5.89,5.89,0,0,1,26,27q0-.32,0-.63A3.09,3.09,0,0,0,25.26,24a2.93,2.93,0,0,0-2.2-1H23V22a3,3,0,0,0-2-2.82V11a1,1,0,0,1,1-1h4a1,1,0,0,1,1,1v2a3,3,0,0,0,6,0V7a3,3,0,0,0-3-3H18a3,3,0,0,0-3,3V19.18A3,3,0,0,0,13,22v1.14a4.08,4.08,0,0,0-1.83,1A4,4,0,0,0,13,30.82V34A13,13,0,0,0,25,47l-3.85,5a5,5,0,0,0,4,8H38.88a5,5,0,0,0,4-8L39,47A13,13,0,0,0,51,34V30.86a4.08,4.08,0,0,0,1.83-1A4,4,0,0,0,54,26.71ZM45,15h2a1,1,0,0,1,1,1v1H44V16A1,1,0,0,1,45,15Zm-1,4h4v4H44ZM17,7a1,1,0,0,1,1-1H30a1,1,0,0,1,1,1v6a1,1,0,0,1-2,0V11a3,3,0,0,0-3-3H22a3,3,0,0,0-3,3v8H17ZM15,22a1,1,0,0,1,1-1h4a1,1,0,0,1,1,1v1H15ZM41.57,56.33A3,3,0,0,1,38.88,58H25.12a3,3,0,0,1-2.37-4.83L27.49,47h9l4.74,6.17A3,3,0,0,1,41.57,56.33ZM38,45H26A11,11,0,0,1,15,34V31h2.86a1,1,0,0,1,.94.68,14,14,0,0,0,26.4,0,1,1,0,0,1,.94-.68H49v3A11,11,0,0,1,38,45ZM51.41,28.41A2,2,0,0,1,50,29H46.14a3,3,0,0,0-2.83,2,12,12,0,0,1-22.62,0,3,3,0,0,0-2.83-2H14.17A2.12,2.12,0,0,1,12,27.15,2,2,0,0,1,14,25h9.06a1,1,0,0,1,.72.32,1.06,1.06,0,0,1,.26.84A7.87,7.87,0,0,0,24,27a7.77,7.77,0,0,0,.78,3.43A8,8,0,0,0,40,27a7.56,7.56,0,0,0,0-.83,1.07,1.07,0,0,1,.26-.85,1,1,0,0,1,.72-.32h8.89A2.12,2.12,0,0,1,52,26.85,2,2,0,0,1,51.41,28.41Z"/></g></svg>