<svg xmlns="http://www.w3.org/2000/svg" viewBox="0 0 64 64"><g id="Expanded"><path d="M57,44a4,4,0,0,0-4-4H33V25a9,9,0,0,0-5.53-8.3A3,3,0,0,0,28,15V13a3,3,0,0,0-3-3V7a3,3,0,0,0-3-3H18a3,3,0,0,0-3,3v3a3,3,0,0,0-3,3v2a3,3,0,0,0,.53,1.7A9,9,0,0,0,7,25V55a5,5,0,0,0,5,5H45a9,9,0,0,0,9-9V47.86a4.08,4.08,0,0,0,1.83-1A4,4,0,0,0,57,44ZM17,7a1,1,0,0,1,1-1h4a1,1,0,0,1,1,1v3H17Zm-2,9a1,1,0,0,1-1-1V13a1,1,0,0,1,1-1H25a1,1,0,0,1,1,1v2a1,1,0,0,1-1,1H15ZM9,31.07A8,8,0,0,1,9,46.93ZM9,49a10,10,0,0,0,0-19.9V26H25a1,1,0,0,1,1,1V51a1,1,0,0,1-1,1H9Zm0,6V54H25a3,3,0,0,0,3-3V27a3,3,0,0,0-3-3H9.08A7,7,0,0,1,16,18h8a7,7,0,0,1,7,7V55a3,3,0,0,1-3,3H12A3,3,0,0,1,9,55Zm43-4a7,7,0,0,1-7,7H32a4.92,4.92,0,0,0,1-3V48H52Zm2.41-5.59A2,2,0,0,1,53,46H33V42H53a2,2,0,0,1,2,2A2,2,0,0,1,54.41,45.41Z"/></g></svg>