<svg xmlns="http://www.w3.org/2000/svg" viewBox="0 0 64 64"><g id="Expanded"><path d="M51,21H49V17a5,5,0,0,0-5-5V7a3,3,0,0,0-3-3H23a3,3,0,0,0-3,3v5a5,5,0,0,0-4.9,4H13a3,3,0,0,0-3,3v8a3,3,0,0,0,3,3h2v.89a5,5,0,0,0,.71,2.57l4.86,8.1A3,3,0,0,1,21,43.11V49a11,11,0,0,0,22,0V38.14a3,3,0,0,1,1.34-2.5L46.77,34a5,5,0,0,0,2.09-3H51a3,3,0,0,0,3-3V24A3,3,0,0,0,51,21ZM42,7v5H39V6h2A1,1,0,0,1,42,7Zm-7,5V6h2v6Zm-4,0V6h2v6Zm-4,0V6h2v6ZM22,7a1,1,0,0,1,1-1h2v6H22ZM13,18h2v4H12V19A1,1,0,0,1,13,18Zm0,10a1,1,0,0,1-1-1V24h3v4Zm32.66,4.36L43.23,34A5,5,0,0,0,41,38.14V49a9,9,0,0,1-18,0V43.11a5,5,0,0,0-.71-2.57l-4.86-8.1A3,3,0,0,1,17,30.89V17a3,3,0,0,1,3-3H44a3,3,0,0,1,3,3V29.86A3,3,0,0,1,45.66,32.36ZM52,28a1,1,0,0,1-1,1H49V23h2a1,1,0,0,1,1,1ZM32,36a5,5,0,0,0-5,5v8a5,5,0,0,0,10,0V41A5,5,0,0,0,32,36Zm0,2a3,3,0,0,1,3,3v0a4.88,4.88,0,0,0-6,0v0A3,3,0,0,1,32,38Zm3,7a3,3,0,1,1-3-3A3,3,0,0,1,35,45Zm-3,7a3,3,0,0,1-3-3v0a4.88,4.88,0,0,0,6,0v0A3,3,0,0,1,32,52Zm9-35H23a3,3,0,0,0-3,3v6a3,3,0,0,0,3,3H41a3,3,0,0,0,3-3V20A3,3,0,0,0,41,17Zm1,9a1,1,0,0,1-1,1H23a1,1,0,0,1-1-1V20a1,1,0,0,1,1-1H41a1,1,0,0,1,1,1Z"/></g></svg>