<svg xmlns="http://www.w3.org/2000/svg" viewBox="0 0 64 64"><g id="Expanded"><path d="M32,10A16,16,0,1,0,48,26,16,16,0,0,0,32,10Zm0,30A14,14,0,1,1,46,26,14,14,0,0,1,32,40ZM33.18,4A22,22,0,0,0,10,26,21.87,21.87,0,0,0,22.36,45.78,3,3,0,0,1,24,48.45V52a8,8,0,0,0,16,0V48.45a3,3,0,0,1,1.62-2.66A22,22,0,0,0,33.18,4Zm7.57,40A5,5,0,0,0,38,48.45V52a6,6,0,0,1-12,0V48.45A5,5,0,0,0,23.24,44a20,20,0,0,1-5-32.49A19.82,19.82,0,0,1,32,6c.36,0,.73,0,1.09,0a20,20,0,0,1,7.67,38ZM32,48a4,4,0,1,0,4,4A4,4,0,0,0,32,48Zm0,6a2,2,0,1,1,2-2A2,2,0,0,1,32,54Zm2.12-31.54-5.66,5.66a1,1,0,0,1-.7.29,1,1,0,0,1-.71-.29,1,1,0,0,1,0-1.41l5.66-5.66a1,1,0,0,1,1.41,1.41ZM37,23.88a1,1,0,0,1,0,1.41L31.29,31a1,1,0,0,1-1.41-1.41l5.66-5.66A1,1,0,0,1,37,23.88Z"/></g></svg>