<svg xmlns="http://www.w3.org/2000/svg" viewBox="0 0 64 64"><g id="Expanded"><path d="M32,33A12,12,0,1,0,20,21,12,12,0,0,0,32,33Zm0-22A10,10,0,1,1,22,21,10,10,0,0,1,32,11ZM28.2,26.4l2,1.5a3,3,0,0,0,3.6,0l2-1.5A3,3,0,0,0,37,24V16.62a2,2,0,0,0-2.89-1.79h0L31.76,16H29a2,2,0,0,0-2,2v6A3,3,0,0,0,28.2,26.4ZM35,24a1,1,0,0,1-.4.8l-2,1.5a1,1,0,0,1-1.2,0l-2-1.5A1,1,0,0,1,29,24V22h6Zm-6-6h2.76a2,2,0,0,0,.9-.21L35,16.62V20H29ZM39.58,41.56,46.63,29A16.79,16.79,0,0,0,17.51,12.31,16.61,16.61,0,0,0,17.37,29l7.05,12.54C15.61,42.9,10,46.34,10,50.5c0,2.21,1.58,4.25,4.56,5.88C18.71,58.68,25.06,60,32,60s13.29-1.32,17.43-3.61c3-1.64,4.57-3.68,4.57-5.89C54,46.34,48.39,42.9,39.58,41.56ZM19.23,13.32A14.79,14.79,0,0,1,44.89,28L37.13,41.85h0l-2.7,4.81h0l-1.54,2.74a1,1,0,0,1-1.74,0l-1.54-2.73v0l-2.7-4.79h0L19.11,28A14.65,14.65,0,0,1,19.23,13.32ZM29.38,50.39h0a3,3,0,0,0,5.23,0l1.23-2.2C41.53,48.74,44,50.29,44,51c0,1.06-4.56,3-12,3s-12-1.94-12-3c0-.71,2.47-2.26,8.15-2.81Zm19.08,4.25C44.67,56.74,38.51,58,32,58s-12.67-1.26-16.47-3.37C13.25,53.38,12,51.92,12,50.5c0-3.07,5.63-6,13.47-7.07l1.61,2.86C22.45,46.86,18,48.34,18,51c0,3.44,7.26,5,14,5s14-1.56,14-5c0-2.66-4.45-4.14-9.08-4.71l1.61-2.86C46.37,44.5,52,47.43,52,50.5,52,51.92,50.75,53.38,48.46,54.64Z"/></g></svg>