<svg xmlns="http://www.w3.org/2000/svg" viewBox="0 0 64 64"><g id="Expanded"><path d="M40.58,18.51A3,3,0,0,0,41,17V15a3,3,0,0,0-3-3H37V7a3,3,0,0,0-.18-1h2.35a1.05,1.05,0,0,1,.71.29l2.44,2.44A1,1,0,0,0,43,9a1,1,0,0,0,.71-.29,1,1,0,0,0,0-1.41L41.29,4.88A3,3,0,0,0,39.17,4H23a1,1,0,0,0,0,2h4.18A3,3,0,0,0,27,7v5H26a3,3,0,0,0-3,3v2a3,3,0,0,0,.42,1.51A13,13,0,0,0,14,31V55a5,5,0,0,0,5,5H45a5,5,0,0,0,5-5V31A13,13,0,0,0,40.58,18.51ZM29,7a1,1,0,0,1,1-1h4a1,1,0,0,1,1,1v5H29ZM26,18a1,1,0,0,1-1-1V15a1,1,0,0,1,1-1H38a1,1,0,0,1,1,1v2a1,1,0,0,1-1,1H26Zm1,2H37A11,11,0,0,1,48,31V52H16V31A11,11,0,0,1,27,20ZM45,58H19a3,3,0,0,1-3-3V54H48v1A3,3,0,0,1,45,58ZM24.28,40.28a4,4,0,0,0,.84-.08l3.35-.67h0l-.67,3.35a4.28,4.28,0,1,0,8.4,0l-.67-3.35h0l3.36.67a3.89,3.89,0,0,0,.83.08,4.28,4.28,0,1,0-.84-8.48l-3.35.67h0l.67-3.36a4.28,4.28,0,1,0-8.4,0l.67,3.35h0l-3.35-.67a4.28,4.28,0,1,0-.83,8.48ZM35,36a3,3,0,1,1-3-3A3,3,0,0,1,35,36Zm-.76,7.27a2.28,2.28,0,0,1-.48,1.9,2.35,2.35,0,0,1-3.52,0,2.27,2.27,0,0,1-.48-1.89l.52-2.6a4.78,4.78,0,0,0,3.44,0Zm5-9.51a2.28,2.28,0,0,1,1.9.48,2.28,2.28,0,0,1-1.89,4l-2.6-.52a4.78,4.78,0,0,0,0-3.44Zm-9.51-5a2.28,2.28,0,0,1,.48-1.9,2.35,2.35,0,0,1,3.52,0,2.27,2.27,0,0,1,.48,1.89l-.52,2.6a4.78,4.78,0,0,0-3.44,0Zm-6.93,5.51a2.27,2.27,0,0,1,1.89-.48l2.6.52a4.78,4.78,0,0,0,0,3.44l-2.59.52a2.28,2.28,0,0,1-1.9-.48,2.28,2.28,0,0,1,0-3.52Z"/></g></svg>