<svg xmlns="http://www.w3.org/2000/svg" viewBox="0 0 64 64"><g id="Expanded"><path d="M52,8H18.65A6,6,0,0,0,13,4a6,6,0,0,0-6,6V55a5,5,0,0,0,5,5H48a5,5,0,0,0,5-5V51.9A5,5,0,0,0,57,47V13A5,5,0,0,0,52,8ZM51,54H15a1,1,0,0,1-1-1V47.14A4,4,0,0,1,17,51a1,1,0,0,0,1,1H51ZM9,10a4,4,0,0,1,6.83-2.84A4,4,0,0,1,17,10V46.53a6,6,0,0,0-8,0ZM48,58H12a3,3,0,0,1-3-3V51a4,4,0,0,1,3-3.86V53a3,3,0,0,0,3,3H50.82A3,3,0,0,1,48,58Zm7-11a3,3,0,0,1-3,3H19V10H52a3,3,0,0,1,3,3ZM43,24a3,3,0,0,0,1-5.83,7,7,0,0,0-13.9,0A3,3,0,0,0,31,24V36a3,3,0,0,0-.95,5.83,7,7,0,0,0,13.9,0A3,3,0,0,0,43,36ZM37,14a5,5,0,0,1,4.9,4H32.1A5,5,0,0,1,37,14Zm-7,7a1,1,0,0,1,1-1H43a1,1,0,0,1,0,2H31A1,1,0,0,1,30,21Zm7.59,3L33,28.59V24ZM33,31.41,40.41,24H41v4.59L33.59,36H33ZM37,46a5,5,0,0,1-4.9-4h9.8A5,5,0,0,1,37,46Zm7-7a1,1,0,0,1-1,1H31a1,1,0,0,1,0-2H43A1,1,0,0,1,44,39Zm-7.59-3L41,31.41V36Z"/></g></svg>