<svg xmlns="http://www.w3.org/2000/svg" viewBox="0 0 64 64"><g id="Expanded"><path d="M36,4H12A5,5,0,0,0,7,9V23a5,5,0,0,0,2,4,5,5,0,0,0-2,4V55a5,5,0,0,0,5,5H36a5,5,0,0,0,5-5V31a5,5,0,0,0-2-4,5,5,0,0,0,2-4V9A5,5,0,0,0,36,4Zm3,27V55a3,3,0,0,1-3,3H12a3,3,0,0,1-3-3V31a3,3,0,0,1,3-3H36A3,3,0,0,1,39,31Zm0-8a3,3,0,0,1-3,3H12a3,3,0,0,1-3-3V9a3,3,0,0,1,3-3H36a3,3,0,0,1,3,3ZM16,42h4a3,3,0,0,0,3-3V35a3,3,0,0,0-3-3H16a3,3,0,0,0-3,3v4A3,3,0,0,0,16,42Zm-1-7a1,1,0,0,1,1-1h4a1,1,0,0,1,1,1v4a1,1,0,0,1-1,1H16a1,1,0,0,1-1-1Zm13,7h4a3,3,0,0,0,3-3V35a3,3,0,0,0-3-3H28a3,3,0,0,0-3,3v4A3,3,0,0,0,28,42Zm-1-7a1,1,0,0,1,1-1h4a1,1,0,0,1,1,1v4a1,1,0,0,1-1,1H28a1,1,0,0,1-1-1ZM16,54h4a3,3,0,0,0,3-3V47a3,3,0,0,0-3-3H16a3,3,0,0,0-3,3v4A3,3,0,0,0,16,54Zm-1-7a1,1,0,0,1,1-1h4a1,1,0,0,1,1,1v4a1,1,0,0,1-1,1H16a1,1,0,0,1-1-1Zm13,7h4a3,3,0,0,0,3-3V47a3,3,0,0,0-3-3H28a3,3,0,0,0-3,3v4A3,3,0,0,0,28,54Zm-1-7a1,1,0,0,1,1-1h4a1,1,0,0,1,1,1v4a1,1,0,0,1-1,1H28a1,1,0,0,1-1-1ZM34,8H14a3,3,0,0,0-3,3V21a3,3,0,0,0,3,3H34a3,3,0,0,0,3-3V11A3,3,0,0,0,34,8Zm1,13a1,1,0,0,1-1,1H14a1,1,0,0,1-1-1V11a1,1,0,0,1,1-1H34a1,1,0,0,1,1,1Zm-6.76-6.41a1,1,0,0,1,0,1.41L24,20.24a1,1,0,0,1-.71.3,1,1,0,0,1-.7-.3,1,1,0,0,1,0-1.41l4.24-4.24A1,1,0,0,1,28.24,14.59Zm-2.83-1.42-4.24,4.24a1,1,0,0,1-1.41,0,1,1,0,0,1,0-1.41L24,11.76a1,1,0,0,1,1.41,1.41ZM57,25a3,3,0,0,0-2.41-2.94L56,19.24A5,5,0,0,0,51.53,12H48.47A5,5,0,0,0,44,19.24l1.41,2.82a3,3,0,0,0-.36,5.77l1,16.17h0l.25,4h0l.57,9.18a3,3,0,0,0,3,2.81h.24a3,3,0,0,0,3-2.81L53.69,48h0l.25-4h0l1-16.17A3,3,0,0,0,57,25ZM45.92,15.42A3,3,0,0,1,48.47,14h3.06a3,3,0,0,1,2.68,4.34L52.38,22H47.62l-1.83-3.66A3,3,0,0,1,45.92,15.42ZM46,24h8a1,1,0,0,1,0,2H46a1,1,0,0,1,0-2Zm2.13,21h3.74l-.12,2h-3.5ZM52,43H48l-.94-15h5.88ZM50.12,58h-.24a1,1,0,0,1-1-.94L48.38,49h3.24l-.5,8.06A1,1,0,0,1,50.12,58Z"/></g></svg>