<svg xmlns="http://www.w3.org/2000/svg" viewBox="0 0 64 64"><g id="Expanded"><path d="M55,24H43.41l-8-8a4,4,0,1,0-6.86,0l-8,8H9a5,5,0,0,0-5,5V49a5,5,0,0,0,5,5H55a5,5,0,0,0,5-5V29A5,5,0,0,0,55,24ZM32,12a2,2,0,0,1,1.42,3.41h0a2,2,0,0,1-2.82,0h0A2,2,0,0,1,32,12Zm-2,5.43a3.86,3.86,0,0,0,4,0L40.59,24H23.41ZM58,49a3,3,0,0,1-3,3H9a3,3,0,0,1-3-3V29a3,3,0,0,1,3-3H55a3,3,0,0,1,3,3ZM54,32a2,2,0,0,1-2-2,1,1,0,0,0-1-1H13a1,1,0,0,0-1,1,2,2,0,0,1-2,2,1,1,0,0,0-1,1V45a1,1,0,0,0,1,1,2,2,0,0,1,2,2,1,1,0,0,0,1,1H51a1,1,0,0,0,1-1,2,2,0,0,1,2-2,1,1,0,0,0,1-1V33A1,1,0,0,0,54,32ZM53,44.13A4,4,0,0,0,50.13,47H13.87A4,4,0,0,0,11,44.13V33.87A4,4,0,0,0,13.87,31H50.13A4,4,0,0,0,53,33.87ZM45,36H19a3,3,0,0,0,0,6H45a3,3,0,0,0,0-6Zm0,4H19a1,1,0,0,1,0-2H45a1,1,0,0,1,0,2Z"/></g></svg>