<svg xmlns="http://www.w3.org/2000/svg" viewBox="0 0 64 64"><g id="Expanded"><path d="M49,4H15a5,5,0,0,0-5,5v8a5,5,0,0,0,5,5h.46l3.11,4.66A3,3,0,0,0,21.07,28h3.49A3.91,3.91,0,0,0,24,30a4,4,0,0,0,4,4V56a4,4,0,0,0,8,0V34a4,4,0,0,0,4-4,3.91,3.91,0,0,0-.56-2h3.49a3,3,0,0,0,2.5-1.34L48.54,22H49a5,5,0,0,0,5-5V9A5,5,0,0,0,49,4ZM18,12H46v2a1,1,0,0,1-1,1H19a1,1,0,0,1-1-1Zm28-2H18V6H46ZM34,50H30V48h4Zm-2,8a2,2,0,0,1-2-2V52h4v4A2,2,0,0,1,32,58Zm2-12H30V34h4Zm4-16a2,2,0,0,1-2,2H28a2,2,0,0,1,0-4h8A2,2,0,0,1,38,30Zm5.76-4.45a1,1,0,0,1-.83.45H21.07a1,1,0,0,1-.83-.45L17.87,22H46.13ZM52,17a3,3,0,0,1-3,3H15a3,3,0,0,1-3-3V9a3,3,0,0,1,3-3h1v8a3,3,0,0,0,3,3H45a3,3,0,0,0,3-3V6h1a3,3,0,0,1,3,3Z"/></g></svg>