<svg xmlns="http://www.w3.org/2000/svg" viewBox="0 0 64 64"><g id="Expanded"><path d="M56,18h1a3,3,0,0,0,3-3V13a3,3,0,0,0-3-3H7a3,3,0,0,0-3,3v2a3,3,0,0,0,3,3h.83A2.14,2.14,0,0,1,10,19.85a2,2,0,0,1-.59,1.56A2,2,0,0,1,8,22H7a3,3,0,0,0-3,3V39a3,3,0,0,0,3,3h.83A2.14,2.14,0,0,1,10,43.85a2,2,0,0,1-.59,1.56A2,2,0,0,1,8,46H7a3,3,0,0,0-3,3v2a3,3,0,0,0,3,3H57a3,3,0,0,0,3-3V49a3,3,0,0,0-3-3h-.83A2.14,2.14,0,0,1,54,44.15a2,2,0,0,1,.59-1.56A2,2,0,0,1,56,42h1a3,3,0,0,0,3-3V25a3,3,0,0,0-3-3h-.83A2.14,2.14,0,0,1,54,20.15a2,2,0,0,1,.59-1.56A2,2,0,0,1,56,18Zm.17,6H57a1,1,0,0,1,1,1V39a1,1,0,0,1-1,1H56a4,4,0,0,0-4,4.29A4.11,4.11,0,0,0,56.17,48H57a1,1,0,0,1,1,1v2a1,1,0,0,1-1,1H7a1,1,0,0,1-1-1V49a1,1,0,0,1,1-1H8a4,4,0,0,0,4-4.29A4.11,4.11,0,0,0,7.83,40H7a1,1,0,0,1-1-1V25a1,1,0,0,1,1-1H8a4,4,0,0,0,4-4.29A4.11,4.11,0,0,0,7.83,16H7a1,1,0,0,1-1-1V13a1,1,0,0,1,1-1H57a1,1,0,0,1,1,1v2a1,1,0,0,1-1,1H56a4,4,0,0,0-4,4.29A4.11,4.11,0,0,0,56.17,24ZM49,29V28a3,3,0,0,0-3-3,3,3,0,0,0-3,3v1H39.42a8,8,0,0,0-14.84,0H21V28a3,3,0,0,0-3-3,3,3,0,0,0-3,3v1H14a3,3,0,0,0-3,3,3,3,0,0,0,3,3h1v1a3,3,0,0,0,6,0V35h3.58a8,8,0,0,0,14.84,0H43v1a3,3,0,0,0,6,0V35h1a3,3,0,0,0,3-3,3,3,0,0,0-3-3Zm2,3a1,1,0,0,1-.31.71A.93.93,0,0,1,50,33H48a1,1,0,0,0-1,1v2a1,1,0,0,1-2,0V34a1,1,0,0,0-1-1H38.71a1,1,0,0,0-1,.71,6,6,0,0,1-11.5,0,1,1,0,0,0-1-.71H20a1,1,0,0,0-1,1v2a1,1,0,0,1-2,0V34a1,1,0,0,0-1-1H14a1,1,0,0,1-1-1,1,1,0,0,1,.31-.71A.93.93,0,0,1,14,31h2a1,1,0,0,0,1-1V28a1,1,0,0,1,1-1,1,1,0,0,1,.71.31A.93.93,0,0,1,19,28v2a1,1,0,0,0,1,1h5.29a1,1,0,0,0,1-.71,6,6,0,0,1,11.5,0,1,1,0,0,0,1,.71H44a1,1,0,0,0,1-1V28a1,1,0,0,1,1-1,1,1,0,0,1,.71.31A.93.93,0,0,1,47,28v2a1,1,0,0,0,1,1h2A1,1,0,0,1,51,32ZM14,20a1,1,0,0,1,1-1H49a1,1,0,0,1,0,2H15A1,1,0,0,1,14,20ZM50,44a1,1,0,0,1-1,1H15a1,1,0,0,1,0-2H49A1,1,0,0,1,50,44Z"/></g></svg>