<svg xmlns="http://www.w3.org/2000/svg" viewBox="0 0 64 64"><g id="Expanded"><path d="M27.41,32,44.29,15.12A3,3,0,0,0,42.17,10H36.83a3,3,0,0,0-2.12.88L22.46,23.12a5,5,0,0,0-1.36,2.56l-4.5-4.5a7,7,0,1,0-1.42,1.42L21,28.41v7.18L15.18,41.4a7,7,0,1,0,1.42,1.42l4.5-4.5a5,5,0,0,0,1.36,2.56L34.71,53.12a3,3,0,0,0,2.12.88h5.34a3,3,0,0,0,2.12-5.12ZM23,26.66a3,3,0,0,1,.88-2.12L36.12,12.29a1.05,1.05,0,0,1,.71-.29h5.34a1,1,0,0,1,.71,1.71L23,33.59V26.66ZM6,17a5,5,0,1,1,8.54,3.53h0A5,5,0,0,1,6,17Zm5,35a5,5,0,1,1,3.53-8.54h0A5,5,0,0,1,11,52Zm32.1-.62a1,1,0,0,1-.93.62H36.83a1.05,1.05,0,0,1-.71-.29L23.88,39.46A3,3,0,0,1,23,37.34v-.93l3-3L42.88,50.29A1,1,0,0,1,43.1,51.38ZM60,32a1,1,0,0,1-1,1H53a1,1,0,0,1,0-2h6A1,1,0,0,1,60,32ZM50,32a1,1,0,0,1-1,1H43a1,1,0,0,1,0-2h6A1,1,0,0,1,50,32ZM39,31a1,1,0,0,1,0,2H33a1,1,0,0,1,0-2Z"/></g></svg>