<svg xmlns="http://www.w3.org/2000/svg" viewBox="0 0 64 64"><g id="Expanded"><path d="M38,31H32a7,7,0,0,0-7,7v6a1,1,0,0,0,.08.38,1,1,0,0,0,.54.54A1,1,0,0,0,26,45h6a7,7,0,0,0,7-7V32A1,1,0,0,0,38,31Zm-1,7a5,5,0,0,1-5,5H28.41l4.3-4.29a1,1,0,0,0-1.42-1.42L27,41.59V38a5,5,0,0,1,5-5h5ZM53,58H46a4.92,4.92,0,0,0,1-3V21a5,5,0,0,0-4.1-4.91A4.93,4.93,0,0,0,44,13V9a5,5,0,0,0-5-5H25a5,5,0,0,0-5,5v4a4.93,4.93,0,0,0,1.1,3.09A5,5,0,0,0,17,21V55a4.92,4.92,0,0,0,1,3H11a1,1,0,0,0,0,2H53a1,1,0,0,0,0-2ZM19,26H45V50H19Zm3-13V10h5.1a5,5,0,0,0,9.8,0H42v3a3,3,0,0,1-3,3H25A3,3,0,0,1,22,13Zm7.18-3h5.64a3,3,0,0,1-5.64,0ZM25,6H39a3,3,0,0,1,2.82,2H22.18A3,3,0,0,1,25,6ZM22,18H42a3,3,0,0,1,3,3v3H19V21A3,3,0,0,1,22,18Zm0,40a3,3,0,0,1-3-3V52H45v3a3,3,0,0,1-3,3Z"/></g></svg>