<svg xmlns="http://www.w3.org/2000/svg" viewBox="0 0 64 64"><g id="Expanded"><path d="M49.11,10a10.91,10.91,0,0,0-8.9-6A1.55,1.55,0,0,0,40,4l-.1,0c-.2,0-.39,0-.59,0H24.69c-.2,0-.39,0-.59,0L24,4a1.55,1.55,0,0,0-.21,0,11,11,0,0,0-8,17.43l6.3,8.62A4,4,0,0,0,23,38v3a9,9,0,0,0,3.74,7.29,3,3,0,0,0,.09,5.47l-1.12,1.12A3,3,0,0,0,27.83,60h8.34a3,3,0,0,0,2.12-5.12l-1.12-1.12a3,3,0,0,0,.09-5.47A9,9,0,0,0,41,41V38a4,4,0,0,0,.89-7.89l6.3-8.62A10.93,10.93,0,0,0,49.11,10Zm-12,47.36a1,1,0,0,1-.93.62H27.83a1,1,0,0,1-.71-1.71L29.41,54h5.18l2.29,2.29A1,1,0,0,1,37.1,57.38ZM36,50a1,1,0,0,1,0,2H28a1,1,0,0,1,0-2Zm3-9a7,7,0,0,1-14,0V38H39Zm4-7a2,2,0,0,1-2,2H23a2,2,0,0,1,0-4H41A2,2,0,0,1,43,34Zm-3.51-4h-15l-7.08-9.69a8.85,8.85,0,0,1-.76-9.39A8.8,8.8,0,0,1,23,6.17V15a1,1,0,0,0,2,0V6h2V20a1,1,0,0,0,2,0V6h2V26a1,1,0,0,0,2,0V6h2V20a1,1,0,0,0,2,0V6h2v9a1,1,0,0,0,2,0V6.17a8.8,8.8,0,0,1,6.33,4.75,8.85,8.85,0,0,1-.76,9.39Z"/></g></svg>