<svg xmlns="http://www.w3.org/2000/svg" viewBox="0 0 64 64"><g id="Expanded"><path d="M42,4H18a5,5,0,0,0-5,5v3a5,5,0,0,0,5,5h1.18A3,3,0,0,0,19,18v2a3,3,0,0,0,2,2.82v2.33a2.94,2.94,0,0,1-1.62,2.65A16.9,16.9,0,0,0,10.13,41s0,0,0,0v0A18.46,18.46,0,0,0,10,43V55a5,5,0,0,0,5,5H39a5,5,0,0,0,5-5V43a16.92,16.92,0,0,0-1.68-7.35.41.41,0,0,0,0-.09,16.67,16.67,0,0,0-7.61-7.74A3,3,0,0,1,33,25.14V22.82A3,3,0,0,0,35,20V18a3,3,0,0,0-2-2.81l2-1.35a5,5,0,0,1,2-.77V16a5,5,0,0,0,5,5,1,1,0,0,0,1-1V12.82A3,3,0,0,0,45,10V7A3,3,0,0,0,42,4ZM18,6h9V9a1,1,0,0,1-1,1H15V9A3,3,0,0,1,18,6ZM42,55a3,3,0,0,1-3,3H15a3,3,0,0,1-3-3V43c0-.34,0-.67,0-1h2a1,1,0,0,1,1,1v3a3,3,0,0,0,3,3h1a3,3,0,0,0,3-3V45a1,1,0,0,1,1-1h1a1,1,0,0,1,1,1,3,3,0,0,0,3,3h1a3,3,0,0,0,3-3V42a1,1,0,0,1,1-1h1a3,3,0,0,0,3-3,1,1,0,0,1,.31-.71A.93.93,0,0,1,38,37h2.75A15.06,15.06,0,0,1,42,43ZM33.76,29.61a14.72,14.72,0,0,1,3.85,2.78A15.12,15.12,0,0,1,39.68,35H38a3,3,0,0,0-3,3,1,1,0,0,1-1,1H33a3,3,0,0,0-3,3v3a1,1,0,0,1-1,1H28a1,1,0,0,1-.71-.31A.93.93,0,0,1,27,45a3,3,0,0,0-3-3H23a3,3,0,0,0-3,3v1a1,1,0,0,1-1,1H18a1,1,0,0,1-1-1V43a3,3,0,0,0-3-3H12.3a14.94,14.94,0,0,1,8-10.41A4.92,4.92,0,0,0,23,25.15V23h8v2.14A5,5,0,0,0,33.76,29.61ZM33,20a1,1,0,0,1-1,1H22a1,1,0,0,1-1-1V18a1,1,0,0,1,1-1H32a1,1,0,0,1,1,1Zm6-4V13h2v5.83A3,3,0,0,1,39,16Zm4-6a1,1,0,0,1-1,1H37.81a7,7,0,0,0-3.88,1.18L29.7,15H18a3,3,0,0,1-3-3H26a3,3,0,0,0,3-3V6H42a1,1,0,0,1,1,1Zm5-2a1,1,0,0,1,1-1h4a1,1,0,0,1,0,2H49A1,1,0,0,1,48,8Zm5.71,7.29a1,1,0,0,1,0,1.42,1,1,0,0,1-1.42,0l-4-4a1,1,0,0,1,1.42-1.42Z"/></g></svg>