<svg xmlns="http://www.w3.org/2000/svg" viewBox="0 0 64 64"><g id="Expanded"><path d="M55,15H41.76C40.28,11.72,31.6,10,23,10c-9.44,0-19,2.06-19,6V48c0,3.94,9.56,6,19,6,8.6,0,17.28-1.72,18.76-5H55a5,5,0,0,0,5-5V20A5,5,0,0,0,55,15ZM23,12c11,0,17,2.64,17,4,0,.62-1.28,1.52-3.71,2.3C34.3,16,28.43,15,23,15S11.7,16,9.71,18.3C7.28,17.52,6,16.62,6,16,6,14.64,12,12,23,12Zm10.91,6.94A51.05,51.05,0,0,1,23,20a51.05,51.05,0,0,1-10.91-1.06C13.85,18,17.68,17,23,17S32.15,18,33.91,18.94ZM23,52C12,52,6,49.36,6,48V18.82A14.94,14.94,0,0,0,9.7,20.4l0,0h.08A50.11,50.11,0,0,0,23,22a50.11,50.11,0,0,0,13.19-1.57h.08l0,0A14.94,14.94,0,0,0,40,18.82V48C40,49.36,34,52,23,52Zm35-8a3,3,0,0,1-3,3H42V17H55a3,3,0,0,1,3,3ZM54,28v2a1,1,0,0,1-2,0V28a1,1,0,1,1,2,0Zm0-6v2a1,1,0,0,1-2,0V22a1,1,0,1,1,2,0Zm0,12v2a1,1,0,0,1-2,0V34a1,1,0,0,1,2,0Zm0,6v2a1,1,0,0,1-2,0V40a1,1,0,0,1,2,0ZM10,26V42a1,1,0,0,1-2,0V26a1,1,0,0,1,2,0Z"/></g></svg>