<svg xmlns="http://www.w3.org/2000/svg" viewBox="0 0 64 64"><g id="Expanded"><path d="M53,10H51V9a5,5,0,0,0-5-5H18a5,5,0,0,0-5,5v1H11a4,4,0,0,0,0,8h2V55a5,5,0,0,0,5,5H38a5,5,0,0,0,5-5V48h3a5,5,0,0,0,5-5V18h2a4,4,0,0,0,0-8ZM49,9v1H43V9a3,3,0,1,1,6,0ZM15,39H41v2H15ZM15,9a3,3,0,0,1,3-3H42a4.92,4.92,0,0,0-1,3V37H15Zm-4,7a2,2,0,0,1-2-2,2,2,0,0,1,2-2h2v4ZM41,55a3,3,0,0,1-3,3H18a3,3,0,0,1-3-3V43H41V55Zm8-12a3,3,0,0,1-3,3H43V18h6Zm5.41-27.59A2,2,0,0,1,53,16H43V12H53a2,2,0,0,1,2,2A2,2,0,0,1,54.41,15.41ZM39,50v3a3,3,0,0,1-3,3H30a1,1,0,0,1,0-2h6a1,1,0,0,0,1-1V50a1,1,0,1,1,2,0Z"/></g></svg>