<svg xmlns="http://www.w3.org/2000/svg" viewBox="0 0 64 64"><g id="Expanded"><path d="M60,36a4,4,0,0,0-4-4H28a4,4,0,0,0-1,7.86V43a7,7,0,0,0,6.2,7,3.06,3.06,0,0,0-.2,1,3,3,0,0,0,3,3H48a3,3,0,0,0,3-3,3.06,3.06,0,0,0-.2-1A7,7,0,0,0,57,43V39.86A4,4,0,0,0,60,36ZM48,52H36a1,1,0,0,1,0-2H48a1,1,0,0,1,0,2Zm7-9a5,5,0,0,1-5,5H34a5,5,0,0,1-4.9-4H44a1,1,0,0,0,0-2H29V40H55Zm1-5H28a2,2,0,0,1,0-4H56a2,2,0,0,1,0,4ZM27,18a3,3,0,0,0,.9,2.15A2.93,2.93,0,0,0,30,21a1,1,0,0,1,1,1v1a3,3,0,0,0,.9,2.15A2.9,2.9,0,0,0,34,26a1,1,0,0,1,.72.31A.93.93,0,0,1,35,27a3,3,0,0,0,3,3h1a3,3,0,0,0,3-3V26a1,1,0,0,1,1-1h1a3,3,0,0,0,3-3V21a1,1,0,0,1,1-1h1a3,3,0,0,0,3-3,1,1,0,0,1,1-1,3,3,0,0,0,3-3.26A3.07,3.07,0,0,0,52.89,10H7a3,3,0,0,0-2.11.87A3,3,0,0,0,4,13.26,3.07,3.07,0,0,0,7.11,16H27Zm2-6H52.89a1.09,1.09,0,0,1,1.11.91,1,1,0,0,1-.31.8A.93.93,0,0,1,53,14a3,3,0,0,0-3,3,1,1,0,0,1-1,1H48a3,3,0,0,0-3,3v1a1,1,0,0,1-1,1H43a3,3,0,0,0-3,3v1a1,1,0,0,1-1,1H38a1,1,0,0,1-.71-.31A.93.93,0,0,1,37,27a3,3,0,0,0-3-3h0a1,1,0,0,1-.66-.27A1,1,0,0,1,33,23V22a3,3,0,0,0-.87-2.11A3,3,0,0,0,30,19a.9.9,0,0,1-.66-.27A1,1,0,0,1,29,18ZM7.11,14A1.09,1.09,0,0,1,6,13.09a1,1,0,0,1,.31-.8A.93.93,0,0,1,7,12H27v2Z"/></g></svg>