<svg id="Layer_1" enable-background="new 0 0 512.532 512.532" height="512" viewBox="0 0 512.532 512.532" width="512" xmlns="http://www.w3.org/2000/svg"><g><path d="m313.003 361.954c-9.285 0-16.839 7.554-16.839 16.839.846 22.308 32.835 22.302 33.678 0 0-9.285-7.554-16.839-16.839-16.839z"/><path d="m200.033 361.954c-9.285 0-16.839 7.554-16.839 16.839.846 22.308 32.835 22.302 33.678 0 0-9.285-7.553-16.839-16.839-16.839z"/><path d="m407.747 134.019c-4.751 0-8.603 3.852-8.603 8.603v23.942h53.533v-23.942c0-4.751-3.852-8.603-8.603-8.603z"/><path d="m14.905 30.086h56.201v73.934h30v-73.934h309.805v73.934h30v-73.934h56.705c19.881-.738 19.866-29.269 0-30h-482.711c-19.881.738-19.866 29.269 0 30z"/><path d="m67.943 134.019c-4.751 0-8.603 3.852-8.603 8.603v23.942h53.533v-23.942c0-4.751-3.852-8.603-8.603-8.603z"/><path d="m483.909 196.565h-117.019c-22.209-37.867-63.335-63.298-110.406-63.298-47.071 0-88.197 25.431-110.406 63.298h-116.466c-15.808 0-29.08 12.815-29.08 28.623v195.337c0 15.808 13.272 28.623 29.08 28.623h116.465c22.209 37.867 63.335 63.298 110.406 63.298 47.071 0 88.197-25.431 110.406-63.298h117.019c15.808 0 28.623-12.815 28.623-28.623v-195.337c.001-15.808-12.814-28.623-28.622-28.623zm-421.447 208.101c-8.551 0-15.482-6.932-15.482-15.482.759-20.515 30.209-20.509 30.965 0-.001 8.55-6.932 15.482-15.483 15.482zm0-133.697c-8.551 0-15.482-6.932-15.482-15.482.759-20.515 30.209-20.509 30.965 0-.001 8.551-6.932 15.482-15.483 15.482zm250.541 154.663c-24.575 0-44.775-19.027-46.678-43.122l-9.807-20.668-9.807 20.668c-6.481 59.211-91.641 56.063-93.517-3.718-.134-40.587 49.042-61.884 78.456-34.522l8.265-17.419-47.862-100.868c-3.551-7.484-.363-16.431 7.122-19.982s16.431-.363 19.982 7.122l37.361 78.738 37.361-78.738c3.551-7.484 12.498-10.672 19.982-7.122 7.484 3.551 10.673 12.498 7.122 19.982l-47.862 100.868 8.265 17.419c29.426-27.363 78.59-6.061 78.456 34.524 0 25.826-21.012 46.838-46.839 46.838zm138.704-20.966c-8.551 0-15.482-6.932-15.482-15.482.759-20.515 30.209-20.509 30.965 0-.001 8.55-6.932 15.482-15.483 15.482zm0-133.697c-8.551 0-15.482-6.932-15.482-15.482.759-20.515 30.209-20.509 30.965 0-.001 8.551-6.932 15.482-15.483 15.482z"/></g></svg>