<svg id="Layer_1" enable-background="new 0 0 512 512" height="512" viewBox="0 0 512 512" width="512" xmlns="http://www.w3.org/2000/svg"><g><path d="m295.812 128.964 73.16 61.455h46.681l-101.68-85.413c-4.052 9.39-10.328 17.597-18.161 23.958z"/><path d="m256.384 112.935c18.065 0 32.71-14.666 32.71-32.757-1.604-43.404-63.822-43.393-65.42 0 0 18.091 14.645 32.757 32.71 32.757z"/><path d="m217.139 129.109c-7.86-6.335-14.167-14.522-18.253-23.899l-99.401 85.21h46.132z"/><path d="m308.852 45.845 20.453-19.814c5.954-5.768 6.112-15.278.352-21.241s-15.256-6.121-21.21-.353l-21.568 20.894c8.873 4.968 16.418 12.029 21.973 20.514z"/><path d="m204.084 45.581c5.597-8.458 13.179-15.485 22.081-20.409l-21.601-20.926c-5.955-5.768-15.451-5.611-21.21.353-5.76 5.963-5.602 15.473.352 21.241z"/><path d="m199.388 326.32h-11.312v35.918l11.554-.156c23.471-1.236 23.263-34.881-.242-35.762z"/><path d="m81.691 326.32c-8.542 0-15.467 6.934-15.467 15.489v48.824c0 8.554 6.925 15.489 15.466 15.489 8.542 0 15.466-6.934 15.466-15.489v-48.824c.001-8.555-6.923-15.489-15.465-15.489z"/><path d="m481.055 220.462h-450.11c-17.091 0-30.945 13.874-30.945 30.989v229.538c0 17.115 13.855 30.989 30.945 30.989h450.11c17.091 0 30.945-13.874 30.945-30.989v-229.538c0-17.114-13.855-30.989-30.945-30.989zm-353.898 170.17c0 25.146-20.356 45.532-45.466 45.532-25.11 0-45.466-20.385-45.466-45.532v-48.824c0-25.146 20.356-45.532 45.466-45.532 25.11 0 45.466 20.385 45.466 45.532zm72.878 1.489-11.959.162v28.859c-.738 19.909-29.269 19.894-30 0v-109.844c0-8.296 6.716-15.021 15-15.021h26.312c63.044 2.383 63.507 92.557.647 95.844zm121.15-40.985c19.881.739 19.866 29.311 0 30.043h-13.024v24.75h27.814c19.881.739 19.866 29.311 0 30.043h-42.814c-8.284 0-15-6.725-15-15.021v-109.46c0-8.296 6.716-15.021 15-15.021h42.814c19.881.739 19.866 29.311 0 30.043h-27.814v24.624h13.024zm154.456 68.993c0 6.768-4.52 12.7-11.038 14.488-6.398 1.785-13.431-.976-16.869-6.834l-35.841-60.618v52.964c-.738 19.909-29.269 19.894-30 0v-107.817c0-6.768 4.52-12.7 11.038-14.488 6.521-1.788 13.426 1.012 16.869 6.834l35.841 60.618v-52.964c.738-19.909 29.269-19.894 30 0z"/></g></svg>