<svg id="Layer_1" enable-background="new 0 0 512 512" height="512" viewBox="0 0 512 512" width="512" xmlns="http://www.w3.org/2000/svg"><g><path d="m256 71.694c-81.763 0-148.282 66.881-148.282 149.089 7.467 197.52 289.127 197.466 296.564-.002 0-82.206-66.519-149.087-148.282-149.087zm49.558 242.758c-22.412 0-40.857-17.359-42.761-39.404l-6.797-14.401-6.796 14.401c-6.321 54.315-84.003 51.127-85.695-3.764-.319-36.026 42.719-56.412 70.047-33.44l5.841-12.377-41.617-88.187c-3.551-7.525-.363-16.52 7.122-20.091 7.484-3.572 16.431-.365 19.982 7.16l31.116 65.936 31.117-65.936c3.552-7.525 12.495-10.731 19.982-7.16 7.484 3.571 10.673 12.566 7.121 20.091l-41.618 88.187 5.841 12.378c27.339-22.971 70.365-2.585 70.047 33.442.001 23.8-19.258 43.165-42.932 43.165z"/><path d="m305.558 258.28c-7.132 0-12.935 5.834-12.935 13.004.652 17.229 25.22 17.225 25.868 0 0-7.17-5.801-13.004-12.933-13.004z"/><path d="m206.443 258.28c-7.132 0-12.934 5.834-12.934 13.004.651 17.229 25.219 17.224 25.868 0 0-7.17-5.802-13.004-12.934-13.004z"/><path d="m256.021 0c-120.122 0-217.501 97.908-217.501 218.685 0 0-8.247 184.248 204.605 290.55 7.313 3.652 15.913 3.694 23.243.078 45.473-22.427 207.154-114.546 207.154-290.629 0-120.776-97.378-218.684-217.501-218.684zm-.021 400.035c-98.305 0-178.282-80.412-178.282-179.252 8.978-237.481 347.622-237.417 356.564.002 0 98.838-79.977 179.25-178.282 179.25z"/></g></svg>