<svg id="Layer_1" enable-background="new 0 0 511.063 511.063" height="512" viewBox="0 0 511.063 511.063" width="512" xmlns="http://www.w3.org/2000/svg"><g><path d="m232.516 326.899 153.306-146.543h-70.952l-82.354 83.803z"/><path d="m232.516 221.359 40.293-41.003h-40.293z"/><path d="m425.496 285.546-45.482 44.929h45.482z"/><path d="m425.496 183.933-153.306 146.542h65.136l88.17-87.097z"/><path d="m441.689 106.006h-225.366c-4.949 0-8.961 4.012-8.961 8.961v26.429c0 4.949 4.012 8.961 8.961 8.961h225.367c4.949 0 8.961-4.012 8.961-8.961v-26.429c-.001-4.949-4.013-8.961-8.962-8.961z"/><path d="m329.006 511.063c45.929 0 84.124-32.697 92.104-76.237h-184.208c7.98 43.54 46.175 76.237 92.104 76.237z"/><path d="m126.215 16.208c0-8.693-7.047-15.74-15.74-15.74h-34.322c-8.693 0-15.74 7.047-15.74 15.74v479.114c0 8.693 7.047 15.74 15.74 15.74h34.321c8.693 0 15.74-7.047 15.74-15.74v-97.672h51.147v-30h-51.147v-227.307h51.147v-30h-51.147v-94.135z"/><path d="m329.006 0c-45.847 0-83.99 32.581-92.063 76.006h184.127c-8.074-43.425-46.217-76.006-92.064-76.006z"/><path d="m441.689 360.475h-225.366c-4.949 0-8.961 4.012-8.961 8.961v26.429c0 4.949 4.012 8.961 8.961 8.961h225.367c4.949 0 8.961-4.012 8.961-8.961v-26.429c-.001-4.949-4.013-8.961-8.962-8.961z"/></g></svg>