<svg id="Layer_1" enable-background="new 0 0 512.005 512.005" height="512" viewBox="0 0 512.005 512.005" width="512" xmlns="http://www.w3.org/2000/svg"><g><path d="m233.811 255.525c0 12.237 9.955 22.191 22.192 22.191 29.4-1.115 29.392-43.272 0-44.383-12.237 0-22.192 9.955-22.192 22.192z"/><path d="m456.374 33.02h-53.241c-5.909 0-10.699 4.79-10.699 10.699v2.122c-2.326 46.95-67.987 47.652-70.246.638l-.006-35.782c-.001-5.908-4.79-10.697-10.698-10.697h-114.209c-5.909 0-10.699 4.79-10.699 10.699v35.78c0 19.398-15.725 35.123-35.123 35.123-19.398 0-35.123-15.725-35.123-35.123v-2.76c0-5.909-4.79-10.699-10.699-10.699h-49.999c-5.909 0-10.699 4.79-10.699 10.699v422.684c0 5.909 4.79 10.699 10.699 10.699h49.997c5.909 0 10.699-4.79 10.699-10.699v-3.501c2.326-46.95 67.987-47.653 70.246-.638l.003 39.043c0 5.908 4.79 10.698 10.699 10.698h114.208c5.908 0 10.698-4.79 10.699-10.698l.003-39.043c2.278-47.054 67.939-46.272 70.246.638v5.076c0 5.038 4.084 9.123 9.123 9.123h54.821c5.909 0 10.699-4.79 10.699-10.699v-422.683c-.003-5.909-4.793-10.699-10.701-10.699zm-328.611 332.161c-.738 19.89-29.283 19.875-30.014 0v-218.117c.738-19.89 29.283-19.875 30.014 0zm180.445-109.656c0 23.571-15.705 43.533-37.199 49.997v34.066h23.643c19.89.738 19.875 29.283 0 30.014h-23.642v64.043c-.738 19.89-29.283 19.875-30.014 0v-64.043h-23.643c-19.89-.738-19.875-29.283 0-30.014h23.643v-34.066c-49.303-15.14-49.271-84.872 0-99.994v-32.87h-23.643c-19.89-.738-19.875-29.283 0-30.014h23.643v-69.363c.738-19.89 29.283-19.875 30.014 0v69.364h23.643c19.89.738 19.875 29.283 0 30.014h-23.643v32.87c21.493 6.462 37.198 26.425 37.198 49.996zm106.048 109.656c-.738 19.89-29.283 19.875-30.014 0v-218.117c.738-19.89 29.283-19.875 30.014 0z"/></g></svg>