<svg id="Layer_1" enable-background="new 0 0 511.87 511.87" height="512" viewBox="0 0 511.87 511.87" width="512" xmlns="http://www.w3.org/2000/svg"><g><path d="m140.006 163.363c13.691 0 24.83-11.139 24.83-24.83v-28.441h-49.66v28.441c0 13.692 11.139 24.83 24.83 24.83z"/><path d="m274.495 110.092v28.441c.959 31.406 45.538 33.453 49.536 2.488-.039-.884-.058-1.773-.055-2.665l.116-28.265h-49.597z"/><path d="m71.935 359.431-41.44 34.79h34.857c3.636 0 6.583-2.947 6.583-6.583z"/><path d="m354.099 141.032c.561 5.668 3.039 10.934 7.122 15.03 4.693 4.708 10.938 7.301 17.586 7.301h.179c13.691 0 24.83-11.139 24.83-24.83v-28.441h-49.66v28.441c-.001.838-.02 1.671-.057 2.499z"/><path d="m458.645 163.363c13.691 0 24.83-11.139 24.83-24.83v-28.441h-49.66v28.441c0 13.692 11.139 24.83 24.83 24.83z"/><path d="m455.521 0h-392.051c-8.226 0-15.487 5.371-17.895 13.237l-20.467 66.855h468.775l-20.467-66.855c-2.408-7.866-9.67-13.237-17.895-13.237z"/><path d="m219.665 163.363c13.691 0 24.83-11.139 24.83-24.83v-28.441h-49.66v28.441c.001 13.692 11.139 24.83 24.83 24.83z"/><path d="m71.935 287.152-56.096 47.094v33.108l56.096-47.093z"/><path d="m15.839 265.591v29.485l41.44-34.79h-36.134c-2.931 0-5.306 2.375-5.306 5.305z"/><path d="m60.346 163.363c13.691 0 24.83-11.139 24.83-24.83v-28.441h-49.66v28.441c0 13.692 11.139 24.83 24.83 24.83z"/><path d="m490.411 481.87h-16.063v-290.81c-19.365 6.181-42.412-.409-55.533-14.882-10.002 10.578-24.158 17.186-39.83 17.186h-.179c-14.679 0-28.47-5.726-38.833-16.122-.312-.313-.622-.631-.925-.95-20.556 22.619-59.071 22.556-79.553-.113-20.531 22.723-59.135 22.716-79.66 0-20.531 22.722-59.135 22.716-79.66 0-13.278 14.677-36.787 21.197-56.281 14.661l.148 39.447h42.891c8.284 0 15 6.716 15 15v163.936c0 8.284-6.716 15-15 15h-42.295v57.648h-23.179c-19.881.738-19.866 29.269 0 30h468.952c19.881-.739 19.866-29.271 0-30.001zm-326.378-253.647h190.925c19.881.738 19.866 29.269 0 30h-190.925c-19.881-.738-19.866-29.27 0-30zm-15 76.631c0-8.284 6.716-15 15-15h190.925c8.284 0 15 6.716 15 15v177.016h-30v-162.016h-65.462v162.016h-30v-162.016h-65.462v162.016h-30v-177.016z"/></g></svg>