<svg id="Layer_1" enable-background="new 0 0 512 512" height="512" viewBox="0 0 512 512" width="512" xmlns="http://www.w3.org/2000/svg"><g><path d="m0 314.663c0 40.591 32.906 73.497 73.497 73.497 3.154 0 5.712-2.557 5.712-5.712v-94.206h-79.209z"/><path d="m117.69 356.667c.738 19.881 29.269 19.866 30 0v-68.425h-30z"/><path d="m0 223.439h512v34.803h-512z"/><path d="m442.402 123.841h-372.804c-38.438 0-69.598 31.16-69.598 69.598h512c0-38.438-31.16-69.598-69.598-69.598z"/><path d="m302.655 356.667c.738 19.881 29.269 19.866 30 0v-68.425h-30z"/><path d="m432.792 382.448c0 3.155 2.557 5.712 5.712 5.712 40.591 0 73.496-32.906 73.496-73.496v-26.421h-79.208z"/><path d="m364.31 356.667c.738 19.881 29.269 19.866 30 0v-68.425h-30z"/><path d="m179.345 356.667c.738 19.881 29.269 19.866 30 0v-68.425h-30z"/><path d="m241 356.667c.738 19.881 29.269 19.866 30 0v-68.425h-30z"/></g></svg>