<svg id="Layer_1" enable-background="new 0 0 512.102 512.102" height="512" viewBox="0 0 512.102 512.102" width="512" xmlns="http://www.w3.org/2000/svg"><g><path d="m283.389 18.453c-.076.236-.136.474-.223.708l-63.312 170.375 31.465 9.482c7.595 2.289 15.656-1.75 18.37-9.203l51.498-141.422c2.811-7.719-1.13-16.26-8.826-19.132z"/></g><g><path d="m17.605 452.438-17.041 47.638c-2.096 5.859 2.247 12.026 8.47 12.026h9.952c23.921 0 45.55-13.573 56.197-34.645l3.139-8.447h-10.784c-18.7 0-35.985-6.167-49.933-16.572z"/><path d="m458.736 331.639h-56.377v107.371h56.377c71.14-2.708 71.086-104.688 0-107.371zm2.036 68.686c-8.284 0-15-6.716-15-15 .735-19.876 29.268-19.87 30 0 0 8.284-6.716 15-15 15z"/><path d="m10.853 385.325c0 29.602 24.083 53.685 53.685 53.685h62.707v-107.371h-62.707c-29.602 0-53.685 24.084-53.685 53.686zm69.799 0c0 8.284-6.716 15-15 15-19.876-.735-19.87-29.268 0-30 8.284 0 15 6.715 15 15z"/><path d="m249.908 7.368-14.451-5.391c-18.792-6.447-39.267 3.379-46.086 22.115l-112.077 277.547h58.224l114.119-293.64c.081-.217.182-.419.271-.631z"/><path d="m157.244 331.639h215.115v107.371h-215.115z"/></g></svg>