<svg id="Layer_1" enable-background="new 0 0 512.223 512.223" height="512" viewBox="0 0 512.223 512.223" width="512" xmlns="http://www.w3.org/2000/svg"><g><path d="m272.968 72.043c-25.342 39.181-38.629 74.118-45.587 99.423l111.914 111.611c40.334-11.95 73.794-28.402 100.365-44.878-42.455-86.227-116.773-142.495-166.692-166.156z"/><path d="m509.765 161.317c-28.447-57.981-102.43-130.715-160.222-158.763-8.276-4.382-18.483-2.77-24.912 4.039-12.756 13.509-23.96 26.877-33.804 39.929 61.205 31.099 129.112 86.381 174.534 174.313 18.825-13.834 32.447-26.485 40.85-35.012 6.42-6.515 7.85-16.43 3.554-24.506z"/><path d="m213.846 201.574c-5.46-5.445-14.297-5.445-19.757 0l-8.824 8.8c-10.624 10.595-10.624 27.804 0 38.399l78.733 78.52c10.632 10.603 27.871 10.603 38.503 0l8.771-8.747c5.481-5.466 5.481-14.344 0-19.811z"/><path d="m55.019 373.695c-11.308-11.277-29.641-11.277-40.949 0l-9.958 9.932c-5.481 5.466-5.481 14.344 0 19.811l104.874 104.59c5.46 5.445 14.297 5.445 19.757 0l10.012-9.985c11.299-11.268 11.299-29.57 0-40.838z"/><path d="m163.461 270.636c-2.432-2.425-4.607-5.036-6.543-7.786-24.874 13.484-63.149 39.81-87.033 83.04 2.436 1.789 4.757 3.769 6.937 5.943l83.735 83.509c2.184 2.178 4.174 4.498 5.972 6.934 43.317-23.809 69.705-61.951 83.232-86.765-2.668-1.888-5.205-4-7.566-6.355z"/></g></svg>