<svg id="Layer_1" enable-background="new 0 0 512.114 512.114" height="512" viewBox="0 0 512.114 512.114" width="512" xmlns="http://www.w3.org/2000/svg"><g><path d="m398.75 0h-23v106.211h4.591c17.834 0 32.292-14.458 32.292-32.292v-60.036c-.001-7.667-6.216-13.883-13.883-13.883z"/><path d="m99.482 13.883v60.037c0 17.834 14.457 32.291 32.291 32.291h4.591v-106.211h-23c-7.666 0-13.882 6.216-13.882 13.883z"/><path d="m218.248 239.769c.026 0 .05-.004.076-.004h75.467v-34.042h-75.543z"/><path d="m218.248 269.761v204.582c0 20.861 16.911 37.771 37.771 37.771 20.86 0 37.771-16.911 37.771-37.771v-204.578h-75.467c-.025 0-.05-.004-.075-.004z"/><path d="m166.365 68.106h179.385v38.105h-179.385z"/><path d="m211.194 175.723h89.658l43.416-39.512h-176.44z"/><path d="m166.365 0h179.385v38.106h-179.385z"/></g></svg>