<svg id="Layer_1" enable-background="new 0 0 511.577 511.577" height="512" viewBox="0 0 511.577 511.577" width="512" xmlns="http://www.w3.org/2000/svg"><g><path d="m470.957 97.147c-8.284 0-15 6.716-15 15v40.364h-28.027v30h28.028v22.962c0 105.328-81.775 191.911-185.169 199.608v-27.761c-9.912.868-20.088.868-30 0v27.761c-103.394-7.696-185.169-94.28-185.169-199.608v-22.962h28.027v-30h-28.028v-40.364c-.738-19.881-29.269-19.866-30 0v93.326c-2.399 118.112 97.454 224.399 215.169 229.675v46.429h-57.167c-19.881.738-19.866 29.269 0 30h144.333c19.881-.738 19.866-29.269 0-30h-57.166v-46.429c117.72-5.277 217.566-111.565 215.169-229.675v-93.326c0-8.284-6.715-15-15-15z"/><path d="m255.788 347.974c78.503 0 142.142-63.639 142.142-142.141v-63.692c0-78.502-63.639-142.141-142.142-142.141-78.502 0-142.141 63.639-142.141 142.141v63.692c0 78.502 63.639 142.141 142.141 142.141zm-10.945-93.33c-.64 5.741-5.204 12.77-13.45 13.45-7.21.774-16.673-4.919-16.47-14.93-.033-5.721 4.526-13.892 13.52-14.92 7.152-.608 17.502 5.609 16.4 16.4zm81.658-67.429-44.383 44.383c-14.647 13.507-34.714-6.582-21.213-21.213l44.383-44.383c5.858-5.858 15.355-5.857 21.213 0 5.858 5.858 5.858 15.356 0 21.213zm-141.426 14.783 110.405-110.405c5.857-5.858 15.355-5.858 21.213 0s5.858 15.355 0 21.213l-110.405 110.404c-5.857 5.858-15.356 5.858-21.213 0-5.857-5.857-5.857-15.355 0-21.212z"/></g></svg>