<svg id="Layer_1" enable-background="new 0 0 511.82 511.82" height="512" viewBox="0 0 511.82 511.82" width="512" xmlns="http://www.w3.org/2000/svg"><g><path d="m446.53 86.309 19.092-19.025c5.868-5.848 5.885-15.345.038-21.213-5.849-5.869-15.346-5.885-21.213-.038l-19.167 19.1z"/><path d="m453.943 161.669c-9.928 9.752-22.919 14.623-35.905 14.624-13.111.001-26.216-4.963-36.172-14.885l-32.142-32.028c-19.88-19.006-19.879-53.23 0-72.235l11.686-11.559c-14.887-8.727-34.402-6.73-47.169 5.993l-38.453 38.317c-5.188 5.169-5.188 13.57 0 18.739l127.152 126.704c5.162 5.144 13.511 5.144 18.673 0l38.594-38.458c12.428-11.967 14.936-32.333 5.966-46.946z"/><path d="m403.042 140.158c8.227 8.198 21.646 8.232 29.914.074.05-.049.1-.098.15-.146l12.681-12.166-62.247-62.027-12.679 12.542c-8.146 7.793-8.14 21.894.039 29.695z"/><path d="m507.499 87.763c-5.819-5.898-15.316-5.961-21.213-.144l-19.316 19.057 14.415 14.364c2.307 2.299 4.421 4.739 6.354 7.29l19.618-19.354c5.895-5.819 5.959-15.316.142-21.213z"/><path d="m82.005 362.044-22.053 21.976c-9.257 9.224-9.257 24.179 0 33.403l6.728 6.704-62.268 62.048c-5.868 5.848-5.885 15.345-.038 21.213 5.848 5.869 15.346 5.884 21.213.038l62.342-62.123 5.091 5.073c9.257 9.224 24.265 9.224 33.521 0l22.064-21.986c-15.01-5.034-29.108-13.492-41.045-25.387-11.75-11.71-20.402-25.693-25.555-40.959z"/><path d="m404.745 44.671 19.092-19.025c5.868-5.848 5.885-15.345.038-21.213-5.849-5.869-15.346-5.885-21.213-.037l-19.66 19.59c2.56 1.917 5.021 4.022 7.349 6.342z"/><path d="m226.092 270.347c-3.487 0-6.972 1.322-9.626 3.967l-5.756 5.736 19.189 19.121 5.82-5.8c5.242-5.01 5.241-14.048 0-19.058-2.654-2.643-6.141-3.966-9.627-3.966z"/><path d="m183.639 307.026c-5.241 5.009-5.241 14.048 0 19.057 5.309 5.289 13.945 5.29 19.252 0l5.757-5.736-19.189-19.121z"/><path d="m128.737 274.493c-29.496 28.196-29.496 79.064.001 107.259 29.717 29.614 78.071 29.613 107.787 0l135.423-134.945-107.714-107.335zm159.767-66.731c8.284 0 15 6.716 15 15-.735 19.876-29.268 19.87-30 0 0-8.284 6.716-15 15-15zm-31.609 106.86-32.828 32.712c-16.985 16.923-44.621 16.927-61.604 0-16.929-16.182-16.929-45.378 0-61.559l32.827-32.711c16.984-16.925 44.62-16.924 61.604 0 8.242 8.213 12.781 19.145 12.781 30.78s-4.539 22.566-12.78 30.778z"/></g></svg>