<svg id="Layer_1" enable-background="new 0 0 511.86 511.86" height="512" viewBox="0 0 511.86 511.86" width="512" xmlns="http://www.w3.org/2000/svg"><g><path d="m72.868 376.244-27.405 27.314c-8.586 8.556-8.586 22.427 0 30.983l5.536 5.516-46.409 46.169c-5.873 5.843-5.897 15.34-.055 21.213 5.844 5.874 15.342 5.897 21.213.055l46.501-46.261 3.887 3.873c8.586 8.556 22.507 8.556 31.093 0l27.488-27.395c-13.024-6.381-25.23-14.961-36.05-25.743-10.645-10.606-19.302-22.665-25.799-35.724z"/><path d="m203.837 287.172-5.756 5.736 19.189 19.121 5.82-5.8c5.241-5.009 5.241-14.048 0-19.057-5.307-5.288-13.945-5.289-19.253 0z"/><path d="m171.009 319.884c-5.241 5.01-5.24 14.048 0 19.058 5.308 5.289 13.945 5.289 19.253 0l5.756-5.736-19.189-19.121z"/><path d="m328.196 268.011c-92.649-1.679-114.363-127.291-29.294-160.684-7.101-8.189-12.626-17.77-16.106-28.282-.005.005-.01.01-.014.015l-162.939 162.385c-20.01 19.94-31.03 46.446-31.029 74.637-.71 93.26 115.521 140.786 180.979 74.636l164.297-163.745c-10.123-3.194-19.411-8.281-27.454-14.842-11.273 32.486-42.167 55.88-78.44 55.88zm-83.931 59.469-32.827 32.712c-16.985 16.924-44.62 16.924-61.604 0-16.929-16.181-16.927-45.376 0-61.558l32.828-32.712c16.984-16.925 44.62-16.925 61.604 0 16.928 16.182 16.927 45.378-.001 61.558z"/><path d="m361.614 106.038c14.287 0 27.262-5.69 36.806-14.911.817-.873 1.648-1.731 2.502-2.569 30.65-33.38 6.468-88.717-39.309-88.558-70.237 2.663-70.224 103.382.001 106.038zm-.001-68.019c8.284 0 15 6.716 15 15-.735 19.876-29.268 19.87-30 0 0-8.284 6.716-15 15-15z"/><path d="m275.177 184.992c0 29.235 23.784 53.019 53.019 53.019 70.239-2.666 70.221-103.383-.001-106.038-29.234.001-53.018 23.785-53.018 53.019zm68.019 0c0 8.284-6.716 15-15 15-19.876-.735-19.87-29.268 0-30 8.284 0 15 6.716 15 15z"/><path d="m459.019 94.766c-14.287 0-27.262 5.69-36.806 14.911-.817.873-1.648 1.731-2.502 2.569-30.65 33.38-6.468 88.717 39.309 88.557 70.236-2.663 70.222-103.382-.001-106.037zm0 68.018c-8.284 0-15-6.716-15-15 .735-19.876 29.268-19.87 30 0 0 8.285-6.716 15-15 15z"/></g></svg>