<svg id="Layer_1" enable-background="new 0 0 512 512" height="512" viewBox="0 0 512 512" width="512" xmlns="http://www.w3.org/2000/svg"><g><path d="m412.925 73.255h19.719c4.362 0 7.897-3.532 7.897-7.889v-57.477c0-4.357-3.536-7.889-7.897-7.889h-19.719c-4.362 0-7.897 3.532-7.897 7.889v57.478c0 4.356 3.536 7.888 7.897 7.888z"/><path d="m431.607 428.637c-3.13 0-5.667 2.534-5.667 5.661v57.049l64.22-62.71z"/><path d="m493.141 512c10.415 0 18.859-8.434 18.859-18.838v-43.872l-64.219 62.71z"/><path d="m246.14 73.255h19.719c4.362 0 7.897-3.532 7.897-7.889v-57.477c0-4.357-3.536-7.889-7.897-7.889h-19.719c-4.362 0-7.897 3.532-7.897 7.889v57.478c0 4.356 3.536 7.888 7.897 7.888z"/><path d="m493.141 45.39h-22.547v42.875c0 8.29-6.727 15.01-15.026 15.01h-65.567c-8.299 0-15.026-6.72-15.026-15.01v-36.447h-71.165v36.448c0 8.29-6.727 15.01-15.026 15.01h-65.567c-8.299 0-15.026-6.72-15.026-15.01v-36.448h-69.892v36.448c0 8.29-6.727 15.01-15.026 15.01h-65.567c-8.299 0-15.026-6.72-15.026-15.01v-42.876h-23.821c-10.416 0-18.859 8.434-18.859 18.838v80.967h512v-80.967c0-10.404-8.443-18.838-18.859-18.838z"/><path d="m194.599 297.59c10.85 0 19.678-8.818 19.678-19.657-.989-26.042-38.37-26.035-39.356 0 0 10.839 8.828 19.657 19.678 19.657z"/><path d="m80.63 73.255h19.719c4.362 0 7.897-3.532 7.897-7.889v-57.477c0-4.357-3.536-7.889-7.897-7.889h-19.719c-4.362 0-7.897 3.532-7.897 7.889v57.478c-.001 4.356 3.535 7.888 7.897 7.888z"/><path d="m0 493.162c0 10.404 8.443 18.838 18.859 18.838h377.029v-98.373c0-8.29 6.727-15.01 15.026-15.01h101.086v-223.402h-512zm194.599-264.906c26.174 0 47.674 20.307 49.578 45.976l11.991 25.243 11.991-25.243c6.611-62.985 97.298-59.844 99.309 3.702.104 43.946-53.842 66.078-84.605 35.371l-10.063 21.183 52.439 110.395c3.558 7.489.364 16.442-7.134 19.995-7.326 3.522-16.449.44-20.017-7.126l-41.92-88.25-41.919 88.25c-3.567 7.566-12.692 10.648-20.017 7.126-7.497-3.554-10.691-12.506-7.134-19.995l52.438-110.394-10.062-21.184c-30.777 30.709-84.708 8.571-84.604-35.372-.001-27.392 22.308-49.677 49.729-49.677z"/><path d="m317.736 297.59c10.851 0 19.679-8.818 19.679-19.657-.989-26.041-38.371-26.035-39.357 0 0 10.839 8.828 19.657 19.678 19.657z"/></g></svg>