<svg id="Layer_1" enable-background="new 0 0 512 512" height="512" viewBox="0 0 512 512" width="512" xmlns="http://www.w3.org/2000/svg"><g><path d="m113.31 353.946c-.219-.219-.414-.453-.616-.682l-99.277 93.298c-14.97 14.97-14.97 39.241 0 54.21 14.97 14.97 39.241 14.97 54.21 0l91.973-100.631c-.337-.283-.669-.575-.987-.892z"/><path d="m134.547 332.726 45.282 45.282 28.307-30.972-43.029-43.029z"/><path d="m440.273 214.739-21.228 21.228 16.558 16.559c5.862 5.863 15.366 5.862 21.228 0 5.863-5.862 5.863-15.366 0-21.228z"/><path d="m176.678 187.932 21.228-21.228-16.559-16.559c-5.861-5.862-15.366-5.863-21.228 0-5.863 5.862-5.863 15.366 0 21.228z"/><path d="m505.414 182.715-16.559-16.559-21.228 21.228 16.559 16.559c5.862 5.862 15.367 5.862 21.229 0s5.862-15.366-.001-21.228z"/><path d="m343.107 311.905-21.228 21.228 16.558 16.558c5.862 5.863 15.367 5.862 21.228 0 5.863-5.862 5.863-15.367 0-21.228z"/><path d="m391.69 263.322-21.228 21.228 16.559 16.558c5.861 5.862 15.367 5.862 21.228 0 5.863-5.862 5.863-15.367 0-21.228z"/><path d="m225.261 139.349 21.228-21.228-16.559-16.559c-5.862-5.863-15.367-5.863-21.228 0-5.863 5.862-5.863 15.366 0 21.228z"/><path d="m273.844 90.767 21.228-21.228-16.559-16.559c-5.862-5.863-15.367-5.863-21.228 0-5.863 5.862-5.863 15.366 0 21.228z"/><path d="m493.31 109.185c0-6.507-2.534-12.625-7.136-17.227l-68.32-68.321c-9.069-9.451-25.385-9.451-34.454 0l-210.235 210.234c-9.499 9.499-9.499 24.956 0 34.455l68.32 68.321c9.069 9.451 25.387 9.451 34.455 0l210.233-210.234c4.603-4.603 7.137-10.721 7.137-17.228zm-232.956 156.811c-8.29 0-15.011-6.721-15.011-15.011.736-19.89 29.289-19.885 30.022 0 0 8.29-6.72 15.011-15.011 15.011zm48.8-48.8c-8.29 0-15.011-6.721-15.011-15.011.736-19.89 29.289-19.885 30.022 0 0 8.291-6.721 15.011-15.011 15.011zm48.8-48.799c-8.291 0-15.011-6.721-15.011-15.011.736-19.89 29.289-19.885 30.022 0 0 8.29-6.721 15.011-15.011 15.011zm47.983-47.984c-8.29 0-15.011-6.721-15.011-15.011.736-19.89 29.289-19.885 30.022 0 0 8.291-6.721 15.011-15.011 15.011z"/><path d="m322.427 42.184 21.228-21.228-16.559-16.559c-5.861-5.862-15.365-5.863-21.228 0-5.863 5.862-5.863 15.366 0 21.228z"/></g></svg>