<svg id="Layer_1" enable-background="new 0 0 512 512" height="512" viewBox="0 0 512 512" width="512" xmlns="http://www.w3.org/2000/svg"><g><path d="m328.589 287.549c5.21 0 10.218.886 14.879 2.515v-155.966c0-19.63-15.97-35.6-35.6-35.6h-38.763v-28.768h35.529c5.025 0 9.098-4.073 9.098-9.098v-35.098c.002-14.102-11.43-25.534-25.532-25.534h-70.541c-14.102 0-25.534 11.432-25.534 25.534v35.098c0 5.025 4.073 9.098 9.098 9.098h37.551v28.769h-38.763c-19.629 0-35.599 15.97-35.599 35.6v155.965c4.661-1.629 9.669-2.515 14.879-2.515zm-41.023-139.49c8.376 0 15.166 6.79 15.166 15.166-.744 20.096-29.592 20.09-30.332 0 0-8.376 6.79-15.166 15.166-15.166zm0 61.997c8.376 0 15.166 6.79 15.166 15.166-.743 20.096-29.592 20.091-30.332 0 0-8.376 6.79-15.166 15.166-15.166zm-67.251-61.997c8.376 0 15.166 6.79 15.166 15.166-.744 20.096-29.592 20.09-30.332 0 0-8.376 6.79-15.166 15.166-15.166zm0 61.997c8.376 0 15.166 6.79 15.166 15.166-.743 20.096-29.592 20.091-30.332 0 0-8.376 6.79-15.166 15.166-15.166z"/><path d="m458.112 241.952h-35.418c-8.376 0-15.166 6.79-15.166 15.166v61.752c0 7.739-6.297 14.036-14.036 14.036h-18.68v30.332h18.68c24.464 0 44.368-19.904 44.368-44.368v-46.586h20.252c20.101-.746 20.086-29.593 0-30.332z"/><path d="m135.091 332.905h-18.68c-7.74 0-14.036-6.297-14.036-14.036v-61.752c0-8.376-6.79-15.166-15.166-15.166h-33.321c-20.101.746-20.086 29.593 0 30.332h18.155v46.586c0 24.464 19.904 44.368 44.369 44.368h18.68v-30.332z"/><path d="m177.334 377.259h141.502v.132h9.834c8.173 0 14.798-6.625 14.798-14.798v-29.832c0-8.218-6.662-14.879-14.879-14.879h-149.297c-8.218 0-14.879 6.662-14.879 14.879v29.832c-.001 7.535 5.636 13.742 12.921 14.666z"/><path d="m361.379 481.668h-29.551c-4.778-.031-12.222-.957-18.313-3.743-9.711-4.246-17.533-11.411-22.768-20.187h38.281c19.138-.71 19.124-28.176 0-28.879h-45.647l-.194-27.044h-60.096v26.045c.104 28.74-23.127 53.796-51.31 53.807h-29.318c-20.433.653-20.752 29.439-.429 30.332h219.766c20.336-.897 19.992-29.686-.421-30.331z"/></g></svg>