<svg id="Layer_1" enable-background="new 0 0 512 512" height="512" viewBox="0 0 512 512" width="512" xmlns="http://www.w3.org/2000/svg"><g><path d="m130.482 400.013c0 10.021 8.153 18.174 18.174 18.174h214.688c10.021 0 18.175-8.153 18.175-18.174v-17.062h-251.037z"/><path d="m493.87 256.124h-475.74c-10.013 0-18.13 8.117-18.13 18.13v130.691c0 57.286 46.439 103.725 103.725 103.725h304.55c57.286 0 103.725-46.439 103.725-103.725v-130.691c0-10.013-8.117-18.13-18.13-18.13zm-82.403 143.889c0 26.535-21.588 48.123-48.124 48.123h-214.687c-26.535 0-48.123-21.588-48.123-48.123v-84.193c.737-19.847 29.219-19.832 29.949 0v37.182h42.217v-37.182c.737-19.847 29.219-19.832 29.949 0v37.182h38.412v-37.182c.737-19.847 29.219-19.832 29.949 0v37.182h38.413v-37.182c.737-19.847 29.219-19.832 29.949 0v37.182h42.147v-37.182c.737-19.847 29.219-19.832 29.949 0z"/><path d="m458.036 179.438h-404.731c-10.013 0-18.13 8.117-18.13 18.13v28.608h440.99v-28.608c.001-10.013-8.117-18.13-18.129-18.13z"/><path d="m417.115 112.438c0-60.259-48.85-109.108-109.108-109.108-4.957 0-8.975 4.018-8.975 8.975 0 29.532-23.941 53.473-53.473 53.473h-28.277c-62.515 0-114.102 26.384-121.667 83.711h321.501v-37.051z"/></g></svg>