<svg id="Layer_1" enable-background="new 0 0 512.398 512.398" height="512" viewBox="0 0 512.398 512.398" width="512" xmlns="http://www.w3.org/2000/svg"><g><path d="m377.642 11.164c0-6.166-4.999-11.164-11.164-11.164h-36.631c-6.166 0-11.164 4.998-11.164 11.164v22.308h58.959z"/><path d="m385.961 63.271h-75.598l-36.65 40.206h148.898z"/><path d="m294.728 371.762h-158.178c-7.438 0-13.468 6.03-13.468 13.468v103.55c0 13.044 10.574 23.617 23.617 23.617h137.881c13.044 0 23.617-10.574 23.617-23.617v-103.55c0-7.438-6.03-13.468-13.469-13.468z"/><path d="m337.995 356.863v1.274c3.356 2.057 6.786 3.121 10.251 3.121 18.196 0 34.157-28.525 34.157-61.044s-15.961-61.044-34.157-61.044-34.157 28.525-34.157 61.044c0 15.519 3.495 30.324 9.713 41.786 7.898.37 14.193 6.872 14.193 14.863z"/><path d="m254.871 133.275v208.688h36.466c-20.43-52.425 4.574-132.96 56.911-132.592 35.861-.001 63.954 39.902 63.954 90.842-.462 54.966-31.776 97.868-74.206 89.705v98.862c0 8.476-1.993 16.491-5.522 23.617h95.511c7.438 0 13.468-6.03 13.468-13.468v-365.654z"/><path d="m217.522 61.167c8.284 0 15-6.716 15-15-.735-19.876-29.268-19.87-30 0 0 8.285 6.715 15 15 15z"/><path d="m85.945 31.167c-8.284 0-15 6.716-15 15 .735 19.876 29.268 19.87 30 0 0-8.284-6.716-15-15-15z"/><path d="m151.733 30.472c8.284 0 15-6.716 15-15-.735-19.876-29.268-19.87-30 0 0 8.284 6.716 15 15 15z"/><path d="m151.733 91.065c8.284 0 15-6.716 15-15-.735-19.876-29.268-19.87-30 0 0 8.284 6.716 15 15 15z"/></g></svg>