<svg id="Layer_1" enable-background="new 0 0 512 512" height="512" viewBox="0 0 512 512" width="512" xmlns="http://www.w3.org/2000/svg"><g><path d="m282.187 76.463h-53.106c-.224 0-.405.182-.405.405v29.416h53.917v-29.417c0-.223-.182-.404-.406-.404z"/><path d="m161 180.232h189.733l-58.17-43.949h-73.828z"/><path d="m364.63 0h-217.26c-17.033 0-30.841 13.176-30.841 30.209v146.171l82.146-62.53v-36.983c0-16.792 13.613-30.405 30.405-30.405h53.107c16.792 0 30.405 13.613 30.405 30.405v36.949l82.878 62.615v-146.222c.001-17.033-13.807-30.209-30.84-30.209z"/><path d="m116.529 494.503c0 9.663 7.834 17.497 17.497 17.497h243.947c9.663 0 17.497-7.834 17.497-17.497v-284.271h-278.941zm72.595-151.46c-3.596-22.208 9.265-44.514 29.261-53.028v-26.144c0-8.284 6.716-15 15-15h14.682c26.914 0 49.27 19.896 53.13 45.753 15.387 10.424 23.929 29.707 20.948 48.419 42.543 25.984 24.572 91.904-25.689 92.229h-81.641c-50.293-.335-68.211-66.263-25.691-92.229z"/><path d="m214.814 405.273h81.641c23.556-.562 26.991-33.458 4.166-38.969-4.583-.983-8.443-4.052-10.434-8.296s-1.883-9.174.291-13.327c5.353-9.796.684-22.961-9.655-27.204-5.487-2.377-9.039-7.785-9.039-13.765v-1.122c0-12.973-10.468-23.546-23.4-23.717v18.772c.555 2.3.569 4.745-.028 7.142-1.495 5.997-6.515 10.462-12.645 11.25-9.78 1.256-17.156 9.653-17.156 19.534 0 3.213.752 6.279 2.234 9.111 2.174 4.153 2.282 9.083.291 13.327-1.99 4.244-5.851 7.313-10.434 8.296-22.838 5.519-19.37 38.413 4.168 38.968z"/></g></svg>