<svg id="Layer_1" enable-background="new 0 0 512 512" height="512" viewBox="0 0 512 512" width="512" xmlns="http://www.w3.org/2000/svg"><g><path d="m395.14 17.455c0-9.64-7.815-17.455-17.455-17.455h-243.369c-9.64 0-17.455 7.815-17.455 17.455v69.179h278.279zm-231.693 40.926c-8.468 0-15.332-6.865-15.332-15.332.752-20.316 29.916-20.311 30.665 0-.001 8.468-6.865 15.332-15.333 15.332zm61.949 0c-8.468 0-15.332-6.865-15.332-15.332.752-20.316 29.916-20.311 30.665 0-.001 8.468-6.865 15.332-15.333 15.332zm61.95 0c-8.468 0-15.332-6.865-15.332-15.332.752-20.316 29.916-20.311 30.665 0-.001 8.468-6.865 15.332-15.333 15.332zm61.96 0c-8.468 0-15.332-6.865-15.332-15.332.752-20.316 29.916-20.311 30.665 0-.001 8.468-6.865 15.332-15.333 15.332z"/><path d="m467.373 389.357h-422.746c-19.881.738-19.866 29.269 0 30h35.206v75.671c0 9.373 7.599 16.972 16.972 16.972h34.157c9.373 0 16.972-7.599 16.972-16.972v-75.671h216.132v75.671c0 9.373 7.599 16.972 16.972 16.972h34.157c9.374 0 16.972-7.599 16.972-16.972v-75.671h35.205c19.881-.738 19.866-29.269.001-30z"/><path d="m395.14 116.635h-278.279v243.092h278.279zm-201.123 170.858c-3.839 0-7.678-1.464-10.606-4.394-5.858-5.858-5.858-15.355 0-21.213l113.852-113.851c5.857-5.858 15.355-5.858 21.213 0s5.858 15.355 0 21.213l-113.852 113.852c-2.929 2.929-6.769 4.393-10.607 4.393zm35.304 42.163c-8.468 0-15.332-6.865-15.332-15.332.752-20.316 29.916-20.311 30.665 0 0 8.468-6.865 15.332-15.333 15.332zm99.268-83.675-45.769 45.768c-5.858 5.858-15.355 5.858-21.213 0s-5.858-15.355 0-21.213l45.769-45.768c5.858-5.858 15.356-5.858 21.213 0 5.859 5.858 5.859 15.356 0 21.213z"/></g></svg>