<svg id="Layer_1" enable-background="new 0 0 512 512" height="512" viewBox="0 0 512 512" width="512" xmlns="http://www.w3.org/2000/svg"><g><path d="m467.329 404.805c-25.451-12.592-45.835-33.541-57.986-58.791-1.029-2.138-4.093-2.169-5.168-.054-12.601 25.017-34.293 46.507-59.425 58.857-2.129 1.057-2.129 4.13 0 5.187 25.089 12.33 46.754 33.77 59.361 58.732 1.078 2.114 4.144 2.081 5.169-.059 6.112-12.763 14.387-24.462 24.627-34.702 9.894-9.893 21.15-17.954 33.412-24 2.129-1.05 2.138-4.117.01-5.17z"/><path d="m132.451 196.537c60.115-.2 108.46-49.667 108.46-109.782v-.374c-.377-69.401-92.332-92.978-124.726-31.289-14.492 28.541-45.342 47.551-77.024 47.553-.412 0-.818-.003-1.229-.01-.358-.005-.715-.023-1.067-.05-3.058-.082-6.144-.404-9.221-.954-8.281-1.48-14.995 6.687-12.045 14.565 17.592 46.985 63.357 80.519 116.852 80.341z"/><path d="m511.869 162.824c-60.806 89.089-202.471 90.699-254.326-8.539-.027-.051-.099-.051-.126 0-53.108 101.366-198.367 96.994-257.285 4.193-.04-.061-.132-.033-.132.039v61.353c0 42.835 34.725 77.56 77.56 77.56h.861c7.258 0 13.383 5.466 14.123 12.685 4.312 42.061 37.317 76.42 79.327 82.218 6.742.931 11.822 6.566 12.169 13.363.989 19.351 10.367 57.211 63.969 84.875 4.952 2.556 10.845 2.643 15.8.092 32.438-16.697 48.718-37.124 56.752-54.958.018-.039-.002-.085-.042-.1-6.204-2.307-12.667-4.016-19.333-5.07-26.653-4.436-27.367-41.461-.66-46.149 21.233-3.215 40.482-12.94 55.667-28.125 15.028-15.028 24.709-34.037 28.024-55.01 4.032-24.855 37.757-27.884 45.394-3.92.01.035.045.057.081.051 43.824-7.176 82.308-46.303 82.308-92.078v-42.439c0-.071-.09-.099-.131-.041z"/><path d="m382.509 196.537c55.318.184 102.371-35.682 118.552-85.191 1.993-6.099-3.494-12.081-9.729-10.562-4.399 1.071-8.848 1.685-13.24 1.802-.352.028-.707.045-1.064.05-32.13.488-63.572-18.632-78.285-47.606-32.419-61.643-124.342-37.983-124.694 31.352v.373c0 60.115 48.345 109.583 108.46 109.782z"/></g></svg>