<svg id="Layer_1" enable-background="new 0 0 512 512" height="512" viewBox="0 0 512 512" width="512" xmlns="http://www.w3.org/2000/svg"><path d="m498.41 222.684c-8.792 7.472-20.611 12.151-31.645 12.211v.031c-24.851.387-49.46-14.337-61.077-37.215-13.493-26.294-40.727-43.307-70.933-43.307-39.771 0-72.733 29.12-78.748 67.2-6.015-38.08-38.977-67.2-78.748-67.2-30.206 0-57.44 17.012-70.933 43.307-11.617 22.878-36.226 37.601-61.077 37.215v-.031c-11.045-.06-22.876-4.748-31.671-12.233-5.659-4.817-14.233-.435-13.541 6.964 6.785 72.544 58.676 125.852 135.822 127.969 61.636 0 112.519-46.033 120.147-105.595 7.629 59.561 58.512 105.595 120.147 105.595 79.365-2.051 129.081-57.659 135.804-127.981.708-7.38-7.897-11.731-13.547-6.93z"/></svg>