<svg id="Layer_1" enable-background="new 0 0 512.599 512.599" height="512" viewBox="0 0 512.599 512.599" width="512" xmlns="http://www.w3.org/2000/svg"><g><path d="m408.558 348.35c-11.344 0-22.437 2.272-32.707 6.646l-27.385-40.324-54.587 77.943 32.499 48.71c2.53 18.958 11.646 36.405 25.941 49.487 51.906 48.358 139.635 10.674 139.158-60.339.001-45.283-37.196-82.123-82.919-82.123zm-29.323 38.737-.093.061-.003-.005c.031-.02.064-.035.096-.056zm29.323 95.512c-27.124 0-50.127-20.681-52.654-47.191.292-32.344 22.296-47.621 23.34-48.326 34.293-23.049 82.589 2.095 82.234 43.393 0 28.741-23.74 52.124-52.92 52.124z"/><path d="m448.915 7.937-6.122-4.77c-3.232-2.518-7.354-3.606-11.405-3.007-4.054.597-7.686 2.826-10.054 6.169l-180.08 254.223-21.537-28.38 22.285-18.493c6.76-4.789 8.359-14.15 3.571-20.911-4.789-6.761-14.15-8.359-20.911-3.571l-22.186 18.422-14.493-20.639 22.559-18.686c6.76-4.788 8.359-14.15 3.571-20.911-4.789-6.76-14.15-8.359-20.911-3.571l-22.46 18.616-14.493-20.639 22.832-18.88c6.76-4.789 8.359-14.15 3.571-20.911-4.789-6.76-14.15-8.359-20.911-3.571l-22.733 18.81-14.579-20.761 22.933-18.951c6.76-4.789 8.359-14.15 3.571-20.911-4.789-6.761-14.149-8.358-20.911-3.571l-22.243 18.463c-6.691-15.199-2.417-34.021 11.258-44.674 6.535-5.091 7.706-14.517 2.614-21.052-5.092-6.536-14.517-7.705-21.052-2.614-28.421 22.146-34.365 63.026-13.585 92.231l135.455 191.676-47.621 67.228c-58.545-24.031-123.287 26.417-112.932 88.846-23.578 7.07-40.796 28.801-40.796 54.451 0 8.284 6.716 15 15 15s15-6.716 15-15c0-12.641 8.935-23.266 20.927-26.122 40.384 69.524 148.906 45.264 154.538-35.701l236.22-336.66c20.393-29.236 14.364-69.166-13.89-91.178zm-305.071 474.662c-29.18 0-52.919-23.383-52.919-52.125-.527-40.315 46.475-65.846 80.643-44.389 2.136 1.514 25.164 18.513 25.186 44.672-.154 28.589-23.882 51.842-52.91 51.842z"/></g></svg>