<svg id="Layer_1" enable-background="new 0 0 511.392 511.392" height="512" viewBox="0 0 511.392 511.392" width="512" xmlns="http://www.w3.org/2000/svg"><g><path d="m491.029 411.139c-1.794-58.072-58.637-102.471-115.348-90.396-6.624 1.315-13.39-1.49-17.287-7.006l-44.854-63.504-37.815 54.825 32.762 46.389c3.755 5.316 4.254 12.321 1.151 18.042-7.521 13.866-11.747 29.778-11.622 46.689 7.361 129.515 192.938 125.932 193.013-5.039zm-63.647 6.443c-1.034 16.364-14.312 29.643-30.677 30.677-43.646 1.169-47.56-61.13-4.272-65.626 19.844-1.254 36.203 15.105 34.949 34.949z"/><path d="m382.378 1.679c-3.51-2.767-8.624-2.008-11.179 1.659 0 0-216.45 310.638-216.45 310.638-3.984 5.717-11.004 8.437-17.822 6.998-57.857-13.046-116.054 32.925-116.564 92.358 2.708 127.045 180.062 131.982 192.965 6.981.885-17.96-3.169-34.949-10.894-49.68-2.942-5.61-2.417-12.414 1.181-17.628l189.891-275.212c17.089-24.302 12.203-57.722-11.128-76.114zm-232.672 415.903c-1.034 16.365-14.313 29.643-30.677 30.677-43.646 1.169-47.559-61.13-4.271-65.626 19.843-1.254 36.202 15.105 34.948 34.949z"/><path d="m198.965 194.404 37.352-53.606-96.247-137.485c-2.562-3.661-7.681-4.409-11.184-1.634-23.331 18.392-28.217 51.813-11.128 76.114z"/></g></svg>