<svg id="Layer_1" enable-background="new 0 0 512 512" height="512" viewBox="0 0 512 512" width="512" xmlns="http://www.w3.org/2000/svg"><g><path d="m111.785 32.614h48.96v72.576h-48.96z"/><path d="m190.803 32.614h48.96v72.576h-48.96z"/><path d="m348.839 32.614h48.96v72.576h-48.96z"/><path d="m81.727 32.614h-24.702c-13.375 0-24.258 10.882-24.258 24.258v48.318h48.96z"/><path d="m269.821 32.614h48.96v72.576h-48.96z"/><path d="m476.817 56.872c0-13.376-10.882-24.258-24.258-24.258h-24.702v72.576h48.96z"/><path d="m490.941 135.248h-469.882c-11.631 0-21.059 9.428-21.059 21.059v178.084c0 33.415 27.088 60.503 60.503 60.503h390.992c33.416 0 60.504-27.089 60.504-60.504v-178.083c.001-11.631-9.427-21.059-21.058-21.059zm-49.72 107.84c.659 98.11-130.468 144.469-185.221 60.348-54.788 84.158-185.897 37.706-185.22-60.348v-17.158c0-8.248 6.649-14.956 14.896-15.029 8.292-.085 15.014 6.516 15.16 14.763.075 4.264 7.857 10.363 15.021 10.401.262.001.522.01.781.024 10.589-.096 21.286-6.777 26.183-16.423 21.742-43.791 83.672-49.362 113.179-11.584 29.493-37.778 91.439-32.188 113.149 11.527 4.927 9.702 15.626 16.383 26.215 16.481.258-.015.519-.023.78-.024 7.165-.039 14.946-6.138 15.021-10.401.141-8.249 6.927-14.841 15.16-14.763 8.247.073 14.896 6.78 14.896 15.029z"/><path d="m60.5 458.327c0 11.63 9.428 21.059 21.059 21.059h348.884c11.63 0 21.059-9.428 21.059-21.059v-33.375h-391.002z"/><path d="m396.458 266.143c-22.145.346-43.924-12.862-54.081-32.867-18.181-34.899-71.087-22.066-71.349 17.32v1.535c3.61 82.819 114.497 85.58 136.969 12.331-3.538.977-7.144 1.54-10.698 1.645-.279.019-.558.031-.841.036z"/><path d="m203.196 212.821c-14.235 0-27.11 7.86-33.603 20.512-9.999 19.691-31.309 32.815-53.2 32.816-.285 0-.567-.002-.851-.007-.285-.004-.567-.017-.846-.037-3.542-.106-7.148-.672-10.695-1.654 22.226 73.237 133.619 70.352 136.971-12.321v-1.535c-.002-20.828-16.947-37.774-37.776-37.774z"/></g></svg>