<svg id="Layer_1" enable-background="new 0 0 512 512" height="512" viewBox="0 0 512 512" width="512" xmlns="http://www.w3.org/2000/svg"><g><path d="m240.12 438.635c-.883 20.069-29.309 19.752-29.952-.423v-155.985h-159.516c-32.551 78.144-3.065 175.723 67.083 223.036 7.019 4.907 15.421 6.737 23.986 6.737h166.847c8.565 0 16.967-1.83 23.988-6.736 70.131-47.299 99.652-144.912 67.081-223.036h-159.517zm-97.803-54.873c-9.33 0-16.894-7.564-16.894-16.894.828-22.385 32.963-22.379 33.788 0 0 9.33-7.564 16.894-16.894 16.894zm195.164 9.599c9.33 0 16.894 7.564 16.894 16.894-.828 22.385-32.963 22.379-33.788 0 0-9.33 7.563-16.894 16.894-16.894zm-41.443-71.994c9.33 0 16.894 7.564 16.894 16.894-.828 22.385-32.963 22.379-33.788 0 0-9.331 7.564-16.894 16.894-16.894z"/><path d="m65.843 252.276h144.325v-87.87c-60.856 4.823-113.625 38.778-144.325 87.87z"/><path d="m240.12 252.276h144.325c-30.7-49.092-83.469-83.047-144.325-87.87z"/><path d="m433.978 10.135v43.403h31.876c4.815 0 8.718-3.903 8.718-8.718v-25.966c0-4.815-3.903-8.718-8.718-8.718h-31.876z"/><path d="m395.307 0h-219.548c-7.095 0-11.293 8.07-7.1 13.793 12.915 17.629 20.548 39.355 20.548 62.829v60.181c22.627-3.777 46.676-3.918 69.368-.401v-57.082c0-8.271 6.705-14.976 14.976-14.976h121.756c4.815 0 8.718-3.903 8.718-8.718v-46.908c.001-4.815-3.903-8.718-8.718-8.718z"/><path d="m431.414 139.11c-27.813 0-51.252-19.072-57.908-44.814h-30.594c7.139 42.377 44.104 74.766 88.502 74.766 8.271 0 14.976-6.705 14.976-14.976s-6.705-14.976-14.976-14.976z"/></g></svg>