<svg id="Layer_1" enable-background="new 0 0 512 512" height="512" viewBox="0 0 512 512" width="512" xmlns="http://www.w3.org/2000/svg"><g><path d="m318.02 163.854h30.173v30.174h-30.173z"/><path d="m505.061 102.892-95.906-95.905c-9.253-9.253-24.254-9.253-33.507 0l-96.642 96.642 30.226 30.226h53.96c8.284 0 15 6.716 15 15v53.961l30.225 30.225 96.642-96.642c9.254-9.253 9.254-24.254.002-33.507z"/><path d="m153.95 228.685-27.977 27.977c-9.253 9.253-9.253 24.254 0 33.507l95.905 95.905c9.253 9.253 24.254 9.253 33.507 0l27.978-27.978z"/><path d="m303.02 224.028c-8.284 0-15-6.716-15-15v-53.961l-30.226-30.226-82.631 82.631 129.412 129.411 82.63-82.63-30.225-30.225z"/><path d="m120.026 420.611c-8.284 0-15 6.716-15 15 .735 19.876 29.268 19.87 30 0 0-8.285-6.716-15-15-15z"/><path d="m92.61 393.19c0-8.284-6.716-15-15-15-19.876.735-19.87 29.268 0 30 8.284 0 15-6.716 15-15z"/><path d="m15 397.058c-8.284 0-15 6.716-15 15 .735 19.876 29.268 19.87 30 0 0-8.284-6.716-15-15-15z"/><path d="m57.498 439.556c-8.284 0-15 6.716-15 15 .735 19.876 29.268 19.87 30 0 0-8.285-6.716-15-15-15z"/><path d="m99.99 482.048c-8.284 0-15 6.716-15 15 .735 19.876 29.268 19.87 30 0 0-8.285-6.716-15-15-15z"/><path d="m158.175 376.479c.086-6.482-5.049-13.902-13.518-14.89-.98-.1-1.98-.1-2.96 0-7.172 1.138-14.068 6.541-13.445 16.41.72 7.343 6.739 13.115 14.18 13.481 7.469.183 15.689-5.397 15.743-15.001z"/></g></svg>