<svg id="Layer_1" enable-background="new 0 0 512 512" height="512" viewBox="0 0 512 512" width="512" xmlns="http://www.w3.org/2000/svg"><g><path d="m481.516 103.844h-191.014c-6.619 0-11.984 5.366-11.984 11.984v16.691c0 25.394 20.586 45.979 45.979 45.979h123.023c25.394 0 45.98-20.586 45.98-45.98v-16.69c0-6.619-5.366-11.984-11.984-11.984z"/><path d="m368.951 30h26.37c8.222 0 14.91 6.688 14.91 14.91v28.934h30v-28.934c0-24.764-20.146-44.91-44.91-44.91h-26.37c-19.881.738-19.866 29.269 0 30z"/><path d="m346.786 494.599c0 9.61 7.791 17.401 17.401 17.401h43.644c9.61 0 17.401-7.791 17.401-17.401v-286.101h-78.445v286.101z"/><path d="m237.251 103.844h-7.721c-21.381 0-38.714 17.333-38.714 38.714v173.412c0 4.154-3.368 7.522-7.522 7.522h-136.478c-15.639 0-28.317 12.678-28.317 28.317v19.056h230.735v-255.037c.001-6.619-5.365-11.984-11.983-11.984z"/><path d="m81.684 292.609c0-26.319 18.716-29.161 26.763-29.161h52.369v-30h-52.369c-33.421 0-56.763 24.328-56.763 59.161v.883h30z"/><path d="m18.5 494.908c0 9.44 7.652 17.092 17.092 17.092 9.44 0 17.092-7.652 17.092-17.092v-95.132h-34.184z"/><path d="m215.051 494.908c0 9.44 7.652 17.092 17.092 17.092 9.44 0 17.092-7.652 17.092-17.092v-95.132h-34.184z"/></g></svg>