<svg id="Layer_1" enable-background="new 0 0 512.006 512.006" height="512" viewBox="0 0 512.006 512.006" width="512" xmlns="http://www.w3.org/2000/svg"><g><path d="m306.478 100.634v-.048c-.001-6.095-3.109-11.729-8.582-15.074-11.687-7.032-26.654 2.161-26.405 14.996-.001.277-.029.547-.046.82l-.199 95.691c-.016 8.273-6.726 14.971-14.999 14.971h-.029c-8.28 0-14.987-6.72-14.972-15l.334-166.925c.011-5.044-2.09-9.759-5.889-13.141-3.283-2.923-7.608-4.402-12.004-4.402h-.306c-9.624 0-17.472 7.829-17.495 17.453l-.253 148.876c-.013 8.276-6.728 14.977-14.999 14.977h-.024c-8.285-.014-14.99-6.739-14.977-15.023l.253-148.889.005-12.355c.011-4.714-1.809-9.12-5.122-12.435-3.377-3.378-8.057-5.126-12.833-5.126h-.406c-9.662 0-17.494 7.832-17.495 17.494v160.769c-.645 20.209-29.116 20.524-30 .424v-130.436c0-.007-.001-.013-.001-.019v-.019c0-9.652-7.824-17.476-17.476-17.476h-.571c-9.662 0-17.495 7.833-17.495 17.495v220.565c-.645 20.209-29.116 20.524-30 .424v-58.572c0-13.649-7.009-25.692-17.616-32.719-7.687-5.092-17.959.618-17.959 9.839v120.384c0 37.354 13.907 73.065 39.16 100.553l.177.191c19.501 21.239 30.228 48.781 30.228 77.579v1.285c0 13.39 10.855 24.245 24.245 24.245h169.188v-61.724c0-17.955 4.325-35.97 12.508-52.097 13.101-25.817 21.877-62.078 21.839-90.229l.218-207.305c-.001-.005-.002-.011-.002-.017z"/><path d="m498.001 88.264c-10.763-11.014-29.914-3.143-29.902 12.245-.001.271-.029.535-.045.802l-.2 95.709c-.016 8.273-6.726 14.971-14.999 14.971h-.029c-8.28 0-14.987-6.72-14.972-15l.334-166.925c.011-5.044-2.09-9.759-5.889-13.141-3.283-2.923-7.608-4.402-12.004-4.402h-.306c-9.593 0-17.417 7.78-17.49 17.361v.056c0 .033-.005.065-.005.098l-.253 164.591c-.012 8.277-6.726 14.979-14.999 14.979h-.022c-8.284-.012-14.99-6.737-14.979-15.021l.253-164.668c0-.059.005-.117.005-.176v-12.177c.011-4.718-1.808-9.123-5.119-12.438-3.376-3.379-8.057-5.128-12.834-5.128h-.406c-10.287 0-17.544 8.798-17.661 21.401l-.217 286.515c.044 32.456-10.037 74.188-25.085 103.844-6.06 11.941-9.262 25.262-9.262 38.522v61.724h142.364c13.39 0 24.245-10.855 24.245-24.245v-37.479c0-17.955 4.325-35.97 12.508-52.097 13.101-25.817 21.877-62.078 21.839-90.229l.217-206.88c.005-4.764-1.728-9.434-5.087-12.812z"/></g></svg>