<svg id="Layer_1" enable-background="new 0 0 511.875 511.875" height="512" viewBox="0 0 511.875 511.875" width="512" xmlns="http://www.w3.org/2000/svg"><g><path d="m330.033 249.726h-305.291c-6.503 0-11.774 5.272-11.774 11.774v28.318h328.84v-28.318c-.001-6.502-5.273-11.774-11.775-11.774z"/><path d="m476.532 97.885v-81.365c0-9.124-7.396-16.52-16.52-16.52h-27.094v50.631c-.641 20.185-29.092 20.515-29.977.423v-51.054h-33.895v50.631c-.641 20.185-29.092 20.515-29.977.423v-51.054h-29.093c-9.124 0-16.52 7.396-16.52 16.52v81.365z"/><path d="m341.807 366.541v-46.746h-328.84v46.746c0 35.462 28.85 64.312 64.312 64.312h200.216c35.462.001 64.312-28.849 64.312-64.312z"/><path d="m271.078 141.631v14.61c0 18.378 14.899 33.277 33.277 33.277h45.379v30.232c12.178 0 22.05 9.872 22.05 22.05v124.742c0 23.02-8.296 44.135-22.05 60.525v48.978c1.675 47.104 68.485 47.895 70.519.697v-287.225h45.379c18.378 0 33.277-14.899 33.277-33.277v-14.61c0-7.604-6.164-13.769-13.769-13.769h-200.293c-7.604.001-13.769 6.166-13.769 13.77z"/><path d="m82.422 460.831v39c0 6.652 5.393 12.045 12.045 12.045h165.841c6.652 0 12.045-5.393 12.045-12.045v-39z"/></g></svg>