<svg id="Layer_1" enable-background="new 0 0 511.937 511.937" height="512" viewBox="0 0 511.937 511.937" width="512" xmlns="http://www.w3.org/2000/svg"><g><path d="m236.49 365.425c-60.17-82.387-6.825-172.244 67.3-226.852-19.438-22.466-37.492-41.015-48.169-51.645-56.484 54.367-195.098 192.403-103.161 295.84 7.99 9.22 17.165 17.29 27.153 24.052 11.721-6.189 36.104-20.427 56.877-41.395z"/><path d="m110.329 91.071c0-8.866-7.213-16.079-16.08-16.079-21.303.808-21.296 31.354 0 32.159 8.867 0 16.08-7.214 16.08-16.08z"/><path d="m256.289 340.971c21.092-32.667 20.824-68.635-1.073-105.422-18.75 33.093-20.591 71.479 1.073 105.422z"/><path d="m481.997 0h-452.056c-16.536 0-29.941 13.405-29.941 29.941v452.056c0 16.536 13.405 29.941 29.941 29.941h452.056c16.536 0 29.941-13.405 29.941-29.941v-452.056c-.001-16.536-13.406-29.941-29.941-29.941zm-433.827 91.071c0-25.408 20.671-46.079 46.08-46.079 61.047 2.317 61.03 89.851-.001 92.159-25.408 0-46.079-20.672-46.079-46.08zm333.287 311.873c-105.516 120.75-309.095 36.43-288.08-125.359 14.426-100.62 147.042-217.66 152.681-222.592 5.811-5.084 14.532-4.927 20.156.365 47.589 51.255 233.112 211.309 115.243 347.586z"/><path d="m323.023 161.642c-12.118 9.012-32.17 25.453-49.491 46.863 63.633 88.831 10.055 171.458-61.84 214.498 51.359 18.805 111.265 1.312 147.214-39.844 56.388-68.036 32.707-137.896-35.883-221.517z"/></g></svg>