<svg id="Layer_1" enable-background="new 0 0 512 512" height="512" viewBox="0 0 512 512" width="512" xmlns="http://www.w3.org/2000/svg"><g><path d="m499.524 452.98c0 32.596-26.424 59.02-59.019 59.02h-151.397c-5.839 0-10.573-4.734-10.573-10.573 0-40.574 32.891-73.465 73.465-73.465h41.154c16.406-.271 26.847-13.753 25.444-29.687 0-7.24 5.87-13.11 13.11-13.11 37.454 0 67.816 30.362 67.816 67.815z"/><g><path d="m44.992 374.266c.363-.026.725-.055 1.094-.055h169.137c.312 0 .616.028.923.047l6.06-97.423h-184.204z"/><path d="m20.354 55.669c.919-.176 1.865-.276 2.835-.276h211.858c1.089 0 2.148.122 3.171.343l8.524-39.4c1.819-8.401-4.583-16.336-13.178-16.336h-207.6c-8.47 0-14.843 7.717-13.241 16.034z"/><path d="m35.853 246.889c.356-.025.71-.054 1.073-.054h186.214c.314 0 .621.028.93.047l3.703-59.529h-196.192z"/><path d="m129.957 430.323c11.068 0 20.072-9.004 20.072-20.071v-6.041h-40.144v6.041c0 11.067 9.004 20.071 20.072 20.071z"/><path d="m215.223 404.21h-35.195v6.041c-2.525 66.352-97.642 66.302-100.144 0v-6.041h-33.798c-.005 0-.009-.001-.014-.001l.041 81.024c.007 14.786 11.995 26.767 26.779 26.767h115.843c14.822 0 26.824-12.039 26.779-26.86l-.245-80.931c-.015-.001-.03.001-.046.001z"/><path d="m24.265 85.393 5.167 72.013c.356-.025.71-.054 1.072-.054h198.201c.314 0 .621.028.93.047l4.479-72.006z"/></g></g></svg>