<svg id="Layer_1" enable-background="new 0 0 512.965 512.965" height="512" viewBox="0 0 512.965 512.965" width="512" xmlns="http://www.w3.org/2000/svg"><g><path d="m512.562 274.618c-2.908-14.21-21.679-18.837-31.146-8.146l-70.045 75.867c-2.84 3.075-6.836 4.824-11.021 4.824h-182.407c-20.209-.645-20.524-29.116-.424-30h135.334c26.056-1.151 25.663-38.072-.478-38.924h-45.426c-9.257 0-18.584-2.062-26.975-5.964l-29.221-13.584c-10.623-4.939-21.925-7.938-33.594-8.912-23.522-1.963-47.54 6.139-65.911 22.23l-26.988 23.642c-2.755 2.413-6.337 3.716-9.962 3.717l-97.648-.508c-9.181-.048-16.65 7.382-16.65 16.565v69.086c0 9.149 7.417 16.565 16.565 16.565h373.006c17.71 0 34.232-7.915 45.333-21.717l.117-.144 73.896-89.585c3.463-4.196 4.794-9.6 3.645-15.012z"/><path d="m108.77 269.339 22.712-19.896c24.456-21.424 56.595-32.194 88.175-29.561 15.195 1.27 29.912 5.174 43.744 11.604l29.222 13.584c4.457 2.073 9.41 3.168 14.326 3.168h45.904c30.993-.376 55.176 29.556 48.364 59.745l1.027.012 40.948-44.351c-1.471-4.232-3.144-8.023-4.863-11.434-2.584-5.128-1.367-11.42 2.995-15.155 50.109-43.321 8.718-127.028-54.646-125.135-7.012-.001-12.697 5.684-12.697 12.697v3.204c0 15.147-10.702 27.795-24.957 30.794-3.529.743-7.204-.096-10.094-2.254-7.423-5.541-25.72-16.615-48.653-12.061-6.126 1.217-12.483-.052-17.535-3.726-44.493-34.115-115.447-5.725-128.84 46.011-1.584 5.183-6.336 8.667-11.755 8.659-39.788-.237-71.8 34.198-68.653 73.858z"/></g></svg>