<svg id="Layer_1" enable-background="new 0 0 511.899 511.899" height="512" viewBox="0 0 511.899 511.899" width="512" xmlns="http://www.w3.org/2000/svg"><g><path d="m368.564 287.328c0-26.907-21.89-48.798-48.797-48.798h-127.635c-26.907 0-48.797 21.891-48.797 48.798v14.53h225.228v-14.53z"/><path d="m428.161 118.574h-14.124c-7.52 0-13.615 6.096-13.615 13.615v169.669h27.74c7.52 0 13.615-6.096 13.615-13.615v-156.054c-.001-7.519-6.097-13.615-13.616-13.615z"/><path d="m319.767 206.672c18.327 0 35.238 6.156 48.797 16.493v-163.266c0-33.028-26.871-59.899-59.9-59.899h-105.429c-33.029 0-59.899 26.871-59.899 59.899v163.266c13.559-10.337 30.469-16.493 48.797-16.493z"/><path d="m370.676 443.515h-98.798v-109.799h-31.858v109.799h-99.624c-8.797 0-15.929 7.132-15.929 15.929v36.627c.784 21.112 31.082 21.096 31.858 0v-20.698h83.695v20.698c.784 21.112 31.082 21.096 31.858 0v-20.698h82.869v20.698c.784 21.112 31.082 21.096 31.858 0v-36.627c0-8.797-7.132-15.929-15.929-15.929z"/><path d="m97.862 118.574h-14.124c-7.52 0-13.615 6.096-13.615 13.615v156.053c0 7.519 6.096 13.615 13.615 13.615h27.74v-169.668c0-7.519-6.096-13.615-13.616-13.615z"/></g></svg>