<svg id="Layer_1" enable-background="new 0 0 512 512" height="512" viewBox="0 0 512 512" width="512" xmlns="http://www.w3.org/2000/svg"><g><path d="m153.785 158.431-8.644-8.644c-13.932-14.847 6.115-35.354 21.063-21.667l7.275 7.275 42.121-49.268c-12.156-11.004-19.794-26.906-19.794-44.593 0-6.05-4.904-10.954-10.954-10.954h-5.361c-12.143 0-23.68 5.302-31.589 14.516l-143.168 166.804c-6.667 7.767-6.245 19.354.969 26.616l42.788 43.074z"/><path d="m368.015 45.475c-7.91-9.442-19.594-14.896-31.911-14.896h-9.073c-6.05 0-10.954 4.904-10.954 10.954.474 37.833-36.054 67.152-72.85 58.776l-48.318 56.516 5.501 5.501c5.933 5.933 6.273 15.672.368 21.632-5.894 5.949-15.498 5.969-21.416.051l-4.148-4.148-105.359 123.237 171.383 172.528c7.659 7.71 20.124 7.729 27.807.043l237.208-237.306c7.189-7.192 7.695-18.685 1.164-26.481z"/></g></svg>