<svg id="Layer_1" enable-background="new 0 0 511.45 511.45" height="512" viewBox="0 0 511.45 511.45" width="512" xmlns="http://www.w3.org/2000/svg"><g><path d="m103.842 267.487v223.873c0 11.049 8.957 20.005 20.005 20.005h263.919c11.049 0 20.005-8.957 20.005-20.005v-219.625c0-10.97-7.699-20.5-18.458-22.637-59.73-11.862-71.38-80.768-73.501-100.458-.322-2.991-2.841-5.253-5.849-5.253h-108.41c-3.12 0-5.722 2.436-5.871 5.552-2.873 60.13-52.125 87.151-77.289 97.077-8.802 3.472-14.551 12.01-14.551 21.471zm123.58 29.622c8.284 0 15 6.716 15 15v10.381h26.77v-10.381c.738-19.881 29.269-19.866 30 0v10.381h48.657c8.284 0 15 6.716 15 15v67.387c0 25.784-20.977 46.762-46.762 46.762h-120.56c-25.785 0-46.762-20.978-46.762-46.762v-67.387c0-8.284 6.716-15 15-15h48.657v-10.381c0-8.284 6.716-15 15-15z"/><path d="m227.422 377.871c-8.284 0-15-6.716-15-15v-10.381h-33.657v52.387c0 9.242 7.519 16.762 16.762 16.762h120.561c9.243 0 16.762-7.52 16.762-16.762v-52.387h-33.657v10.381c-.738 19.881-29.269 19.866-30 0v-10.381h-26.77v10.381c-.001 8.284-6.716 15-15.001 15z"/><path d="m441.343 264.754h-3.571v30h3.571c22.115 0 40.106 17.991 40.106 40.106v161.668c.738 19.881 29.269 19.866 30 0v-161.667c.001-38.657-31.449-70.107-70.106-70.107z"/><path d="m195.813 113.387h15.048v-39.105c2.257-59.305 87.271-59.259 89.506 0v39.105h15c5.458 0 10.582 1.436 15 3.956v-43.061c-3.77-99.059-145.772-98.984-149.506 0v43.101c4.403-2.537 9.506-3.996 14.952-3.996z"/><path d="m73.842 269.497h-3.736c-38.657 0-70.106 31.449-70.106 70.106v156.926c.738 19.881 29.269 19.866 30 0v-156.926c0-22.115 17.991-40.106 40.106-40.106h3.736z"/></g></svg>