<svg id="Layer_1" enable-background="new 0 0 511.836 511.836" height="512" viewBox="0 0 511.836 511.836" width="512" xmlns="http://www.w3.org/2000/svg"><g><path d="m106.021 427.526v-427.526h-10.293c-14.974 0-27.155 12.182-27.155 27.155v407.243c8.082-4.382 17.334-6.873 27.155-6.873h10.293z"/><path d="m68.585 485.503c.438 14.77 12.944 26.333 27.721 26.333h326.24c11.442 0 20.718-9.276 20.718-20.718v-33.592h-347.536c-15.247 0-27.599 12.63-27.143 27.977z"/><path d="m332.075 278.523c-7.064-13.512-27.61-8.521-27.705 6.769v.862c.939 33.36 43.038 39.896 59.78 14.26-13.517-1.276-25.805-9.543-32.075-21.891z"/><path d="m422.546 0h-286.525v427.526h307.243v-406.808c0-11.442-9.276-20.718-20.718-20.718zm-209.264 88.041h152.176c19.881.738 19.866 29.269 0 30h-152.176c-19.88-.738-19.865-29.269 0-30zm0 58.414h152.176c19.881.738 19.866 29.269 0 30h-152.176c-19.88-.738-19.865-29.269 0-30zm186.744 134.617c.791 56.854-72.629 88.264-110.655 44.737-38.042 43.542-111.453 12.092-110.655-44.737v-9.644c0-8.232 6.635-14.927 14.868-14.999 7.724-.075 14.175 5.738 15.034 13.275.57.433 1.507.855 2.024.867.168.001.336.005.503.012 3.494-.099 7.138-2.425 8.772-5.643 12.723-25.945 48.584-32.305 69.454-13.007 20.846-19.292 56.732-12.927 69.424 12.95 1.663 3.273 5.308 5.602 8.802 5.7.167-.007.336-.011.505-.012.515-.012 1.451-.435 2.021-.867.859-7.536 7.311-13.35 15.034-13.275 8.232.072 14.868 6.767 14.868 14.999v9.644z"/><path d="m259.693 270.614c-5.531 0-10.534 3.053-13.056 7.967-6.242 12.295-18.53 20.557-32.046 21.833 16.758 25.653 58.849 19.078 59.78-14.26v-.862c0-8.094-6.585-14.678-14.678-14.678z"/></g></svg>