<svg id="Layer_1" enable-background="new 0 0 512 512" height="512" viewBox="0 0 512 512" width="512" xmlns="http://www.w3.org/2000/svg"><g><path d="m231.634 373.114c-6.378 0-11.567 5.189-11.567 11.567.581 15.324 22.556 15.32 23.135 0 0-6.379-5.189-11.567-11.568-11.567z"/><path d="m222.864 114.644h116.614v31.441h-116.614z"/><path d="m330.709 373.114c-6.378 0-11.567 5.189-11.567 11.567.581 15.324 22.555 15.32 23.134 0 0-6.379-5.189-11.567-11.567-11.567z"/><path d="m63.108 17.299v10.732h-15.857c-62.82 2.391-62.772 92.443 0 94.812h15.856v25.355h-15.856c-62.82 2.391-62.772 92.443 0 94.812h15.856v25.354h-15.856c-62.819 2.391-62.772 92.444 0 94.812h15.856v25.981h-15.856c-62.82 2.391-62.772 92.444 0 94.812h15.856v10.732c0 9.554 7.745 17.299 17.299 17.299h32.588v-512h-32.587c-9.554 0-17.299 7.745-17.299 17.299zm0 436.67h-15.857c-23.065-.878-23.048-33.943 0-34.812h15.856v34.812zm0-120.794h-15.857c-23.066-.878-23.047-33.942 0-34.812h15.856v34.812zm0-120.166h-15.857c-23.065-.878-23.048-33.942 0-34.812h15.856v34.812zm0-120.167h-15.857c-23.065-.878-23.048-33.942 0-34.812h15.856v34.812z"/><path d="m410.162 0h-264.456v512h264.456c9.554 0 17.299-7.745 17.299-17.299v-477.402c0-9.554-7.745-17.299-17.299-17.299zm-215.009 98.288c0-9.033 7.323-16.356 16.355-16.356h149.325c9.033 0 16.356 7.323 16.356 16.356v64.152c0 9.033-7.323 16.355-16.356 16.355h-149.324c-9.033 0-16.355-7.323-16.355-16.355v-64.152zm140.556 330.67c-23.032 0-42.005-17.679-44.081-40.179l-5.456-11.499-5.456 11.498c-6.771 55.514-86.635 52.075-88.36-4.098-.334-36.188 42.486-57.315 70.881-35.37l4.832-10.183-41.324-87.089c-3.872-8.161-.396-17.916 7.765-21.788 8.161-3.874 17.915-.396 21.788 7.765l29.874 62.96 29.873-62.959c3.872-8.162 13.624-11.638 21.788-7.766 8.161 3.872 11.637 13.626 7.765 21.788l-41.323 87.089 4.832 10.183c28.404-21.945 71.214-.817 70.88 35.371 0 24.415-19.863 44.277-44.278 44.277z"/><path d="m493.432 133.315c-2.228-4.127-2.228-9.1 0-13.227l17.295-32.035c3.314-6.137-1.131-13.588-8.106-13.588h-43.448v104.474h43.448c6.975 0 11.42-7.451 8.106-13.588z"/></g></svg>