<svg id="Layer_1" enable-background="new 0 0 512.562 512.562" height="512" viewBox="0 0 512.562 512.562" width="512" xmlns="http://www.w3.org/2000/svg"><g><path d="m393.783 83.018h-274.587c-5.054 18.234-19.385 32.64-37.56 37.771v270.844c18.222 5.144 32.58 19.61 37.599 37.911h274.51c4.986-18.142 19.168-32.534 37.181-37.785v-271.096c-17.966-5.239-32.122-19.57-37.143-37.645zm-91.011 311.899c-21.443 0-39.102-16.504-41.002-37.496l-5.489-11.588-5.489 11.588c-6.231 51.772-80.574 48.611-82.183-3.755-.31-33.914 39.928-53.551 66.285-32.665l4.812-10.158-38.859-82.036c-3.546-7.484-.363-16.432 7.109-19.982 7.472-3.554 16.403-.363 19.948 7.121l28.377 59.906 28.377-59.906c3.545-7.483 12.474-10.673 19.948-7.121 7.472 3.551 10.655 12.498 7.109 19.982l-38.859 82.036 4.811 10.157c26.367-20.885 66.595-1.248 66.285 32.667.001 22.746-18.473 41.25-41.18 41.25zm26.227-237.019h-145.436c-19.847-.737-19.832-29.27 0-30h145.436c19.846.737 19.831 29.27 0 30z"/><path d="m.281 25.567v461.428c0 14.12 11.427 25.567 25.523 25.567h460.954c14.096 0 25.523-11.447 25.523-25.567v-461.428c0-14.12-11.427-25.567-25.523-25.567h-460.954c-14.096 0-25.523 11.447-25.523 25.567zm460.594 379.043c0 8.266-6.675 14.973-14.926 15-13.295.043-24.118 10.877-24.187 24.178.007.209.012.377.015.546.277 8.125-6.843 15.372-14.973 15.21h-300.634c-4.019 0-7.871-1.619-10.687-4.493s-4.36-6.761-4.285-10.787l.014-.476c-.069-13.287-10.834-24.086-24.093-24.181-8.425.267-15.448-6.548-15.433-14.994v-296.806c0-4.005 1.599-7.844 4.441-10.661 2.805-2.781 6.591-4.339 10.534-4.339.16.001.317.003.473.007 13.241-.103 23.99-10.88 24.077-24.146-.005-.166-.009-.317-.011-.47-.048-4.009 1.508-7.87 4.322-10.723 2.814-2.852 6.649-4.457 10.652-4.457h300.626c4.003 0 7.838 1.605 10.652 4.457 2.814 2.853 4.369 6.714 4.322 10.723-.002.157-.006.314-.011.471.088 13.284 10.904 24.1 24.186 24.143 8.251.027 14.926 6.734 14.926 15z"/><path d="m302.772 342.416c-6.193 0-11.232 5.047-11.232 11.251.565 14.906 21.901 14.902 22.464 0 0-6.205-5.038-11.251-11.232-11.251z"/><path d="m209.79 342.416c-6.193 0-11.232 5.047-11.232 11.251.565 14.906 21.901 14.902 22.464 0-.001-6.205-5.039-11.251-11.232-11.251z"/></g></svg>