<svg id="Layer_1" enable-background="new 0 0 512 512" height="512" viewBox="0 0 512 512" width="512" xmlns="http://www.w3.org/2000/svg"><g><path d="m46.058 409.501h281.848v32.454h-281.848z"/><path d="m46.058 344.207h281.848v32.453h-281.848z"/><path d="m414.363 16.431c-29.465-.56-53.615 23.246-53.615 52.586v442.983h36.176v-432.472c.706-22.123 31.874-22.469 32.842-.464v432.936h18.662c9.672 0 17.513-7.841 17.513-17.513v-424.587c.001-28.8-22.784-52.923-51.578-53.469z"/><path d="m101.646 0c-30.7 0-55.588 24.888-55.588 55.588v255.777h281.848v-242.348c0-28.327 13.868-53.464 35.159-69.017z"/><path d="m46.058 494.487c0 9.672 7.841 17.513 17.513 17.513h264.335v-37.398h-281.848z"/></g></svg>