<svg id="Layer_1" enable-background="new 0 0 512.033 512.033" height="512" viewBox="0 0 512.033 512.033" width="512" xmlns="http://www.w3.org/2000/svg"><g><path d="m512 148.27c1.598-61.726-55.022-110.027-115.557-99.543-.071.012-.142.022-.212.033l-236.783 34.988v51.251h191.599c15.732-72.101 119.895-62.687 121.818 11.753-1.465 70.639-98.389 84.531-120.193 18.247h-193.224v49.353l220.658 31.166c.521.044 1.044.113 1.569.213.029.006.056.015.085.021l15.182 2.144c.068.01.136.02.203.03 60.348 10.001 116.439-38.222 114.855-99.656z"/><path d="m411.627 285.102c-6.657.001-13.349-.508-20.027-1.539l-1.714-.242-28.413 145.684-.021.105c-1.741 8.81.531 17.841 6.232 24.779 16.026 19.856 49.031 10.946 52.65-14.41l23.529-158.422c-10.484 2.67-21.309 4.045-32.236 4.045z"/><path d="m442.864 146.751c0-17.357-14.122-31.479-31.479-31.479-41.703 1.582-41.692 61.381 0 62.957 17.357 0 31.479-14.121 31.479-31.478z"/><path d="m87.24 85.802h42.208v126.58h-42.208z"/><path d="m57.24 218.425v-138.503l-42.229-22.451c-6.804-3.618-15.011 1.314-15.011 9.02v166.25c0 7.779 8.348 12.704 15.157 8.941z"/><path d="m457.552 393.293h34.146c6.968 0 12.617-5.649 12.617-12.617v-50.745c0-6.968-5.649-12.617-12.617-12.617h-22.776z"/></g></svg>