<svg id="Layer_1" enable-background="new 0 0 512.315 512.315" height="512" viewBox="0 0 512.315 512.315" width="512" xmlns="http://www.w3.org/2000/svg"><g><path d="m60.633 364.841v47.585c.738 19.881 29.269 19.866 30 0v-47.585z"/><path d="m120.86 364.841v47.585c.738 19.881 29.269 19.866 30 0v-47.585z"/><path d="m181.087 364.841v47.585c.738 19.881 29.269 19.866 30 0v-47.585z"/><path d="m.406 364.841v47.585c.738 19.881 29.269 19.866 30 0v-47.585z"/><path d="m131.764 184.747c-56.074 0-103.96 35.031-122.986 84.399h494.758c-19.026-49.368-66.911-84.399-122.986-84.399h-1.392c-8.967 0-15.27-8.826-12.359-17.308l16.301-47.501c5.878-17.129-6.85-34.954-24.96-34.954h-206.309c-18.31 0-31.055 18.191-24.802 35.4l17.017 46.833c3.096 8.522-3.215 17.53-12.282 17.53zm86.08-56.052h76.758c19.881.738 19.866 29.269 0 30h-76.758c-19.88-.738-19.865-29.27 0-30z"/><path d="m511.174 299.146h-510.034c-.748 5.683-1.14 11.478-1.14 17.365v18.33h512.315v-18.33c0-5.887-.392-11.682-1.141-17.365z"/><path d="m421.996 364.841v47.585c.738 19.881 29.269 19.866 30 0v-47.585z"/><path d="m482.223 364.841v47.585c.738 19.881 29.269 19.866 30 0v-47.585z"/><path d="m301.542 364.841v47.585c.738 19.881 29.269 19.866 30 0v-47.585z"/><path d="m361.769 364.841v47.585c.738 19.881 29.269 19.866 30 0v-47.585z"/><path d="m241.315 364.841v47.585c.738 19.881 29.269 19.866 30 0v-47.585z"/></g></svg>