<svg id="Layer_1" enable-background="new 0 0 511.35 511.35" height="512" viewBox="0 0 511.35 511.35" width="512" xmlns="http://www.w3.org/2000/svg"><g><path d="m224.208 174.148c22.124-.821 22.107-32.572 0-33.385h-32.123v-4.361c0-9.933-8.053-17.986-17.986-17.986h-108.315c-9.933 0-17.986 8.052-17.986 17.986v4.361h-31.211c-22.124.821-22.107 32.572 0 33.385h31.211v32.095h-31.211c-22.124.821-22.107 32.572 0 33.385h31.211v32.096h-31.211c-22.124.821-22.107 32.572 0 33.385h31.211v32.095h-31.211c-22.124.821-22.107 32.572 0 33.385h31.211v4.361c0 9.933 8.053 17.986 17.986 17.986h108.315c9.933 0 17.986-8.053 17.986-17.986v-4.361h32.123c22.124-.821 22.107-32.572 0-33.385h-32.123v-32.095h32.123c22.124-.821 22.107-32.572 0-33.385h-32.123v-32.096h32.123c22.124-.821 22.107-32.572 0-33.385h-32.123v-32.095zm-91.217 189.398h-26.099c-22.124-.821-22.107-32.571 0-33.385h26.099c22.124.822 22.107 32.572 0 33.385zm0-60.785h-26.099c-22.124-.821-22.107-32.572 0-33.385h26.099c22.124.821 22.107 32.571 0 33.385zm0-60.787h-26.099c-22.124-.821-22.107-32.571 0-33.385h26.099c22.124.822 22.107 32.572 0 33.385zm0-60.785h-26.099c-22.124-.821-22.107-32.572 0-33.385h26.099c22.124.821 22.107 32.571 0 33.385z"/><path d="m494.764 239.627c22.124-.821 22.107-32.572 0-33.385h-32.123v-32.095h32.123c22.124-.821 22.107-32.572 0-33.385h-32.123v-4.361c0-9.933-8.052-17.986-17.986-17.986h-108.315c-9.933 0-17.986 8.052-17.986 17.986v4.361h-31.211c-22.124.821-22.107 32.572 0 33.385h31.211v32.095h-31.211c-22.124.821-22.107 32.572 0 33.385h31.211v32.096h-31.211c-22.124.821-22.107 32.572 0 33.385h31.211v32.095h-31.211c-22.124.821-22.107 32.572 0 33.385h31.211v4.361c0 9.933 8.052 17.986 17.986 17.986h108.315c9.933 0 17.986-8.053 17.986-17.986v-4.361h32.123c22.124-.821 22.107-32.572 0-33.385h-32.123v-32.095h32.123c22.124-.821 22.107-32.572 0-33.385h-32.123v-32.096zm-91.217 123.919h-26.099c-22.124-.821-22.107-32.572 0-33.385h26.099c22.124.822 22.107 32.572 0 33.385zm0-60.785h-26.099c-22.124-.821-22.107-32.572 0-33.385h26.099c22.124.821 22.107 32.571 0 33.385zm0-60.787h-26.099c-22.124-.821-22.107-32.572 0-33.385h26.099c22.124.822 22.107 32.572 0 33.385zm0-60.785h-26.099c-22.124-.821-22.107-32.572 0-33.385h26.099c22.124.821 22.107 32.571 0 33.385z"/></g></svg>