<svg id="Layer_1" enable-background="new 0 0 512 512" height="512" viewBox="0 0 512 512" width="512" xmlns="http://www.w3.org/2000/svg"><g><path d="m87.387.237c-28.827-.052-52.416 24.045-51.439 52.903 2.607 27.754 10.628 46.683 17.073 61.895 3.693 8.716 6.883 16.242 8.695 24.178.044.195.093.39.145.583.882 3.254-.052 6.756-2.436 9.14l-18.781 18.782c-10.347 10.346-10.945 27.112-1.363 38.17l13.389 15.452c1.448 1.671 1.448 4.192 0 5.863l-13.647 15.75c-9.426 10.877-9.115 27.002.723 37.51l11.886 12.694c1.609 1.717 1.607 4.406-.003 6.123l-11.255 11.995c-10.421 11.107-10.144 28.24.63 39.004l8.623 8.614c1.202 1.201 1.337 2.602 1.311 3.33-.027.729-.263 2.117-1.548 3.226l-6.145 5.306c-12 9.94-12.937 29.532-1.946 40.575l16.14 16.889c2.908 6.497 3.387 13.751 1.329 20.627-.073.244-.139.488-.2.734l-10.738 43.891c-1.965 8.03 2.952 16.132 10.981 18.097 1.195.292 2.391.432 3.569.432 6.735-.001 12.855-4.58 14.527-11.414l10.656-43.547c4.353-14.91 2.779-30.677-4.447-44.442-.649-1.236-1.468-2.375-2.431-3.383l-16.356-17.114 4.625-3.993c7.216-6.231 11.554-15.268 11.9-24.796.347-9.527-3.322-18.857-10.067-25.596l-7.314-7.306 9.988-10.645c12.376-13.191 12.385-33.865.023-47.067l-10.711-11.438 12.521-14.45c11.133-12.847 11.133-32.224 0-45.072l-12.225-14.108 17.523-17.524c9.873-9.871 13.784-24.337 10.246-37.827-2.406-10.399-6.219-19.399-10.254-28.922-6.154-14.522-12.515-29.534-14.757-52.24 1.829-28.128 42.115-27.567 43.129.644l.546 445.288c.01 8.26 6.709 14.949 14.968 14.949h.019c8.266-.01 14.959-6.72 14.949-14.986l-.546-445.269c0-28.401-23.106-51.505-51.505-51.505z"/><path d="m311.987 269.043c9.425-10.879 9.113-27.004-.724-37.509l-11.886-12.693c-1.608-1.718-1.607-4.408.003-6.124l11.255-11.994c10.421-11.108 10.144-28.24-.63-39.005l-8.624-8.614c-1.202-1.201-1.336-2.602-1.31-3.33.026-.729.263-2.117 1.547-3.225l6.147-5.307c5.784-4.994 9.311-12.237 9.677-19.87.365-7.633-2.453-15.18-7.732-20.705l-16.14-16.889c-2.908-6.497-3.387-13.751-1.329-20.627.073-.244.139-.488.2-.735l10.739-43.891c3.999-19.443-23.657-26.195-29.078-7.114l-10.655 43.547c-4.354 14.911-2.779 30.677 4.447 44.442.649 1.236 1.468 2.375 2.431 3.383l16.355 17.114-4.625 3.991c-7.216 6.231-11.554 15.269-11.901 24.797-.346 9.528 3.323 18.857 10.068 25.596l7.315 7.306-9.989 10.645c-12.375 13.19-12.385 33.865-.023 47.068l10.711 11.438-12.521 14.449c-11.133 12.847-11.133 32.223 0 45.072l12.225 14.108-17.524 17.525c-9.871 9.87-13.781 24.337-10.245 37.826 2.405 10.399 6.219 19.399 10.254 28.922 6.154 14.523 12.515 29.534 14.757 52.241-1.829 28.128-42.115 27.569-43.129-.644l-.546-445.288c-.009-8.26-6.708-14.949-14.967-14.949h-.019c-8.266.01-14.959 6.72-14.949 14.986l.546 445.269c2.815 69.195 102.172 67.746 102.944-1.399-3.547-39.902-17.312-56.092-25.769-86.072-.044-.195-.093-.389-.145-.582-.882-3.255.052-6.758 2.436-9.142l18.781-18.782c10.347-10.347 10.945-27.112 1.363-38.17l-13.389-15.452c-1.448-1.671-1.448-4.191 0-5.862z"/><path d="m479.299 51.741c-2.814-69.194-102.173-67.745-102.944 1.399 2.607 27.754 10.628 46.683 17.073 61.895 3.693 8.716 6.883 16.242 8.695 24.178.044.195.093.39.145.583.882 3.254-.052 6.756-2.436 9.14l-18.781 18.782c-10.347 10.346-10.945 27.112-1.363 38.17l13.389 15.452c1.448 1.671 1.448 4.192 0 5.863l-13.647 15.75c-9.426 10.877-9.115 27.002.723 37.51l11.886 12.694c1.609 1.717 1.607 4.406-.003 6.123l-11.255 11.995c-10.421 11.107-10.144 28.24.63 39.004l8.623 8.614c1.202 1.201 1.337 2.602 1.311 3.33-.027.729-.263 2.117-1.548 3.226l-6.145 5.306c-12 9.94-12.937 29.532-1.946 40.575l16.14 16.889c2.908 6.497 3.387 13.751 1.329 20.627-.073.244-.139.488-.2.734l-10.74 43.891c-1.965 8.03 2.952 16.132 10.981 18.097 1.196.292 2.391.433 3.569.433 6.735-.001 12.855-4.58 14.527-11.414l10.656-43.547c4.353-14.91 2.779-30.677-4.447-44.442-.649-1.236-1.468-2.375-2.431-3.383l-16.354-17.115 4.625-3.993c7.216-6.231 11.554-15.268 11.9-24.796.347-9.527-3.322-18.857-10.067-25.596l-7.314-7.306 9.988-10.645c12.376-13.191 12.385-33.865.023-47.067l-10.711-11.438 12.521-14.45c11.133-12.847 11.133-32.224 0-45.072l-12.225-14.108 17.523-17.524c9.873-9.871 13.784-24.337 10.246-37.827-2.406-10.399-6.219-19.399-10.254-28.922-6.154-14.522-12.515-29.534-14.757-52.24 1.829-28.128 42.115-27.567 43.129.644l.546 445.288c.01 8.26 6.709 14.949 14.968 14.949h.019c8.266-.01 14.959-6.72 14.949-14.986z"/></g></svg>