<svg id="Layer_1" enable-background="new 0 0 512.214 512.214" height="512" viewBox="0 0 512.214 512.214" width="512" xmlns="http://www.w3.org/2000/svg"><g><path d="m94.033 424.962h324.149v-184.598h-324.149zm44.207-116.557c0-8.232 6.635-14.927 14.868-14.999 7.872-.076 14.422 5.962 15.078 13.711.697.693 2.257 1.494 3.25 1.499.176.001.351.005.525.012 4.168-.095 8.521-2.858 10.465-6.687 13.545-27.626 51.925-33.99 73.682-12.971 21.734-21.013 60.138-14.644 73.653 12.915 1.972 3.883 6.327 6.647 10.495 6.743.174-.007.349-.011.524-.012.992-.005 2.553-.806 3.25-1.499.655-7.748 7.206-13.787 15.078-13.711 8.232.072 14.868 6.767 14.868 14.999v10.371c.833 60.743-78.132 93.719-117.867 46.384-39.753 47.351-118.707 14.331-117.867-46.384v-10.371z"/><path d="m207.621 357.728c18.464 0 33.486-15.021 33.486-33.486v-.927c-.125-17.656-23.826-23.382-31.961-7.734-6.827 13.444-20.545 22.282-35.424 23.003 6.865 11.45 19.491 19.144 33.899 19.144z"/><path d="m304.593 357.728c14.408 0 27.034-7.693 33.899-19.145-14.879-.72-28.599-9.562-35.453-23.06-8.141-15.585-31.821-9.833-31.933 7.791v.927c.001 18.465 15.023 33.487 33.487 33.487z"/><path d="m400.271 163.387-82.856-14.741c-10.363-1.844-17.911-10.854-17.911-21.379v-14.957h-89.89v15.042c0 10.488-7.496 19.476-17.812 21.361l-79.956 14.606c-10.317 1.885-17.812 10.874-17.812 21.361v25.683h324.149v-25.598c-.001-10.524-7.55-19.534-17.912-21.378z"/><path d="m204.799 82.311h102.616c7.165 0 12.973-5.808 12.973-12.973v-56.365c0-7.165-5.808-12.973-12.973-12.973h-102.616c-7.165 0-12.973 5.808-12.973 12.973v56.365c0 7.164 5.808 12.973 12.973 12.973z"/><path d="m94.033 490.5c0 11.992 9.722 21.715 21.715 21.715h280.72c11.993 0 21.715-9.722 21.715-21.715v-35.538h-324.15z"/></g></svg>