<svg id="Layer_1" enable-background="new 0 0 512 512" height="512" viewBox="0 0 512 512" width="512" xmlns="http://www.w3.org/2000/svg"><g><path d="m279.801 124.336c19.687 0 35.703-16.017 35.703-35.704v-.97c-.136-19.172-25.872-25.389-34.706-8.396-7.203 14.185-21.852 23.393-37.604 23.738 7.157 12.713 20.884 21.332 36.607 21.332z"/><path d="m223.523 338.574h54.173v44.957h-54.173z"/><path d="m381.249 124.336c15.723 0 29.45-8.619 36.607-21.332-15.753-.344-30.401-9.554-37.633-23.796-8.84-16.929-34.555-10.685-34.677 8.454v.97c0 19.687 16.016 35.704 35.703 35.704z"/><path d="m60.078 366.698c21.168.12 40.565 7.957 55.519 20.822v-331.515c-2.825-74.215-109.211-74.159-112.009 0v331.406c15.711-13.518 35.573-20.834 56.49-20.713z"/><path d="m115.597 462.325v-9.581c0-30.707-24.982-55.831-55.689-56.004-15.003-.088-29.159 5.701-39.806 16.291-10.65 10.591-16.515 24.694-16.515 39.713v9.581c.001 27.435 22.241 49.675 49.676 49.675h385.084c8.851 0 16.027-7.176 16.027-16.027v-18.628h-323.757c-8.295 0-15.02-6.725-15.02-15.02z"/><path d="m492.386 0h-289.543c-31.593 0-57.205 25.611-57.205 57.205v390.1h346.748c8.851 0 16.027-7.175 16.027-16.026v-415.253c-.001-8.851-7.176-16.026-16.027-16.026zm-284.495 72.066c0-8.244 6.644-14.947 14.888-15.02 7.961-.077 14.571 6.091 15.116 13.958.71.824 2.658 1.945 4.047 1.953.187.001.373.006.558.014 4.664-.096 9.365-3.077 11.542-7.363 14.095-28.745 54.141-35.107 76.483-12.947 22.319-22.155 62.389-15.785 76.454 12.889 2.205 4.343 6.907 7.325 11.571 7.421.185-.008.371-.013.558-.014 1.389-.008 3.337-1.128 4.047-1.952.545-7.869 7.155-14.036 15.116-13.959 8.244.072 14.888 6.776 14.888 15.02v10.849c0 39.404-32.259 71.462-71.91 71.462-20.398 0-38.655-9.338-50.723-23.963-40.89 49.84-123.503 15.788-122.634-47.499v-10.849zm99.846 326.485c0 8.296-6.725 15.021-15.02 15.021h-84.214c-8.295 0-15.02-6.725-15.02-15.021v-74.998c0-8.295 6.725-15.021 15.02-15.021h84.214c8.295 0 15.02 6.725 15.02 15.021zm143.273 5.547h-90.491c-19.908-.739-19.893-29.309 0-30.041h90.491c19.908.739 19.893 29.309 0 30.041zm0-65.524h-90.491c-19.908-.739-19.893-29.309 0-30.041h90.491c19.908.739 19.893 29.309 0 30.041zm0-64.587h-242.507c-19.908-.739-19.893-29.309 0-30.041h242.507c19.908.739 19.893 29.309 0 30.041zm0-59.805h-242.507c-19.908-.739-19.893-29.309 0-30.041h242.507c19.908.739 19.893 29.309 0 30.041z"/></g></svg>