<svg id="Layer_1" enable-background="new 0 0 512 512" height="512" viewBox="0 0 512 512" width="512" xmlns="http://www.w3.org/2000/svg"><g><path d="m494.073 214.797h-166.292c-4.857 22.978-7.341 46.191-7.43 69.481h191.649v-51.553c0-9.902-8.026-17.928-17.927-17.928z"/><path d="m255.054 394.498c24.856.863 44.456-22.803 39.22-46.964-12.221-62.257-5.633-122.949 14.184-183.347 13.826-40.977 35.139-81.546 62.409-119.104 4.415-6.09-3.297-13.601-9.288-9.052-90.752 68.009-145.518 180.247-144.664 293.814v24.849c.001 21.341 16.804 39.298 38.139 39.804z"/><path d="m201.152 214.797h-183.225c-9.901 0-17.927 8.026-17.927 17.927v51.553h187.216c2.565-23.53 7.219-46.757 13.936-69.48z"/><path d="m325.682 341.051c9.463 43.634-25.606 86.458-70.388 85.523-39.169-.38-70.447-32.883-70.447-72.054v-26.909c0-3.76.072-7.514.177-11.264h-185.024v143.091c0 9.901 8.026 17.927 17.927 17.927h476.145c9.901 0 17.927-8.026 17.927-17.927v-143.091h-190.269c.702 7.167 1.965 15.078 3.952 24.704zm-260.798 89.63c-8.284 0-15-6.716-15-15 .735-19.876 29.268-19.87 30 0 0 8.284-6.716 15-15 15zm68.425-60.6c-8.284 0-15-6.716-15-15 .735-19.876 29.268-19.87 30 0 0 8.284-6.716 15-15 15zm318.498 25.463c8.284 0 15 6.716 15 15-.736 19.876-29.268 19.87-30 0 0-8.285 6.716-15 15-15zm-80.383-21.705c8.284 0 15 6.716 15 15-.735 19.876-29.268 19.87-30 0 0-8.284 6.716-15 15-15z"/></g></svg>