<svg id="Layer_1" enable-background="new 0 0 512.033 512.033" height="512" viewBox="0 0 512.033 512.033" width="512" xmlns="http://www.w3.org/2000/svg"><g><path d="m181.661 151.829 177.274 177.275 33.799-33.799-177.275-177.274z"/><path d="m367.544 226.383 91.948-91.949c6.039-6.038 6.039-15.828 0-21.866-6.038-6.038-15.828-6.038-21.866 0l-91.948 91.948z"/><path d="m159.795 173.696-21.435 21.434c-26.201 26.2-26.201 68.68 0 94.881 7.05 7.05 7.05 18.481 0 25.531l-126.583 126.584c-15.702 15.702-15.702 41.16 0 56.862s41.16 15.702 56.862 0l126.584-126.584c7.05-7.05 18.481-7.05 25.531 0 26.201 26.201 68.68 26.201 94.881 0l21.434-21.434z"/><path d="m307.902 166.74 91.948-91.948c6.039-6.038 6.039-15.828 0-21.866-6.038-6.038-15.828-6.038-21.866 0l-91.948 91.948z"/><path d="m349.629 27.663c6.039-6.038 6.039-15.828 0-21.866-6.038-6.038-15.828-6.038-21.866 0l-90.402 90.402 21.866 21.866z"/><path d="m507.504 158.518c-6.038-6.038-15.828-6.038-21.866 0l-92.98 92.979 21.866 21.866 92.979-92.98c6.04-6.037 6.04-15.828.001-21.865z"/></g></svg>