<?xml version="1.0" encoding="UTF-8"?>
<svg id="Camada_2" data-name="Camada 2" xmlns="http://www.w3.org/2000/svg" viewBox="0 0 246.95 209.17">
  <defs>
    <style>
      .cls-1 {
        fill: #ff0;
      }
    </style>
  </defs>
  <g id="Camada_1-2" data-name="Camada 1">
    <path d="M85.51,105.33c19.93-3.21,34.72-19.93,34.72-45,0-31.83-16.4-53.69-57.55-53.69H0v202.52h63.02c42.1,0,61.08-20.57,61.08-55.94,0-26.69-14.47-43.07-38.58-47.9ZM45.98,44.25h10.6c16.08,0,19.93,9.97,19.93,22.82s-3.85,21.87-19.93,21.87h-10.6v-44.69ZM57.87,171.24h-11.9v-46.62h11.9c16.39,0,20.89,9.32,20.89,23.47s-4.5,23.15-20.89,23.15Z"/>
    <path class="cls-1" d="M236.01,146.91h-26.03l-9,55.61h-13.49l8.68-55.61h-25.08l-8.68,55.61h-13.82l8.99-55.61h-23.78l1.6-13.18h24.12l10.93-67.52h-27.33l1.61-13.18h27.97L181.37,0h13.49l-8.68,53.03h25.08L219.94,0h13.83l-8.69,53.03h21.87l-1.61,13.18h-22.51l-10.93,67.52h25.72l-1.61,13.18ZM173.33,133.73h25.08l10.93-67.52h-25.08l-10.93,67.52Z"/>
  </g>
</svg>