<svg xmlns="http://www.w3.org/2000/svg" viewBox="0 0 189.848 128.395">
  <g>
    <path d="M188.823,89.552c-.1-6.015-.045-12.037.033-18.054.049-3.769-.351-7.487-.675-11.217a7.571,7.571,0,0,0-.4-2.52c-.769-1.747-2.458-2.476-3.886-3.282-1.753-.988-2.981-1.822-1.964-4a1.274,1.274,0,0,0,.025-.493c.011-.752.284-1,.992-.566.67.406,1.375.752,2.051,1.149,1.625.954,2.467.617,2.925-1.221a61.154,61.154,0,0,0,1.333-10.383c.4-5.433.275-10.9.576-16.352a7.113,7.113,0,0,0-2.6-6.262,32.219,32.219,0,0,0-5.859-3.936,44.951,44.951,0,0,0-7.768-2.552A175.043,175.043,0,0,0,150.9,5.14q-6.807-.975-13.62-1.907c-3.063-.419-6.152-.685-9.188-1.243-2.281-.42-4.583-.495-6.87-.751a26.647,26.647,0,0,0-5.949-.053,17.316,17.316,0,0,1-5.8-.062,58.726,58.726,0,0,0-8.722-.97C96.494-.2,92.222.161,87.959.187,85.481.2,83,.385,80.529.616c-5.263.491-10.515,1.11-15.78,1.589S54.243,3.317,49.028,4.157c-5.536.891-10.977,2.262-16.46,3.422-6.6,1.4-13.189,2.818-19.708,4.56a23.963,23.963,0,0,0-8.227,3.914,7.126,7.126,0,0,0-2.694,3.165,18.306,18.306,0,0,0-1.285,6.62c.022,1.356-.029,2.717-.047,4.071C.573,32.4.049,34.828.007,37.315-.055,40.915.338,44.5.263,48.1a9.271,9.271,0,0,0,.914,3.826,1.568,1.568,0,0,0,1.783.986,8.692,8.692,0,0,0,2.545-.735,33.668,33.668,0,0,0,.562,3.885c.262,1.008.11,1.516-.878,1.987C2.25,59.447,1,61.87.912,65.112c-.1,3.848.535,7.656.369,11.508-.15,3.468-.089,6.944,0,10.421.119,4.779-.233,9.565.268,14.345.148,1.414-.368,3-.094,4.262a51.033,51.033,0,0,1,.41,5.333c.213,1.873.14,3.8.518,5.651.28,1.369.4,2.972,1.752,3.813.87.542,1.688,1.168,2.592,1.655a37.441,37.441,0,0,0,15.418,4.214c2.018.14,4.041.166,6.062.289,4.98.3,9.95.749,14.929,1.023,6.444.355,12.905.174,19.358.573,8.069.5,16.142-.08,24.211-.355,5.664-.192,11.33-.306,16.995-.46,7.1-.194,14.205-.491,21.31-.553q6.753-.058,13.514.38a144.2,144.2,0,0,0,18.307-.377c2.632-.161,5.27-.216,7.9-.406,5.082-.369,10.161-.783,15.238-1.21,2.8-.237,4.959-1.4,6.088-4.181.5-1.241.619-2.546.992-3.8a13.489,13.489,0,0,0,.853-3.571c.147-4.7.7-9.378.9-14.073C188.944,96.253,188.877,92.9,188.823,89.552ZM3.046,51.784c-.3.062-.553.13-.792-.111a9.357,9.357,0,0,1-.674-3.239c.194-.376.621-.37.949-.477a161.267,161.267,0,0,1,23.788-6.192c6.167-1.015,12.277-2.38,18.4-3.654,4.737-.986,9.544-1.4,14.337-1.939,3.568-.4,7.133-.838,10.708-1.162,4.071-.368,8.152-.635,12.229-.936,2.017-.149,4.037-.27,6.054-.423.309-.024.676.011.895-.36a6.188,6.188,0,0,0-3.3-.281c-2.238.155-4.472.083-6.706.037-5.386-.111-10.735.458-16.093.843-3.79.273-7.574.65-11.353,1.051a109,109,0,0,0-15.545,2.875C29.636,39.43,23.17,40.2,16.83,41.622A97.466,97.466,0,0,0,2.068,46.516c-.146.059-.3.107-.45.163-.444-2-.453-2.022,1.373-2.644,2.9-.988,5.821-1.94,8.736-2.9a1.228,1.228,0,0,0,.881-.681c-3.948.639-7.554,1.71-11.217,2.661-.352-.865-.187-1.3.872-1.706,5.527-2.146,11.419-2.906,17.055-4.627,5.206-1.589,10.533-2.719,15.825-3.977.154-.037.333-.017.384-.375A8.1,8.1,0,0,0,32,32.808Q19.682,35.215,7.453,38.066a61.656,61.656,0,0,0-6.089,2.069,1.719,1.719,0,0,1,1.343-2.251,164.352,164.352,0,0,1,20.486-5.5c.417-.083.908.2,1.211-.433A106.537,106.537,0,0,0,1.459,37.043c.076-.778.144-1.609.241-2.436.064-.548.534-.517.928-.626Q8.9,32.25,15.169,30.5a2.4,2.4,0,0,0,1.273-.649,9.607,9.607,0,0,0-3.715.375c-3.294.668-6.607,1.259-9.84,2.214-.311.092-1.017.838-1.119-.091-.067-.607-.6-1.534.628-1.919,3.393-1.065,6.788-2.106,10.238-2.983,6.654-1.69,13.449-2.668,20.148-4.125.713-.155,1.415-.362,2.206-.567-2.246-1.274-24.828,2.993-33.1,6.175-.278-.612.056-.8.577-1.047A93.891,93.891,0,0,1,16.5,23.065,97.9,97.9,0,0,1,31.2,19.652c3.47-.45,6.953-.8,10.434-1.158,4.14-.428,8.28-.882,12.429-1.214,4.276-.343,8.528-.9,12.817-1.143,5.77-.326,11.562-.363,17.3-1.169.458-.064.905-.211,1.358-.32l-.022-.3c-.75-.069-1.5-.2-2.249-.2-4.095.021-8.184.179-12.267.526-2.961.251-5.932.4-8.889.7-4.263.424-8.516.95-12.775,1.41-2.458.265-4.922.475-7.381.726-2.867.293-5.734.588-8.6.908-8.394.941-16.451,3.325-24.493,5.763a43.024,43.024,0,0,0-5.714,2.217c-.352.164-.663.491-1.126.36-.177-1.138.328-1.624,1.42-1.959a260.6,260.6,0,0,1,26.631-7.112c5.039-.98,10.091-1.933,15.187-2.615,4.442-.6,8.858-1.383,13.305-1.932C62.5,12.65,66.457,12.4,70.4,12c5.91-.595,11.835-.077,17.745-.272,11.611-.384,23.171.666,34.756.964,1.609.041,3.22.055,4.849.083-.212-.472-.775-.453-1.237-.579a39.939,39.939,0,0,0-8.585-1.063c-8.433-.415-16.838-1.37-25.3-1.171-5.75.136-11.507.02-17.256.188-3.337.1-6.671.473-9.994.836-3.9.426-7.816.652-11.7,1.223-6.757.992-13.518,1.956-20.219,3.286a1.815,1.815,0,0,1-1.156-.008,98.212,98.212,0,0,1,13.622-3.41c7.59-1.378,15.188-2.7,22.826-3.779,2.723-.383,5.495-.408,8.237-.676,4.051-.4,8.122-.5,12.169-.984,2.366-.284,4.768-.255,7.15-.426,2.24-.161,4.5-.1,6.871-.5-.352-.535-.754-.38-1.059-.379-3.762.012-7.533-.1-11.284.123-2.817.167-5.621-.076-8.425.058-4.357.207-8.711.5-13.067.746a188.5,188.5,0,0,0-32.249,5.011c-7.114,1.662-14.214,3.466-21.189,5.69-3.176,1.013-6.5,1.572-9.485,3.172-.453.243-1.2.344-.94,1.05.218.591.916.518,1.433.391,1.838-.452,3.665-.948,5.492-1.445a1.114,1.114,0,0,1,.963.024c-3.7.993-7.147,2.369-10.634,3.637-.477-3.446.86-5.9,4.011-7.188a116.576,116.576,0,0,1,24.64-7.059C38.24,8.382,45.134,7.455,52,6.329c4.147-.68,8.361-.958,12.547-1.393,4.024-.418,8.05-.811,12.077-1.2,1.688-.165,3.387-.114,5.08-.192,5.538-.258,11.079-.43,16.63-.325,6.819.128,13.638-.415,20.46-.1A75.554,75.554,0,0,1,128.1,4.3c6.183,1.062,12.356,2.172,18.541,3.215,7.878,1.329,15.727,2.791,23.472,4.774,3.644.934,7.379,1.509,10.938,2.78a21.021,21.021,0,0,1,6.562,4.161c.53.456.364,1.132.718,1.893-8.853-2.748-17.245-6.44-26.926-5.842a11.208,11.208,0,0,0,4.127,1.252,140.6,140.6,0,0,1,19.528,5.228c.431.141.864.274,1.3.4,1.9.562,1.9.561,1.65,2.668-5.928-2.29-11.922-4.251-18.355-4.249a12.925,12.925,0,0,0,4.53,1.333,80.182,80.182,0,0,1,13.185,4.047c1.217.484.61,1.671,1.049,2.658a52.352,52.352,0,0,0-6.67-2.2,3.969,3.969,0,0,0,1.872,1.411c1.206.532,2.422,1.042,3.617,1.6,1.055.491,1.044.513.938,1.912-5.181-2.161-10.676-3.055-16.239-4.63.507,1.121,1.381,1.208,2.092,1.423,3.5,1.059,7.055,1.9,10.488,3.166,1,.37,1.954.9,2.971,1.216.788.247.822.671.592,1.358-6.5-2.879-13.45-3.944-20.347-5.236a12.3,12.3,0,0,0,3.918,1.463c4.077,1.122,8.236,1.951,12.212,3.43.924.344,1.8.845,2.735,1.13a1.939,1.939,0,0,1,1.547,2.555c-.448,2.159-.221,4.365-.4,6.749A33.937,33.937,0,0,0,174.7,39.172a14.991,14.991,0,0,0,4.026,1.908,57.4,57.4,0,0,1,8.409,4.18c.844.455.058,1.008.019,1.476-.049.609-.519.293-.825.094-5.278-3.434-11.24-5.162-17.194-6.916a1.539,1.539,0,0,0-1.353.06c1.316.488,2.442.9,3.566,1.322,4.472,1.674,9.039,3.13,13.125,5.692.629.4,1.244.813,1.862,1.226.639.427.334.953.095,1.418-.295.574-.619.017-.885-.068-3.093-1-5.8-2.878-8.953-3.778a94.217,94.217,0,0,0-15.155-3.247c-4.776-.548-9.56-1.06-14.327-1.686-4.161-.546-8.353-.837-12.5-1.464-4.456-.674-8.936-.844-13.411-1.2-1.379-.109-2.662-.8-4.084-.876-1.186-.063-2.358-.366-3.545-.451-6.318-.451-12.652-.611-18.979-.524a111.429,111.429,0,0,0-11.831.655c-2.268.275-4.6.277-6.9.476-3.487.3-6.969.649-10.455.957-1.846.163-3.7.3-5.545.418A69.075,69.075,0,0,0,49.313,40.58a168.1,168.1,0,0,1-20.378,3.361,57.193,57.193,0,0,0-13.4,3.342c-3.073,1.091-6.188,2.084-9.189,3.348A17.6,17.6,0,0,1,3.046,51.784ZM186.931,108.79c-.451,1.485-.141,3.037-.5,4.542-.174.74-.362.835-1.076.889-4.23.318-8.43-.45-12.65-.284l-.7.026c1.061,1.075,2.424,1.019,3.682,1.193,2.206.306,4.436.434,6.658.618a18.085,18.085,0,0,0,1.863.046c.6-.013,1.652-.483,1.7-.054a4.827,4.827,0,0,1-.426,2.733.681.681,0,0,1-.736.338c-1.037-.07-2.061.185-3.083.176-5.3-.047-10.6.262-15.894.035-1.426-.061-2.825.43-4.28.153.793.919,1.911.888,2.9,1a123.424,123.424,0,0,0,16.743.272,18.752,18.752,0,0,1,2.887-.114c-.7,2.33-2.506,2.771-4.61,3.113a110.85,110.85,0,0,1-11.289,1.07c-4.857.286-9.722.387-14.578.589-6.4.268-12.787.585-19.183.291-1.976-.091-3.957-.368-5.931-.275-4.3.2-8.6-.028-12.9.046-1.418.024-2.821.618-4.275.376-4.121-.686-8.263-.154-12.388-.145-9.6.023-19.2.153-28.793.64-3.592.182-7.2-.028-10.8.15-6.17.306-12.332.051-18.5-.1-4.127-.1-8.26-.325-12.368-.723-2.582-.25-5.184-.168-7.746-.585a41.7,41.7,0,0,1-7.324-1.984,14.652,14.652,0,0,1-4.3-1.9c.987.111,1.73.128,2.441.287,3.739.838,7.56.839,11.35,1.093,4.048.272,8.034,1.021,12.079,1.335,4.463.345,8.922.55,13.393.651,4.385.1,8.759.481,13.156.22,6.683-.4,13.374-.616,20.038-1.341,2.637-.287,5.279-.533,7.942-1.075-1.358-.14-2.714-.331-4.076-.409a111.4,111.4,0,0,0-12.641.444c-6.938.386-13.879.718-20.844.527-6.293-.172-12.581-.364-18.852-.9-4.078-.349-8.137-.958-12.219-1.2-5.126-.3-10.178-1.129-15.258-1.768a2.019,2.019,0,0,1-2.038-1.811c-.442-2.239-.528-2.25,1.666-1.661,5.942,1.6,12.017,2.129,18.129,2.645,9.385.791,18.78.741,28.174.856a70.269,70.269,0,0,0,14.622-1.456c.215-.043.392-.1.523-.487l-1.029-.017c-10.85-.164-21.707.126-32.55-.322-9.419-.389-18.848-.874-28.048-3.247a4.567,4.567,0,0,0-1.225-.171c-.685.015-.912-.235-.907-.943.012-1.808-.02-1.84,1.81-1.562,8.925,1.357,17.914.84,26.882.938a10.707,10.707,0,0,0,1.789-.317,7.22,7.22,0,0,0-3.664-.875c-5.913-.263-11.818-.723-17.751-.441a43.977,43.977,0,0,1-8.373-.893c-1.263-.184-.48-1.45-.562-2.2-.079-.721.556-.344.9-.312a68.066,68.066,0,0,0,10.911.127q3.336-.229,6.672-.457c.442-.03.918.09,1.3-.305-.367-.539-.918-.411-1.416-.443-3.149-.2-6.288.172-9.435.151-2.819-.019-5.624-.222-8.43-.449-.5-.04-.794-.189-.74-.74a3.568,3.568,0,0,0,0-.373c-.018-1.893-.018-1.842,1.9-1.844,5.212-.006,10.416-.218,15.606-.728a1.529,1.529,0,0,0,1.148-.649c-1.363-.125-2.726-.347-4.09-.359-4.514-.041-9.03,0-13.545-.011-.387,0-1.021.208-1.121-.228a6.158,6.158,0,0,1,.02-2.088c.035-.285.422-.15.646-.136,3.607.219,7.173-.366,10.759-.548a30.92,30.92,0,0,0,6.316-.972c.2-.053.407-.077.477-.515-2.441.087-4.847.16-7.252.263-3.346.143-6.693.278-10.036.482-1,.061-1.343-.253-1.192-1.226a9.694,9.694,0,0,0,.033-1.339,79.635,79.635,0,0,0,8.106-.375c-1.221-1.195-6.094-1.4-7.985-.483-.033-.062-.1-.123-.1-.185-.05-2.092-.045-2.063,2.054-2.365,2.052-.3,4.094-.659,6.138-1.118A17.42,17.42,0,0,0,2.6,89.338c-.166-1.758-.176-1.807,1.5-2.156,4.1-.851,8.218-1.65,12.327-2.478.432-.087.854-.224,1.381-.365a1.976,1.976,0,0,0-2.077-.589c-4.445.527-8.949.7-13.395,2.262.021-1.244.049-2.383.055-3.522,0-.637.461-.654.912-.779,2.818-.782,5.75-.944,8.593-1.571a134.688,134.688,0,0,1,16.519-2.135c1.844-.174,3.7-.3,5.547-.461.229-.021.51.074.661-.455-2.037-.034-4.032-.223-6-.07a147.727,147.727,0,0,0-17.169,2.147C8.8,79.69,6.149,80.244,3.462,80.61c-.582.079-.956.3-1.157-.52-.19-.772-.036-1.089.722-1.35a52.1,52.1,0,0,1,6.455-1.6c2.654-.549,5.315-1.066,7.971-1.611a2.341,2.341,0,0,0,1.176-.576,78.862,78.862,0,0,0-16.276,2c-.339-.993-.045-1.484,1.069-1.763A138.444,138.444,0,0,1,23.449,71.6a95.047,95.047,0,0,0,9.891-1.17c-.932-.908-2.062-.755-3.063-.739a96.7,96.7,0,0,0-12.221.939A112.075,112.075,0,0,0,3.011,73.862c-.76.217-.734-.051-.721-.581.037-1.533.062-3.066.084-4.6a.834.834,0,0,1,.631-.886,116.01,116.01,0,0,1,21.13-6.318c3.651-.778,7.311-1.51,10.964-2.272.468-.1.987.108,1.457-.219-1.649-.808-8.529.008-17.325,1.99A89.841,89.841,0,0,0,2.44,66.313c-.094-3.123.726-5.551,3.6-7.1A63.728,63.728,0,0,1,24.457,52.5c4.754-.908,9.477-2.007,14.27-2.672q5.54-.768,11.137-1.147c3.486-.234,6.954-.721,10.436-1.018,3.659-.311,7.322-.594,10.989-.772q9.36-.451,18.727-.746c4.63-.149,9.263-.277,13.895-.262,7.48.023,14.961.1,22.423.786,5.026.463,10.049,1,15.1,1.082,5.313.084,10.526,1.085,15.761,1.842,6.09.88,12.134,2.063,18.122,3.47a34.023,34.023,0,0,1,9.6,3.923c1.7,1.015,2.277,3.1,2.294,5.09.021,2.6-.477,5.182-.342,7.793.182,3.521.109,7.048.22,10.572.135,4.323-.065,8.657-.152,12.985a11.927,11.927,0,0,0-.249,2.226,37.8,37.8,0,0,0-9.911-1.044c-.946.026-1.892.1-2.834.2-.387.042-.924.11-.9.629.029.539.593.36.9.366,3.021.064,6.042.083,9.063.129.951.015,1.906.148,2.85.084.727-.049.8.234.8.836.017,2.02-.164,2.217-2.079,1.772a28.435,28.435,0,0,0-6.4-.531,1.252,1.252,0,0,0-.606.075c-.221.13-.675.1-.6.49.06.3.39.388.7.392,1.447.019,2.9.007,4.34.073a19.217,19.217,0,0,1,3.336.247c1.572.348,1.583.3,1.37,1.983a9.426,9.426,0,0,0-4.728-.232c-.345.1-.683.142-.624.586s.451.43.776.418c1.279-.05,2.56-.094,3.837-.188.669-.05.866.213.82.845a11.568,11.568,0,0,0-.009,1.987c.2,1.928.215,1.963-1.759,1.879-4-.17-7.959-.9-11.976-1-3.928-.1-7.851-.391-11.774-.636-2.185-.135-4.365-.485-6.548-.49a57.9,57.9,0,0,0-8.329.315c.215.66.7.683,1.188.7q6.575.232,13.15.467a165.835,165.835,0,0,1,17.882,1.225c2.451.353,4.934.494,7.408.668C186.7,107.946,187.151,108.067,186.931,108.79Z"/>
    <path d="M99.084,86.146a6.833,6.833,0,0,1-.545,2.626c-.771,1.837-1.508,3.69-2.238,5.544a1.54,1.54,0,0,0,.595,1.971,1.393,1.393,0,0,0,1.789-.36c.607-.56,1.177-1.163,1.736-1.773,2.333-2.545,5.246-4.314,8.112-6.163a2.476,2.476,0,0,1-.372.786,10.8,10.8,0,0,0-1.686,4.06,2.974,2.974,0,0,0,1.387,3.2,2.516,2.516,0,0,0,3.005-.818,14.752,14.752,0,0,0,1.354-1.61c.531-.734,1-1.511,1.559-2.359.688,2.822,1.9,3.8,4.012,3.28a8.446,8.446,0,0,0,4-2.4c.6-.609,1.179-1.236,1.821-1.91.716,2.311,1.811,2.929,3.554,2.133a5.934,5.934,0,0,0,1.9-1.577c.474-.531.923-1.085,1.484-1.749.039.454.047.7.083.946.364,2.513,1.633,3.434,4.094,2.909a12.975,12.975,0,0,0,4.309-1.851c.362-.233.665-.482,1.044.015,1.163,1.523,2.793,1.526,4.392,1.092a48.707,48.707,0,0,0,11-4.159,8.107,8.107,0,0,0,2.959-2.313c-3.377,1.185-6.818,2.015-10.193,3.056a12.216,12.216,0,0,1-4.86.829c-.458-.047-.979-.039-1.15-.543-.144-.424.323-.618.568-.877.427-.452.889-.871,1.295-1.341,1.293-1.5,2.584-3,2.816-5.086a1.5,1.5,0,0,0-1.483-1.818,4.02,4.02,0,0,0-2.789.834c-2.224,1.662-3,4.042-3.308,6.659-.051.435.131.958-.327,1.265a13.382,13.382,0,0,1-5.061,2.244c-.572.1-1.039-.09-1.077-.71-.117-1.931-.356-3.894.552-5.717a77.272,77.272,0,0,0,5.514-13.1,13.483,13.483,0,0,0,.513-5.369c-.114-.953-.452-1.855-1.458-2.092-1.089-.256-1.666.581-2.076,1.42a25.876,25.876,0,0,0-1.226,2.929,88.36,88.36,0,0,0-2.68,11.24c-.094.465-.02,1.064-.681,1.154-2.676.366-4.367,2.117-5.668,4.235a23.485,23.485,0,0,1-4.845,5.253,9.887,9.887,0,0,1-2.941,1.827c-.858.331-1.3.089-1.454-.844a18.91,18.91,0,0,1,.152-4.448c.1-1.36.954-2.671-.111-4.13-.736-1.009-.982-1.366-1.976-.5a67.29,67.29,0,0,1-6.953,4.768c-2.549,1.719-5.136,3.383-7.869,5.178a46.888,46.888,0,0,0,1.489-4.556c.516-2.755-1.078-4.34-3.8-3.744a12.48,12.48,0,0,0-5.42,2.8,3.14,3.14,0,0,0-1.4-2.711c-.986-.6-1.992.041-3.1.119a.893.893,0,0,0-.235-1.364,1.417,1.417,0,0,0-1.522.12,31.221,31.221,0,0,1-5.907,2.543c-.416.128-.854.325-1.343-.169a4.548,4.548,0,0,0-5.3-.951,1.854,1.854,0,0,0-1.357,1.988,2.091,2.091,0,0,0,1.928,1.811,7.648,7.648,0,0,0,2.595-.04c1.18-.258,1.267-.138,1,1.088a13,13,0,0,1-3.334,6.087c-2.658,2.84-5.616,5.26-9.888,5.194-2.995-.046-3.635-.548-2.668-3.907a1.561,1.561,0,0,1,.112-.219,18.359,18.359,0,0,1,7.24-8.4c.368-.218.81-.381.672-.891a1.013,1.013,0,0,0-1.154-.72,3.624,3.624,0,0,0-1.848.653A17.418,17.418,0,0,0,58.9,96.8c-.837,2.844.316,5.088,2.684,5.491a11.481,11.481,0,0,0,7.4-.832A18.609,18.609,0,0,0,79.305,87.919c.064-.33-.094-.743.428-.913,1.543-.5,3.072-1.049,4.779-1.637-2,3.645-3.95,7.106-5.567,10.736-.332.747-1.161,1.79-.336,2.247.732.407,1.233-.845,1.623-1.523,1.742-3.033,3.518-6.051,5.112-9.161a5.018,5.018,0,0,1,3.5-2.616c.875-.241,1.232.018,1.318.892a6.846,6.846,0,0,1-1.3,4.378A29.557,29.557,0,0,0,86.446,94.2c-.324.76-.5,1.52.328,1.934.843.422,1.379-.17,1.706-.929a29.646,29.646,0,0,1,3.013-4.964,10.848,10.848,0,0,1,6.688-4.792C98.869,85.3,99.091,85.473,99.084,86.146Zm45.9-4.232a8.191,8.191,0,0,1-2.688,3.964A5.713,5.713,0,0,1,144.984,81.914ZM137.09,67.726c.187,2.876-1.309,5.276-2.191,7.854A31.653,31.653,0,0,1,137.09,67.726Zm-5.518,14.832a20.1,20.1,0,0,1-5.5,7.866C125.459,88.1,128.376,83.817,131.572,82.558Zm-22.615,9.348a20.263,20.263,0,0,1,5.386-7.4c.076-.069.212-.072.332-.11-.273,2.48-3.778,8.252-5.748,9.482C108.322,93.215,108.725,92.482,108.957,91.906ZM74.038,85.773a2.292,2.292,0,0,1,2.507.1C75.623,86,74.832,86.373,74.038,85.773Z"/>
    <path d="M125.418,69.705a6.177,6.177,0,0,1-7.252.41c-1.495-.85-3.075-1.564-4.486-2.55a6.074,6.074,0,0,0-5.5-.8,8.391,8.391,0,0,0-4.965,3.778c-1.072-1.823-2.269-3.214-4.49-3.195-2.925.024-5.563.636-7.5,3.1a13.167,13.167,0,0,1-7.046,4.822,4.279,4.279,0,0,1-3.989-.658c-.195-.152-.342-.583-.686-.281a.752.752,0,0,0-.12.821,4.24,4.24,0,0,0,1.14,1.6c2.651,2.611,5.928,3.26,9.515,3.26,5.409,0,10.022-1.555,13.278-6.2.692.56,1.24,1.073,1.853,1.49,3.441,2.342,7.08,3.806,11.369,2.723a19.853,19.853,0,0,0,7.491-4.24,6.186,6.186,0,0,0,2.159-3.52c.068-.291.422-.611.036-.9S125.643,69.542,125.418,69.705Z"/>
    <path d="M59.3,51.574c4.02-.362,8.046-.667,12.065-1.043C77.05,50,82.725,49.316,88.42,48.9c3.943-.289,7.911-.261,11.869-.33,1.9-.033,3.819.161,5.712.018,1.439-.109,2.949.127,4.32-.636-1.969-.249-3.926-.426-5.871-.5a229.879,229.879,0,0,0-23.422.086c-1.234.076-2.478.055-3.7.2-4.3.507-8.618.7-12.929.93-4.658.25-9.3.683-13.93,1.165-5.584.581-11.123,1.584-16.688,2.352a50.368,50.368,0,0,0-14.913,3.995q-4.251,2.015-8.665,3.678a19.764,19.764,0,0,0-2.894,1.4c-.412.239-1.259.4-1.013,1.04.281.734,1.009.293,1.528.133,1.494-.462,2.971-.981,4.462-1.453,4.446-1.409,8.8-3.152,13.34-4.21A175,175,0,0,1,44.565,53.52C49.483,52.934,54.361,52.019,59.3,51.574Z"/>
    <path d="M62.414,85.361c2.538-2.779,4.743-5.718,5.608-9.451.612-2.64-.512-6.955-4.5-7.839a12.663,12.663,0,0,0-7.095.26,17.578,17.578,0,0,0-7.282,4.32,6.888,6.888,0,0,0-1.954,3.095c-.082.341-.068.585.22.73.258.13.465-.069.635-.259s.32-.38.489-.561a17.145,17.145,0,0,1,7.088-5.1c-.213.492-.314.75-.435,1-2.968,6.1-5.935,12.191-9.468,17.989-.836,1.372-1.375,3.046-3.38,3.194-.174.013-.357.2-.5.352-.371.392-.465.936.053,1.139,1.256.5.564,1.15.229,1.763-2.237,4.109-4.708,8.1-6.478,12.447-.11.271-.532.585-.15.853.406.284.529-.229.73-.446a6.084,6.084,0,0,0,.521-.69,116.445,116.445,0,0,0,6.464-11.211c.7-1.32,1.271-2.689,3.162-2.427a1.941,1.941,0,0,0,.725-.152A31.642,31.642,0,0,0,62.414,85.361ZM49.778,90.385c-1.121.364-2.218.8-3.652,1.329,1.522-2.67,2.872-5.046,4.229-7.417,2.483-4.34,4.719-8.809,6.9-13.3a2.118,2.118,0,0,1,2.007-1.441,11.93,11.93,0,0,1,2.717.1c3.512.784,4.784,3.375,3.482,6.794a13.657,13.657,0,0,1-1.938,3.562C59.873,84.693,55.557,88.509,49.778,90.385Z"/>
    <path d="M75.617,53.643c-.4.13-.913.314-.819.776.1.488.55.348,1,.275,3.917-.629,7.858-1.1,11.816-1.349,3.339-.212,6.693-.269,10.036-.308,6.034-.071,12.069-.423,18.108-.063,2.769.165,5.557.059,8.316.308a62.386,62.386,0,0,0,10.145.42,1.552,1.552,0,0,0-1.163-.64c-1.179-.31-2.4-.136-3.573-.347a90.251,90.251,0,0,0-13.58-1.117,314.367,314.367,0,0,0-33.2.685A30.728,30.728,0,0,0,75.617,53.643Z"/>
    <path d="M149.675,97.9c.77-.456.8-1.055.033-1.484a2.89,2.89,0,0,0-1.936-.191c-4.165.666-8.372.9-12.573,1.174-3.341.221-6.687.377-10.023.645-4.4.354-8.8.773-13.2,1.2a47.4,47.4,0,0,0-7.229.944c-.487.124-1.2.3-1.091.97s.8.462,1.254.42c3.124-.292,6.242-.639,9.366-.93,4.357-.407,8.715-.817,13.078-1.156,3.09-.241,6.189-.352,9.282-.548,3.3-.208,6.594-.448,9.2-.627C148.347,98.388,149.005,98.3,149.675,97.9Z"/>
    <path d="M35.932,64.134a68.473,68.473,0,0,0-7.093.875c-5.622.75-11.264,1.368-16.828,2.492-2.77.56-5.519,1.233-8.26,1.922-.546.137-1.365.416-1.085,1.22.252.725.929.416,1.493.245,9.129-2.773,18.562-4.022,27.937-5.562,1.679-.276,3.355-.574,5.355-.918A2.68,2.68,0,0,0,35.932,64.134Z"/>
    <path d="M166.336,77c1.362-.036,2.723-.139,4.085-.161,4.223-.068,8.429.317,12.643.517.235.011.607.342.72-.129.1-.42-.295-.4-.555-.474a3.5,3.5,0,0,0-.586-.189c-3.358-.384-6.684-1.117-9.506-.933a41.467,41.467,0,0,0-6.767.163c-.5.081-1.226.094-1.17.789C165.248,77.161,165.91,77.007,166.336,77Z"/>
    <path d="M167.358,59.653c-.469,0-1.143.14-1.143.7,0,.667.636.709,1.21.7.991-.012,1.982.025,2.973.041l.006-.086c3.287.272,6.573.555,9.861.8.3.022.857.33.919-.213.047-.411-.494-.447-.846-.532a60.706,60.706,0,0,0-7.778-1.3A46.722,46.722,0,0,0,167.358,59.653Z"/>
    <path d="M166.335,92.173c-.37.022-1.006-.168-.939.45.06.55.688.3,1.041.284,4.456-.164,8.911-.147,13.368-.016,1.6.047,3.181.542,4.833.255-.052-.385-.271-.384-.468-.42-1.618-.3-3.259-.421-4.888-.629C174.957,91.545,170.648,91.927,166.335,92.173Z"/>
    <path d="M160.806,56.765c5.824-.128,11.507.994,17.475,1.93a2.5,2.5,0,0,0-1.656-.9c-1.644-.337-3.3-.607-4.95-.9a50.182,50.182,0,0,0-10.775-1.1c-.448.017-1.158-.242-1.167.511C159.725,56.975,160.407,56.774,160.806,56.765Z"/>
    <path d="M182.361,79.5c-2.095-.153-4.188-.347-6.281-.527a14.973,14.973,0,0,0-4.061.132c-.325.06-.717.11-.7.539.018.452.421.429.749.438.537.015,1.075.02,1.612.029q5.055.085,10.11.168A1.755,1.755,0,0,0,182.361,79.5Z"/>
    <path d="M172.512,63.933c-.437.023-1.107-.117-1.129.423-.021.507.664.447,1.089.514a3.875,3.875,0,0,0,.619.034,70.956,70.956,0,0,1,9.255.687c.581.076,1.156.468,1.991,0a5.932,5.932,0,0,0-.94-.43A38.779,38.779,0,0,0,172.512,63.933Z"/>
    <path d="M104.559,120.005a54.425,54.425,0,0,0-8.7.933c-.342.051-.945.129-.82.714.11.518.635.465,1.031.419,1.019-.119,2.033-.276,3.046-.437,2.2-.348,4.4-.707,6.658-1.072A1.241,1.241,0,0,0,104.559,120.005Z"/>
    <path d="M166.659,90.925a66.349,66.349,0,0,1,10.26-.342c.465,0,.991.157,1.447-.273a2.529,2.529,0,0,0-1.736-.449c-2.812-.077-5.624-.19-8.437-.212a5.313,5.313,0,0,0-2.439.273.627.627,0,0,0-.426.673c.045.293.326.33.587.33A5.278,5.278,0,0,0,166.659,90.925Z"/>
    <path d="M154.022,95.524c-.971-.184-2.191.508-2.123,1.213.1,1.089,1.152.788,1.738,1.046,1.1.034,2.808-.778,2.595-1.173C155.795,95.8,154.847,95.681,154.022,95.524Z"/>
    <path d="M180.727,81.756c-.934-.016-1.511-.056-2.084-.023-.333.02-.668.183-.68.587-.014.431.335.567.67.556,1.189-.038,2.377-.111,3.565-.188a.392.392,0,0,0,.406-.378c.008-.268-.247-.293-.415-.389A2.9,2.9,0,0,0,180.727,81.756Z"/>
    <path d="M179.728,68.435c-.441-.977-1.172-.946-1.9-.919-.265.011-.5.13-.509.407a.5.5,0,0,0,.493.468C178.4,68.438,179,68.423,179.728,68.435Z"/>
    <path d="M147.646,12.408a32.558,32.558,0,0,0,9.411.989A16.092,16.092,0,0,0,152,11.14c-2.8-.689-5.638-1.151-8.432-1.862a78.8,78.8,0,0,0-10.076-1.8c-3.506-.419-7-.927-10.516-1.3-2.862-.3-5.725-.594-8.591-.854a25.358,25.358,0,0,0-2.73-.057c-.322.006-.728.149-.724.533,0,.3.35.384.657.431,1.053.16,2.1.385,3.153.523,4.562.595,9.145,1.051,13.686,1.778C134.882,9.569,141.266,10.991,147.646,12.408Z"/>
    <path d="M120.324,21.106c-.079.553.415.6.821.706,3.286.835,6.661,1.127,10,1.652,2.139.336,4.268.737,6.748,1.169-.352-.4-.409-.516-.5-.563a12.292,12.292,0,0,0-1.324-.639c-4.762-1.774-9.817-2.04-14.767-2.846C120.88,20.517,120.4,20.594,120.324,21.106Z"/>
    <path d="M93.252,33.027c.331.009.664,0,.994.02,3.01.2,6.017.448,9.03.6,1.453.072,2.891.625,4.411,0-.338-.127-.67-.276-1.016-.376-4.15-1.207-8.462-.7-12.683-1.18a2.806,2.806,0,0,0-.848.157c-.264.057-.664,0-.595.435C92.6,33.045,92.963,33.018,93.252,33.027Z"/>
    <path d="M42.862,21.07a13.87,13.87,0,0,0-3.022.475c-.356.082-.978.257-.9.692.095.5.658.3,1.054.234.924-.16,1.851-.3,2.772-.482,1.667-.321,3.359-.441,5.051-.663C46.188,20.347,44.51,21.068,42.862,21.07Z"/>
    <path d="M183.038,39.3c.263-.413-.07-.742-.385-.915A12.281,12.281,0,0,0,176.9,36.6c1.739.95,3.47,1.916,5.227,2.832A.708.708,0,0,0,183.038,39.3Z"/>
    <path d="M119.063,19.277c2.052,0,4.1.081,6.16.189a11.134,11.134,0,0,0-4-.878,20.769,20.769,0,0,0-2.1-.017.454.454,0,0,0-.5.432C118.61,19.3,118.875,19.277,119.063,19.277Z"/>
    <path d="M181.957,35.5c.136-.388-.1-.62-.444-.737a13.268,13.268,0,0,0-4.227-.887,13.472,13.472,0,0,0,3.936,1.871C181.491,35.841,181.833,35.851,181.957,35.5Z"/>
  </g>
</svg>
