<svg xmlns="http://www.w3.org/2000/svg" viewBox="0 0 209.849 174.931">
  <g>
    <path d="M158.159,114.806a23.07,23.07,0,0,1-2.387,3.621,2.247,2.247,0,0,1-2.284.972c-1-.266-1.3-1.069-1.406-1.989-.187-1.578-.494-3.152-.54-4.734-.055-1.84-.093-3.673-.328-5.5a3.213,3.213,0,0,0-1.4-2.28,25.035,25.035,0,0,1-4.2-4.015c-1.164-1.326-1.139-2.246.059-3.572,1.763-1.95,1.789-1.987-.343-3.528-5.359-3.874-10.02-8.591-15.276-12.592a5.976,5.976,0,0,0-3.224-1.361c-7.442-.592-14.587-2.563-21.7-4.682-7.991-2.382-16.006-4.684-24.173-6.376-5.329-1.1-10.712-1.95-16-3.243-1.457-.356-2.632.606-4.011.721-2.4.2-4.792.662-7.206.7-3.309.054-6.526,1.04-9.819.983-2.562-.044-4.224,1.338-6.1,2.763-4.076,3.092-8.849,4.961-13.485,7.042A66.222,66.222,0,0,1,12.146,81.9a50.7,50.7,0,0,1-6.462.8c-1.447.142-2.208-.72-2.614-2.012a6.957,6.957,0,0,1-.245-2.013c-.027-1.736.169-3.462.039-5.211a22.221,22.221,0,0,0-.818-5.989c-.825-2.349-.483-4.921-.289-7.378.15-1.892.082-3.783.226-5.666A127.243,127.243,0,0,0,1.576,35.4Q.793,24.739.074,14.075a22.4,22.4,0,0,1,1.877-11.4,1.518,1.518,0,0,0,.217-.53C2.239.237,2.679-.2,4.686.078a31.946,31.946,0,0,1,7.393,1.537c6.572,2.6,13.449,4.345,19.95,7.128A34.938,34.938,0,0,1,42.44,15.519a1.133,1.133,0,0,0,1.444.307c1.191-.433,2.495.078,3.727.224,4.088.484,8.207.6,12.286,1.309,2.194.382,4.441-.672,6.665-1.072,4.944-.89,9.846-1.993,14.67-3.351,3.816-1.074,7.6-2.273,11.447-3.245,8.452-2.138,16.809-4.681,25.494-5.824,3.368-.443,6.747-.8,10.127-.955a178.552,178.552,0,0,1,18.185-.31,77.6,77.6,0,0,1,18.85,3.124c5.029,1.575,10.211,2.709,15.077,4.743a62.158,62.158,0,0,1,14.5,8.223,40.749,40.749,0,0,1,11.208,13.973c1.249,2.5,2.9,4.781,3.421,7.642.779,4.305-.037,8.364-1.045,12.553-1.8,7.493-7.369,11.333-13.344,14.937-2.572,1.552-5.149,3.1-7.749,4.6-.613.354-.515.661-.218,1.139,1.252,2.017,2.507,4.028,3.683,6.1,3.478,6.115,5.323,12.8,6.65,19.588,2.325,11.905.589,23.684-1.8,35.383-1.408,6.882-2.808,13.771-4.863,20.5a25.529,25.529,0,0,1-1.21,3.576c-1.734,3.624-2.656,7.558-4.359,11.189-.308.657-.677,1.284-1.01,1.929a4.653,4.653,0,0,1-4.151,2.43c-6.469.516-12.965,1.169-19.417.212-3.756-.558-7.4-1.843-11.123-2.656a18.69,18.69,0,0,1-7.248-3.153c-1.761-1.294-2.1-2.6-.964-4.479a11.723,11.723,0,0,1,6.792-4.962,43.287,43.287,0,0,1,11.7-2.127c.914-.029,1.779-.38,2.716-.327.646.036.766-.528.929-1.087,1.324-4.543,1.273-9.138.878-13.807a101.21,101.21,0,0,0-2.677-16.413A64.117,64.117,0,0,0,158.159,114.806ZM73.042,35.416,73,35.37c.108,2.129.108,2.1,2.224,2.178.812.03,1.728-.316,2.49.484-.231.128-.391.29-.557.3-1.018.046-2.04.1-3.057.067-1.235-.045-.833.915-.989,1.517-.209.8.3.841.908.834,1.458-.017,2.918-.047,4.372.029,1.549.08,3.092.277,4.8.439a2.2,2.2,0,0,1-1.962.666c-1.894.016-3.789-.01-5.684-.012-2.345,0-2.347,0-2.63,2.22a1.6,1.6,0,0,0,.055.393,133.157,133.157,0,0,1,19.866,2.052c-3.416.518-6.8.058-10.184-.117q-4.708-.243-9.417-.484c-.869-.043-.635.686-.755,1.138-.183.687.305.671.763.665,2.526-.029,4.947.758,7.449.985.9.082,2.132-.189,2.918.9a1.756,1.756,0,0,1-.5.126c-3.4-.442-6.852-.379-10.224-1.032-.777-.151-.883.187-1.093.74-.321.846.336.57.671.648.609.141,1.227.244,1.838.381C80.831,51.943,87.362,53.348,94,54.206c.631.082,1.527-.076,2.12.877-3.162-.2-6.13-.5-9.1-.909a148.948,148.948,0,0,1-15-2.935c-.478-.116-.732-.216-.972.356-.734,1.75-.7,1.835,1.229,1.979.288.021.575.074.861.119,5.177.823,10.276,2.039,15.4,3.129a9.979,9.979,0,0,1,4.232,1.352,18.549,18.549,0,0,1-2.035-.01c-6.544-.857-12.906-2.663-19.4-3.815-1.124-.2-1.546-.091-1.852.894-.121.39-.484.71-.4,1,9.071,1.386,17.736,4.11,26.625,5.837a90.092,90.092,0,0,1-9.473-1.036A131.419,131.419,0,0,1,71.089,58c-2.605-.606-2.605-.6-4,1.909a10.022,10.022,0,0,0,1.655.352A79.419,79.419,0,0,1,82.3,62.335c9.646,2.106,19.291,4.214,28.917,6.408a107.285,107.285,0,0,0,19.691,2.923c1.223.048,2.438.288,3.657.44-.214.331-.392.4-.57.4a97.291,97.291,0,0,1-11.594-.522c-6.717-.753-13.291-2.278-19.914-3.507C95.1,67.107,87.733,65.56,80.422,63.788c-3.982-.965-8.065-1.4-12.095-2.111-1.343-.237-2.476-.594-3.077,1.059-.162.445-.342.7.383.8,2.179.319,4.369.634,6.506,1.152,7.965,1.934,16.027,3.415,23.989,5.4,10.552,2.626,20.945,6.022,31.805,7.313,3.21.381,6.429,1.114,9.648.881A86.984,86.984,0,0,1,147,77.639c4.094.152,5.795-1.712,6.553-5.442.566-2.782.8-2.692-2.083-2.914a4.416,4.416,0,0,1-3.194-1.172c1.755.186,3.03-.435,4.486-.044,1.828.491,2.115.138,2.291-1.848-2.513-.368-5.178.336-7.555-1.088a56.77,56.77,0,0,1,7.626-.228c.5.015.636-.174.681-.476.069-.463-.357-.378-.606-.354a32.25,32.25,0,0,1-5.064-.342,8.527,8.527,0,0,1-4.36-.945,12.766,12.766,0,0,1,3.977-.378c1.848.271,3.677.1,5.511.194.547.027,1.191.039,1.158-.722-.035-.809-.748-.444-1.136-.429a65.162,65.162,0,0,1-9.1-.689c-1-.1-2.155.122-3.092-.629.151-.118.259-.275.377-.283a38.6,38.6,0,0,1,6.388-.009,21.2,21.2,0,0,0,6.216-.1c.456-.088.644-.171.694-.669q.42-4.167.93-8.324c.054-.446.148-.7-.457-.688a78,78,0,0,1-11.5-1.163c-.634-.086-1.312-.1-1.765-.84.6,0,1.088-.027,1.57,0,3.716.235,7.427.552,11.155.587,1,.01,1.563-.05,1.595-1.339a29.647,29.647,0,0,1,.259-3.158c.774-5.748-.125-11.426-.64-17.122-.05-.56-.233-.84-.874-.891-1.729-.138-3.464-.289-5.171-.587-1.251-.218-2.619,0-3.988-.784a3.334,3.334,0,0,1,2.327-.264c2.07.14,4.136.35,6.207.469.371.021,1.12.373,1.08-.474-.026-.544.1-1.248-.921-1.309-3.708-.22-7.411-.526-11.114-.824-2.423-.2-4.843-.431-7.53-.673a2.291,2.291,0,0,1,1.592-.756,65.777,65.777,0,0,1,10.726.43c2.039.345,4.14.326,6.213.466.218.015.449.136.6-.191a2.046,2.046,0,0,0-1.5-2.475,24.5,24.5,0,0,1-5.1-.642c1.875-.914,3.89-.275,5.94-.628-.574-.861.088-2.385-1.476-2.516-4.137-.346-8.279-.7-12.426-.85-3.833-.141-7.676-.008-11.513-.054-.558-.007-1.154.379-1.7-.187,8.5-1.848,17.053-1.408,25.905-.469-.9-.868-.63-2.381-2-2.514-3.65-.354-7.307-.679-10.968-.857a39.551,39.551,0,0,1-6.335-.587c-.65-.138-1.414.115-2.064-.8a121.61,121.61,0,0,1,18.9.782c-.507-1.422-1.587-2.371-1.91-3.713-.078-.324-.555-.367-.9-.358-2.088.052-4.163-.259-6.24-.275-3.2-.026-6.391-.05-9.6.186-3.53.26-7.045.624-10.555,1.03a262.86,262.86,0,0,0-34.487,6.863c-8.277,2.1-16.508,4.309-25.152,5.009.542.781,1.687.387,2.056,1.387a57.979,57.979,0,0,1-9.485.556c-3.159-.19-6.3-.69-9.742-1.088a48.108,48.108,0,0,1,6.72,8.833,27.03,27.03,0,0,1,3.763,8.577c.152.71.308,1.4-.581,1.948a28.563,28.563,0,0,0-3.4-8.506A54.6,54.6,0,0,0,39.051,15.5c-3.79-2.736-7.556-5.53-12.19-6.856C19.452,6.526,11.936,4.85,4.466,2.98c-.721-.18-.947-.057-1.254.623C1.291,7.862,1.677,12.382,2.1,16.755c.673,7.035,1.638,14.031,1.833,21.118.19,6.931.762,13.852,1.1,20.78a31.756,31.756,0,0,1-.179,7.972,14.015,14.015,0,0,0-.692,3.522q.212,4.36.36,8.723c.075,2.114.176,2.222,2.274,1.807a69.755,69.755,0,0,0,20.269-7.531c3.339-1.843,6.331-4.341,10.1-5.391A13.1,13.1,0,0,0,40,66.8c2.751-1.522,5.082-3.645,7.592-5.513a4.621,4.621,0,0,0,1.4-1.453,18.281,18.281,0,0,1,3.986-4.6,8.916,8.916,0,0,0,2.353-3.77,51.142,51.142,0,0,1,2.478-6.8c.131-.253.089-.754.758-.531-.3,5.027-1.01,9.892-4.962,13.644a34.342,34.342,0,0,1-3.32,3.03c-1.391,1.015-2.67,2.185-4.016,3.3a.885.885,0,0,0,.929.216,49.813,49.813,0,0,1,13.034-.267,2,2,0,0,0,2.315-.977c.6-1.372,1.411-2.615,2.074-3.943a85.791,85.791,0,0,0,5.595-15.326c1.465-5.227.782-10.35-.3-15.491a19.635,19.635,0,0,0-2.613-6.75c.88-.3.871.508,1.29.661l-.016-.026c.54.741.617,2.085,1.885,1.934,2.63-.313,5.266-.6,7.891-.941a110.629,110.629,0,0,1,15.636-.821,1.029,1.029,0,0,1,1.131.557c-8.29.769-16.406,1.221-24.4,2.593.589,2.438.76,2.588,2.283,2.311A98.657,98.657,0,0,1,87.052,26.23c5.239-.189,10.49-.056,15.736-.054.4,0,.886-.141,1.14.64-10.768.616-21.532.594-32.143,2.554.065.347.154.772.225,1.2.1.586.37.7.97.574a25.747,25.747,0,0,1,6.035-.6q7.7.156,15.408.3a3.953,3.953,0,0,1,.436.018c1.052.144,2.1.293,3.154.44a7.8,7.8,0,0,1-2.842.641c-6.727.225-13.454.418-20.182.62-.827.025-2.126-.254-2.376.137-.444.7.142,1.738.314,2.632C72.933,35.365,73,35.388,73.042,35.416Zm90.773,128.562a10.556,10.556,0,0,1,4.187.014c1.2.3,1.913.036,2.207-1.405.449-2.2,1-4.388,1.295-6.616.479-3.675,1.063-7.354,1.222-11.048.16-3.724-.106-7.468-.262-11.2-.077-1.835-.37-3.661-.485-5.5-.077-1.241-.014-2.49-.014-3.736,2.348,6.736,3.253,23.389-1.168,39.743a21.3,21.3,0,0,0,4.022.54c.725.074,1.005-.243,1.221-.908A54.076,54.076,0,0,0,178.9,148.48a173.448,173.448,0,0,0-1.108-25.114,2.454,2.454,0,0,1,.42-2.149,83.842,83.842,0,0,1,1.763,14.318c.455,9.833.414,19.675-3.122,29.132,2.354.2,2.356.2,2.927-1.833.117-.416.2-.842.319-1.257q.82-2.825,1.654-5.646l.4.1a45.034,45.034,0,0,1-1.738,8.441c1.418.222,1.8-.6,2-1.724.417-2.353.887-4.7,1.329-7.047.832-4.422,1.58-8.857,2.2-13.316.223-1.609.544-3.21.778-4.836a2.225,2.225,0,0,1,.533,1.782c-.173,2.215-.334,4.431-.522,6.645-.127,1.489-.244,2.982-.446,4.463a101.353,101.353,0,0,1-2.667,12.639c-.177.656-.11,1.073.856.76a1.3,1.3,0,0,0,1-1.038c.374-1.351.7-2.719,1.151-4.042a119.527,119.527,0,0,0,3.951-14.724c1.462-7.079,2.429-14.233,3.185-21.421a89.571,89.571,0,0,0,.686-13.946,67.27,67.27,0,0,0-3.867-18.124,57.992,57.992,0,0,0-6.18-13.593c-1.493-2.268-1.435-2.134-3.326-.212-1.056,1.074-.649,1.614.07,2.528a43.954,43.954,0,0,1,8.173,18.259,62.441,62.441,0,0,1,1.457,9.873,8.947,8.947,0,0,1-.262,3.794,2.413,2.413,0,0,1-.311-.945c-.338-2.3-.068-4.67-.728-6.914-1.348-4.582-3.081-9.039-4.4-13.635a28.891,28.891,0,0,0-5.393-10.2c-.282-.349-.464-1.026-1.312-.687a23.812,23.812,0,0,1,3.814,6.386c3.122,7.158,4.8,14.724,6.289,22.333a5.715,5.715,0,0,1-.294,3.65,79.134,79.134,0,0,0-1.852-9.205,85.91,85.91,0,0,0-4.964-14.753,41.879,41.879,0,0,0-3.486-7c-.513-.8-.908-.6-1.483-.21-.806.552-.044.974.172,1.3a39.913,39.913,0,0,1,5.968,12.952c.155.658.7,1.364.081,2.3-.472-1.242-.917-2.29-1.272-3.368a45.773,45.773,0,0,0-6.091-11.646c-.808-1.172-1.452-.163-2.1.028-.86.253-.1.749,0,1.118.151.535.672.971.391,1.717a9.338,9.338,0,0,1-1.691-1.818c-.129-.168-.244-.494-.545-.328-.331.182-.242.451-.075.737.708,1.208,1.42,2.415,2.084,3.647.273.509.627,1.059.286,1.722a2.04,2.04,0,0,1-1.172-1.108c-.738-1.249-1.5-2.481-2.244-3.729s-1.522-.206-2.206.023c-1.074.36-.051.831.1,1.14a16.925,16.925,0,0,1,2.107,4.751,25.611,25.611,0,0,1-2.719-3.754c-1.145-1.562-.9-1.969-3.148-.959,3.5,4.021,5.669,8.727,7.628,13.719a.947.947,0,0,1-.924-.688c-1.349-2.509-2.652-5.047-4.1-7.5-.985-1.663-2.171-3.209-3.295-4.787-.646-.908-1.559-.583-2.167-.116-.532.407.2.85.465,1.209a31.528,31.528,0,0,1,3.081,4.744c.226.457.673.894.35,1.607-1.86-2.324-3.638-4.553-5.426-6.775-.291-.361-.51-.792-1.154-.674-.794.145-1.613.151-2.613.232,3.119,4.48,6.618,8.546,9.453,13.417a2.23,2.23,0,0,1-1.423-1.033q-4.589-5.826-9.16-11.664c-.467-.593-.891-1.345-1.868-.985-.026.462.66.775.213,1.359-1-.851-1.782-2.231-3.5-1.593a23.369,23.369,0,0,1,3.055,4.36c-.543.268-.684-.147-.905-.356-1.061-1-2.186-1.939-3.143-3.029-1.118-1.272-2.458-1.259-4.072-1.042,1.086,1.711,2.68,2.944,3.52,4.989a3.726,3.726,0,0,1-.881-.372c-1-.917-2-1.84-2.956-2.8-1.668-1.661-3.108-1.91-5.474-.785,3.149,2.688,6.242,5.325,9.33,7.968a1.023,1.023,0,0,0,.809.24,3.054,3.054,0,0,1,2.528,1.195,23.457,23.457,0,0,0,2.948,2.811c2.662,1.875,4.112,4.568,5.439,7.4a4.54,4.54,0,0,1,.209,3.8c-.929,2.211-.445,4.19.569,6.218a48.484,48.484,0,0,1,3.773,10.5,94.64,94.64,0,0,1,2.366,23.461c-.066,4.324-1.6,8.22-3.011,12.175-.209.589-.695,1.325-1.32,1.125-.659-.211-.739-1.067-.59-1.76.216-1,.489-1.993.782-3.166-3.331,1.059-6.606,1.177-9.779,1.85a19.311,19.311,0,0,0-8.239,3.677c-.313.251-1.053.547-.346,1.079a8.994,8.994,0,0,0,4.635,1.992c-.688-.634-1.09-.979-1.46-1.356-.247-.252-.45-.621-.141-.9.381-.337.534.227.81.322.41.142.647,1.671,1.322.19.077-.17.415.082.6.242a12.434,12.434,0,0,0,1.569,1.289c1.412.86,2.6,2.236,4.7,2.129-1.8-1.835-3.583-3.443-4.638-6.107.506.333.7.395.787.528,1.346,2.12,3.306,3.649,5.1,5.339a2.55,2.55,0,0,0,2.714.743c-1.459-1.621-2.985-3.043-3.841-4.968a36.186,36.186,0,0,1,5.306,4.654c.775.76.708.828,2.022.592-1.157-1.385-2.743-2.411-3.3-4.242,1.132.81,2.162,1.723,3.226,2.6,2.514,2.064,2.521,2.056,3.522,1.886-.973-1.186-2.289-2.073-2.973-3.49a31.2,31.2,0,0,1,3.6,2.652,4.161,4.161,0,0,0,3.194,1.058c3.676-.312,7.362-.318,11.049-.3,1.2,0,1.2-.042,1.414-1.3C176.507,169.506,170.022,167.4,163.815,163.978Zm23.529-95.771a28.1,28.1,0,0,1-6.985-1.128c-.906-.3-2.471-.257-2.451-1.292.021-1.109,1.543-1.283,2.555-1.469a24.737,24.737,0,0,1,10.244.44,5.437,5.437,0,0,0,6.149-2.222c-5.215.119-10.109-1.282-15.071-2.267-.4-.08-.8-.174-.795-.668,0-.546.48-.554.851-.569a25.023,25.023,0,0,0,3.627-.121,39.443,39.443,0,0,1,12.6-.02c2.656.36,3.108.227,4.205-2.461-6.09-.065-11.743-2.275-17.632-3.258-.689-.115-1.965-.037-1.873-1.157.1-1.153,1.343-.9,2.128-.99,1.453-.162,2.861.4,4.305.5a135.67,135.67,0,0,1,14.83,1.9c.5.092.858.187,1.038-.366a12.848,12.848,0,0,0,.835-3.8c-2.74.882-5.417.4-8.035.058-4.287-.558-8.445-1.861-12.734-2.468-.764-.108-1.982-.074-1.883-1.1.088-.921,1.256-.774,2.059-.842,2.773-.238,5.479.528,8.245.506,4.216-.033,8.448-.022,12.543,1.2.8.239,1.022.054,1.1-.7.189-1.892-.581-3.6-1.008-5.366-.1-.426-.48-.4-.823-.184a5.14,5.14,0,0,1-3.4.462,170.179,170.179,0,0,1-17.751-2.6c-.739-.14-2.086.143-1.985-.885.1-1.058,1.427-.646,2.224-.639,6.753.059,13.514-.236,20.3.377-.2-.423-.4-.809-.559-1.214-.648-1.685-1.352-3.247-3.676-2.468-.288.1-.665-.075-1-.118l-18.991-2.434c-.566-.073-1.269-.057-1.3-.822-.032-.742.7-.759,1.182-.806a49.748,49.748,0,0,1,11.178-.21,56.213,56.213,0,0,0,9.039.634,23.881,23.881,0,0,1-1.79-2.425,2.573,2.573,0,0,0-2.762-1.35,37.181,37.181,0,0,1-8.091-.763c-3.8-.6-7.526-1.748-11.434-1.573a1.4,1.4,0,0,1-.575-.061c-.382-.16-.881-.224-.859-.821.021-.552.4-.739.854-.819a5.5,5.5,0,0,1,.727-.041,88.2,88.2,0,0,1,18.937,1.36,17.416,17.416,0,0,0-3.313-3.571,2.788,2.788,0,0,0-2.484-.733,10.528,10.528,0,0,1-3.886.11c-2.224-.391-4.287-1.345-6.546-1.6-2.1-.236-4.17-.713-6.257-1.062-.519-.087-1.054-.225-.975-.826.084-.636.708-.377,1.084-.347,2.407.192,4.806.505,7.215.619,1.58.075,3.172-.118,4.759-.19-6.122-3.489-24.305-8.794-28.809-8.643.6,1.19,1.236,2.332,1.763,3.523,2.481,5.608,2.923,11.675,3.484,17.627a108.358,108.358,0,0,1-.2,20.466,80.343,80.343,0,0,1-3.552,17.517,91.7,91.7,0,0,1-4.036,11.025c5.5-.911,10.761-1.171,15.932-2.19A60.817,60.817,0,0,0,187.344,68.207Zm-43.971,97.868a2.6,2.6,0,0,0,.953,1.7,8.387,8.387,0,0,0,4.149,2.284,72.732,72.732,0,0,0,14.327,2.16,170.821,170.821,0,0,0,18.144-.3,1.713,1.713,0,0,0,1.642-1.061,5.748,5.748,0,0,0-2.217.224c-4.842.49-9.7.211-14.547.284-4.426.067-8.733-.972-13.066-1.685C149.451,169.129,146.162,168.42,143.373,166.075Zm11.26-62.267c1.545,1.559,1.808,3.747,3.15,5.671C158.138,106.1,156.76,103.661,154.633,103.808Zm-1.471-2.847A4.967,4.967,0,0,0,150.8,97.48c-.3-.187-.653-.32-.931-.05-.259.252.009.531.13.777a22.63,22.63,0,0,0,2.288,3.141c.138.192.333.363.608.189C153.111,101.4,153.257,101.224,153.162,100.961Z"/>
    <path d="M10.573,20.936c3.844-.692,7.459.115,11.322-.048a21.5,21.5,0,0,0-3.572-1.269C14.276,18.06,10.015,17.4,5.807,16.51c-.669-.142-1.938-.083-1.71-1.064.181-.779,1.312-.321,2.032-.218a12.788,12.788,0,0,0,3.3.434,29.3,29.3,0,0,1,13.155,1.756c5.307,1.833,10.7,3.58,15.14,7.244,2.99,2.467,5.588,5.269,6.966,8.982,1.005,2.708,2.667,5.18,2.8,8.21a12.875,12.875,0,0,1-1.449,6.577,44.541,44.541,0,0,1-4.065,6.684C39.788,58,36.8,59.668,33.613,61.128,29.967,62.8,26.082,63.411,22.184,64.1c-3.121.552-6.041,1.965-9.208,2.417A16.57,16.57,0,0,1,6.4,66.008c2.219-.982,4.332-2.156,6.915-1.761,2.935.449,4.276.212,5.93-.744-1.511-.093-3,.064-4.451-.7,4.074-.947,8.256.344,12.053-1.591-6.218-.111-12.473.035-18.686-.789a72.93,72.93,0,0,1,10.925-.283c3.357.253,6.683-.22,10.025-.271.9-.014,1.828-.137,2.745-.175a4.322,4.322,0,0,0,3.786-2.034l-21.488-.5c.126-.905.632-.672.943-.664,6.558.173,13.105-.343,19.659-.29a3.371,3.371,0,0,0,3.582-2.371c-7.188.091-14.282-.175-21.385.39l-.017-.567c2.052-.215,4.1-.515,6.158-.627,4.74-.259,9.484-.453,14.228-.616,1.55-.053,2.878-.288,3.259-2.087-4.777.011-9.556.092-14.328-.02l.007-.516c3.279-.2,6.558-.391,9.837-.6,1.346-.085,2.693-.18,4.036-.31a1.987,1.987,0,0,0,1.991-1.707c.229-1.216.78-2.383.614-3.567a193.113,193.113,0,0,1-19.4-.408,1.921,1.921,0,0,1,1.644-.414c3.74-.014,7.482-.062,11.22.017,1.853.038,3.667-.282,5.506-.322.483-.011,1.293.163.977-.722-.241-.673.408-1.932-1.1-1.926-2.72.012-5.44,0-8.16-.013a3.421,3.421,0,0,1-2.073-.4c.149-.554.568-.374.863-.375,2.667-.01,5.312-.467,7.987-.378.594.02,1.628.4,1.658-.751.029-1.133-.863-1.014-1.668-1-6.167.134-12.313-.487-18.475-.568-.179,0-.385,0-.55-.506,6.54-.22,13.023.138,19.542-.218-.407-1.562-1.012-2.351-2.58-1.99A4.67,4.67,0,0,1,35.2,33.18c1.312-.5,2.506-.21,3.563-.7a1.6,1.6,0,0,0-1.788-1.271c-2.61,0-5.221,0-7.841-.2,2.479-.9,5.072-.7,7.8-.806-.867-1.141-1.645-1.87-3.066-1.73-2.858.282-5.7-.325-8.565-.276a1.856,1.856,0,0,1-1.486-.679c3.392-.4,6.543-.05,9.972-.214-1.207-.983-2.017-1.957-3.584-2.1-3.775-.333-7.576.077-11.335-.494-.277-.042-.6.022-.749-.565H28.836a8.858,8.858,0,0,0-5.013-2.1c-3.922-.079-7.841-.363-11.761-.559A2.783,2.783,0,0,1,10.573,20.936Z"/>
    <path d="M110.407,10.965A6.737,6.737,0,0,1,113.886,9.9c3.129-.491,6.284-.818,9.431-1.2,1.744-.21,3.453.362,5.194.272a.521.521,0,0,1,.571.357c.091.344-.165.546-.44.643a2.4,2.4,0,0,1-.847.141c-5.223-.137-10.383.823-15.592.868C111.654,10.99,111.134,11.532,110.407,10.965Z"/>
    <path d="M99.133,62.632c6.3.792,12.467,2.443,18.806,3.01C115.932,66.413,100.3,63.921,99.133,62.632Z"/>
    <path d="M68.594,22.235c1.149-1.361,2.852-.953,4.3-1.249a49.883,49.883,0,0,1,5.744-.6c.561-.048,1.178-.193,1.716.457-1.225.562-2.537.458-3.754.756-2.063.507-4.175.674-6.258,1.033a1.777,1.777,0,0,1-1.761-.42Z"/>
    <path d="M138.249,44.325c3.169-.39,6.315.26,9.474.218a.727.727,0,0,1,.815.66.633.633,0,0,1-.667.765,29.281,29.281,0,0,1-9.61-1.462C138.244,44.5,138.254,44.414,138.249,44.325Z"/>
    <path d="M139.38,51.911a4.845,4.845,0,0,1,2.87-.328c1.872.125,3.737.36,5.607.52.421.036.8.093.887.555.08.43-.225.6-.606.608A30.21,30.21,0,0,1,139.38,51.911Z"/>
    <path d="M73.042,35.416a.672.672,0,0,1,.569-.739,44.418,44.418,0,0,1,9.61-.108c-1.447.684-3.035.542-4.546.81-1.472.261-3,.032-4.475.385a1.226,1.226,0,0,1-1.2-.391Z"/>
    <path d="M9.8,27.453c2.88-.723,5.669.042,8.452-.116.329-.019.769-.047.8.4.025.316-.327.457-.633.444q-4.115-.18-8.228-.389C10.081,27.783,9.978,27.612,9.8,27.453Z"/>
    <path d="M144.137,24.735c-2.593.163-5.187.536-7.731-.263C139,24.143,141.589,23.847,144.137,24.735Z"/>
    <path d="M27.67,45.975a38.855,38.855,0,0,1,7.143-.852c.261-.015.643-.068.611.378a.5.5,0,0,1-.492.455C32.514,46.045,30.1,46.543,27.67,45.975Z"/>
    <path d="M143.823,55.409a9.909,9.909,0,0,1,4.957-.1c.289.075.6.134.588.488a.608.608,0,0,1-.59.548C147.22,56.206,145.6,56.319,143.823,55.409Z"/>
    <path d="M139.932,41.713c1.8-.368,3.546.174,5.313.208.367.007.7.138.658.575s-.406.316-.671.294c-1.479-.121-2.961-.22-4.43-.413C140.5,42.337,139.859,42.4,139.932,41.713Z"/>
    <path d="M94.911,50.883c-1.614,0-3.23.018-4.843-.016a.633.633,0,0,1-.677-.624.5.5,0,0,1,.657-.407C91.651,50.262,93.374,49.909,94.911,50.883Z"/>
    <path d="M133.9,17.416c1.508-.927,3.162-.463,4.764-.542.083,0,.241.17.25.27a.438.438,0,0,1-.436.473A14.25,14.25,0,0,1,133.9,17.416Z"/>
    <path d="M88.414,19.924a10.625,10.625,0,0,1-4.72.664c-.213-.018-.385-.178-.334-.377a.614.614,0,0,1,.651-.454A17.123,17.123,0,0,1,88.414,19.924Z"/>
    <path d="M99.706,59.217c-.322.3-.67.187-.976.168-.449-.027-.967.211-1.326-.244-.05-.063.006-.288.085-.362.462-.435.975-.249,1.464-.055C99.2,58.823,99.548,58.761,99.706,59.217Z"/>
    <path d="M169.405,132.073c1.123,1.151.921,2.425.972,3.461A86.981,86.981,0,0,1,167.8,161.34a9.969,9.969,0,0,1-.617,1.612c-.111.247-.268.585-.63.453s-.24-.487-.187-.755c.415-2.115.824-4.231,1.272-6.339a50.016,50.016,0,0,0,1.357-11C168.947,141,169.1,136.693,169.405,132.073Z"/>
    <path d="M188.51,138.517a58.934,58.934,0,0,0,.5-7.166c.29-4.85,1.3-9.636,1.279-14.511,0-.577.034-1.379.671-1.374.68.006.726.877.673,1.409-.419,4.2.1,8.457-.533,12.636-.424,2.788-1.168,5.529-1.811,8.281C189.23,138.053,189.169,138.5,188.51,138.517Z"/>
    <path d="M168.985,129.147c-.034.174.029.412-.232.454-.3.048-.457-.191-.526-.406-.3-.958-.585-1.923-.853-2.892a52.913,52.913,0,0,0-4.714-11.918c-.3-.526-.954-1.409-.25-1.788.793-.429.99.678,1.307,1.192,2.857,4.633,3.691,9.975,5.229,15.071A1.681,1.681,0,0,1,168.985,129.147Z"/>
    <path d="M175.24,150.579c.481,1.771.009,3.382-.161,4.975a37.3,37.3,0,0,1-1.118,7.237c-.15.484-.249,1.116-.782,1.044-.659-.09-.45-.806-.343-1.217,1-3.858,1.417-7.814,2.043-11.735C174.89,150.816,175.011,150.767,175.24,150.579Z"/>
    <path d="M183.5,143.85c.307,2.553-.285,5.039-.649,7.539-.029.2-.044.786-.561.633a.685.685,0,0,1-.351-.56c.376-2.552.788-5.1,1.192-7.646Z"/>
    <path d="M168.518,105.145a13.771,13.771,0,0,1-2.7-3.889c-.052-.09.083-.391.208-.465.387-.232.666.079.833.338A8.912,8.912,0,0,1,168.518,105.145Z"/>
    <path d="M175.669,146.892a11.356,11.356,0,0,1,.386-5.376C176.174,143.327,176.622,145.158,175.669,146.892Z"/>
    <path d="M171.034,90.79a4.866,4.866,0,0,1,1.569,2.657C171.524,92.672,170.928,92.08,171.034,90.79Z"/>
  </g>
</svg>
