<svg xmlns="http://www.w3.org/2000/svg" viewBox="0 0 122.432 291.863">
  <g>
    <path d="M34.7,24.733a52.81,52.81,0,0,0-5.681-.116c-3.149.273-6.282-.05-9.421-.005-4.32.062-8.641.14-12.956.338a4.1,4.1,0,0,1-4.119-5.694c.133-.352.3-.7.4-1.056a2.5,2.5,0,0,1,2.719-1.972c3.568.027,7.1.655,10.673.581,7.332-.15,14.663.039,21.988.326,2.15.085,3.478-.52,4.33-2.665,1.63-4.1,5.431-6.191,8.737-8.684.9-.676,1.941-1.183,2.9-1.809A19.13,19.13,0,0,1,62.2,1.027c3.2-.459,6.376-1.2,9.6-.992A32.152,32.152,0,0,1,83.958,2.891a24.938,24.938,0,0,0,5.2,1.808c2.807.651,4.531,2.6,6.291,4.623,3.663,4.21,6.338,9.178,10.3,13.17,3.069,3.094,6.711,5.435,10.064,8.154a27.586,27.586,0,0,1,5.629,6.88c1.443,2.266,1.1,4.833.335,7.292a11.851,11.851,0,0,1-5.595,7.006c-.238.136-.542.278-.652.5-2.392,4.8-6.509,7.62-11.193,9.782a36.322,36.322,0,0,0-10.894,7.4,17.43,17.43,0,0,0-4.565,8.79.758.758,0,0,0,.289.882c1.423.954,1.467,2.453,1.519,3.927.171,4.8.411,9.6.24,14.415-.077,2.183-.007,2.238,2.088,2.781a37.438,37.438,0,0,1,13.279,6.616,2.363,2.363,0,0,1,1.169,2.751c-.32,1.191.109,2.462.242,3.67a37.023,37.023,0,0,1,0,6.831c-.373,5,.619,9.93.552,14.921-.085,6.411.138,12.825.084,19.241-.02,2.46-.011,4.936.005,7.4.04,6.03-.023,12.062.126,18.089.105,4.222.136,8.443.23,12.664.144,6.454.326,12.906.384,19.364.025,2.8-.072,5.608-.009,8.41.137,6.082.162,12.162.136,18.246-.021,5.03.1,10.066.153,15.1.063,5.511.034,11.024.16,16.529.1,4.368-.211,8.739.146,13.1a2.351,2.351,0,0,1-1.8,2.838c-1.45.536-2.793,1.549-4.289,2.172-3.505,1.458-7.277,1.858-10.945,2.41-4.986.751-10.075,1.526-15.113,1.081-4.237-.375-8.441.079-12.656-.208a50.762,50.762,0,0,1-7.319-.991,66.809,66.809,0,0,0-8-1.109,35.142,35.142,0,0,1-9.038-2.346c-3.012-1.121-6.252-1.637-9.035-3.372a1.127,1.127,0,0,0-.654-.178c-1.368.134-1.852-.644-1.907-1.834-.086-1.847.123-3.687.107-5.539-.132-15.484.273-30.965.98-46.426.257-5.614.371-11.229.213-16.813-.178-6.323-.6-12.644-.185-18.959.65-9.888.5-19.792.677-29.685.2-11.371.216-22.746.358-34.12.071-5.653-.26-11.315-.058-16.974a35.445,35.445,0,0,1,.336-3.53,3.523,3.523,0,0,1,1.886-2.548,56.931,56.931,0,0,1,14.065-6.2,1.417,1.417,0,0,0,1.282-1.6c.269-5.34-.316-10.649-.466-15.972a7.342,7.342,0,0,1,3.057-5.993,53.106,53.106,0,0,1,5.409-3.7,1.04,1.04,0,0,0,.578-1.364c-.163-.591-.191-1.218-.3-1.826a2.571,2.571,0,0,1,.913-2.654c1.164-.974,2.182-2.126,3.349-3.1a1.165,1.165,0,0,0,.425-1.086c.028-2.143.057-4.287.132-6.429a4.263,4.263,0,0,1,2.832-4.3c.545-.2.539-.567.549-1.007.078-3.382-.359-6.741-.446-10.116-.014-.514-.187-.781-.743-.812a13.1,13.1,0,0,1-4.5-1.047,2.67,2.67,0,0,0-3.5,1.126C52.486,45.877,47.808,49.3,43.24,52.844c-3.044,2.363-6.147,4.651-9.254,6.93a10.646,10.646,0,0,0-3.761,5.216c-1.231,3.439-2.217,6.968-3.741,10.3a100.068,100.068,0,0,1-7.642,12.98c-2.978,4.555-5.624,9.338-9.038,13.594-1.948,2.429-3.942,4.851-6.76,6.406-.8.443-1.6.884-2.371.32A2.2,2.2,0,0,1,.1,106.224a31.332,31.332,0,0,1,3.03-9.016c3.091-5.4,4.661-11.407,7.091-17.061,2.36-5.493,2.623-11.233,2.808-17.028a30.425,30.425,0,0,1,1.7-9.774c.684-1.832,2.253-3.016,3.3-4.579,2.188-3.264,4.305-6.577,6.553-9.8,2.865-4.109,5.831-8.147,8.749-12.219C33.744,26.175,34.126,25.584,34.7,24.733ZM32.1,274.105a16.154,16.154,0,0,1-.066,1.958c-.2,1.246.247,1.818,1.53,2.071,1.7.335,3.338.955,5.016,1.4,5.431,1.453,10.444,4.1,16.218,4.706,5.847.608,11.7,1.25,17.558,1.677,4.065.3,8.141-.408,12.213-.6,4.351-.208,8.7-.262,12.982-1.227a15.586,15.586,0,0,1,4.6-.75c-.367.695-.969.63-1.421.791C96.491,285.646,92,286.2,87.7,287.459a16.257,16.257,0,0,1-6.582.528c-8.83-1.018-17.691-1.785-26.577-2.163-3.1-.131-6.087-.91-9.138-1.317-4.648-.619-8.926-2.507-13.29-4.163-.249.6-.316,1.119.386,1.435,2.073.935,3.892,2.375,6.1,3.04a75.956,75.956,0,0,0,17.8,3.3c3.138.169,6.291.111,9.425.337,4.906.352,9.743,1.134,14.727,1.023,5.5-.122,10.8-1.27,16.169-2.027,2.328-.328,4.441-1.671,6.81-2.009a9.276,9.276,0,0,0,2.642-1.02c.36-.17.669-.348.675-.815.035-2.9.176-5.812.081-8.712-.054-1.655-.221-1.639-1.924-1.1a9.042,9.042,0,0,1-3.677.708,21.154,21.154,0,0,1,4.521-1.818c1.418-.341,1.1-1.374.948-2.111-.168-.819-.885-.156-1.355-.09-1.543.217-3.078.483-4.622.687a99.012,99.012,0,0,1-11.171.942,2.77,2.77,0,0,1-2.4-.873,46.846,46.846,0,0,0,9.418-.634c3.092-.35,6.152-.9,9.208-1.474.382-.072.81-.119.829-.6a4.306,4.306,0,0,0-.106-2.1c-.333-.585-1.09.064-1.668.094-.374.019-.741.143-1.115.174-1.893.154-3.789.545-5.891.037a2.949,2.949,0,0,1,1.55-.646c2.088-.385,4.158-.865,6.251-1.215.859-.143,1.028-.55,1.071-1.332.156-2.9-.243-5.791-.1-8.7.143-2.922-.271-5.845-.01-8.81-7.991,1.639-22.412,2.036-24.224.675.134-.067.25-.174.372-.18,4.818-.27,9.641-.47,14.453-.815a50.138,50.138,0,0,0,8.269-1.158c.409-.1.944-.091.959-.641.032-1.107-.027-2.218-.048-3.288a75.567,75.567,0,0,1-14.213,1.621,2.435,2.435,0,0,1,1.434-.624c3.665-.653,7.388-1.043,10.973-2.055,2.358-.665,1.928,0,1.869-2.637-.972.16-1.938.329-2.907.477s-1.968.247-2.942.421a18.732,18.732,0,0,1-2.974.224c-.914.016-1.851.479-2.912-.249,3.736-.754,7.3-1.161,10.764-2.1.464-.126.931-.094.915-.807-.066-2.858-.1-5.717-.123-8.576,0-.471-.125-.743-.649-.617a42.958,42.958,0,0,1-5.927.546,4.864,4.864,0,0,1-3.6-.488c3.22-.449,6.152-.869,9.089-1.258.842-.112,1.178-.463,1.186-1.375.019-2.472-.344-4.936-.119-7.409.084-.922-.3-.982-1.119-.73a41.575,41.575,0,0,1-10.211,1.532c-2.311.118-4.612.439-6.924.557-2.891.148-5.788.181-8.683.264.145-.384.363-.6.6-.626,4.222-.484,8.447-.936,12.669-1.412a86.9,86.9,0,0,0,10.525-1.344c3.127-.746,3.132-.728,3-3.945a.939.939,0,0,0-.08-.25,34.563,34.563,0,0,1-9.878.347,3.022,3.022,0,0,1,1.573-.672c1.822-.24,3.644-.486,5.469-.708,2.837-.346,2.808-.339,2.794-3.251-.02-4.184.313-8.359.067-12.553-.2-3.362.057-6.742.035-10.116-.028-4.465-.131-8.935-.053-13.4.064-3.694-.159-7.393-.23-11.09-.011-.567-.117-.677-.731-.592-1.26.173-2.542.663-4.049.074a9.013,9.013,0,0,1,3.634-1.049c1.353-.169,1.26-1.032,1.212-1.926-.069-1.261-.908-.33-1.362-.4a8.315,8.315,0,0,0-2.26.162c-1.182.132-2.381.108-3.686.154a1.149,1.149,0,0,1,1-.724c1.489-.25,2.973-.53,4.469-.728,1.8-.239,1.9-.355,1.447-2.212-7.932,2.213-18.429,3.332-20.829,2.12,2.628-.184,5.1-.359,7.577-.529a45.878,45.878,0,0,0,12.747-2.543.988.988,0,0,0,.784-1.143c-.38-4.694-.078-9.4-.154-14.1-.067-4.141.183-8.287.291-12.431.014-.521-.111-1.05-.108-1.55.026-3.229-.6-6.5-.037-9.664a3.5,3.5,0,0,0-1.558-3.857,29.121,29.121,0,0,0-11.2-5.354c-1.7-.387-1.8-.379-1.724,1.4a3.538,3.538,0,0,1-2.588,3.889c-3.14,1.146-6.308,2.16-9.538,3.048a28.789,28.789,0,0,1-11.2.812,19.564,19.564,0,0,0-6.387.1,4.588,4.588,0,0,1-2.106.105,50.975,50.975,0,0,1-8.587-2.984c-1.485-.675-2.722-1.62-2.13-3.64a5.11,5.11,0,0,0-.149-1.694c-.064-.788-.226-1.127-1.219-.853a65.9,65.9,0,0,0-9.771,3.588A23.2,23.2,0,0,0,34.5,107.68c-2.068,1.373-2.068,2.965-.041,4.333a8.49,8.49,0,0,0,3.035,1.161,115.756,115.756,0,0,0,12.947,2,88.943,88.943,0,0,0,10.974.575c4.943-.122,9.874-.453,14.812-.666,3.845-.167,7.689-.249,11.516-.738,3.763-.481,7.541-.847,11.314-1.244.673-.071,1.744-.283,1.853.37.1.622-1.024.794-1.655,1.045a25.019,25.019,0,0,1-7.5,1.419c-4.683.347-9.328,1.114-14.06.918-2.893-.12-5.8.216-8.7.2-4.611-.031-9.221.462-13.829.04-2.319-.213-4.638-.464-6.946-.777-5.1-.69-10.263-1.021-15.2-2.874.093.691-.355,1.475.57,1.983a18.427,18.427,0,0,0,6.887,2.433c4.253.458,8.542.661,12.739,1.53a56.969,56.969,0,0,0,13.032,1.284c4.235-.107,8.468.163,12.7-.031,2.987-.137,5.974.2,8.979-.061,2.554-.219,5.015-.852,7.526-1.246,2.381-.374,4.755-.831,6.751-2.373a3.062,3.062,0,0,1,2.355-.259.967.967,0,0,1,.856.657c.09.365-.386.474-.615.694-1.022.98-2.406.692-3.605,1.047-4.328,1.279-8.807,1.66-13.243,2.3-3.281.47-6.626.392-9.877,1.161a35.351,35.351,0,0,1-7.576,1.244c-3.684.061-7.3-.569-10.944-.852a134.27,134.27,0,0,1-15.6-2.509c-3.717-.734-7.142-2.522-10.751-3.826-.085.526-.143,1.045-.256,1.55a.931.931,0,0,0,.7,1.189c2.185.83,4.339,1.753,6.558,2.481a86.989,86.989,0,0,0,22.4,4.039c1.42.079,2.831.318,4.458.509a1.969,1.969,0,0,1-1.8.4c-4.84-.3-9.677-.678-14.519-.938a37.215,37.215,0,0,1-13.551-3.17l-4.4-2c-.024.9-.038,1.614-.065,2.325-.013.371.1.519.506.674a76.038,76.038,0,0,0,14.343,4.088c1.448.249,2.876.609,4.655.993a2.657,2.657,0,0,1-1.846.26q-2.524-.362-5.045-.758a47.391,47.391,0,0,1-11.62-2.921c-.369-.16-.839-.575-1,.055-.129.51-.419,1.24.428,1.586a68.615,68.615,0,0,0,14.3,4.171c2.545.441,2.86.368,4.041,1.2-6.6-.626-12.975-.742-19.022-4.178.24,1.067-.358,1.885.871,2.269,2.551.8,5.051,1.755,7.675,2.32,1.568.337,3.111.788,4.666,1.188-4.589.252-8.835-1.145-13.062-2.569-.4,1.281-.085,2,1.2,2.241a20.066,20.066,0,0,1,2.29.717c.23.074.515.158.489.43-.033.343-.35.368-.647.4a9.712,9.712,0,0,1-2.528-.352c-.6-.1-.943-.061-.864.782a18.349,18.349,0,0,1-.021,3.85c-.169,1.416.31,2.04,1.715,2.3,1.893.352,3.747.92,5.617,1.4a1.4,1.4,0,0,1-1.076.4,38.943,38.943,0,0,1-5.269-.991c-.309-.051-.879-.848-1.038.176-.1.674.231.848.869.979,6.68,1.372,13.344,2.827,20.217,2.815a6.227,6.227,0,0,1,3.043.559,21.34,21.34,0,0,1-6.771.313,100.932,100.932,0,0,1-16.261-2.53c-.29-.07-1.026-.93-1.13.169-.063.666-.393,1.536.8,1.8,1.787.4,3.542.95,5.314,1.425a22.8,22.8,0,0,1,3.434.825,1.375,1.375,0,0,1-1.471.432q-3.473-.663-6.939-1.364c-.306-.062-.8-.384-.862-.03a14.708,14.708,0,0,0-.157,2.833c.011.672.72.528,1.094.659a18.045,18.045,0,0,1,3.809,1.468c-1.4.342-2.447-.175-3.528-.349-.5-.081-1.338-.6-1.358.176-.024.929-.966,2.3.513,2.845a54.812,54.812,0,0,0,7.461,2.137c2.934.632,5.927.741,8.892,1.1a4.023,4.023,0,0,1,2.49.872,56.208,56.208,0,0,1-19.547-3.012c-.267,7.833-.212,15.5-.089,23.158.013.753.405.934.975,1.139,2.514.9,5.167,1.209,7.745,1.892-2.975.6-5.772-.408-8.7-1.017.074.74-.57,1.591.681,1.985a67.833,67.833,0,0,0,12.95,2.679c2.2.244,4.408.248,6.606.625-3.363.941-6.8.533-10.171.277a33.271,33.271,0,0,1-10.1-2.367c-.369,3.512-.316,3.626,2.445,4.462,3.646,1.1,7.245,2.316,11.13,2.5,1.861.087,3.708-.163,5.552.039.47.051,1.274-.3,1.346.308.081.67-.759.547-1.229.614a31.129,31.129,0,0,1-11.438-.563c-2.586-.595-5.112-1.451-7.669-2.192-.311,2.854-.3,2.815,2.407,3.686,2.617.843,5.327,1.255,7.994,1.941-3.555.749-6.923-.144-10.314-1.316-.018.688-.029,1.257-.05,1.826a.782.782,0,0,0,.663.919c3.5.911,6.968,2.025,10.648,2a18,18,0,0,1,4.233.628,10.092,10.092,0,0,1-3.138.535A36.443,36.443,0,0,1,33.454,198.8c-.306-.094-.728-.43-.89-.132a3.8,3.8,0,0,0-.082,2.1c.035.534.45.593.913.681a16.9,16.9,0,0,1,5.07,1.542,8.942,8.942,0,0,1-4.727-.318c-.872-.215-1.228-.077-1.192.882a9.648,9.648,0,0,1-.129,2.7c-.211.833-.047,1.041.757,1.228,1.615.377,3.2.907,5.009,1.438a1.844,1.844,0,0,1-1.781.427,19.81,19.81,0,0,1-2.916-.521c-1.671-.62-1.332.507-1.374,1.384s.732.753,1.186.9c.754.248,1.592.247,2.337.515.689.248,1.6.032,2.174.94-2.011.336-3.827-.191-5.787-.48-.022.834.005,1.643-.078,2.44a1.382,1.382,0,0,0,1.011,1.618,50.32,50.32,0,0,0,9.332,2.673,80.131,80.131,0,0,0,13.057.928,4.293,4.293,0,0,1,2.433.69,54.779,54.779,0,0,1-25.839-3.19,122.361,122.361,0,0,0-.068,12.386c.029.452.239.533.591.609,1.559.334,3.115.688,4.672,1.032a36.6,36.6,0,0,0,8.789,1.1,1.779,1.779,0,0,1-1.887.8,40.907,40.907,0,0,1-11.055-1.538c-.882-.251-.946-.067-.932.7.054,3,.088,6,.06,8.994-.007.714.244,1.042.882,1.153,3.473.6,6.883,1.592,10.417,1.816,2.424.153,4.856.177,7.282.312,1.031.058,2.055.251,3.083.382l-.064.462c-7.289,1.173-14.438.066-21.564-1.72-.28,2.1.174,4.043.052,5.99-.026.427.208.5.579.616,4.618,1.405,9.243,2.7,14.142,2.657,2.761-.025,5.523.13,8.285.2l-.028.4a55.163,55.163,0,0,1-23.1-2.107c.3.649-.478,1.446.679,1.69,1.885.4,3.755.864,5.632,1.3.732.169,1.484.27,2.2.5s1.561.027,2.346.934a42.89,42.89,0,0,1-10.616-1.531c-.019.7,0,1.356-.063,2.008-.087.868.083,1.3,1.114,1.5a7.479,7.479,0,0,1,3.68,1.372,12,12,0,0,1-3.556-.289c-1.033-.361-1.418.1-1.283,1.216.092.769.716.807,1.209,1,1.093.416,2.208.775,3.677,1.283-2,.569-3.378-.4-4.921-.575.141,1.293-.584,2.772,1.413,3.259a53.311,53.311,0,0,0,9.3,1.758c1.089.069,2.165.349,3.529.58a3.481,3.481,0,0,1-2.353.51,47.049,47.049,0,0,1-11.084-2.1c-.284-.1-.552-.239-.678.158-.109.346.086.513.417.593.274.066.534.192.8.273q3.038.909,6.083,1.813c-.176.368-.48.308-.76.328-1.829.131-3.539-.519-5.3-.816-.5-.085-1.132-.659-1.4.151-.219.675-.111,1.257.921,1.471,3.328.69,6.616,1.567,9.929,2.328,4.463,1.025,8.858,2.361,13.495,2.558a11.847,11.847,0,0,1,3.865.615,31.9,31.9,0,0,1-9.344-.346,115.7,115.7,0,0,1-18.141-3.879c-.762-.234-.879-.075-.88.63s.359.937.967,1.172a96.315,96.315,0,0,0,29.83,6.5c1.409.074,2.809.332,4.213.5l-.082.428C54.821,281.459,43.446,278.389,32.1,274.105ZM2.465,105.883a33.2,33.2,0,0,0,6.117-5.9c3.831-5.067,7.283-10.389,10.636-15.778a59.1,59.1,0,0,0,7.821-18.234,16.277,16.277,0,0,1,6.211-9.394c2.495-2,5.289-3.574,7.765-5.571C45.9,47.068,50.678,43,55.49,38.966a3.086,3.086,0,0,1,3.326-.79,21.255,21.255,0,0,0,5.153.8c4.751.407,9.356-.651,14.013-1.211,2.074-.249,4.3-.573,6.153.379,2.959,1.523,5.712,3.456,8.541,5.23a69.237,69.237,0,0,0,14.484,7.01c2.176.738,4.407,1.478,6.756.306a21.519,21.519,0,0,0,2.98-1.928,10.757,10.757,0,0,0,4.344-6.9,4.26,4.26,0,0,0-.634-3.263,26.268,26.268,0,0,0-5.578-5.954,116.175,116.175,0,0,1-15.139-14.84c-1.128-1.276-2.287-2.531-3.392-3.833a87.953,87.953,0,0,0-6.621-7.068,13.068,13.068,0,0,0-7.392-3.253c-2.325-.324-4.607-.991-6.937-1.23A50.74,50.74,0,0,0,62.489,3.2a24.735,24.735,0,0,0-12.9,6.162c-3.5,3.109-6.092,6.956-9.359,10.246a37.027,37.027,0,0,0-6.563,9.728A74.863,74.863,0,0,1,29.2,37.1c-3.656,5.591-8.384,10.366-12.091,15.921-1.751,2.625-3,5.324-2.5,8.623a26.256,26.256,0,0,1,.207,7.11A83.854,83.854,0,0,1,6.446,95.813,67.526,67.526,0,0,0,2.465,105.883Zm72.959.7a7.82,7.82,0,0,1-4.582,1.117c-6.623-.1-13.3.126-19.675-2.238-.289-.107-.576-.448-.848,0-.226.371-.019.629.278.839a11.869,11.869,0,0,0,6.89,2.37,28.6,28.6,0,0,1,4.943.333,28.7,28.7,0,0,0,8.06.619c2.192-.244,4.411-.354,6.595-.443,4.128-.169,7.523-1.973,10.909-3.952a1.566,1.566,0,0,0,.631-1.95c-1.433.4-2.611,1.349-4.334,1.436a6.687,6.687,0,0,1,2.722-1.674,2.731,2.731,0,0,0,1.887-2.907c-.015-3.211.092-3.182-3.036-2.43a8.281,8.281,0,0,1-4.116.47A17.862,17.862,0,0,1,85.7,96.841c3.015-.933,3.021-.912,3.044-4.026.018-2.36.018-2.359-2.2-1.841a3.658,3.658,0,0,1-1.106.214c-1.06-.1-2.125.607-3.605-.065.975-.2,1.55-.349,2.134-.442A12.212,12.212,0,0,0,88.117,89.4c.264-.148.5-.36.391-.677-.133-.384-.47-.214-.721-.14-.4.116-.784.332-1.23-.058.28-.817,1.439-.626,1.773-1.5-1.31,0-2.332,1.087-3.741.764.605-.764,1.462-.749,2.048-1.187.544-.406,1.551-.275,1.711-1.438a20.115,20.115,0,0,1-7.006,2.52c.117-.6.508-.657.85-.776a17.461,17.461,0,0,0,5.265-2.387c.332-.26.772-.384.769-.922-.008-1.855.062-3.72-1.72-4.974-1.472-1.035-2.917-2.107-4.364-3.177-.419-.311-1.066-.535-1.3-.214-.674.911-1.757.856-2.6,1.339-4.363,2.5-8.975,3.613-13.86,1.8-2.292-.848-4.956-.984-6.684-3.087-.181-.221-.383-.207-.593.014-2.032,2.137-4.634,3.637-6.517,5.967-.81,1-.583,1.351.37,1.859a26.877,26.877,0,0,0,10.018,2.794,61.738,61.738,0,0,0,21.988-1.476c.525-.134,1.149-.662,1.9-.009-.48.2-.85.374-1.231.514-2.944,1.082-6.054,1.359-9.1,1.949A46.415,46.415,0,0,1,58.4,86.857a28.172,28.172,0,0,1-8.338-2.989c.108.533-.329,1.085.363,1.322,3.32,1.139,6.4,3,10.035,3.21a3.9,3.9,0,0,1,2.387.79c-4.767.179-8.78-1.136-12.82-2.872.072.828.156,1.484.18,2.143s0,1.333-.017,2c-.056,2.591-.044,2.534,2.489,3.122a16.17,16.17,0,0,1,4.49,1.291,12.475,12.475,0,0,1-6.693-.992c-.184.554-.236.923.537,1.132a15.455,15.455,0,0,0,4.272.908,2.243,2.243,0,0,1,1.982.736,13.293,13.293,0,0,1-6.893-.807,15.716,15.716,0,0,0-.012,3.118A1.063,1.063,0,0,0,51.18,100a31.792,31.792,0,0,0,4.225,1.124,7.55,7.55,0,0,1,3.02.681,5.333,5.333,0,0,1-2.511.076c-1.528-.29-3.043-.647-4.561-.984-.316-.069-.692-.542-.859.162a.726.726,0,0,0,.592.961,44.108,44.108,0,0,0,6.357,1.376c1.884.137,3.779.119,5.67.17a3.73,3.73,0,0,1-2.528.8,32.512,32.512,0,0,1-9.279-1.139c-.281-.077-.668-.61-.876.1-.154.524.139.8.576.969.927.352,1.844.743,2.793,1.021,4.007,1.173,8.177,1.063,12.278,1.438A36.088,36.088,0,0,0,75.424,106.586Zm-1.5-60.4h.042c-.043,1.617-.112,3.233-.115,4.85,0,.579-.057,1.2.826,1.4a3.505,3.505,0,0,1,2.669,3.314,2.727,2.727,0,0,0,1.277,1.988A9.656,9.656,0,0,0,88.2,58.841a13.76,13.76,0,0,0,8.4-8.852c.37-1.08.044-1.811-1.008-2.569-3.158-2.276-6.73-3.954-9.573-6.685a5.382,5.382,0,0,0-5.742-1.565A22.967,22.967,0,0,1,74.9,40.442c-.646.035-.857.393-.857,1.035C74.041,43.046,73.97,44.615,73.928,46.184ZM39.13,18.732c-1.654.531-2.978.068-4.317.022C29.205,18.561,23.6,18.472,18,18.006c-3.978-.331-7.973-.248-11.964-.24a2.426,2.426,0,0,0-2.552,1.781c-.252,1.335.8,3.884,1.8,4.013a27.513,27.513,0,0,0,6.513.5,120.552,120.552,0,0,1,13.5-.718c2.953.007,5.905.151,8.858.223A1.651,1.651,0,0,0,36,22.628c-6.277.723-12.3-.378-18.372-.57,6.385-.911,12.813-.016,19.209-.276l.01-.4-8.911-.7a1.942,1.942,0,0,1,1.894-.657c2.382.057,4.767.06,7.143.219C38.011,20.312,38.49,19.85,39.13,18.732Zm39.5,46.784c2.406.84,3.531,2.345,3.3,4.742-.013.141.008.286.008.429-.011,1.825.406,3.368,2.252,4.279a15.542,15.542,0,0,1,2.229,1.767c.253.191.478.818.878.354a.9.9,0,0,0-.045-1.29c-.587-.554-1.177-1.106-1.747-1.677a7.392,7.392,0,0,1-2.341-3.141c1.656,1.281,3,2.9,4.838,3.959-.964-1.856-2.963-2.859-3.816-4.815,1.631.862,2.7,2.487,4.652,3.559-.733-1.4-1.981-1.965-2.323-3.473,1.192.508,1.818,1.435,2.8,1.854-1.8-2.335-4.084-4.252-5.738-6.685l.281-.288,6.169,5.937.265-.228a13.059,13.059,0,0,1-2.615-3.425c1.543.336,2.152,1.693,3.342,2.254.143-1.123-1.147-1.468-1.269-2.413.631-.3.966.129,1.217.493.695,1.01,1.2.717,1.95-.019a22.949,22.949,0,0,1,5.56-3.954c3.238-1.674,6.708-2.941,9.547-5.327,1.692-1.421,3.435-2.8,4.332-5.048a9.408,9.408,0,0,1-2.855-.52c-.425-.134-.8-.269-1.2.29a18.444,18.444,0,0,1-4.786,4.628c-6.326,4.1-12.935,7.364-20.812,6.594A5.9,5.9,0,0,0,78.631,65.516Zm1.043,2.008c-.706-.265-1.088-1.006-1.88-.96.124,2.208-1.656,3.094-6.582,3.94-3.538.608-8.787-1.421-9.653-3.544a8.428,8.428,0,0,0-2.325,1.333c-.258.182-.574.335-.572.751q.011,2.355-.013,4.709a.8.8,0,0,0,.369.728A16.971,16.971,0,0,0,62.662,76.6c6.123,1.8,11.78.462,17.155-2.634.226-.13.6-.3.389-.733a13.24,13.24,0,0,1-5.259,1.99c1.156-1.385,2.917-1.513,3.7-3.064a18.52,18.52,0,0,1-10.453,1.834c3.3-.51,6.668-.763,9.435-3.156-.25-.007-.407-.061-.505-.007a13.883,13.883,0,0,1-8.9,1.416c-.369-.052-.95.038-.942-.405.009-.574.622-.4,1.015-.421.332-.015.666.021,1,.03A13.094,13.094,0,0,0,79.674,67.524Zm18.6-18.69c-.52,8.213-11.873,15.025-20.611,10-.557,2.062.016,4.066.018,6.114,1.352-2.318,3.342-2.776,5.741-2.4a12.209,12.209,0,0,0,8.112-1.334,24.5,24.5,0,0,0,8.372-7.769C102.25,50.03,102.5,50.42,98.273,48.834ZM63.545,64.3c-.284,2.8-.182,2.8,2.383,3.648a20.63,20.63,0,0,0,6.156.691,5.737,5.737,0,0,0,3.545-1.2,1.5,1.5,0,0,0,.656-1.583c-.176-1.5-.368-3-.563-4.586-4.057,1.289-8.082.843-12.471-.372,1.7,1.427,3.507,1.333,5.328,1.906-1.517.992-2.726.338-3.964.029-.332-.083-.792-.7-1.036-.125-.26.616.439.707.852.855a12.926,12.926,0,0,0,3.037.66c1.512.155,3.02.345,4.53.521C69.076,65.941,66.325,64.917,63.545,64.3ZM74.293,53.806c-.059.669.279,1.4-.664,1.781-2.788,1.126-5.56,1.618-8.28-.06-.629-.389-.863-.07-1.172.251-.476.493-.007.8.328,1.01a12.786,12.786,0,0,0,2.853,1.153c.891.3,1.924.069,2.895.717-2.23.34-2.746.233-6.58-1.307-.007.259-.11.559,0,.714.814,1.177,2.465.933,3.559,1.985-1.15.324-1.946-.34-2.834-.478-.24-.038-.582-.61-.784.006-.156.476.276.487.58.6a17.8,17.8,0,0,0,10.543.543c.786-.183,1.047-.525.835-1.285-.112-.4-.177-.818-.263-1.227-1.211.271-2.351.757-3.579.376a23.05,23.05,0,0,1,2.348-.825c.612-.228,1.444-.276,1.351-1.329C75.338,55.442,75.779,54.277,74.293,53.806ZM66.236,41.433a52.5,52.5,0,0,0,.429,13.1c.2,1.137,1.714.782,2.695.862.9.073.654-.643.661-1.1.068-4.274-.455-8.537-.241-12.814.009-.2-.076-.365-.423-.328-.5,1.4.058,3-.535,4.583-1.021-1.462.047-3.163-1.176-4.4L67.9,53.806l-.481.023C67.091,49.7,67.324,45.508,66.236,41.433Zm4.388,13.875c2.177-.438,2.234-.505,2.31-2.512.145-3.841-.468-7.647-.53-11.478-.009-.553-.114-.69-.733-.6-.824.115-1.014.4-1.055,1.24C70.4,46.405,70.83,50.848,70.624,55.308Z"/>
    <path d="M81.916,233.48c.472-.5,1.017-.394,1.529-.4a124.494,124.494,0,0,0,19.138-1.684c.606-.1,1.559-.432,1.763.309.215.781-.764.927-1.361,1.137a23.937,23.937,0,0,1-6.251,1.1,128.358,128.358,0,0,1-13.787-.034C82.576,233.9,82.167,233.951,81.916,233.48Z"/>
    <path d="M73.064,164.313a6.619,6.619,0,0,1,4.011-.245,50.426,50.426,0,0,0,15.012-.647c2.42-.394,4.833-.832,7.242-1.29.464-.088.814.018.914.413.13.509-.351.564-.711.685a42.646,42.646,0,0,1-6.422,1.135,53.435,53.435,0,0,1-13.321.783A28.613,28.613,0,0,1,73.064,164.313Z"/>
    <path d="M59.27,163.953c-.455.563-1.152.515-1.757.646a29.861,29.861,0,0,1-10.89-.055,46.939,46.939,0,0,1-9.188-2.172c-.088-.032-.206-.006-.278-.054-.4-.272-1.241-.3-1.082-.906.19-.72.936-.244,1.355-.15,2.066.462,4.094,1.1,6.166,1.534a50.987,50.987,0,0,0,15,.98C58.8,163.757,59.049,163.639,59.27,163.953Z"/>
    <path d="M58.543,223.384a2.862,2.862,0,0,1-2.207.68c-2.854-.082-5.715-.056-8.56-.257a50.671,50.671,0,0,1-10.6-2.252c-.378-.111-.863-.2-.707-.679s.6-.414,1.078-.3c2.233.554,4.466,1.1,6.738,1.5a45.586,45.586,0,0,0,7.495.72A56.311,56.311,0,0,1,58.543,223.384Z"/>
    <path d="M52.127,227.873a4.083,4.083,0,0,1-2.943.785A40.143,40.143,0,0,1,38.005,227.3c-.316-.077-.617-.217-.926-.323-.36-.124-.594-.367-.473-.747s.489-.435.832-.36c1.656.364,3.342.506,5.016.746,1.914.274,3.819.557,5.752.69C49.444,227.393,50.669,227.656,52.127,227.873Z"/>
    <path d="M83.09,172.155a3.355,3.355,0,0,1,1.741-.537c3.785-.308,7.6-.241,11.36-.842.5-.08,1.121-.324,1.275.429.136.667-.481.688-.921.834C93.62,173.011,85.329,173.128,83.09,172.155Z"/>
    <path d="M83.334,256.906c4.361-.02,8.453-.364,12.548-.626,1.217-.078,2.424-.307,3.64-.419.438-.041,1.114-.22,1.187.413.066.578-.531.636-1.035.7a72.011,72.011,0,0,1-9.6.609c-1.7-.021-3.4.263-5.106.117A1.716,1.716,0,0,1,83.334,256.906Z"/>
    <path d="M85.338,184.8c2.413.066,4.778.058,7.144-.026,1.669-.06,3.3-.286,4.944-.5.375-.048.956-.235,1.089.312.122.5-.4.682-.786.867a7.019,7.019,0,0,1-2.624.583,28.478,28.478,0,0,1-9.318-.659C85.6,185.331,85.421,185.3,85.338,184.8Z"/>
    <path d="M93.9,221.432c3.645-.509,7.269-1.013,10.893-1.523.414-.058.94-.271,1.036.34.075.467-.372.713-.777.886a17.154,17.154,0,0,1-5.285.862,22.192,22.192,0,0,1-4.674.244C94.587,222.183,94.019,222.259,93.9,221.432Z"/>
    <path d="M80.805,168.18a108.033,108.033,0,0,0,13.147-.857,16.237,16.237,0,0,0,2.214-.439c.289-.073.643-.159.772.113.19.4-.2.57-.5.712a14.487,14.487,0,0,1-4.706.9,53.891,53.891,0,0,1-9.385.379C81.679,168.952,81.679,168.953,80.805,168.18Z"/>
    <path d="M53.073,167.126a1.231,1.231,0,0,1-.911.468,35.71,35.71,0,0,1-11.925-1.467c-.175-.06-.328-.189-.5-.245-.3-.094-.563-.26-.515-.576.058-.369.418-.292.7-.31a6.094,6.094,0,0,1,1.666.311,65.346,65.346,0,0,0,10.4,1.451C52.332,166.774,52.757,166.608,53.073,167.126Z"/>
    <path d="M85.829,189.756a9.512,9.512,0,0,1,3.613-.736c2.525-.346,5.052-.653,7.542-1.2.472-.1.9-.072,1.083.4.218.562-.272.8-.662.884A34.053,34.053,0,0,1,85.829,189.756Z"/>
    <path d="M87.436,199.878c.31-.561.68-.4.985-.387a48.184,48.184,0,0,0,10.052-.8c.455-.079.955-.156,1.07.361s-.423.683-.81.846a9.386,9.386,0,0,1-2.794.474,39.793,39.793,0,0,1-7.4-.08A4.543,4.543,0,0,1,87.436,199.878Z"/>
    <path d="M88.743,259.354c1.347-.67,2.8-.354,4.165-.472,3.236-.279,6.459-.644,9.684-1.009.36-.04.88-.322.972.167.084.449-.475.6-.877.7a27.493,27.493,0,0,1-5.177.649A37.7,37.7,0,0,1,88.743,259.354Z"/>
    <path d="M82.827,132.96c.9-.846,2.127-.542,3.166-.7,3.032-.446,6.1-.656,9.15-.971.466-.048.922-.179,1.386-.249.372-.056.9-.53,1.075.105s-.5.64-.915.765a26.726,26.726,0,0,1-5.043.682c-2.773.29-5.56.445-8.342.65A.387.387,0,0,1,82.827,132.96Z"/>
    <path d="M99.982,138.292c-5.159,2.145-10.478,1.636-15.806.982C89.453,139.153,94.756,139.479,99.982,138.292Z"/>
    <path d="M81.337,194.145c2.29-.133,4.531-.263,6.771-.4,1.32-.077,2.643-.121,3.956-.258.439-.045.943-.262,1.03.305.084.549-.466.783-.936.865a11.635,11.635,0,0,1-2.115.233c-2.561-.029-5.121-.1-7.681-.178C82,194.707,81.579,194.74,81.337,194.145Z"/>
    <path d="M83.107,278.572a13.93,13.93,0,0,1-5.99,1.445c-2.121.2-4.267.15-6.4.187-.4.006-1,.088-.928-.546.06-.531.62-.31.949-.289a38.517,38.517,0,0,0,10.85-.822A6.428,6.428,0,0,1,83.107,278.572Z"/>
    <path d="M89.357,204.441c1.787-.626,3.677-.115,5.5-.454,1.106-.2,2.271.081,3.4-.214.456-.119,1.073-.086,1.1.552.025.548-.515.773-1,.8-1.092.059-2.189.113-3.28.065-1.916-.083-3.829-.244-5.744-.372Z"/>
    <path d="M84.013,176.159c.453-.8,1.038-.491,1.506-.493a82.282,82.282,0,0,0,8.542-.349c.095-.01.191-.009.286-.013.576-.027,1.465-.8,1.62.233.124.822-1,.861-1.55.859C91,176.386,87.579,176.255,84.013,176.159Z"/>
    <path d="M44.936,235.744c-1.156.967-2.34.5-3.393.562a12.058,12.058,0,0,1-5.245-.752c-.286-.115-.554-.195-.512-.547.048-.408.4-.34.659-.313,1.682.175,3.373.3,5.037.587C42.561,235.465,43.716,235.233,44.936,235.744Z"/>
    <path d="M52.268,170.318a11.851,11.851,0,0,1-5.783.439,5.746,5.746,0,0,1-2.187-.506c-.208-.135-.409-.251-.407-.513s.241-.516.438-.476C46.945,169.805,49.647,169.688,52.268,170.318Z"/>
    <path d="M77.677,126.185c3.437.039,6.77-.743,10.141-1.2C84.525,126.149,81.2,127.044,77.677,126.185Z"/>
    <path d="M71.487,275.829a35.586,35.586,0,0,1-7.017.5c-.4-.016-.84-.107-.811-.567s.519-.288.8-.279a42.435,42.435,0,0,0,5.66-.105A1.21,1.21,0,0,1,71.487,275.829Z"/>
    <path d="M53.915,128.885a26.987,26.987,0,0,1,7.632.758C60.252,130.383,55.183,129.907,53.915,128.885Z"/>
    <path d="M46.315,239.476c-2.009-.053-4.019-.1-6.028-.171a.522.522,0,0,1-.45-.489.386.386,0,0,1,.443-.43c1.861.421,3.8-.08,5.64.476a3.3,3.3,0,0,1,.5.244Z"/>
    <path d="M44.242,242.327c-.6-.252-1.969.463-1.931-.755.024-.8,1.347-.447,2.1-.523a1.764,1.764,0,0,1,.84.069c.484.208,1.443-.152,1.408.555-.041.807-.965.653-1.6.674C44.828,242.354,44.592,242.336,44.242,242.327Z"/>
    <path d="M91.329,142.475a15.509,15.509,0,0,1,4.263-.885c.269-.019.6-.065.668.326a.5.5,0,0,1-.4.652C94.353,142.749,92.836,143.333,91.329,142.475Z"/>
    <path d="M95.269,135.039A15.569,15.569,0,0,1,89,135.53,11.507,11.507,0,0,1,95.269,135.039Z"/>
    <path d="M88.658,130.363l6.662-.567.034.431a16.691,16.691,0,0,1-6.663.571Z"/>
    <path d="M50.6,173.152a4.015,4.015,0,0,1-2.573.635c-.3-.015-.588-.08-.6-.441-.018-.516.413-.447.707-.432A7.33,7.33,0,0,1,50.6,173.152Z"/>
    <path d="M91.7,12.929A6.4,6.4,0,0,1,89.087,11.6a17.169,17.169,0,0,0-6.6-2.843c-3.018-.625-5.967-1.6-9-2.15a35.743,35.743,0,0,0-15.382.557,8.32,8.32,0,0,0-.817.218c-.28.1-.581.237-.72-.128-.133-.347.237-.482.441-.6A11.979,11.979,0,0,1,60.7,5.26,58.423,58.423,0,0,1,71.27,3.968a20.841,20.841,0,0,1,6.172.976c2.418.687,4.91,1.15,7.27,1.99A13.291,13.291,0,0,1,91.7,12.929Z"/>
    <path d="M89.33,35.6A13.89,13.89,0,0,1,84,34.59a9.668,9.668,0,0,0-5.591-.263,77.126,77.126,0,0,1-12.176,2.037,15.657,15.657,0,0,1-6.14-.885c-.3-.11-.756-.116-.713-.55.054-.548.578-.417.911-.405a52.224,52.224,0,0,0,6.691.036,42.763,42.763,0,0,0,9.092-2.178c.406-.131.8-.283,1.2-.448C82.1,29.9,85.649,32.243,89.33,35.6Z"/>
    <path d="M18.06,83.159a86.883,86.883,0,0,0,4.229-11.745q1.392-5.619,2.664-11.269a4.068,4.068,0,0,1,.869-1.744c1.658-2.015,3.932-3.12,6.086-4.4l.255.3A10.786,10.786,0,0,1,30.4,55.985c-3.2,1.918-4.259,5.174-4.874,8.428a69.826,69.826,0,0,1-4.747,14.145c-.567,1.341-1.215,2.647-1.82,3.972A.888.888,0,0,1,18.06,83.159Z"/>
    <path d="M110.2,40.311a3.674,3.674,0,0,1-4.038,3.78,3.132,3.132,0,0,1-2.972-3.311c.094-2.081,2.335-4.316,4.258-4.247C108.872,36.584,110.293,38.536,110.2,40.311Zm-2.039.268c.1-.675-.19-1.291-.8-1.284-.822.009-1.266.769-1.446,1.5a.778.778,0,0,0,.843,1.023A1.242,1.242,0,0,0,108.159,40.579Z"/>
    <path d="M79.865,81.835c-.132.892-.846.993-1.374,1.147-4.818,1.409-9.678,2.459-14.759,1.724-3.6-.522-7.244-.84-10.726-2.01-.222-.074-.441-.162-.656-.254-.3-.128-.729-.248-.6-.648.139-.442.533-.2.844-.125,1.744.417,3.483.858,5.236,1.227a29.712,29.712,0,0,0,7.24.323c3.874-.142,7.728-.569,11.578-1.024C77.7,82.071,78.756,81.959,79.865,81.835Z"/>
    <path d="M61.494,90.434a4.137,4.137,0,0,1-2.965.389,29.535,29.535,0,0,1-5.961-1.59c-.336-.132-.937-.26-.728-.8.2-.526.628-.126.963-.031,2.707.769,5.357,1.815,8.25,1.678C61.254,90.07,61.408,90.177,61.494,90.434Z"/>
    <path d="M82.151,103.051c1.467-1.054,3.192-1.373,4.756-2.081a.42.42,0,0,1,.607.146c.148.248-.117.361-.234.431A9.914,9.914,0,0,1,82.151,103.051Z"/>
    <path d="M59.405,92.93c-.7-.082-1.408-.136-2.1-.261-.237-.042-.613-.123-.529-.519a.49.49,0,0,1,.548-.359c1.318.094,2.636.206,3.953.319.248.021.521.145.5.4a.5.5,0,0,1-.52.4c-.615-.006-1.23-.03-1.845-.046Z"/>
    <path d="M57.059,98.355c-1.423,1.075-2.87.373-4.309.228a.459.459,0,0,1-.432-.474c.046-.378.331-.365.633-.322C54.319,97.983,55.689,98.167,57.059,98.355Z"/>
    <path d="M88.033,94.452c-1.383,1.511-2.98,1.523-4.5,1.72A8.044,8.044,0,0,1,88.033,94.452Z"/>
    <path d="M82.858,94.215c1.04-.786,2.12-.747,3.044-1.133a.333.333,0,0,1,.5.294.465.465,0,0,1-.345.53A4.665,4.665,0,0,1,82.858,94.215Z"/>
    <path d="M83.7,100.665c.761-.328,1.52-.66,2.284-.981.234-.1.467-.106.571.2a.429.429,0,0,1-.27.569A2.964,2.964,0,0,1,83.7,100.665Z"/>
    <path d="M14.406,22.253c-1.1.794-2.29.315-3.458.244C12.041,21.837,13.253,22.336,14.406,22.253Z"/>
    <path d="M67.414,75.962l6.507-.727c-2.05,1.224-4.255,1.179-6.451,1.2Z"/>
    <path d="M67.153,73.905a8.109,8.109,0,0,1-6.711-1.868C62.937,72.565,64.938,73.617,67.153,73.905Z"/>
    <path d="M67.5,66.061a48.082,48.082,0,0,0,7.094-.173C73.475,67.09,68.615,67.209,67.5,66.061Z"/>
  </g>
</svg>
