<svg xmlns="http://www.w3.org/2000/svg" viewBox="0 0 70.062 269.826">
  <g>
    <path d="M30.681,262.306c-3.2-6.093-4.254-12.269-5.173-18.432-1.6-10.708-1.595-21.527-1.8-32.323-.2-10.367.648-20.694,1.232-31.034.395-6.985.471-13.989.7-20.984.5-15.036-2.095-29.736-4.879-44.406a154.478,154.478,0,0,0-4.441-16.383A170.974,170.974,0,0,1,12.08,80.06,87.382,87.382,0,0,0,9.4,68.926c-.461-1.411-.187-3.146-.48-4.7A235.582,235.582,0,0,1,5.3,40.265c-.583-6.978-2.407-13.639-4.345-20.3-.29-.994-.54-2-.762-3.015-.725-3.3.612-5.867,3.879-7.819A69.29,69.29,0,0,1,22.312,1.537,44,44,0,0,1,44.046,1.2,65.849,65.849,0,0,1,55.12,5.388a82.7,82.7,0,0,1,11.728,5.855c3.508,2.26,3.712,3.039,2.648,7.1-2.373,9.072-4.748,18.155-5.816,27.5a165.24,165.24,0,0,1-4.1,21.474c-1.89,7.531-3.512,15.134-4.978,22.768-1.19,6.19-2.432,12.383-4.017,18.479a98.571,98.571,0,0,0-3.131,23.409c-.156,9.981-.205,19.955.258,29.921.319,6.881.914,13.75,1.429,20.622.6,7.947.824,15.922,1.242,23.884.288,5.468.815,10.92.752,16.411a177.7,177.7,0,0,1-3.521,34.427,38.932,38.932,0,0,1-3.649,9.816c-1.485,2.882-3.389,3.414-6.3,2.043A13.15,13.15,0,0,1,30.681,262.306ZM56.794,35.935a.89.89,0,0,1-.537-1.036c.114-8.671.223-17.343.383-26.014.015-.829-.273-1.408-.989-1.415-.7-.006-.4.762-.462,1.214-.325,2.535-.641,5.071-.972,7.707-.75-.529-.557-1.152-.565-1.688a46.2,46.2,0,0,1,.465-7.294c.077-.536.068-.757-.444-.883-.634-.156-1.1-.8-1.823-.648-.72,8.94-.852,17.894-1.344,27.01a3.688,3.688,0,0,1-.621-2.3,199.838,199.838,0,0,1,.576-24.58c.057-.545.1-.9-.6-1.147-1.766-.616-1.854-.619-2.122,1.209-.1.663-.1,1.34-.2,2a20.16,20.16,0,0,1-.886,4.63c-.532-.255-.439-.639-.478-1a21.428,21.428,0,0,1,.256-6.358c.312-1.634-.386-1.82-1.566-1.922-.552,3.359-.779,6.778-1.677,10.348a1.909,1.909,0,0,1-.493-1.757c.2-2.489.315-4.992.7-7.453.219-1.4-.045-2.043-1.484-2.039-.421,1.7-.2,3.529-1.076,5.147-.773-.445-.589-1.094-.594-1.621-.01-1.036.073-2.075.162-3.109.036-.42.215-.808-.46-.857-.6-.043-.727.193-.765.757-.072,1.066.1,2.222-.764,3.206A2.817,2.817,0,0,1,37.993,4.3c-.188-2.4-.182-2.4-2.649-2.552a1.039,1.039,0,0,1-.155-.024c-.6-.138-.866.051-.777.707.67,4.959.356,9.959.61,14.936.11,2.151.091,4.308.135,6.671a3.141,3.141,0,0,1-.861-2.229c-.751-6.347-.864-12.739-1.344-19.1-.028-.373.234-1.005-.6-1-.911.005-.45.639-.477.993-.127,1.705.074,3.446-.653,5.111-.3-.879-.366-1.789-.591-2.659-.291-1.129.615-2.745-.656-3.325-1.041-.475-2.448.017-3.674.271a4.278,4.278,0,0,1-.607.145c-.855.045-.958.507-.894,1.271.208,2.485.37,4.975.464,7.467A5.881,5.881,0,0,1,25.14,13.7,1.753,1.753,0,0,1,24.5,12.24c-.337-2.779-.717-5.552-1.013-8.335-.088-.831-.311-1.122-1.168-.856-1.288.4-2.612.682-3.9,1.085-.439.138-.882.261-.8,1.066q.947,9.546,1.717,19.109c.2,2.472.178,4.962.258,7.444l-.542.04c-1.255-8.824-2.636-17.63-3.36-26.529-.67.265-1.295.528-1.932.759-.449.162-.65.339-.526.91,1.222,5.608,1.3,11.337,1.738,17.028.075.989.491,1.982.171,3.047-.592-.376-.545-.923-.664-1.418C13.1,19.871,12.8,14,11.9,8.206c-.065-.42.022-1.2-.545-1-.682.234-1.843.281-1.763,1.43.121,1.754.374,3.5.583,5.248.279,2.325.568,4.647.853,6.971l-.452.075A35.81,35.81,0,0,1,8.046,8.868c-1.224.554-2.124,1.247-1.792,3.011a20.378,20.378,0,0,1,.18,5.668c-.682-.172-.606-.63-.661-1.021q-.3-2.152-.614-4.3c-.053-.377.06-.955-.575-.813-.517.116-.722.52-.469,1.1A19.793,19.793,0,0,1,5.3,18.282a91.086,91.086,0,0,1,1,9.075,4.433,4.433,0,0,1-.936-1.96Q4.227,19.915,3.1,14.429c-.075-.362.1-1.005-.545-.878a.918.918,0,0,0-.843,1.109,40.116,40.116,0,0,0,.935,5.025,99.477,99.477,0,0,1,3.3,14.524c1.411,8.477,2.839,16.949,4.559,25.37a5.761,5.761,0,0,0,2.206,3.412A227.555,227.555,0,0,0,6.868,29.615c.855.391.877.705.949,1.014.539,2.314,1.139,4.614,1.632,6.938,1.85,8.718,4.88,17.184,5.622,26.139.088,1.068.77,1.319,1.66,1.425a78.02,78.02,0,0,0-2.346-15.767c.71.066.772.388.856.683,1.454,5.137,3.137,10.227,3.464,15.61.065,1.067.7,1.162,1.488,1.074,1.027-.116.483-.824.4-1.277A150.513,150.513,0,0,1,18.238,49.6c-.039-.475-.234-.957.293-1.4a3.179,3.179,0,0,1,.325.633c1.239,5.672,2.5,11.34,3.666,17.027.187.912.566,1.036,1.341,1.013,1.134-.032.474-.806.549-1.244.116-.672-.4-1.359-.031-2.221A6.308,6.308,0,0,1,25.6,66.2c.117.843.8.868,1.434.807.834-.08.371-.732.353-1.09-.058-1.191-.238-2.375-.326-3.565a4.377,4.377,0,0,1,.046-2.56c1.214,1.667,1.316,3.558,1.576,5.307.256,1.723.9,2.315,2.49,1.958.125-1.244-.356-2.5.07-3.948,1.074,1.475.339,3.376,1.788,4.973-.541-9.671-2.151-18.782-2.846-28.122.98.424.768,1.17.833,1.7,1.035,8.487,2.792,16.873,3.545,25.4.039.446-.056,1.226.747,1.1.711-.113.294-.755.288-1.142-.129-9.39-.573-18.77-.968-28.151-.02-.481-.245-1.023.206-1.474.539.493.423,1.145.457,1.739q.823,14.2,1.639,28.392c.031.525-.142,1.375.655,1.369s.489-.825.539-1.324a30.771,30.771,0,0,1,.7-5.5,1.7,1.7,0,0,1,.6,1.45c.076,1.656.228,3.311.238,4.967.007,1.228.5,1.828,1.784,1.8.574-3.387.557-6.892,1.609-10.32a1.668,1.668,0,0,1,.472,1.613c-.093,2.428-.179,4.857-.326,7.282-.12,1.977-.157,1.975,1.856,2.016.209,0,.418.007.627.019.935.052,1.262-.278,1.391-1.319.534-4.308,1.2-8.6,1.912-12.884a8.52,8.52,0,0,1,1.065-3.731,5.06,5.06,0,0,1,.267,2.421,109.512,109.512,0,0,1-1.8,14.419c-.2.948.158.892.839.854.848-.047.838-.654.909-1.21.185-1.438.261-2.895.544-4.312.167-.834.089-1.9,1.269-2.423L51.664,70.1c.965-.158,1.457-.45,1.529-1.487a47.411,47.411,0,0,1,.751-4.889c.79-4.5,2.264-8.862,2.815-13.421a10.7,10.7,0,0,1,1.108-4.2,63.969,63.969,0,0,1-1,11.357C56.229,61.224,55.623,65,55,68.8c1.385-.372,2.621-.713,2.957-2.372C60.205,55.346,61.883,44.156,64.29,33.1c1.163-5.343,2.155-10.724,3.192-16.094.172-.889,1.184-1.752.561-2.594a8.026,8.026,0,0,0-2.312-1.55c-.077-.048-.2-.02-.326-.029-.143,1.91-.263,3.82-.432,5.726-.978,11.053-3.8,21.8-5.439,32.745-.065.432-.147.972-.632.912-.575-.071-.315-.7-.293-1.035a90.8,90.8,0,0,1,1.181-9.558c1.284-7.38,2.6-14.756,3.54-22.191.272-2.153.469-4.323.906-6.443.253-1.229-.667-1.432-1.248-1.586-.9-.239-.6.721-.678,1.171-.2,1.174-.237,2.375-.441,3.548-.4,2.3-.868,4.582-1.347,7.076a2.712,2.712,0,0,1-.5-2.183,97.83,97.83,0,0,1,.643-9.963c.159-1.568-1.176-1.521-1.9-1.677-.753-.161-.385.815-.408,1.29-.271,5.5-.476,11.013-.787,16.515C57.4,30.059,57.064,32.927,56.794,35.935ZM35.787,138.829c-.843-.538-.775-1.294-.9-1.988-.962-5.519-1.054-11.108-1.333-16.683-.023-.458.311-1.081-.706-1.194-1.38-.152-1.767.055-1.506,1.563a48.374,48.374,0,0,1,.737,7.969c-.706-.254-.731-.72-.811-1.178-.384-2.191-.791-4.379-1.175-6.57-.44-2.514-.556-2.625-3.186-2.873.727,4.207,2.413,8.232,2.511,12.585-.54-.024-.627-.3-.754-.7-1.192-3.758-2.069-7.6-2.941-11.435a2.389,2.389,0,0,0-1.791-2.033,3.39,3.39,0,0,0,.132,1.743c2.692,14.586,5.008,29.211,4.377,44.124-.245,5.8-.5,11.6-.861,17.386-.448,7.181-1.222,14.338-1.426,21.538-.253,8.977-.509,17.959.113,26.921.764,11,1.009,22.1,6.347,32.267,1.65,3.141,3.532,5.688,6.817,7.161,1.1.493,1.759.355,2.363-.577a12.085,12.085,0,0,0,.8-1.339,45.361,45.361,0,0,0,4.221-13.54,252.275,252.275,0,0,0,1.965-28.689c.235-10.819-.919-21.572-1.719-32.335-1.165-15.652-2.631-31.281-2.817-46.993-.084-7.035-.052-14.059,1.161-21.013.522-2.992,1.009-5.98,1.314-9.026-1.952.2-2.7,1.136-2.936,3.047-.993,7.927-2.18,15.841-1.7,23.857.312,5.155,1.1,10.284,1.327,15.439.446,10.085,1.059,20.159,1.619,30.236a21.626,21.626,0,0,1-.036,4.9,1.671,1.671,0,0,1-.546-1.4c-.37-5.1-.773-10.205-1.122-15.31-.6-8.765-.518-17.573-1.508-26.309a95,95,0,0,1-.053-21.207c.411-3.727.122-7.52.807-11.566-1.166.884-2.871.514-2.944,2.253-.241,5.728-.52,11.457-.6,17.187-.046,3.257.288,6.517.4,9.778.016.473.326,1.129-.485,1.565a151.081,151.081,0,0,1-.675-28.2c-.916.207-1.719.423-2.536.561A1.016,1.016,0,0,0,34.766,120c.221,3.825.393,7.652.595,11.478C35.491,133.927,35.644,136.378,35.787,138.829ZM20.211,104.136a17.566,17.566,0,0,0,.618,3.415c.355.875.209,2.226,1.582,2.434,2.238.339,4.3,1.3,6.482,1.8a31.645,31.645,0,0,0,14.847.128c1.306-.322,2.814-.491,4.061-1.956a30.666,30.666,0,0,1-7.953.612c-2.555-.233-5.044-.827-7.558-1.291a49.288,49.288,0,0,1-7.535-1.735,2.558,2.558,0,0,1,1.847-.162,38.617,38.617,0,0,0,13.356.39c1.7-.278,3.415-.441,5.124-.651,3.381-.416,3.381-.414,4.121-3.923l-5.489-.066a1.513,1.513,0,0,1,1.48-.741c1.185-.077,2.369-.265,3.553-.262,1.129,0,1.54-.48,1.477-1.524a14.854,14.854,0,0,1-6.7-.419,33.748,33.748,0,0,1,5.631-.7c1.391-.031,1.908-.671,2.127-1.909.352-2,.7-4,1.218-5.962.293-1.114-.15-1.008-.95-.981a36.9,36.9,0,0,1-8.428-.416c.445-.686,1-.579,1.484-.606,2.483-.142,4.966-.313,7.451-.384,1.035-.029,1.008-.814,1.059-1.378.086-.951-.661-.49-1.1-.465-1.451.082-2.9.2-4.35.269a10.392,10.392,0,0,1-3.8-.156,3.279,3.279,0,0,1,.733-.375c1.688-.24,3.39-.4,5.069-.693,4.877-.841,3.721.433,4.74-4.238.015-.069-.092-.165-.1-.183-4.111.081-8.18.72-12.329.134.165-.471.335-.487.565-.5A80.81,80.81,0,0,0,53.8,80.522c.681-.126,1.24-.174,1.113-1.047-.148-1.021-.852-.339-1.272-.358-1.227-.054-2.492.357-3.982-.3,1.6-.823,3.088-.779,4.478-1.109.451-.107,1.064-.081,1.214-.562a20.757,20.757,0,0,0,1.2-5.4,11.581,11.581,0,0,1-3.44,1.088c-4.112.649-8.229,1.179-12.381,1.588A64.655,64.655,0,0,1,13.6,71.47c-.411-.137-.91-.549-1.279-.2-.39.367.134.87.116,1.335-.03.815.657.838,1.187.983,2.116.582,4.255,1.086,6.353,1.724a55.5,55.5,0,0,0,12.233,2.52c.3.021.733-.117.9.575-6.845.6-13.545.716-19.916-2.375a2.15,2.15,0,0,0,1.385,2.507,57.453,57.453,0,0,0,17.7,4.279c2.494.175,4.973.564,7.459.856l-.086.552C30.9,83.657,22.074,83.59,13.867,79.5c.059,1.859.057,1.865,1.483,2.306,2.6.8,5.2,1.586,7.794,2.4.282.089.785-.011.757.723-3.307-.015-6.318-1.456-9.684-1.97.688,1.482.1,3.359,2.37,3.876a90.933,90.933,0,0,0,15.982,2.518,8.88,8.88,0,0,1,3.189.392.654.654,0,0,1-.608.494,60.194,60.194,0,0,1-19.665-2.558c.271,1.107.528,1.991.7,2.89a1.761,1.761,0,0,0,1.584,1.553,38.709,38.709,0,0,0,6.144,1.037c.419.031.944-.066,1.154.741a34.241,34.241,0,0,1-7.768-.352c1.75,1.163,3.966.945,5.992,1.783-.318.228-.432.373-.565.4-1.566.255-3.09-.306-4.742-.272.407,2.957,3.425,1.385,4.721,2.823-1.308.733-2.621-.069-3.88.06-.063,1,.407,1.438,1.365,1.729,3.878,1.176,7.87,1.277,11.861,1.443,1.832.077,3.666.133,5.743.208-2.03,1.437-11.768,1.142-18.076-.362-.085.786.034,1.356.948,1.657a32.008,32.008,0,0,0,11.779,1.9c3-.155,6.013-.123,9.02-.14.277,0,.77-.254.892.589C34.981,106.056,27.641,107.358,20.211,104.136Z"/>
    <path d="M23.489,27.459a44.1,44.1,0,0,1-1.316-7.4A87.19,87.19,0,0,1,20.9,8.966a12.349,12.349,0,0,1,.034-1.4c.022-.234.047-.571.393-.562a.548.548,0,0,1,.6.567c.056.879.234,1.755.221,2.631-.08,5.462.874,10.815,1.648,16.188.048.333.051.673.075,1.01Z"/>
    <path d="M46.043,58.274a3,3,0,0,1,.5,2.667c-.126,1.9-.31,3.8-.513,5.688-.032.3-.03.84-.557.743-.323-.06-.374-.438-.337-.776C45.425,63.96,45.71,61.322,46.043,58.274Z"/>
    <path d="M10.57,31.272c1.061.521.981,1.459,1.175,2.27.465,1.942.836,3.906,1.241,5.862.063.3.12.687-.218.781s-.5-.173-.574-.55C11.67,36.844,11.115,34.059,10.57,31.272Z"/>
    <path d="M22.546,52.732c.9,1.416.8,3.08,1.114,4.648a.44.44,0,0,1-.473.5c-.343-.043-.48-.4-.508-.7A15.549,15.549,0,0,1,22.546,52.732Z"/>
    <path d="M51.694,60.286c-.7-1.675.192-3.073.76-4.528A7.976,7.976,0,0,1,51.694,60.286Z"/>
    <path d="M28.557,131.479c1.451,1.689,1.685,3.8,2.18,5.822,2.461,10.057,2.671,20.3,2.711,30.584.044,11.147-1.084,22.2-2.174,33.265a141.987,141.987,0,0,0,3.066,46.158,97.283,97.283,0,0,0,4.119,12.254c.367.973.795,1.929,1.082,2.926.124.429.433,1.119-.278,1.345-.5.159-.815-.316-1.07-.729a30.392,30.392,0,0,1-2.235-5.168c-4.232-10.945-5.948-22.475-7.7-33.983-1.382-9.087-.607-18.16.263-27.258,1.082-11.313,2.334-22.606,2.447-34.015a221.03,221.03,0,0,0-2.106-29.411C28.79,132.669,28.661,132.075,28.557,131.479Z"/>
    <path d="M42.653,201.123a4.317,4.317,0,0,1-.479-2.585c-.6-9.177-1.3-18.35-1.451-27.551-.041-2.59-.188-5.178-.252-7.767-.009-.365-.184-1.009.4-1.016s.376.655.395.993c.381,6.764.714,13.531,1.09,20.3.31,5.589.562,11.179.556,16.778C42.915,200.54,43.189,200.9,42.653,201.123Z"/>
    <path d="M38.283,220.7a49.163,49.163,0,0,1,.788,8.662c.323,7.571.577,15.144.866,22.716.015.408.212.931-.355,1.03s-.595-.516-.679-.866a20.077,20.077,0,0,1-.37-4.176q-.339-12.39-.662-24.78A3.652,3.652,0,0,1,38.283,220.7Z"/>
    <path d="M46.689,216.857q-.777-9.715-1.556-19.432l.578-.049a105.317,105.317,0,0,1,1.518,19.435Z"/>
    <path d="M41.6,242.177c.828.564.668,1.321.7,1.994.128,2.324.163,4.653.253,6.979.014.379.072.82-.373.881-.342.047-.44-.352-.445-.679Q41.67,246.765,41.6,242.177Z"/>
    <path d="M35.481,247.638c-.593-2.871-.021-5.721.19-8.577A18.584,18.584,0,0,1,35.481,247.638Z"/>
    <path d="M40.077,156.27a21.583,21.583,0,0,1-.692-5.256c-.021-.238-.02-.578.3-.638.417-.08.539.327.554.581A17.093,17.093,0,0,1,40.077,156.27Z"/>
    <path d="M48.1,76.755c-3.278,1.952-6.905,2.071-10.59,1.857a.772.772,0,0,1-.795-.8c0-.532.439-.676.867-.708,1.758-.13,3.518-.227,5.276-.355,1.725-.125,3.449-.273,5.174-.411Z"/>
    <path d="M19.8,90.7c3.852.4,7.565,1.61,11.426,1.935A22.513,22.513,0,0,1,19.8,90.7Z"/>
    <path d="M40,94.6c.879-.712,1.692-.407,2.418-.468,1.644-.136,3.3-.152,4.949-.183.321-.007.8-.058.851.419.04.392-.349.467-.664.511A22.049,22.049,0,0,1,40,94.6Z"/>
    <path d="M47.7,95.513c-1.4.965-4.669.956-6.648,0Z"/>
    <path d="M24.126,86.691a7.265,7.265,0,0,1-4.109-.437c-.207-.061-.412-.211-.319-.427.064-.15.335-.347.459-.314C21.376,85.831,22.705,85.786,24.126,86.691Z"/>
  </g>
</svg>
