<svg xmlns="http://www.w3.org/2000/svg" viewBox="0 0 175.663 256.38">
  <g>
    <path d="M23.288,94.1c-3.711,1.326-7.642-.443-9.7-4.23a50.164,50.164,0,0,1-4.8-14.037c-1.5-7.281-3.3-14.495-4.765-21.78-1.284-6.389-2.9-12.719-3.53-19.238a24.765,24.765,0,0,0-.416-3.589,1.717,1.717,0,0,1,1.046-2.147c1.184-.515,2.384-.991,3.572-1.5.635-.27.7.276.925.61,1.031,1.513,1.288,3.4,2.538,5.289.01-1.711-.788-2.748-1.165-3.905-.693-2.129-.07-3.029,1.475-3.676,1.041-.436,1.619-.049,2.01.915.824,2.027,1.676,4.042,2.554,6.151.644-.638.177-1.077.05-1.513-.574-1.976-1.626-3.773-2.141-5.785-.172-.672.022-.852.494-1.069.261-.12.517-.251.78-.367C14.1,23.4,14.65,23.6,15.575,25.45a17.731,17.731,0,0,0,1.253,2.216c.2-.9-.348-1.565-.683-2.281-.9-1.917-.595-2.759,1.292-3.465a1.684,1.684,0,0,1,2.2.727c.443.622.662,1.459,1.538,1.931.061-1.466-1.928-2.83-.142-4.066.867-.6,2.1-1.312,3.02-.993.894.311,1.477,1.517,2.209,2.343.9-1.13-1.622-2.587.477-3.468a10.3,10.3,0,0,1,2.806-1.049c1.162-.107,1.2,1.521,2.324,1.944,0-1.138-1.22-2.321.787-3.214,2.576-1.147,3.859-.411,4.691,2.515.145-.722.226-.871.188-.975-1.062-2.9-.6-3.648,2.446-4.236.6-.116.633.245.812.512a6.053,6.053,0,0,0,2,2.343c-.267-1.08-.436-1.972-.716-2.827-.167-.51-.118-.883.357-1.09.965-.421,1.946-.807,2.934-1.17.445-.164.7.131.92.495a13.094,13.094,0,0,0,1.978,2.593,24.488,24.488,0,0,0-.6-2.858c-.226-.688-.1-.957.571-1.155,3.1-.912,2.438-1.56,4.334,1.408.114.178.225.451.674.3-.24-.641-.491-1.282-.719-1.932a1.008,1.008,0,0,1,.808-1.5c.047-.012.1,0,.145-.019,1.038-.351,2.067-.734,3.117-1.05,1.549-.466,1.037,1.67,2.168,1.757a.6.6,0,0,0,.055-.135c.127-.78-1.008-1.712-.391-2.1A14.381,14.381,0,0,1,62.3,5.609c.488-.131.662.459.909.8.338.475.34,1.187.965,1.481.182-.215.092-.375.076-.562C64.187,6.6,63.277,5.6,63.816,5.3a12.258,12.258,0,0,1,3.819-1.065c.2-.036.534.724.821,1.105.17.225.346.568.668.447.351-.132.249-.48.1-.73-.569-.955-.241-1.3.781-1.626,2.072-.663,2.044-.747,3.591.536.584-.534-1.073-1.536.465-1.952.9-.244,1.913-.921,2.682-.631.673.254,1.019,1.376,1.521,2.132.152-.143.25-.193.279-.269.3-.8-1.493-1.882.45-2.5,3.71-1.188,4.731-1.069,5.854,1.2a69.216,69.216,0,0,1,3.111,8.527c2.563,7.511,4.7,15.162,7.535,22.587a36.039,36.039,0,0,1,2.334,10.663c.047.768.487.916.97,1.222,3.293,2.084,6.994,3.573,9.891,6.214,4.727,4.308,10.153,7.9,14.114,12.982a47.983,47.983,0,0,1,6.913,11.75c1.957,4.943,3.763,9.948,5.949,14.8,2.246,4.981,3.042,10.354,4.223,15.622,1.159,5.172,2.1,10.389,3.37,15.539a224.741,224.741,0,0,0,8.774,27.735c2.41,6.193,4.133,12.653,6.456,18.9.873,2.346,1.592,4.757,2.233,7.178,1.074,4.063,3.354,7.587,4.953,11.415,1.956,4.685,3.273,9.574,4.9,14.365.613,1.813,1.77,3.435,2.5,5.217,2.2,5.392,3.442,11.077,1.926,16.741-2.238,8.361-6.608,15.783-11.5,22.887-2.459,3.568-5.9,5.313-10.044,6.225-5.051,1.109-10.014,2.683-15.15,3.337-4.019.511-8.173,1.063-12.079-.46a36.08,36.08,0,0,1-15.2-10.9c-6.769-8.209-10.876-17.823-15.952-26.937-3.673-6.594-7.026-13.352-11.321-19.611-3.806-5.544-7.087-11.444-10.836-17.042a14.5,14.5,0,0,0-6.458-5.839c-2.054-.849-4.059-1.815-6.081-2.74a19.26,19.26,0,0,1-4.656-2.934,33.38,33.38,0,0,0-3.6-2.715,19.635,19.635,0,0,1-7.568-9.71,142.226,142.226,0,0,0-10.42-21.023,60.465,60.465,0,0,1-7.046-16c-1.272-5.087-2.383-10.231-3.232-15.422A56.559,56.559,0,0,1,23.288,94.1ZM170.264,204.858c-.016,3.293-1.6,5.988-3.127,8.674a1.84,1.84,0,0,0-.1,2.125c1.2,2.173-.144,5.141-2.3,4.873a4.2,4.2,0,0,0-3.4,1.072c-4.88,3.717-10.555,5.3-16.524,6.074-2.743.357-5.48.7-8.073-.664-.645-.338-.979-.066-1.476.38-1.9,1.707-6.358,2.041-6.96-1.589a1.973,1.973,0,0,0-1.305-1.641,23.481,23.481,0,0,1-5.025-2.829,28.894,28.894,0,0,1-5.952-7.659c-2.689-4.706-5.287-9.464-7.974-14.171a39.015,39.015,0,0,1-2.854-5.374c-2.472-6.511-5.631-12.727-8.288-19.161-1.734-4.2-3.768-8.273-5.163-12.621a195.845,195.845,0,0,0-8.419-22.357c-2.462-5.333-5.275-10.507-7.6-15.911-.21-.488-1.034-1.192-.231-1.589.687-.34.938.62,1.217,1.135a19.129,19.129,0,0,1,.813,1.854c.736,1.784,1.437,3.583,2.2,5.354,1.612,3.731,3.939,7.084,5.7,10.743a186.918,186.918,0,0,1,8.307,20.256c1.561,4.55,4.046,8.7,5.639,13.219,1.98,5.613,4.322,11.075,6.466,16.618,1.55,4.008,4.011,7.514,5.894,11.332a69.771,69.771,0,0,0,7.056,11.834c2.5,3.249,5.058,6.385,8.617,8.554.6.366.875.655,1.371-.223a5.588,5.588,0,0,1,3.219-2.589c.829-.265,1.782-.433,2.331.228.969,1.164,2.1,2.442,1.976,4.034-.092,1.151.474,1.366,1.213,1.641.493.183,1.019.276,1.525.429.267.081.547.344.795.081.224-.237.039-.528-.068-.8-.211-.534-.4-1.077-.594-1.618a86.374,86.374,0,0,1-2.744-9.035c.729-.059.81.464.948.829,1.241,3.277,2.511,6.546,3.631,9.865.241.712.4.745,1.033.653a57,57,0,0,0,16.42-4.985,9.1,9.1,0,0,0,2.939-2.079.794.794,0,0,0,.215-.971c-.942-2.781.373-4.881,3.361-5.471a1.358,1.358,0,0,0,1.017-.686,16.77,16.77,0,0,0,2.648-6.384c.241-1.826,1.121-3.641.44-5.532-3.2-8.886-6.255-17.825-10.178-26.434a49.832,49.832,0,0,1-2.719-7.319,74.361,74.361,0,0,0-3.737-11.393c-1.6-3.47-3.229-6.944-4.557-10.523-2.77-7.473-4.35-15.3-6.436-22.974-1.706-6.275-3.112-12.641-4.425-19.013a103.045,103.045,0,0,0-8.981-25.314c-2.215-4.436-5.121-8.459-7.377-12.867a16.377,16.377,0,0,0-5.375-5.789c1.556,2.923,3,5.589,4.4,8.271a198.945,198.945,0,0,1,8.864,18.059,160.614,160.614,0,0,1,6.975,22.048c1.762,7.282,3.416,14.59,5.271,21.848,1.127,4.406,2.538,8.739,3.844,13.1a3.434,3.434,0,0,1-.092,2.62c-.269-.535-.442-.864-.6-1.2a83.269,83.269,0,0,1-3.428-9.651c-1.617-4.855-2.363-9.935-3.562-14.9-1.222-5.06-2.4-10.131-3.727-15.168-1.974-7.482-3.97-14.957-7.4-21.925-3.9-7.938-7.838-15.869-12.438-23.44-.463-.761-.336-1.771-.95-2.344a10.621,10.621,0,0,0-4.492-2.774,74.715,74.715,0,0,1,6.237,11.661,2.586,2.586,0,0,1-1.361-1.231c-2.316-3.745-4.708-7.446-6.917-11.252a10.723,10.723,0,0,0-3.823-3.442c1.905,3.905,4.022,7.295,5.214,11.131a1.137,1.137,0,0,1-.625-.538c-2.046-3.5-4.2-6.945-6.09-10.531-1.466-2.786-4.441-3.179-6.553-4.874A275.375,275.375,0,0,1,109.84,74.512c-1.171-.28-1.351-1-1.645-1.55-1.026-1.9-1.953-3.86-2.976-5.764-4.029-7.5-8.087-14.983-12.79-22.1a6.67,6.67,0,0,0-5.436-2.654c5.848,9.856,12.114,19.5,16.542,30.156-.833-.252-.976-.992-1.276-1.592A277.9,277.9,0,0,0,86.872,44.319c-1.368-2.112-2.978-3.381-5.489-3.25,3.37,6.086,7.75,11.607,10.633,18.019a.637.637,0,0,1-.574-.242c-3.853-5.747-8.174-11.184-11.464-17.3-.241-.449-.353-.985-1.042-1.073a35.532,35.532,0,0,0-5.189-.551c4.3,5.718,8.353,11.227,12,17.046-.521.256-.7.05-.823-.138-3.857-5.692-8.053-11.129-12.3-16.533-.338-.43-.587-.7-1.118-.712a8.353,8.353,0,0,0-2.65.206,58.333,58.333,0,0,1,5.764,8.084c-.8.119-1-.389-1.285-.745q-2.274-2.837-4.53-5.687a3.161,3.161,0,0,0-3.837-1.289,48.328,48.328,0,0,1-4.868,1.1c.893,1.664,2.172,3.111,2.529,5.044a.711.711,0,0,1-.747-.394c-.917-1.247-1.835-2.495-2.737-3.754-.682-.951-1.276-.176-1.848.113-.658.334-.463.739-.078,1.269,1.107,1.526,2.155,3.1,3.17,4.689.466.731.676.962,1.565.283,1.784-1.363,3.837-2.351,6.2-1.682a7,7,0,0,1,5.171,7.48c-.316,3.2-1.323,5.754-5.075,6.178a10.387,10.387,0,0,0-1.267.287c-4.849,1.183-8.31-1.64-8.407-6.268a1.741,1.741,0,0,0-.354-1.061c-1.537-2.114-3.037-4.255-4.56-6.38-.282-.393-.428-1.042-1.2-.558-.788.5-.323.921-.037,1.4a64.441,64.441,0,0,1,3.252,6.234c-.769.165-.88-.358-1.093-.684-.714-1.091-1.363-2.225-2.094-3.3-1.669-2.464-1.654-2.421-3.9-.494-.788.675-.558.893.133,1.453,2.61,2.114,3.989,5.109,5.424,8.083-2.8-2.211-4.17-5.758-7.217-7.806-.485.662-.94,1.288-1.4,1.912-.3.409-.411.656.053,1.178A70.925,70.925,0,0,1,53.4,65.282c.153.256.347.479.093.846A4.363,4.363,0,0,1,51.761,64.3c-1.617-2.482-3.465-4.791-5.3-7.1-2.037-2.56-2.048-2.528-3.677.4-.234.42-.25.6.091.949,1.486,1.533,2.932,3.1,4.383,4.67a2.078,2.078,0,0,1,.827,1.637c-2.39-1.736-4.159-3.874-6.322-5.684-.332.518-.637,1.007-.955,1.487-.27.406-.406.7.2,1a10.9,10.9,0,0,1,3.5,3.23,30.563,30.563,0,0,1,3.9,5.192,4.333,4.333,0,0,1-2.174-1.491c-1.69-1.742-3.311-3.555-5.047-5.249-1.18-1.152-1.211-1.066-1.951.4-.506,1-.729,1.7.3,2.7,2.949,2.88,6.176,5.467,8.856,8.636,4.071,4.815,7.684,10,11.9,14.7a5.286,5.286,0,0,1,1.727,2.556c-.446.191-.617-.1-.8-.294-2.185-2.409-4.539-4.69-6.506-7.266-4.814-6.3-9.887-12.335-16.032-17.407-.727-.6-.9-.356-1.1.287-.46,1.449-.857,2.919-1.353,4.355a1.416,1.416,0,0,0,.439,1.657c2.185,2.214,4.488,4.294,6.847,6.317,2.759,2.367,6.013,4.175,8.321,7.041A111.482,111.482,0,0,0,62.076,98.15a10.881,10.881,0,0,1,2.538,3.7,39.107,39.107,0,0,0,3.212,5.856,80.367,80.367,0,0,1,4.526,8.248c.142.293.35.544-.033.952A189.249,189.249,0,0,0,55.53,94.434,276.884,276.884,0,0,0,35.6,74.392a10.06,10.06,0,0,1-.449,1.837.773.773,0,0,0,.3,1.09c3.226,2.537,5.77,5.754,8.577,8.7,2.707,2.846,5.443,5.669,7.888,8.765,4,5.065,7.689,10.328,11.288,15.689A157.917,157.917,0,0,1,73.574,129.2a2.034,2.034,0,0,1,.184,1.651A191.408,191.408,0,0,0,34.76,79c-.62,1.838-.712,3.293.83,4.7,3.773,3.445,6.777,7.6,10.072,11.477.3.354.783.709.4,1.558-4.222-4.144-7.294-9.171-12.148-12.961.45,1.277-.419,2.435.77,3.349,3.3,2.54,5.72,5.925,8.4,9.049a3.911,3.911,0,0,1,1.232,2.5C40.65,95.31,37.812,91.645,34.16,88.649a3.327,3.327,0,0,0,.891,3.4,100.821,100.821,0,0,1,6.883,7.52c3.549,4.352,7.3,8.545,10.353,13.282.156.241.54.461.055.957-5.367-7.153-11.791-13.326-17.572-20.121.212,1.592.031,3.221,1.132,4.519,4.951,5.836,9.89,11.684,14.367,17.9,1.019,1.415,2.331,2.639,2.866,4.4-6.035-6.257-10.339-13.989-17-19.789a32.4,32.4,0,0,0,3.113,6.984c3.526,5.887,7.982,11.1,12.251,16.421a112.293,112.293,0,0,1,12.8,19.018,25.9,25.9,0,0,0,7,8.416,59.676,59.676,0,0,1,16.026,19.337c2.527,4.949,5.105,9.889,7.983,14.637,4.627,7.633,8.063,15.855,12.138,23.757,2.143,4.157,3.877,8.54,6.316,12.54,3.4,5.583,8.2,9.925,13.2,14.028a18.557,18.557,0,0,0,9.062,4.331c-.174-1.234-.344-2.408-.5-3.584a15.179,15.179,0,0,0-1-3.606c-1.01-2.5-1.014-2.5-.531-3.455.936,3.374,2.893,6.194,3.021,9.6.045,1.173.477,1.412,1.568,1.431a42.6,42.6,0,0,0,12.288-1.829c5.683-1.6,11.015-3.882,15.13-8.356a3.623,3.623,0,0,0,.779-1.465c.515-1.6-.257-2.922-.669-4.314a3.838,3.838,0,0,1,.5-3.906c.954-1.153,2.015-2.461,2.054-3.911.066-2.38,1.192-4.344,1.891-6.474.176-.537.323-1.188,1.174-1.367-2.272,4.339-1.27,9.77-4.965,13.635,1.745-1.115,2.7-2.818,3.945-4.291-.353,2.471-2.447,4.037-3.365,6.454,1.386-.871,1.718-2.462,3.28-3.379-.627,1.932-1.719,3.158-2.305,4.713.5-.782,1.624-.547,1.946-.929,2.173-2.58,4.284-5.144,3.809-9A29.064,29.064,0,0,0,170.264,204.858Zm-65.727,6.059c-.194.218-.014.366.06.525,1.088,2.358,2.17,4.719,3.279,7.067.167.354.483.746,0,.955-.359.155-.493-.317-.655-.618-.817-1.526-1.537-3.106-2.354-4.625-2.779-5.172-4.669-10.778-7.8-15.779a4.936,4.936,0,0,1-1.147-3.286L100,201.991a1.317,1.317,0,0,0-.133-1.018c-3.667-7.555-7.132-15.208-11.132-22.6-1.908-3.527-3.475-7.256-6.191-10.289-1.066-1.189-2.233-2.289-3.318-3.462-2.865-3.1-5.737-6.2-8.885-9.019A31.469,31.469,0,0,1,62.5,145.439a57.259,57.259,0,0,0-9.013-14.38c-3.09-3.427-6.11-6.9-8.984-10.512A58.572,58.572,0,0,1,33.24,98.459a48.079,48.079,0,0,1-.835-19.022,59.91,59.91,0,0,1,3.928-13.926c.632-1.566,1.245-3.141,1.866-4.711-1.384,1.254-2.9,2.606-3.146,4.306a85.24,85.24,0,0,1-2.816,11.509c-1.89,6.461-1.714,12.954-.686,19.42a45.955,45.955,0,0,0,7.975,19.31c4.138,5.9,8.286,11.789,12,17.968a2.8,2.8,0,0,1,.614,1.336c-.574.108-.652-.3-.832-.558-2.721-3.938-5.429-7.885-8.159-11.816-2.925-4.21-6.159-8.2-8.537-12.789a48.811,48.811,0,0,1-5.143-17.035,37.141,37.141,0,0,1,.153-11.145c.717-3.846,2.2-7.475,2.953-11.722a60.546,60.546,0,0,0-4,8.716,4.449,4.449,0,0,0-.085,1.014,84.89,84.89,0,0,0,.3,16.393,50.375,50.375,0,0,0,3.751,14.269c2.344,5.416,5.767,10.265,8.848,15.288a2.679,2.679,0,0,1,.7,1.9A60.717,60.717,0,0,1,27.01,84.933a39.136,39.136,0,0,0-1.531,12.1c.174,2.828.023,5.689.871,8.464a95.163,95.163,0,0,0,9.868,21.941.576.576,0,0,1-.028.827c-2.507-2.584-3.735-5.936-5.509-8.95-1.8-3.066-2.848-6.44-4.108-9.742a38.88,38.88,0,0,0,1.487,7.271,136.83,136.83,0,0,0,6.91,15.932,265.53,265.53,0,0,0,14.413,26.834c1.759,2.8,3.444,5.643,6.245,7.584a40.625,40.625,0,0,0,9.9,5.43,18.258,18.258,0,0,1,9.542,7.883c4.691,7.24,8.812,14.82,13.393,22.132,4.772,7.616,8.959,15.609,13.2,23.544A119.9,119.9,0,0,0,117.086,248.5a20.993,20.993,0,0,0,11.2,6.28c.433.1.987.323,1.451-.255,2.638-3.287,4.065-7.169,5.512-11.043.221-.593.05-1.057-.629-1.188-3.484-.671-6.165-2.719-8.958-4.778a63.175,63.175,0,0,1-16.039-17.841C107.844,216.812,106.232,213.844,104.537,210.917ZM42.143,30.511l-.39.142c-.708-1.523-1.519-3.009-2.1-4.579a22.5,22.5,0,0,0-3.223-6.43,3.968,3.968,0,0,1-.853-1.5c-.338-1.557-1.277-.68-2-.547-1.055.2-.611.83-.352,1.4a4.722,4.722,0,0,1,.543,2.1,9.312,9.312,0,0,0,1.852,5.644c1.36,1.992,1.631,4.375,2.215,6.64.023.088.032.322-.324.231-.055-.08-.166-.223-.26-.377a31.6,31.6,0,0,1-4.043-8.4c-.39-1.484-1.658-2.358-2.34-3.64-1.176-2.212-1.216-2.191-3.662-1.177,1.556,5.434,4.006,10.582,5.458,16.216-.616-.092-.686-.406-.859-.619-.784-.965-.8-2.29-1.482-3.275-2.162-3.1-2.835-7.015-5.411-9.887-.348-.389-.141-1.438-1.2-.972-.61.269-1.246.476-1.852.752-.29.132-.017.318.047.459,1.937,4.277,2.742,8.967,4.813,13.2a3.952,3.952,0,0,1,.229,2.86,5.96,5.96,0,0,1-1.611-2.386c-1.423-4.51-3.913-8.49-6.186-12.579-.165-.3-.321-.44-.663-.4-1.266.15-1.682.858-1.2,2.025a7.938,7.938,0,0,1,.414,1.239c.514,2.2,1.538,4.23,2.07,6.449.392,1.63,1.54,3.092,2.089,4.753.345,1.042,1.021,2.849.316,3.008-1.2.272-1.454-1.4-1.831-2.468-.546-1.543-.853-3.265-1.758-4.566-1.626-2.339-2.479-5.012-3.8-7.472-.178-.333-.052-1.221-.8-.818-.586.314-1.787.245-1.3,1.6a25.444,25.444,0,0,1,1.448,4.862,44.588,44.588,0,0,0,2.187,7.92,4.937,4.937,0,0,1,.331,3.319c-.836-2.108-1.853-3.651-2.553-5.451-1.251-3.22-3.182-6.161-4.26-9.489-.382-1.179-1.069-.123-1.622-.06-.667.076-.746.348-.521.971,1.073,2.976,1.549,6.148,3.014,9a21.141,21.141,0,0,1,1.65,4.008c.183.668,1.02,1.83.029,2.138-.72.225-1.071-1.133-1.248-1.873a44.407,44.407,0,0,0-2.436-6.307c-.724-1.781-2.279-3-2.88-4.832-.661-2.01-.671-1.922-2.678-1.34-1.026.3-.972.657-.66,1.512,1,2.758,1.917,5.551,2.825,8.343C6.5,43.457,7.63,47.078,8.782,50.7a57.615,57.615,0,0,1,7.244-2.259c2.376-.63,4.333-2.391,6.922-2.475A5.267,5.267,0,0,1,21.4,47.142a108.665,108.665,0,0,1-11.316,4.713c-.743.268-.891.558-.722,1.247.744,3.03,1.507,6.056,2.162,9.105.174.812.667,1.671-.027,2.618C7.755,55.775,6.381,45.946,2.3,37.189a3.563,3.563,0,0,0,.008.831q.915,4.511,1.866,9.013C5,50.927,5.929,54.8,6.638,58.716c1.232,6.8,2.25,13.636,4.392,20.24a61.241,61.241,0,0,0,3.86,10.117c.913,1.71,2.163,3.12,4.273,3.355,1.353.151,2.71.269,4.076.4a55.97,55.97,0,0,1,.855-6.228c.072-.355.571-.964-.27-1.166-.906-.217-1.178-.987-1.374-1.724a108.575,108.575,0,0,1-2.907-14.769A121.129,121.129,0,0,0,17.111,54.2a2.861,2.861,0,0,1,.8-3.011,13.72,13.72,0,0,1,4.536-3.01c7.542-3.095,14.849-6.742,22.525-9.525,4.181-1.515,7.923-4.008,12.048-5.636,5.6-2.211,11-4.9,16.7-6.882,2.638-.919,5.061-2.417,7.845-2.965,1.984-.39,3.451.365,3.941,2.265.635,2.47,1.959,4.66,2.714,7.07,1,3.189,2.948,5.962,3.932,9.164.339,1.105,1.709.9,2.536,1.432.226.146.32-.273.306-.505a29.461,29.461,0,0,0-.14-3.323,86.694,86.694,0,0,0-2.476-9.6c-1.153-3.916-2.343-7.821-3.432-11.755-.285-1.032-.632-1.068-1.486-.622A12.448,12.448,0,0,1,84.4,18.533c-3.511.753-6.672,2.415-9.967,3.715-3.21,1.266-6.309,2.81-9.5,4.112-4.721,1.921-9.486,3.736-14.233,5.6-8.472,3.321-16.563,7.5-24.915,11.086a96.631,96.631,0,0,1-14.746,5.4c-.553.137-1.471.782-1.61.257-.239-.908.924-.9,1.517-1.107,2.717-.959,5.559-1.562,8.194-2.749,5.384-2.427,10.441-5.5,15.807-7.98a219.694,219.694,0,0,1,22.211-8.951q7.317-2.462,14.374-5.617a53.132,53.132,0,0,1,8.314-3.251,7.886,7.886,0,0,0,2.618-1.134,18.466,18.466,0,0,1,4.5-2.254c.907-.326,1.181-.664.74-1.521a6.592,6.592,0,0,1-.287-.818c-1.3-3.714-2.093-7.618-4.384-10.961-.855-1.248-1.655-.174-2.444-.2-.722-.026-.38.7-.26,1.137,1.035,3.8,1.233,7.8,2.659,11.516a.993.993,0,0,1-.181,1.137c-.652-1.222-1.257-2.3-1.809-3.4-1.292-2.584-2.018-5.4-3.441-7.957A1.457,1.457,0,0,0,75.3,3.867c-1.007.465-.1,1.187.075,1.675A92.729,92.729,0,0,1,78.7,16.153c.085.368.347.74-.247,1.045a16.858,16.858,0,0,1-2.634-5.406C75.182,9.426,73.761,7.435,73,5.134c-.365-1.108-1.343-.163-2.026-.131-.845.039-.366.618-.23.942,1.2,2.873,1.524,5.977,2.286,8.962.32,1.253.994,2.566.547,4.229A92.692,92.692,0,0,1,68.269,7.217c-.489-1.4-1.031-1.276-1.905-.744-.389.237-1.59.066-.915,1.116,1.743,2.712,1.89,5.968,3.089,8.868a8.771,8.771,0,0,1,.8,3.654c-.009.226.052.539-.286.551a.719.719,0,0,1-.469-.278,3.924,3.924,0,0,1-.56-.845c-1.323-2.9-2.626-5.8-3.943-8.7-.441-.969-.266-2.4-1.1-2.914-.886-.549-1.977.56-3.055.614-.053,0-.1.13-.185.247,2,4.407,2.979,9.118,3.971,13.974-.769-.089-.78-.567-1-.845-1.02-1.287-.932-3.036-1.8-4.376a30.284,30.284,0,0,1-2.7-5.456C57.105,9.225,57.16,9.2,54.28,10.249a1.9,1.9,0,0,0-.307.22c1.72,2.055,1.306,4.909,2.625,7.1,1.4,2.329,1.126,5,1.979,7.471-.262-.015-.378.012-.444-.034a.918.918,0,0,1-.293-.308c-1.285-2.412-3.062-4.6-3.371-7.458a1.374,1.374,0,0,0-.333-.788,12.472,12.472,0,0,1-2.8-4.542c-.363-.943-1.017-.295-1.256-.158-.37.213-1.345-.108-1.056.95.9,3.294,1.738,6.607,2.637,9.9.4,1.478.9,2.933,1.407,4.591-.869-.294-.84-.833-1-1.254-.7-1.838-1.086-3.888-2.168-5.461-1.382-2.011-2.447-4.177-3.663-6.262-.493-.842-.875-.73-1.569-.5-.815.267-1.338.724-.942,1.558,1.065,2.245,1.207,4.786,2.324,7,1.023,2.028,1.283,4.32,2.226,6.375a.5.5,0,0,1-.134.655c-.294.2-.456-.08-.533-.28-.854-2.211-2.333-4.1-3.249-6.271a37.161,37.161,0,0,0-3.875-6.918c-.587-.837-1.106.013-1.649.03-.307.009-.561.278-.419.828.766,2.98,1.41,5.981,2.4,8.911C41.351,27.186,41.685,28.878,42.143,30.511ZM162.6,244.987l.357.171a70.476,70.476,0,0,0,10.954-22.124c-1.627,2.176-2.915,4.569-4.812,6.526-.116.119-.364.357-.159.464.976.506.195.864-.086,1.234a11.429,11.429,0,0,0-1.641,3.441,9.706,9.706,0,0,1-2,4.12c.114-2.384,1.267-4.126,1.3-6.268a34.8,34.8,0,0,1-7.221,4.792,56.068,56.068,0,0,1-8.994,3.146c-4.181,1.19-8.183,2.99-12.685,2.383-.27-.036-.616-.034-.589.427,7.748,1.284,14.608-2.265,21.881-4.1-.231.859-.938.927-1.475,1.1-6.629,2.133-13.2,4.553-20.334,4.319-.145,0-.292.008-.437,0-.592-.019-.773.455-.766.851.01.5.521.3.809.3,1.992.021,3.984,0,5.976.024.326,0,.79-.216.958.311-.147.3-.407.229-.635.258a48.833,48.833,0,0,1-7.121.315,1.012,1.012,0,0,0-1.15,1.023c-.033.7.644.382,1,.4a55.167,55.167,0,0,0,10.566-.615c1.061-.159,2.112-.248,3.224-.46a.9.9,0,0,1-.918.731c-2.184.352-4.371.732-6.573.915-2.452.2-4.9.7-7.376.381-.653-.085-.724.412-.819.782-.105.411.294.443.577.41,2.314-.27,4.65.141,6.968-.289a16.423,16.423,0,0,1,2.961-.03l.039.4c-3.791,1.125-7.746,1.262-11.657,1.667,8.285.542,16.094-2,24.4-3.952a2.789,2.789,0,0,1-1.476.965c-1.477.406-2.933.9-4.42,1.265a112.965,112.965,0,0,1-14.084,2.853c-1.6.184-3.184.159-4.774.245a1.7,1.7,0,0,0-1.66,1.493c-.013.6.964.271,1.5.257,2.566-.066,5.019-.929,7.566-1.128a70.753,70.753,0,0,0,15.769-3.234,8.076,8.076,0,0,0,5.4-4.342c1.074-2.313,2.4-4.508,3.633-6.746.184-.336.193-.9,1.041-.772ZM77.079,27.1c-4.7.966-8.954,3.059-13.3,4.845-8.55,3.517-16.9,7.522-25.421,11.106-6.233,2.622-12.284,5.587-18.278,8.693a1.894,1.894,0,0,0-1.2,2.041c.1,1.632.742,3.158.8,4.8a10.3,10.3,0,0,0-.07-2.425,2.882,2.882,0,0,1,1.677-3.419c2.14-1.2,4.513-1.853,6.7-2.977,3.242-1.669,6.6-3.114,9.9-4.674,2.623-1.24,5.521-1.923,8.037-3.259,6.347-3.37,12.91-6.244,19.438-9.212C69.287,30.822,73.173,28.937,77.079,27.1ZM71.141,55.147a7.634,7.634,0,0,0-1.469-4.1A4.156,4.156,0,0,0,64.4,49.785a6.9,6.9,0,0,0-3.1,3.311,3.79,3.79,0,0,0,.262,3.827c1.22,2.093,3.226,2.573,5.306,2.512C69.88,59.346,71,58.3,71.141,55.147Zm-38.985,10.7c.976-1.53,1.9-2.983,2.99-4.685-.784.388-1.3.7-1.862.9-.361.133-.788.654-1.152.128-.328-.474.169-.738.449-1.071.846-1,2.148-1.44,3.152-2.515-1.589.283-2.66,1.23-3.88,1.862-.417.216-.86.362-1.165-.086s.168-.681.407-.961a4.645,4.645,0,0,1,1.338-.826,5.632,5.632,0,0,0,2.334-1.649c-1.416.586-2.462,1.039-3.524,1.45-.485.187-1.1.95-1.459.292-.288-.529.6-.871,1.063-1.167a12.025,12.025,0,0,0,3.121-2.337c-1.989.413-3.421,2.067-5.509,2.275,8.733-4.98,17.223-10.345,25.9-15.4-9.335,4.893-18.475,10.153-28.216,14.41A74.277,74.277,0,0,1,32.156,65.844Zm28.4-26.987a10.014,10.014,0,0,0,1.136-.184c3.864-1.2,7.486-3,11.247-4.464,1.973-.766,3.934-1.558,5.938-2.241.327-.112.692-.324.856.113.132.351-.3.409-.52.565-.53.379-1.274.439-1.716,1.187a8.9,8.9,0,0,1,3.513-.284c-1.019.955-.575,1.894.308,1.969,1.679.143,2.034,1.431,2.414,2.48.6,1.655,1.731,2.1,3.306,2.145-.935-1.07-1.461-2.364-2.363-3.445-1.472-1.765-3.3-3.306-4.17-5.492-.4-1.016-.8-.981-1.594-.583-1.8.9-3.584,1.848-5.44,2.622C69.231,35.011,64.792,36.3,60.552,38.857Zm-1.585,14.1a9.693,9.693,0,0,1,.969-2.008c.623-.767.427-1.283-.115-1.963-1.2-1.511-2.331-3.082-3.482-4.634-.3-.406-.678-.917-1.08-.264-.352.572-1.831.727-.925,1.812A61.758,61.758,0,0,1,58.967,52.955ZM27.06,76.214c1.583-2.3.483-4.528.473-6.676-.014-2.71-.863-5.34-.982-8.035a4.277,4.277,0,0,0-1.65-3.274C26.075,64.324,26.161,70.2,27.06,76.214Zm-2.367,7.911c.129-.562.482-1.183.352-1.677-2-7.6-3.442-15.318-5.16-22.982A186.264,186.264,0,0,0,24.693,84.125ZM132.676,227.44a2.274,2.274,0,0,0,2.252-1.982,3.514,3.514,0,0,0-1.829-2.407c-.883-.089-2.2,1.37-2.24,2.481A1.656,1.656,0,0,0,132.676,227.44ZM87.766,34.724A11.035,11.035,0,0,0,86.441,30.7a45.343,45.343,0,0,1-2.793-4.537c-.618-1.4-1.263-1.373-2.317-.665A9.58,9.58,0,0,1,84.6,29.44,13.348,13.348,0,0,0,87.766,34.724Zm76.355,181a1.655,1.655,0,0,0-.954,1.59,1.557,1.557,0,0,0,1.276,1.815c.813.112,1.322-.583,1.376-1.372C165.9,216.645,164.991,216.226,164.121,215.728Z"/>
    <path d="M130.154,159.425c-.158,3.442.553,7.279,1.126,11.1.479,3.2.62,6.443,1.293,9.616.85,4.005,1.851,7.979,2.5,12.027.542,3.389.773,6.826,1.592,10.173.1.421.092.927-.425,1.119-.551.2-.925-.142-1.218-.56a27.013,27.013,0,0,1-4-7.526c-2.453-7.989-5.065-15.921-8.174-23.692-3.232-8.079-6.657-16.1-8.928-24.53a91.958,91.958,0,0,1-2.624-10.7,4.179,4.179,0,0,0-.3-.97c-.9-2.178-1.537-2.393-3.627-1.3a24.04,24.04,0,0,0-3.108,2.151,35.4,35.4,0,0,1-2.994,2.061c-4.037,2.4-6.268,1.7-8.387-2.5-1.5-2.974-2.015-6.242-2.947-9.387-1.221-4.119-2.847-8.1-3.479-12.41-.646-4.412-1.078-8.844-1.619-13.264-.5-4.088-.887-8.19-1.273-12.291-.308-3.279-.358-6.576-.779-9.85-.554-4.318-1.141-8.636-1.306-13-.014-.387-.1-.771-.121-1.157-.039-.611.5-.836.878-1.049.352-.2.475.314.69.535a8.97,8.97,0,0,1,2.54,6.02c.149,3,1.323,5.739,2.056,8.59,2.27,8.828,6.62,16.8,10.334,25.034,1.734,3.843,3.3,7.767,5.3,11.487.184.342.357.689.539,1.031.622,1.172,1.263,1.5,2.616.7a70.136,70.136,0,0,1,8.507-4.409c3.352-1.415,5.233-.54,6.757,2.793a51.006,51.006,0,0,1,3.037,8.324c1.734,6.659,3.543,13.316,4.3,20.17C129.475,148.812,130.593,153.826,130.154,159.425ZM83.543,73.08l-.139,0a8.882,8.882,0,0,0,.009,1.285c.864,5.835,1.7,11.676,2.223,17.552.6,6.753,1.373,13.482,2.4,20.181.26,1.7.377,3.488,1.672,4.855.267.282.477.662.94.513.55-.177.31-.663.27-.991q-.387-3.168-.848-6.327C89,102.79,88.284,95.375,86.7,88.09,85.618,83.093,84.594,78.083,83.543,73.08Zm40.921,97.2c-.055-.226-.1-.455-.166-.676-.909-2.9-2.024-5.752-2.692-8.706-1.446-6.4-2.657-12.853-3.987-19.279a5.084,5.084,0,0,0-.727-2.033c-.132-.182-.333-.552-.5-.372-.586.631-1.583,1.048-1.368,2.177.524,2.743,1.147,5.477,1.762,8.188C118.425,156.805,121.909,163.417,124.464,170.279ZM110.121,131.27a7.346,7.346,0,0,1,2.552,3.405,3.167,3.167,0,0,0,1.994,1.873c1.022.447,1.056.009,1.045-.764C115.678,133.365,113.245,131.322,110.121,131.27Zm-16.227-.059.215-.045c-.093-1.249-.121-2.507-.293-3.744a22.921,22.921,0,0,0-1.385-5.159c-.123-.316-.169-.75-.61-.648-.52.12-.232.526-.159.826.25,1.033.5,2.067.763,3.1C92.909,127.431,93.4,129.32,93.894,131.211Z"/>
    <path d="M147.664,156.871a4.714,4.714,0,0,1,1.579,2.311,161.447,161.447,0,0,1,6.52,16.3c2.225,6.675,5.2,13.079,7.277,19.813.949,3.07,1.592,6.213,2.433,9.307.085.313.214.766-.238.837-.4.063-.468-.387-.558-.709-.809-2.9-1.554-5.808-2.514-8.67-2.173-6.478-5.341-12.557-7.584-18.99-2.313-6.632-4.507-13.305-7.045-19.858C147.51,157.151,147.6,157.045,147.664,156.871Z"/>
    <path d="M133.009,116.744a8.314,8.314,0,0,1-1.836-3.99c-2.228-8.263-4.484-16.517-7.019-24.691a47.912,47.912,0,0,0-2.863-6.94c-.211-.43-.765-1.112-.173-1.4.665-.327.928.541,1.179,1a57.04,57.04,0,0,1,4.186,10.766c2.395,7.826,4.615,15.7,6.257,23.718C132.844,115.717,132.92,116.232,133.009,116.744Z"/>
    <path d="M109.148,180.191a12.862,12.862,0,0,1-1.913-3.464c-2.718-6.347-4.264-13.04-5.823-19.73-.14-.6-.356-1.192-.5-1.8-.084-.361-.258-.842.253-1,.472-.141.688.3.789.659.5,1.8,1.023,3.6,1.44,5.421a128.532,128.532,0,0,0,5.946,19.252C109.429,179.754,109.4,179.9,109.148,180.191Z"/>
    <path d="M138.2,230.15c3.337-.407,6.662-.344,9.915-1.182a73.541,73.541,0,0,0,13.294-4.618c.55-.26,1.464-1.144,1.823-.309.3.695-.932.839-1.536,1.122-3.917,1.833-7.756,3.9-12.067,4.691a69.921,69.921,0,0,1-10.966.741C138.476,230.6,138.289,230.527,138.2,230.15Z"/>
    <path d="M162.674,209.6c-.11.369.107.768-.316.831-.338.05-.457-.27-.585-.534a56.563,56.563,0,0,1-3.254-8.609c-.734-2.477-1.808-4.848-2.3-7.4-.076-.4-.722-.984.067-1.174.572-.138.633.623.777,1.037,1.291,3.7,2.536,7.41,3.827,11.107C161.46,206.484,162.1,208.082,162.674,209.6Z"/>
    <path d="M120.241,101.165c-.738-.036-.807-.688-.99-1.121-1.8-4.251-2.874-8.745-4.359-13.1-.149-.437-.246-1.049.378-1.233.586-.172.855.282,1,.79q2.028,7.126,4.05,14.255C120.353,100.871,120.271,101.022,120.241,101.165Z"/>
    <path d="M125.146,218.17a2.825,2.825,0,0,1-1.825-1.682c-3-5.28-4.989-11-7.105-16.656-.1-.275-.12-.478.122-.6.385-.2.481.119.588.4.466,1.2.973,2.39,1.4,3.607a63.971,63.971,0,0,0,6.487,13.948A5.094,5.094,0,0,1,125.146,218.17Z"/>
    <path d="M82.6,149.01a11.453,11.453,0,0,1-2.186-3.413c-1.4-2.812-2.742-5.655-4.1-8.49-.134-.279-.484-.628-.031-.868a.72.72,0,0,1,1,.321,32.655,32.655,0,0,1,1.792,3.155c1.218,2.778,2.33,5.6,3.506,8.4A.953.953,0,0,1,82.6,149.01Z"/>
    <path d="M153.025,196.67a1.857,1.857,0,0,1,1.181,1.373q2.06,5.751,4.158,11.486c.161.442.5.98-.132,1.218-.536.2-.707-.4-.875-.777-1.647-3.641-2.561-7.527-3.75-11.321C153.423,198.059,153.258,197.464,153.025,196.67Z"/>
    <path d="M125.3,103.28a5.006,5.006,0,0,1-1.246-2.7c-.816-2.615-1.576-5.247-2.357-7.872a1.82,1.82,0,0,1-.15-.552c.02-.481-.509-1.178.241-1.388.69-.192.8.511.94,1.025.32,1.209.66,2.413.954,3.628q.829,3.426,1.61,6.864A5.345,5.345,0,0,1,125.3,103.28Z"/>
    <path d="M109.38,170.825a2.547,2.547,0,0,1-1.215-1.795c-.8-2.363-1.538-4.748-2.276-7.131a3.694,3.694,0,0,1-.1-1.006c-.009-.367-.14-.86.408-.92.438-.048.626.291.767.712a67.029,67.029,0,0,1,1.729,6.684C108.935,168.429,109.12,169.5,109.38,170.825Z"/>
    <path d="M116.041,100.579a1.581,1.581,0,0,1-.985-1.032,47.323,47.323,0,0,1-2.595-7.306c-.124-.395-.224-.777.245-.994a.638.638,0,0,1,.916.44A75.363,75.363,0,0,1,116.041,100.579Z"/>
    <path d="M125.637,210.8c.9.074,1.024.728,1.254,1.211.951,2,1.864,4.01,2.776,6.024.186.412.615.9,0,1.272-.688.419-1.009-.216-1.2-.652A50.837,50.837,0,0,1,125.637,210.8Z"/>
    <path d="M159.946,234.586a67.561,67.561,0,0,1-12.674,4.161c-.365.074-1.117.388-1.173-.335-.041-.528.626-.428,1.042-.509a62.925,62.925,0,0,0,10.481-3.076A2.8,2.8,0,0,1,159.946,234.586Z"/>
    <path d="M146.449,212.546a1.348,1.348,0,0,1,1.03.893c.862,2.08,1.96,4.058,2.659,6.211.178.548.62,1.216-.022,1.521-.762.363-.921-.551-1.121-1.007A76.911,76.911,0,0,1,146.449,212.546Z"/>
    <path d="M150.426,209.467c.813-.124.876.513,1.018.877,1.094,2.8,2.141,5.614,3.184,8.431.159.428.408,1.074-.125,1.246-.516.167-.516-.5-.655-.9C152.725,215.911,151.579,212.709,150.426,209.467Z"/>
    <path d="M67.9,144.792c-.793-.177-1-.886-1.359-1.4-1.6-2.261-2.466-4.9-3.69-7.351-.164-.327-.307-.664.125-.854.362-.159.482.205.594.436,1.425,2.936,2.8,5.9,4.42,8.734C68.036,144.444,67.938,144.612,67.9,144.792Z"/>
    <path d="M71.471,144.512c-.543.281-.723-.084-.9-.34a39.76,39.76,0,0,1-3.86-6.906c-.147-.351-.44-.73.07-.984.468-.234.583.268.711.511C68.838,139.356,70.15,141.936,71.471,144.512Z"/>
    <path d="M102.288,167.982a.853.853,0,0,1-.886-.7q-1.606-4.466-3.231-8.924c-.141-.391-.5-.9.131-1.09.489-.144.561.483.666.788C100.083,161.305,101.154,164.571,102.288,167.982Z"/>
    <path d="M73.009,142.491a11.079,11.079,0,0,1-3.153-5.168c-.107-.377-.052-.689.319-.828a.563.563,0,0,1,.734.3A21.5,21.5,0,0,1,73.009,142.491Z"/>
    <path d="M147.2,236.275l9.207-2.468.123.447c-2.98,1.156-5.95,2.351-9.2,2.555Z"/>
    <path d="M113.03,101.122c-.657.039-.739-.378-.882-.716q-1.228-2.9-2.443-5.812c-.169-.406-.319-.991.056-1.186.545-.283.709.355.842.726C111.426,96.443,112.215,98.763,113.03,101.122Z"/>
    <path d="M141.774,213.692a17.606,17.606,0,0,1,2.192,5.891.556.556,0,0,1-.355.711c-.422.1-.591-.337-.671-.61-.282-.956-.468-1.94-.718-2.907-.256-.99-.544-1.971-.818-2.956Z"/>
    <path d="M97.248,68.89a28.266,28.266,0,0,1-3.315-6.022c-.117-.26-.212-.582.171-.708a.466.466,0,0,1,.582.294A33.36,33.36,0,0,1,97.248,68.89Z"/>
    <path d="M54.868,72.4c-.969.1-1.248-.495-1.595-.865-.957-1.021-1.862-2.093-2.754-3.174-.2-.246-.368-.66-.014-.9a.625.625,0,0,1,.884.234C52.509,69.208,53.631,70.725,54.868,72.4Z"/>
    <path d="M145.408,232.2a14.964,14.964,0,0,1-4.409.065,20.08,20.08,0,0,0-2.283-.191c-.362,0-.762-.1-.758-.477,0-.448.49-.459.789-.377,1.456.4,2.982.088,4.422.444C143.81,231.825,144.515,231.557,145.408,232.2Z"/>
    <path d="M64.338,77.773c-1.586-1.324-2.5-3.136-3.66-4.762a.426.426,0,0,1,.107-.636.487.487,0,0,1,.632.192A22.277,22.277,0,0,1,64.338,77.773Z"/>
    <path d="M130.449,212.894c.614-.241.7.255.825.569.5,1.233.934,2.491,1.442,3.72.171.414.271.808-.21.935-.445.118-.635-.32-.745-.695C131.323,215.933,130.9,214.439,130.449,212.894Z"/>
    <path d="M66.165,75.575c-1.748-.619-2.358-2.182-3.163-3.584a.338.338,0,0,1,.2-.471c.464-.191.726.117.923.459C64.815,73.173,65.487,74.375,66.165,75.575Z"/>
    <path d="M113.22,171.573c-1.5-.893-1.832-2.332-2.2-3.75-.1-.365-.082-.68.367-.769.358-.071.539.176.626.46C112.422,168.864,112.818,170.22,113.22,171.573Z"/>
    <path d="M155.83,229.458c-.8,1.084-2.074,1.244-3.185,1.713a.506.506,0,0,1-.688-.36c-.065-.256.187-.427.407-.516A9.475,9.475,0,0,1,155.83,229.458Z"/>
    <path d="M156.478,231.107a6.711,6.711,0,0,1-3.5,1.538c-.148.024-.323-.119-.486-.184.074-.164.111-.435.227-.474A9.418,9.418,0,0,1,156.478,231.107Z"/>
    <path d="M48.822,103.182c-1.536-.463-2.056-1.538-2.757-2.413-.132-.166-.365-.4-.106-.619s.517-.13.723.151C47.324,101.179,47.978,102.048,48.822,103.182Z"/>
    <path d="M150.725,233.982a4.773,4.773,0,0,1-2.708,1.074c-.305.057-.633.061-.7-.291a.524.524,0,0,1,.52-.578C148.738,234.133,149.587,233.576,150.725,233.982Z"/>
    <path d="M67.315,72.423a2.468,2.468,0,0,1-1.822-1.553.537.537,0,0,1,.179-.752c.33-.219.575.04.7.283C66.715,71.06,67.005,71.747,67.315,72.423Z"/>
    <path d="M144.474,233.209a3.334,3.334,0,0,1-2.6.507.434.434,0,0,1-.465-.451c.017-.349.317-.311.538-.3A6.356,6.356,0,0,1,144.474,233.209Z"/>
    <path d="M74.269,138.643a3.11,3.11,0,0,1-1.565-2.07.475.475,0,0,1,.227-.616c.4-.2.479.138.571.406C73.728,137.021,73.946,137.683,74.269,138.643Z"/>
    <path d="M40.535,137.877a5.481,5.481,0,0,1,1.674,2.408,161.549,161.549,0,0,0,10.308,18.027c2.145,3.236,4.125,6.715,7.592,8.868.273.17.625.438.332.817a.75.75,0,0,1-1.051.095,10.459,10.459,0,0,1-2.721-2.155,68.31,68.31,0,0,1-10.993-16.75c-1.329-3.03-2.929-5.94-4.372-8.92A4.419,4.419,0,0,1,40.535,137.877Z"/>
    <path d="M126.538,250.715a4.821,4.821,0,0,1-3.917-1.1,55.447,55.447,0,0,1-11.853-11.273,80.094,80.094,0,0,1-11.605-19.872c-.169-.4-.6-.829-.028-1.645,3.157,6.8,6.416,13.333,11.1,19.074S119.56,247.4,126.538,250.715Z"/>
    <path d="M94.89,194.291c-3.316-5.19-6.425-10.5-9.613-15.761-3.088-5.095-5.987-10.337-9.865-14.919-.246-.29-.778-.644-.252-1.084.431-.36.819-.035,1.128.3a42.785,42.785,0,0,1,5.275,7.224c3.234,5.417,6.484,10.825,9.656,16.279A52.01,52.01,0,0,1,94.89,194.291Z"/>
    <path d="M130.6,250.851a39.515,39.515,0,0,1-17.077-13.913c5.107,5.354,10.534,10.3,17.479,13.273Z"/>
    <path d="M47.937,145.061a2.344,2.344,0,0,1,.867,1.151c1.9,3.467,3.778,6.948,5.673,10.419.393.72.82,1.422,1.251,2.12.191.311.362.7.07.922-.358.275-.592-.161-.8-.391a25.066,25.066,0,0,1-2.986-4.6,50.527,50.527,0,0,1-4.147-8.562C47.767,145.855,47.216,145.344,47.937,145.061Z"/>
    <path d="M63.977,153.809a10.558,10.558,0,0,1-2.86-3.491c-1.459-2.217-2.885-4.456-4.308-6.7-.22-.346-.967-.72-.269-1.152.53-.329.8.341,1.07.693,1.678,2.181,2.99,4.6,4.438,6.927A12.069,12.069,0,0,1,63.977,153.809Z"/>
    <path d="M76.216,177.991c-.5,0-.765-.378-1.069-.666-2.231-2.108-4.116-4.64-7.123-5.8-.3-.116-.5-.324-.358-.665s.459-.328.741-.244a7.783,7.783,0,0,1,2.9,1.57,34.472,34.472,0,0,1,4.7,4.9C76.223,177.359,76.449,177.619,76.216,177.991Z"/>
    <path d="M75.568,174.416c-1.184-.191-1.793-1.081-2.537-1.787-1.364-1.295-2.71-2.61-4.06-3.92-.23-.223-.614-.412-.372-.82a.565.565,0,0,1,.771-.2A27.009,27.009,0,0,1,75.568,174.416Z"/>
    <path d="M50.453,144.467c2.06,3.15,3.808,6.213,5.513,9.3.166.3.407.595.008.87-.456.315-.6-.18-.759-.394a15.02,15.02,0,0,1-1.043-1.711q-1.78-3.3-3.534-6.608A1.312,1.312,0,0,1,50.453,144.467Z"/>
    <path d="M101.538,212.654a12.3,12.3,0,0,1,2.066,3.663c1,2.217,2.1,4.391,3.17,6.58.149.306.386.651.091.921s-.559-.047-.68-.283A84.619,84.619,0,0,1,101.538,212.654Z"/>
    <path d="M115.913,232.064c2.106,2.324,4.164,4.593,6.22,6.866.227.251.521.565.2.874-.372.357-.587-.109-.812-.305a35.888,35.888,0,0,1-5.637-6.586C115.731,232.7,115.687,232.482,115.913,232.064Z"/>
    <path d="M114.3,234.049c1.364.748,2.142,2.059,3.162,3.143q2.186,2.324,4.364,4.654c.194.207.476.415.29.734-.232.4-.553.113-.719-.046A52.841,52.841,0,0,1,114.3,234.049Z"/>
    <path d="M75.318,171.039c-1.486-.752-2.4-2.111-3.532-3.215a21.194,21.194,0,0,1-1.68-1.975.652.652,0,0,1-.008-.92c.227-.23.461-.014.631.119A17.753,17.753,0,0,1,75.318,171.039Z"/>
    <path d="M119.013,233.227c1.742.748,2.966,2.117,4.358,3.268a.7.7,0,0,1,.192.909.58.58,0,0,1-.89.1A11.439,11.439,0,0,1,119.013,233.227Z"/>
    <path d="M102.676,220.009c1.513,2.328,2.55,4.9,4.095,7.179.111.164.182.338-.012.5a.385.385,0,0,1-.617-.1A23.951,23.951,0,0,1,102.676,220.009Z"/>
    <path d="M77.42,168.6c-.065.088-.117.229-.216.282-.282.148-.438-.089-.587-.258q-1.285-1.465-2.554-2.945c-.438-.509-.873-1.023-1.3-1.544-.2-.239-.313-.527-.013-.754a.478.478,0,0,1,.657.09,39.588,39.588,0,0,1,3.9,4.968C77.331,168.475,77.361,168.513,77.42,168.6Z"/>
    <path d="M52.472,143.3a.58.58,0,0,1,.842.163,24.476,24.476,0,0,1,2.6,3.638c.143.256.422.621.022.9s-.65-.041-.82-.322A39.182,39.182,0,0,1,52.472,143.3Z"/>
    <path d="M18.671,89.848c-.159.441.192.949-.363,1.093-.527.137-.794-.273-1-.66a25.9,25.9,0,0,1-1.844-5.9c-1.479-5.547-2.276-11.252-3.771-16.8-.119-.44-.248-1.048.451-1.161.652-.105.787.51.893.938,1.3,5.2,2.551,10.421,3.842,15.627C17.453,85.313,18.087,87.623,18.671,89.848Z"/>
    <path d="M48.709,34.465a45.416,45.416,0,0,1-5.969,2.976c-5.1,2.461-10.282,4.738-15.6,6.689-.377.139-.87.8-1.162.2-.284-.583.49-.693.888-.874,5.543-2.525,11.007-5.229,16.742-7.317,1.485-.54,2.908-1.249,4.357-1.885C48.194,34.157,48.409,34.078,48.709,34.465Z"/>
    <path d="M155.065,242.794c-.35.831-1.223.858-1.873,1.146a14.523,14.523,0,0,1-5.2,1.549c-.273.012-.618.112-.723-.272a.43.43,0,0,1,.36-.539c2.458-.436,4.733-1.5,7.15-2.07C154.842,242.594,154.93,242.7,155.065,242.794Z"/>
    <path d="M155.022,245.621c-.78.944-1.83,1.079-2.718,1.493a.7.7,0,0,1-.964-.381c-.154-.49.273-.639.7-.66C153,246.027,153.811,245.237,155.022,245.621Z"/>
  </g>
</svg>
