<svg xmlns="http://www.w3.org/2000/svg" viewBox="0 0 201.746 265.045">
  <g>
    <path d="M55.687,95.065c-.269-4.849.024-9.682-.529-14.492-.31-2.694-.105-5.444-.188-8.167q-.171-5.6-.431-11.2c-.379-8.438-.683-16.881-1.2-25.311-.407-6.592-.262-13.173-.145-19.763.06-3.365-.38-6.729-.15-10.1a19.406,19.406,0,0,1,.506-4C54.256-.478,56.364-.435,58.024.925a3.953,3.953,0,0,1,1.207,1.684c1.493,4.035,3.4,7.945,4.271,12.172,1.376,6.7,2.582,13.428,3.486,20.21.69,5.18,1.539,10.339,2.249,15.517,1.039,7.58,2.422,15.1,3.2,22.729,1.006,9.8,2.164,19.585,3.883,29.3.992,5.6,1.839,11.236,2.645,16.871a6.731,6.731,0,0,1-1.594,5.6c-.462.521-.28.874.076,1.369A34.513,34.513,0,0,0,86,134.433a66.806,66.806,0,0,0,15.964,8.058c2.951,1.05,4.581,3.349,5.5,6.314a41.263,41.263,0,0,0,9.189,16.2,4.345,4.345,0,0,0,3.764,1.644,98.44,98.44,0,0,1,14.591.438A72.2,72.2,0,0,1,147,168.845a35.977,35.977,0,0,1,7.782,3.587,39.2,39.2,0,0,1,9.1,7.186,29.4,29.4,0,0,1,5.457,7.643c1.406,2.911,2.413,5.991,3.994,8.841,1.187,2.138.913,4.689,1.208,7.072.456,3.686-.315,7.254-1.1,10.783a23.965,23.965,0,0,1-3.83,9.09c-.783,1.073-.709,1.152.538,1.4,5.334,1.043,10.412-.264,15.529-1.517a79.472,79.472,0,0,0,11.818-3.679,5.878,5.878,0,0,1,1.789-.336c2.038-.16,3.026,1.207,2.13,3.1a8.428,8.428,0,0,1-4.4,3.9,69.225,69.225,0,0,1-15.162,4.925,97.008,97.008,0,0,1-16.455,1.653c-6.715.19-13.467.154-20.1-1.245a37.628,37.628,0,0,1-5.408-1.55,32.776,32.776,0,0,1-7.467-3.329,54.88,54.88,0,0,1-8.472-7.277,58.185,58.185,0,0,1-7.587-10.341,41.655,41.655,0,0,1-4.142-10.328A48.256,48.256,0,0,1,110.3,187.4c-.114-2.476-.09-4.966.019-7.443.108-2.445-.191-4.886.047-7.335a3.594,3.594,0,0,0-.961-2.224c-2.425-3.365-4.354-7.042-6.689-10.462a28.6,28.6,0,0,0-9.764-8.533c-5.017-2.887-10.325-5.176-15.458-7.815-1.992-1.024-4.057-1.946-5.955-3.167-.439-.283-1.209-.832-1.111.469a.8.8,0,0,1-.279.653c-2,.864-1.546,2.874-1.888,4.376-.8,3.5-1.764,6.932-2.787,10.366-1.059,3.554-2.224,7.075-3.25,10.64-1.071,3.719-2.1,7.463-3.419,11.114a62.826,62.826,0,0,0-2.015,8.162.763.763,0,0,0,.505,1.028c5.086,2.031,8.057,6.236,10.666,10.715a93,93,0,0,1,4.761,9.77A44.373,44.373,0,0,1,76.063,224.3a47.333,47.333,0,0,1-.331,7.047A6.88,6.88,0,0,0,77.1,237a16.21,16.21,0,0,1,2.638,4.809,4.905,4.905,0,0,1-.6,4.017,21.773,21.773,0,0,1-1.916,3.4,9,9,0,0,1-5.337,3.206,15.306,15.306,0,0,0-9.029,6.117c-1.285,1.827-3.286,2.675-5.15,3.652a23.588,23.588,0,0,1-11.274,2.847A26.537,26.537,0,0,1,36.29,263.1a41.472,41.472,0,0,1-6.595-3.457c-1.643-1.1-2.591-2.807-3.779-4.288a29.876,29.876,0,0,1-6.624-19.117,57.788,57.788,0,0,1,.842-10.943,32.74,32.74,0,0,1,2.143-7.641c1.52-3.306,2.593-6.807,4.554-9.926,2.421-3.852,5.516-7.145,8.367-10.65a37.231,37.231,0,0,1,8.776-7.546,6.618,6.618,0,0,0,3.006-4.981,28.358,28.358,0,0,1,1.261-4.335c1.688-5.391,4.019-10.577,4.979-16.207.476-2.789,1.78-5.388,2.078-8.257.588-5.67.672-11.239-1.169-16.787a21.512,21.512,0,0,1-.589-8,3.067,3.067,0,0,0-.488-1.944c-1.457-2.279-2.857-4.592-4.44-6.791S46.3,117.345,44.939,115c-3.758-6.5-6.7-13.421-10.384-19.962q-6.1-10.818-12.242-21.607c-2.846-4.983-5.329-10.181-8.3-15.083-3.578-5.9-6.489-12.132-9.59-18.261A37.279,37.279,0,0,1,.286,18.172a20.684,20.684,0,0,1,.706-3.223c.362-1.213,1.178-1.345,2.018-.382,2.676,3.063,4.562,6.676,6.917,9.962,4.954,6.916,9.448,14.14,13.933,21.355,7.1,11.418,14.087,22.9,21.526,34.106C48.752,85.059,52.249,90.042,55.687,95.065ZM130.141,223.57l-.018-.046a12.056,12.056,0,0,0,4.2,3,48.98,48.98,0,0,0,12.321,3.956,68.844,68.844,0,0,0,10.923,1.038c4.653.133,9.292-.358,13.94-.5a69.58,69.58,0,0,0,23.761-5.242,10.351,10.351,0,0,0,5.094-3.843,1.337,1.337,0,0,0,.193-1.381,1.155,1.155,0,0,0-1.358-.559,34.935,34.935,0,0,0-3.547.872c-2.764,1.059-5.37,2.589-8.4,2.9a6.33,6.33,0,0,0-1.553.323c-5.184,1.93-10.543,1.866-15.919,1.323a5.232,5.232,0,0,1-3.669-1.986c1.386.771,1.811-.239,2.344-1.082,2.867-4.539,4.038-9.645,4.927-14.834.483-2.818-.385-5.592-.435-8.4a10.214,10.214,0,0,0-1.31-4.682c-1.107-2.056-2.107-4.17-3.229-6.217a37.662,37.662,0,0,0-8.01-9.79,45.776,45.776,0,0,0-7.753-5.577c-2.15-1.247-4.251-2.678-6.735-3.106-5.7-.979-11.381-2.124-17.223-1.844-3,.145-6.011-.268-9.027-.083-.748.046-1.622.294-2.308-.363-2.259-2.16-4.768-4.111-6.43-6.8a47.013,47.013,0,0,1-5.143-10.995,9.272,9.272,0,0,0-6.137-6.433,50.99,50.99,0,0,1-13.267-6.981,54.738,54.738,0,0,1-12.761-13.12c-3.138-4.692-6.579-9.183-9.438-14.063-1.4-2.381-3.857-3.988-4.849-6.672-.157-.426-.517-.463-.875-.118-1.878,1.81-4.272,2.838-6.479,4.125-1.046.61-1.652,2.081-3.195,1.8-.361-.573.707-.794.284-1.5-1.047-1.757-1.887-3.638-2.939-5.392-2.1-3.5-4.257-6.966-6.6-10.31-.148-.211-.462-.388-.156-.938.537.658,1.06,1.238,1.515,1.867,3.284,4.542,6.056,9.411,9,14.169.317.511.5.607.994.324.524-.3.249-.536.05-.867-1.248-2.061-2.325-4.223-3.717-6.2a4.723,4.723,0,0,1-1.079-2.28c.545-.006.7.432.945.732a55.675,55.675,0,0,1,4.407,7.074c.22.365.3.948.938.527.689-.45.023-.738-.156-1.05-.934-1.631-1.888-3.251-2.846-4.869-.153-.259-.338-.489.027-.727a5.138,5.138,0,0,1,1.026,1.333c.861,1.338,1.72,2.679,2.613,4,.107.158.187.6.618.313.4-.265.28-.512.064-.8-.074-.1-.143-.2-.214-.3C49.636,97.783,46.1,92.046,42.487,86.355a2.075,2.075,0,0,1-.476-1.7c.436.613.72.986.976,1.378,1.652,2.528,3.366,5.02,4.929,7.6,1.931,3.188,4.267,6.089,6.309,9.195.254.385.288.858.922.339.481-.394.758-.567.3-1.228-4.9-7.1-9.537-14.367-14.061-21.709-.148-.239-.385-.51-.123-.933.223.27.417.467.569.693q6.859,10.242,13.706,20.494c1.15,1.727,1.112,1.754,2.83.542.052-.037.077-.114.135-.2-1.067-.93-1.527-2.287-2.37-3.387-3.082-4.019-6.125-8.079-9.039-12.21-4.945-7.013-9.561-14.26-13.944-21.651-4.458-7.518-9.068-14.946-13.576-22.435-1.841-3.057-4.3-5.656-6.22-8.658-3.079-4.814-5.725-9.911-9.308-14.4a8.786,8.786,0,0,0-1.886-2.062c-.169.623-.355,1.123-.438,1.639A37.637,37.637,0,0,0,5.149,39.779,231.38,231.38,0,0,0,16.206,60.186c5.76,9.786,11.33,19.684,17.065,29.484,3.63,6.2,6.771,12.653,10.041,19.04,2.018,3.941,3.886,7.978,6.183,11.753,2.171,3.568,4.349,7.139,6.583,10.672a5.136,5.136,0,0,0,1.3,1.692,39.63,39.63,0,0,0,4.751,2.547c2.767,1.24,5.555,2.454,8.4,3.494,3.407,1.245,6.354,3.406,9.763,4.648,4.823,1.757,9.238,4.428,13.976,6.4a18.221,18.221,0,0,1,6.163,4.359c1.742,1.843,2.891,4.136,4.324,6.214,1.841,2.671,3.4,5.529,5.217,8.222,1.085,1.605,2.661,3.055,2.2,5.33-.127.637-.122,1.3-.22,1.944a55.831,55.831,0,0,0,3.661,29.47,46.465,46.465,0,0,0,4.077,7.143A37.868,37.868,0,0,0,130.141,223.57ZM76.868,238.636l-.372-.028a15.639,15.639,0,0,1-1.259,3.793c-.589,1.155-1.01,2.444-2.268,3.161,1.849-3.21,2.991-6.525,2.28-10.237-.507,1.911-.548,3.928-1.355,5.985a2.532,2.532,0,0,1-.282-2.06c.421-3.795,1.365-7.535,1.115-11.4a22.82,22.82,0,0,1-.257-3.661,20.169,20.169,0,0,0-.481-5.857,117.045,117.045,0,0,0-3.118-11.468c-1.62-5.271-3.954-10.016-8.023-13.809a17.189,17.189,0,0,0-5.577-3.922c-1.234-.456-1.67-.774-1.454-2.454.583-4.539,2.275-8.718,3.472-13.055.681-2.469,1.343-4.944,2.065-7.4.8-2.731,1.335-5.531,2.278-8.228.889-2.543,1.725-5.116,2.374-7.728.22-.888.9-1.8.459-2.852-.565.215-.633.73-.718,1.123a58.743,58.743,0,0,1-2.165,6.881c-1.666,4.781-2.91,9.681-4.38,14.516-1.422,4.681-2.828,9.367-4.27,14.042-.25.809-.643,1.574-.97,2.36l-.31-.128c3.258-12.958,6.955-25.791,11.379-38.437-.7-.156-.963.1-1.074.56-.308,1.265-.531,2.556-.932,3.79-.319.98-.252,2.126-.977,3.04a.838.838,0,0,1-.3-.82c.354-1.96.723-3.918,1.078-5.878.047-.262.463-.661-.142-.749-.474-.069-.408.355-.475.677-.241,1.153-.5,2.3-.8,3.441-.07.267.089.822-.408.74-.456-.076-.348-.567-.3-.921q.265-1.929.554-3.857c.029-.2.144-.415-.132-.511-.4-.139-.358.206-.4.414-.141.676-.229,1.364-.4,2.032-.307,1.2-.253,2.511-1.023,3.87a3.585,3.585,0,0,1-.136-1.571c.2-1.7.328-3.4.6-5.085a1.033,1.033,0,0,0-.753-1.3c-.065,4.244-.581,8.361-1.044,12.567-.59-.323-.443-.715-.426-1.064.091-1.865.261-3.731.263-5.6,0-2.972,1.154-6.089-1.027-8.823-.283-.354-.112-.771.232-1.095a.913.913,0,0,1,1.115-.144,19.68,19.68,0,0,0,3.356,1.205,1.233,1.233,0,0,0,1.447-.346c-2.612-.449-4.794-1.918-7.432-2.649a24.7,24.7,0,0,1,1.387,9.03,64.494,64.494,0,0,1-1.982,14.533,78.426,78.426,0,0,1-3.478,11.169c-1.634,4.152-2.755,8.447-4.083,12.683a4.1,4.1,0,0,1-1.113,1.947c-1.576,1.43-3.163,2.843-4.848,4.15a51.021,51.021,0,0,0-8.272,8.145,59.781,59.781,0,0,0-6.853,10.815,60.477,60.477,0,0,0-4.1,10.772,51.929,51.929,0,0,0-1.889,13.247,10.994,10.994,0,0,0,.472,3.514,18.532,18.532,0,0,0,0-2.285c-.02-.415-.109-.937.466-.94.527,0,.36.532.375.857a24.245,24.245,0,0,0,1.22,7.472c.1.264.324.586.035.986-.7-.471-.729-1.362-1.268-1.914a20.817,20.817,0,0,0,2.554,6.573c1.756,2.937,3.471,5.948,6.322,8a22.531,22.531,0,0,0,3.64,1.983,34.219,34.219,0,0,0,7.04,2.73,31.349,31.349,0,0,0,9.218.266,15.628,15.628,0,0,0,8.584-2.943,32.666,32.666,0,0,0,10.242-13.012c.118-.273.137-.8.53-.7.469.119.221.568.178.924a15.3,15.3,0,0,1-1.831,4.915c1.6-.676,2.011-1.906,2.612-2.964a9.858,9.858,0,0,1,2.262-2.954c-.475,1.844-1.767,3.193-2.312,4.912,2.829-3.028,4.221-6.894,6.14-10.474a13.294,13.294,0,0,1-1.874,4.984q-1.326,2.454-2.647,4.91c2.517-.864,2.677-3.627,4.482-5.485a16.928,16.928,0,0,1-1.7,4.161,16.326,16.326,0,0,0,3.563-6.542,1.362,1.362,0,0,0-.062-.838C77.972,241.083,77.413,239.862,76.868,238.636Zm-.143-116.513c.912-2.268.365-4.314.01-6.332-1.586-9.009-3.067-18.035-4.24-27.1-1.08-8.344-1.91-16.717-2.553-25.109-.509-6.647-2.1-13.129-3.128-19.7q-1.761-11.27-3.471-22.543c-.612-4.057-1.229-8.151-2.867-11.986a49.52,49.52,0,0,1-2.012-5.8,3.425,3.425,0,0,0-1.5-2.026,1.75,1.75,0,0,0-1.625-.142c-.6.208-.465.769-.462,1.254s-.025.975-.049,1.462a144.034,144.034,0,0,0-.3,14.854c.148,2.8.234,5.609.214,8.413-.049,6.621.181,13.234.482,19.846.376,8.278.9,16.55.943,24.841q.059,11.767.614,23.523a2.683,2.683,0,0,0,1,2.257c0-1.855,0-3.576.013-5.3.047-5.31.21-10.622.129-15.93-.12-7.8-1-15.572-1.142-23.376q-.186-10.29-.311-20.582c-.007-.538-.222-1.178.395-1.644a2.325,2.325,0,0,1,.142.473q.477,6.5.426,13.014c-.043,5.971.052,11.948.546,17.886a212.846,212.846,0,0,1,.614,29.565c-.136,2.429-.041,4.872-.015,7.308,0,.431-.049,1.048.625,1.089.793.049.673-.534.671-1.066-.012-3.45-.024-6.9.015-10.35a13.176,13.176,0,0,1,.3-3.833,2.952,2.952,0,0,1,.456,2c.05,4.458.13,8.916.1,13.373A2.94,2.94,0,0,0,62,102.84c.426-10.076-.664-20-.257-30.044.659.379.488.891.5,1.292.236,9.738.875,19.465.735,29.212-.025,1.7.766,3.047,1.921,4.583.033-12.38.023-24.445-.183-36.517,1.1,12.073.566,24.24,2.162,36.279,0-12.721-.185-25.438-.316-38.164.937,12.782.74,25.632,2.586,38.521.129-.263.222-.364.22-.462-.082-5.233.249-10.479-.232-15.7-.8-8.674-1.466-17.356-2.084-26.044q-.578-8.1-1.259-16.2c-.271-3.2-.166-6.416-.751-9.736.846.44.763,1.144.821,1.688.5,4.694,1.078,9.385,1.392,14.093.911,13.631,2.035,27.245,3.069,40.867a3.439,3.439,0,0,0,.14.645c1.372-.247.836.96.908,1.4.736,4.512,1.363,9.042,2.029,13.566a5.422,5.422,0,0,0,.574,2.123c-.045-2.5-.737-4.953-.511-7.63a2.406,2.406,0,0,1,.7,1.409C75.167,112.626,75.11,117.423,76.725,122.123Zm-22.046,12.65c-.37,2.879.1,3.721,2.583,4.755.6.251,1.237.449,1.813.755a13.719,13.719,0,0,0,7.813,1.19,2.463,2.463,0,0,0,2.155-1.557c.082-.175.215-.389-.01-.537a.762.762,0,0,0-.437-.078c-.367,1.012-1.35.706-2.055,1-2.284.947-4.507.422-6.666-.324s-4.361-1.583-4.779-4.329A3.563,3.563,0,0,0,54.679,134.773Z"/>
    <path d="M138.416,221.07a26.531,26.531,0,0,1-14.009-12.508,55.73,55.73,0,0,1-6.664-25.394c-.05-1.837-.237-3.669-.329-5.5-.169-3.411.562-4.613,3.894-5,6.124-.717,12.279-1.131,18.386.323a39.14,39.14,0,0,1,4.2.868,11.583,11.583,0,0,1,1.627.542c4.477,2.406,9.04,4.68,12.447,8.648,5.667,6.6,9,14.088,8.878,22.927a17.825,17.825,0,0,1-5.577,13.116c-1.42,1.367-3.387,1.665-5.153,2.16-3.876,1.087-7.819,2.026-11.923,1.46A22.456,22.456,0,0,1,138.416,221.07Zm7.369-44.741a38.8,38.8,0,0,0-9.7-2.511c-4.855-.593-9.7.255-14.534.469-2.141.094-3.2.772-3.019,3.551.091,1.424.195,2.847.291,4.271.573,8.508,1.84,16.832,5.895,24.521,2.551,4.836,5.649,9.148,10.466,11.944a20.606,20.606,0,0,0,11.017,3.235,47.9,47.9,0,0,0,8.478-.986c2.728-.575,5.585-1.137,7.031-4.2,1.294-2.737,2.964-5.3,3.061-8.461.035-1.144.092-2.292.23-3.426a21.156,21.156,0,0,0-3.887-15.08,13.232,13.232,0,0,1-1.119-1.885,15.862,15.862,0,0,0-5.888-6.736A69.1,69.1,0,0,0,145.785,176.329Z"/>
    <path d="M59.05,122.193c.917-2.342,3.877-3.83,5.968-2.927,2.679,1.157,3.945,3.724,3.017,6.141-1.1,2.875-4.131,4.4-6.086,3.439C59.292,127.547,57.743,125.843,59.05,122.193Zm1.372,1.437c-.6,2.017.306,3.4,2.658,4.019A7.815,7.815,0,0,1,60.422,123.63Z"/>
    <path d="M19.7,64.067c9.008,14.817,18.469,29.361,26.653,44.709-.5.089-.653-.313-.859-.639-3.389-5.352-6.642-10.784-9.858-16.242-2.826-4.8-5.9-9.442-8.765-14.216-2.442-4.07-4.737-8.228-7.1-12.346-.2-.343-.406-.679-.609-1.019Z"/>
    <path d="M63.67,117.228c-.737-1.722-1.884-3.14-2.536-4.855,2.273,1.682,2.788,4.975,5.843,6.223A118.3,118.3,0,0,1,58.3,104.889c3.7,4.118,6.064,9.162,9.462,13.488a3.586,3.586,0,0,1,.41,1.745c-1.7-1.589-3.732-1.746-5.833-1.554-2.233.2-3.53,1.65-4.582,3.586.929-1.876-.466-3.256-.929-5.007.972.592,1.15,1.48,1.69,2.273,1.246-1.116-.36-1.9-.331-2.9.666.15.79.7,1.034,1.115.148.254.258.549.635.4.48-.2.254-.536.121-.815-.545-1.144-1.112-2.277-1.658-3.42a2.863,2.863,0,0,1-.081-.657c1.033.764,1.109,1.892,1.712,2.664.492.632.269,2.169,1.871,1.558l-2.867-5.669.283-.158C61.026,113.182,61.232,116.137,63.67,117.228Z"/>
    <path d="M32.436,66.249c-8.88-16.12-19.257-31.287-29.555-46.5C6,21.427,31.5,61.5,32.436,66.249Z"/>
    <path d="M192.492,225.252a14.952,14.952,0,0,1-4.769,2.213,74.579,74.579,0,0,1-15.976,2.894,113.538,113.538,0,0,1-20.678-.8c-3.011-.418-6.091-.306-9.07-1.028-1.107-.269-2.191-.633-3.28-.972-.282-.088-.547-.263-.4-.628.111-.27.341-.145.52-.078,4.33,1.616,8.924,1.528,13.415,2.135a99.883,99.883,0,0,0,25.394.161,47.876,47.876,0,0,0,13.225-3.488A2.436,2.436,0,0,1,192.492,225.252Z"/>
    <path d="M154.993,175.408a15.294,15.294,0,0,1,3.324,2.293c4.2,3.2,7,7.558,9.577,12.039a33.248,33.248,0,0,1,3.8,10.469c.136.717.674,1.916-.216,2.145-.556.144-.583-1.248-.738-1.972a46.161,46.161,0,0,0-5.965-14.037,35.42,35.42,0,0,0-9.6-10.367,3.6,3.6,0,0,1-.327-.3Z"/>
    <path d="M115.4,201.964a3.612,3.612,0,0,1-1.232-2.417,67.16,67.16,0,0,1-1.077-23.013c.043-.336-.106-1,.517-.908.529.081.33.651.3,1.033a96.443,96.443,0,0,0-.387,10.8,71.02,71.02,0,0,0,1.624,12.815C115.24,200.731,115.284,201.206,115.4,201.964Z"/>
    <path d="M17.925,61.6c-4.672-8.75-10.619-16.726-13.8-26.2.547-.148.54.246.645.47,1.354,2.9,2.672,5.811,4.052,8.7,1.594,3.333,3.92,6.228,5.729,9.432,1.187,2.1,2.31,4.24,3.444,6.37C18.174,60.7,18.44,61.083,17.925,61.6Z"/>
    <path d="M158.174,180.5c.9-.127,1.147.39,1.471.689a30.763,30.763,0,0,1,6.294,8.783,41.244,41.244,0,0,1,3.354,8.023c.1.366.457.891-.079,1.061-.4.126-.606-.456-.757-.8-.886-2.028-1.663-4.107-2.621-6.1C163.839,188,161.673,183.946,158.174,180.5Z"/>
    <path d="M165.405,226.24a5.5,5.5,0,0,1-3.186,1.213,51.547,51.547,0,0,1-18.884-.608,14,14,0,0,1-2.834-.65c-.262-.117-.78-.1-.575-.583.166-.391.548-.169.866-.1a58.867,58.867,0,0,0,11.737,1.826A50.983,50.983,0,0,0,165.405,226.24Z"/>
    <path d="M84.809,144.247a3.179,3.179,0,0,1-2.072-.57c-2.794-1.642-5.816-2.792-8.729-4.177a95.466,95.466,0,0,1-11.286-6.149c-.715-.466-1.472-.867-2.206-1.3-.241-.143-.368-.351-.163-.6.162-.2.378-.108.544.02,3.579,2.77,7.8,4.412,11.7,6.616a59.5,59.5,0,0,0,5.879,2.8C80.667,141.828,82.645,143.2,84.809,144.247Z"/>
    <path d="M69.825,124.006a1.387,1.387,0,0,1,1.442.447c3.473,2.7,6.282,6.112,9.58,9,2.43,2.126,4.935,4.169,7.457,6.208-2.414-1.135-4.371-2.938-6.5-4.476a43.8,43.8,0,0,1-5.925-5.62C74.03,127.624,71.9,125.983,69.825,124.006Z"/>
    <path d="M36.824,89.87A85.99,85.99,0,0,1,42.8,98.925q2.624,4.356,5.261,8.7a3.053,3.053,0,0,1,.233.432c.086.218.285.508.019.661-.329.188-.488-.125-.64-.379-.9-1.506-1.771-3.033-2.721-4.507C42.2,99.577,39.886,95.055,37,90.881,36.829,90.629,36.522,90.41,36.824,89.87Z"/>
    <path d="M164.79,221.611c-.709,1.06-1.84,1-2.729,1.4-4.333,1.932-8.917,2.149-13.553,1.871-.425-.026-1.337.2-1.3-.528.05-.852.867-.329,1.286-.287a31.368,31.368,0,0,0,15.314-2.344,5.383,5.383,0,0,1,.572-.212C164.451,221.49,164.537,221.544,164.79,221.611Z"/>
    <path d="M105.372,158.6c.577-.1.753.406.977.738,2.422,3.575,4.845,7.15,7.207,10.765a5.718,5.718,0,0,1,.648,3.232c-.253-.154-.416-.2-.43-.269-.641-3.352-3.275-5.587-4.77-8.465-1.009-1.942-2.354-3.71-3.557-5.55C105.351,158.9,105.275,158.778,105.372,158.6Z"/>
    <path d="M38.148,88.936a151.971,151.971,0,0,1-9.582-15.245C31.838,78.725,35.666,83.409,38.148,88.936Z"/>
    <path d="M130.141,223.57c-.2-.73-.924-.965-1.4-1.43a77.054,77.054,0,0,1-5.966-6.447c-.181-.223-.38-.429-.191-1.186a93.481,93.481,0,0,0,11.263,10.975c-1.6-.061-2.335-1.606-3.727-1.96Z"/>
    <path d="M119.186,169.034a55.69,55.69,0,0,1,6.225-.647c3.317.011,6.634.287,9.947.506.371.025,1.145-.052,1.09.445-.063.572-.761.231-1.143.2a72.756,72.756,0,0,0-13.356-.071A3.373,3.373,0,0,1,119.186,169.034Z"/>
    <path d="M114.951,191.284a4.672,4.672,0,0,1-.7-2.595,63.14,63.14,0,0,1,.207-11.378c.025-.3-.022-.74.449-.682.375.046.272.4.259.691a79.434,79.434,0,0,0,.008,13.214C115.2,190.715,115.067,190.915,114.951,191.284Z"/>
    <path d="M47.818,111.918c2.774,4.616,5.758,9.113,7.867,14.1C52.96,121.38,49.912,116.919,47.818,111.918Z"/>
    <path d="M152.592,225.975c-2.316,1.04-9.251.36-11.787-1.09.051-.408.381-.422.645-.365a42.721,42.721,0,0,0,10.7,1.218C152.253,225.734,152.359,225.845,152.592,225.975Z"/>
    <path d="M101.861,154.393c-2.866-3.517-6.608-5.777-10.7-7.607C92.792,145.7,101,151.4,101.861,154.393Z"/>
    <path d="M57.425,123.164a2.689,2.689,0,0,1,.6,1.566c-.046,2.229,1.138,3.56,3.074,4.461.8.375,1.583.828,2.439,1.178-1.036.5-3.558-.426-4.8-1.731C56.857,126.664,56.419,125.015,57.425,123.164Z"/>
    <path d="M152.33,173.718c-1.045.251-1.458-.336-1.992-.565a46.74,46.74,0,0,0-6.579-2.242c-.3-.079-.718-.087-.642-.553a.55.55,0,0,1,.667-.41A18.06,18.06,0,0,1,152.33,173.718Z"/>
    <path d="M169.884,207.039c.722,1.852-2,10.107-3.813,11.562C167.935,214.943,168.819,210.961,169.884,207.039Z"/>
    <path d="M39.629,78.051q-3.117-4.617-6.232-9.235l.382-.255c2.455,2.824,4.2,6.125,6.253,9.22Z"/>
    <path d="M130.749,221.384a19.564,19.564,0,0,1-5.155-4.7.437.437,0,0,1,.053-.652.371.371,0,0,1,.546,0q2.422,2.524,4.834,5.06Z"/>
    <path d="M73.829,135.762c-1.259.045-1.975-.8-2.818-1.25-1.749-.938-3.392-2.074-5.079-3.129-.223-.14-.677-.218-.469-.558.223-.365.533-.078.822.106,1.612,1.027,3.249,2.015,4.863,3.038A8.7,8.7,0,0,1,73.829,135.762Z"/>
    <path d="M76.694,133.927a19.8,19.8,0,0,1-7.065-5.423C72.135,130.121,74.27,132.224,76.694,133.927Z"/>
    <path d="M51.426,115.513a14.139,14.139,0,0,1,1.748,2.836c.956,1.515,1.893,3.042,2.837,4.564.187.3.527.682.065.921-.408.21-.505-.334-.642-.571-1.345-2.332-2.662-4.681-3.977-7.031C51.351,116.043,51.1,115.846,51.426,115.513Z"/>
    <path d="M97.511,147.859c.8-.38,1.06.2,1.417.458a27.458,27.458,0,0,1,4.114,3.915c.152.17.531.415.241.709-.311.315-.562.044-.806-.2A59.37,59.37,0,0,0,97.511,147.859Z"/>
    <path d="M38.96,87.091c-.8-.548-4.973-7.145-5.11-7.963A33.279,33.279,0,0,1,38.96,87.091Z"/>
    <path d="M115.225,171.934c-1.157-2.347-2.356-4.51-3.649-6.62-.146-.238-.424-.489-.125-.726.2-.158.5.02.629.231a30.49,30.49,0,0,1,3.342,6.622C115.45,171.527,115.34,171.657,115.225,171.934Z"/>
    <path d="M132.26,221.019a15.236,15.236,0,0,1-4.37-4.112c-.141-.18-.3-.472-.045-.661.227-.17.5.006.659.174,1.344,1.445,2.67,2.907,4,4.363Z"/>
    <path d="M116.2,186.124c-.374.922.182,1.993-.433,2.934-.678-1.377-.692-5.331,0-6.527.621,1.2.094,2.489.455,3.646Z"/>
    <path d="M121.137,209.737a7.072,7.072,0,0,1-1.785-2.341c-.6-.914-1.115-1.886-1.654-2.84-.15-.267-.182-.583.13-.745.258-.134.486.064.578.3.72,1.82,1.866,3.415,2.714,5.166A1.642,1.642,0,0,1,121.137,209.737Z"/>
    <path d="M69.176,126.389c-.26,1.891-1.649,2.44-2.729,3.261a.427.427,0,0,1-.566.022.47.47,0,0,1-.018-.674A9.064,9.064,0,0,1,69.176,126.389Z"/>
    <path d="M103.473,151.1l-4.619-4.59.246-.257a18.222,18.222,0,0,1,4.689,4.52Z"/>
    <path d="M169.573,226.24l7.109.652A11.636,11.636,0,0,1,169.573,226.24Z"/>
    <path d="M56.329,122.3q-1.571-3.012-3.139-6.024l.39-.2a46.931,46.931,0,0,1,3.2,6.032Z"/>
    <path d="M144.223,172.3a9.353,9.353,0,0,1,4.515,1.491.425.425,0,0,1,.179.53c-.1.245-.3.252-.5.169q-2.166-.893-4.326-1.8Z"/>
    <path d="M170.759,208.3c.068-.227.058-.562.408-.475.315.077.205.368.156.609-.305,1.507-.595,3.017-.9,4.524-.067.329-.265.749-.6.652-.462-.132-.115-.529-.053-.815Z"/>
    <path d="M89.832,143.924c.976-.333,1.489.332,2.137.687a22.861,22.861,0,0,0,3.486,1.724c.286.1.568.323.443.6-.146.324-.5.185-.753.041Q92.486,145.459,89.832,143.924Z"/>
    <path d="M136.476,222.062a8.992,8.992,0,0,1-4.154-2.09c-.16-.119-.4-.363-.129-.609a.444.444,0,0,1,.568-.046C134,220.225,135.238,221.145,136.476,222.062Z"/>
    <path d="M73.255,128.089a16.893,16.893,0,0,1-4.018-2.677.4.4,0,0,1-.029-.558.252.252,0,0,1,.414-.016A24.119,24.119,0,0,1,73.255,128.089Z"/>
    <path d="M67.147,133.925a26.173,26.173,0,0,1-4.972-2.887C63.227,130.941,66.164,132.65,67.147,133.925Z"/>
    <path d="M175.584,227.851a7.641,7.641,0,0,1-4.412.365.347.347,0,0,1-.167-.413c.085-.222.294-.218.51-.2C172.816,227.687,174.118,227.762,175.584,227.851Z"/>
    <path d="M121.885,207.789a4.887,4.887,0,0,1-2.262-2.82c-.1-.224-.105-.511.214-.6.291-.081.435.123.55.361C120.882,205.752,121.385,206.77,121.885,207.789Z"/>
    <path d="M55.181,116.717a8.515,8.515,0,0,1,2.282,4.061C56.256,119.678,55.853,118.124,55.181,116.717Z"/>
    <path d="M70.729,132.377c-1.333-.14-2.173-1.174-3.27-1.751a.38.38,0,0,1-.161-.531c.183-.316.462-.121.631-.008A12.3,12.3,0,0,1,70.729,132.377Z"/>
    <path d="M194.655,223.338c1.346-.548,2.691-1.1,4.041-1.636a.324.324,0,0,1,.3.1c.123.248-.087.349-.256.464-1.2.81-2.621.966-3.909,1.512Z"/>
    <path d="M101.5,146.2a13.084,13.084,0,0,1,2.575,2.44.346.346,0,0,1-.007.54c-.182.135-.382.051-.533-.125q-1.124-1.314-2.251-2.625Z"/>
    <path d="M117.775,206.817l2.011,3.624-.309.176a8.724,8.724,0,0,1-2.079-3.6Z"/>
    <path d="M73.338,129.94c-.922-.676-1.85-1.346-2.761-2.037-.132-.1-.342-.279-.191-.486a.355.355,0,0,1,.541-.039,15.214,15.214,0,0,1,2.632,2.3Z"/>
    <path d="M39.585,84.549c-1.153-.821-1.483-2.173-2.151-3.318A6.3,6.3,0,0,1,39.585,84.549Z"/>
    <path d="M172.338,209.234c-.174.269-.186.683-.581.548-.356-.121-.236-.436-.167-.72.168-.7.316-1.407.463-2.113.035-.166.073-.326.271-.33.274-.006.335.222.314.413C172.552,207.786,172.436,208.536,172.338,209.234Z"/>
    <path d="M196.7,221.967a14.532,14.532,0,0,1-3.411,1.266c-.161.062-.315-.064-.32-.258-.007-.245.18-.347.375-.4,1.079-.31,2.161-.61,3.242-.915Z"/>
    <path d="M181.537,225.93l3.651-1A3.385,3.385,0,0,1,181.537,225.93Z"/>
    <path d="M104.514,147.963a8.382,8.382,0,0,1-2.313-2A2.479,2.479,0,0,1,104.514,147.963Z"/>
    <path d="M70.843,135.953c-1.089-.184-1.666-.972-2.508-1.232-.2-.063-.224-.33-.071-.515a.279.279,0,0,1,.428-.019C69.29,134.815,70.33,134.869,70.843,135.953Z"/>
    <path d="M116.225,186.177a2.907,2.907,0,0,0,.183-.565c.033-.293.169-.465.456-.435s.391.238.373.523c-.032.508-.05,1.018-.076,1.566-.814-.055-.518-.892-.958-1.14Z"/>
    <path d="M57.79,115.666a4.738,4.738,0,0,1-1.315-2.428A3.392,3.392,0,0,1,57.79,115.666Z"/>
    <path d="M36.432,80.449l-1.286-2.2.3-.166a4.956,4.956,0,0,1,1.4,2.136Z"/>
    <path d="M186.418,225.555a2.48,2.48,0,0,1-1.768,1.149c-.182.051-.418.137-.479-.161a.38.38,0,0,1,.278-.469C185.1,225.89,185.761,225.726,186.418,225.555Z"/>
    <path d="M70.753,130.83c-.242.022-.371.077-.446.035-.614-.348-1.4-.473-1.725-1.207-.071-.16.126-.326.29-.279A3.3,3.3,0,0,1,70.753,130.83Z"/>
    <path d="M66.7,243.287a24.863,24.863,0,0,1-12.857,13.367,17.066,17.066,0,0,1-9.63,1c-7.028-.95-11.822-5.218-15.263-10.969A24.211,24.211,0,0,1,26,236.106a30.073,30.073,0,0,1,.784-10.939c1.69-5.761,3.537-11.387,7.249-16.329,3.283-4.372,7.451-7.714,11.441-11.294a32.325,32.325,0,0,1,4.546-3.534,2.589,2.589,0,0,1,1.61-.5c2.639.229,5.186.735,6.982,2.924,2.357,2.873,4.659,5.79,6.982,8.692,2.432,3.039,2.965,6.792,3.886,10.4a37.518,37.518,0,0,1,.812,12.073,35.828,35.828,0,0,1-1.126,8.23C68.384,238.323,67.527,240.8,66.7,243.287ZM30.812,216.758c-2.031,5.68-3.6,10.878-3.725,16.377-.169,7.345,2.11,13.764,7.6,18.825a19.318,19.318,0,0,0,4.585,3.157c1.7.833,3.523.617,5.291.8,9.306.955,15.092-3.095,19.819-11.269a33.588,33.588,0,0,0,3.7-11.5c.612-3.7.544-7.408.865-11.105.207-2.384-.822-4.572-1.3-6.85-1.609-7.733-6.415-13.408-12.015-18.508a4.742,4.742,0,0,0-4.975-.662c-2.579,1.024-4.624,2.9-6.858,4.486C37.738,204.81,33.967,210.871,30.812,216.758Z"/>
    <path d="M21.752,225.836c.323-1.185.6-2.137.841-3.1a49.664,49.664,0,0,1,7.689-15.98c4.383-6.4,9.942-11.425,15.962-16.095.718-.557,1.385-1.179,2.16-1.843.213.855-.343,1.181-.705,1.55a68.735,68.735,0,0,1-6.029,5.173,59.3,59.3,0,0,0-11.811,13.378,42.141,42.141,0,0,0-4.976,8.951c-.682,1.873-1.161,3.821-1.755,5.728A3.229,3.229,0,0,1,21.752,225.836Z"/>
    <path d="M71.981,216.592c-.6-2.271-1.1-4.529-1.806-6.719-1.932-5.991-4.788-11.452-9.461-15.817-.983-.918-1.94-1.862-2.916-2.788-.185-.176-.4-.351-.181-.6.2-.237.469-.128.655.033a30.666,30.666,0,0,1,2.544,2.278c3.185,3.457,6.348,6.96,8.1,11.413a64.6,64.6,0,0,1,3.353,11A1.043,1.043,0,0,1,71.981,216.592Z"/>
    <path d="M66.459,246.776c-.343-1.113.424-1.66.759-2.246A34.913,34.913,0,0,0,71,233.328a34.141,34.141,0,0,0,.275-9.967,6.044,6.044,0,0,1,.43-3.353,37.4,37.4,0,0,1,.667,9.78C71.73,235.8,70.285,241.619,66.459,246.776Z"/>
    <path d="M44.594,262.885a8.707,8.707,0,0,1-4.632-.627c-4.424-1.554-8.526-3.68-11.562-7.433a47.256,47.256,0,0,1-2.9-4.061c-.188-.292-.421-.582-.06-.841.392-.281.6.147.771.367a40.88,40.88,0,0,0,4.1,5.261,23.124,23.124,0,0,0,6.178,4.285,25.368,25.368,0,0,0,7.257,2.47A.955.955,0,0,1,44.594,262.885Z"/>
    <path d="M60.644,254.6a9.15,9.15,0,0,1-3.418,2.927,17.461,17.461,0,0,1-10.179,2.434c-.926-.075-1.864-.006-2.8,0-.352,0-.726-.055-.728-.465,0-.438.444-.416.733-.421,1.784-.032,3.581.093,5.351-.072,3.489-.324,6.5-1.938,9.408-3.776a7,7,0,0,1,.874-.44A6.348,6.348,0,0,1,60.644,254.6Z"/>
    <path d="M32.947,256.487c6.219,3.726,12.728,6.069,20.232,4.383C49.505,263.961,36.059,260.65,32.947,256.487Z"/>
    <path d="M39.252,199.49a6.707,6.707,0,0,1,1.631-2.194,45.732,45.732,0,0,1,7.229-6.113c.253-.184.556-.542.831-.215.236.281-.057.568-.32.8q-4.246,3.731-8.474,7.482C39.9,199.466,39.685,199.726,39.252,199.49Z"/>
    <path d="M55.613,171.87c.615.866.054,1.617-.106,2.275-.9,3.675-1.918,7.321-2.918,10.971-.114.417-.3,1.033-.839.868-.683-.209-.192-.746-.067-1.124a91.642,91.642,0,0,0,2.7-8.882C54.685,174.62,55.177,173.305,55.613,171.87Z"/>
    <path d="M64.559,202.4c-1.085-1.414-2.079-2.784-3.153-4.087a43.592,43.592,0,0,0-5.919-5.588c-.181-.152-.672-.168-.38-.584.2-.291.451-.186.724.029a34.391,34.391,0,0,1,8.849,9.615C64.769,201.942,64.79,202.087,64.559,202.4Z"/>
    <path d="M71.712,238.01a2.665,2.665,0,0,1-.071,2.066c-.416,1.239-.977,2.43-1.487,3.638-.147.348-.385.748-.79.59-.467-.182-.282-.642-.079-.939A33.18,33.18,0,0,0,71.712,238.01Z"/>
    <path d="M59.717,194.746c-1.136-.989-2.274-1.974-3.4-2.971a.4.4,0,0,1,.5-.624,16.266,16.266,0,0,1,3.16,3.33Z"/>
    <path d="M23.294,241.188a6.479,6.479,0,0,1-.742-3.672c.013-.192.075-.4.328-.451a.371.371,0,0,1,.476.266A9.273,9.273,0,0,1,23.294,241.188Z"/>
    <path d="M51.209,181.366a11.038,11.038,0,0,1-1.724,4.808A11.381,11.381,0,0,1,51.209,181.366Z"/>
    <path d="M44.952,196.012a4.744,4.744,0,0,1,2.428-2.394.458.458,0,0,1,.659.072.491.491,0,0,1-.2.733A15.7,15.7,0,0,1,44.952,196.012Z"/>
    <path d="M70.916,244.308a7.648,7.648,0,0,1,.793-3c.115-.252.246-.586.6-.422.261.121.2.419.087.648C71.959,242.428,72.052,243.606,70.916,244.308Z"/>
    <path d="M24.621,239.955c-.206-.256-.275-.307-.3-.373-.192-.6-.544-1.2-.2-1.849a.5.5,0,0,1,.427.047A2.477,2.477,0,0,1,24.621,239.955Z"/>
    <path d="M55.929,9.781a5.149,5.149,0,0,1,.411,2.645q.21,7.164.415,14.329a4.486,4.486,0,0,1,.027.73c-.018.134-.168.249-.259.372-.121-.1-.282-.171-.352-.3a1.037,1.037,0,0,1-.09-.477c-.09-5.516-.459-11.026-.387-16.546A4.213,4.213,0,0,1,55.929,9.781Z"/>
    <path d="M64.6,61.675c.084,2.551.157,4.8.233,7.051.008.23-.027.4-.322.367-.382-.048-.259-.357-.282-.569a44.082,44.082,0,0,1-.06-5.572A1.471,1.471,0,0,1,64.6,61.675Z"/>
  </g>
</svg>
