<svg xmlns="http://www.w3.org/2000/svg" viewBox="0 0 259.529 111.681">
  <g>
    <path d="M160.93,72.611c-7.076-2.564-14.136-5.174-21.3-7.482-9.564-3.081-19.324-5.432-29.089-7.753-9.546-2.27-19.233-3.856-28.871-5.675-4.978-.94-10.044-1.253-15.022-2.277a302.46,302.46,0,0,1-30.482-7.446c-2.129-.674-4.259-1.346-6.406-1.959A98.676,98.676,0,0,1,16.7,35.481C11.2,33.034,6.756,28.966,2.15,25.19A5.06,5.06,0,0,1,.176,21.607c-.181-2.341-.4-4.663.368-6.97.624-1.864.719-3.942,2.208-5.441a33.4,33.4,0,0,1,8.858-6.44C16.644.271,22.21.065,27.73,0c6.018-.068,11.91,1.113,17.807,2.049,20.8,3.3,41.063,8.845,61.025,15.455,9.856,3.264,19.929,5.988,29.358,10.422,9.885,4.647,19.831,9.159,29.719,13.8,4.57,2.144,9.228,4.149,13.607,6.639C186.7,52.6,194.131,56.91,201.2,61.8a2.331,2.331,0,0,0,1.73.393c6.378-.676,12.276-2.931,18.1-5.422a15.252,15.252,0,0,1,3.894-1.129c4.307-.608,8.609-1.252,12.912-1.891,1.478-.219,2.876-.869,4.389-.895a16.856,16.856,0,0,1,17.3,17.422A2.081,2.081,0,0,1,257,72.37a51.567,51.567,0,0,1-11.477-3.6c-7.213-3-14.482-4.859-22.307-2.307a71.285,71.285,0,0,0-9.378,4.224c-.8.394-.834.907-.166,1.632a19.423,19.423,0,0,1,4.027,5.977c.7,1.778,1.14,3.577.226,5.446-1.047,2.143-3.087,3.524-4.238,5.587a1.2,1.2,0,0,1-.728.442c-2.205.525-4.488,1.122-6.7.683-4.315-.857-8.693-1.6-12.7-3.578-1.265-.626-2.467-1.622-3.789-.037-.265.316-.889.339-1.353.481-1.99.608-3.976,1.227-5.974,1.809-4.138,1.206-8.1,3-12.311,3.93-10.23,2.25-20.429,4.672-30.814,6.134a37.848,37.848,0,0,1-13.889-.239,9.058,9.058,0,0,0-2.727-.215,160.7,160.7,0,0,0-20.2,2.881c-11.136,2.276-22.355,4.049-33.595,5.7-8.465,1.245-16.927,2.544-25.424,3.532a103.22,103.22,0,0,1-16.275.762c-3.9-.165-7.628-.882-10.466-3.908a20.375,20.375,0,0,1-4.288-6.931,29.521,29.521,0,0,1-2.2-11.237,10.47,10.47,0,0,1,2.638-6.631c2.262-2.593,5.466-3.59,8.536-4.629,3.13-1.059,6.513-1.008,9.781-1.475,6.2-.885,12.439-1.445,18.686-1.756,6.58-.328,13.177-.287,19.762-.528,10.948-.4,21.888-.183,32.832.147a10.509,10.509,0,0,1,7.846,3.412,21.558,21.558,0,0,0,6.33,4.3,7.148,7.148,0,0,0,4.213.6c4.595-.452,8.623-2.7,12.921-4.078a51.96,51.96,0,0,1,7.344-2.157,188.261,188.261,0,0,1,23.638-2.571C163.671,73.724,162.319,73.115,160.93,72.611Zm50.379-.739c-6.069-6.178-13.322-10.588-21.113-14.2a69.233,69.233,0,0,1-9.736-5.536c-5.46-3.707-11.6-6.075-17.537-8.839-8.667-4.038-17.335-8.081-26.087-11.931-8.355-3.676-16.911-6.86-25.526-9.888a300.1,300.1,0,0,0-29.655-8.488c-11.894-2.852-23.793-5.691-35.8-8A105.283,105.283,0,0,0,26.616,2.839c-5.358-.033-10.71.182-15.7,2.466A24.357,24.357,0,0,0,5.219,9.016a8.008,8.008,0,0,0-2.65,4.234c-.6,2.376-1.267,4.711-.9,7.212.183,1.271.342,2.58,1.4,3.384,3.394,2.573,6.525,5.52,10.219,7.669A58.863,58.863,0,0,0,27.9,37.166q14.7,3.924,29.258,8.318a175.388,175.388,0,0,0,19.364,4.407c10.967,1.987,21.983,3.68,32.966,5.568,12.305,2.114,24.117,5.769,35.906,9.669,8.348,2.761,16.582,5.831,24.815,8.906,4.332,1.619,8.152,4.306,12.351,6.206,5.384,2.438,10.6,5.275,16.388,6.768a34.611,34.611,0,0,0,12.3.727c2.48-.255,5.794-3.782,5.909-6.1a8.988,8.988,0,0,0-.756-3.408A25.043,25.043,0,0,0,211.309,71.872ZM176.482,84.038c-1.232-.945-1.433-1.038-2.919-.734-11.2,2.287-22.58,3.471-33.857,5.283a24.451,24.451,0,0,1-6.1.64c12.706-3.749,25.885-4.948,39.16-7.115-1.516-.8-2.684-1.392-4.288-1.143-8.751,1.362-17.517,2.629-26.232,4.21-2.682.487-5.311,1.268-7.964,1.917-.306.075-.612.342-1-.1a20.674,20.674,0,0,1,6.33-2.152c9.118-2.256,18.476-3.174,27.831-4.936a6.43,6.43,0,0,0-4.278-.944c-5.811.951-11.648,1.743-17.475,2.6-.244.036-.47.141-.862-.365l16.9-3.42c-1.6-1.593-3.549-1.076-5.221-1.007a89.067,89.067,0,0,0-16.739,2.664c-2,.473-4.111.591-6.055,1.227-3.121,1.021-6.145,2.341-9.212,3.527-.58.224-1.173.414-1.879.661,3.069,2.276,5.714,4.929,8.576,7.386-.539.483-.772.093-1-.079a76.632,76.632,0,0,1-7.983-6.481,2.358,2.358,0,0,0-2.14-.809,9.665,9.665,0,0,1-3.95-.667c3.152,4.117,7.876,6.555,11.135,10.871a3.068,3.068,0,0,1-1.95-.961,64.59,64.59,0,0,1-5.012-4.386,78.126,78.126,0,0,0-10.432-8.92,33.616,33.616,0,0,1-3.962-3.629,4.864,4.864,0,0,0-3.66-1.415c-1.288-.012-2.576-.079-3.934,0,2.331,1.478,4.179,3.489,6.258,5.228a51.889,51.889,0,0,1,6.225,6.016,16.58,16.58,0,0,1,1.809,2.6,3.963,3.963,0,0,1-1.494,5.5,26.135,26.135,0,0,1-6.921,1.725c-.058-.378.158-.492.484-.57a47.185,47.185,0,0,0,4.886-1.233c2.443-.868,3.441-3.063,1.872-5.849a6.039,6.039,0,0,0-1.158-1.465c-4.334-3.977-8.49-8.163-13.4-11.465a4.005,4.005,0,0,0-2.439-.756c-7.351.251-14.708.32-22.057.729-6.76.375-13.531.567-20.3.793-5.156.172-10.24,1.063-15.374,1.452a97.461,97.461,0,0,0-13.519,1.542A52.283,52.283,0,0,0,16.1,81.985c-2.268.847-3.507,3.144-3.816,5.624-.608,4.886-.509,9.748,1.808,14.238,2.282,4.423,5.61,7.3,10.99,7.443a150.437,150.437,0,0,0,26.567-1.715c8.47-1.283,16.972-2.357,25.454-3.563,5.36-.762,10.684-1.754,16.028-2.611,5.86-.94,11.784-1.486,17.683-2.176,3.711-.435,7.46-.84,11.086-1.584a33.486,33.486,0,0,1,8.406-.21,65.571,65.571,0,0,0,15.41-1.459,278.8,278.8,0,0,0,27.449-6.43c1.851-.563,3.722-1.058,5.569-1.631a2.432,2.432,0,0,0,1.386-.731C159.986,92.3,132.1,96.7,128.049,95.3c17.551-3.112,35.033-5.577,52.437-9.479a3.776,3.776,0,0,0-3.335-.733,186.269,186.269,0,0,1-20.5,4.29,1.034,1.034,0,0,1-1.052-.37C162.64,87.051,169.628,85.809,176.482,84.038Zm32.153-17.272c.571,1.694,1.144.683,1.851.339,2.751-1.337,5.5-2.713,8.349-3.8a42.44,42.44,0,0,1,9.073-2.353,1.973,1.973,0,0,1,1.772.365,59.98,59.98,0,0,0-19.231,7.346c-.009-.05-.015.005.008.038,1.392,1.912,1.931,1.835,4.448.1a33.069,33.069,0,0,1,12.295-5.3c4.778-.969,9.3.61,13.886,1.585,4.451.945,8.21,3.4,12.211,5.339a9.206,9.206,0,0,0,1.576.727c.82.216,1.976.572,2.435-.036.536-.71-.008-1.85-.051-2.805-.021-.46-.4-.248-.67-.233-.962.055-1.925.106-2.888.129-.444.011-.966-.062-.968-.615s.533-.659.966-.678c.724-.031,1.454.065,2.175.014.384-.028,1.021.517,1.137-.357.128-.976-.633-.81-1.163-.822-1.3-.029-2.6,0-3.9.01-.242,0-.483.025-.725.022-.579-.008-1.35.055-1.28-.758.064-.752.81-.679,1.4-.612,1.392.159,2.78.366,4.175.461.323.022.974.477,1.035-.236a1,1,0,0,0-.916-1.094,16.9,16.9,0,0,0-5.755-.434,10,10,0,0,1-1.734.132c-.405-.009-.972.012-.949-.624.017-.475.427-.529.839-.6a14.9,14.9,0,0,1,6.47.1l.848.219c-.463-2.5-3.118-5.361-6.023-6.526-3.7-1.482-7.5-1.172-11.308-.642-6.423.894-12.665,2.671-18.923,4.265-4.941,1.259-9.792,2.878-14.836,3.75-.124.022-.228.158-.394.28,1.051.917,1.929,1.631,3.56,1.026,2.021-.75,4.17-1.177,6.164-2.053a1.844,1.844,0,0,1,1.542-.148,45.606,45.606,0,0,1-4.326,1.929,29.724,29.724,0,0,0-2.965,1.176c-.245.111-.792.07-.6.585.182.5.572.364.965.2,1.931-.789,3.869-1.559,5.805-2.334.222-.089.45-.163.675-.245l.167.34Z"/>
    <path d="M194.457,66.67a9.318,9.318,0,0,0-3.308-1.334c-4.085-1.309-7.526-3.749-10.907-6.26A149.376,149.376,0,0,0,162.46,47.313c-3.584-1.942-7.35-3.492-11.077-5.118-3.422-1.492-6.886-2.926-10.427-4.1-4.385-1.452-8.825-2.822-13.515-2.924a18.428,18.428,0,0,0-2.884.171c-2.813.387-3.939,2.195-3.147,5.091a1.693,1.693,0,0,0,.537-1.4c.095-1.8.821-2.542,2.671-2.694a27.587,27.587,0,0,1,9.181,1c13.6,3.519,25.962,9.727,37.625,17.453,5.2,3.444,10.314,7.039,15.9,9.865A17.606,17.606,0,0,0,194.457,66.67Z"/>
    <path d="M74.348,16.673a7.671,7.671,0,0,0-3.766-.885c-5.024-.467-10.055-1.1-15.109-.785a19.553,19.553,0,0,0-10.247,3.155c-3.691,2.586-4.361,6.451-3.05,10.518,1.4,4.359,4.719,6.827,8.621,8.693A125.249,125.249,0,0,0,72.488,45.3a29.8,29.8,0,0,0,3.923,1.014c.528.068,1.265.365,1.408-.223.166-.678-.706-.652-1.147-.74a81.223,81.223,0,0,1-14.59-4.273C57.46,39.216,52.7,37.618,48.543,34.76a12.035,12.035,0,0,1-5.551-8.583,7.649,7.649,0,0,1,4.583-8.087,24.31,24.31,0,0,1,10.157-1.914,119.625,119.625,0,0,1,13.244.8A5.309,5.309,0,0,0,74.348,16.673Z"/>
    <path d="M55.86,41.86c-3.329-1.379-6.362-2.358-9.413-3.3-3.763-1.155-6.955-2.984-8.69-6.82a15.135,15.135,0,0,0-3.113-4.12c-3.147-3.238-3.6-7.2-1.465-11.174,1.717-3.2,4.663-4.228,7.909-4.931,4.966-1.075,9.961-.651,14.939-.3,5.374.373,10.68,1.36,16,2.165a.628.628,0,0,0,.7-.231,1.628,1.628,0,0,0-1.231-.79c-9.467-1.819-18.971-3.3-28.642-2.01-2.889.385-5.818.788-8.276,2.714-3.547,2.78-5.223,9.082-3,12.79a3.89,3.89,0,0,0,.855,1.159,28.35,28.35,0,0,1,6.108,7.23,11.5,11.5,0,0,0,5.909,4.813c2.865,1.042,5.62,2.391,8.652,2.934A4.242,4.242,0,0,0,55.86,41.86Z"/>
    <path d="M75.025,20.53a22.845,22.845,0,0,0-5.355.561,16.864,16.864,0,0,0-7.3,3.064,5.281,5.281,0,0,0-2.334,4.985c.3,3.871,2.552,6.553,5.491,8.8,3.688,2.816,7.955,4.414,12.322,5.744,5.463,1.664,10.914,3.389,16.488,4.662,2.159.493,4.332.927,6.5,1.381.453.1,1.081.4,1.216-.284s-.621-.668-1.027-.747c-5.315-1.038-10.482-2.661-15.717-4.011C79.166,43.1,73,41.517,67.674,37.791c-2.323-1.627-4.413-3.432-5.567-6.136-1.331-3.118-.459-5.6,2.381-7.335,3.012-1.844,6.456-2.233,9.72-3.23C74.511,21,74.892,21.11,75.025,20.53Z"/>
    <path d="M195.217,71.267a3.3,3.3,0,0,1,3.856-1.245c.416.1.875.034,1.285.151,1.685.48,3.388.919,3.934,2.966.629,2.357-1.272,4.991-3.405,5.894-2.163.915-5.182-.556-6.264-2.857A4.721,4.721,0,0,1,195.217,71.267Zm2.157,6.5c1.035.437,2.09.8,3.168-.035a7.035,7.035,0,0,1-4.508-2.317A1.977,1.977,0,0,0,197.374,77.768Z"/>
    <path d="M33.607,9.434a63.582,63.582,0,0,0-12.234.577c-2.965.55-5.7,1.624-7.342,4.385a8.707,8.707,0,0,0,.766,9.391,18.158,18.158,0,0,0,8.132,5.86c1.744.6,3.46,1.277,5.2,1.876a9.474,9.474,0,0,1,4.441,2.87c.283.346.49.814,1,.361.462-.408.14-.806-.141-1.132A8.917,8.917,0,0,0,29.771,31.1c-1.906-.721-3.807-1.456-5.732-2.123a16.04,16.04,0,0,1-7.276-4.833,8.12,8.12,0,0,1-1.66-8.465c.587-1.612,1.89-2.379,3.218-3.184,2.945-1.784,6.261-1.739,9.527-1.949,1.337-.086,2.672-.217,4.01-.271A2.652,2.652,0,0,0,33.607,9.434Z"/>
    <path d="M169.722,71.659a5.048,5.048,0,0,0,2.44,1.357c4.582,1.732,9.413,2.674,13.98,4.478a73.693,73.693,0,0,1,10.23,5.47,15.777,15.777,0,0,0,12.393,1.751,5.045,5.045,0,0,0,3.254-6.137c-.356-1.177-.517-2.469-1.489-3.412-.416-.4-.787-1.1-1.386-.6-.582.479-.06,1.07.309,1.506a6.093,6.093,0,0,1,1.345,4.016,3.818,3.818,0,0,1-2.925,3.705,11.178,11.178,0,0,1-9.214-.828c-4.052-2.164-7.885-4.719-12.178-6.453-4.917-1.987-10.071-3.166-15.125-4.683A9.952,9.952,0,0,0,169.722,71.659Z"/>
    <path d="M76.293,14.541c-.063.767.454.941.824,1.228q2.117,1.646,4.235,3.289a8.945,8.945,0,0,1,3.062,4.653c.523,1.765-.6,3.161-1.6,4.441-1.4,1.8-2.328,3.7-1.745,6.014a8.371,8.371,0,0,0,3.051,4.46c3.115,2.5,6.794,3.885,10.522,5.114,4.225,1.392,8.491,2.659,12.739,3.982,3.636,1.132,7.259,2.311,10.965,3.2.406.1.953.376,1.109-.2.151-.558-.453-.668-.853-.781-3.437-.964-6.883-1.893-10.316-2.868-7.122-2.024-14.32-3.822-20.962-7.248a11.355,11.355,0,0,1-4.962-4.7,4.687,4.687,0,0,1,.049-4.822c.744-1.237,1.585-2.415,2.322-3.656,1.109-1.866.619-3.673-.454-5.33C82.317,18.28,79.3,16.482,76.293,14.541Z"/>
    <path d="M27.733,33a7.711,7.711,0,0,0-2.928-1.349c-3.451-1.3-6.913-2.575-10.4-3.763C10.084,26.421,8.175,22.94,6.82,19c-1.235-3.592,1.5-7.988,5.887-9.832,3.64-1.531,7.508-1.563,11.242-2.41.337-.076.937.172.888-.395-.041-.478-.587-.32-.969-.294A39.047,39.047,0,0,0,11.752,8.475c-4.761,1.922-7.2,6.658-5.99,10.436A16.529,16.529,0,0,0,14.07,29.075a40.352,40.352,0,0,0,12.955,4.113C27.243,33.217,27.492,33.4,27.733,33Z"/>
    <path d="M128.425,40.6c1.565.385,2.9.676,4.219,1.047,2.61.735,5.206,1.525,7.341,3.308,1.239,1.034,1.22,1.336-.293,1.829-2.746.895-5.54.475-8.284-.037A101.062,101.062,0,0,1,119.2,43.732a10.639,10.639,0,0,1-5-3.065,3.172,3.172,0,0,1,.687-4.968,23.045,23.045,0,0,1,7.254-2.821,3.826,3.826,0,0,0,1.495-.641,9.587,9.587,0,0,0-4.7.547,14.6,14.6,0,0,0-5.212,2.446c-1.83,1.5-1.973,3.448-.565,5.357a11.838,11.838,0,0,0,6.349,4.084,87.5,87.5,0,0,0,13.651,3.157c2.56.364,5.181.741,7.66-.558,1.253-.657,1.412-1.244.451-2.309A13.065,13.065,0,0,0,136.4,41.9a26.5,26.5,0,0,0-6.133-1.654A1.886,1.886,0,0,0,128.425,40.6Z"/>
    <path d="M19.1,19.611c1.227,2.758,3.1,3.426,5.1,1.963a3.629,3.629,0,0,0,1.749-3.717c-.321-1.583-1.62-2.332-3.122-2.679-2.609-.6-4.048.057-4.259,1.973A4.286,4.286,0,0,0,19.1,19.611Z"/>
    <path d="M114.372,26.143a15.4,15.4,0,0,0-5.529.4c-2.728.882-5.576,1.621-7.783,3.625-1.694,1.538-2,3.418-1.5,5.653,1.138,5.084,5.019,7.414,9.169,9.536.688.352,1.387.683,2.091,1,.352.16.836.371,1.039-.059.268-.566-.374-.528-.665-.666a26.28,26.28,0,0,1-6.716-3.924,13.06,13.06,0,0,1-3.876-5.658,5.353,5.353,0,0,1,2.936-6.712,24.618,24.618,0,0,1,7.383-1.94A6.528,6.528,0,0,0,114.372,26.143Z"/>
    <path d="M97.543,19.767c-.845,2.651-3.4,3.433-5.221,4.973C88.592,27.9,88,32.825,91.138,36.607c2.515,3.033,5.989,4.608,9.395,6.3.268.133.594.226.772-.093.22-.4-.2-.462-.415-.6-2.293-1.5-4.914-2.447-7.064-4.2C92,36.512,90.447,34.94,90.257,32.351c-.252-3.443,1.223-5.77,4.092-7.489,1.467-.879,2.983-1.818,3.451-3.7C97.917,20.7,98.136,20.264,97.543,19.767Z"/>
    <path d="M150.486,49.156a5.745,5.745,0,0,0-3.193,1.592C144.412,53.14,141,53.381,137.568,53a50.4,50.4,0,0,1-9.872-2.052c-.5-.16-1.182-.447-1.39.213-.191.605.576.715.982.82,5.672,1.469,11.328,3.143,17.3,1.962A10.117,10.117,0,0,0,150.486,49.156Z"/>
    <path d="M159.246,65.639c1.969.259,3.759.593,5.563.712,5.28.347,9.985,2.559,14.79,4.443,3.644,1.429,7.17,3.177,11.028,4.015a3.074,3.074,0,0,0,.567.112c.541.01,1.342.445,1.516-.321.2-.9-.794-.856-1.308-.97a82.834,82.834,0,0,1-10.774-3.422c-3.942-1.457-7.785-3.257-11.952-3.989-2.833-.5-5.72-.693-8.582-1.028C159.829,65.159,159.627,65.244,159.246,65.639Z"/>
    <path d="M125.272,48.777a21.524,21.524,0,0,0-4.424-1.865c-3.136-1.25-6.415-2.219-9.189-4.241a6.756,6.756,0,0,1-1.211-9.948,10.754,10.754,0,0,1,5.193-2.938c.047-.468-.321-.457-.574-.485-2.154-.237-4.9,1.514-5.976,3.378-2.886,4.992-.215,10.17,4.165,12C117.167,46.314,121,48.154,125.272,48.777Z"/>
    <path d="M154.394,61.1c.828.8,1.818.587,2.735.5,1.911-.178,3.809-.528,5.722-.649a27.194,27.194,0,0,1,14.623,3.323c4.107,2.166,8.1,4.567,12.514,6.108.418.146.82.531,1.484.185a6.055,6.055,0,0,0-2.691-1.369c-4.217-1.53-7.988-3.931-11.943-5.961a28,28,0,0,0-19.491-2.682c-.514.115-1.041.177-1.564.249C155.337,60.868,154.82,60.564,154.394,61.1Z"/>
    <path d="M168.909,57.536c-.9-1.094-1.983-1.024-2.913-1.212a26.3,26.3,0,0,0-12.269.364c-4.271,1.155-8.572.475-12.823-.424a3.156,3.156,0,0,0-.837-.214c-.288.026-.742-.3-.863.2s.26.66.677.745c1.083.22,2.155.535,3.249.658a35.827,35.827,0,0,0,12.055-.343,26.98,26.98,0,0,1,10.6-.184C166.725,57.288,167.681,57.379,168.909,57.536Z"/>
    <path d="M195.753,66.439a3.705,3.705,0,0,0,2.927,1.128,11.548,11.548,0,0,1,7.01,3.034c.5.455,1.335,1.433,1.849.857.562-.63-.538-1.275-1.008-1.81a8.835,8.835,0,0,0-5.546-2.82A21.906,21.906,0,0,0,195.753,66.439Z"/>
    <path d="M20.516,99.1c1.432-.343,2.948-.314,4.418-.519a7.852,7.852,0,0,0,3.256-.644c.863-.489,2.045.887,3.2,1.187,3.856,1,7.8.715,11.645.39,8.415-.71,16.8-1.756,25.219-2.487,6.82-.593,13.613-1.484,20.417-2.25,3.453-.389,6.935-.464,10.371-1.02,1.819-.294,3.631-.509,5.123-1.8a1.744,1.744,0,0,0,.695-1.755,6.466,6.466,0,0,0-3.973-4.815,7.6,7.6,0,0,1-2.258-1.282c-.249-.253-.954-.427-.527-.984a.885.885,0,0,1,1.2-.067c2.328,1.464,4.746,2.829,6.288,5.236,1.979,3.089,1.394,4.96-1.936,6.385a23.129,23.129,0,0,1-4.2,1.124c-4.413.976-8.933.717-13.39,1.2-4.6.5-9.219.809-13.821,1.355-8.238.977-16.393,2.7-24.734,2.8-2.036.022-4.069.264-6.1.405,12.662.793,25.1-2.257,37.74-1.854-8.418.573-16.719,2.031-25.072,3.073s-16.853.269-25.184,1.838c3.875.679,7.822.389,11.729.793a.564.564,0,0,1-.567.518,34.5,34.5,0,0,1-14.545-1.171A15.066,15.066,0,0,1,16.49,83.879c.2-.42.465-1.034.959-.873.726.236.19.8.053,1.209A31.74,31.74,0,0,0,15.791,89.6c-.442,3.024,1.49,5.191,2.606,7.657.171.378.46.172.738.128,2.362-.375,4.731-.713,7.089-1.111.438-.074,1.11.019.976-.89-.141-.956-.743-.386-1.09-.384-1.256.006-2.5.494-3.983.1,1.591-.951,3.273-.631,4.744-1.182.625-.234.649-.171.839-1.112-3.418.28-6.8.876-10.348.829a1.2,1.2,0,0,1,1.143-.534c2.005-.168,4.025-.269,6.007-.591,2.152-.351,4.74.081,5.7-2.7-2.836.125-5.762.249-8.687.388-.526.026-1.244.2-1.331-.45-.1-.738.764-.677,1.2-.722,1.722-.175,3.458-.2,5.184-.339,2.056-.172,4.163.094,6.167-.433,3.232-.849,6.493-1.528,9.785-2.069a95.942,95.942,0,0,0,9.852-1.633c-3.925.176-7.838.459-11.749.753-6.455.485-12.907.988-19.364,1.442-.4.028-1.177.3-1.236-.283-.082-.811.783-.543,1.23-.6,5.238-.659,10.5-1.034,15.764-1.486,9.411-.808,18.81-1.818,28.244-2.253,9.558-.44,19.147.206,28.7-.648.645-.057,1.847-.51,1.9.556.047,1.013-1.21.743-1.88.816-3.975.433-7.968.7-11.941,1.15-10.038,1.138-20.061,2.41-30.1,3.5-5.953.646-11.909,1.261-17.806,2.3-2.6.457-4.872,1.529-5.482,4.533-.106.523-1,.948-.561,1.5,1.047,1.339-.273,1.08-.77,1.152-2.7.391-5.412.706-8.249,1.063C19.357,98.878,19.52,99.336,20.516,99.1Zm5.951,4.113c3.906-.539,7.848-.813,11.775-1.2a4.163,4.163,0,0,0,.621-.171c-2.363-.679-12.965-.513-15.769.24A4.177,4.177,0,0,0,26.467,103.211Zm-.232-3.906c-1.923.277-3.859.46-5.985.707.484.571.842,1.092,1.451,1,2.93-.453,5.9-.271,8.855-.53C29.345,99.036,27.835,99.075,26.235,99.305Z"/>
    <path d="M91.424,78.918c-.347-.9-1.052-.679-1.54-.684-4.947-.059-9.888-.1-14.839.22-6.855.444-13.733.5-20.584,1.057Q40.709,80.63,26.963,81.8a24.106,24.106,0,0,0-4.875.943C45.166,81.119,68.206,79.094,91.424,78.918Z"/>
    <path d="M95.9,88.667c-1.677.575-2.905.576-5.415,0a3.9,3.9,0,0,1,.372-.546c.289-.3.8-.477.709-1-.062-.354-.444-.322-.723-.326-.594-.009-1.376.005-1.447.675-.157,1.491-.971.751-1.85.645.4-.327.753-.493.9-.769.234-.433,1.161-.351.917-.94-.264-.639-.955-.158-1.427-.105a2.241,2.241,0,0,0-1.88.941c-.383.813-.948.392-1.619.691.288-.873,1.059-1.11,1.193-1.763-1.674-.837-2.685-.473-3.375,1.319-.188.488-.447.383-.776.372a3.407,3.407,0,0,0-1.566.308c-.079-.423.247-.588.435-.829.176-.224.346-.454.609-.8A2.474,2.474,0,0,0,77.97,87.9a1.633,1.633,0,0,1-1.547,1.134l1.168-2.355c-2.08.272-2.93,1.13-2.883,2.947.015.563-.574.427-.708.772s-.855.394-.568.861c.277.451.772.194,1.169.014a20.058,20.058,0,0,1,3.528-1.339,21.309,21.309,0,0,1,9.789-.549c.509.112.7.191.826.895.167.916,1.258,1.065,2.215.879.007-.653-.775-.637-.791-1.206a2.661,2.661,0,0,1,1.389-.011c.429.026.865-.044.52.666-.189.388.206.6.58.619a.511.511,0,0,0,.627-.421c.2-.817.8-1,1.389-.391.234.239.61.713.709.466.564-1.411,2.13-1.068,2.995-1.86.365-.335.9-1.007.781-1.242-.274-.553-.993-.405-1.549-.29a7.191,7.191,0,0,0-1.08.4A.965.965,0,0,1,95.9,88.667Z"/>
    <path d="M65.121,87.416a7.563,7.563,0,0,1,4.833,1.25,3.734,3.734,0,0,1,1.518,4.292c-.935,2.7-7.69,3.65-9.12,1.306-.2-.329-.439-.633-.506-.729C60.46,90.472,62.071,87.7,65.121,87.416Zm4.735,4.156c-.013-1.1-.819-1.666-1.823-2a8.448,8.448,0,0,0-2.42-.326.968.968,0,0,0-1.006.605c-.665,1.223-1.283,2.459-.395,3.794.5.748,2.644.816,3.964.238A2.4,2.4,0,0,0,69.856,91.572Z"/>
    <path d="M33.805,96.508c1.367.4,2.246.979,3.346-.095.595-.581,1.518.55,2.425.333-.152.574-1.271.592-.651,1.26.493.531,1.643.549,1.8-.012.462-1.618,1.65-.93,2.575-1.1.142-.026.282-.06.414-.088.38.455-.658.8-.08,1.246a.6.6,0,0,0,.684-.012c.216-.111.535-.277.384-.516-.764-1.2.317-1.034.874-1.171,1.394-.344,2.43-1.407,3.77-1.846.551.64-.684,1.915.648,2.117.722.109,1.289-.628,1.447-1.41.193-.952-.445-1.237-1.307-1.387,2.887-1.468,5.763-2.383,8.957-1.344.493.161,1.275.591,1.454-.28.159-.777-.63-1.029-1.242-1.121a14,14,0,0,0-9.779,2.082c-3.879,2.381-8.041,4.14-12.708,1.838-.208-.1-1.327-1.356-1.153.432C35.69,95.684,34.663,96.032,33.805,96.508Z"/>
    <path d="M131.634,84.032a43.782,43.782,0,0,0,10.2-1.837C138.28,81.9,134.991,83.173,131.634,84.032Z"/>
    <path d="M139.5,91.215a56.489,56.489,0,0,0,11.053-1.23A36.092,36.092,0,0,0,139.5,91.215Z"/>
    <path d="M47.163,90.863c-.258.152-.709.151-.5.665.317.789,2.2,1.7,2.834,1.317a.993.993,0,0,0,.5-1.345C49.631,90.676,48.27,90.37,47.163,90.863Z"/>
    <path d="M32.373,93.685c.472.854,1.137,1.392,2.132,1.057a.809.809,0,0,0,.433-1.207c-.49-1.028-1.378-.9-2.246-.725C32.185,92.914,32.139,93.271,32.373,93.685Z"/>
    <path d="M80.433,92.632a7.037,7.037,0,0,0-3.055-2.014.644.644,0,0,0-.931.4.667.667,0,0,0,.377.944A6.78,6.78,0,0,0,80.433,92.632Z"/>
    <path d="M38.849,93.5c.321,1.155.692,2.159,2.044,2.113a.777.777,0,0,0,.693-1.063C41.112,93.232,39.983,93.452,38.849,93.5Z"/>
    <path d="M37.8,94.473c.391-.3.576-.657.274-1.119a1.717,1.717,0,0,0-1.991-.8c-.567.148-.4.59-.171.921C36.359,94.122,36.856,94.73,37.8,94.473Z"/>
    <path d="M44.046,94.927c.384-.337.617-.714.288-1.141a1.9,1.9,0,0,0-2.317-.523c-.425.14-.312.456-.143.674A2.177,2.177,0,0,0,44.046,94.927Z"/>
    <path d="M46.628,93.958c.439-.31.739-.675.454-1.127-.538-.855-1.364-.759-2.173-.481-.275.095-.744.223-.363.692A2.164,2.164,0,0,0,46.628,93.958Z"/>
    <path d="M82.344,91.327a3.366,3.366,0,0,0-1.779-1.43c-.423-.2-.911-.239-1.11.282-.228.6.213.9.711,1.043A4.951,4.951,0,0,0,82.344,91.327Z"/>
    <path d="M92.718,87.227c-.544.216-.879.542-.632,1.111a.63.63,0,0,0,.973.236c.506-.294,1.3-.63,1.07-1.265C93.951,86.811,93.184,87.273,92.718,87.227Z"/>
    <path d="M95.9,88.667a.965.965,0,0,0,.631-.775c.209-.778-.313-.811-.822-.745-.372.049-.787.173-.855.649C94.734,88.631,95.438,88.51,95.9,88.667Z"/>
    <path d="M46.987,96.205c-.339.229-.643.571-.413,1.046s.579.113.866.009c.381-.137.757-.365.576-.831C47.844,95.984,47.442,95.978,46.987,96.205Z"/>
    <path d="M83.176,90.308a1.633,1.633,0,0,0,1.358.532c.275-.033.308-.391.08-.556-.411-.3-.5-1.191-1.31-.774C83.007,89.663,82.964,89.953,83.176,90.308Z"/>
    <path d="M221.1,60.29c7.609-.815,14.8-3.7,22.739-4.075a2.794,2.794,0,0,0-2.215-.517c-4.536.278-8.884,1.532-13.276,2.552a44.9,44.9,0,0,1-5.923,1.263A1.665,1.665,0,0,0,221.1,60.29Z"/>
    <path d="M253.784,60.91a3.325,3.325,0,0,0-2.284-.948,32.76,32.76,0,0,0-10.217-.315,5.178,5.178,0,0,0-.982.2c-.33.109-.652.3-.525.73.116.391.423.465.81.4.762-.119,1.525-.248,2.293-.3a30.426,30.426,0,0,1,9.215.42C252.6,61.235,253.225,61.568,253.784,60.91Z"/>
    <path d="M249.86,58.324c-.087-.7-.492-.765-.868-.833a22.857,22.857,0,0,0-9.455-.072,4.1,4.1,0,0,0-1.065.435.683.683,0,0,0-.309.881c.137.3.465.23.768.147C242.508,57.891,246.152,58.055,249.86,58.324Z"/>
  </g>
</svg>
