<svg xmlns="http://www.w3.org/2000/svg" viewBox="0 0 162.525 277.408">
  <g>
    <path d="M90.939,136.323a3.435,3.435,0,0,0-2.882-1.376c-1.81.19-2.273.8-2.526,2.564a42.3,42.3,0,0,1-4.067,13.726,4.418,4.418,0,0,1-.7.886,1.825,1.825,0,0,1-2.1.764,2.07,2.07,0,0,1-1.344-1.954,18.6,18.6,0,0,1,3.174-12.07,17.28,17.28,0,0,1,1.97-2.581c.635-.686.435-1.148-.16-1.627a2.174,2.174,0,0,0-2.263-.437,6.312,6.312,0,0,0-3.825,4.073c-.846,3.326-1.553,6.689-3.13,9.777a4.337,4.337,0,0,1-1.417,1.9,1.625,1.625,0,0,1-2.549-1.17,4.936,4.936,0,0,1,.65-3.135c1.689-3.1,2.982-6.413,5.029-9.326a1.745,1.745,0,0,0-.232-2.312c-.67-.766-1.258-.313-1.86.037a4.4,4.4,0,0,0-2.217,2.915c-.8,3.248-1.727,6.462-4.039,9.054-.531.595-1.015,1.124-1.907.763-.911-.367-.87-1.137-.813-1.9a5.966,5.966,0,0,1,.709-2.281,46.549,46.549,0,0,1,4.486-7.191c.451-.583.805-1.24.271-1.736-.5-.467-1.167.046-1.61.446a8.685,8.685,0,0,0-3.012,4.156,23,23,0,0,1-2.337,4.975,4.892,4.892,0,0,1-.621.768,1.361,1.361,0,0,1-1.987.38,1.325,1.325,0,0,1-.224-1.9,29.681,29.681,0,0,1,3.01-4.615,8.394,8.394,0,0,0,1.683-4.842,37.382,37.382,0,0,0-3.188,3.671,33.266,33.266,0,0,1-6.891,7.572c-5.6,4.472-10.408,9.592-13.682,16.089-3.921,7.779-8.06,15.457-11.225,23.582-1.29,3.312-3.1,6.388-4.069,9.848a98.823,98.823,0,0,0-3.593,17.5c-.367,3.98-.715,7.981-1.453,11.9A99.821,99.821,0,0,1,18,233.287a28.17,28.17,0,0,1-2.718,5.524c-2.056,3.661-3.8,7.518-6.568,10.745-.122.142-.2.322-.335.449-1.275,1.228-2.682,2.642-4.539,1.978-2.21-.791-3.244-2.7-3.656-5.07-.473-2.72.106-5.337.359-7.989A118.229,118.229,0,0,1,3.08,224.246a137.384,137.384,0,0,1,3.768-14.252c1.341-3.937,2.4-7.983,3.735-11.9a120.866,120.866,0,0,1,4.994-12.684c2.842-6,5.489-12.1,8.261-18.255-1.965.163-3.768.345-5.566.654-3.848.663-8.544-2.179-9.381-5.754-.521-2.229.079-4.468.4-6.687a16.446,16.446,0,0,1,2.636-7.034c.59-.863,1.206-1.7,2.281-1.64,1.155.066,1.788,1.033,2.138,2.028A69.632,69.632,0,0,0,19.2,156.2a10.108,10.108,0,0,0,5.919,5.29c1.151.412,1.811.284,2.423-1,1.683-3.546,4.032-6.74,5.84-10.216,3.269-6.284,6.568-12.559,10.173-18.645,3.183-5.373,5.954-10.924,8.719-16.508A45.349,45.349,0,0,1,65.085,99.828c2.492-1.984,5.364-3.328,7.865-5.259a11.055,11.055,0,0,0,4.234-6.436,14.426,14.426,0,0,1,3.64-6.6c.583-.612.548-.9.078-1.572A85.633,85.633,0,0,0,69.118,66.833a29.02,29.02,0,0,1-3.987-5.283,4.221,4.221,0,0,1-.39-2.875c.707-5.649,2.228-11.12,3.529-16.641,2.476-10.512,5.5-20.873,8.516-31.236a33.775,33.775,0,0,1,3.658-8.316C81.2,1.253,82.031.24,83.736.371A15.414,15.414,0,0,0,86.67.038c.981-.117,1.807-.031,1.819,1.278,0,.232.252.462.5.888A3.46,3.46,0,0,1,90.254.529a1.856,1.856,0,0,1,1.9-.135c1.134.546.146,1.771.6,2.6.424-.025.418-.367.5-.7.434-1.7.442-1.7,2.244-1.22,1.02.271,2.2.258,2.645,1.607.307-.394.238-1.147,1.113-.791.807.328,1.832.185,2.573.593,1.58.869,3.353.734,5,1.194,1.393.387,1.972.907,1.5,2.339a4.334,4.334,0,0,0-.077,1.092c.278.046.244-.111.273-.22.74-2.781,1.082-3.145,3.568-1.861a6.408,6.408,0,0,0,2.9.792,2.74,2.74,0,0,1,2.863,2.557c.408-1.334,1.154-1.4,2.095-.975.761.343,1.735.227,2.25,1.117a.528.528,0,0,0,.734.215,1.812,1.812,0,0,1,1.743.044,23.453,23.453,0,0,1,2.393.813c1.118.56-.412,1.548.313,2.235.034,0,.181.022.2-.017.887-1.773.906-1.822,2.762-1.031.9.383,2.211.2,2.5,1.587.013.062.114.247.312.08,1.417-1.2,2.58.291,3.878.393.346.027.292.45.445.615.331.355.36,1.616,1.384.446.682-.78,1.666-.05,2.489.2.747.225.382.84.4,1.313.009.229,0,.459,0,1.09,1.4-2.506,2.924-.772,4.15-.381,1.643.523-.543,1.866.2,2.831.88-.546.422-2.43,2.131-2.151,1.9.309,2.96,1.205,2.383,3.53.766-1.3,1.052-2.594,3.022-1.75,2.352,1.006.274,2.385.642,3.573.657-.266.583-.937.87-1.358.314-.46.51-1.163,1.175-.878.741.318,1.824.38,1.864,1.569.01.278-.13.635.146.785.448.243.5-.438.667-.442a2.81,2.81,0,0,1,2.27.744c1.185,1.246,1.118,2.813,1.213,4.361.34,5.506-2.184,10.288-3.879,15.266a178.317,178.317,0,0,0-6.159,22.848c-.895,4.51-2.078,8.937-5.219,12.539a12.978,12.978,0,0,1-5.389,3.913c-5.6,2.041-10.5,5.376-15.5,8.549-1.666,1.059-2.227,2.054-1.733,3.978a8.363,8.363,0,0,1-.268,4.473c-.383,1.236-1.613,1.893-2.265,2.841,3.34,4.891,7.2,9.466,9.683,15,1.557,3.468,3.326,6.846,4.762,10.371a38.3,38.3,0,0,1,2.324,9.376,150.957,150.957,0,0,1,.813,24.422q-.191,6.956-1.026,13.9c-.362,2.979-.425,6-.631,8.993a2.98,2.98,0,0,0,.685,2.1c.788,1,1.571,2.01,2.449,2.927a2.755,2.755,0,0,0,3.91.459,11.019,11.019,0,0,0,3.754-4.138c.617-1.053,1.24-2.111,1.75-3.218,1.381-3,4.123-4.414,6.778-5.922a1.689,1.689,0,0,1,2.519.735c1.534,2.994,2.57,5.481-.265,9.107q-1.961,2.508-3.826,5.089a10.643,10.643,0,0,0-2.122,6.126c-.038,2.485-.5,4.969-.066,7.459a1.389,1.389,0,0,1-.576,1.618c-.707.4-1.262-.071-1.79-.448-1.531-1.095-2.052-2.882-2.963-4.4-.311-.519-.538-1.088-.833-1.618-1.041-1.874-2.791-2.42-4.9-2.063-3.573.6-3.922,3.384-4.473,6.087a49.7,49.7,0,0,0-.388,13.9c.525,6.763.82,13.551-.188,20.318-.805,5.4-1.329,10.86-2.374,16.215a44.849,44.849,0,0,1-3.795,11.822c-1.182,2.328-1.925,4.853-3.158,7.169a16.756,16.756,0,0,1-2.578,3.688,2.522,2.522,0,0,1-4.377-.648,34.761,34.761,0,0,1-3.924-14.4c-.1-2.24-.582-4.61.72-6.424,1.695-2.365,1.65-5.2,2.825-7.666a39.3,39.3,0,0,0,2.588-8.092c1.472-6.3,2.978-12.588,4.093-18.955.673-3.842.615-7.785,1.019-11.664.692-6.642.462-13.286.384-19.932-.049-4.1-.219-8.2-.377-12.3a36.277,36.277,0,0,0-3.4-13.018,101.676,101.676,0,0,1-4.182-11.768,14.7,14.7,0,0,1-.192-2.809c-.033-.316.346-.844-.263-.921a.789.789,0,0,0-.883.726c-.254,1.194-.563,2.377-.843,3.565a8.838,8.838,0,0,1-1.091,3.031c-.453.67-.974,1.323-1.937,1.13a1.841,1.841,0,0,1-1.431-1.876c-.154-2.754.18-5.39,2.516-7.317a2.381,2.381,0,0,0,.241-3.065.806.806,0,0,0-1.139-.085c-.615.366-1.287.559-1.221,1.617a18.469,18.469,0,0,1-2.487,10.434,3.244,3.244,0,0,1-.308.475c-.694.84-1.379,1.806-2.66,1.469-1.343-.353-1.5-1.534-1.6-2.688-.335-3.859,1.53-6.9,3.667-9.839.534-.734,1.372-1.329.553-2.423a3.3,3.3,0,0,0-3.488-1.571,1.129,1.129,0,0,0-.988,1.4c.4,4.345-1.107,8.355-2.26,12.421a3.887,3.887,0,0,1-1.184,2.06,2.379,2.379,0,0,1-2.282.763,2.316,2.316,0,0,1-1.623-1.928,12.938,12.938,0,0,1,.416-6.849,19,19,0,0,1,3.969-7.112c.707-.752.483-1.167-.161-1.669a3.508,3.508,0,0,0-3.1-.5c-.8.173-.565.78-.505,1.24a19.521,19.521,0,0,1-1.792,10.88,12.656,12.656,0,0,1-2.439,3.623,2.749,2.749,0,0,1-3.155.961,2.839,2.839,0,0,1-1.751-2.809,10.844,10.844,0,0,1,.692-4.734c1.371-3.259,2.744-6.543,5.132-9.234a1.113,1.113,0,0,0,.139-1.5,2.594,2.594,0,0,0-2.957-1.405c-1.3.259-1.527,1.111-1.626,2.362-.385,4.873-.572,9.821-3.313,14.153a7.239,7.239,0,0,1-2.057,2.309,2.1,2.1,0,0,1-3.413-1.46,11.732,11.732,0,0,1,.32-4.633,27.723,27.723,0,0,1,4.834-11.508c.518-.692,1.474-1,1.664-1.956,1.3,3.056.544,6.195.22,9.653,1.311-2.6,1.173-7.964.362-10.084-.078-.2-.249-.346-.4-.166C90.978,135.834,90.989,136.1,90.939,136.323Zm-72.106,30.2c1.925-.681,3.793-.114,5.569-.607.5-.138.984-.444,1.4.111s.135,1.04-.175,1.549c-.943,1.554-1.928,3.089-2.764,4.7a197.608,197.608,0,0,0-10.694,25.174c-2.225,6.295-4.685,12.492-6.01,19.1-.909,4.527-2.316,8.962-3.245,13.5a69.383,69.383,0,0,0-1.644,10.831c-.1,2.242-.473,4.4.165,6.657,1.146,4.052,3.635,3.956,6.029,1.637.168-.163.3-.367.461-.536a40.606,40.606,0,0,0,5.234-7.46c1.4-2.291,2.887-4.59,3.476-7.282a97.646,97.646,0,0,0,1.907-10.947c.4-3.881,1.544-7.651,1.633-11.576a23.335,23.335,0,0,1,.352-3.938,117.633,117.633,0,0,1,5.282-19.345c1.837-4.822,4.322-9.365,6.226-14.145a84.117,84.117,0,0,1,9.649-17.731,55.381,55.381,0,0,1,11.884-12.742c3.522-2.615,6.016-5.888,6.585-10.538.334-2.729.893-5.465,1.387-8.188a12.842,12.842,0,0,1,5.072-7.854c3.881-3.071,7.722-6.127,12.48-7.78,1.83-.636,3.809-.652,5.591-1.372a44.722,44.722,0,0,1,9.666-2.421c4.075-.661,8.258-.584,12.36-1.217,4.48-.691,9.041-.736,13.278-2.868,2.786-1.4,4.214-2.661,3.845-6.182-.288-2.754-.538-5.587-2.621-7.681a31.916,31.916,0,0,1-4.127-5.517,7.358,7.358,0,0,1-1.208-3.993c-.036-3.7,1.416-6.8,3.494-9.747a5.493,5.493,0,0,1,3.481-2c-1.161,3.5-1.9,7.04-3.377,10.353.114-2.717,1.164-5.256,1.573-8.131-1.738,1.624-2,3.674-2.578,5.575a4.722,4.722,0,0,1-.771,2.047c-.614.642-.673.588.107,1.045a19.169,19.169,0,0,0,5.772,2.072c3.892.839,7.728,1.922,11.787.953,1.211-.289,1.863-.663,2.147-1.978a38.359,38.359,0,0,1,1.587-4.489c.09-.256.629-.564.143-.8-.519-.256-.527.366-.639.636-.427,1.031-.764,2.1-1.2,3.128-.136.319-.065.9-.7.864a2.035,2.035,0,0,1,.074-1.382,23.539,23.539,0,0,0,.913-3.093c.092-.48.805-1.3-.192-1.507-.56-.114-.41.762-.54,1.166a26.885,26.885,0,0,1-2.129,5.381c-.217-2.662,1.225-5.08,1.151-7.7-1.146,3.236-1.93,6.571-3.3,9.844a1.181,1.181,0,0,1-.194-1.307q1.09-4.29,2.153-8.587c.089-.359.513-.811-.182-1.019-.773-.232-.259.6-.623.811-.243.142-.246.675-.379,1.023-.635,1.66-1.277,3.316-2.017,5.235a2.744,2.744,0,0,1-.136-2.008c.487-1.611,1.073-3.192,1.549-4.806.112-.383.684-.965-.16-1.264-.916-.325-.71.574-.859.915a33.674,33.674,0,0,1-2.241,5.081,5.275,5.275,0,0,1,.078-2.223c.387-1.253.681-2.539,1.14-3.765.367-.98-.3-1.14-.9-1.393-.837-.353-.653.429-.782.778-.39,1.055-.688,2.145-1.092,3.194-.862,2.239-1.769,4.46-2.788,7.016a2.16,2.16,0,0,1-.092-1.661c.829-2.779,1.825-5.51,2.439-8.352.114-.531.722-1.213-.272-1.47-.777-.2-1.583-.443-2.023.727a47.649,47.649,0,0,1-2.056,4.454c-.2.4-.206,1.044-1.066,1.094.434-2.193,1.314-4.159,1.852-6.218.23-.88.543-1.144,1.4-1.112a17.463,17.463,0,0,1,9.124,2.7,70.894,70.894,0,0,1,7.964,6.257,4.734,4.734,0,0,1,1.366,1.6c.113.259.036.788-.077.724-1.07-.6-1.257.781-1.937.9-.521-.781.368-1.463.013-2.272-.89.652-.625,1.905-1.519,2.577-.263-1.168.412-2.069.524-3.064.036-.315.255-.614-.181-.809-.574-.255-.5.346-.583.531C139.4,76,138.7,77.633,138.081,79.3a1.343,1.343,0,0,1-1.254,1.023c-1.89.311-3.763.733-5.672.944a21.315,21.315,0,0,1-8.918-.817,21.719,21.719,0,0,0-4.976-1.284,18.942,18.942,0,0,0,3.572,6.454c1.158,1.408,2.47,2.709,2.784,4.538,6.361-3.459,12.409-7.332,18.935-10.351a8.944,8.944,0,0,0,4.417-3.771A28.058,28.058,0,0,0,148.513,72c1.839-5.211,2.851-10.644,4.287-15.962,1.021-3.785,2.541-7.422,3.537-11.225.287-1.1-.466-1.189-1.082-1.429-.937-.364-.645.519-.765.879-.308.918-.189,2.2-1,2.675a10.831,10.831,0,0,1-4.309,1.594,28.666,28.666,0,0,1-13.123-1.582,11.536,11.536,0,0,1-7.282-6.9,2.635,2.635,0,0,0-1.342-1.481,26.607,26.607,0,0,0-5.684-2.446c-3.5-.951-6.877-2.38-10.564-2.707a34.538,34.538,0,0,1-7.041-1.035,1.285,1.285,0,0,0-1.188.258c-.708.542-1.515.953-2.233,1.484-5.282,3.905-10.692,3.254-16.157.467C83.6,34.1,82.733,33.4,81.74,33c-2.167-.888-3.5-2.611-4.808-4.41-1.177-1.618-2.09-3.195-.652-5.159.51-.7.481-1.724,1.212-2.375.7,1.989-1.714,3.88.006,6,.374-1.272.692-2.343,1-3.416.257-.888.942-2,.633-2.6-.291-.569-1.65-.549-2.5-.89-.787-.317-1.1-.266-1.315.692-1.3,5.837-3.11,11.546-4.438,17.384-1.612,7.09-3.1,14.194-4.112,21.4a5.078,5.078,0,0,0,1.16,3.938,37.214,37.214,0,0,0,5.178,5.406A24.216,24.216,0,0,1,78.1,74.322a2.2,2.2,0,0,0,1.656,1.1,13.372,13.372,0,0,0,8.861-1.8c.62-.366,1.695-.767,1.593-1.436-.112-.737-1.253-.559-1.936-.683-5.616-1.018-11.131-2.247-15.72-5.982a29.3,29.3,0,0,1-3.87-3.042c-.257-.292-.561-.613-.358-.993s.552-.145.855-.013c.393.173.636.143.833-.373.616-1.619,1.325-3.2,1.994-4.8.095-.226.411-.53-.052-.652-.272-.072-.673-.194-.84.25-.132.351-.242.711-.4,1.051a10.163,10.163,0,0,1-1.708,3.14,6.278,6.278,0,0,1,.8-2.93c.325-.779.469-1.334-.657-1.435a2.6,2.6,0,0,1,1.156-.765c1.865-.905,3.864-.643,5.828-.8A27.945,27.945,0,0,1,88.955,55.9c2.072.825,2.331,1.269,1.746,3.483a56.438,56.438,0,0,1-3.145,8.093c-.136.311-.268.606-.831.553.221-.813.4-1.617.658-2.391q1.262-3.726,2.26-7.53c.084-.319.138-.549-.187-.687-.307-.131-.414.1-.461.347-.448,2.337-1.773,4.325-2.6,6.512a4.636,4.636,0,0,1-1.337,2.394,4.03,4.03,0,0,1,.316-2.432c.713-2.178,1.461-4.345,2.143-6.533.108-.347.447-.94-.067-1.14-.729-.284-.481.531-.607.815-1.385,3.116-2.69,6.268-4.073,9.384-.338.76-.271,1.171.533,1.479,2.219.849,4.4,1.787,6.637,2.594a2.1,2.1,0,0,0,2.969-1.861c.193-1.242.2-2.512.313-4.017-1.105,1.351-1.156,3.052-2.532,4.318a11.715,11.715,0,0,1,1.659-5.8,3.329,3.329,0,0,0,.374-3.007,1.046,1.046,0,0,1,.427-1.256c.51-.33.663.314.888.6a12.622,12.622,0,0,1,2.521,10.243c-.515,3.079-1.615,6.023-4.89,7.383a30.254,30.254,0,0,1-3.944,1.478c-4.507,1.18-7.6,3.817-8.878,8.483-.623,2.276-1.37,4.538-3.29,6.248-2.851,2.54-5.909,4.815-8.9,7.172-4.243,3.348-8.188,6.939-10.806,11.736-2.287,4.19-4.528,8.4-6.995,12.491-3.457,5.727-7.041,11.384-9.826,17.487a95.235,95.235,0,0,1-4.369,8.476c-2.124,3.638-4.267,7.265-6.346,10.928-1.27,2.238-2.052,2.633-4.37,1.37a13.071,13.071,0,0,1-6.982-8.947c-.206-.963-.349-1.942-.585-2.9a5.724,5.724,0,0,0-1.6-2.909.852.852,0,0,0-1.156-.108c-.339.277.068.574.186.856a10.826,10.826,0,0,1,1.083,3.924c.047,3.26,1.595,5.695,3.857,7.824.206.194.608.362.343.81-.542.067-.83-.392-1.18-.64-.436-.311-.681-.292-1.044.083-1.151,1.186-2.34,2.335-3.5,3.507-.184.186-.528.405-.285.689.256.3.58.187.842-.114.711-.818,1.424-1.636,2.163-2.429.412-.443.831-.953,1.576-.646-.047.64-.548.938-.956,1.316-.69.638-1.371,1.289-2.023,1.966-.126.132-.569.34-.095.63.249.153.482.338.737.039.183-.214.347-.446.515-.672.506-.678.991-1.373,1.521-2.031.262-.324.651-.752,1.064-.455.545.391-.076.745-.266,1.031-.309.467-.808.81-1.107,1.281-.207.327-1.031.523-.489,1.072.508.514,1.073.163,1.448-.3.44-.549.741-1.216,1.215-1.728.5-.544.715-1.409,1.812-1.706C20.6,164.268,19.458,165.135,18.833,166.519Zm115.284,53.509a.5.5,0,0,1,.491.516,43.339,43.339,0,0,1,.266,4.655c-.207,4.515-.589,9.021-.806,13.536a57.2,57.2,0,0,1-2.275,14.09,71.057,71.057,0,0,1-9.881,20.549,2,2,0,0,0,.54,2.842c.633.407,1.467.594,1.889-.135,1.48-2.559,3.507-4.784,4.621-7.565,1.852-4.627,3.132-9.447,4.8-14.136,1.043-2.927,1.167-6.021,1.61-9.071.591-4.069.6-8.171,1.21-12.228.545-3.65-.041-7.319-.215-10.983-.248-5.232-.234-10.476-.314-15.716a13.245,13.245,0,0,1,1.826-6.971c2.4-4.109,6.4-4.257,9.015-2.051a10.925,10.925,0,0,1,2.748,4.207,6.751,6.751,0,0,0,1.946,2.708c.243.2.536.3.756.117.119-.1.086-.435.054-.654a24.383,24.383,0,0,1-.764-3.858,21.885,21.885,0,0,1,5.305-13.888,19.126,19.126,0,0,0,1.812-2.318c1.291-2.188.272-4.391.23-6.586a.353.353,0,0,0-.468-.372c-1.207.286-2.571.187-3.442,1.334-1.567,2.066-3.185,4.1-4.677,6.215a27.283,27.283,0,0,1-5.533,5.813,2.32,2.32,0,0,1-2.381.3,8.827,8.827,0,0,1-5.87-9.1c.419-4.253.75-8.515.875-12.794.067-2.294.364-4.583.6-6.87.373-3.573,1.131-7.076.907-10.743-.33-5.4-.4-10.812-1.288-16.154A24.052,24.052,0,0,0,135.3,126.7c-1.792-3.2-3.634-6.386-5.16-9.714a59.041,59.041,0,0,0-6.069-10.5c-.24-.325-.619-1.151-1.1-.29-.33.589-1.875.769-.842,1.886,5.472,5.92,8.728,13.15,11.866,20.4,4.383,10.124,4.021,20.842,3.41,31.55-.016.279-.042.582-.608.636.3-3.225-.232-6.409-.176-9.613.026-1.46.247-2.926.17-4.378a59.076,59.076,0,0,0-3.175-15.96c-2.388-7.032-6.267-13.251-10.49-19.281-.7-1-1.532-1.909-2.3-2.862a.634.634,0,0,0-.991-.109c-.535.47.113.632.313.829,2.7,2.653,4.319,6.022,6.166,9.239.074.129.01.338.01.662a16.977,16.977,0,0,1-2.739-3.722,26.09,26.09,0,0,0-4.533-5.739,1.652,1.652,0,0,0-2.394-.134c2.215,2.1,4.556,4.1,5.678,7.062a48,48,0,0,0-5.835-5.93c-.861-.665-1.622-1.137-2.667-.509,8.6,6.2,14.545,19.686,13.1,24.407a41.848,41.848,0,0,0-1.215-5.377c-2.575-6.956-6.4-13.1-12.3-17.755-1.049-.828-2.122-1.925-3.881-1.293a18.856,18.856,0,0,1,4.525,3.886,25.278,25.278,0,0,0,2.85,3.33,26.463,26.463,0,0,1,6.329,27.087,14.4,14.4,0,0,0-.621,7.208c.794,4.483,2.881,8.511,4.509,12.691,1.62,4.16,2.882,8.338,2.7,12.863a53.542,53.542,0,0,0,.043,5.666A186.073,186.073,0,0,1,130,206.007c-.12,2.02-.116,4.05-.344,6.071-.426,3.771-1.028,7.515-1.533,11.272-.59,4.4-1.584,8.7-2.5,13.029-1.259,5.931-3.638,11.455-5.824,17.058-.727,1.862-1.818,3.685-1.22,5.886,6.965-10.312,9.207-22.221,11.891-33.99.311,2-.287,3.882-.542,5.795-.44,3.3-1.742,6.4-2.381,9.651-1.4,7.151-4.647,13.514-8.362,19.663a3.385,3.385,0,0,0-.5,3.084c3.856-6.248,7.8-12.128,9.184-19.276a2.786,2.786,0,0,1,.147,1.982,49.46,49.46,0,0,1-8.878,18.317,2,2,0,0,0-.267,1.878c4.053-5.826,8.2-11.391,10.716-17.966a27.425,27.425,0,0,1-2.868,8.113,121.028,121.028,0,0,1-6.8,10.612c-.8,1.079-.9,1.232-.105,2.474,1.9-2.49,3.123-5.469,5.55-7.558a66.7,66.7,0,0,1-4.506,7.735c-.848,1.2-.863,2.028-.007,3.029a16.059,16.059,0,0,1,.817-1.417c3.867-5.391,6.442-11.432,8.693-17.607a54.418,54.418,0,0,0,2.616-13.02c.5-4.775,1.109-9.538,1.139-14.349C134.128,224.331,134.117,222.19,134.117,220.028Zm-68.01-86.421c.658-.43,1.211-.776,1.748-1.144a1.413,1.413,0,0,1,1.947.044c.959,1.248,1.679.575,2.571-.008a2.338,2.338,0,0,1,3.609.807c.6,1.266.972.973,1.825.3,2.865-2.241,3.9-2.222,6.773,0,.427.331.678.151.989-.024,2.445-1.375,4.508-.891,6.234,1.264.286.357.594.584,1.085.352,2.833-1.341,4.914-.129,6.645,2.047.379.476.6.642,1.219.422a4.4,4.4,0,0,1,5.483,1.672.708.708,0,0,0,.914.359c2.858-.857,4.52-.249,6.237,2.273.475.7.78.45,1.328.16,2.352-1.246,4.263-.35,4.873,2.234a4.218,4.218,0,0,1,.076.562c.059.591.43.7.963.794.656.112.669-.335.822-.7.4-.951.869-1.88,1.176-2.86a21.861,21.861,0,0,0,1.149-9c-.519-4.635-2.7-8.527-5.576-12.1a86.348,86.348,0,0,0-8.084-9.262c-2.065-1.927-4.586-3.316-6.527-5.4-.43-.462-.939-.257-1.451-.241a73.993,73.993,0,0,0-10.053,1.415c-1.291.219-2.668-.015-3.873.663a14.25,14.25,0,0,1-4.684,1.467,28.726,28.726,0,0,0-16.957,8.974,12.678,12.678,0,0,0-2.586,4.29c-1.164,3.189-1.073,6.595-1.915,10.015,1.179-.819,1.945-2.177,3.446-1.577C66.4,131.762,66.055,132.691,66.107,133.607ZM134.5,30.636l-.44-.1a7.97,7.97,0,0,1,.09-1.664,115.715,115.715,0,0,0,2.5-14.263c.173-1.278-1.115-.879-1.721-1.2-.692-.361-.8.255-.854.832-.429,5-2.127,9.7-3.526,14.471-.095.326-.124.981-.751.811-.468-.127-.358-.629-.322-.98.186-1.821.38-3.641.619-5.455.405-3.076.663-6.188,1.348-9.2.344-1.513-.042-1.974-1.321-2.226a3.178,3.178,0,0,1-.673-.187c-.622-.276-.893.022-.962.59-.375,3.083-1.443,6-2.151,9.005-.481,2.039-1.269,4-1.914,6.006-.141.437-.354.855-.876.689-.483-.154-.325-.7-.223-.975a25.388,25.388,0,0,0,.312-2.655c.943-3.578,2.147-7.094,2.076-10.877-.016-.847.779-2.083.441-2.462-.515-.578-1.693-.565-2.59-.8a.369.369,0,0,0-.136.019c-.568,2.857-5.322,16.165-5.987,16.653-.615-1.936.342-3.681.616-5.478a57.815,57.815,0,0,1,2.714-10.75c.547-1.529-.6-1.383-1.372-1.731-1.171-.527-1.014.558-1.167,1.02-1.086,3.277-2.107,6.576-3.133,9.873-.469,1.508-.895,3.03-1.362,4.539-.077.25-.157.6-.514.587-.251-.011-.485-.259-.369-.492.53-1.067-.041-2.19.236-3.28,1.062-4.178,2.077-8.367,2.96-12.589.18-.864-.263-.856-.745-.964s-1.063-.567-1.307.366c-.862,3.3-1.788,6.592-2.623,9.9-.5,1.994-1.187,3.942-1.516,5.983-.058.363-.249.973-.74.9-.555-.085-.293-.688-.346-1.071-.183-1.3.429-2.474.635-3.714.352-2.124.356-4.328,1.142-6.354.818-2.111.763-4.33,1.044-6.507.134-1.035-.884-.7-1.381-.981-.253-.143-.654-.449-.714.167-.209,2.14-1.538,3.892-2.008,5.951-.613,2.689-1.355,5.348-2.072,8.012a19.054,19.054,0,0,1-.755,2.1c-.118.294-.26.691-.665.616-.481-.09-.238-.531-.262-.82a1.79,1.79,0,0,1,.132-.541c.522-2.034,1.168-4.046,1.538-6.107.611-3.414.692-6.916,1.7-10.344L104.854,4.4c-1.76,5.763-3.5,11.458-5.239,17.153l-.4-.1c-.174-1.2.6-2.277.546-3.475a22.526,22.526,0,0,1,.473-5.06c.508-2.769,1.044-5.536,1.685-8.277.2-.855-.28-1.148-.768-1.07-.63.1-1.47-1.139-1.863.164-1.207,4.01-2.36,8.037-3.51,12.065-.466,1.63-.87,3.278-1.312,4.953a.822.822,0,0,1-.577-1.019c.868-4.939,1.247-9.941,1.931-14.9.108-.782.633-1.733.346-2.281-.322-.614-1.486-.1-2.17-.545-.874,2.753-.738,5.729-2.336,8.155-1.554,2.359-.945,5.455-2.89,7.688C90.342,12.613,89.391,7,91.509,1.784c-.6.208-1.38-.538-1.615.431-.7,2.876-2.215,5.476-2.684,8.445a52.869,52.869,0,0,1-1.641,5.881,2.567,2.567,0,0,1-.105-1.971,10.47,10.47,0,0,0,.614-2.582c.146-3.105.956-6.122,1.12-9.216.021-.4.833-1.206-.248-1.273-.733-.046-1.741-.587-2.123.832-.518,1.924-.521,3.911-.954,5.837a19.206,19.206,0,0,1-2.935,6.1,2.952,2.952,0,0,1-.154-1.4A37.669,37.669,0,0,1,83.3,3.058c.136-.3.528-.741.078-.993a.92.92,0,0,0-1.15.277c-.232.292-.465.585-.674.893C79.164,6.742,78.14,10.784,77.06,14.8c-.348,1.3-1.542,2.932-.758,3.821.8.908,2.643.919,4.043,1.271C85.666,21.228,91.069,22.3,96.3,23.93c7.865,2.45,15.668,5.08,23.71,6.937,4.357,1.006,8.547,2.591,12.79,4,4.317,1.43,8.776,2.426,13.119,3.786a59.219,59.219,0,0,1,9.876,3.837c.321.168.68.666.948.394a2.674,2.674,0,0,0,.531-1.381c.082-.477-.366-.521-.722-.682a74.271,74.271,0,0,0-8.609-2.835c-5.77-1.814-11.542-3.62-17.247-5.637a59.639,59.639,0,0,0-9.406-2.629c-.355-.064-1.157-.074-1.016-.7.148-.661.7-.129,1.05-.06,3.022.594,5.953,1.533,8.905,2.389,4.373,1.268,8.728,2.6,13.1,3.872,4.59,1.339,9.2,2.61,13.775,3.995.908.275.948-.217,1.038-.751.187-1.109.482-2.191.728-3.285.74-3.295,2.387-6.437,1.618-10a2.294,2.294,0,0,0-1.42-1.983c-.85,3.534-2.234,6.867-3.017,10.393-.174.784-.5,2.229-1.582,2.052-.448-.073-.282-1.788.07-2.659,1.263-3.13,1.923-6.429,2.88-9.644.322-1.082-.429-.977-.953-1.277-.779-.445-.854.152-1.046.615a64.6,64.6,0,0,0-3.148,8.544,14.178,14.178,0,0,1-1.728,4.183,7.215,7.215,0,0,1-.037-.869c.489-3.85,1.884-7.531,2.123-11.431a3.8,3.8,0,0,1,.379-1.5c.377-.72.024-.891-.548-1.182-.737-.374-.842.046-1.049.56-1.366,3.39-2.042,7.008-3.439,10.391a12.668,12.668,0,0,1-1.478,2.934c.029-2.345.823-4.154,1.028-6.065.306-2.851,1.711-5.42,2.09-8.276.18-1.352-.816-1.16-1.371-1.489-.791-.47-.763.317-.871.766a19.123,19.123,0,0,1-1.214,3.142c-.686,1.576-1.677,3.109-1.812,4.813-.156,1.98-1.063,3.642-1.677,5.431-.077.223-.286.528-.64.385-.328-.132-.328-.417-.26-.715a25.693,25.693,0,0,0,.634-2.87c.2-1.846,1.479-3.3,1.688-5.174a22.489,22.489,0,0,1,.905-5.7c.534-1.393.193-1.99-1.253-2.293-.33-.069-.564-.13-.726.358-1.163,3.507-1.861,7.157-3.286,10.586-.626,1.5-1.1,3.073-1.705,4.794a1.576,1.576,0,0,1-.213-1.47c.862-2.772,1.216-5.673,2.177-8.421.642-1.838.408-3.817.818-5.7.05-.232.583-.558-.014-.772-.461-.165-.96-.591-1.418-.057a3.369,3.369,0,0,0-.727,1.187c-.806,2.827-1.525,5.679-2.35,8.5C135.765,27.071,135.1,28.845,134.5,30.636ZM95.8,26.172a2.682,2.682,0,0,1,.086,1.9c-.557,2.075-1.06,4.165-1.573,6.252-.072.294-.554.7.136.854.406.089.639-.054.788-.545.854-2.822,1.627-5.669,2.693-8.355C92.2,24.357,86.414,23,80.748,21.235c-.88-.275-1.043-.067-1.137.671a7.7,7.7,0,0,1-.241.942l-1.208,4.733c.951-1.092,1.017-2.584,1.921-3.732.664,1.976-1.76,3.577-.377,5.718,1.27-2.411,1.394-5.006,2.7-7.207a.657.657,0,0,1,.235.787c-.581,2.155-1.105,4.327-1.759,6.459-.246.8.194,1.082.694,1.293.828.349.588-.526.749-.833a8.726,8.726,0,0,1,1.087-2.4,8.15,8.15,0,0,1-.525,3.421c-.127.47-.1.741.306.9.5.2.525-.323.607-.563.348-1.012.577-2.066.95-3.067.547-1.47.632-3.123,1.692-4.406-.135,3.132-1.856,5.967-1.72,9.138,1.173-3.041,1.655-6.291,3.129-9.361a1.636,1.636,0,0,1,.136,1.5c-.634,2.628-1.247,5.261-1.863,7.893-.075.322-.393.614.118.949.806.53,1.085.135,1.267-.566a15.5,15.5,0,0,1,1.775-4.952,1.21,1.21,0,0,1,.146,1.2c-.356,1.444-.7,2.892-1.011,4.347-.058.272-.207.691.3.8.488.1.5-.251.583-.582.255-1.037.508-2.077.815-3.1.389-1.294.418-2.7,1.26-3.867.057,2.662-.827,5.2-.946,7.852,1.045-1.439,1.036-3.322,2.156-5.174.132,2.152-.625,3.719-.924,5.371.655.221,1.094.069,1.272-.654s.359-1.449.6-2.154A51.986,51.986,0,0,1,95.8,26.172Zm35.337,15.673c.725-1.482,1.358-2.995,2.187-4.393.6-1.016.419-1.429-.67-1.725-4.8-1.3-9.484-2.975-14.326-4.152-6.324-1.537-12.594-3.3-18.872-5.018-.641-.175-.876-.05-1,.507-.57,2.512-1.132,5.026-1.771,7.866C99.32,33.6,98.471,30.538,100.268,29c.247,1.478-.548,2.7-.71,4.2,1.806-1.176,1.259-3.571,3.048-5.058-.314,1.431-.542,2.473-.759,3.463,2.376-.738,4.709-.163,6.974.09,2.813.313,5.565,1.114,8.379,1.564a35.168,35.168,0,0,1,11.32,4.031c.788.432,1.356.962,2.147-.091C130.418,38.842,129.628,40.414,131.134,41.845ZM80.655,55.492a63.85,63.85,0,0,0-4.275,8.849c-.183.473-.106.7.307.891,1.485.678,2.989,1.318,4.446,2.051.545.274.762.114.939-.345,1.3-3.355,2.576-6.717,3.895-10.064.173-.44.178-.753-.26-.912-.461-.167-.944-.19-1.156.417-.325.926-.6,1.874-.984,2.774-.231.542-.295,1.246-1.071,1.6-.091-1.557.616-2.841.782-4.216.044-.363.818-.986-.182-1.2-.738-.155-1.024.215-1.257.938-.557,1.733-1.256,3.422-1.934,5.115-.172.429-.187,1.016-.939,1.2C79.223,60.09,80.579,57.935,80.655,55.492ZM73.9,58.9c-.5-1.012.048-1.744.054-2.5,0-.328.568-.755.007-.956-.519-.184-.7.382-.83.765a48.718,48.718,0,0,1-2.362,5.23c-.169.342-.307.664.071.833,1.405.628,2.57,1.678,4.045,2.2.572.2.756.095.919-.364A63.789,63.789,0,0,1,79.382,55.5c-2.913-1.1-2.372,1.94-3.636,2.857-.532-.8.039-1.441.138-2.13.038-.259.606-.674-.036-.877-.517-.163-.6.313-.731.651A10.567,10.567,0,0,1,73.9,58.9Zm67.437-19.442.357.1c-.523,2.1-1.054,4.2-1.565,6.3-.1.42-.429.987.2,1.2s.969-.111,1.16-.823c.533-1.982,1.185-3.933,1.8-5.892.14-.442.249-.732-.391-.93-1.461-.453-2.887-1.019-4.322-1.555-.559-.208-.723.016-.844.549-.432,1.91-.973,3.8-1.357,5.715-.114.568-.639,1.178-.038,2.007.984-1.481,1.225-3.257,2.54-4.678.077,1.713-.79,2.9-1.1,4.238-.051.216-.675.718.109.83.406.057.975.3,1.114-.438a5.052,5.052,0,0,1,.182-.669A48.565,48.565,0,0,1,141.333,39.455ZM13.549,159.236a4.228,4.228,0,0,1,1.144-1.669c.163-.161.363-.356.127-.592-.253-.253-.426,0-.57.158-.7.773-1.38,1.557-2.068,2.337l-.329-.312a5.082,5.082,0,0,1,1.629-2.333c.7-.776,1.32-1.431.438-2.472-.834.826-1.69,1.629-2.494,2.48a4.952,4.952,0,0,0-.591,6.381c.23.367.38.592.82.146,1.255-1.271,2.542-2.513,3.87-3.706.486-.437.222-.716-.006-1.062-.3-.456-.55-.085-.808.065C14.376,158.851,14.25,159.394,13.549,159.236ZM146.97,43.117c.323,1.382-.211,2.37-.406,3.414-.05.27-.578.716.03.908.517.163.592-.411.7-.712.56-1.626,1.041-3.279,1.606-4.9.172-.495-.085-.57-.411-.665a22.938,22.938,0,0,1-3.192-.957c-.905-.417-1.1.057-1.26.683-.543,2.138-1.051,4.284-1.573,6.426,1.225-1.146,1.391-2.987,2.722-4.306a16.491,16.491,0,0,1-.622,3.641c-.039.3-.758.779.052.988.645.165.657-.384.842-.842A14.614,14.614,0,0,1,146.97,43.117Zm-12-3.354a14.445,14.445,0,0,1-.824,4.455c-.128.46-.164.87.366,1.035.64.2.6-.326.714-.721.606-2.052,1.222-4.1,1.868-6.141.211-.667.084-1.072-.622-1.274a8.844,8.844,0,0,1-1.287-.5c-.585-.275-.834-.107-1.03.516a36.205,36.205,0,0,1-1.731,4.858c-.523,1.086-.273,1.641.656,2.158C133.761,42.717,133.9,41.063,134.967,39.763ZM79.421,150.736c2.783-3.467,3.547-7.548,3.777-12.16C80.669,142.473,79.133,146.32,79.421,150.736Zm23.118,4.286a17.9,17.9,0,0,0,2.9-10.973A15.637,15.637,0,0,0,102.539,155.022ZM87.072,152.7a22.749,22.749,0,0,0,3.743-12.013C88.048,144.218,87.762,148.528,87.072,152.7Zm7.4,1.432c2.3-3.241,4.112-6.652,3.685-10.83C96.307,146.7,94.64,150.161,94.471,154.134Zm18.1-6.414c-1.615,1.917-2.772,5.408-2.394,7.222A12.526,12.526,0,0,0,112.567,147.72ZM83.39,143.64c1.642-3.046,1.05-9.029-1.057-10.01C84.633,136.853,83.758,140.264,83.39,143.64ZM16.047,160.584a17,17,0,0,0-4.079,3.359c-.2.2-.427.383-.1.681.253.231.465.279.7-.007C13.687,163.242,15.175,162.193,16.047,160.584Zm94.772-19.728c2.7,1.942,2.641,4.861,2.747,7.718C114.649,145.552,113.321,141.793,110.819,140.856Zm-4.391,3.481a68.333,68.333,0,0,1-1.492,7.836A13.479,13.479,0,0,0,106.428,144.337ZM13.345,152.1c-1.12,1.692-2.98,2.614-3.168,4.707,1.021-1.017,1.847-2.22,2.913-3.148C13.639,153.183,13.645,152.888,13.345,152.1Zm-.984-2.21a5.737,5.737,0,0,0-1.476,3.787C13.5,150.579,13.461,151.33,12.361,149.891ZM150.575,46.538c.784.036.91-.46,1.06-.891.305-.877.6-1.759.84-2.655.052-.194.55-.606-.138-.72-.391-.065-.626-.135-.74.448C151.352,43.978,150.943,45.2,150.575,46.538ZM116.74,142.673a3.333,3.333,0,0,1,1.414,2.2c.067.749-.016,1.511.02,2.265.034.687-.661,1.373-.018,2.119C118.9,146.623,119.253,143.235,116.74,142.673Zm31.928-95.624c.306.062.558.04.591-.256.163-1.459.937-2.731,1.24-4.142.059-.278.651-.667-.021-.9-.535-.189-.64.319-.721.641C149.369,43.934,149.027,45.492,148.668,47.049ZM87.841,152.691l.377.173c.884-1.518,1.949-2.947,2.112-4.817Q89.087,150.369,87.841,152.691Zm11-11.492a4.841,4.841,0,0,0-1.752-5.029A12.355,12.355,0,0,1,98.836,141.2Zm-23.112-6.6c-.255.9-.113,1.82-.308,2.743-.18.847-.711,1.732-.261,2.821A9.344,9.344,0,0,0,75.724,134.6Zm-10.715-.513-1.3,3.885A4.747,4.747,0,0,0,65.009,134.082Zm3.531,5.905a4.216,4.216,0,0,0,1.031-3.777Zm47.628,14.039c1.049-1.072.9-2.086.812-3.394A13.747,13.747,0,0,0,116.168,154.026Z"/>
    <path d="M101.123,55.1c.149-1.108-.272-1.58-1.405-1.806a13.943,13.943,0,0,1-4.469-1.4c1.426-.254,2.755.358,4.135.428.183.009.366.157.541.143.357-.027.892.316.956-.428.053-.609-.292-.629-.769-.7a47.665,47.665,0,0,1-5.867-1.354,3.2,3.2,0,0,1-1.4-.732,9.885,9.885,0,0,1,3.238.475c1.344.188,2.673.487,4.006.75.558.11.91-.051,1.024-.645.087-.457.206-.907.336-1.472a85.018,85.018,0,0,1-13.7-2.366,4.388,4.388,0,0,1,3.366.043c3.4.857,6.9.785,10.325,1.306.79.12.648-.616,1.142-1.05A23.631,23.631,0,0,1,94.6,44.9c.967-.507,1.54.014,2.125.019a9.65,9.65,0,0,1,1.778.354,16.779,16.779,0,0,0,4.229.094c.945-.048,1.14-1.111,2-1.951-3.393.28-6.441.54-9.664-.19a2.11,2.11,0,0,1,1.559-.548c2.832-.049,5.665-.1,8.5-.086a1.984,1.984,0,0,0,1.738-.805c-4.837-.536-9.594.167-14.344-.071A33.535,33.535,0,0,1,82.66,39.8c.2-.473.519-.343.751-.323a3.736,3.736,0,0,1,.654.227c4.779,1.381,9.686,1.1,14.575,1.18,3.239.051,6.491-.364,9.724.283a8.092,8.092,0,0,0,2.355-.34,12.118,12.118,0,0,1,8.772,2.439c2.159,1.537,4.815,2.255,7.277,3.27a68.3,68.3,0,0,0,13.9,3.855,20.735,20.735,0,0,0,7.319.23,3.209,3.209,0,0,1,2.431.252,1.187,1.187,0,0,1-.794.476,34.167,34.167,0,0,1-12.858-.91,90.2,90.2,0,0,1-15.329-5.152c.264.947.283.909,3.579,2.535,1.308.645,2.768,1.031,3.856,2.13-2.306-.272-4.281-1.5-6.514-2.3-.129,1.072.066,1.675,1.214,2.062a41.722,41.722,0,0,1,6.352,2.824c-2.543-.24-4.771-1.446-7.137-2.2-.226,1.5-.218,1.473,1.14,1.876,2.154.641,4.294,1.326,6.444,1.981a.7.7,0,0,1,.536.469,5.855,5.855,0,0,1-3.182-.312c-1.453-.355-2.89-.776-4.325-1.2-.516-.152-.838-.059-.92.5-.053.366-.16.747.444.812,4.016.43,7.747,2.031,11.664,2.879a2.981,2.981,0,0,1,2.2,1,40.242,40.242,0,0,1-5.56-1.254c-2.611-.7-5.2-1.464-7.871-1.95-.815-.148-1.276.011-1.4.967a22.52,22.52,0,0,1,6.857,1.7A9.706,9.706,0,0,1,127.3,57.8c-1.339-.215-2.664-.518-4-.738-1.653-.271-1.781-.172-3.128,2.029a57.254,57.254,0,0,1,8.336,1.182c-1.317.781-2.435.06-3.517.056a18.062,18.062,0,0,1-3.339-.472c-1.86-.36-3.206.689-4.646,1.536,8.731-1.35,16.256,1.938,23.6,5.948.653.357,1.271.78,1.9,1.186.04.026,0,.169,0,.308-.626.147-1.061-.3-1.489-.564a47.122,47.122,0,0,0-17.081-6.026,18.028,18.028,0,0,0-7.129.362,16.473,16.473,0,0,1-7.228-.184c-3.7-.809-6.993-2.755-10.457-4.214-5.534-2.332-10.972-4.891-16.9-6.154-.553-.118-1.235.125-1.715-.418,1.3-.451,8.219.774,11.47,2.158,3.6,1.531,7.137,3.207,10.975,4.943-.808-1.172-.875-2.536-2.394-2.853a9.608,9.608,0,0,1-3.7-1.266C98.487,54.3,99.69,55.176,101.123,55.1Zm11.519,5.9c4.322.055,8.819-4.991,8.784-9.885-.025-3.566-5.1-9.126-9.819-8.822s-9.111,3.3-9.248,9.069C102.258,55.616,106.491,61.267,112.642,60.994Z"/>
    <path d="M21.493,179.961a11.467,11.467,0,0,1,1.235-3.448c4.621-9.089,9.6-17.988,14.506-26.922S47.246,131.8,52.252,122.9c2.074-3.688,3.985-7.457,6.317-11.013a26.108,26.108,0,0,1,8.634-8.136c2.289-1.378,4.62-2.673,6.981-3.916.351-.185.718-.453,1.247-.042a17.084,17.084,0,0,1-4.6,2.924c-7,3.445-11.526,9.133-15.01,15.9-4.133,8.031-8.737,15.808-13.063,23.733C38.7,149.782,34.289,157,30.354,164.5c-2.377,4.527-4.41,9.254-7.2,13.564A4.107,4.107,0,0,1,21.493,179.961Z"/>
    <path d="M80.986,90.257a12.762,12.762,0,0,0,3.773-2.869c2.762-2.493,5.482-5.086,8.419-7.314,2.881-2.185,3.772-5.3,5.073-8.2,1.39-3.1,1.2-6.536.736-9.889A3.708,3.708,0,0,1,99,60.234c1.979,1.373,2.081,3.434,2.069,5.421a24.874,24.874,0,0,1-4.595,13.689,50.606,50.606,0,0,1-18,16.261,108.076,108.076,0,0,0-10.005,6.287c-.258.183-.536.339-.845.533-.35-.678.2-.807.493-1.007,3.783-2.617,7.6-5.186,11.362-7.833a61.321,61.321,0,0,0,10.213-9.276c-3.616,2.99-6.908,6.4-11.325,8.984.548-1.732,2.083-1.97,2.67-3.087Z"/>
    <path d="M105.458,102.5c1.112-.987,2.475-1.484,3.479-2.586,2.567-2.816,3.363-6.112,3.414-9.837.046-3.385-1.1-6.584-1.113-9.936a25.557,25.557,0,0,1,2.413-11.781c.822-1.646,2.376-2.658,3.585-3.969a.609.609,0,0,1,.76-.207.615.615,0,0,1,.15.877c-.262.5-.521,1-.826,1.467-3.252,5-3.945,10.544-3.653,16.365a58.976,58.976,0,0,1-.142,10.271,13.419,13.419,0,0,1-4.637,8.471A4.6,4.6,0,0,1,105.458,102.5Z"/>
    <path d="M68.855,105.567c-.091.147-.148.344-.278.435-3.461,2.419-5.728,5.835-7.656,9.461-2.84,5.342-5.39,10.84-8.292,16.147C48.5,139.168,44.208,146.644,38.8,153.4a8.124,8.124,0,0,1-2.2,2.169,3.743,3.743,0,0,1,.976-2.053c6.565-9.11,11.977-18.911,17.337-28.747,2.29-4.2,4.215-8.6,6.879-12.61a29.974,29.974,0,0,1,5.8-6.331,4.753,4.753,0,0,1,1.083-.519Z"/>
    <path d="M29.734,173.482c-1.063,2.769-2.09,5.553-3.2,8.3a176.515,176.515,0,0,0-8.191,27.29,108.129,108.129,0,0,0-1.971,13.634c-.137,1.452-.278,2.9-.477,4.347-.048.355-.017.99-.654.877-.471-.083-.383-.62-.364-.946.1-1.69.295-3.374.373-5.065a94.089,94.089,0,0,1,3.682-20.866,189.3,189.3,0,0,1,9.652-26.333,10.344,10.344,0,0,1,.6-1.1,1.337,1.337,0,0,1,.3-.268Z"/>
    <path d="M10.217,205.809c.506.892-.034,1.646-.19,2.321-1.393,6.042-3,12.037-4.3,18.1a66.268,66.268,0,0,0-1.508,18.082,27,27,0,0,1,.256,3.374c-.022.349.141.88-.379.915-.437.028-.51-.492-.637-.835a2.229,2.229,0,0,1-.065-.559,65.962,65.962,0,0,1,1.4-22.264c1.589-6.281,3.391-12.509,5.106-18.758C9.922,206.076,10.049,206,10.217,205.809Z"/>
    <path d="M104.575,33.674c-3.528,1.634-6.2,4.084-9.743,4.978a19.343,19.343,0,0,1-6.28.138C84.633,38.511,81.2,36.7,77.76,34.967a1.673,1.673,0,0,1-1.2-1.912c3.2,2.815,7.172,3.364,10.875,4.51,5.294,1.638,10.027.178,14.238-3.262A3.076,3.076,0,0,1,104.575,33.674Z"/>
    <path d="M127.647,40.248a48.887,48.887,0,0,1-4.669-1.748c-3.129-1.53-6.5-1.972-9.869-2.467-2.17-.319-4.332-.694-6.495-1.063-.345-.058-.9-.032-.85-.534.062-.641.684-.4,1.025-.356A84.975,84.975,0,0,1,115.78,35.4a57.467,57.467,0,0,1,10.944,3.763,5.837,5.837,0,0,1,.846.488c.1.066.15.207.223.315Z"/>
    <path d="M7.827,225.283c.248,2.448-.313,4.852-.571,7.257-.367,3.417-.379,6.855-.79,10.264-.028.234,0,.473-.033.706-.038.3-.218.576-.516.573-.414,0-.31-.408-.312-.648a42.071,42.071,0,0,1,.048-4.38c.406-4.059.9-8.11,1.391-12.161a12.537,12.537,0,0,1,.434-1.675Z"/>
    <path d="M48.791,143.457a2.74,2.74,0,0,1,.673-1.9,65.111,65.111,0,0,0,6.3-12.092c.221-.549.363-1.722,1.2-1.326.726.342-.1,1.138-.3,1.712A45.345,45.345,0,0,1,49.68,142.8C49.463,143.083,49.353,143.506,48.791,143.457Z"/>
    <path d="M14.563,212.478a4.718,4.718,0,0,1-.3,2.887,61.077,61.077,0,0,0-2.143,13.83,16.368,16.368,0,0,1-.288,1.953c-.04.253-.194.477-.443.452s-.348-.268-.384-.525a14.351,14.351,0,0,1,.265-2.513c.173-5.422,1.574-10.611,2.946-15.807C14.239,212.653,14.415,212.59,14.563,212.478Z"/>
    <path d="M114.972,87.257a13.394,13.394,0,0,1-.093,9.689A17.394,17.394,0,0,1,113.2,100.5a4.938,4.938,0,0,1-1.7,1.666c-.324.176-.6.3-.858-.061-.23-.319,0-.5.216-.7a14.113,14.113,0,0,0,4.021-8.177,8.035,8.035,0,0,0,.037-3.066A7.02,7.02,0,0,1,114.972,87.257Z"/>
    <path d="M94.093,93.512a4.076,4.076,0,0,1,1.212-2.3,30.97,30.97,0,0,0,4.116-6.528c.181-.4.328-.876.87-.642.5.215.216.6.064.951A29.358,29.358,0,0,1,94.093,93.512Z"/>
    <path d="M89.229,80.7c-1.906,2.061-4.135,3.688-6.182,5.512-.874.778-1.8,1.5-2.732,2.21-.223.171-.549.528-.852.161-.339-.412.036-.7.325-.923,1.733-1.363,3.484-2.7,5.211-4.07,1.027-.815,2.021-1.672,3.029-2.512C88.34,80.817,88.586,80.4,89.229,80.7Z"/>
    <path d="M89.015,68A26.724,26.724,0,0,1,91.2,60.506c.143-.329.364-.611.728-.529a.582.582,0,0,1,.439.767A34.226,34.226,0,0,1,89.015,68Z"/>
    <path d="M8.667,236.436a32.924,32.924,0,0,1,1.345-11.1A48.016,48.016,0,0,1,8.667,236.436Z"/>
    <path d="M103.856,93.017c.656-2.426,1.319-4.817,1.943-7.219.186-.719.261-1.467.392-2.2.05-.286.13-.595.5-.528a.521.521,0,0,1,.4.648c-.064.461-.157.92-.26,1.375a56.7,56.7,0,0,1-2.171,7.06C104.537,92.506,104.5,93.006,103.856,93.017Z"/>
    <path d="M53.424,140.4c1.173-2.3,2.26-4.445,3.369-6.579.147-.282.391-.611.778-.46s.352.568.2.843a34.183,34.183,0,0,1-3.758,6.082C53.951,140.358,53.777,140.335,53.424,140.4Z"/>
    <path d="M118.777,92.8a12.373,12.373,0,0,1-1.222,6.332.518.518,0,0,1-.543.368c-.336-.056-.3-.385-.233-.556C117.515,96.928,118.011,94.832,118.777,92.8Z"/>
    <path d="M81.037,90.206c-.618-.127-.94.891-1.81.323a29.729,29.729,0,0,1,5.4-4.495c-.713,1.851-2.687,2.595-3.641,4.223Z"/>
    <path d="M91.724,90.164c.948-1.187,1.907-2.366,2.84-3.565.461-.593.879-1.22,1.307-1.839.182-.264.3-.674.727-.466.572.282.151.683-.018.933a28.716,28.716,0,0,1-4.515,5.189Z"/>
    <path d="M120.6,93.622a16.975,16.975,0,0,1-.618,3.84c-.136.343-.261.825-.752.6-.358-.162-.2-.576-.076-.878a9.909,9.909,0,0,0,.469-3.6c.012-.478-.156-1.3.467-1.261C120.691,92.364,120.528,93.215,120.6,93.622Z"/>
    <path d="M115.071,38.22c1.114-.757,1.891-.214,2.631-.162a29.485,29.485,0,0,1,3.6.581c.3.06.652.269.479.7a.5.5,0,0,1-.691.3C119.245,38.982,117.288,38.76,115.071,38.22Z"/>
    <path d="M99.3,91.237a16.572,16.572,0,0,1,1.9-4.447.432.432,0,0,1,.575-.256.558.558,0,0,1,.19.849A12.288,12.288,0,0,1,99.3,91.237Z"/>
    <path d="M116.921,95.234a15.54,15.54,0,0,1-2.1,5.777.467.467,0,0,1-.712.217c-.29-.208-.017-.439.08-.6C115.217,98.907,115.981,97.062,116.921,95.234Z"/>
    <path d="M80.338,86.286c.064-1.074,2.661-3.641,3.97-3.945A13.378,13.378,0,0,1,80.338,86.286Z"/>
    <path d="M123.689,73.851a9.3,9.3,0,0,1,.874-3.707c.09-.263.319-.627.751-.385a.524.524,0,0,1,.2.736A13.645,13.645,0,0,1,123.689,73.851Z"/>
    <path d="M104.6,38.019a6.856,6.856,0,0,1,3.141-.21c.331.024.793.19.728.673-.055.414-.477.47-.778.379C106.75,38.576,105.66,38.842,104.6,38.019Z"/>
    <path d="M122.04,94.552a20.3,20.3,0,0,1-.544,4.341.524.524,0,0,1-.428.245c-.2-.01-.3-.231-.26-.426.254-1.413.522-2.823.785-4.235Z"/>
    <path d="M120.287,90.214c-.632-1.5-1.351-2.929-2.056-4.362A5.251,5.251,0,0,1,120.287,90.214Z"/>
    <path d="M116.528,39.922c1.409-.415,2.427.11,3.474.313.229.045.468.189.382.471a.5.5,0,0,1-.64.4C118.778,40.714,117.672,40.723,116.528,39.922Z"/>
    <path d="M106.931,90.186c.193-1.244.339-2.144.469-3.047.04-.276.009-.59.407-.595.38,0,.434.279.446.573A3.362,3.362,0,0,1,106.931,90.186Z"/>
    <path d="M134.886,61.607a4.852,4.852,0,0,1-3.024-.343c-.244-.073-.435-.2-.4-.476.035-.3.252-.377.51-.282C132.944,60.866,133.914,61.239,134.886,61.607Z"/>
    <path d="M74.863,51.916a2.8,2.8,0,0,1,2.633-.825.549.549,0,0,1,.581.479c.014.269-.269.342-.513.344C76.664,51.919,75.763,51.916,74.863,51.916Z"/>
    <path d="M82.326,44.449c1.173-.414,1.993.093,2.852.2.224.028.74.111.59.585-.1.323-.436.252-.714.21A7.467,7.467,0,0,1,82.326,44.449Z"/>
    <path d="M101.781,91a3.807,3.807,0,0,1,.767-2.546.457.457,0,0,1,.694-.219c.3.2.221.495.062.73A8.018,8.018,0,0,1,101.781,91Z"/>
    <path d="M117.07,85.612a5.714,5.714,0,0,1,1.407,2.815c.066.226.058.479-.218.563-.235.072-.319-.129-.366-.313A10.726,10.726,0,0,1,117.07,85.612Z"/>
    <path d="M104.7,36.263a4.016,4.016,0,0,1,3.538.456C106.744,37.123,105.746,36.506,104.7,36.263Z"/>
    <path d="M109.671,89.914c-.46-.266-.211-.718-.4-1.033a1.089,1.089,0,0,1-.059-1.189.325.325,0,0,1,.494-.056,1.7,1.7,0,0,1,.475,1.121A1.056,1.056,0,0,1,109.671,89.914Z"/>
    <path d="M145.755,71a3.7,3.7,0,0,1-2.461-1.74C144.569,69.41,145.094,70.305,145.755,71Z"/>
    <path d="M149.36,195.943c-.22-3.927,1.5-7.389,3.962-10.6a12.331,12.331,0,0,0,2.934-6.3c.03-.318.077-.873.52-.872.587,0,.518.552.526.968a9.938,9.938,0,0,1-1.75,5.257c-.817,1.373-1.812,2.639-2.713,3.963a14.1,14.1,0,0,0-2.633,9.009c.027.424.011.85,0,1.275-.006.331.007.731-.453.726-.363,0-.352-.359-.4-.64A10.375,10.375,0,0,1,149.36,195.943Z"/>
    <path d="M138.806,195.667c-.435.791-.835,1.6-1.31,2.37a16.493,16.493,0,0,0-2.023,7.63c-.225,2.813-.387,5.63-.565,8.446-.023.353-.068.737-.456.767-.518.04-.387-.441-.388-.729a64.439,64.439,0,0,1,.864-13.2C135.277,199.243,137.242,196.371,138.806,195.667Z"/>
    <path d="M131.048,163.982c-.965-.49-.806-1.4-.88-2.026a73.42,73.42,0,0,1-.186-14.673,14.456,14.456,0,0,1,.343-3.932c.12-.332-.026-.906.475-.881.453.022.436.542.41.92-.13,1.875-.247,3.752-.411,5.625a54.218,54.218,0,0,0,.034,11.83C130.964,161.839,130.974,162.85,131.048,163.982Z"/>
    <path d="M133.186,170.167a1.853,1.853,0,0,1-.524-1.205c-.19-4.944-.823-9.862-.872-14.814,0-.188,0-.378.009-.566.024-.357-.062-.859.447-.861.417,0,.358.467.413.786.4,2.287.272,4.611.44,6.915a62.054,62.054,0,0,1,.383,8.761C133.462,169.484,133.611,169.836,133.186,170.167Z"/>
    <path d="M134.813,175.879a2.414,2.414,0,0,1-.47-1.953q.129-6.718.288-13.437c.009-.394-.148-1,.427-1.042.67-.044.618.667.612,1.056-.04,2.5-.037,5.006-.27,7.489-.2,2.125-.171,4.242-.227,6.363C135.16,174.847,135.334,175.4,134.813,175.879Z"/>
    <path d="M128.1,155.512a4.085,4.085,0,0,1-.947-2.74,26.778,26.778,0,0,1-.176-5.888c.023-.385.081-.791.595-.79.552,0,.525.436.526.808C128.1,149.667,128.1,152.432,128.1,155.512Z"/>
    <path d="M125.012,153.28c-.279-2.31-.628-4.62.32-6.905C125.1,148.674,125.34,150.982,125.012,153.28Z"/>
    <path d="M126.535,123.175c-1.164-1.939-2.142-3.567-3.222-5.364C124.805,118.467,126.461,121.156,126.535,123.175Z"/>
    <path d="M79.72,17.71c12.61,3.123,25.232,6.247,37.59,10.323C115.634,28.282,81.562,19.01,79.72,17.71Z"/>
    <path d="M84.4,23.942c.494.788-.11,1.481-.054,2.186.011.136-.21.3-.435.243a.331.331,0,0,1-.276-.414C83.882,25.312,83.741,24.514,84.4,23.942Z"/>
    <path d="M112.284,59.9c-5.851.389-9.854-4.76-9.416-10.059.236-2.86,4.248-6.41,7.445-6.567,5.566-.273,7.856,1.839,9.469,7.768C120.922,55.237,118.356,60,112.284,59.9Zm2.677-11.988a9.285,9.285,0,0,1-.876,9.485c1.633-.211,2.681-.887,2.972-2.233C117.672,52.327,117.7,49.593,114.961,47.916Z"/>
  </g>
</svg>
