<svg xmlns="http://www.w3.org/2000/svg" viewBox="0 0 88.55 255.843">
  <g>
    <path d="M46.143,99.2a9.228,9.228,0,0,0-4.268-1.54,72.852,72.852,0,0,0-11.123-.363c-2.975.067-5.956-.216-8.935-.219-3.079,0-6.161.118-9.239.239-2.838.111-5.61-.578-8.436-.619a1.356,1.356,0,0,1-1.324-1.2c-.146-.84.451-1.154,1.076-1.368a4.715,4.715,0,0,1,1.583-.335c4.224.1,8.432-.3,12.651-.378,4.315-.074,8.579.678,12.857.573,4.244-.105,8.548.018,12.709-1.135a2.329,2.329,0,0,0,1.452-.833c-1.788-1.057-3.806-.927-5.709-1.206a95.846,95.846,0,0,0-12.787-.519c-4.859-.059-9.74.244-14.6.106A43.276,43.276,0,0,1,4.5,89.905c-.737-.152-1.339-.369-1.427-1.236-.095-.933.533-1.381,1.236-1.646a16.314,16.314,0,0,1,5.136-.659c6.2-.274,12.424-.154,18.587-.741,4.915-.469,9.828.188,14.715-.479a10.047,10.047,0,0,0,2.616-.733,5.072,5.072,0,0,0-3.648-1.966c-5.568-1-11.14-.509-16.733-.146-4.8.312-9.638.786-14.44.329-1.995-.19-4.037.218-6-.473a2.347,2.347,0,0,1-1.816-2.1c-.062-1.151.877-1.576,1.835-1.8a36.019,36.019,0,0,1,8.552-.863c3.742.046,7.485,0,11.228-.007,4.066-.009,8.133-.006,12.2-.039a49.847,49.847,0,0,0,7.549-.645,3.32,3.32,0,0,0,1.974-.7,7.754,7.754,0,0,0-4.039-1.28,67.582,67.582,0,0,0-9.3-.7c-2.478.05-4.962-.136-7.441-.258-1.8-.088-3.566.277-5.347.275A113,113,0,0,1,5.063,72.805c-1.162-.155-2.743-.451-2.745-2,0-1.372,1.417-1.431,2.495-1.577a36.949,36.949,0,0,1,4.266-.5c10.586-.184,21.172-.4,31.762-.32,1.214.009,2.434.493,3.643,0,.568-.234,1.472-.219,1.527-.934s-.779-.989-1.375-1.134a15.483,15.483,0,0,0-3.478-.588c-5.706-.046-11.338-1.152-17.05-1.1-3.076.028-6.154-.145-9.229-.113a88.348,88.348,0,0,1-9.2-.606,5.346,5.346,0,0,1-1.785-.673A1.713,1.713,0,0,1,2.8,61.479c.072-.9.8-1.087,1.448-1.274a8.567,8.567,0,0,1,2.185-.4c4.568-.07,9.138-.54,13.686-.49,5.3.058,10.6.513,15.905.432A44.6,44.6,0,0,0,44,59.19c.474-.093,1.147-.085,1.129-.689-.013-.422-.652-.488-1.078-.595a54.675,54.675,0,0,0-13.877-1.827c-3.18.027-6.36.079-9.54.057-2.985-.02-5.944.331-8.917.489a24.079,24.079,0,0,1-7.655-.594c-.8-.217-1.528-.614-1.53-1.565A1.924,1.924,0,0,1,4.067,52.53a30.14,30.14,0,0,1,7.067-.814c7.734-.477,15.475-.734,23.231-.681,2.957.02,5.917-.541,8.878-.807.635-.058,1.4-.219,1.451-.784.052-.588-.743-.851-1.3-1.026a27.357,27.357,0,0,0-7.548-1.187c-8.35-.2-16.677.651-25.025.663a33.9,33.9,0,0,1-6.639-.429,3.933,3.933,0,0,1-1.472-.62,1.953,1.953,0,0,1-1.013-1.724c.1-.742.8-1.051,1.5-1.259a40.831,40.831,0,0,1,10.436-1.328c7.4-.216,14.8-.3,22.163-1.027,1.978-.2,3.969-.11,5.928-.433a4.459,4.459,0,0,1,1.905.2c.595.158.934.059,1.156-.519a20.175,20.175,0,0,0-6.9-1.924c-4.79-.73-9.589-.349-14.38-.238a62.036,62.036,0,0,1-7.38-.29,23.353,23.353,0,0,0-4.9.12,13.857,13.857,0,0,1-8.337-1.327c-.608-.325-1.1-.683-.976-1.476a1.7,1.7,0,0,1,1.254-1.329A12.537,12.537,0,0,1,7.1,33.571,91.521,91.521,0,0,1,23.17,33.43c1.6.17,3.171-.347,4.755-.214,3.814.32,7.633.253,11.452.258a13.761,13.761,0,0,0,5.479-.939A15.373,15.373,0,0,0,39.13,31.1c-5.848-.553-11.716-.317-17.577-.335-3.918-.013-7.854.305-11.747-.3-2.29-.357-4.581-.665-6.881-.938A1.691,1.691,0,0,1,1.4,27.909c-.022-.81.734-1.273,1.454-1.5A7.134,7.134,0,0,1,4.9,26.057c5.86-.081,11.677-1.082,17.538-.9,5.814.175,11.6-.389,17.408-.323a12.058,12.058,0,0,0,3.339-.693c.383-.106.964-.322.943-.793s-.588-.64-.99-.786a18.243,18.243,0,0,0-4.8-.706c-6-.5-12.026-.2-18.037-.35-4.67-.116-9.328-.02-13.989.232a10.974,10.974,0,0,1-3.78-.55A1.821,1.821,0,0,1,1.06,19.52c-.041-.94.688-1.374,1.449-1.674a11.433,11.433,0,0,1,4.214-.785c3.825,0,7.651.025,11.476-.007a151.1,151.1,0,0,0,17.039-1.311,37.357,37.357,0,0,1,4.915-.134,3.734,3.734,0,0,0,2.617-.634,18.285,18.285,0,0,0-7.237-1.4c-4.713-.093-9.433-.085-14.141-.215-5.165-.144-10.329-.117-15.492-.237a12.682,12.682,0,0,1-3.175-.616A1.84,1.84,0,0,1,1.29,10.66c-.04-1.1.662-1.483,1.474-1.781a15.186,15.186,0,0,1,4.977-.7c3.928-.089,7.867.1,11.786-.112,4.721-.253,9.438-.3,14.158-.214A18.779,18.779,0,0,0,39.592,7.4a10.512,10.512,0,0,0-4.387-.984,90.561,90.561,0,0,0-12.128-.9c-3.613.083-7.245.161-10.864.433a47.223,47.223,0,0,1-10.2-.533A4.524,4.524,0,0,1,.886,5.067,1.36,1.36,0,0,1,0,3.567c.038-.788.464-.958,1.074-1.15A55.736,55.736,0,0,1,11.717.634C18.161-.1,24.62.566,31.068.34,34.691.213,38.306.009,41.937,0A66.61,66.61,0,0,1,53.225,1.3,61.088,61.088,0,0,1,62.96,3.4C70.611,6.035,76.527,10.856,79.5,18.569c.961,2.492,1.083,5.321,1.493,8.011,1.153,7.562,1.113,15.187,1.25,22.81.076,4.2.558,8.4.555,12.618,0,5.071-.131,10.146.023,15.213.262,8.6.185,17.2.338,25.794a87.573,87.573,0,0,0,1.057,12.067c.369,2.337.137,4.755.273,7.141.186,3.266.519,6.534.405,9.819-.129,3.716.7,7.384.606,11.108-.072,2.931-.389,5.827-.7,8.738a27.782,27.782,0,0,0,.437,5.535c.271,2.8.579,5.591.833,8.389.393,4.32.755,8.642,1.126,12.964.17,1.976.23,3.964.325,5.941.419,8.678.615,17.366.983,26.047.18,4.23-.182,8.433-.316,12.649-.084,2.619.278,5.223.083,7.864a31.077,31.077,0,0,1-2.752,10.578c-1.778,3.943-5.067,6.342-8.744,8.349-5.762,3.143-12.075,4.262-18.461,5.021-10.261,1.22-20.558.258-30.836.247-3.851,0-7.7-.71-11.552-1-1.88-.144-3.777-.041-5.664-.12A5.631,5.631,0,0,1,6.4,253.189c-1.2-1.081-1.289-1.988-.1-3.086a7.424,7.424,0,0,1,3.554-1.381,70.452,70.452,0,0,1,10.266-1.289c6.558-.63,13.106-1.157,19.7-1.183a25.346,25.346,0,0,1,4.407.015,6.114,6.114,0,0,0,4.193-1.167.921.921,0,0,0,.505-.853c-.08-.457-.55-.293-.874-.335-8.489-1.092-17.03-.725-25.551-.965a103.044,103.044,0,0,1-13.616-.825,3.416,3.416,0,0,1-3.074-2.964,2.1,2.1,0,0,1,1.4-2.605,16.638,16.638,0,0,1,4.333-.94c2.013-.228,4.052-.231,6.079-.347,3.011-.173,6.02-.43,9.033-.5.873-.019,1.748-.094,2.623-.094,6.755,0,13.5-.513,20.261-.3a3.958,3.958,0,0,0,2.131-.522.879.879,0,0,0,.481-.851c-.029-.295-.4-.362-.7-.459a24.578,24.578,0,0,0-6.443-.84c-5.657-.3-11.278.593-16.937.648-3.946.038-7.914.324-11.858.6-2.4.169-4.732-.092-7.1-.093a4.308,4.308,0,0,1-2.934-1.283c-1.89-1.719-1.427-4.094.99-5.017a25.427,25.427,0,0,1,5.35-1.136,62.444,62.444,0,0,1,8.319-.317c5.888-.1,11.739-.773,17.609-1.134A59.876,59.876,0,0,0,47.879,223a10.006,10.006,0,0,0,2.9-1.12,1.268,1.268,0,0,0,.687-1.348c-.058-.671-.586-.654-1.051-.827a16.465,16.465,0,0,0-4.112-.5,94.136,94.136,0,0,0-15.622-.3c-6.759.387-13.51.1-20.263.193a8.634,8.634,0,0,1-2.883-.617A3.041,3.041,0,0,1,5.2,215.265a3.394,3.394,0,0,1,2.336-3.436,20.466,20.466,0,0,1,4.923-1.019c5.061-.663,10.157-.768,15.253-1,4.651-.21,9.326.034,13.954-.542,2.427-.3,4.982-.138,7.166-1.586.408-.27,1.062-.454,1-.988s-.755-.294-1.144-.456A5.121,5.121,0,0,0,46.626,206c-6.07,0-12.147-.186-18.2.078-3.971.173-7.936.227-11.9.2a42.055,42.055,0,0,1-8.534-.876,4.467,4.467,0,0,1-1.121-.38c-1.756-.918-2.9-3.019-.354-4.758a12.147,12.147,0,0,1,5.775-1.674,44.048,44.048,0,0,1,4.885-.264c7.454.024,14.895-.6,22.349-.374a47.507,47.507,0,0,0,8.682-.926,2.371,2.371,0,0,0,.41-.167c.94-.34,2.181-.665,2.148-1.763-.032-1.032-1.331-.934-2.145-1.129-4.834-1.157-9.724-.936-14.621-.552-2.073.163-4.151.114-6.233.294a110.145,110.145,0,0,1-13.388.339c-1.849-.064-3.645.455-5.486.31-1.631-.128-3.152-.431-3.911-2.165a2.707,2.707,0,0,1,1.632-3.954,23.515,23.515,0,0,1,6.367-1.31A195.048,195.048,0,0,0,33.156,184.9a56.947,56.947,0,0,1,8.12-.727,30.566,30.566,0,0,0,6.747-.823A4.316,4.316,0,0,0,50.1,182.2a5.922,5.922,0,0,0-3.432-.925,79.132,79.132,0,0,0-15.142-.08c-1.967.2-3.952.271-5.93.319-5.161.126-10.322.2-15.483.309a6.6,6.6,0,0,1-3.291-.762,3.316,3.316,0,0,1-1.909-3.272,3.223,3.223,0,0,1,2.226-3.054,30.03,30.03,0,0,1,6.682-1.243c4.707-.543,9.42-1.042,14.139-1.456,2.019-.177,4.054-.112,6.081-.329a80.419,80.419,0,0,0,11.581-1.595c1-.258,2.577-.518,2.458-1.71-.117-1.174-1.723-1.069-2.738-1.175a94.719,94.719,0,0,0-13.837-.279c-4.95.213-9.9.434-14.848.636-2.725.112-5.451.108-8.174.211a5.349,5.349,0,0,1-3.652-1.4c-1.934-1.559-1.472-3.5-.06-5.127a5.843,5.843,0,0,1,4.109-1.808c1.957-.155,3.883-.668,5.83-.982a63.025,63.025,0,0,1,7.8-.823c6.956-.248,13.9.4,20.856.327a15.2,15.2,0,0,0,3.791-.622,2.428,2.428,0,0,0,1.317-.913c.863-1.117.7-1.568-.718-1.778a93.08,93.08,0,0,0-19.136-.348q-9.149.534-18.317.3a18.494,18.494,0,0,1-3.647-.58,3.552,3.552,0,0,1-2.891-3.018,3.444,3.444,0,0,1,1.919-2.99,19.078,19.078,0,0,1,8.207-2.3c6.151-.632,12.338-.789,18.5-1.257a87.57,87.57,0,0,0,10.4-1.434,1.689,1.689,0,0,0,1.353-.748,50.977,50.977,0,0,0-8.764-.484c-5.564-.1-11.133-.028-16.673.38-3.679.271-7.345.067-11.01.253a6.856,6.856,0,0,1-4.373-1.625A3.007,3.007,0,0,1,2.256,137.6a2.683,2.683,0,0,1,2.2-2.132,44.339,44.339,0,0,1,8.916-1.354c6.514-.4,13.032-.664,19.513-1.5,2.052-.263,4.146-.2,6.183-.619a3.877,3.877,0,0,0,2.67-3.017c.075-.812-.481-1.228-1.11-1.546a12.366,12.366,0,0,0-5.152-1.106c-5.863-.245-11.719.264-17.581.324-2.912.03-5.819.532-8.75.56a22.346,22.346,0,0,1-3.7-.346,1.818,1.818,0,0,1-1.758-1.7c-.1-1.081.592-1.549,1.434-1.792a17.263,17.263,0,0,1,6.142-.83,63.631,63.631,0,0,0,8.917-.4c3.73-.245,7.455.514,11.168.24,3.852-.284,7.757.09,11.558-.851.768-.19,1.928-.362,1.874-1.145-.061-.886-1.3-.839-2.053-.916-6.947-.717-13.884.038-20.827.2-4.955.116-9.882.808-14.846.66a3.984,3.984,0,0,1-2.8-1.172,2.285,2.285,0,0,1-.475-2.368c.231-.786,1.018-.647,1.646-.7,3.818-.345,7.661,0,11.469-.272,6.346-.46,12.7-.439,19.048-.637,2.273-.071,4.555.236,6.822-.2a4.886,4.886,0,0,0,2.519-1.141c.494-.46.533-.77-.213-1.013a6.828,6.828,0,0,0-1.751-.257c-12.064-.734-24.128-.054-36.191.031a4.824,4.824,0,0,1-3.147-1.06,1.467,1.467,0,0,1-.561-1.584c.135-.6.616-.812,1.183-.971a16.006,16.006,0,0,1,2.8-.315,154.339,154.339,0,0,1,18.135-.261c5.661.111,11.308-.334,16.964-.471a8.605,8.605,0,0,0,3.043-.617c.357-.145.82-.26.8-.756a.927.927,0,0,0-.783-.8,18.245,18.245,0,0,0-3.46-.62c-5.862-.155-11.727-.29-17.591-.3-4.372-.01-8.744.18-13.117.271a53.985,53.985,0,0,1-6.928-.631,2.683,2.683,0,0,1-1.537-.827c-.447-.428-.908-.869-.681-1.528a1.63,1.63,0,0,1,1.525-1.2c3.858-.27,7.709-.681,11.571-.836a129.013,129.013,0,0,1,14.279.482,94.5,94.5,0,0,0,14.584-.563A2.674,2.674,0,0,0,46.143,99.2ZM1.536,3.488c2.069,1.059,4.1.835,6.037,1,3.074.26,6.134-.421,9.194-.488,6.316-.14,12.672-.66,18.923.832a25.464,25.464,0,0,1,4.968,1.313c1.392.648,1.429,1.721.162,2.589a4.234,4.234,0,0,1-1.511.578c-1.924.429-3.851.09-5.772.059-4.116-.066-8.242-.5-12.34-.295-3.98.2-7.953.088-11.925.241a23.009,23.009,0,0,0-5.577.752c-.311.091-.907,0-.846.618.045.454.4.618.808.75a11.259,11.259,0,0,0,3.484.578c3.327-.007,6.652-.056,9.971-.322,2.235-.18,4.45.319,6.674.273a92.585,92.585,0,0,1,14.1.333,16.252,16.252,0,0,1,5,1.132c.757.361,1.393.824,1.391,1.749a1.871,1.871,0,0,1-1.54,1.789,21.131,21.131,0,0,1-3.906.66c-4.252.341-8.515,0-12.784.234-5.754.307-11.537.046-17.307.116a16.455,16.455,0,0,0-5.4.771c-.31.111-.775.171-.73.592.038.349.444.52.775.626a2.532,2.532,0,0,0,.735.076c2.083.027,4.16.121,6.242.245a157.571,157.571,0,0,0,16.986-.358,110.691,110.691,0,0,1,13.939.48,7.283,7.283,0,0,1,3.368,1,2.605,2.605,0,0,1,1.345,2.334c-.041.961-.869,1.459-1.757,1.809a16.855,16.855,0,0,1-5.812,1c-4.816.137-9.636.608-14.442.484q-8.58-.222-17.13.189a10.3,10.3,0,0,0-3.4.73c.1.377.353.383.594.451,5.342,1.5,10.83.843,16.249,1,6.2.179,12.415-.11,18.622-.053a12.476,12.476,0,0,1,6.12,1.485c.671.379,1.347.763,1.309,1.633a2.123,2.123,0,0,1-1.494,1.868A8.313,8.313,0,0,1,41.688,35c-3.962.013-7.9-.309-11.85-.564-4.409-.285-8.85-.076-13.277-.074a59.2,59.2,0,0,0-8.923.33c-1.514.23-3.127.25-4.58,1.323.467.2.779.33,1.093.457,2.8,1.121,5.772.4,8.651.813,2.822.4,5.7-.241,8.571.045a64.528,64.528,0,0,0,7.237-.174c3.105-.038,6.219.33,9.323.595,1.868.16,3.789-.029,5.592.552,1.135.366,2.742.7,2.725,2.134s-1.562,1.7-2.765,1.994c-5.531,1.376-11.19,1.278-16.822,1.411-6.063.143-12.128.171-18.191.285a9.774,9.774,0,0,0-4.079.64c-.42.2-1.155.143-1.156.671s.562.874,1.154.968c.288.045.567.14.852.2,3.515.776,7.021.071,10.506-.192,6.49-.49,12.972-1.175,19.486-.953a24.953,24.953,0,0,1,8.9,1.825c1.021.431,2.165,1.078,1.855,2.346A3.144,3.144,0,0,1,43.237,52a69.872,69.872,0,0,1-10.7.582c-7.406.015-14.817-.191-22.216.306-1.677.112-3.346.348-5.019.53-.509.055-1.143.2-1.174.706-.039.625.646.738,1.166.915a17.145,17.145,0,0,0,6.287.678c4.065-.158,8.1-.717,12.184-.77a132.068,132.068,0,0,1,17.4.659,11.414,11.414,0,0,1,4.681,1.179,1.9,1.9,0,0,1,1.152,1.9,1.963,1.963,0,0,1-1.345,1.618,11.155,11.155,0,0,1-4.168.924,52.06,52.06,0,0,1-7.279-.367,164.507,164.507,0,0,0-24.409-.2,14.809,14.809,0,0,0-5.2,1.215,2.71,2.71,0,0,0,1.74.789,43.936,43.936,0,0,0,10.487.561c4.042-.464,8.042.016,12.05.2,4.39.206,8.767.7,13.147,1.1a16.67,16.67,0,0,1,4.96,1.294c1.245.526,1.23,1.709.194,2.608a6.01,6.01,0,0,1-4.242,1.444c-3.419-.072-6.844-.365-10.253-.233-3.122.12-6.219.111-9.34-.007-4.669-.176-9.352-.123-14.025-.006a10.017,10.017,0,0,0-5.339,1.217c1.828,1.368,3.868,1.263,5.8,1.4,3.392.239,6.782-.206,10.2-.042,6.194.3,12.417-.066,18.611.407a30.681,30.681,0,0,1,7.943,1.512,1.827,1.827,0,0,1,1.391,1.737,2.012,2.012,0,0,1-1.352,1.958,13.267,13.267,0,0,1-2.714.718c-3.934.706-7.9.171-11.848.17-4.9,0-9.793-.573-14.708-.241-3.358.227-6.761-.19-10.071.684A5.4,5.4,0,0,0,4.61,80.2c2.235,1.286,4.577,1.086,6.878,1.107,3.466.032,6.9-.663,10.375-.469a62.358,62.358,0,0,0,7.142-.072,91.927,91.927,0,0,1,11.755-.381,10.133,10.133,0,0,1,5.276,1.765c1.622,1.157,1.622,2.3-.009,3.465a6.381,6.381,0,0,1-1.472.7,11.115,11.115,0,0,1-4.387.62c-2.827-.106-5.655-.3-8.48-.261-2.276.03-4.548.5-6.822.5-5.019.017-10.042-.014-15.044.382-1.759.14-3.67-.162-5.437.946a5.992,5.992,0,0,0,2.668.5c2.931-.094,5.873-.348,8.791-.184,4.663.262,9.327.166,13.987.316s9.323-.053,13.926.787c1.314.24,2.933.374,3.164,2.158.144,1.112-1.281,2.093-3.253,2.243-3.509.267-7.023.491-10.539.624-2.876.109-5.728-.484-8.592-.543-5.846-.119-11.7-.043-17.545-.029a5.434,5.434,0,0,0-2.981.741,2.142,2.142,0,0,0,1.471.764,94.38,94.38,0,0,0,10.506.384c8.248-.139,16.5-.1,24.751.01,2.23.03,4.54.149,6.551,1.5a.951.951,0,0,1,.476,1.306c-.483,1.43-1.736,1.654-2.958,1.838a70.5,70.5,0,0,1-14.558.457,85.329,85.329,0,0,0-8.617-.3c-3.322.147-6.633.5-9.966.364a38.817,38.817,0,0,0-7.113.359c-.443.063-1.024.034-1.085.558-.072.632.443.923,1.029,1.051a14.992,14.992,0,0,0,3.2.509c3.918,0,7.833-.106,11.75-.2,7.254-.176,14.516-.115,21.774-.061a12.347,12.347,0,0,1,4.9.912c.9.4,1.729,1,1.7,2.053-.026.975-.864,1.512-1.666,1.941a9.028,9.028,0,0,1-4.5.744c-8.5-.082-17,.03-25.5-.224-3.362-.1-6.739.321-10.108.519a3.753,3.753,0,0,0-.86.211c-.268.083-.612.087-.613.51,0,.367.263.515.527.649a6.778,6.778,0,0,0,2.831.722c3.538.154,7.03-.508,10.544-.567q10.287-.172,20.578.012a32.958,32.958,0,0,1,6.191.529,1.992,1.992,0,0,1,1.66,1.461c.264.864-.354,1.328-.889,1.72a7.4,7.4,0,0,1-3.562,1.32c-2.574.316-5.153.049-7.73.13-8.49.264-16.986.32-25.479.453a6.732,6.732,0,0,0-2.366.2c-.614.237-1.779-.277-1.784.5,0,.839,1.174,1.066,1.957,1.327a4.4,4.4,0,0,0,1.333.067c2.239.01,4.487-.117,6.714.046a62.384,62.384,0,0,0,12.12-.787,67.278,67.278,0,0,1,14.244-.377,10.977,10.977,0,0,1,3.87.84c1.452.7,1.762,1.838.754,3.106a4.15,4.15,0,0,1-3.2,1.646c-2.532.1-5.066.258-7.6.228-8.8-.1-17.591.353-26.388.391a7.786,7.786,0,0,0-3.985.91,1.8,1.8,0,0,0,1.4.861,52.5,52.5,0,0,0,12.74.2c5.692-.586,11.392-.656,17.092-.878a12.613,12.613,0,0,1,5.494.981c1.7.73,2.517,2.216,1.694,3.8-1.236,2.38-2.926,4.312-5.927,4.573-1.38.119-2.765.177-4.139.311-5.166.5-10.333.946-15.521,1.17a63.864,63.864,0,0,0-11.891,1.461c-.51.12-1.144.07-1.256.789-.115.741.465,1.025.962,1.354a7.755,7.755,0,0,0,5.55,1.107c3.406-.519,6.831-.258,10.238-.435a149.591,149.591,0,0,1,17.266-.343,34.92,34.92,0,0,1,6.491.539,1.96,1.96,0,0,1,1.4,2.75c-.616,1.62-1.972,2.016-3.507,2.331-5.309,1.089-10.71,1.077-16.077,1.443-4.638.317-9.294.389-13.912.948a14.106,14.106,0,0,0-5.8,1.656c-.492.3-1.174.6-1.075,1.3.11.767.774,1.046,1.5,1.24,3.79,1.016,7.7.686,11.523.722,4.173.039,8.387-.379,12.578-.675,4.356-.308,8.752-.113,13.129-.047a14.6,14.6,0,0,1,4.935.921,2.143,2.143,0,0,1,1.319,3.085c-1.1,2.991-3.587,3.641-6.329,3.7-5.455.112-10.9-.154-16.344-.52A67.493,67.493,0,0,0,12.523,160.5a22.055,22.055,0,0,0-5.708,1.506,2.3,2.3,0,0,0-1.266,2.022c-.092.752.694,1.027,1.237,1.329a4.831,4.831,0,0,0,2.557.655c2.425-.095,4.862-.172,7.277-.2,6-.076,11.988-.653,17.983-.643,4.1.007,8.193-.725,12.319-.087,2.226.344,3.511,1.092,4.056,3.072.31,1.123-.6,2.6-2.293,3.624a7.526,7.526,0,0,1-1.766.76,44.081,44.081,0,0,1-10.4,1.451c-6.675.291-13.347.551-19.992,1.278a80.407,80.407,0,0,0-8.2,1.2,1.408,1.408,0,0,0-1.207.978,1.434,1.434,0,0,0,.654,1.529,3.934,3.934,0,0,0,1.605.718c1.239.06,2.461.253,3.692.329,4.42.273,8.826-.281,13.243-.346a35.554,35.554,0,0,0,4.586-.27,63.469,63.469,0,0,1,15.521-.542,27.791,27.791,0,0,1,3.94.672,2.987,2.987,0,0,1,2.487,2.491A2.913,2.913,0,0,1,51,184.7a10.521,10.521,0,0,1-1.633.709,19.45,19.45,0,0,1-5.539.894c-2.572.128-5.152.162-7.714.394-4.422.4-8.827.975-13.248,1.376-3.251.3-6.524.343-9.77.666a24.707,24.707,0,0,0-5.363,1.06c-.528.175-1.043.3-1.063,1.032a1.521,1.521,0,0,0,.828,1.459,2.982,2.982,0,0,0,1.584.305c3.472.057,6.918-.312,10.374-.562,3.709-.268,7.431-.02,11.159-.261a114.5,114.5,0,0,1,13.689-.364,19.361,19.361,0,0,1,6.929,1.416,2.261,2.261,0,0,1,1.186,3.485,4.128,4.128,0,0,1-3.044,2.18,51.334,51.334,0,0,1-7.186.9c-5.258.185-10.521-.059-15.783.3-3.856.267-7.741.126-11.6.4a16.729,16.729,0,0,0-6.227,1.147c-.648.311-1.6.426-1.554,1.362s.935,1.26,1.68,1.48a31.224,31.224,0,0,0,9.1.919c4.343-.031,8.681-.636,13.026-.728,6.187-.131,12.379-.072,18.567.036a3.08,3.08,0,0,1,2.933,1.916,2.726,2.726,0,0,1-1.492,3.25,13.676,13.676,0,0,1-2.962,1.344,38.124,38.124,0,0,1-10.149,1.078c-6.845.12-13.687.272-20.517.708a48.41,48.41,0,0,0-8.337,1.233c-.561.136-1.351.25-1.293,1.171s.747,1.284,1.491,1.405a23.888,23.888,0,0,0,3.54.33c3.73.043,7.462-.011,11.193.03,7.1.078,14.207.1,21.3.36a29.356,29.356,0,0,1,6.045.532,2.669,2.669,0,0,1,2.389,3.026c-.037,2.09-1.634,3.649-4.35,4.109-6.342,1.073-12.779,1.186-19.17,1.751-4.929.435-9.9.354-14.841.7a54.072,54.072,0,0,0-6.841,1.227c-.4.08-.929.284-.955.807-.023.459.46.635.8.786a8.092,8.092,0,0,0,3.152.741c5.113.1,10.2-.364,15.3-.549,3.715-.135,7.442-.2,11.151-.429,1.778-.111,3.573-.065,5.335-.288a25.2,25.2,0,0,1,9.521.816c2.411.621,2.885,3.159,1.087,4.91a4.95,4.95,0,0,1-3.57,1.186c-6.8.164-13.6-.176-20.411.235-5.333.321-10.67.635-16,1.015-2.037.145-4.162.11-6.107,1a1.751,1.751,0,0,0,2.16,1.653,6.008,6.008,0,0,1,1.339.043c4.119.49,8.245.951,12.39,1.1a68.093,68.093,0,0,0,7.429-.2c4.755-.352,9.524.1,14.285.268a20.089,20.089,0,0,1,3.8.606c1.947.45,2.464,2.1,1.093,3.577a6.03,6.03,0,0,1-4.489,2.019c-7.834,0-15.668-.142-23.465.9-3.813.51-7.67.742-11.424,1.608-1.249.288-2.693.384-3.7,1.594a60.242,60.242,0,0,0,10.465,1.295c7,.226,14,.239,20.994.767,4.738.358,9.538-.1,14.31-.212a2.826,2.826,0,0,0,2.7-1.487c.792-1.479,1.761-2.865,2.52-4.36,3.184-6.271,3.408-13.137,3.83-19.938.256-4.111.037-8.236.249-12.364.254-4.956.56-9.928.382-14.9a2.47,2.47,0,0,1,.293-1.684,2.471,2.471,0,0,1,.293,1.552c.188,6.36-.106,12.713-.267,19.07-.128,5.064-.124,10.125-.593,15.181a43.6,43.6,0,0,1-3.354,13.73c-.725,1.644-1.716,3.172-2.715,4.985,1.033-.438,2.042.067,2.7-.983a39.36,39.36,0,0,0,6-17.134c.421-4.094.58-8.211.68-12.328.026-1.09.238-2.175.4-3.585a2.133,2.133,0,0,1,.418,1.68c-.093,3.476-.127,6.956-.337,10.426a42.853,42.853,0,0,1-1.852,11.367,59.31,59.31,0,0,1-4.2,9.982,76.894,76.894,0,0,0,10.485-2.2c2.355-.647,4.027-1.708,3.723-4.493a1.738,1.738,0,0,1,.1-.432c.618-3.4,1.117-6.829,1.71-10.234s.291-6.837.811-10.224c.088-.571.033-1.162.775-1.425.782,8.421-1.037,16.523-2.427,24.76a2.7,2.7,0,0,0,1.793-1.875,51.746,51.746,0,0,0,2.531-10.647,128.6,128.6,0,0,0,.645-17.411c-.008-.651,0-1.3,0-1.952l.616.04a75.088,75.088,0,0,1-2.2,29.568c1.317-1.068,2.528-1.684,2.553-3.557.028-2.01.4-4.036.578-6.062.436-5,1.065-9.994.786-15.01-.648-11.653-.138-23.341-1.139-34.983-.348-4.045-.485-8.107-.746-12.16a80.068,80.068,0,0,1-.121-8.152c1.491,2.078,2.853,21.72,2.957,37.673.082,12.608.912,25.225-.78,37.821a10,10,0,0,0,2.021-3.76,86.618,86.618,0,0,0,1.387-14.342c.211-5.26-.307-10.512-.538-15.767-.239-5.452.169-10.912-.267-16.375-.271-3.4-.383-6.822-.592-10.234-.392-6.43-.32-12.877-.872-19.31-.3-3.431-.6-6.882-.667-10.344-.058-3.212-.445-6.419-.518-9.632-.06-2.621-.112-5.254-.225-7.862a71.472,71.472,0,0,1-.049-9.672,74.281,74.281,0,0,0-.8-16.542c-.619-4.766-.876-9.536-1.074-14.318-.148-3.577,0-7.168-.2-10.74-.168-2.929-.2-5.861-.21-8.785-.018-4.47.258-8.941.367-13.413.132-5.472-.239-10.938-.25-16.406-.015-7.766-.322-15.493-2.136-23.083-.751-3.145-1.858-6.046-4.4-8.355C66.213,6.3,57.276,3.559,47.567,2.743c-4.044-.34-8.1-.609-12.151-.785-3.425-.149-6.871.059-10.283-.206A121.831,121.831,0,0,0,8.464,1.9,18.245,18.245,0,0,0,1.536,3.488Z"/>
    <path d="M56.682,239.452c-7.8.791-15.535.007-23.3-.417.229-.735.822-.472,1.263-.48,6.305-.114,12.608-.451,18.917-.3a11.952,11.952,0,0,0,3.179-.678c.729-.18.579-1.177.645-1.783a65.925,65.925,0,0,0,.387-7.57c-.006-.9-.311-1.169-1.112-1.017-3.058.578-6.148.116-9.215.307a45.424,45.424,0,0,1-6.265.2c.97-1.1,2.173-.926,3.186-1.081a58.592,58.592,0,0,1,12.71-.924c.628.04.921-.184.872-.847a92.523,92.523,0,0,1-.214-9.667c.02-.657-.23-.934-.862-.828-3.736.623-7.533-.061-11.271.535a6.815,6.815,0,0,1-1.042.036q-7.611.012-15.222.013a1.884,1.884,0,0,1-1.535-.308,8.147,8.147,0,0,1,3.3-.486c3.711-.18,7.393-.7,11.12-.729,4.9-.039,9.8-.388,14.7-.535.988-.03,1.046-.745,1.052-1.269.021-2.111-.09-4.224-.158-6.336a6.566,6.566,0,0,0-.082-.737c-.134-.919.485-2.146-.242-2.685-.57-.423-1.72-.058-2.612-.057q-12.984.01-25.968.017h-1.55l-.043-.415a11.617,11.617,0,0,1,2-.443c4.056-.2,8.094-.6,12.164-.687,5.111-.106,10.222-.291,15.335-.214.833.013,1.06-.362,1.074-1.032.053-2.627.078-5.256.132-7.884.017-.818-.559-.658-1.027-.665a8.83,8.83,0,0,1-4.6-.793c1.529-.12,3.058-.229,4.584-.371.384-.036,1.034.238,1.005-.5-.028-.713-.668-.433-1.047-.443-5.657-.146-11.292.384-16.939.572-3.23.107-6.467.03-9.7.038-1.361,0-2.737.506-4.14-.206.869-.711,1.985-.519,2.92-.607,3.546-.331,7.109-.5,10.669-.644,3.916-.16,7.843-.11,11.749-.385,1.88-.133,3.752-.249,5.632-.236.584,0,.8-.2.8-.761-.007-3.075,0-6.151,0-9.173-2.293-.033-4.563.293-6.824-.187-1.392-.295-2.75.282-4.138.237-5.415-.176-10.822.2-16.228.366-5.778.18-11.545.716-17.318,1.074a21.652,21.652,0,0,1-2.3-.119c.994-1.087,2.1-.763,2.959-.892a84.8,84.8,0,0,1,9.429-.956c5.349-.195,10.7-.49,16.042-.73,5.616-.251,11.222-.063,16.831-.212.348-.01.7-.015,1.044,0,.439.017.68-.162.567-.612-.125-.5-.441-.141-.7-.131q-4.825.2-9.651.372a1.5,1.5,0,0,1-1.186-.45c1.507-.816,3.177-.62,4.726-.944a21.507,21.507,0,0,1,6.223-.265c.861.073.639-.434.594-.77-.055-.406.47-1.129-.613-1.112-1.789.027-3.546.306-5.316.485-.525.053-1.051.3-1.678-.13a1.83,1.83,0,0,1,1.372-.624c1.773-.108,3.485-.765,5.29-.6.513.047.66-.192.7-.7a45.577,45.577,0,0,0-.333-4.889c-.026-.733-.6-.517-1-.513a12.609,12.609,0,0,1-3.709-.5c1.176-.777,2.437-.473,3.652-.563.312-.023.756.126.747-.443s-.43-.445-.756-.426c-6.4.376-12.8.369-19.2.439-4.613.05-9.229-.1-13.843-.159a1.529,1.529,0,0,1-1.556-.746c1.7-.153,3.291-.365,4.885-.425,6.158-.229,12.32-.3,18.483-.363,3.524-.038,7.045.077,10.567.033.784-.01,1.153.053.97-1.116-.457-2.908-1.326-5.708-1.912-8.577a.846.846,0,0,0-.973-.814c-11.63-.085-23.25-.856-34.886-.531-2.121.06-4.229.542-6.545.19a6.143,6.143,0,0,1,3.5-1.03c6.018-.8,12.076-.653,18.132-.709,6.322-.058,12.6.712,18.918.689.39,0,.78-.053,1.243-.087a57.417,57.417,0,0,0-2.95-9.429,1.339,1.339,0,0,0-1.522-.964c-6.17.19-12.259-.969-18.408-1.152-1.774-.053-3.551-.008-5.6-.008a1.73,1.73,0,0,1,1.791-.925c7.1-.181,14.207-.54,21.315-.189.78.038,1-.111.637-.858a35.208,35.208,0,0,0-1.667-3.466,4.17,4.17,0,0,1-.324-4.191c.309-.717.5-1.483.774-2.29a21.354,21.354,0,0,1-5.583-.856,15.321,15.321,0,0,1,4.92-.66A1.738,1.738,0,0,0,49.57,123.2c.551-1.587,1.118-3.164,1.538-4.792.185-.719.055-1.107-.836-1.071-1.571.062-3.146.017-4.717.017-.078-.721.4-.8.738-.861a22.415,22.415,0,0,1,4.4-.625c.667.015,1.127-.032,1.109-.92a10.9,10.9,0,0,1,.321-2.194c.358-1.907.365-1.888-1.619-1.972-1.82-.077-3.667.192-5.463-.475,2.35-.9,4.845-.636,7.493-.878-1.031-.909-2.174-.2-3.21-.6a2.911,2.911,0,0,1,2.408-.955c.84-.07,1-.408.926-1.095a1.251,1.251,0,0,1,0-.15c.064-3.151.055-3.061-3.006-3.368-1.435-.143-2.861-.2-4.3-.243a1.613,1.613,0,0,1-1.436-.692c2.924-.681,5.821-.381,8.89-.517-.72-.879-1.5-.47-2.145-.56a12.985,12.985,0,0,0-1.491-.026c-.259,0-.543-.068-.588-.345a.488.488,0,0,1,.432-.515,9.375,9.375,0,0,1,1.595-.308c2.167-.126,2.21-.26,2.371-2.467.108-1.482-.341-1.946-1.788-1.668a29.308,29.308,0,0,1-6.124.2c.844-1.169,2-.889,2.9-1.089a20.411,20.411,0,0,1,3.841-.347c.9-.024,1.225-.341,1.178-1.246a22.954,22.954,0,0,1,.019-3.727c.137-1.224-.091-1.92-1.48-1.659a3.292,3.292,0,0,1,0-.366c1.79-.216,1.885-1.444,1.721-2.843a8.611,8.611,0,0,1-.005-.895,7.931,7.931,0,0,0-.093-2.661c-.351-.895-1.55.025-2.3-.613.582-.631,1.363-.63,2.357-.67-1.959-.755-3.823-.312-5.925-.956,1.451-.764,2.709-.54,3.857-.741,2-.349,2.012-.263,1.84-2.171-.009-.1,0-.2-.013-.3-.1-1.027.449-2.375-.232-3.005-.731-.676-2.086-.215-3.168-.252a35.963,35.963,0,0,1-6.23-.291,1.544,1.544,0,0,1-1.193-.65,14.04,14.04,0,0,1,4.2-.306c1.885-.063,3.778-.01,5.664.066.845.033.982-.342.964-1.061-.04-1.591-.065-3.186,0-4.775.039-.952-.106-1.506-1.247-1.4a4.689,4.689,0,0,1-1.461-.375c.31-1.051,1.214-.627,1.844-.826.3-.093.909.259.8-.488-.066-.471-.36-.653-.836-.645-1.144.017-2.289.012-3.433-.005-.262,0-.674.126-.7-.307-.015-.33.313-.469.609-.549a8.706,8.706,0,0,1,3.094-.323c.769.072,1.09-.188,1.012-.993-.134-1.379-.223-2.762-.3-4.145-.05-.86-.747-.7-1.211-.726-2.369-.11-4.717-.411-7.065-.715-.222-.029-.5.064-.652-.33a2.609,2.609,0,0,1,1.864-.553,32.364,32.364,0,0,1,5.794.258c.433.1,1.046.223,1-.632-.072-1.238-.124-2.479-.134-3.719-.01-1.311-.616-1.812-1.906-1.6a11.676,11.676,0,0,1-1.683.013c.9-1.274,2.06-1.165,3.148-1.336-2.75-.991-5.725.115-8.489-1.186,1.374-.143,2.746-.326,4.123-.415,1.14-.074,2.288-.054,3.432-.041.574.007.88-.084.914-.8a46.781,46.781,0,0,0-.34-4.739c-.039-.735-.664-.668-1.1-.711a2.661,2.661,0,0,1-1.77-.543c.727-.79,1.758-.066,2.851-.74-2.3-1.024-4.713-.271-7.093-1.322,2.3-.663,4.349-.164,6.424-.462-.332-.658-.9-.515-1.394-.544-.351-.021-.82-.023-.79-.455.026-.368.479-.441.847-.437.248,0,.5-.021.746,0,.644.05.757-.288.655-.83a17.9,17.9,0,0,1-.484-2.911c-.018-1.029-.538-1.089-1.312-1.041a34.28,34.28,0,0,1-5.269-.416l-.027-.435h6.112c-.977-1.037-2.174-.791-3.459-1.133a3.4,3.4,0,0,1,2.453-.685c.817.059.947-.378.805-1-.408-1.779-.853-3.549-1.274-5.324-.141-.594-.4-.922-1.107-.881a4.814,4.814,0,0,1-3.04-.738,16.431,16.431,0,0,1,2.226-.155c1.143.1,1.474-.282,1.124-1.4-.513-1.641-.947-3.307-1.372-4.973-.169-.665-.241-.933-1.137-.667-2.09.62-4.227-.252-6.356-.122-.235.014-.437-.169-.392-.345a.7.7,0,0,1,.656-.51c1.238-.1,2.476-.2,3.717-.261.886-.041,1.776-.008,2.788-.008-.613-1.526-1.207-2.926-1.736-4.351-.3-.8-.934-.71-1.561-.772q-2.947-.294-5.889-.636a1.2,1.2,0,0,1-.894-.465c.2-.506.65-.369,1.023-.38a28.854,28.854,0,0,1,5.784.324,2.506,2.506,0,0,1,2.144,1.453,103.287,103.287,0,0,1,7.688,22.973,141.876,141.876,0,0,1,2.48,16.686c.557,6.42.874,12.84,1.2,19.271.347,6.834.59,13.668.9,20.5A110.191,110.191,0,0,1,55.1,106.615,102.173,102.173,0,0,1,51.5,123.388a36.736,36.736,0,0,1-2.606,5.827c-.238.441-.443.726-.138,1.313,3.6,6.911,6.7,14.049,8.275,21.7a83.819,83.819,0,0,1,1.635,14.33c.169,5.492.595,10.978,1.022,16.457.221,2.828.133,5.657.28,8.486a67.607,67.607,0,0,1-.486,13.209,39.055,39.055,0,0,0,.013,5.006c-.14,7.148.3,14.314-.333,21.443-.382,4.338-.648,8.743-2.341,12.867-1.11,2.7-3.155,4.686-5.236,6.585-1.1,1.008-2.766.637-4.137.694-4.023.167-8.057.073-12.086.036a18.129,18.129,0,0,1-2.413-.351,2.313,2.313,0,0,1,2.075-.724c4.656-.057,9.237-1.145,13.9-.964.491.02,1.055-.149,1.451.184.624.524.953.155,1.306-.291C53.988,246.285,56.287,243.368,56.682,239.452Z"/>
    <path d="M76.969,92.685c-.738-3.286-.642-6.363-.865-9.409-.333-4.568.058-9.149-.2-13.71-.363-6.5-.147-13.026-.673-19.491-.568-6.992-.419-13.986-.838-20.964a25.006,25.006,0,0,0-3.883-12.122,1096.39,1096.39,0,0,1,3.1,113.077c-.5-.452-.312-1.029-.36-1.551-.054-.593-.1-1.188-.112-1.783-.264-11.578-.476-23.157-.8-34.733-.19-6.75-.638-13.494-.822-20.245-.207-7.554-.2-15.115-.374-22.671-.121-5.263-.273-10.53-.623-15.781-.347-5.229-.927-10.444-1.469-15.659a6.869,6.869,0,0,0-2.812-5.424c-1.95-1.344-3.641-3.058-5.749-4.206-.242-.133-.785-.23-.544-.708s.646-.253,1.036-.13c1.665.522,2.837,1.782,4.167,2.79,1.382,1.048,2.641,2.257,4.008,3.326,3.243,2.539,4.3,6.292,5.534,9.928,1.29,3.816,1.218,7.872,1.893,11.792.869,5.047.574,10.09.411,15.13-.072,2.222-.16,4.457-.119,6.667.133,7.095.449,14.187.648,21.281.113,4.069.061,8.138.2,12.2A3.841,3.841,0,0,1,76.969,92.685Z"/>
    <path d="M59.656,92.946c-.1-2.017-.322-3.592-.244-5.153.246-4.965-.06-9.924-.035-14.885.027-5.22-.1-10.437-.5-15.632-.408-5.326-.892-10.649-1.652-15.949-.756-5.273-1.4-10.567-2.55-15.765A110.758,110.758,0,0,0,49.264,6.943c-.131-.317-.236-.647-.338-.975-.089-.288-.173-.611.181-.772.379-.173.493.158.659.4a22.106,22.106,0,0,1,2.8,6.31,141.465,141.465,0,0,1,4.877,22.018c.756,6.08,1.69,12.141,2.32,18.234.807,7.8,1.149,15.638,1.322,23.486a134.588,134.588,0,0,1-.67,15.75C60.372,91.83,60.371,91.83,59.656,92.946Z"/>
    <path d="M68.311,60.249c-1.147-2.007-5.132-45.3-4.465-47.583,1.222.963,1.166,2.411,1.273,3.611.569,6.361.951,12.735,1.815,19.072a202.411,202.411,0,0,1,1.323,21.376A12.314,12.314,0,0,1,68.311,60.249Z"/>
    <path d="M79.728,162.985c-1.3-11.131-1.834-22.323-2.1-33.5.89.207.98.4,1.3,1.586.536,1.984.228,4.024.531,6.037a88.289,88.289,0,0,1,.667,12.44c.031,3.668.186,7.334.277,11,.02.79,0,1.581,0,2.372Z"/>
    <path d="M65.581,107.455c-.636-2.9-.423-5.789-.569-8.646-.354-6.938-.492-13.887-.716-20.831-.01-.3-.021-.6,0-.894.019-.329-.047-.783.441-.773.317.007.405.352.467.669A55.4,55.4,0,0,1,66.336,85.5c.26,7,.022,14-.255,20.994C66.067,106.824,66.13,107.2,65.581,107.455Z"/>
    <path d="M60.925,154.708a5.974,5.974,0,0,1-.9-3.031,50.237,50.237,0,0,0-5.052-13.993c-1.007-1.941-2.218-3.748-3.254-5.661-.216-.4-.73-.835-.074-1.263.564-.368.968.049,1.249.445a51.5,51.5,0,0,1,3.432,5.022,34.121,34.121,0,0,1,4.1,12.75C60.622,150.813,61.188,152.614,60.925,154.708Z"/>
    <path d="M61.324,33.02c-1.194-2.774-1.461-5.728-2.022-8.61-1.008-5.17-1.879-10.367-2.825-15.549-.081-.44-.363-1.03.163-1.165.544-.138.724.535.878.973a54.74,54.74,0,0,1,1.974,8.606c.736,4.128,1.555,8.245,1.993,12.423A7.785,7.785,0,0,1,61.324,33.02Z"/>
    <path d="M62.984,186.87c-.754-.841-.584-1.867-.669-2.746-.185-1.918-.343-3.859-.36-5.777-.058-6.445-.368-12.871-.985-19.285-.035-.367-.319-.92.216-.99.609-.08.375.55.416.891.433,3.624.917,7.243,1.255,10.876.27,2.908.212,5.851.572,8.745a34.089,34.089,0,0,1-.039,7.1C63.358,186.061,63.467,186.486,62.984,186.87Z"/>
    <path d="M56.271,123.33c-.151-2.173.538-4.051.925-5.939a94.506,94.506,0,0,0,1.9-16.814c.02-.83-.181-2.4.533-2.344.89.07.655,1.569.665,2.444a67.224,67.224,0,0,1-2.7,20.238A3.967,3.967,0,0,1,56.271,123.33Z"/>
    <path d="M13.565,228.855c1.065-.557,22.965-1.49,24.258-1.1C36.966,228.631,15.373,229.659,13.565,228.855Z"/>
    <path d="M70.714,208.662a32.162,32.162,0,0,1-.054,5.538,124.171,124.171,0,0,1-.969,13.613c-.056.444.111,1.191-.635,1.068-.524-.087-.292-.762-.268-1.155.208-3.357.366-6.72.721-10.063.272-2.564-.139-5.158.442-7.7A1.564,1.564,0,0,1,70.714,208.662Z"/>
    <path d="M65.215,192.605c-.128-6.875.391-13.291.763-19.712C66.817,174.779,66.3,190.915,65.215,192.605Z"/>
    <path d="M73.671,134.055c.326,4.618.859,9.233.12,13.994C72.8,146.737,72.666,135.52,73.671,134.055Z"/>
    <path d="M10.253,138.319a6.047,6.047,0,0,1,3.622-.9c2.512-.171,5.043-.067,7.565-.06.26,0,.65-.13.7.3.046.357-.218.54-.543.562a96.757,96.757,0,0,1-10.491.6A1.259,1.259,0,0,1,10.253,138.319Z"/>
    <path d="M13.745,238.666c.423-.6.913-.41,1.327-.411q6.265-.022,12.53,0c.451,0,1.217-.239,1.217.442s-.769.43-1.212.432c-3.729.014-7.459,0-11.188-.01A5.574,5.574,0,0,1,13.745,238.666Z"/>
    <path d="M68.591,234.324a8.01,8.01,0,0,1-.15,4.17,60.775,60.775,0,0,1-2.386,8.673c-.156.418-.293,1.141-.946.846-.453-.205-.178-.777-.051-1.2,1.039-3.476,2.42-6.852,3-10.468C68.151,235.742,67.909,234.966,68.591,234.324Z"/>
    <path d="M68.47,173.932c.079.057.216.108.216.162.048,3.566.346,7.136-.206,10.692-.047.307-.054.683-.424.645-.291-.03-.425-.4-.432-.7a58.248,58.248,0,0,1,.633-10.653C68.266,174.016,68.4,173.978,68.47,173.932Z"/>
    <path d="M11.77,202.208c1.5-.952,2.828-.752,4.047-.9,2.106-.248,4.239-.279,6.363-.365.442-.017,1.14-.225,1.162.525.02.7-.638.633-1.117.636-2.333.017-4.666.061-7,0C14.211,202.079,13.222,202.567,11.77,202.208Z"/>
    <path d="M68.181,76.689c-.41-1.842-.271-3.7-.54-5.543-.284-1.946-.263-3.936-.384-5.907-.021-.328-.246-.781.182-.9.542-.149.448.418.483.7C68.405,68.913,68.974,72.788,68.181,76.689Z"/>
    <path d="M13.921,214.186c3.277-.619,6.6-.359,9.9-.411.323,0,.649.1.667.434.02.366-.357.375-.64.477a8.527,8.527,0,0,1-3.248.216c-2.233-.068-4.463-.219-6.694-.335Z"/>
    <path d="M11.48,190.444c2.619-1.188,5.406-1.333,8.19-1.5a.447.447,0,0,1,.526.4c.04.352-.234.461-.528.593-1.076.481-2.245.278-3.36.445A33.054,33.054,0,0,1,11.48,190.444Z"/>
    <path d="M18.1,251.27a5.451,5.451,0,0,1,1.957-.443c2.556-.171,5.113.3,7.671-.026.375-.049,1.036-.209.98.511-.044.581-.621.352-.964.354-3.2.019-6.4.011-9.6.011Z"/>
    <path d="M72.53,218.67v-8.357C73.566,214.048,73.471,217.532,72.53,218.67Z"/>
    <path d="M13.6,163.716a14.132,14.132,0,0,1,5.716-1.284c.334-.014.61.115.619.462a.667.667,0,0,1-.569.614c-1.884.257-3.775.462-5.664.683Z"/>
    <path d="M71.062,235.993c.569,2.071,0,4.036-.237,6.031-.039.335-.192.7-.623.694a.416.416,0,0,1-.424-.5C70.192,240.142,70.631,238.068,71.062,235.993Z"/>
    <path d="M71.284,172.376a11.862,11.862,0,0,1,.434,4.658.546.546,0,0,1-.553.573.484.484,0,0,1-.507-.444A8.661,8.661,0,0,1,71.284,172.376Z"/>
    <path d="M43.905,87.952c1.581-.726,3.153-.323,4.608-.673.225-.055.467.167.516.434.043.226-.105.348-.331.374C47.159,88.261,45.615,88.655,43.905,87.952Z"/>
    <path d="M73.009,240.479c-.488-1.668.041-3.234.357-4.821A6.93,6.93,0,0,1,73.009,240.479Z"/>
    <path d="M73.715,169.351a4.894,4.894,0,0,1,.657,3.085c-.039.342-.173.737-.614.678-.4-.052-.506-.409-.5-.784A6.033,6.033,0,0,1,73.715,169.351Z"/>
    <path d="M40.4,18.826a1.9,1.9,0,0,1,2.308-.367c.177.073.194.442.033.5A2.606,2.606,0,0,1,40.4,18.826Z"/>
  </g>
</svg>
