<svg xmlns="http://www.w3.org/2000/svg" viewBox="0 0 81.074 264.386">
  <g>
    <path d="M35.52,67a2.594,2.594,0,0,0,1.961,1.041,44.8,44.8,0,0,0,11.835.314c.96-.067,1.927-.04,2.891-.057,3.6-.065,7.15-.638,10.729-.9a20.686,20.686,0,0,1,4.8.083,12.464,12.464,0,0,0,2.279.082,5.794,5.794,0,0,1,2.218.423,1.558,1.558,0,0,1,1.194,1.436c.1.886-.494,1.109-.986,1.43A16.326,16.326,0,0,1,65.675,73.1c-2.366.345-4.732.694-7.1,1-2.1.266-4.194.506-6.3.692a81.244,81.244,0,0,0-9.656,1.6,21.93,21.93,0,0,0-4.768,1.535c-.473.221-1.061.47-1.043,1.025.018.514.639.71,1.077.841a15.077,15.077,0,0,0,5.405.606c1.875-.128,3.754-.044,5.636-.251,4.518-.5,9.061-.7,13.568-1.382a52.134,52.134,0,0,1,9.333-.559,4.079,4.079,0,0,1,1.952.526,1.6,1.6,0,0,1,.926,1.442c-.04.542-.542.852-1.045,1.067a26.564,26.564,0,0,1-6.083,1.734c-6.639,1.1-13.3,2.075-19.934,3.2a28.3,28.3,0,0,0-7.107,2.063c-.329.151-.921.212-.822.7.081.405.652.514,1.012.524,1.564.048,3.132.064,4.694-.011,1.311-.063,2.613-.358,3.922-.393,4.516-.122,8.99-.628,13.47-1.173a47.369,47.369,0,0,1,11.506-.054,1.786,1.786,0,0,1,1.559.965c.328.7-.221,1.148-.585,1.57-1.461,1.69-3.546,2.109-5.58,2.486-3.952.733-7.93,1.329-11.894,2-3.885.66-7.8,1.163-11.625,2.139a19.179,19.179,0,0,0-5.281,1.988,9.5,9.5,0,0,0,2.9.3,17.571,17.571,0,0,1,3.6-.114,72.425,72.425,0,0,0,13.8-1.362A54.053,54.053,0,0,1,72.52,96.765a26.9,26.9,0,0,1,2.86.278,1.687,1.687,0,0,1,1.5,1.055c.219.67-.269,1.11-.695,1.532-1.5,1.481-3.493,1.87-5.4,2.414-7.867,2.242-16,3.285-23.919,5.307-.871.223-1.738.461-2.846.755a8.6,8.6,0,0,0,4.357.438c2.9-.155,5.8-.411,8.681-.853a113.8,113.8,0,0,1,12.368-1.336c1.879-.081,3.757-.155,5.637-.207a10.571,10.571,0,0,1,2.132.306,1.559,1.559,0,0,1,1.221,1.206c.172.665-.277,1.047-.778,1.348-2.022,1.212-4.34,1.543-6.548,2.212-4.68,1.418-9.569,1.674-14.33,2.64a92.855,92.855,0,0,0-10.179,2.227c.222.475.591.436.929.433,4.718-.051,9.411-.433,14.107-.884,4.923-.473,9.786-1.65,14.786-1.3,1.538.108,2.983.624,2.94,1.383-.069,1.193-1.041,1.812-1.979,2.375-2.521,1.516-5.381,1.954-8.193,2.5-3.713.727-7.439,1.391-11.169,2.029-2.473.423-4.963.754-7.445,1.131a1.832,1.832,0,0,0-.372.16,16.588,16.588,0,0,0,4.843-.226c3.723-.4,7.434-.913,11.149-1.385,2.963-.377,5.918-.826,8.889-1.117a13.407,13.407,0,0,1,4.9.154c1.189.325,1.424.942.686,1.906a11.954,11.954,0,0,1-6.006,4.031c-3.143,1.014-6.365,1.782-9.525,2.75-3.267,1-6.545,2.112-8.778,4.9a19.761,19.761,0,0,0-3.687,8.314,66.513,66.513,0,0,0-1.066,18.33c.473,7.754,2.424,15.16,4.759,22.519,1.877,5.917,3.356,11.962,5.28,17.862A109.6,109.6,0,0,1,65.5,217.58a111.131,111.131,0,0,1,1.378,13.15c.137,2.765.348,5.527.479,8.292A23.3,23.3,0,0,1,64.6,252.173c-1.594,2.768-2.973,5.663-5.85,7.325a41.642,41.642,0,0,1-8,3.6,26.568,26.568,0,0,1-10.091,1.225,13.2,13.2,0,0,1-6.093-1.879,50.023,50.023,0,0,1-8.617-6.118,28.565,28.565,0,0,1-8.309-16.44,111.675,111.675,0,0,1-1.394-21.591c.122-4.732.184-9.473.521-14.192.418-5.842.8-11.68.658-17.535-.154-6.3-.239-12.6-.754-18.888a43.8,43.8,0,0,1-.179-5.767c.224-4.464-1-8.742-1.512-13.109-.822-6.983-3.057-13.639-4.425-20.488-.889-4.455-1.629-8.947-2.807-13.333C6.194,109.2,4.319,103.5,3.339,97.569c-.625-3.78-1.14-7.577-1.6-11.383A156.651,156.651,0,0,1,.755,70.028C.7,66.916.507,63.793.278,60.686A135.027,135.027,0,0,1,.15,45.526,84.768,84.768,0,0,1,2.217,28.082C3,24.951,4.953,22.526,6.478,19.824,9.81,13.918,14.971,10.092,20.7,6.843A51.533,51.533,0,0,1,39.176.734,88.456,88.456,0,0,1,59.693.465a31.269,31.269,0,0,1,6.167.771,12.273,12.273,0,0,1,6.016,3.757c.889,1.031.707,2.121-.576,2.6A20,20,0,0,1,62.329,8.61c-.276-.026-.549-.106-.824-.111Q54.1,8.37,46.686,8.26a27.2,27.2,0,0,0-5.307.752,3.559,3.559,0,0,0-.754.361c-.453.213-.716.512-.507,1.045a.9.9,0,0,0,.982.652c2.548.015,5.047.606,7.582.74,2.314.123,4.579.569,6.874.813,4.117.437,8.243.409,12.37.482a7.857,7.857,0,0,1,3.911.914c1.229.72,1.278,1.49.226,2.435-1.357,1.22-3.032,1.337-4.725,1.445-2.932.187-5.848-.283-8.782-.177-5.132.187-10.267.29-15.4.412a6.121,6.121,0,0,0-1.987.328,6.647,6.647,0,0,0,2.813.844,44.008,44.008,0,0,0,4.54.3c2.565-.1,5.12.352,7.676.348,2.645,0,5.3-.191,7.943-.094a22.912,22.912,0,0,1,6.237.926c.972.314,1.923.792,1.909,1.887-.012,1-.927,1.568-1.792,1.924a12.057,12.057,0,0,1-3.635.728,107.835,107.835,0,0,1-13.724.223c-3.011-.144-6.007-.061-9.009-.1-1.692-.019-3.349.215-5.178.181a4.505,4.505,0,0,0,2.746.9c3.192.4,6.4.671,9.592,1.074,4.193.53,8.4.819,12.606,1.107a38.365,38.365,0,0,1,6.508.8c1.047.255,2.466.431,2.438,1.864-.026,1.352-1.395,1.444-2.411,1.726a36.826,36.826,0,0,1-8.577.938c-6.974.255-13.934.784-20.909,1.049-1.748.066-3.6-.118-5.6.666a16.049,16.049,0,0,0,4.549.935,154.2,154.2,0,0,0,17.53.5c3.96,0,7.883.55,11.829.748a8.048,8.048,0,0,1,1.6.436c.657.177,1.216.469,1.317,1.22.106.793-.509,1.129-1.043,1.472A11.344,11.344,0,0,1,66.2,42.465c-6.12.754-12.245,1.385-18.428,1.542a78.442,78.442,0,0,0-12.762,1.187,2.675,2.675,0,0,0,1.962.635c2.579.254,5.171.407,7.762.518,6.6.283,13.2.727,19.807.781a48.923,48.923,0,0,1,5.9.7,1.464,1.464,0,0,1,1.405,1.13c.132.743-.582.912-1.053,1.273-2.316,1.775-5.128,1.472-7.757,1.887-2.714.428-5.452.713-8.18,1.054q-3.617.453-7.233.893a62.99,62.99,0,0,0-11.737,2.2,9.171,9.171,0,0,0-1.178.588c1.113,1.108,2.528.968,3.742,1.027a87.3,87.3,0,0,0,9.279.017c5.562-.325,11.126-.531,16.693-.41a35.5,35.5,0,0,1,5.367.415c.8.141,1.466.488,1.561,1.257.1.819-.621,1.247-1.3,1.527a24.391,24.391,0,0,1-5.326,1.327c-3.7.611-7.439.858-11.15,1.4-4.973.721-9.928,1.525-14.86,2.482A10.154,10.154,0,0,0,35.52,67ZM75.327,98.753a45.79,45.79,0,0,0-8.569-.138c-3.993.268-7.914.985-11.846,1.594a85.333,85.333,0,0,1-13.418.62,4.244,4.244,0,0,1-1.048-.229c-.846-.229-1.676-.584-1.754-1.563s.675-1.517,1.49-1.822c1.194-.447,2.411-.849,3.643-1.175a70.265,70.265,0,0,1,10.129-1.659c3.129-.354,6.19-1.087,9.3-1.522a40.365,40.365,0,0,0,8.3-1.644A7.747,7.747,0,0,0,74.4,89.559a7.51,7.51,0,0,0-1.248-.273,70.83,70.83,0,0,0-9.228-.075c-3.289.356-6.574.78-9.869,1.1a108.878,108.878,0,0,1-11.815.89,6.14,6.14,0,0,1-2.45-.481c-.775-.342-1.575-.731-1.6-1.743-.03-1.047.82-1.415,1.574-1.758a22.6,22.6,0,0,1,4.769-1.553c7.68-1.587,15.4-2.961,23.189-3.884a16.219,16.219,0,0,0,5.175-1.363,2.788,2.788,0,0,0-.715-.288,46.063,46.063,0,0,0-7.668.339c-3.155.466-6.314.921-9.507,1.1-2.152.121-4.292.388-6.447.526-3.725.24-7.423.465-11.079-.541-1.079-.3-2.426-1.464-2.392-2.283A2.593,2.593,0,0,1,36.928,77c3.757-1.692,7.8-2.228,11.8-2.9,2.785-.468,5.589-.832,8.392-1.179,3-.373,5.969-1.015,8.993-1.259a15.554,15.554,0,0,0,6.245-2.278c-1.554-.961-3.184-.731-4.669-.8-5.6-.257-11.176.459-16.761.842a80.826,80.826,0,0,1-12.5-.22,10.914,10.914,0,0,1-3.261-.708,1.943,1.943,0,0,1-1.31-1.446c-.141-.748.336-1.2.878-1.583A10.423,10.423,0,0,1,37.566,64.2a46.5,46.5,0,0,1,12.156-1.871c4.631-.245,9.226-.753,13.825-1.276a14.815,14.815,0,0,0,5.373-1.388A87.867,87.867,0,0,0,58.5,59.123c-1.12.017-2.2.291-3.345.236a57.481,57.481,0,0,0-6.015.064,68.6,68.6,0,0,1-11.964.144,6.256,6.256,0,0,1-2.993-1.162c-1.429-1.054-1.336-2.289.263-3.137A11.1,11.1,0,0,1,38.2,54.083c4.462-.595,8.873-1.534,13.394-1.747,3.664-.173,7.311-.686,10.974-.889a22.276,22.276,0,0,0,7.3-2.048A46.4,46.4,0,0,0,59.9,48.075c-4.519-.145-9.023-.527-13.538-.711-2.681-.11-5.372,0-8.045-.3a15.7,15.7,0,0,1-3.958-.81c-.594-.23-1.3-.448-1.326-1.219-.021-.795.735-1,1.3-1.246A13.945,13.945,0,0,1,38.449,43c4.11-.424,8.252-.2,12.366-.692,4.409-.53,8.875-.445,13.284-1.027A29.7,29.7,0,0,0,70.215,40.1a37.016,37.016,0,0,0-8.777-1.191c-3.772-.052-7.544-.073-11.322.116a51.787,51.787,0,0,1-8.006-.434,27.254,27.254,0,0,1-6.544-1.149c-.812-.3-1.677-.56-1.709-1.586-.03-1,.674-1.556,1.52-1.952a12.629,12.629,0,0,1,5.032-1.018c5.938-.187,11.881.078,17.822-.232,3.635-.19,7.3.225,10.909-.531a4.452,4.452,0,0,0,2.081-.617,20.555,20.555,0,0,0-7.376-1.5c-4.783-.239-9.552-.6-14.325-.976-2.7-.212-5.391-.452-8.069-.808a7.8,7.8,0,0,1-3.424-.929c-.763-.5-1.558-1.122-1.426-2.05.146-1.025,1.142-1.381,2.09-1.53a25.2,25.2,0,0,1,6.2-.073c4.333.388,8.688.548,13.036.763a56,56,0,0,0,8.056-.265A10.753,10.753,0,0,0,70.435,23.1a.585.585,0,0,0-.516-.381,62.884,62.884,0,0,0-12.9-1.409c-4.154-.164-8.281-.67-12.437-.8a23.607,23.607,0,0,1-5.332-1.221c-.7-.191-1.258-1.309-.844-1.6a6,6,0,0,1,2.28-1.246,23.309,23.309,0,0,1,5.914-.218c3.322.2,6.667-.052,10,.036,3.449.09,6.9.332,10.346.162a6.323,6.323,0,0,0,4.009-1.066,7.687,7.687,0,0,0-1.188-.343c-2.9-.29-5.785-.68-8.7-.742-2.285-.048-4.586-.039-6.847-.314q-4.451-.543-8.91-.917a26.771,26.771,0,0,1-5.189-.7,3.638,3.638,0,0,1-1.872-2.39,2.006,2.006,0,0,1,1.486-1.707c.183-.077.36-.172.549-.23C43.84,6.925,47.548,6.982,51.2,6.9c5.571-.121,11.149.143,16.725.213A6.472,6.472,0,0,0,70.753,6.7c.267-.122.725-.293.292-.669C69.693,4.86,68.523,3.286,66.666,2.99,63.3,2.454,59.913,2.051,56.52,1.762a83.58,83.58,0,0,0-18.127.651,44.142,44.142,0,0,0-23.461,10.3A33.92,33.92,0,0,0,4.486,28.4,58.06,58.06,0,0,0,1.743,47.408c.081,5.214,0,10.429.237,15.643.144,3.155.227,6.311.48,9.462.341,4.253.6,8.515,1.227,12.739.721,4.857,1.459,9.712,2.277,14.553.726,4.288,1.778,8.511,2.784,12.742,1.226,5.158,2.341,10.343,3.668,15.474,1.06,4.1,2.288,8.154,3.2,12.3.484,2.2.2,4.456.774,6.656a50.392,50.392,0,0,1,1.481,9.851c.42,7.084.569,14.179,1.172,21.259.361,4.229.123,8.508.284,12.765a117.392,117.392,0,0,1-.432,12.018c-.316,4.891-.389,9.8-.313,14.693.116,7.41-.361,14.848,1.231,22.194,1.24,5.721,3.259,11.049,7.522,15.181a30.924,30.924,0,0,0,9.573,6.07,9.751,9.751,0,0,0,3.13.663,25.748,25.748,0,0,0,12.437-2.223c2.625-1.166,5.4-2.152,7.415-4.371a20.868,20.868,0,0,0,5.664-15.419,108.35,108.35,0,0,0-1.08-12.936c-.53-3.2-.705-6.465-1.322-9.647a155.254,155.254,0,0,0-4.866-18.7C56.269,192.2,54.355,186,52.467,179.787c-2.439-8.021-3.028-16.3-3.118-24.613a39,39,0,0,1,.918-7.564A41.843,41.843,0,0,1,55.5,133.991a2.26,2.26,0,0,1,.671-.83,33.471,33.471,0,0,1,9.021-4.363,71.816,71.816,0,0,0,9.181-2.6,14.213,14.213,0,0,0,5.105-3.415c-.587,0-.9,0-1.2,0-2.767-.051-5.485.478-8.227.689-3.585.277-7.124.878-10.681,1.329a63.159,63.159,0,0,1-9.922.647,3.077,3.077,0,0,1-1.375-.389,1.118,1.118,0,0,1-.2-2.03,4.9,4.9,0,0,1,2.3-.961c4.185-.859,8.47-.937,12.677-1.652,3.372-.574,6.806-.787,10.114-1.723a13.215,13.215,0,0,0,4.914-2.364,26.255,26.255,0,0,0-9.145.109,93.314,93.314,0,0,1-12.34,1.5c-3.009.123-6.027.041-9.041.017a5.677,5.677,0,0,1-1.646-.284,1.617,1.617,0,0,1-1.22-1.359c-.064-.626.405-1.008.9-1.312a8.728,8.728,0,0,1,2.768-1.117c4.954-1.044,9.969-1.729,14.983-2.383A82.654,82.654,0,0,0,74.6,109.259a4.462,4.462,0,0,0,2.253-1.1,1.951,1.951,0,0,0-1.451-.32,96.851,96.851,0,0,0-15.669.945c-3.511.491-7.02,1.015-10.543,1.4a13.837,13.837,0,0,1-5.715-.4c-.8-.254-1.582-.634-1.638-1.542-.053-.858.643-1.312,1.387-1.621a22.1,22.1,0,0,1,4.7-1.419c3.729-.647,7.456-1.3,11.213-1.79a100.292,100.292,0,0,0,11.321-2.353C72.132,100.638,73.911,100.358,75.327,98.753Z"/>
    <path d="M57.4,92.566c-7.111.688-14.121,2.035-21.279,3.2.639,2.649,1.4,5.424,2.292,8.167.124.382.29.207.523.148A116.882,116.882,0,0,1,52.5,102c2.569-.335,5.169-.38,7.715-.892a2.963,2.963,0,0,1,.715.063c-.729.842-1.69.672-2.467.8-3.893.639-7.8,1.2-11.736,1.538a44.915,44.915,0,0,0-7.271,1.364c-.644.164-.625.387-.455.893.763,2.269,1.539,4.536,2.212,6.832.186.631.514.61.938.53,3.045-.571,6.086-1.166,9.131-1.74,2.51-.473,5.056-.655,7.594-.875,1.189-.1,2.388-.552,3.628.082-.749.119-1.494.29-2.247.349a113.126,113.126,0,0,0-14.83,2.541c-1.01.215-2.032.389-3.057.515-.575.072-.753.282-.585.837.542,1.791,1.065,3.587,1.6,5.38.142.475.468.4.86.325a35.7,35.7,0,0,1,6.177-.668c1.793-.03,3.582-.257,5.373-.4.228-.018.467-.1.724.172a1.849,1.849,0,0,1-1.507.49,86.605,86.605,0,0,0-10.7,1.186c-.465.084-.6.118-.435.638.845,2.66,1.67,5.327,2.43,8.012.187.663.536.543.973.481,5.906-.836,11.556-2.815,17.406-3.9,1.238-.229,2.495-.359,3.921-.56-.579.952-1.468.718-2.088.806a86.409,86.409,0,0,0-12.7,3.131c-2.013.6-4.126.874-6.2,1.279-.356.07-.8.027-.743.551.069.615.47.3.809.245,2.312-.373,4.648-.6,6.925-1.177.08-.02.191.081.437.195a11.15,11.15,0,0,1-3.757,1.163c-1.127.243-2.261.446-3.389.683-.237.05-.6-.054-.568.422.03.385.37.386.587.51.3.169.605.019.921-.063,1.4-.366,2.8-.692,4.276-1.048-.1.612-.478.614-.816.717-1.256.382-2.491.836-3.76,1.166-.691.18-.8.484-.638,1.118a15.969,15.969,0,0,1,.638,4.972c-.017.266-.094.537-.325.587-.287.062-.367-.213-.394-.467-.744-7-3.5-13.453-5.432-20.13C39.839,111.85,36.623,103.25,34.21,94.4a155.581,155.581,0,0,1-3.7-18.034c-.593-3.986-.739-8.026-1.067-12.044-.546-6.693-.461-13.386-.383-20.078.038-3.266.47-6.527.833-9.786.939-8.417,3.837-16.369,5.654-24.575a13.035,13.035,0,0,1,1.111-2.757c.255-.528.461-1.13,1.4-.879.456.121,1.07-.452,1.638-.634,3.73-1.19,7.566-1.067,11.4-.847,2.837.163,5.671.4,8.506.6.452.032.992-.15,1.212.479H56.38c-2.932,0-5.864-.05-8.794.016-3.242.074-6.345,1.007-9.478,1.725-.557.128-.746.693-.878,1.2-.39,1.5-.764,3.009-1.111,4.382,3.851-.248,7.493,1.034,11.227,1.8l-.063.44c-1.294-.149-2.594-.259-3.88-.457-1.977-.3-3.958-.544-5.953-.67-.08-.005-.176.022-.239-.012-1.714-.939-1.663.55-1.913,1.455-.371,1.341-.6,2.722-.924,4.077-.143.6.04.78.64.775A82.9,82.9,0,0,1,48.7,21.987c.622.1,1.363-.283,1.93.431a30.34,30.34,0,0,1-6.269-.259,33.545,33.545,0,0,0-5.733-.219,17.807,17.807,0,0,1-3.724-.126c-.628-.069-.884.095-.98.667-.35,2.082-.707,4.163-1.054,6.245-.078.471.015.563.6.568a80.735,80.735,0,0,1,13.041,1.034,49.535,49.535,0,0,0,7.119.875c2.558.065,5.109.415,7.675.449a1.227,1.227,0,0,1,1.133.631c-2.116-.308-4.112-.057-6.106-.208-3.432-.261-6.855-.619-10.3-.708-4.207-.108-8.421-.117-12.615-.506-.656-.06-.852.146-.916.7q-.42,3.628-.846,7.255c-.07.593.1.828.778.815,2.531-.046,5.063-.012,7.594-.014a66.812,66.812,0,0,1,8.5.648c1.627.206,3.279.2,4.92.3a1.463,1.463,0,0,1,1.283.391c-.582.039-.95.084-1.318.085-3.215.005-6.431.057-9.645-.019-1.77-.041-3.507.29-5.272.262a60.049,60.049,0,0,1-6.23-.453c-.3-.035-.883-.367-.841.4.159,2.925-.456,5.835-.209,8.726a78.824,78.824,0,0,1,17.7-.463,17.378,17.378,0,0,1-5.391.637c-4.02-.174-7.938.893-11.937.781-.366-.01-.379.1-.417.359a21.2,21.2,0,0,0-.089,5.858,14.9,14.9,0,0,1,.066,3.124c-.08.991.344,1.2,1.174,1.037,4.129-.8,8.3-.37,12.458-.448a1.642,1.642,0,0,1,.418.143,1.517,1.517,0,0,1-1.161.532c-2.431.172-4.865.31-7.3.5-1.623.129-3.242.31-4.857.518-.432.056-.753.26-.668.893.343,2.53.324,5.093.639,7.632.1.835.175,1.194,1.127,1.109,3.181-.285,6.371-.471,9.555-.724,4.164-.331,8.336-.253,12.507-.258,1.344,0,2.676-.456,4.1-.111-.149.532-.583.553-.945.557-2.725.029-5.42.446-8.143.569-4.786.215-9.593.183-14.354.864A9.229,9.229,0,0,1,33.3,73.1c-1.131-.139-1.3.423-1.146,1.317.37,2.2.753,4.4,1.117,6.6.194,1.176.358,2.358.533,3.524,4.857-.763,9.646-.454,14.66-.679a3.01,3.01,0,0,1-2.208.775c-3.153.464-6.319.841-9.481,1.239a7.941,7.941,0,0,1-.964.014c-1.739,0-1.777.007-1.478,1.678.351,1.961.812,3.9,1.154,5.864.132.758.444,1.029,1.194.911,2.792-.438,5.6-.8,8.377-1.308,1.032-.19,2.069-.182,3.1-.3,2.858-.313,5.742-.4,8.616-.566a4.409,4.409,0,0,1,.593.045Z"/>
    <path d="M26.062,189.2c.008,5.454-.844,11.923-1.029,18.422-.247,8.667-.972,17.339-.52,26a34.4,34.4,0,0,0,2.578,12.517c.159.351.478.8-.005,1.058s-.8-.158-1.059-.527a19.617,19.617,0,0,1-2.322-4.981c-2.246-6.686-2.379-13.547-1.794-20.483.155-1.837.125-3.691.134-5.537.045-9.718.721-19.411,1.093-29.116.265-6.9.232-13.808-.176-20.7a44.855,44.855,0,0,1-.221-8.233c.043-.344-.122-.873.294-.949.524-.1.367.493.475.79A38.98,38.98,0,0,1,25.4,168.072C25.892,174.752,26.168,181.439,26.062,189.2Z"/>
    <path d="M23.514,134.665c.423,1.063.785,1.909,1.1,2.772a83.866,83.866,0,0,1,4.6,19.349,210.486,210.486,0,0,1,1.2,34.726c-.173,3.246.023,6.532-.4,9.739a171.526,171.526,0,0,0-1.213,21.977,69.615,69.615,0,0,0,1.4,16.248A46.133,46.133,0,0,0,35.018,251.2c.1.176.2.348.288.528.115.242.361.532.023.732-.279.166-.552-.053-.724-.28a17.805,17.805,0,0,1-1.025-1.465A45.009,45.009,0,0,1,27.3,230.01a133.961,133.961,0,0,1,.127-21.39c.891-9.926,1.135-19.86,1.375-29.8.149-6.187-.422-12.344-.839-18.512a100.95,100.95,0,0,0-2.111-15.319c-.616-2.749-1.517-5.433-2.252-8.157A3.053,3.053,0,0,1,23.514,134.665Z"/>
    <path d="M42.412,247c-6.416.119-9.879-5.485-8.46-11.137a8.384,8.384,0,0,1,1.825-3.623c1.607-1.8,2.963-3.86,5.526-4.555,6.209-1.685,11.919,2.23,11.284,9.282a11.294,11.294,0,0,1-8.317,9.839C43.588,247,42.914,246.854,42.412,247Zm-.576-3.148a8.837,8.837,0,0,0,8.287-6.446,5.779,5.779,0,0,0-.9-5.121,5.2,5.2,0,0,0-4.593-2.159,10.172,10.172,0,0,0-6.274,2.807,7.019,7.019,0,0,0-1.761,3.511C35.5,240.527,37.848,243.834,41.836,243.855Z"/>
    <path d="M5.231,70.227A37.976,37.976,0,0,1,5.8,76.7c.253,3.7.961,7.33,1.444,10.993.477,3.617,1.04,7.214,1.723,10.8A81.726,81.726,0,0,0,12.911,113.4c2.086,5.266,3.316,10.765,4.721,16.213,1.035,4.013,1.99,8.049,3.09,12.046a44.538,44.538,0,0,1,1.25,6.778c.054.468.011,1.208-.392,1.261-.691.09-.633-.754-.709-1.169a78.026,78.026,0,0,0-2.815-10.8c-1.951-5.792-3.591-11.681-4.965-17.617-1.811-7.822-4.125-15.531-5.466-23.457C6.8,91.77,5.9,86.893,5.349,81.957A69.473,69.473,0,0,1,4.9,70.941C4.912,70.717,4.84,70.455,5.231,70.227Z"/>
    <path d="M14.094,26.385a34.8,34.8,0,0,1,1.36-7.863c-3.08,4.877-3.844,10.469-5.039,15.949a55.133,55.133,0,0,1,1.6-11.394,25.947,25.947,0,0,0-2.708,5.667,63.988,63.988,0,0,0-3.2,21.274c-.007,2.651,0,5.3-.01,7.953,0,.329.176.845-.311.911-.529.071-.43-.517-.491-.808a16,16,0,0,1-.386-3.451c.049-4.374-.2-8.753.226-13.121a46.737,46.737,0,0,1,6.4-20.037,34.419,34.419,0,0,1,5.377-7.341c.212-.2.252-.81.778-.4a.846.846,0,0,1,.405,1.027c-.3.823-.57,1.659-.9,2.471a53.625,53.625,0,0,0-2.4,8.122A1.187,1.187,0,0,1,14.094,26.385Z"/>
    <path d="M41.471,254.514c1.364.01,2.7-.114,4.033-.059,4.665.193,10.092-3.6,11.7-8.013a31.4,31.4,0,0,0,2.112-10.136A68.126,68.126,0,0,0,58.55,227c-.872-7.3-3.341-14.247-4.829-21.411-.758-3.651-1.228-7.36-2.019-11.01a3.918,3.918,0,0,1,.082-1.512,5.282,5.282,0,0,1,.7,2.3c1.753,8.61,4.233,17.043,6.248,25.589A61.471,61.471,0,0,1,60.172,231.1a37.658,37.658,0,0,1-.33,10.537c-1.256,5.753-3.624,10.742-9.758,12.868-2.664.923-5.345.612-8.041.383a.777.777,0,0,1-.317-.161A2.712,2.712,0,0,1,41.471,254.514Z"/>
    <path d="M39.039,117.66a22.751,22.751,0,0,1-2.637-7.1c-1.168-5.177-3.053-10.141-4.533-15.225-1.146-3.94-2.341-7.875-3.154-11.9q-1.371-6.8-2.143-13.687a11.759,11.759,0,0,1,.057-4.024C29.763,83.277,35.052,100.312,39.039,117.66Z"/>
    <path d="M29.684,19.423c-.341,1.9-.707,3.8-1.018,5.706-.616,3.771-1.18,7.547-1.629,11.346-.706,5.961-.449,11.933-.379,17.9.027,2.313.14,4.639.174,6.96,0,.326.167.84-.344.886-.545.049-.551-.485-.6-.864-.386-3.25-.624-6.508-.8-9.78-.139-2.566-.138-5.124-.167-7.685a51.054,51.054,0,0,1,1.192-9.6A131.24,131.24,0,0,1,28.782,21.1c.17-.591.41-1.161.618-1.74Z"/>
    <path d="M32.177,193.174a26.55,26.55,0,0,1,.641,6.429,92.678,92.678,0,0,1-1.077,16.061,49.674,49.674,0,0,0,.018,11.044c.122,1.435.277,2.868.392,4.3.02.243.154.64-.248.683-.317.035-.411-.3-.527-.565a10.958,10.958,0,0,1-.618-3.028,64.193,64.193,0,0,1,.08-16.9,100.74,100.74,0,0,0,1.076-16.183A3.272,3.272,0,0,1,32.177,193.174Z"/>
    <path d="M9.325,68.153c.349.054.363.325.388.61.154,1.716.4,3.428.458,5.146.12,3.606.366,7.2.781,10.784.367,3.166.962,6.306,1.424,9.463A115.211,115.211,0,0,0,16.7,112.587c.3.945.688,1.866.94,2.823.086.328.6.842.085,1.04-.606.232-.59-.535-.734-.867a72.082,72.082,0,0,1-2.461-7.573,133.792,133.792,0,0,1-3.545-17.041,136.978,136.978,0,0,1-1.794-16.2C9.093,72.843,9.023,70.922,9,69,8.995,68.679,8.947,68.339,9.325,68.153Z"/>
    <path d="M16.13,51.609a53.428,53.428,0,0,1-.294,9.327,56,56,0,0,0,.317,9.6c.333,3.182.657,6.365,1.058,9.539a29.484,29.484,0,0,0,.878,5.541c.1.306.271.8-.148.941-.443.153-.576-.352-.7-.66a21.473,21.473,0,0,1-1.222-5.831c-.459-3.731-.969-7.46-1.275-11.2a59.254,59.254,0,0,1,.225-13.216,23.954,23.954,0,0,1,.534-3.3C15.588,52.036,15.633,51.735,16.13,51.609Z"/>
    <path d="M53.977,237.852a9.162,9.162,0,0,1,.587-2.573c1.1-4.2.33-8.311-.581-12.413-1.013-4.564-2.361-9.06-2.949-13.708-.355-2.8-.962-5.577-1.052-8.413-.007-.214-.125-.459.186-.713a10.5,10.5,0,0,1,.768,3.078q.843,4.375,1.572,8.774a33.591,33.591,0,0,0,1.068,5.6,55.973,55.973,0,0,1,2.255,9.889,17.277,17.277,0,0,1-.567,8.768A2.665,2.665,0,0,1,53.977,237.852Z"/>
    <path d="M15.291,93.537c-1.2-1.063-1.016-2.269-1.2-3.294-1.032-5.817-1.368-11.724-2.125-17.579A73.294,73.294,0,0,1,11.9,60.18c.014-.318.031-.772.39-.781.464-.011.294.47.322.758.319,3.24.121,6.492.227,9.738.105,3.2.547,6.364.916,9.537.3,2.616.5,5.245.8,7.862C14.778,89.268,15.213,91.218,15.291,93.537Z"/>
    <path d="M23.291,43.878c-.507-.5-.306-1.09-.248-1.612.521-4.743,1.117-9.476,1.845-14.195a84.523,84.523,0,0,1,2.353-9.106c.684-2.529,1.437-5.039,2.042-7.59a3.381,3.381,0,0,1,.3-.906c.212-.369.125-1.176.816-.938.564.2.282.782.141,1.235q-.67,2.164-1.308,4.341a143.709,143.709,0,0,0-4.5,18.524c-.449,2.873-.7,5.778-1.017,8.67A2.865,2.865,0,0,1,23.291,43.878Z"/>
    <path d="M41.212,122.478a45.113,45.113,0,0,1,2.522,7.605,79,79,0,0,1,2.531,12.992c.086.917.07,1.843.108,2.764.013.3-.018.657-.315.7-.4.058-.492-.385-.564-.661a15.467,15.467,0,0,1-.244-2.5c-.614-6.492-2.625-12.687-3.949-19.027-.125-.595-.267-1.186-.4-1.779Z"/>
    <path d="M31.827,161.186a28.065,28.065,0,0,1,.766,5.079,79.33,79.33,0,0,1,.75,14.358,59.544,59.544,0,0,1-.458,6.467c-.05.361-.066.825-.556.721-.409-.086-.216-.54-.2-.829.251-4.488.349-8.981.245-13.473-.09-3.915-.528-7.808-.877-11.706A.563.563,0,0,1,31.827,161.186Z"/>
    <path d="M19.3,64.327c.02,3.114-.016,5.764.268,8.407.047.44.36,1.217-.411,1.283-.652.056-.673-.71-.728-1.176a59.914,59.914,0,0,1-.47-8.285c.046-2.244.124-4.487.193-6.729.014-.441.026-1.04.52-1.073.452-.03.417.564.487.946C19.591,60.056,19.15,62.43,19.3,64.327Z"/>
    <path d="M48.566,205.26a8.154,8.154,0,0,1,.688,3.3c.437,3.557.636,7.156,1.3,10.667.55,2.889,1.481,5.7,1.356,8.693-.021.5.1,1.055-.6,1.358C50.5,221.34,48.147,213.63,48.566,205.26Z"/>
    <path d="M39.731,171.289a22.954,22.954,0,0,1,.838,5.673c.224,3.991.475,7.976.934,11.95a58.341,58.341,0,0,1,.286,8.289c-.009.312.053.76-.369.765-.579.008-.331-.525-.341-.816-.169-4.717-.434-9.425-.918-14.123-.2-1.951-.244-3.922-.271-5.885a28.472,28.472,0,0,0-.449-4.764,5.937,5.937,0,0,1-.009-1.059Z"/>
    <path d="M17.442,24.793c0-3.947,1.261-7.6,2.631-11.222.149-.394.317-.831.813-.7.6.165.423.678.308,1.1-.671,2.459-1.692,4.81-2.182,7.331-.357,1.838-.585,3.69-.852,5.538-.035.241-.024.561-.3.576-.33.017-.411-.293-.412-.584C17.44,26.156,17.442,25.474,17.442,24.793Z"/>
    <path d="M34.532,214.5c0,.717.057,1.4-.01,2.072a47.29,47.29,0,0,0,.707,11.812c.062.412.38,1.076-.285,1.236-.7.17-.815-.543-.918-1.008a31.349,31.349,0,0,1-.579-9.176,27.713,27.713,0,0,1,.631-4.483C34.124,214.765,34.112,214.549,34.532,214.5Z"/>
    <path d="M42.8,177.26a5.577,5.577,0,0,1,.874,2.977,77.609,77.609,0,0,1,.757,13.753c-.008.41.158,1.053-.439,1.063-.568.01-.491-.633-.495-1.046-.022-2-.018-4.009-.02-6.014a56.782,56.782,0,0,0-.655-7.259A29.821,29.821,0,0,1,42.8,177.26Z"/>
    <path d="M37.43,129.464a15.027,15.027,0,0,1,1.312,4,49.544,49.544,0,0,1,1.525,7.372c.034.319.061.64.07.96.009.349.093.85-.354.883-.424.03-.5-.506-.539-.831a37.93,37.93,0,0,0-.7-3.887c-.507-2.212-.971-4.434-1.449-6.653A3.023,3.023,0,0,1,37.43,129.464Z"/>
    <path d="M20.756,24.324a44.942,44.942,0,0,1,1.132-7.841c.511-1.751,1.033-3.5,1.552-5.248.127-.431.271-.95.852-.729.515.2.258.666.146,1.039-.753,2.509-1.563,5-2.24,7.532-.408,1.526-.614,3.107-.9,4.665A.575.575,0,0,1,20.756,24.324Z"/>
    <path d="M63.8,50.363a2.963,2.963,0,0,1-1.755.523c-3.123.113-6.247.222-9.372.28-1.481.028-2.923.311-4.383.466-.356.038-1.045.386-1.1-.213-.051-.5.624-.443,1.054-.487,1.188-.119,2.373-.351,3.561-.372C55.8,50.487,59.783,49.991,63.8,50.363Z"/>
    <path d="M36.572,215.93c.564,3.436.139,6.587.555,9.7.053.4-.055.858-.588.884-.6.03-.683-.467-.753-.9a23.275,23.275,0,0,1,.1-5.873A14.06,14.06,0,0,1,36.572,215.93Z"/>
    <path d="M48.144,225.977c-.974-3.339-1.808-6.691-1.032-10.212l.332-.037,1.2,10.175Z"/>
    <path d="M35.155,203.926v-13.04C35.918,192.333,36.02,202.6,35.155,203.926Z"/>
    <path d="M45.062,178.991a8.646,8.646,0,0,1,.775,3.33c.324,1.832.432,3.7.6,5.56.03.351.175.948-.372.96-.576.013-.381-.583-.408-.947-.2-2.613-.5-5.215-.912-7.8A.923.923,0,0,1,45.062,178.991Z"/>
    <path d="M24.809,17.873c-.1-1.83.616-3.5.93-5.247.084-.468.2-.93.317-1.392.1-.421.2-1.072.693-.949.581.145.359.818.26,1.258a36,36,0,0,1-.956,3.694A5.3,5.3,0,0,1,24.809,17.873Z"/>
    <path d="M38.774,217.644c.484,2.186.2,4.4.578,6.571.069.388.055.9-.425,1-.58.115-.626-.528-.645-.822C38.14,222.121,37.939,219.837,38.774,217.644Z"/>
    <path d="M31.105,16.4a12.286,12.286,0,0,1,.647-4.019c.3-1.145.668-2.277,1.063-3.393.127-.359.205-1.044.748-.849.524.187.213.731.074,1.144-.569,1.685-1.134,3.371-1.671,5.067A4.769,4.769,0,0,1,31.105,16.4Z"/>
    <path d="M41.785,137.171a10.768,10.768,0,0,1,1.088,3.4c.308,1.189.552,2.4.791,3.6.076.38.155.905-.366.992-.456.075-.492-.389-.553-.754-.381-2.27-.777-4.537-1.157-6.807C41.573,137.513,41.672,137.407,41.785,137.171Z"/>
    <path d="M21.871,60.773c.129,1.335.276,2.669.378,4.006a7.715,7.715,0,0,0,.188,1.656c.093.31.136.718-.251.814-.469.116-.536-.322-.645-.664a8.181,8.181,0,0,1-.233-2.957C21.36,62.671,21.025,61.658,21.871,60.773Z"/>
    <path d="M54.2,127c-.567.734-1.312.611-1.923.731-1.713.338-3.444.591-5.176.825-.283.038-.819.32-.9-.208-.078-.5.427-.444.778-.494,2.161-.309,4.32-.632,6.482-.936A3.369,3.369,0,0,1,54.2,127Z"/>
    <path d="M42.517,215.223a21.722,21.722,0,0,1,.714,6.423c0,.185.031.424-.25.453a.366.366,0,0,1-.432-.315A21.045,21.045,0,0,1,42.517,215.223Z"/>
    <path d="M37.088,190.422a21.453,21.453,0,0,1,.386,6.2c-.051.314-.055.719-.518.622-.383-.079-.215-.465-.221-.711a40.649,40.649,0,0,0-.164-4.44A2.149,2.149,0,0,1,37.088,190.422Z"/>
    <path d="M61.941,70.355c2.4-.647,4.7-.221,7.157-.436C67.845,70.861,62.886,71.17,61.941,70.355Z"/>
    <path d="M50.041,60.737a33.484,33.484,0,0,1,7.32-.61C56.244,60.84,50.82,61.339,50.041,60.737Z"/>
    <path d="M69.056,90.888a29.8,29.8,0,0,1-5.885,1.174.469.469,0,0,1-.519-.4c-.065-.294.154-.426.414-.45A26.534,26.534,0,0,1,69.056,90.888Z"/>
    <path d="M45.082,215.867a36.753,36.753,0,0,1,.565,4.937c.007.452-.017,1-.58.99-.517-.013-.435-.565-.434-.954,0-1.274-.01-2.549.035-3.822C44.68,216.662,44.51,216.207,45.082,215.867Z"/>
    <path d="M36.441,135.842c.339,1.877.682,3.721,1,5.571.06.352.037.808-.431.834-.391.022-.279-.419-.314-.663q-.357-2.484-.669-4.973A.6.6,0,0,1,36.441,135.842Z"/>
    <path d="M38.808,188.894a22.8,22.8,0,0,1,.742,5.378c.015.276-.016.723-.45.69-.291-.021-.409-.362-.418-.651q-.08-2.616-.13-5.232C38.551,189.037,38.669,188.992,38.808,188.894Z"/>
    <path d="M46.623,178.736a8.338,8.338,0,0,1,.912,4.234c.007.157-.2.324-.307.486-.174-.158-.5-.311-.5-.473C46.691,181.575,46.272,180.177,46.623,178.736Z"/>
    <path d="M58.731,119.469c1.73-.922,3.646-.172,5.436-.6A12.892,12.892,0,0,1,58.731,119.469Z"/>
    <path d="M13.7,34.089c-.608-1.673-.279-3.065-.322-4.425,0-.077.238-.238.343-.221a.445.445,0,0,1,.3.3A12.544,12.544,0,0,1,13.7,34.089Z"/>
    <path d="M34.407,137.551c.283,1.278.571,2.554.843,3.834a.486.486,0,0,1-.31.584c-.3.086-.394-.222-.443-.432A6.952,6.952,0,0,1,34.407,137.551Z"/>
    <path d="M61.505,40.94H57.558l-.008-.355a29.607,29.607,0,0,1,3.951.028Z"/>
    <path d="M63.92,100.705a7.206,7.206,0,0,1-2.525.543C62.112,100.547,62.112,100.547,63.92,100.705Z"/>
  </g>
</svg>
