<svg xmlns="http://www.w3.org/2000/svg" viewBox="0 0 166.345 229.485">
  <g>
    <path d="M59.108,43.412c-5.3.273-10.366-.627-15.453-.559-5.348.071-10.684.3-16.038-.02-5.142-.3-10.258.522-15.388.788a47.627,47.627,0,0,1-8.833-.5C1.911,42.923.6,42.469.135,40.858c-.476-1.643.378-2.831,1.474-3.9a1.827,1.827,0,0,1,.739-.528c2.044-.473,2.1-1.924,2.11-3.665A34.461,34.461,0,0,1,8.9,16.778c1.705-3.209,2.685-6.844,5.237-9.557,1.813-1.928,3.461-4.367,6.325-4.652,1.87-.186,3.818-.115,5.728-.156,5.122-.11,10.255.327,15.368-.279a5.194,5.194,0,0,1,.611-.025c7.129.037,14.25-.31,21.378-.373,6.258-.056,12.527-.059,18.776-.324,3.868-.164,7.744.053,11.589-.275,4.99-.424,9.986.035,14.956-.314,4.073-.286,8.152.026,12.2-.306C125.4.163,129.716.41,134.037.253c1.964-.072,3.9-.52,5.893-.018a22.665,22.665,0,0,1,15.58,13.032c1.108,2.346,2.2,4.7,3.345,7.027.713,1.455,1.584,2.66,3.506,2.665a5.112,5.112,0,0,1,2.863,1.279,2.856,2.856,0,0,1-.078,4.594,16.352,16.352,0,0,1-7.5,2.818,1.516,1.516,0,0,1-.884-.172c-3.318-1.715-6.711-.233-10.05-.156-3.371.078-6.73.686-10.094,1.072q-6.623.759-13.244,1.531c-.262.03-.485.059-.542.391-.264,1.549-1.711,2.623-1.623,4.377.041.833-.926,1.253-1.7,1.566-2.538,1.023-5.223.863-7.827.677-5.12-.366-10.1.648-15.135,1.129-1.52.145-3.048.206-4.572.3-.715.042-1.109.284-1,1.121,1.254,9.481.914,19.125,2.916,28.533.242,1.139.323,2.311.483,3.467a5.591,5.591,0,0,1-1.654,4.854c-.643.661-.716,1.126.081,1.695a4.477,4.477,0,0,1,1.508,2.922,167.018,167.018,0,0,1,3.022,17.988c.461,4.142.645,8.314,1.026,12.466.389,4.246.788,8.5,1.329,12.723.657,5.142,1.221,10.291,1.734,15.448.386,3.891.937,7.766,1.288,11.659.666,7.391,2.514,14.618,2.933,22.042a26.323,26.323,0,0,1-5.931,18.467c-.809,1.014-1.444,1.867-.712,3.229,1.933,3.592.657,7.08-2.02,9.637a3.444,3.444,0,0,0-1.117,2.638,36.208,36.208,0,0,1-3.687,15.014,8.642,8.642,0,0,1-1.291,1.883,3.609,3.609,0,0,1-5.761-.2,35.738,35.738,0,0,1-7-15.063,4.251,4.251,0,0,0-2.158-3.177c-2.45-1.578-4.431-3.6-4.635-6.785A6.5,6.5,0,0,1,72.17,199c.474-.764.234-1.115-.3-1.641-2.585-2.568-4.921-5.343-5.86-8.958a35.668,35.668,0,0,1-1.078-7.833c-.21-6.368-.383-12.744-.154-19.1.121-3.345.093-6.707.412-10.053.138-1.452-.239-2.948-.163-4.412.417-8.039.335-16.083.245-24.125-.044-3.869-.342-7.735-.284-11.611.092-6.04.79-12.036,1.2-18.052.2-2.957.5-5.98,2.108-8.421,1.224-1.86.621-2.791-.621-3.916-1.547-1.4-1.268-3.312-1.218-5.023.138-4.685-.3-9.364.043-14.052.4-5.428.612-10.87.945-16.3.126-2.072.176-2.074-1.957-2.081C63.3,43.407,61.112,43.412,59.108,43.412ZM72.661,195.9c-.618-1.593-1.341-3.154-1.835-4.784a54.176,54.176,0,0,1-1.935-18.152c.26-6.358.539-12.729.413-19.105-.092-4.638-.022-9.28-.009-13.92,0-.348-.157-.785.256-1.048.473.257.34.655.337.975-.052,5.5.283,11,.375,16.5.127,7.693-.744,15.377-.088,23.065A42.018,42.018,0,0,0,75.3,197.012a4.213,4.213,0,0,0,3.327,2.371c.051-.069.112-.12.1-.145-.242-.66-.47-1.328-.744-1.975a70.311,70.311,0,0,1-5.57-25.317q-.425-12.829.263-25.683a6.7,6.7,0,0,1,.818-3.351c0,4.072.09,7.791-.018,11.5-.254,8.74-.678,17.47.672,26.177,1.032,6.659,3.4,12.85,6.117,18.95.18.4.37.656.751.486.35-.156.176-.513.063-.8a64.127,64.127,0,0,1-2.762-9.868,68.97,68.97,0,0,1-1.684-17.938c.014-.33-.114-.738.485-.949.24,1.592.6,3.147.688,4.717a92.423,92.423,0,0,0,2.514,15.774c.689,2.933,1.623,5.807,2.374,8.727.151.587.353.775.9.689.448-.071.411-.425.343-.7a75.608,75.608,0,0,1-1.38-8.791c-.206-1.616-.774-3.274-.1-4.947A36.008,36.008,0,0,1,83.362,190c.613,3.31,1.217,6.622,1.855,9.927.167.866.886.446,1.37.444.614,0,.357-.391.27-.742-1.222-4.911-1.478-9.965-2.19-14.952a2.138,2.138,0,0,1,.724-2.184c.467,2.964.88,5.731,1.344,8.49.484,2.875,1.022,5.742,1.527,8.614.05.286.146.475.463.464s.437-.228.434-.5c-.006-.814.007-1.63-.054-2.44-.269-3.538-.566-7.074-.833-10.612-.019-.247-.168-.637.325-.721a2.072,2.072,0,0,1,.587,1.48c.361,3.622.735,7.243,1.145,10.859.046.413-.364,1.172.421,1.2.743.024.895-.6.888-1.294-.03-2.956.025-5.914-.037-8.869a7.3,7.3,0,0,1,.364-3.094c1.932,3.847,1.173,7.979,1.167,12.049,1.128-.123,1.5-.764,1.562-1.761.175-2.946.4-5.889.59-8.834a41.325,41.325,0,0,0,.262-5.179c-.322-5.234-.6-10.466-.549-15.711,0-.457-.132-.964.4-1.353.582,10.256,2.853,20.438.789,30.734a.986.986,0,0,0,1.07-.425,30.671,30.671,0,0,0,5.61-10.119c1.524-4.718.891-9.733-.044-14.488-1.439-7.317-1.816-14.724-2.588-22.1-.593-5.656-1.475-11.272-2.018-16.939-.587-6.12-1.131-12.244-1.7-18.366-.266-2.884-.541-5.767-.781-8.654-.361-4.359-1.254-8.637-1.991-12.937a28.728,28.728,0,0,0-2.282-8.435,19.615,19.615,0,0,1-4.259,3.775.661.661,0,0,0-.38.833c.249,1.34.377,2.7.557,4.054.586,4.411,1.281,8.811,1.7,13.236.143,1.491.63,3.037.272,4.564l-.422.048c-1.12-7.192-2.239-14.384-3.369-21.643-.464.19-.7.271-.931.382-3.206,1.568-7.383,1.707-10.07-1.685-.661-.835-1.379-1.625-2.077-2.431-1-1.149-1.347-1.122-2.033.174a22.224,22.224,0,0,0-2.364,7.92c-.622,5.422-1.25,10.856-1.51,16.3-.315,6.612-.551,13.256-.276,19.863.336,8.1.177,16.2.442,24.3.359,10.94-.117,21.905.712,32.836A14.567,14.567,0,0,0,72.661,195.9ZM134.429,1.592c-1.391-.409-2.715.157-4.067.192-2.945.076-5.895.129-8.837.21-7.015.191-14.028.365-21.038.7-3.046.145-6.1.118-9.145.226-7.163.254-14.334.334-21.5.693-2.994.15-5.987.022-8.993.244-5.162.382-10.355.562-15.527.611-7.685.072-15.36.275-23.024.75-1.637.1-3.487-.343-4.957.881a17.515,17.515,0,0,0-4.619,6.136c-1.4,2.982-2.745,5.992-4,9.037A42.385,42.385,0,0,0,6,34.844a34.5,34.5,0,0,1,9.222-1.212c11.112-.045,22.224-.247,33.334-.182,5.4.032,10.791.622,16.194.442,9.215-.306,18.436-.411,27.649-.834,5.548-.254,11.114.154,16.668-.161.806-.046,1.714.1,2.467-.81-7.875.487-15.586.521-23.3.6-7.636.078-15.269.3-22.879-.558a.716.716,0,0,1,.573-.34c3.3-.223,6.595-.029,9.893-.033,7.543-.011,15.086.007,22.63-.112,4.124-.065,8.189-.4,12.274-.765a2.567,2.567,0,0,0,2.65-1.951,43.048,43.048,0,0,1,1.682-4.688c.551-1.321.237-1.706-1.194-1.663-5.34.162-10.682.231-16.024.326-.515.009-1.031-.049-1.546-.075a4.778,4.778,0,0,1,2.708-.819c5.244-.166,10.485-.5,15.736-.332,1.3.04,1.3,0,1.5-1.43a82.633,82.633,0,0,0-11.592-.4,2.141,2.141,0,0,1-2.068-.819,7.224,7.224,0,0,1,.864-.09c4.332.142,8.648-.575,12.977-.28.963.065.974-.6,1.111-1.082.226-.8-.553-.523-.9-.608a8,8,0,0,0-1.667-.177c-4.023-.112-8.047-.205-12.07-.316-.486-.014-1.042.146-1.393-.422a1.84,1.84,0,0,1,1.538-.452c4.786-.119,9.57-.274,14.356-.313,1.166-.01,1.793-.308,1.862-1.465-16.881-.776-33.7,1.462-50.584.742a19.761,19.761,0,0,1,4.879-.808q8.452-.414,16.916-.537c9.319-.133,18.636-.481,27.955-.657a2.416,2.416,0,0,0,2.733-2.066c-4.307-.094-8.545-.544-12.815-.445s-8.5-.276-12.855-.392c.3-.7.716-.479,1.038-.521,4.721-.609,9.465-.231,14.2-.291,2.9-.037,5.861-.388,8.7.22,2.609.559,3.864-.792,5.034-2.38-3.271,0-6.568-.049-9.863.01-7.33.13-14.67.232-21.967.951-6.445.635-12.894.817-19.356.863-2.7.019-5.4-.028-8.1-.054-.533,0-1.118.14-1.524-.412A4.584,4.584,0,0,1,65.72,7.6c7.922-.343,15.836-.71,23.74-1.444,6.632-.615,13.314-.712,19.975-.992,5.752-.241,11.507-.414,17.261-.628a1.987,1.987,0,0,0,.867-.2A54.1,54.1,0,0,1,134.429,1.592ZM59.723,40.666c6.288-.2,13.06-.366,19.828-.646,2.9-.119,5.807-.2,8.7-.351,5.12-.273,10.221-.958,15.365-.631,4.226.269,8.408-.6,12.625-.458a2.479,2.479,0,0,0,2.385-1.288,24.423,24.423,0,0,0,2.084-3.852c1.6-4,2.557-8.22,4.228-12.211,2.411-5.757,5.321-10.854,11.635-13.238,3.6-1.36,6.819-1.423,9.711,1.26a18.785,18.785,0,0,1,4.638,7.46,65.429,65.429,0,0,0,4.389,10.513c1.059,1.823,1.92,2.2,3.889,1.557q1.74-.566,3.469-1.169c.766-.269,1.787-.543,1.711-1.468-.088-1.081-1.242-1.16-2.111-1.382a2.222,2.222,0,0,0-.61,0c-2.815.1-4.183-.809-5.376-3.471a124.914,124.914,0,0,0-5.553-11.545c-3.209-5.55-7.481-8.055-14.09-6.906-4.777.831-8.435,3.754-11.592,7.171-3.251,3.518-5.227,7.865-6.789,12.368-1.263,3.644-2.166,7.448-4.631,10.55-.731.92-1.541,1.812-3.011,1.336a4.136,4.136,0,0,0-1.965.015,68.478,68.478,0,0,1-10.111,1.1c-10.485.447-20.981.657-31.478.709-13.294.066-26.579-.85-39.882-.144-6.2.33-12.423-.393-18.641-.191a10.906,10.906,0,0,0-5.193,1.419c-.96.556-2.136,1.256-1.874,2.491.255,1.2,1.576,1.209,2.648,1.332a71.12,71.12,0,0,0,10.526.025c6.209-.21,12.424-.338,18.638-.053,3.928.18,7.821-.433,11.734-.6C49.764,40.175,54.5,40.552,59.723,40.666ZM75.385,51.539l-.4.051a6.457,6.457,0,0,1-.267-2.584c-.055-1.181-.547-1.648-1.674-1.628a5.146,5.146,0,0,1-2.518-.518c-1.1-.586-1.239-.152-1.261.86-.073,3.412,0,6.847-.385,10.227-.684,6.038-.792,12.084-.9,18.143a5.4,5.4,0,0,0,2.743,5.07c6.326,3.9,14.38,4.851,20.354-1.88a3.969,3.969,0,0,0,1.1-3.73,171.61,171.61,0,0,1-3.324-27.708c-.017-.444.361-1.338-.505-1.259-.735.068-1.817.075-1.72,1.429.2,2.791.021,5.646.542,8.37.917,4.8,1.06,9.68,1.769,14.5a11.568,11.568,0,0,1-.991,7.42c-.533.971-.508.988-1.653,1.3a14.612,14.612,0,0,0,1.257-8.2c-.95-7.616-1.856-15.237-2.116-22.916-.028-.825-.218-1.263-1.131-1.113-.688.113-1.594-.235-1.524,1.067.185,3.458.3,6.919.441,10.379.154,3.74.905,7.482-.133,11.218-.179.642-.055,1.369-.721,1.865a1.74,1.74,0,0,1-.152-1.5,17.22,17.22,0,0,0,.286-5.278c-.435-4.146-1.155-8.27-.981-12.468.059-1.426-.012-2.856.017-4.284.013-.645-.285-.759-.842-.712s-.584.314-.561.812c.1,2.086.136,4.176.157,6.265,0,.39.236.941-.539,1.166a44.586,44.586,0,0,1-.675-6.507c-.016-.847.159-1.782-1.254-1.724-1.378.056-.885,1.026-.86,1.646.116,2.9.655,5.766.585,8.677a1.986,1.986,0,0,1-.377,1.569c-.952-3.838-.98-7.8-1.783-11.655ZM89.776,207.09a4.949,4.949,0,0,1-.194,2.212c-.15.281-.2.691.088.813.4.173.6-.17.743-.545a13.6,13.6,0,0,0,.967-5.189c-.029-.946-.156-1.313-1.261-.948a9.545,9.545,0,0,1-9.484-1.452,3.05,3.05,0,0,0-1.216-.594,15.547,15.547,0,0,1-4.5-1.7c-.781-.445-1.029-.211-1.287.489a7.222,7.222,0,0,0,3.041,8.231c3.054,2.122,6.5,2.588,10.1,2.359,1.172-.074,2.065-.488,2.144-1.917A2.393,2.393,0,0,1,89.776,207.09Zm-3.159,21.187c1-.367.852-1.633,1.832-1.845a3.545,3.545,0,0,1,.1.49c.021.442-.722.979-.02,1.286.559.245,1.031-.313,1.405-.719a5.859,5.859,0,0,0,.663-1.018c1.388-2.361,1.746-5.027,2.254-7.648.315-1.626.635-3.252.912-4.886.052-.305.194-.82-.24-.911a.831.831,0,0,0-1.006.689c-.081.342-.212.673-.273,1.018-.318,1.783-.505,3.6-.96,5.345-.438,1.678-.828,3.435-2.154,4.741.258-1.593.657-3.132,1.056-4.671a14.85,14.85,0,0,0,.827-5.657c-.047-.365.121-.934-.558-.811-.456.083-1.089.087-.964.864a3.04,3.04,0,0,1,.152.895c-.214,1.3.179,2.76-.915,3.865a26.143,26.143,0,0,0,.138-4.382c0-.425.149-.948-.545-1.059-2.221-.357-4.263-1.346-6.536-1.651-1.677-.225-1.256.486-1.081,1.309a63.518,63.518,0,0,0,2.986,10.034A12.648,12.648,0,0,0,85.92,227.5c.6-.309.3-1.265,1.151-1.313C87.306,226.945,86.724,227.455,86.617,228.277ZM92.2,202.689a28.287,28.287,0,0,1,.015,3.564c-.064,1-.876,2.411-.165,2.886,1.1.735,2.064-.668,3.013-1.241,2.546-1.538,3.905-4.993,3.066-7.452-.112-.328-.109-.879-.5-.83a.963.963,0,0,0-.8.965c-.045,1.886-.916,3.585-1.246,5.409-.09.494-.166,1.108-.849,1.311a3.588,3.588,0,0,1,.182-1.817,4.072,4.072,0,0,0,.07-3.1c-.135-.3-.151-.777-.674-.568-.387.155-.938.212-.9.812s.143,1.2.235,1.8c.078.5.3,1.029-.224,1.53C92.731,204.887,93.132,203.592,92.2,202.689ZM123.558,32.281c5.048-1.268,10.177-1.227,15.189-2.045,4.928-.8,9.965-.711,14.874-1.682a2.358,2.358,0,0,0-2.053-.325c-3,.362-5.985.882-9.005,1.155-1.823.165-3.646.148-5.461.308-3.968.351-7.9,1.091-11.894,1.143C124.2,30.848,123.565,31,123.558,32.281Zm21.54-4.236c2.153-.282,4.335-.556,6.513-.862.4-.056,1.05.3,1.147-.322.058-.369-.316-.821-.535-1.214-.328-.585-.729-.111-1.043.007a11.584,11.584,0,0,1-2.072.34C147.589,26.271,145.631,25.762,145.1,28.045Zm6.291-3.931c-.277-.748-.5-1.254-.65-1.783-.157-.565-.555-.815-1.017-.584-.9.45-1.925,0-2.8.494-.384.216-1.257-.31-1.063.761.161.885.588,1.323,1.523,1.11A8.463,8.463,0,0,1,151.389,24.114Zm-2.126-6.2c-.276-1.145-.38-2.018-1.754-1.489a13.781,13.781,0,0,1-2.364.353c-.379.072-1.1-.354-1.037.536.06.8.683.727,1.24.691C146.58,17.931,147.789,17.447,149.263,17.918ZM147.59,14.3c-.157-.852-.6-.933-1.161-.883-.851.076-1.708.095-2.556.2-.3.036-.8-.042-.789.464.014.532.46.609.885.572C145.156,14.543,146.342,14.418,147.59,14.3Zm-2.584,5.273c-.04.88.494.908,1.092.9a21.329,21.329,0,0,1,3.271-.319c.4.053.519-.166.436-.551-.08-.367-.1-.654-.655-.518A14.806,14.806,0,0,1,145.006,19.568Zm.7-7.733c-.911-1.059-1.34-1.084-4.784-.3C142.557,12.841,144.125,11.891,145.708,11.835ZM142.613,9.28c-1.989-.518-2.5-.451-3.765.485C140.131,9.67,141.36,10.02,142.613,9.28Z"/>
    <path d="M94.148,115.266c.281,2.233.575,4.464.84,6.7.5,4.211,1,8.421,1.462,12.636.359,3.267.654,6.542.986,9.812.383,3.772.815,7.539,1.153,11.315.257,2.883.481,5.774.577,8.666.163,4.923.562,9.825,1,14.727a15.58,15.58,0,0,1,.017,2.139c-.017.356.231.968-.359.981-.44.009-.471-.541-.559-.956-.537-2.53-.5-5.126-.9-7.671-.911-5.821-.767-11.728-1.475-17.572-.6-4.918-.905-9.872-1.287-14.814-.539-6.981-.964-13.971-1.585-20.943-.149-1.678-.226-3.335-.244-5.005Z"/>
    <path d="M69.782,136.053c-.743-.594-.6-1.4-.7-2.017-.677-4.2-.273-8.418.043-12.627.049-.657.16-1.313.157-1.97-.041-8.558.587-17.092.949-25.635a3.606,3.606,0,0,1,.964-2.581C71.526,106.393,70.449,121.126,69.782,136.053Z"/>
    <path d="M79.136,146.663c-1.427-8.206-.316-16.541-1.184-24.8a8.262,8.262,0,0,1,1.1,4.674c.073,4.125.059,8.253.011,12.379C79.035,141.5,79.661,144.056,79.136,146.663Z"/>
    <path d="M81.034,158.925c.447,7.9.893,15.807,1.353,23.936C81.324,181.687,79.988,160.475,81.034,158.925Z"/>
    <path d="M85.117,101.94c1.669,6.677,1.523,13.485,1.874,20.259l-.749.055C86.169,115.46,85.294,108.728,85.117,101.94Z"/>
    <path d="M81.607,122.984c.436,3.631.1,7.05.253,10.546C80.606,132.761,80.384,124.7,81.607,122.984Z"/>
    <path d="M83.224,122.534a9.848,9.848,0,0,1,.732,4.6c-.014.206-.077.411-.336.383a.562.562,0,0,1-.537-.613C83.155,125.452,82.79,124,83.224,122.534Z"/>
    <path d="M35.736,30.038c-2.6,0-5.2.064-7.791-.015-4.231-.128-8.439.217-12.653.453-1.118.063-2.242.092-3.361.056-.983-.031-1.416-.439-1.119-1.563,1.019-3.859.981-4.078,5.052-4.143,7.746-.125,15.487-.617,23.236-.349,1.414.048,2.824.3,4.253.295.9,0,1.408.405,1.2,1.443-1.009,4.92.345,3.952-4.541,4-1.423.013-2.847,0-4.27,0Z"/>
    <path d="M70.606,29.979c-5.9-.866-12.385.828-18.941.64-1.262-.036-2.04-.088-1.371-1.6a.442.442,0,0,0,.011-.151c.044-1.252-.389-2.924.606-3.581.906-.6,2.457-.313,3.717-.262,5.851.236,11.688-.283,17.533-.274.814,0,1.628.038,2.441.08,2.389.124,2.594.358,2.319,2.674a12.538,12.538,0,0,0-.271,1.634c.013.733-.378.843-.95.841C74.227,29.976,72.754,29.979,70.606,29.979Z"/>
    <path d="M99.509,28.943c-5.4-.157-10.782.5-16.182.413-1.133-.018-1.588-.187-1.533-1.5.172-4.025.66-3.509,3.429-3.355,5.244.291,10.483.186,15.724.234a50.775,50.775,0,0,0,7.895-.617c2.092-.308,2.523.119,1.978,2.046-.778,2.745-.778,2.755-3.674,2.771C104.6,28.954,102.054,28.943,99.509,28.943Z"/>
    <path d="M27.279,8.513A102.786,102.786,0,0,1,56.335,8.1C46.666,9.4,36.975,9.117,27.279,8.513Z"/>
    <path d="M57.218,11.2c1.852-1.081,15.639-1.087,18.224-.008C74.5,11.732,58.4,11.739,57.218,11.2Z"/>
    <path d="M39.069,19.674c1.375-.112,2.749-.267,4.126-.326,1.779-.077,3.56-.095,5.34-.1.564,0,1.425-.223,1.413.68-.01.774-.846.777-1.419.794a27.541,27.541,0,0,1-4.579-.039C42.334,20.457,40.647,20.6,39.069,19.674Z"/>
    <path d="M44.4,22.028c2.947-.545,5.914-.28,9.03-.373C52.635,22.591,45.906,22.848,44.4,22.028Z"/>
    <path d="M38.3,17.2c1.126-.138,2.141-.271,3.158-.383a.58.58,0,0,1,.615.348c.124.283-.088.452-.286.608C41.13,18.289,39.124,18.028,38.3,17.2Z"/>
    <path d="M113.443,35.2a9.046,9.046,0,0,1,2.753.6c.249.106.621.223.507.618-.089.308-.409.215-.649.254-1.187.192-2.368.42-3.558.58-.684.092-1.607.3-1.77-.635-.158-.9.6-1.31,1.441-1.407C112.468,35.175,112.777,35.2,113.443,35.2Z"/>
    <path d="M131.592,8.084A31.443,31.443,0,0,1,127.968,13a1,1,0,0,1-1.477.294c-.562-.472-.241-1.01.2-1.426C128.1,10.542,129.313,8.953,131.592,8.084Z"/>
    <path d="M76.574,37.884c-2.124.815-4.3.6-6.463.627-.425,0-.866-.067-.908-.58-.048-.565.358-.838.863-.838A19.9,19.9,0,0,1,76.574,37.884Z"/>
    <path d="M21.446,38.642c-1.656.613-3.385.384-5.059.618-.594.083-1.311-.06-1.339-.875-.026-.767.582-.821,1.18-.789a15.636,15.636,0,0,1,4.063.277C20.776,38.027,21.251,38.089,21.446,38.642Z"/>
    <path d="M108.088,36.4a31.759,31.759,0,0,1-5.967.94c-.541.025-.915-.182-.97-.718a.709.709,0,0,1,.725-.813C103.956,35.839,106.082,35.4,108.088,36.4Z"/>
    <path d="M87.993,37.8a30.446,30.446,0,0,1-6.359,1.19.727.727,0,0,1-.821-.729c0-.4.087-.91.612-.909C83.474,37.36,85.558,36.88,87.993,37.8Z"/>
    <path d="M124.175,16.831a.6.6,0,0,1,.236.887q-1.355,3.111-2.726,6.214c-.128.289-.344.562-.693.459-.419-.123-.476-.5-.356-.861A20.826,20.826,0,0,1,124.175,16.831Z"/>
    <path d="M120.062,26.992a25.357,25.357,0,0,1-1.843,6.54.651.651,0,0,1-.98.391c-.45-.234-.434-.63-.254-1.043q1.313-3.008,2.624-6.016Z"/>
    <path d="M65.119,38.124c-1.891.126-3.781.271-5.674.364a.573.573,0,0,1-.634-.674c.038-.373.143-.765.579-.777,1.951-.051,3.938-.327,5.758.656Z"/>
    <path d="M32.33,38.037c-1.927,1.2-3.7.97-5.347,1.28a.827.827,0,0,1-.913-.845c-.022-.622.411-.839,1-.877A32.725,32.725,0,0,1,32.33,38.037Z"/>
    <path d="M43.457,37.357c-.823,1.058-1.787.966-2.615,1.126a20.508,20.508,0,0,0-2.093.248c-.7.207-1.452-.063-1.464-.867-.01-.721.75-.99,1.361-.832C40.135,37.419,41.657,37.2,43.457,37.357Z"/>
    <path d="M54.677,37.842c-2.058.873-3.742.617-5.4.679-.567.021-.963-.266-.96-.739a.843.843,0,0,1,.94-.792A17.6,17.6,0,0,1,54.677,37.842Z"/>
    <path d="M11.077,38.785a15.956,15.956,0,0,1-5.383.542.632.632,0,0,1-.581-.76.831.831,0,0,1,.931-.632c1.654.11,3.307.25,4.96.379Z"/>
    <path d="M97.669,37.2c-1.521.233-3.039.483-4.564.691-.464.064-1.006-.021-1.069-.585-.065-.582.346-.934.927-.99a9.881,9.881,0,0,1,4.725.454Z"/>
    <path d="M140.957,5.347c-1.68.25-3.246.491-4.815.711-.36.05-.742.021-.817-.454-.053-.332.132-.54.414-.728C136.677,4.25,139.857,4.462,140.957,5.347Z"/>
    <path d="M157.406,27.341a10.233,10.233,0,0,1-2.715-3.863.75.75,0,0,1,.145-.973.642.642,0,0,1,.918.253C156.4,24.135,157.449,25.369,157.406,27.341Z"/>
    <path d="M152.96,17.941a15.734,15.734,0,0,1-2.573-4.372.659.659,0,0,1,.241-.93c.342-.175.6.076.751.341A9.019,9.019,0,0,1,152.96,17.941Z"/>
    <path d="M148.1,9.358c-1.678-.557-2.489-2.033-3.515-3.267a.506.506,0,0,1,.242-.759.817.817,0,0,1,.917.366A14.953,14.953,0,0,1,148.1,9.358Z"/>
    <path d="M80.666,77.763c-.115-.42-.207-.564-.173-.665.218-.629.058-1.437.805-1.82.193-.1.465-.016.487.194C81.88,76.393,81.285,76.944,80.666,77.763Z"/>
    <path d="M87.732,224.45a3.722,3.722,0,0,1,.664-3.013A3.476,3.476,0,0,1,87.732,224.45Z"/>
  </g>
</svg>
