<svg xmlns="http://www.w3.org/2000/svg" viewBox="0 0 119.101 174.08">
  <g>
    <path d="M118.215,151.3a34.336,34.336,0,0,1-9.022,12.871c-1.363,1.19-3.1,1.573-4.664,2.246a103.465,103.465,0,0,1-18.328,6.3,36.831,36.831,0,0,1-7.088,1.354c-2.05.049-4.018-.038-5.8-1.318a9.519,9.519,0,0,0-2.335-.686c-6.266-2.234-10.472-6.649-13.338-12.529-3.176-6.519-4.492-13.556-5.857-20.58a142.094,142.094,0,0,1-2.178-17.788,37.208,37.208,0,0,1,.434-9.781c.132-.658.044-.922-.59-1.176-4.549-1.826-8.35-4.849-12.176-7.8-6.865-5.292-12.192-12.053-17.7-18.655a91.774,91.774,0,0,1-13.1-20.5A72.362,72.362,0,0,1,.453,45.312a27.774,27.774,0,0,1,.238-11.18c.546-2.29,2.06-4.256,3.371-6.211a74.549,74.549,0,0,1,10.046-12.67A67.492,67.492,0,0,1,28.542,4.241C34.833.853,41.559-.8,48.692.382A121.071,121.071,0,0,1,62.374,3.327c4.807,1.383,8.514,4.291,12.262,7.341,4.259,3.466,6.33,8.168,8.029,13.145.764,2.237,1.382,4.537,2.321,6.7a71.115,71.115,0,0,1,5.123,19.058,166.857,166.857,0,0,1,1.416,28.346A115.166,115.166,0,0,1,89.307,95.1c-.1.507-.153.821.407,1,3.355,1.1,5.518,3.727,7.428,6.391,3.282,4.573,6.734,9.03,9.864,13.7a103,103,0,0,1,9.408,16.533,32.413,32.413,0,0,1,2.559,15.76A8.528,8.528,0,0,1,118.215,151.3ZM67.379,74.185a12.8,12.8,0,0,1,1.383,3.573c1.418,4.779,3.141,9.483,3.617,14.5.033.343-.249,1.049.422.989.477-.042,1.222.049,1.354-.8.117-.76.372-1.5.5-2.256a40.421,40.421,0,0,0-1.235-20.041c-.518-1.54-1.336-3.034-1.16-4.758,5.316,8.015,5.322,17.272,6.139,26.355a42.169,42.169,0,0,0,1.2-14.25,90.466,90.466,0,0,0-2.294-14.18c1.516,2.786,3.016,5.6,3.331,8.757.585,5.858,1.3,11.713,1.3,17.617,0,.344-.294.778.253,1.059,1.219-2.244,1.531-4.739,2.1-7.161a50.518,50.518,0,0,0,1.022-7.53c.2-2.392-.213-4.836.51-7.187a87.264,87.264,0,0,1-.383,23.737c.543-.851.895-1.36,1.2-1.9.19-.336.291-.721.463-1.069,2.653-5.4,3.118-11.231,2.9-17.064-.329-8.709-.6-17.429-1.536-26.108-.742-6.862-3.191-13.218-5.774-19.524-1.082-2.642-2.524-5.134-3.661-7.755a29.876,29.876,0,0,0-6.52-8.909.694.694,0,0,0-.758-.216c4.341,6.794,11.98,24.026,11.874,27.166C79.41,28.176,76.589,18.747,70.379,11.05c.647,2.174,1.611,4.246,1.845,6.574-2.061-2.211-2.816-5.2-4.532-7.621a17.853,17.853,0,0,1,.953,3.528c-.256-.165-.467-.226-.545-.363-1.35-2.352-2.716-4.695-4.006-7.079-.548-1.013-.471-1.055-1.771-1.176.575,2.408,1.765,4.663,1.778,7.2A43.045,43.045,0,0,1,61.5,5.81c-.465-1.533-1.529-1.906-2.992-2.256,3.941,9.077,7.97,17.95,9.958,27.6-.877-.112-.844-.818-.995-1.326-.441-1.481-.687-3.031-1.243-4.463-2.994-7.714-7.315-14.747-11.362-21.919-.411-.728-.858-1.1-1.751-.852,1.485,3.712,2.857,7.385,4.03,11.175-.524.062-.623-.161-.7-.391-1.2-3.393-2.981-6.518-4.481-9.77-.646-1.4-1.4-1.479-2.743-1.4,1.76,3.724,3.363,7.409,5.219,10.963,1.866,3.571,2.728,7.4,3.744,11.4-.886-.276-.94-.87-1.122-1.334-.316-.811-.465-1.7-.843-2.471-1.545-3.18-3.036-6.394-4.762-9.475-1.813-3.235-3.441-6.65-6.565-8.948-.265-.2-.438-.539-.816-.535-3.112.029-6.27-.293-9.23,1.2a23.741,23.741,0,0,1,2.122,6.4c.05.284.3.719-.13.9-.413.179-.618-.28-.753-.508a22.864,22.864,0,0,1-3-6.257c-.3.453-1.41,0-.984,1.1,1.241,3.2,2.492,6.391,3.72,9.593.3.779.525,1.586.784,2.38l-.337.144A88.825,88.825,0,0,1,30.6,4.968C26.15,7.027,22.479,10.123,18.637,13c-2.116,1.582-2.346,3.212-1.973,5.716a125.726,125.726,0,0,0,5.973,23.576,141.04,141.04,0,0,0,10.1,22.861c4.23,7.425,8.187,15.017,13.329,21.879A109.092,109.092,0,0,0,56.786,99.685c.294.288.551.814,1.049.36.472-.43-.069-.72-.289-.937a77.664,77.664,0,0,1-7.25-8.956c-.967-1.283-2.1-2.52-2.436-4.187,3.169,3.255,5.663,7.063,9.012,10.16-4.595-7.145-7.364-15.1-10.614-22.839.268.01.373.1.423.211a136.609,136.609,0,0,0,9.591,17.376c1.35,2.149,2.917,4.16,4.362,6.25.354.512.708.514,1.217.254.777-.4.108-.695-.049-.993C60.649,94.2,59.4,92.06,58.339,89.83c-.645-1.361-1.6-2.637-1.673-4.241a4.422,4.422,0,0,1,.926,1.121c1.883,2.924,3.26,6.15,5.35,8.954.345.462.567.9,1.232.491s.073-.782-.056-1.078c-.913-2.092-1.891-4.156-2.828-6.238-.209-.464-.614-.944-.086-1.717,1.2,2.431,2.268,4.7,3.455,6.91.274.51.265,1.747,1.271,1.3,1.065-.473.076-1.324-.158-1.777-3.428-6.629-5.565-13.756-8.09-20.731a17.712,17.712,0,0,1-1.173-3.971c.768.305.844.863,1.032,1.354,3.054,7.974,5.829,16.062,9.7,23.7.152.3.039,1.038.738.782.6-.218.305-.743.208-1.133-.594-2.393-1.18-4.787-1.908-7.148-.336-1.092-1-2.133-.79-3.38,1.677,3.527,2.708,7.3,4.168,10.908a3.023,3.023,0,0,0,.073-1,92.052,92.052,0,0,0-2.5-16.269C67.042,75.921,66.531,75.047,67.379,74.185ZM12.662,67.1C22.206,80.567,32.587,93,46.976,101.4a1.743,1.743,0,0,0-.54-.825,140.423,140.423,0,0,1-17.6-19.234A123.939,123.939,0,0,1,11.3,51.272,84.435,84.435,0,0,1,6.908,37.423a4.332,4.332,0,0,1-.1-2.679c.386.067.367.3.406.473a103.185,103.185,0,0,0,5.552,16.82A132.357,132.357,0,0,0,27.27,77.031c5.337,7.485,10.845,14.8,18.41,20.261a40.031,40.031,0,0,0,5.426,3.475c-1.587-1.891-3.239-3.689-4.864-5.51S42.91,91.634,41.4,89.7s-2.837-4-4.2-6.04-2.747-4.08-4-6.194c-1.215-2.057-2.6-4.05-3.192-6.448,6.622,10.8,14.4,20.546,24.44,28.348a1.027,1.027,0,0,0-.238-.667A199.017,199.017,0,0,1,39.025,77.81,174.639,174.639,0,0,1,26.6,54.833c-1.577-3.7-2.851-7.541-4.513-11.2A124.034,124.034,0,0,1,15.1,24.737c-.571-2.114-1.2-4.212-1.86-6.492-1.565,1.488-2.92,2.684-2.037,5.025.536,1.419.857,2.949,1.322,4.415.106.332.388.709-.248,1.016A64.539,64.539,0,0,0,9.365,22.65c-.573,1.179-2.05,1.683-1.707,3.011,1.109,4.3,1.779,8.721,3.665,12.8a20.8,20.8,0,0,1,.87,2.864c-3.378-3.948-4.786-8.764-6.465-13.644-.878,1.635-2.277,2.86-2.456,4.611a21.348,21.348,0,0,0,.253,4.314c.11,1.049.356,2.083.518,3.128.068.438.374,1.069-.179,1.247-.511.164-.57-.522-.772-.886a8.278,8.278,0,0,1-.713-2.8,8.724,8.724,0,0,0-.614-2.711,2.353,2.353,0,0,0-.251.425,5.588,5.588,0,0,0-.095.567c-.757,4.258-.046,8.406.836,12.564,1.232,5.8,4,10.98,6.493,16.271A93.756,93.756,0,0,0,23.226,86.443c4.956,5.633,9.423,11.8,16.184,15.567,1.682.937,3.346,1.907,5.018,2.862C28.943,93.462,13.669,72.022,12.662,67.1Zm57.014,82.616c.555-.041.7.463,1,.745a8.824,8.824,0,0,0,3.124,2.022,1.64,1.64,0,0,0,2.294-1.574,4.171,4.171,0,0,0-.349-2.11,20.424,20.424,0,0,0-2.338-3.834c-2.326-3.268-4.55-6.61-6.917-9.846-.95-1.3-2.241-2.518-4.033-1.8-1.87.749-1.937,2.613-1.707,4.227.813,5.711,2.188,11.269,5.336,16.223,3.249,5.111,7.7,9.127,12.068,13.222.239.224.494.477.884.215,2.485-1.671,5.545-1.661,8.229-2.787.877-.368.923-.64.5-1.309-.2-.327-.387-.667-.6-.985a29.432,29.432,0,0,1-4.6-9.786,15.492,15.492,0,0,0-5.823-9.256,43.917,43.917,0,0,1-3.547-3.173c-.263-.245-.652-.6-.231-.973s.567.186.778.368c1.236,1.07,2.369,2.277,3.681,3.24a14.949,14.949,0,0,1,5.867,9.526c.836,4.341,3.156,7.85,5.48,11.4.719,1.1,1.836.258,2.61,0,.668-.227-.085-.9-.292-1.273a74.612,74.612,0,0,1-3.881-8.92c-1.5-3.827-2.848-7.776-5.644-10.92a52.2,52.2,0,0,1-8.506-13.6,19.516,19.516,0,0,0-6.911-8.58,9.61,9.61,0,0,0-3.461-1.749c-3.16-.6-5.875.412-8.438,2.123a1.2,1.2,0,0,0-.62,1.177c.154,4.716,1.217,9.327,1.595,14.032a30.18,30.18,0,0,1,1.1-5.921c1.214-3.445,3.979-5.894,7.752-3.41s5.417,6.562,7.222,10.473a8.88,8.88,0,0,1-2.5-3.526,16.406,16.406,0,0,0-5.4-6.494,3.166,3.166,0,0,0-4.231.2c-1.878,1.656-2.34,3.927-2.608,6.251a27.771,27.771,0,0,0,1.171,10.554,46.869,46.869,0,0,0,9.189,18.258,43.186,43.186,0,0,0,6.645,6.78c.98.749,1.286.858,2.2.247,1.863-1.251,1.864-1.169.12-2.692-6.734-5.88-12.456-12.463-14.623-21.456-.721-2.989-1.682-5.948-1.37-9.091a3.568,3.568,0,0,1,2.142-3.353,3.8,3.8,0,0,1,4.032.807,10.387,10.387,0,0,1,2.15,2.341c2.225,3.458,4.577,6.826,6.982,10.162a7.751,7.751,0,0,1,1.926,4.914,2.757,2.757,0,0,1-2.751,2.741C72.756,153.431,70.235,151.39,69.676,149.714Zm47.479-6.237a36.7,36.7,0,0,0-1.474-6.674,5.444,5.444,0,0,0-1.527-2.417c-1.288-1.235-2.568-2.48-3.881-3.688a33.87,33.87,0,0,1-7.479-8.94,26.1,26.1,0,0,0-5.3-7c-4.121-3.836-9.118-5.11-14.184-2.464a3.689,3.689,0,0,0-2.063,2.757c-.7,3.6.913,6.821,1.84,10.08.917,3.218,3.167,5.833,5.629,8.134a22.35,22.35,0,0,1,4.11,5.372,4.508,4.508,0,0,1,.787,2.516c-.779-.156-.777-.731-.967-1.145a17.508,17.508,0,0,0-3.875-5.723,24.3,24.3,0,0,1-6.693-9.684,18.71,18.71,0,0,0-5.492-7.882c-1.965-1.7-4.136-3.214-7.057-2.222a6.375,6.375,0,0,1-2.021.068,7.383,7.383,0,0,0-4.59,1.306,16.933,16.933,0,0,1,6.853.9,15.053,15.053,0,0,1,8.938,8.778,26.512,26.512,0,0,0,4.4,7.134c1.69,1.972,3.715,3.652,5.043,5.945a54.392,54.392,0,0,1,4.507,11.307,97.367,97.367,0,0,0,4.13,11.445c.434.953.948.5,1.507.393.8-.151.51-.621.34-1.088A74.768,74.768,0,0,1,95.51,149.4c-.084-.426-.349-.894-.017-1.339.4.025.383.3.436.517.975,3.882,2.012,7.746,3.336,11.526.172.489.126,1.443,1.151,1.063.736-.274,1.592-.359,1.123-1.643-.66-1.805-1.072-3.7-1.594-5.555-.809-2.875-2.1-5.66-2.206-8.674-.261-7.54-3.84-13.4-9.052-18.467a14.972,14.972,0,0,1-4.007-5.6c-.486-1.368-.8-2.8.223-4.124,1.236-1.594,2.776-1.929,5.05-1.173,3.384,1.124,5.686,3.593,7.7,6.325,2.269,3.072,4.433,6.243,7.61,8.449A37.382,37.382,0,0,1,117.155,143.477ZM86.649,96.861a14.311,14.311,0,0,0-3.423-.309c-6.271.172-12.01,2.31-17.668,4.735a39.053,39.053,0,0,0-11.593,7.593c-1.2,1.139-2.63,2.336-3.074,3.769-.887,2.864-.391,5.916-.235,8.951a2.543,2.543,0,0,0,1.557-2.533c.068-2.348.311-4.692.47-7.039.025-.38-.01-.764.6-.973.133,2.785-.263,5.539.362,8.307,6.537-4.178,13.618-7.118,20.694-9.975,7.013-2.832,14.125-5.6,21.91-5.649-7.153-.694-13.885.92-20.474,3.437,5.9-2.912,11.944-5.283,18.7-5.2-.181-.862-.7-.811-1.261-.785a34.593,34.593,0,0,0-5.31.541c-.626.127-1.357.528-2.208-.251l7.253-1.3c-.542-.8-1.171-.569-1.713-.536a61.4,61.4,0,0,0-16.466,3.809,16.221,16.221,0,0,1-4.729,1.223c6.53-3.555,13.691-4.941,20.965-6a1.341,1.341,0,0,0-1.492-.686,98.466,98.466,0,0,0-12.616,1.851,7.307,7.307,0,0,1-3.314.315C77.769,98.353,82.22,97.679,86.649,96.861Zm3.833,20.212c-2.409-.95-3.716-.836-4.784.425-.877,1.036-.7,3.192.435,5.006a22.762,22.762,0,0,0,3.514,3.994c4.734,4.69,8.264,10.055,8.922,16.906a31.909,31.909,0,0,0,.513,4.434c.934,3.9,2.386,7.649,3.21,11.577.053.252.053.694.452.6.465-.107.312-.535.223-.85-.4-1.391-.783-2.788-1.226-4.165-1.051-3.27-1.972-6.549-1.571-10.05.309-2.7,2.108-3.568,4.486-2.264,1.433.785,2.093,2.23,3.241,3.25a15.543,15.543,0,0,1,4.895,7.038c.105.342.131.755.731.681,2.5-.308,2.526-.313,3.363-2.91.164-.508.4-1,.526-1.512a4.931,4.931,0,0,0,.025-3.389c-2.155-4.419-4.745-8.613-8.78-11.5a54.759,54.759,0,0,1-13-12.971A11.661,11.661,0,0,0,90.482,117.073ZM60,117.065c2.636-.1,4.749,1.055,6.8,2.471,3.9,2.7,6.079,6.656,8.082,10.764a38.577,38.577,0,0,0,5.424,8.892,33.569,33.569,0,0,1,5.273,7.953c2.16,4.614,3.6,9.528,6,14.034,1.155,2.168,1.113,2.113,3.4,1.5,1.105-.3,1.081-.707.645-1.581a76.5,76.5,0,0,1-4.125-11.45c-1.782-5.676-3.624-11.287-8.332-15.475-3.014-2.681-4.446-6.528-6.228-10.07-3.054-6.072-9.956-8.225-16.384-7.379C60.364,116.75,60.189,116.948,60,117.065Zm54.291,16a55,55,0,0,0-3.636-8.04A5.519,5.519,0,0,0,108,122.143c-3.178-1.529-4.855-4.595-6.625-7.471a25.475,25.475,0,0,0-4.841-6.286,1.744,1.744,0,0,0-1.657-.613,39.509,39.509,0,0,1-10.383.773,17.328,17.328,0,0,0-6.239,1.225c-2.215.771-3.463,2.721-5.613,4.031,3.707.926,5.713,3.675,8.086,6.49-.233-1.169-.452-1.983-.549-2.811-.452-3.832,1.254-6.152,5-7.09,5.1-1.279,9.251.481,12.94,3.856a26.707,26.707,0,0,1,5.484,7.228C106.168,126.277,110.588,129.327,114.3,133.067Zm-10.384,26.5a16.233,16.233,0,0,1,6.649-4.932c1.834-.854,1.87-1.194.883-3-1.674-3.056-4.364-5.238-6.571-7.834a2.972,2.972,0,0,0-1.058-.728c-1.527-.668-2.542-.1-2.745,1.557a17.56,17.56,0,0,0-.112,2.438C101.024,151.3,102.943,155.077,103.911,159.563ZM51.981,122.31c-.424.541-1.481.373-1.364,1.442.209,1.914.282,3.843.509,5.754.6,5.042,1.738,9.99,2.672,14.975,1.007,5.379,2.551,10.506,5.628,15.121A29.8,29.8,0,0,0,70,169.794a3.46,3.46,0,0,0,3,0c-.548-.246-.912-.375-1.241-.563-3.035-1.734-5.962-3.546-7.9-6.65a26.489,26.489,0,0,1-3.387-6.726c-.63-2.24-2.527-3.925-2.231-6.672.182-1.685-.992-3.515-1.574-5.334-.432.4.139,1.212-.55,1.246-.641.032-.44-.755-.7-1.126a1.393,1.393,0,0,1-.148-.409A78.247,78.247,0,0,1,51.981,122.31Zm61.448,35.947A119.558,119.558,0,0,1,75.07,172.34a8.755,8.755,0,0,0,6,.7c3.353-.507,6.434-1.959,9.672-2.873,3.047-.86,6.216-1.376,9.043-2.954A63.929,63.929,0,0,1,106.127,164C109.089,162.756,111.816,161.179,113.429,158.257ZM108.681,121.3a6.012,6.012,0,0,0-.441-1.076c-1.561-2.252-3.061-4.552-4.739-6.714-1.709-2.2-3.471-4.363-4.984-6.708-.618-.959-1.278-.5-1.8-.027-.627.568.209.782.46,1.015a33.053,33.053,0,0,1,4.952,6.544C103.851,116.982,105.52,119.708,108.681,121.3Z"/>
    <path d="M39.3,42.4a41.664,41.664,0,0,1-4.741-8.5,115.823,115.823,0,0,1-6.365-18.06c-.379-1.4-.829-2.778-1.243-4.168-.118-.4-.464-.94.153-1.1.558-.142.617.5.737.889,1.009,3.334,1.972,6.681,3.01,10.005a152.76,152.76,0,0,0,7.944,19.5c.144.306.307.6.43.918A2.248,2.248,0,0,1,39.3,42.4Z"/>
    <path d="M63.6,51.713c2.582,2.787,9.641,25.556,8.749,28.257C70.647,70.172,66.286,61.213,63.6,51.713Z"/>
    <path d="M83.489,44.188A126.31,126.31,0,0,1,85.738,64.3C84.627,61.988,82.825,46.241,83.489,44.188Z"/>
    <path d="M38.868,35.821a25.356,25.356,0,0,1-4.038-8.754C35.681,27.538,38.072,32.5,38.868,35.821Z"/>
    <path d="M27.545,20.958a10.748,10.748,0,0,1-1.457-3.009c-.641-1.51-1.194-3.058-1.762-4.6-.092-.248-.241-.619.047-.784s.526.072.639.383q1.428,3.926,2.861,7.849Z"/>
    <path d="M68.346,21.494c-.595-1.617-1.2-3.231-1.774-4.857-.078-.223-.316-.586.1-.737a.5.5,0,0,1,.665.39,26.123,26.123,0,0,1,1.4,5.059Z"/>
    <path d="M40.172,34.264a8.79,8.79,0,0,1-2.143-4.948C38.711,30.861,40.242,32.014,40.172,34.264Z"/>
    <path d="M70.469,19.554A6.667,6.667,0,0,1,68.887,17c-.1-.3-.211-.67.25-.842a.569.569,0,0,1,.721.32A5.3,5.3,0,0,1,70.469,19.554Z"/>
    <path d="M57.1,14.494a5.053,5.053,0,0,1,1.035,3.114C57.228,16.758,57.236,15.6,57.1,14.494Z"/>
    <path d="M19.262,50.543a12.389,12.389,0,0,1-2.683-4.276c-1.958-4.053-3.394-8.326-4.974-12.537-.172-.459-.508-1.146.216-1.359.625-.184.707.524.842.963a80.616,80.616,0,0,0,6.717,16.61C19.478,50.115,19.552,50.288,19.262,50.543Z"/>
    <path d="M12.125,65.971A56.981,56.981,0,0,1,5.479,47.3C7.507,53.587,9.505,59.885,12.125,65.971Z"/>
    <path d="M14.955,35.669a16.636,16.636,0,0,1-2.263-5.164.454.454,0,1,1,.849-.32A16.945,16.945,0,0,1,14.955,35.669Z"/>
    <path d="M58.794,107.15a8.614,8.614,0,0,1,3.476-2.461,51.166,51.166,0,0,1,8.07-3.509c.438-.14,1.148-.6,1.382.057.21.586-.593.642-1,.8a77.141,77.141,0,0,0-10.652,4.823A1.586,1.586,0,0,1,58.794,107.15Z"/>
    <path d="M116.489,147.252c-.905-.332-1.275-1.152-1.722-1.845a34.192,34.192,0,0,0-10.556-10.529c-2.619-1.655-4.235-4.347-6.646-6.2a6.568,6.568,0,0,0-2.767-1.632c3.789,4.9,6.752,10.139,11.764,13.684a28.381,28.381,0,0,1,8.894,10.875,1.683,1.683,0,0,1,.038,1.585c-.97-1.558-1.85-2.946-2.7-4.35a26.765,26.765,0,0,0-6.526-7.086,35.514,35.514,0,0,1-8.192-8.513c-1.176-1.819-2.584-3.487-3.852-5.249-.377-.523-.909-1.123-.3-1.8.58-.645,1.184-.08,1.724.125a12.182,12.182,0,0,1,4.668,3.578,40.238,40.238,0,0,0,6.547,5.646C111.04,138.612,113.951,142.793,116.489,147.252Z"/>
  </g>
</svg>
