<svg xmlns="http://www.w3.org/2000/svg" viewBox="0 0 177.701 255.003">
  <g>
    <path d="M60.077,84.79a71.789,71.789,0,0,0-1.99-8.262c-2.4-8.333-5-16.624-6.547-25.17-1.052-5.8-2.534-11.507-3.578-17.3A55.848,55.848,0,0,1,46.906,20.34,25.752,25.752,0,0,1,49.982,8.849a21.77,21.77,0,0,1,5.1-6.343,10.9,10.9,0,0,1,8.7-2.362c1.382.223,2.893-.09,4.138.667a18.737,18.737,0,0,1,8.171,10.15c.2.585.3,1.055,1.016,1.257a.8.8,0,0,1,.45,1.326c-.681,1.1.206,3.5,1.433,3.917a.961.961,0,0,1,.443,1.666,1.658,1.658,0,0,0-.327,1.967c.164.561.277,1.137.416,1.7.125.509.26.922.909,1.091a.892.892,0,0,1,.528,1.532,1.51,1.51,0,0,0-.223,1.516c2.512,8.1,5.181,16.148,7.409,24.331a171.43,171.43,0,0,1,4.571,20.807,110.836,110.836,0,0,0,4.411,17.318c1.243,3.992,2.252,8.048,3.355,12.078.436,1.59.786,3.2,2.088,4.405a5.754,5.754,0,0,1,.945,1.5c.286.519.388,1.286.031,1.58-.97.8-.423,1.63-.259,2.442.638,3.154,1.377,6.287,2.07,9.429.563,2.557,1.54,5.025,2.355,7.525,1.468,4.5,2.559,9.107,3.775,13.679,2.2,8.285,4.042,16.66,6.287,24.935.827,3.047,1.615,6.115,2.324,9.194a36.06,36.06,0,0,1,.818,8.374c-.019,2.62-.067,5.24-.2,7.849a17.833,17.833,0,0,1-1.524,6.914c-1.055,2.173-3.24,2.809-5.375,3.346a8.665,8.665,0,0,1-3.66.132c.475,1.744.837,3.394,1.382,4.981.47,1.365.835,2.762,1.31,4.115a4.654,4.654,0,0,1-.707,4.605,1.273,1.273,0,0,0-.138,1.416c.667,1.655,1.23,3.35.17,5.073a1.242,1.242,0,0,0-.04,1.163c2.137,5.778,2.82,11.917,4.387,17.837.231.872.549,1.869-.169,2.738-.146.177-.074.341.047.5a12.318,12.318,0,0,0,2.89,3.045c5.777,3.772,11.614,2.819,17.389.175a36.7,36.7,0,0,0,11.749-8.893,28.46,28.46,0,0,0,6.562-13.918c1.576-7.752-.21-15.093-2.654-22.363-1.952-5.8-4.643-11.325-6.474-17.184a76.123,76.123,0,0,1-3.677-22.071,36.885,36.885,0,0,1,2.539-14.549A26.118,26.118,0,0,1,168.6,132.984a18.773,18.773,0,0,1,7.635,1.325c.893.386,1.566.9,1.456,2.081-.186,2-.651,2.549-2.61,2.251a29.512,29.512,0,0,0-15.6,1.89c-5.726,2.257-9.1,6.463-10.82,12.159a38.244,38.244,0,0,0-1.185,11.883c.2,10.61,3.387,20.467,7.457,30.119a73.347,73.347,0,0,1,5.764,19.914c1.106,9.472-.823,18.3-6.956,25.782a44.346,44.346,0,0,1-14.473,11.857,23.235,23.235,0,0,1-14.586,2.436c-4.655-.828-8.77-2.62-10.842-7.334-.195-.443-.352-.548-.806-.282a4.638,4.638,0,0,1-1.8.525,1.387,1.387,0,0,1-1.381-.528c-1.494-1.953-3.341-3.583-4.98-5.406a35.691,35.691,0,0,1-6.745-10.414,1.162,1.162,0,0,0-1.025-.821,4.989,4.989,0,0,1-4.019-2.82,8.693,8.693,0,0,0-4.17-3.961,8.623,8.623,0,0,1-3.816-3.391q-3.525-6.5-7.374-12.818c-3.438-5.613-6.486-11.447-9.612-17.235-2.526-4.677-4.56-9.6-6.983-14.328-3.8-7.408-7.6-14.808-11.224-22.3-2.139-4.428-3.631-9.1-5.339-13.691-.331-.887-.954-1.571-1.33-2.416-1.993-4.481-3.982-8.964-6.03-13.419-2.423-5.272-4.951-10.49-7.71-15.6a180.355,180.355,0,0,1-8.158-17.785c-2.115-5.2-4.679-10.188-6.973-15.3-2.907-6.477-5.7-13-8.165-19.668C4.9,52.174,3.534,48.692,2.49,45.1A74.281,74.281,0,0,1,.221,32.8,25.956,25.956,0,0,1,1.337,20.974a18.67,18.67,0,0,1,3.028-5.639,11.838,11.838,0,0,1,3.618-2.717C15.455,8.546,21.51,11.45,26.3,16.858c.12.137.293.326.275.471-.165,1.4,1.095,1.622,1.813,2.329a21.708,21.708,0,0,1,4.776,6.007C35.8,31.219,39.321,36.286,42.041,41.8A104.229,104.229,0,0,1,47.7,55.461a160.029,160.029,0,0,0,8.956,21.37C57.943,79.415,58.952,82.125,60.077,84.79ZM62.716,1.88A2.318,2.318,0,0,0,61.222,2a14.928,14.928,0,0,0-9,8.282c-1.586,3.357-2,7.036-2.479,10.649-.8,6,.463,11.9,1.487,17.759,1.388,7.94,3.837,15.65,5.625,23.514,1.9,8.335,4.418,16.524,6.858,24.728,2.7,9.082,5.021,18.277,7.625,27.389,1.926,6.741,3.819,13.489,5.357,20.33a46.873,46.873,0,0,0,1.605,6.655c1.139,2.963,2.1,5.978,3.008,9.024,1.969,6.63,3.185,13.419,4.549,20.179a1.316,1.316,0,0,0,.493.933c1.5.972,2.814,2.184,4.33,3.231-1.358-2.944-1.567-6.143-2.183-9.247-1.06-5.342-2.711-10.515-4.253-15.726-1.907-6.443-3.179-13.051-4.692-19.594C77,119.06,74.632,107.971,71.886,96.971a.371.371,0,0,1,.08-.412c.408-.026.415.32.528.576A20.209,20.209,0,0,1,73.71,100.8c3.036,13.4,5.853,26.85,9.744,40.038q2.321,7.864,4.832,15.671c1.778,5.5,2.677,11.234,4.524,16.713a18.7,18.7,0,0,1,.8,3.8c.108.9-.3,1.864.026,2.64a14.98,14.98,0,0,1,.909,6.98,4.772,4.772,0,0,0,1.127,3.64,13.821,13.821,0,0,1,2.619,5.664c.079.305-.217.9.407.815.488-.067.313-.628.275-.935q-1.158-9.49-2.37-18.974a40.3,40.3,0,0,1-.734-6.5c.582.2.559.67.659,1.024a95.6,95.6,0,0,1,2.579,15.774c.352,3.21.48,6.445.707,9.669.032.452,1.253,1.47,1.782,1.333.683-.176.379-.817.358-1.273-.111-2.352-.284-4.7-.363-7.055-.112-3.382-.362-6.754-.785-10.106-.57-4.511-1.259-9.007-1.893-13.51-.041-.3-.223-.673.4-.755.415,2.649.786,5.292,1.248,7.92a143.326,143.326,0,0,1,2.494,24.718c0,.265-.051.565.263.658.663.2,1.333.8,1.957.552.475-.191-.066-.949.053-1.452a.912.912,0,0,0,.016-.222,72.586,72.586,0,0,0-.462-9.142c-.445-3.038-.751-6.1-1.121-9.147a1.741,1.741,0,0,1,.483-1.569,5.665,5.665,0,0,1,.607,1.376c.458,1.814.575,3.677.893,5.51a65.708,65.708,0,0,1,1.018,13.926c-.047,1.174.3,1.576,1.322,1.719.637.09,1.215.279.933-.791a10.951,10.951,0,0,1-.239-2.289,27.77,27.77,0,0,1-.205-4.141,2.57,2.57,0,0,1,.613,1.578c.294,1.805.59,3.611.831,5.424.054.406.208.5.546.5.406,0,.355-.312.348-.555-.024-.85-.087-1.7-.1-2.548a2.663,2.663,0,0,1,.347-1.887,15.372,15.372,0,0,1,.694,4.371c-.018.423.074.9.658.756.318-.078.761.026.748-.733a56.418,56.418,0,0,0-.633-6.91c-1.108-7.813-2.358-15.606-3.506-23.413-.118-.8-.423-1.682.267-2.509,2.285,10.927,4.549,21.848,5.342,33.007a3.31,3.31,0,0,0,2.894-2.47c.213-.538.821-1.051.4-1.717a5.334,5.334,0,0,1-.524-1.551c-.871-3.292-1.323-6.664-1.912-10.01-1.024-5.82-2.552-11.532-3.783-17.308-1.885-8.843-3.59-17.728-6.075-26.434a19.936,19.936,0,0,1-.813-4.149c.508.042.465.394.548.593a80.821,80.821,0,0,1,3.009,9c1.876,6.649,3.051,13.46,4.524,20.2,1.671,7.642,3.665,15.222,4.641,23.005.11.879.287,1.75.435,2.624s.3,1.731.448,2.6a26.7,26.7,0,0,0,.5-11.593,132.519,132.519,0,0,0-3.24-13.837c-2.155-8.377-4.386-16.732-6.321-25.167-1.37-5.971-2.871-11.928-4.681-17.777-1.708-5.517-3.748-10.931-4.99-16.588-.115-.521-.385-.681-.9-.777-3.022-.568-5.673.395-8.218,1.879-.318.186-.59.559-1.3.372,3.469-4.176,7.809-4.57,12.742-3.52a5.942,5.942,0,0,0-2.892-2.4c-3.251-1.39-6.145-.044-8.947,1.545a.576.576,0,0,1,.262-.761c2.018-1.256,4.1-2.392,6.563-2.357,1.018.014,1.154-.255.95-1.2-.767-3.558-1.546-7.112-2.488-10.629-1.772-6.609-2.986-13.346-4.814-19.95-2.546-9.195-4.458-18.557-7.129-27.728-1.583-5.436-2.684-11-4.279-16.442-.116-.4-.046-.824-.719-.606-.615.2-.739.481-.458,1.032a8.562,8.562,0,0,1,.672,2.094c1.245,5.672,2.28,11.393,3.976,16.96.02.065-.076.165-.2.414a14.093,14.093,0,0,1-1.263-3.38q-2.233-7.967-4.438-15.942c-.1-.369-.125-.641-.678-.494-.516.137-.552.3-.4.751.2.628.324,1.284.469,1.93,1.612,7.182,3.887,14.188,5.671,21.324,1.3,5.208,3.1,10.277,4.306,15.51a1.807,1.807,0,0,1-.011,1.493c-4.5-13.5-7.945-27.089-11.662-40.649-.344.186-.816.108-1.143.444,1.031,1.641,1.51,3.8,1.077,4.854-.339-.207-.219-.6-.354-.882-.591-1.255-.766-2.679-1.557-3.856a35.286,35.286,0,0,0-4.019,1.565A12.834,12.834,0,0,1,64.4,31.329c4.962-2.557,10.335-4.148,15.444-6.435a6.664,6.664,0,0,0-2.312-.057A21.88,21.88,0,0,0,72.3,26.542a68.929,68.929,0,0,0-7.388,3.6c-.345.2-.886.567-1.18.041-.267-.479.34-.64.633-.88,3.358-2.751,7.393-3.953,11.478-5.069.817-.223,2.073.05,2.356-.68.257-.66-.348-1.652-.563-2.5-.11-.437-.316-.522-.776-.413a56.553,56.553,0,0,0-13.5,4.9.755.755,0,0,1-.982.035,61.19,61.19,0,0,1,7.654-4.238c2.633-1.312,5.523-1.88,8.262-2.894a1.323,1.323,0,0,0-.788-.18,30.343,30.343,0,0,0-7.39,2.24c-2.779,1.239-5.418,2.749-8.127,4.124-.329.167-.76.561-1.087.119-.392-.53.181-.815.5-1.05a33.294,33.294,0,0,1,13.054-6.1c2.262-.474,2.278-.4,1.556-2.7A.574.574,0,0,1,76,14.79c-.052-.472-.327-.617-.773-.547-.722.112-1.446.214-2.171.311-4.623.615-8.838,2.469-13.067,4.285-.353.151-.706.515-1.429.125,5.96-2.569,11.359-6.045,18.017-5.848a3.14,3.14,0,0,0-1.723-.515A31.769,31.769,0,0,0,65.7,14.417a40.932,40.932,0,0,0-6.641,3.554c-.361.221-.848.568-1.169.045-.284-.463.226-.778.539-.955a41.653,41.653,0,0,1,3.76-2.153c4.031-1.77,8.32-2.549,12.652-3.349A35.072,35.072,0,0,0,71.994,6.3,12.529,12.529,0,0,0,67.485,2.27a2.357,2.357,0,0,0-2.016-.318,12.341,12.341,0,0,0-4.455,2.662,21.971,21.971,0,0,0-6.028,18.38c.294,2.5,1.038,4.941,1.169,7.45.265,5.043,1.112,10.023,1.506,15.049.294,3.762,1.72,7.273,2.337,10.963.753,4.509,2.069,8.9,2.8,13.418a.837.837,0,0,1-.08.655c-.384-.178-.367-.492-.426-.712C60.549,63.285,58.678,56.8,56.476,50.4c-1.487-4.325-1.576-8.966-1.959-13.5-.3-3.539.039-7.114-.4-10.654-.5-4.07-.683-8.173.489-12.121C56.042,9.289,58.374,4.937,62.716,1.88ZM49.4,109.12a5.206,5.206,0,0,1-2.183,2.069c-.832.5-1.343,1.031-.458,1.953,1.736-1.368,3.21-3.091,5.2-4.137a1.4,1.4,0,0,1-.6.968c-1.306,1.211-2.572,2.467-3.921,3.628-.56.482-.272.89-.035,1.234.377.548.6-.082.84-.242.857-.584,1.639-1.287,2.529-1.807.555-.324.989-.936,1.856-1a3.064,3.064,0,0,1-1.088,1.262c-1.071.858-2.157,1.7-3.263,2.513-.353.26-.46.457-.258.892.795,1.711,1.545,3.444,2.34,5.233,3.815-3.128,7.847-5.784,11.687-8.7a23.111,23.111,0,0,1,3.7-2.649c.9-.431.764-.758.536-1.41-1.11-3.184-1.922-6.451-2.746-9.718-.7-2.773-1.112-5.658-2.715-8.146-.731.366-1.182,1.208-2.181,1.275.244-.834.917-1.218,1.371-1.769.172-.208.568-.4.248-.722s-.533.089-.728.252c-1.449,1.213-2.879,2.448-4.32,3.671-.227.193-.418.516-.905.34a3.369,3.369,0,0,1,1.018-1.348,38.572,38.572,0,0,1,3.42-3.019c.938-.684,1.058-1.247.473-2.223-.446-.743-.643-.856-1.284-.171a28,28,0,0,1-3.808,3.5c-.11-.512.2-.711.415-.94q1.36-1.464,2.747-2.9c1.207-1.253,1.212-1.249.152-2.862L53.944,87.5l-.232-.24a26.738,26.738,0,0,1,2.91-3.284,1.132,1.132,0,0,0,.262-1.421c-3.361-8.382-7-16.649-10.607-24.922-2.387-5.469-4.5-11.066-7.241-16.379-2.108-4.078-4.211-8.156-6.014-12.386a32.987,32.987,0,0,0-3.539-6.122c-.3-.42-.557-.659-1.026-.166a74.62,74.62,0,0,1-6.869,5.742c-2.974,2.462-5.919,4.959-8.932,7.372a4.047,4.047,0,0,0-1.272,2.843,1.187,1.187,0,0,0,.461,1.186c.356.2.614-.3.883-.527A107.366,107.366,0,0,1,22.4,31.522c.175-.115.337-.342.567,0a11.751,11.751,0,0,1-2.11,2.076c-2.7,2.322-5.4,4.659-8.12,6.959-.418.353-.359.592-.139,1,.348.646.659.111.866-.042.985-.726,1.93-1.507,2.886-2.272a7.185,7.185,0,0,1,1.879-1.157c.131.329-.064.42-.179.552a28.266,28.266,0,0,1-4.17,3.843c-.8.61-.256,1.036.059,1.556.432.714.726.1,1.026-.1a9.3,9.3,0,0,1,2.205-1.418,6.174,6.174,0,0,1-1.932,2.141,1.07,1.07,0,0,0-.306,1.528c2.084,4.287,4.366,8.47,6.635,12.659.277.511.45.492.856.162,1.413-1.144,2.856-2.251,4.282-3.38a7.805,7.805,0,0,1,1.906-1.2c-.16.723-.675.986-1.075,1.325q-2.34,1.982-4.713,3.92c-.36.293-.591.553-.291,1,.38.569.642.04.881-.134.748-.547,1.467-1.136,2.191-1.716a12.137,12.137,0,0,1,2.483-1.7c.19.3,0,.4-.116.533a33.008,33.008,0,0,1-4.2,3.644.9.9,0,0,0-.288,1.3c.676,1.338,1.324,2.69,1.989,4.049,1.557-1.084,2.873-2.466,4.6-3.279a20.053,20.053,0,0,1-3.229,3.006c-1.2,1.024-1.209,1.012-.265,2.437l3.933-2.9a1.426,1.426,0,0,1-.683,1.258c-.88.743-1.773,1.47-2.66,2.206-.2.165-.446.332-.23.636.271.381.423-.015.61-.118.345-.19.557-.6,1.054-.616.174.692-.325,1.021-.733,1.36a.7.7,0,0,0-.235,1.019q2.633,5.378,5.192,10.791c.306.645.543.667,1.107.217,2.842-2.27,5.722-4.491,8.594-6.723.5-.393,1.033-.756,1.721-1.258a2.2,2.2,0,0,1-.954,1.385c-2.939,2.444-5.878,4.888-9.011,7.085-.562.394-.8.756-.392,1.443a32.334,32.334,0,0,1,1.569,3.055c.268.586.494.676,1,.245q2.512-2.121,5.079-4.178c.342-.274.65-.714,1.231-.64a1.2,1.2,0,0,1-.539.72c-1.75,1.5-3.471,3.031-5.282,4.45-.773.606-.886,1.081-.194,1.778a22.324,22.324,0,0,1,4.37-3.3,1.784,1.784,0,0,1-.607,1.083c-.908.82-1.781,1.681-2.727,2.453a1.018,1.018,0,0,0-.346,1.481c3.058,6.055,5.7,12.3,8.144,18.618.184.477.268.676.81.3A8.335,8.335,0,0,1,49.4,109.12ZM24.269,17.482c.019-.248-.172-.327-.293-.462-.149-.167-.372-.108-.552-.286-3.422-3.392-7.417-5-12.273-3.863a8.63,8.63,0,0,0-6.024,4.286,27.273,27.273,0,0,0-2.949,9.029c-.525,3.748.444,7.325,1.444,10.869A90.121,90.121,0,0,0,7.47,47.571c1.252,2.967,2.428,5.967,3.736,8.909,2.087,4.691,4.425,9.278,6.346,14.034a173.223,173.223,0,0,0,7.615,15.779c1.719,3.263,3.14,6.649,4.536,10.045a88.25,88.25,0,0,0,5.361,11.448c4.281,7.244,7.475,14.979,10.843,22.644,1.872,4.26,3.706,8.537,5.594,12.79q4.331,9.755,8.715,19.485c1.547,3.443,3.13,6.87,4.739,10.4a13.244,13.244,0,0,1,1.894-3c.2-.218.154-.352-.025-.548a14.724,14.724,0,0,1-2.168-4.07c-2.438-5.349-4.228-10.965-6.593-16.339-2.89-6.563-6.228-12.922-9.34-19.384-4.04-8.385-7.823-16.882-11.695-25.341-1.493-3.262-2.706-6.639-4.221-9.888q-3.939-8.454-7.893-16.9c-2.289-4.914-4.556-9.838-6.841-14.753C15.437,57.2,12.744,51.56,10.088,45.9,7.162,39.662,6.977,33.233,7.907,26.622a15.137,15.137,0,0,1,1.906-4.809,9.219,9.219,0,0,1,7.717-5.349A18.368,18.368,0,0,1,24.269,17.482ZM92,222.4a7.344,7.344,0,0,0,5.619,1.1,20.162,20.162,0,0,0,12.894-8.9,3.5,3.5,0,0,0,.813-2.212c-.773.115-1.323.88-2.395.506.635-.489,1.117-.879,1.62-1.239a.7.7,0,0,0,.3-.936c-.219-.546-.551-.124-.831-.124-.545,0-1.285.765-1.541.127-.217-.542.783-.7,1.25-1.021.251-.172.758-.192.524-.662-.2-.4-.53-.041-.769.029-.842.249-1.628.782-2.687.476.534-.712,1.31-.839,1.9-1.243.433-.295,1.474-.2,1.216-.881-.227-.6-.931.132-1.435.206-1.166.173-2.288.831-3.521.336,1.306-.5,2.612-.963,3.92-1.4,1.019-.338.621-.856.53-1.484-.135-.923-.711-.542-1.148-.44a9.383,9.383,0,0,1-2.8.639c.34-.569.868-.581,1.28-.766.568-.254,1.159-.463,1.751-.661.331-.112.476-.256.4-.638-.069-.327-.154-.569-.526-.6a2.859,2.859,0,0,0-1.313.067,19.011,19.011,0,0,1-4.71,1.1,8.906,8.906,0,0,1-3.388.214c2.055-.722,4.228-1.036,6.19-1.833-1.484-1.432-3.185-.823-4.858-.451l-.015-.336,1.721-.77c-1.193-.847-2.159-1.888-3.572-2.195-.335,3.062-1.777,4.192-4.4,3.3a20.229,20.229,0,0,1-5.728-3.021,14.366,14.366,0,0,0-6.136-3.025,20.735,20.735,0,0,1-10.314-4.958c-1.024-.921-2.059-1.829-3.1-2.75-.206.271-.046.432.031.574,1.092,2.016,2.233,4.008,3.276,6.05a1.241,1.241,0,0,0,1.406.78c1.094-.145,2.2-.107,3.3-.284a2.354,2.354,0,0,1,2.081.138,30.668,30.668,0,0,1-5.738,1.109,1.407,1.407,0,0,0,1.493,1.2,50.294,50.294,0,0,0,6.309-.206c1.05-.047,2.131-.427,3.448.209-3.381,1.271-6.643,1.129-9.9,1.13.146.937.6,1.26,1.545,1.1a11.724,11.724,0,0,1,2.649-.078c.887.058,1.8-.33,2.931.232a51.087,51.087,0,0,1-6.094.68,1.63,1.63,0,0,0,1.846,1.456c.957-.035,1.909-.076,2.865-.159,2.466-.217,4.884-.755,7.361-.979-3.236,1.776-6.829,2.049-10.444,2.337.559,1.231,1.206,2.116,2.769,1.73a9.128,9.128,0,0,1,2.327-.03c.368.008.849.08.852.5,0,.381-.494.316-.8.408-1.021.305-2.108.078-3.144.33.266.847.7,1.036,1.532.892.625-.107,1.415-.514,2.14.215-.773.175-1.443.326-2.113.479-.539.123-.509.4-.229.779.263.358.644.319,1,.362a22.038,22.038,0,0,0,4.97-.174,16.53,16.53,0,0,1,1.735-.283c.575,0,1.16-.364,1.978.034-2.886,1.4-5.783,1.44-8.836,1.478.449.55.549,1.148,1.354,1.159a37.62,37.62,0,0,0,7.293-.237,2.974,2.974,0,0,1,2.584.261,47.071,47.071,0,0,1-9.737.834,1.956,1.956,0,0,0,2.028,1.474,73.69,73.69,0,0,0,9.369-.6,3.1,3.1,0,0,1,1.7.224,37.667,37.667,0,0,1-11.56,1.278c.343.577.479,1.131,1.257,1.137,2.884.02,5.763-.038,8.642-.221,2.731-.174,5.416-.7,8.155-.934a17.032,17.032,0,0,1-7.914,2.327,47.185,47.185,0,0,1-8.653-.169c.675,1.346.676,1.341,1.863,1.459a32.171,32.171,0,0,0,4.657.03c1.006-.046,2.017.026,3.027.046l.015.3c-2.541.792-5.223.5-7.836.8.63,1.532,1.1,2.025,2.266,2.116a8.124,8.124,0,0,0,1.869-.176,42.361,42.361,0,0,0,15.126-5.53c.345-.206.681-.543,1.281-.316C103.505,219.265,98.094,221.181,92,222.4ZM58.818,119.281c-1.743,1.7-3.752,2.869-5.472,4.4-1.8,1.6-1.635.841-.681,3.015a1.72,1.72,0,0,0,.166.25c4.051-3.113,7.812-6.58,12.245-9.126-.09.666-.587.885-.995,1.181-3.608,2.617-7,5.5-10.436,8.338-.24.2-.568.343-.361.794.785,1.714,1.333,3.534,2.316,5.249,2.256-1.636,4.385-3.379,6.787-4.8.171.609-.3.727-.551.928-1.574,1.239-3.166,2.457-4.762,3.669-1.26.957-1.266.95-.35,2.4a59.032,59.032,0,0,1,5.489-3.948c.177.375-.029.46-.141.592a29.2,29.2,0,0,1-3.284,2.83c-1.857,1.623-1.861,1.62-.69,3.851.025.048.1.07.183.125,3.952-3.252,8.117-6.231,12.305-9.176a1.307,1.307,0,0,0,.569-1.5c-.339-1.943-1.11-3.77-1.492-5.7a107.851,107.851,0,0,0-3.243-12.312,2.976,2.976,0,0,1-1.064,1.071c-2.673,2-5.36,3.98-8.034,5.978-2.081,1.555-4.184,3.082-6.206,4.71-.825.664.1,1.334.371,1.886.253.52.61-.1.831-.289a60.456,60.456,0,0,1,4.9-3.663C57.659,119.738,57.988,119.211,58.818,119.281ZM63.91,178.3a6.988,6.988,0,0,0-.578-4.623c-2.85-5.26-5.255-10.751-7.595-16.261-3.79-8.927-7.59-17.849-11.626-26.669-1.646-3.6-3.074-7.3-4.808-10.848-3.919-8.024-8-15.968-11.945-23.979-1.49-3.028-2.589-6.26-4.21-9.211-3.408-6.2-5.652-12.894-8.459-19.347-1.228-2.824-2.308-5.728-3.747-8.441A101.7,101.7,0,0,1,3.484,40.856c-.455-1.492-.974-2.964-1.463-4.445A38.936,38.936,0,0,0,3.477,43.04C4.63,47.366,6.412,51.479,7.8,55.727a112.79,112.79,0,0,0,7.429,17.807,113.577,113.577,0,0,1,6.266,12.728c1.1,2.916,2.119,5.863,3.368,8.72,3.14,7.179,6.813,14.106,10.359,21.078,4.179,8.218,7.689,16.727,11.62,25.048,2.753,5.829,4.908,11.938,7.879,17.677,2.31,4.463,4.07,9.179,6.336,13.662C62.033,174.384,62.959,176.347,63.91,178.3Zm30.314,22.376c2.276.151,3.146-.389,3.088-2.417a9.941,9.941,0,0,0-1.873-6.273c-1.282-1.569-2.481-3.154-1.886-5.4a3.667,3.667,0,0,0-.084-1.317,18.527,18.527,0,0,0-3.837-9.542c-1.744-2.159-4.2-3.424-6.687-4.56-2.628-1.2-5.518-1.409-8.3-2.019a8.7,8.7,0,0,0-4.988.666,2.911,2.911,0,0,0-1.119.847,11.965,11.965,0,0,0-2.441,5.7,7.6,7.6,0,0,0-.248,4.136,17.665,17.665,0,0,0,7.729,10.036c3.621,2.245,7.278,4.436,11.751,4.458a2.157,2.157,0,0,1,1.454.719c.563.533,1.059,1.138,1.627,1.667C90.084,198.943,91.769,200.5,94.224,200.675Zm-26.338-64.87a3.031,3.031,0,0,1-1.346,1.451c-2.093,1.531-4.29,2.923-6.244,4.642-.3.264-.684.454-.444.99q1.4,3.132,2.752,6.282c.186.431.336.578.773.208,3.089-2.614,6.435-4.886,9.708-7.256,1.433-1.038,1.473-1.33.615-3.123-2.239,1.716-4.466,3.435-6.712,5.128-.336.254-.674,1.016-1.127.48-.3-.361.321-.811.669-1.111a51.358,51.358,0,0,1,6.158-4.757,1.351,1.351,0,0,0,.658-1.873c-.737-2.165-1.18-4.422-2.038-6.6a3.486,3.486,0,0,0-.357.212q-5.643,4.341-11.286,8.681c-1.2.92-1.232,1.018-.27,2.269A51.251,51.251,0,0,1,67.886,135.805Zm35.225,93.778,9,14.1c-.611.1-.7-.211-.875-.437-3.041-4.026-5.822-8.236-8.63-12.423-.717-1.07-1.317-.969-2.369-.473,3.829,5.586,7.684,11.015,11.948,16.166a24.047,24.047,0,0,0,2.421-2.587.945.945,0,0,0,.159-1c-.855-2.249-1.611-4.537-2.528-6.759-1.163-2.821-1.709-5.811-2.587-8.709-.085-.279.024-.739-.447-.782-.645-.058-1.444.982-1.282,1.623.809,3.2,2.147,6.2,3.261,9.29.091.252.44.538.076.843-.319-.054-.33-.312-.428-.5a63.2,63.2,0,0,1-3.864-9.058c-.231-.662-.461-.742-1.095-.5-.733.275-.859.564-.5,1.272a30.626,30.626,0,0,1,1.323,3.168c.1.283.426.62-.011,1.131-.727-1.38-1.46-2.645-2.068-3.968C104.227,229.142,103.786,229.083,103.111,229.583ZM82.054,169.117c-1.149-4.765-1.567-9.518-3.823-13.829a48.312,48.312,0,0,1-6.17,7.042,2.668,2.668,0,0,0-.566,3.681,4.294,4.294,0,0,1,.377.919c.138.526.411.545.9.44a12.628,12.628,0,0,1,6.047.286C79.92,167.957,80.849,168.645,82.054,169.117ZM25.585,20.251c-.776-.331-1.447-.624-2.124-.9a7.617,7.617,0,0,0-8.683,1.605c-3.059,2.895-3.088,6.921-3.652,10.734C15.284,27.085,20.513,23.907,25.585,20.251ZM94.726,226.028c.182,1.637,2.045,2.263,3.606,1.954,1.2-.238,2.371-.6,3.554-.909a22.12,22.12,0,0,0,6.237-2.605,4.266,4.266,0,0,0,2.252-3.608,1.3,1.3,0,0,0-.5-1.162c-.317-.211-.521.3-.749.5a31.494,31.494,0,0,1-7,4.381A14.677,14.677,0,0,1,94.726,226.028ZM65.669,155.207c2.94-2.522,6.095-4.786,9.165-7.159,1.5-1.157,1.539-1.561.467-3.275-2.918,2.647-6.142,4.892-9.228,7.315-1.6,1.259-1.6,1.262-.524,3.038C65.567,155.154,65.61,155.167,65.669,155.207Zm8.808-13.2c-1.121.885-2.214,1.768-3.327,2.624-2.411,1.853-4.81,3.722-7.259,5.524-1.019.749-.148,1.332.135,1.825.431.748.718-.116.949-.311,2.746-2.33,5.716-4.366,8.559-6.567C75.088,143.9,75.14,143.97,74.477,142.011ZM66.732,157.8c2.947-2.269,5.611-4.823,8.742-6.759,1.159-.717,1.574-1.532.886-2.774a2.945,2.945,0,0,1-.149-.421,5.962,5.962,0,0,0-.616.414c-2.741,2.445-5.657,4.675-8.52,6.971C65.827,156.23,65.841,156.248,66.732,157.8Zm8.986-5.324c-.387-.087-.555.139-.733.292-2.023,1.738-4.19,3.289-6.319,4.889-1.462,1.1-1.414,1.08-.785,2.783.277.749.5.591.956.21a26.657,26.657,0,0,0,4.282-4.627C73.984,154.864,75.139,153.892,75.718,152.475ZM15.48,18.506c-.293-.219-.41-.1-.537-.038-3.133,1.618-4.544,4.5-5.58,7.644-.764,2.318-.489,4.777-.85,7.156a2.2,2.2,0,0,0,.393,1.821,42.893,42.893,0,0,1,.906-7.131C10.524,24.063,11.977,20.736,15.48,18.506Z"/>
    <path d="M83.349,123.6a112.864,112.864,0,0,1,6.06,21.029c.941,4.607,2.378,9.112,3.571,13.669.42,1.6.8,3.212,1.131,4.833.055.269.393.822-.16.937-.49.1-.513-.477-.6-.784-.8-2.833-1.441-5.716-2.362-8.508-3.156-9.566-4.814-19.513-7.525-29.19a10.658,10.658,0,0,1-.256-1.4A2.115,2.115,0,0,1,83.349,123.6Z"/>
    <path d="M63.151,33.8C68.2,48.422,71.124,63.6,74.959,78.542,69.817,63.951,66.987,48.745,63.151,33.8Z"/>
    <path d="M74.26,59.313c-.9-3.051-1.763-6.115-2.721-9.148A78.388,78.388,0,0,1,68.791,41.2c-.43-2.278-.934-4.542-1.4-6.815-.084-.411-.315-.949.229-1.147s.75.32.916.736A34.357,34.357,0,0,1,70.3,40.8c.95,5.364,2.341,10.624,3.759,15.879a9.1,9.1,0,0,1,.537,2.6Z"/>
    <path d="M76.8,93.526c-.329-.835-.632-1.683-.992-2.5A53.727,53.727,0,0,1,71.76,78.18c-.13-.793-.419-1.56-.62-2.342-.089-.347-.077-.707.34-.819.375-.1.509.242.632.5a4.613,4.613,0,0,1,.338.929c1.114,4.809,2.672,9.49,4.079,14.215A5.391,5.391,0,0,1,76.8,93.526Z"/>
    <path d="M65.612,53.325c.726.718,3.469,10.573,3.708,13.319-.363.188-.43-.1-.539-.332a16.9,16.9,0,0,1-1.043-3.254c-.728-2.962-1.44-5.929-2.172-8.891A1,1,0,0,1,65.612,53.325Z"/>
    <path d="M101.033,120.836c.321,1.409.6,2.828.974,4.222.408,1.525.9,3.028,1.364,4.537.067.217.2.446-.006.61s-.352-.04-.418-.2a44.028,44.028,0,0,1-2.286-9.093Z"/>
    <path d="M70.27,30.134a21.806,21.806,0,0,1,1.785,6.906A26.082,26.082,0,0,1,70.27,30.134Z"/>
    <path d="M95.881,152.53a17.168,17.168,0,0,1,1.4,6.492C96.358,156.958,96.309,154.7,95.881,152.53Z"/>
    <path d="M47.323,76.152a6.327,6.327,0,0,1-.754.812c-2.1,1.583-4.039,3.366-6.226,4.832-.265.178-.615.548-.855.206-.26-.369.274-.532.5-.706,2.218-1.732,4.454-3.44,6.688-5.151C46.812,76.04,46.965,75.9,47.323,76.152Z"/>
    <path d="M93.518,210.894c-.116-.079-.245-.119-.281-.2-.071-.159.047-.289.177-.355A9.6,9.6,0,0,1,95.7,209.6a.288.288,0,0,1,.237.146c.027.073-.021.245-.078.268C95.08,210.316,94.3,210.6,93.518,210.894Z"/>
    <path d="M66.335,119.906c-3.18,2.471-5.867,5.043-9.13,7.286C57.531,126.107,64.938,120.222,66.335,119.906Z"/>
    <path d="M68.012,176.9c-.272-2.273,2.861-4.99,4.749-5.534a10.966,10.966,0,0,1,6.933.294c2.684.948,5.405,1.74,7.532,3.746a12.286,12.286,0,0,1,4.1,9.2,10.066,10.066,0,0,0,2.037,6.649,12.841,12.841,0,0,1,2.484,5.408,1.993,1.993,0,0,1-2.577,2.47,9.428,9.428,0,0,1-4.144-2.406,17.369,17.369,0,0,0-7.143-3.959,14.2,14.2,0,0,1-5.323-2.785c-1.58-1.356-3.422-2.369-5-3.782C68.942,183.751,67.812,181.839,68.012,176.9ZM92.6,197.636c-.17-.193-.335-.39-.509-.579a52.359,52.359,0,0,1-7.07-9.8,31.648,31.648,0,0,0-3.662-5.3c-2.67-3.069-6.427-3.562-10.1-4.243-.527-.1-.655.189-.575.642a19.427,19.427,0,0,0,1.079,4.076,24.338,24.338,0,0,0,3.168,4.816,13.086,13.086,0,0,0,7.862,4.915c2.683.66,5.109,1.54,7.014,3.648A4.971,4.971,0,0,0,92.6,197.636Z"/>
    <path d="M62.366,143.862a84.5,84.5,0,0,1,8.978-6.022C71.073,138.8,63.533,143.953,62.366,143.862Z"/>
  </g>
</svg>
