<svg xmlns="http://www.w3.org/2000/svg" viewBox="0 0 121.957 279.412">
  <g>
    <path d="M106.369,57.122a24.024,24.024,0,0,1-.01-4.629,1.931,1.931,0,0,1,2.27-1.806,24.044,24.044,0,0,0,7.066-.048,2.258,2.258,0,0,1,2.385.668c.5.662.221,1.259-.211,1.843a1.02,1.02,0,0,0-.105.559c-.02,1.887-.164,3.764-.306,5.646a62.671,62.671,0,0,0,1.089,17.574c.5,2.424.018,2.794-2.454,3.124a34.991,34.991,0,0,1-6.321.28c-1.181-.056-1.576-.708-1.62-1.794-.09-2.229-.237-4.455-.35-6.683-.025-.492.042-1.046-.732-.865-2.447.571-4.973.422-7.44.842a8.03,8.03,0,0,0-4.556,2.639,25.341,25.341,0,0,0-5.9,11.786Q88.6,88.637,88,91.01a2.758,2.758,0,0,1-.359,1.089c-1.671,1.972-1.378,4.338-1.413,6.646a120.181,120.181,0,0,0,.857,16.274c.764,6.323.308,12.713.657,19.059.317,5.783-.339,11.566.079,17.318.427,5.875.325,11.744.431,17.615.051,2.811-.4,5.6-.3,8.434.246,7,3.831,11.926,9.362,15.686,3.012,2.047,6.5,2.374,10.036,2.344.474,0,.668-.12.61-.68a46.266,46.266,0,0,0-.577-5.468c-.27-1.2.174-1.924,1.4-1.984a89.5,89.5,0,0,1,9.146-.31c1.433.077,1.669.6,1.623,2.068a53.061,53.061,0,0,0,.171,9.572,33.95,33.95,0,0,1,.325,3.9,95.617,95.617,0,0,0,1.858,14.987c.263,1.361-.383,2.355-1.746,2.324-3.148-.072-6.292-.265-9.444-.232-1.151.012-1.685-.676-1.738-1.869-.143-3.24-.372-6.476-.552-9.714-.027-.492.09-.923-.726-.7-2.83.784-5.769.116-8.643.6a39.606,39.606,0,0,1-9.468.908c-.67-.048-.644.29-.549.805a35.856,35.856,0,0,1,.721,6.065,1.228,1.228,0,0,0,.929,1.294,19.531,19.531,0,0,1,5.708,3.318c1.662,1.272,2.272,3.121,2.878,4.942,1.384,4.159,2.367,8.36,1,12.768a8.788,8.788,0,0,1-4.208,5.467c-2.022,1.113-4.258,1.962-5.606,4.037a5.694,5.694,0,0,0-.751,1.681c-1.6,5.96-3.568,11.8-7.07,16.937-2.777,4.073-6.723,6.888-10.872,9.5-5.652,3.556-11.789,4.07-18.187,3.536-1.158-.1-2.329-.09-3.492-.07a21.649,21.649,0,0,1-11.236-3.1,102.016,102.016,0,0,1-15.991-11.8,21.932,21.932,0,0,1-6.078-9.455c-.882-2.468-1.974-4.843-2.965-7.262a1.611,1.611,0,0,0-1.374-1.074c-2.529-.426-4.387-2.174-6.264-3.656a4.615,4.615,0,0,1-1.318-4.008,32.162,32.162,0,0,0-.428-7.82c-.5-3.806,1.173-6.7,3.968-9,1.668-1.369,3.323-2.876,5.529-3.4.763-.179.5-.692.5-1.133-.015-3.6-.594-7.15-.809-10.732-.43-7.184-.271-14.369-.039-21.551.126-3.889-.217-7.774-.079-11.642.231-6.432-.535-12.783-.969-19.166a219.785,219.785,0,0,1,.025-25.922c.245-4.89-.024-9.8.048-14.705.116-7.956-.229-15.914.258-23.87a75.05,75.05,0,0,0-.466-13.084,121.62,121.62,0,0,1-.756-17.281c.031-1.1-.176-1.566-1.465-1.715-1.984-.23-3.873-1.415-5.792-1.533-2.146-.133-2.586-1.453-3.194-2.837a21.123,21.123,0,0,1-.6-2.534C-.749,46.348.442,42.024,1.714,37.716a6.853,6.853,0,0,1,4.178-4.681c2.349-.949,4.785-2.062,5.987-4.359a64.548,64.548,0,0,1,4.4-6.631c2.283-3.312,4.312-6.843,7.285-9.622C29.554,6.83,36.2,2.235,44.39.672,49.906-.38,55.483-.4,60.779,2.109a25.109,25.109,0,0,0,3.708,1.265c4.2,1.234,7.275,4.113,10.371,6.986,4.307,4,7.279,9,10.481,13.83a13.761,13.761,0,0,0,6.522,5.287,10.979,10.979,0,0,1,7.222,10.132c.134,3.2.436,6.387.7,9.578a15.174,15.174,0,0,1-.329,4.326c-.559,2.7-2.3,4.131-5.01,4.659a39.679,39.679,0,0,1-6.46.883c-1.2.035-1.27.613-1.224,1.65.055,1.237.837,1.069,1.471.931a31.76,31.76,0,0,1,6.372-.243c3.449-.051,6.9-.063,10.348.005,1.183.024,1.552-.374,1.439-1.51C106.3,58.974,106.369,58.045,106.369,57.122ZM72.583,135.656c-.442,1.354-.48,2.524,1.315,2.835.715-1.841.715-1.841-1.365-2.786-.275-.617-.9-.86-1.388-1.226-.331-.245-.79-1.043-1.185-.18-.262.571-1.024,1.364.114,1.942.493.251.964.544,1.44.815C71.85,136.493,71.966,135.88,72.583,135.656ZM40.688,30.1a14.738,14.738,0,0,1-6.248.565c-2.075-.162-4.154-.292-6.226-.5A48.353,48.353,0,0,1,16.6,28.046a1.745,1.745,0,0,0-2.382.67A12.536,12.536,0,0,1,9.632,32.68c-1.644.777-2.72,2.079-4.167,3.3,1.933.736,3.7,1.458,5.507,2.089A80.2,80.2,0,0,0,28.8,41.906Q40.154,43.154,51.563,43.6c.223.008.5-.046.537.417a9.007,9.007,0,0,1-4.026.7,115.786,115.786,0,0,1-20.156-1.2c-7.793-1.166-15.489-2.858-22.52-6.668-.525-.284-.771-.2-1.075.2A9.214,9.214,0,0,0,2.758,43.5c.026.421.365.546.668.659a107.666,107.666,0,0,0,11.447,3.822A7.193,7.193,0,0,1,18.1,49.1a10.5,10.5,0,0,1-1.928-.016,105.646,105.646,0,0,1-12.2-3.338c-.387-.132-.994-.835-1.315-.015a1.1,1.1,0,0,0,.815,1.654c1.2.311,2.379.736,3.57,1.1,5.558,1.7,11.118,3.534,16.862,4.354a182.9,182.9,0,0,0,23.853,2.13c.285,0,.7-.183.871.44a15.019,15.019,0,0,1-2.368.38c-14.94.031-29.4-2.817-43.745-7.388.331.893-.649,2.139.667,2.42,4.339.923,8.538,2.35,12.839,3.4,1.517.369,3.05.671,4.807,1.053a3.166,3.166,0,0,1-2.033.383c-5.01-.264-9.746-1.816-14.543-3.076-.507-.134-1.291-.778-1.458-.255a1.874,1.874,0,0,0,.744,2.406,3.6,3.6,0,0,0,1.042.483c3.362.522,6.714,1.179,10.1,1.462,4,.335,8.06-.3,12.055.355,2.121.346,4.26.057,6.358.371a70.981,70.981,0,0,0,12.277.823c5.814-.154,11.613-.356,17.425-.055,2.4.124,3.569.31,4.313.848-.3.47-.781.258-1.192.318-2.6.381-5.218.039-7.814.289-2.759.266-5.574.7-8.269.179a45.861,45.861,0,0,0-11.047-.6c-5.236.261-10.485-.071-15.715.39-.521.046-1.058-.127-1.588-.132-2.273-.023-4.424-.873-6.677-.977-.486-.023-1.534-.48-1.389.6.133.989-.925,2.431.847,2.942,1.248.359,2.5.7,3.77.992,5.1,1.174,10.213,2.085,15.486,1.313A11.091,11.091,0,0,1,36.4,64.1a61.509,61.509,0,0,0,6.224.464c8.586.088,17.16-.049,25.733-.755,4.489-.37,9-.626,13.489-1,2.637-.217,2.608-.273,2.871-2.716.094-.87-.118-1.062-1.013-.917a54.735,54.735,0,0,1-9.586.431c-.645-.009-1.442-.062-1.5-.8-.063-.8.772-.836,1.385-.951a24.479,24.479,0,0,1,5.342-.55c3.255.11,6.492-.2,9.734-.354a24.273,24.273,0,0,0,6.128-1.117c1.717-.541,2.184-1.207,2.016-2.81A61.943,61.943,0,0,1,84.73,55.393a45.949,45.949,0,0,1-6.96.154c-.365-.028-.748-.109-.726-.512.017-.306.395-.342.7-.371,1.925-.181,3.846-.4,5.772-.572,4.385-.388,8.758-.8,12.948-2.314.844-.3,1.226-.659,1.214-1.6-.048-3.882-.292-7.751-.642-11.616-.107-1.185-.442-1.643-1.655-.915a13.5,13.5,0,0,1-2.314.815,58.984,58.984,0,0,1-19.44,3.353c-.48.008-1.279.215-1.288-.528-.009-.692.751-.405,1.174-.42,7.091-.249,14.071-1.025,20.568-4.189.678-.33,1.8-.325,1.955-1.009.192-.824-1.021-.744-1.525-1.213a16.484,16.484,0,0,0-3.62-3.111,21.934,21.934,0,0,1-4.672-3.1,1.6,1.6,0,0,0-1.747-.232c-1.638.554-3.309,1.014-4.973,1.49-.284.081-.671.273-.826-.346l6.029-2.275-.1-.451c-2.994.431-5.895,1.71-9.01,1.353.1-.453.405-.455.689-.526,2.008-.5,4.021-.987,6.008-1.565.318-.092,1.091.05.949-.575s-.648-.736-1.373-.568A5.152,5.152,0,0,1,78.2,24.6c1.181-.356,1.994-.582,2.793-.851.314-.107.867-.091.723-.635-.129-.486-.42-.726-1.079-.638a27.72,27.72,0,0,1-3.479.038c1-.89,2.133-.7,2.948-1.247-1.157-2.163-1.157-2.162-3.415-1.589-1.027.26-2.044.586-3.086.755-1.318.214-2.642.7-4.4.152,2.8-.768,5.237-1.41,7.651-2.129.294-.087,1.062.022.847-.663-.2-.638-.75-.23-1.107-.126a5.244,5.244,0,0,1-3.4-.01,23.978,23.978,0,0,1,2.272-.916c.319-.127.949-.129.818-.6a1.141,1.141,0,0,0-1.155-.917,11.935,11.935,0,0,0-1.424.244,3.862,3.862,0,0,1-2.461-.12c1.08-.779,2.33-.657,3.281-1.291C65.193,1.872,46.255-.82,34.5,7.958c6.4,1.872,13.03,1.461,19.6,1.911-.06.376-.242.442-.435.461A51.974,51.974,0,0,1,35.087,9.236c-2.046-.545-3.228.215-4.385,1.536,3.252,1.236,6.8,1.281,9.864,2.986-3.605-.2-7.231-.18-10.614-1.635-.368-.158-.563-.239-.849.056-.564.582-1.149,1.143-1.823,1.81,6.928,2.164,13.935,2.594,21.008,2.84-.184.628-.583.465-.885.529-2.806.595-5.612.05-8.416-.013a36.568,36.568,0,0,1-11.182-1.89,2.11,2.11,0,0,0-3,1.122c4.74,2.688,10.167,2.872,15.274,4.334-.4.557-.836.422-1.272.369-1.293-.158-2.6-.241-3.88-.443-3.12-.493-6.279-.822-9.168-2.274-2.057-1.033-2.072-1.008-3.506.842a1.408,1.408,0,0,0-.132.431,45.425,45.425,0,0,1,5.212,1.948.818.818,0,0,1-1.061.351c-1.158-.3-2.364-.442-3.479-.846-1.238-.449-2.086-.391-2.872.839a32.318,32.318,0,0,1-2.908,3.635c-.576.665-.336,1.009.359,1.171a144.041,144.041,0,0,0,15.511,2.677C35.477,29.923,38.082,29.861,40.688,30.1ZM88.663,246.944c-.981.281-1.709.479-2.431.7-6.089,1.832-12.4,2.485-18.643,3.5-1.716.279-3.458.4-5.191.565-.377.035-.862,0-.878-.524-.017-.5.424-.554.828-.6a24.379,24.379,0,0,0,3-.44c4.864-1.255,9.767-2.285,14.719-3.153a29.082,29.082,0,0,0,10.7-3.677,17.383,17.383,0,0,1,4-2.025,4.984,4.984,0,0,0,3.718-4.776,41.344,41.344,0,0,0-.315-7.839c-.58-3.533-1.813-6.611-5.526-8.021a7.712,7.712,0,0,1-1.918-1.286,3.408,3.408,0,0,0-4.279-.267c-4.687,3.1-10.077,4.411-15.309,6.09-3.963,1.272-8.151,1.537-12.266,2.008a16.711,16.711,0,0,1-8.013-1,3.515,3.515,0,0,1,1.875-.975,25.041,25.041,0,0,1,8.011-1.1,46.826,46.826,0,0,0,12.037-1.529A44.167,44.167,0,0,0,85,217.712c.692-.424,1.726-.757,1.787-1.58a30.594,30.594,0,0,0-.255-7c-5.729,3.45-12.061,4.7-18.1,6.741-2.807.949-5.8.915-8.716,1.33-4.735.674-9.466,1.319-14.241,1.56a66.923,66.923,0,0,1-10.038-.32,78.009,78.009,0,0,1-11.659-1.695,45.849,45.849,0,0,1-6.928-2.919c0,.8.036,1.466-.01,2.126a1.054,1.054,0,0,0,.869,1.253,105.481,105.481,0,0,0,12.259,3.06c3.737.673,7.519,1.022,11.27,1.564a50.713,50.713,0,0,0,13.431.022c2.111-.255,4.219-.541,6.479-.833a1.8,1.8,0,0,1-1.389,1.093c-2.1.739-4.29,1.136-6.446,1.663-5.663,1.385-11.253.123-16.781-.748a116.6,116.6,0,0,1-19.563-5.015c-.647,3.405-.348,3.945,2.373,4.564,3.653.832,7.29,1.724,10.966,2.468,5.622,1.138,11.235,2.191,17.01,1.925.5-.023,1,.042,1.5.066a3.12,3.12,0,0,1-2.377.8c-4.2-.007-8.409.049-12.612-.016a46.059,46.059,0,0,1-12.61-2.136c-1.815-.548-3.439-1.607-5.262-2.035-1.766-.414-2.114-.641-1.884-2.382.046-.347.3-.706-.069-1.13-1.242.956-2.449,1.921-3.7,2.828-.514.374-.262.58.036.87a15.032,15.032,0,0,0,4.379,3.074A60.857,60.857,0,0,0,29.64,231.1a10.387,10.387,0,0,1,4.955,1.569c-.747.058-1.159.119-1.571.117a35.468,35.468,0,0,1-9.23-1.483c-5.146-1.417-10.345-2.779-14.313-6.71-.621-.616-.865-.081-1.08.279-.233.39-1.123.766-.189,1.356a46.116,46.116,0,0,0,6.072,3.671,91.2,91.2,0,0,0,12.45,4.363,4.189,4.189,0,0,1,2.354,1.124,10.67,10.67,0,0,1-2.182-.019c-6.78-1.628-13.638-3.082-19.173-7.782-.277-.235-.516-.474-.758.06-.738,1.625-.372,2.612,1.3,3.383.655.3,1.328.567,1.976.882,1.622.787,3.235,1.593,4.851,2.392l-.163.379c-2.97-.613-5.607-2.2-8.651-3.271.378.757-.445,1.532.616,2a79.906,79.906,0,0,0,13.565,4.65,17.794,17.794,0,0,1,4.916,1.623,44.192,44.192,0,0,1-18.837-4.919c.191,1.155-.475,2.342.96,2.981a68.059,68.059,0,0,0,8.842,3.516,93.385,93.385,0,0,0,17.79,3.272c6.156.526,12.267,1.537,18.458,1.736,1.874.06,3.744.286,5.687.441a1.139,1.139,0,0,1-.9.667,17.8,17.8,0,0,1-4.454.549c-5.474-.036-10.876-.889-16.311-1.39a130.956,130.956,0,0,1-16.047-2.577A54.811,54.811,0,0,1,6.69,238.745a2.861,2.861,0,0,0,1.663,2.483c2.018,1.325,4.08,2.584,6.105,3.9a3.881,3.881,0,0,1,1.6,2.254c.472,1.448.8,3.062,3.056,3.425,3.769.606,7.381,2.053,11.214,2.486,1.005.113,2,.333,3,.485.945.144,1.894.263,2.842.393l-.072.477A61.792,61.792,0,0,1,18.12,251.9a1.476,1.476,0,0,0,1,1.278,63.921,63.921,0,0,0,14.948,4.07A109.362,109.362,0,0,0,51.3,258.47c.779-.017,1.561.072,2.619.127-.407.358-.532.561-.687.589a17.591,17.591,0,0,1-2.711.4c-10.716.209-21.211-.968-31.24-5.171.592,2.35,1.159,2.984,3.124,3.388,2.726.56,5.45,1.126,8.2,1.588a11.217,11.217,0,0,1,4.809,1.426c-2.384.363-4.694-.295-7.037-.545a29.092,29.092,0,0,1-6.922-1.569c2.445,2.846,4.5,6.155,8.361,7.235a78.81,78.81,0,0,0,14.562,2.788c1.179.1,2.479,0,3.567.829-5.427.472-10.756-.317-16.111-1.323,1.831.911,2.7,2.947,5.327,3.013,2.661.066,5.416.761,8.129,1.073a72.217,72.217,0,0,0,9.976.8,47,47,0,0,0,14.067-2.59,11.5,11.5,0,0,1,3.777-.955c-.193.245-.257.4-.369.458A34.779,34.779,0,0,1,53.7,274.689,120.188,120.188,0,0,1,38.47,273a17.136,17.136,0,0,0,6.934,3.213c3.728.756,7.53.481,11.3.665a27.148,27.148,0,0,0,18.948-6.494C83,264.4,85.913,255.856,88.663,246.944Zm-11.77-93.136a105.8,105.8,0,0,1-14.351,8.945c-5.068,2.514-9.753,5.718-14.769,8.35a121,121,0,0,1-20.709,8.615c-.517.159-.571.356-.589.767q-.134,2.979-.289,5.956c-.18,3.4.239,6.79.341,10.185.09,2.991.534,5.97.827,9.016,2.646-.862,5.009-2.242,7.7-2.689a11.739,11.739,0,0,0,3.489-1.282c3.917-2.038,7.8-4.161,11.834-5.949a98.407,98.407,0,0,0,26.978-18.228c.368-.341.269-.708.26-1.064-.127-4.8-.183-9.611-.45-14.407C77.014,159.356,77.024,156.688,76.893,153.808ZM13.408,63.55a63.737,63.737,0,0,0,.034,6.443c.713,6.81,1,13.642,1.25,20.477.118,3.3-.065,6.621.242,9.9.357,3.821.737,7.631.744,11.471.016,7.819-.08,15.641.089,23.456.123,5.681.5,11.357-.068,17.029a132.308,132.308,0,0,0-.225,23.849,191.9,191.9,0,0,1,.442,19.347c-.108,5.054.154,10.081.406,15.116.044.882.263,1.43,1.306,1.53,2.112.2,4.21.543,6.315.811.329.042.677.09.657-.476-.1-2.862-.072-5.731-.264-8.585a130.8,130.8,0,0,1-.37-15.129c.237-4.94.444-9.881.265-14.83-.416-11.545-.3-23.1-.955-34.644-.329-5.772.461-11.527.294-17.3-.052-1.8-.182-3.6-.073-5.385.486-7.974-.534-15.908-.593-23.87-.051-6.885-.771-13.76-.718-20.656.014-1.891.11-3.782.228-5.669a1.035,1.035,0,0,0-1.009-1.267A71.18,71.18,0,0,1,13.408,63.55Zm12.179,86.931c1.145-.326,1.99-.786,2.887-1.111a157.572,157.572,0,0,0,14.776-5.656c5.171-2.489,10.039-5.617,14.991-8.548a156.578,156.578,0,0,0,16.894-11.8,1.479,1.479,0,0,0,.639-1.354c-.249-5.677.424-11.34.274-17.017-.041-1.568-.006-3.137-.006-4.954a5.426,5.426,0,0,0-.674.466c-5.459,6.266-12.32,10.7-19.441,14.765-4.787,2.729-9.7,5.235-14.538,7.874A78.185,78.185,0,0,1,26.3,129.506c-.773.231-1.018.436-.992,1.2C25.527,137.251,25.687,143.8,25.587,150.481Zm-.266-51.93c4.9-2.34,9.4-4.667,14.046-6.663A96.743,96.743,0,0,0,57.153,81.846a105.884,105.884,0,0,0,11.419-9.2c1.876-1.765,3.62-3.669,5.636-5.728a13.39,13.39,0,0,0-1.935.012c-5.188.906-10.428.213-15.637.529-5.848.356-11.705-.406-17.56.023-4.782.349-9.37-1.108-14.063-1.6-.634-.067-.885-.1-.874.607.028,1.844-.14,3.706.053,5.53.693,6.561.882,13.145,1.117,19.728C25.386,93.919,25.321,96.1,25.321,98.551ZM84.47,73.763c0-2.233-.013-4.466.008-6.7.006-.649-.069-.951-.885-.823-1.818.285-3.656.457-5.491.611-.644.053-.71.341-.584.842a33.9,33.9,0,0,1,.569,8.393c0,16.11.1,32.221-.044,48.329-.1,11.211,1.084,22.37,1.052,33.575-.019,6.547.28,13.1.743,19.629.234,3.3.563,6.589.758,9.889.253,4.256,1.057,8.467.992,12.748-.037,2.422.027,4.846-.03,7.268-.022.893.319,1.017,1,.7,1.144-.526,2.264-1.105,3.407-1.633a1,1,0,0,0,.638-1.025c0-1.793.025-3.585.032-5.377a103.042,103.042,0,0,0-1.228-14.759,85.908,85.908,0,0,1-.384-14.093c.237-9.551-.088-19.116.139-28.667.165-6.948-.018-13.863-.424-20.791-.3-5.118-1.131-10.16-.944-15.365C84.188,95.607,84.3,84.681,84.47,73.763ZM72.2,72.883c-1.1,1.077-2.395,1.668-2.834,3.059-3.562,11.281-7.385,22.472-11.729,33.478a4.152,4.152,0,0,1-1.493,2.347c4.222-11.627,8.324-23.281,12.025-35.406-1.269,1.182-2.73,1.721-3.217,3.218-3.123,9.6-6.749,19.022-10.358,28.448-.762,1.99-1.469,4-2.268,6.185a25.029,25.029,0,0,0,3.8-1.905,7.68,7.68,0,0,0,4.557-5.894c.768-3.652,2.148-7.177,3.281-10.751.137-.433.214-1.1.855-.97s.3.632.214,1.06a63.086,63.086,0,0,1-2.189,6.575c-.728,2.245-1.525,4.467-2.291,6.7,2.832-1.824,5.4-3.8,7.983-5.769a2.467,2.467,0,0,0,.755-1.214c.594-1.622,1.221-3.237,1.717-4.89,1.653-5.514,4.268-10.785,4.6-16.635.206-3.6.038-7.219.038-10.881-3.266,1.854-2.342,5.742-4.3,8.473C71.3,76.216,72.2,74.74,72.2,72.883ZM49.291,89.147a4.351,4.351,0,0,0-2.865,2.74c-3.833,7.643-7.8,15.22-11.667,22.845-1.834,3.613-3.555,7.284-5.327,10.929a110.63,110.63,0,0,0,13.6-5.987A3.227,3.227,0,0,0,44.58,117.8c.769-2.02,1.634-4,2.485-5.991,3.444-8.044,7.047-16.022,10.1-24.23A10.957,10.957,0,0,0,58.3,83.394c-1.085,1.009-2.59,1.063-3.2,2.471q-3.2,7.413-6.48,14.792a24.513,24.513,0,0,1-3.149,5.762c2.841-6.7,5.765-13.358,8.351-20.183-1.13.772-2.691.969-3.2,2.337-2.035,5.457-4.682,10.642-6.988,15.978-.595,1.378-1.263,2.723-1.9,4.083l-.454-.2C43.978,102.088,46.947,95.847,49.291,89.147Zm62.437-30.886a12.952,12.952,0,0,1,.422,2.057c.229,5.026.456,10.054.6,15.083.085,3.041.014,3.005,3.087,2.906.86-.028,1.086-.323,1.028-1.113-.218-2.988-.466-5.969-.458-8.978.008-2.509-.444-5.018-.418-7.546.022-2.138.008-4.276,0-6.413,0-.454.147-1-.657-1-1.942.01-3.885-.025-5.827-.046-.4,0-.611.1-.576.585.17,2.373-.107,4.783.165,7.116.174,1.488-.725,1.883-1.4,1.81a21.616,21.616,0,0,0-4.968.459,99.631,99.631,0,0,1-14.4,1.058c-1.271-.034-1.541.346-1.455,1.515a116.947,116.947,0,0,1,.244,16.005,13.767,13.767,0,0,0-.077,4.4c.383-2.247,2.275-3.973,1.638-6.648-.564-2.372-.052-4.927.27-7.368.162-1.232-.016-2.652,1.051-3.863.252,3.727-.521,7.249-.146,11.069.639-1.09,1.633-2,1.513-2.725-.4-2.42.3-4.7.461-7.042A7.755,7.755,0,0,1,93.1,65.029c.516,3.393-.424,6.494-.068,9.683.213-.136.318-.167.364-.237,3.518-5.348,9.062-5.656,14.634-5.875.971-.038,1.475.415,1.532,1.477.128,2.374.372,4.74.31,7.124-.01.365-.279,1,.4,1.041.708.039.469-.616.455-.972-.174-4.562.446-9.1.3-13.664A12.617,12.617,0,0,1,111.728,58.261Zm2.684,143.461.361,0c.016,2.027.572,4.044.269,6.063-.436,2.9-.095,5.811-.239,8.712-.018.362-.115.819.486.866,1.062.083,2.124.169,3.185.265.595.054.867-.263.685-.772a14.736,14.736,0,0,1-.291-3.016c-.672-4.594-.735-9.238-1.177-13.848-.3-3.116.229-6.194.064-9.294-.043-.806-.235-1.046-1.064-1.083-2.142-.1-4.248.3-6.377.342-.655.011-.9.3-.788,1.076a45.732,45.732,0,0,1,.835,7.447c-.114,5.923.916,11.791.653,17.708-.038.847.141,1.222,1.1,1.183.856-.035,1.248-.124,1.279-1.165.115-3.961.345-7.919.578-11.876A23.335,23.335,0,0,1,114.412,201.722ZM41.664,93.445c-1.836.932-3.349,1.793-4.274,3.7-3.834,7.916-7.834,15.752-11.774,23.618a2.331,2.331,0,0,0-.309,1.1c.02,1.83.009,3.66.009,5.661,1.251-.736,2.866-.446,3.507-1.938,4.184-9.735,9.392-18.97,13.91-28.542C43.6,95.2,44.561,93.4,45.479,91.58c-.988.4-2.018.483-2.505,1.552-4.312,9.474-9.285,18.621-13.868,27.961a23.375,23.375,0,0,1-2.915,4.888C30.988,115.03,36.861,104.592,41.664,93.445ZM48.757,215.6c1.819,0,3.324-.059,4.821.022a1.634,1.634,0,0,0,1.758-1.111q4.886-9.988,9.835-19.945c.876-1.771,1.78-3.527,2.844-5.63-2.153,1.356-3.922,2.527-5.751,3.595a4.1,4.1,0,0,0-1.73,1.83q-2.645,5.394-5.692,10.576C52.813,208.371,50.883,211.864,48.757,215.6Zm12.98-.968c1.63-.367,3.064-.758,4.522-.989a1.573,1.573,0,0,0,1.372-1.181c2.926-6.935,5.478-14.035,9-20.709,1.074-2.034,2-4.048,1.488-6.449-.214-.991.191-2.073-.326-3.164C71.6,192.571,67.428,203.847,61.737,214.631ZM63.786,79.9c-1.463.988-2.724,1.854-4.005,2.691a.633.633,0,0,0-.354.56A16.24,16.24,0,0,1,57.8,88.96c-3.309,7.783-6.715,15.525-10.087,23.282-.883,2.032-1.773,4.061-2.689,6.16,2.064-.426,2.67-1.907,3.3-3.435,1.756-4.267,3.022-8.7,4.552-13.044.123-.349.133-1.06.756-.816.5.2.247.75.107,1.147-.876,2.493-1.73,4.993-2.655,7.467-.866,2.313-1.811,4.6-2.721,6.894,1.191-.911,2.857-1.029,3.445-2.707,2.62-7.472,5.336-14.911,8.01-22.364C61.175,87.76,62.638,84.011,63.786,79.9Zm11.5,103.845c-1.927,1.511-3.506,2.847-5.242,3.973a2.023,2.023,0,0,0-.58.8c-3.539,6.964-7.089,13.922-10.589,20.906a54.219,54.219,0,0,0-3.143,6.07c.751.295,1.32-.215,1.944-.17,2.235.159,3.413-.686,4.356-2.946,3.135-7.516,6.627-14.884,10.028-22.288C73,188.049,74.091,186.083,75.287,183.744Zm19.12,9.98c0,4,0,7.688,0,11.377,0,.428-.087.9.62.875.606-.023.521-.43.546-.808.1-1.542.13-3.093.328-4.622.15-1.154.03-2.432.988-3.513.679,2.606-.021,5.058.1,7.506.054,1.079.208,1.5,1.425,1.448,3.039-.127,6.085-.127,9.126-.075.785.013.868-.244.866-.879-.006-1.94-.161-3.876-.2-5.807-.031-1.5-.734-1.611-1.773-1.359a12.429,12.429,0,0,1-5.172-.283C98.66,197.126,96.581,195.621,94.407,193.724ZM31.457,206.81a26.707,26.707,0,0,1-3.157.818c-.873.117-.97.547-.948,1.271a19.2,19.2,0,0,1-.073,3.623c-.127.781-.06.984.725,1.074a39.814,39.814,0,0,1,5.175.788c2.388.6,4.244.305,5.207-2.249a2.407,2.407,0,0,1,.336-.471l6.905-9.915c-3.5,1.138-7.233,1.763-9.183,5.372a7.012,7.012,0,0,1-1.152,1.5c-.854.88-1.405,2.05-2.54,2.676,1.132-2.333,2.9-4.217,4.374-6.389-2.837.469-4.149,1.268-5.581,3.38-.841,1.24-1.647,2.5-2.511,3.727-.174.246-.152.811-.876.631C28.865,210.521,30.384,208.908,31.457,206.81Zm42.6,3.72a3.056,3.056,0,0,1,.009-.84,78.381,78.381,0,0,1,3.854-8.729c1.881-3.231.81-6.376.531-9.607-3.865,7.056-6.693,14.565-10.283,21.819,3.815-.456,7.025-2.336,10.44-3.632.535-.2.433-.543.413-.923a21.075,21.075,0,0,1,.165-4.353,20.57,20.57,0,0,0,.024-2.892C77.359,204.539,76.521,207.843,74.061,210.53Zm-31.233,4.71c1.64.166,3.062-.072,4.439.326.634.183.829-.286,1.061-.711,2.911-5.33,5.835-10.653,8.73-15.992.769-1.42,1.449-2.889,2.259-4.514-4.029,1.541-4.176,1.646-6.21,4.778-1,1.54-1.962,3.1-2.95,4.652C47.75,207.55,45.337,211.318,42.828,215.24Zm48.357-16.856c.655.347.593.942.6,1.5.008,1.749.006,3.5,0,5.247a.918.918,0,0,0,.932,1.056c.526.043.516-.323.518-.662a67.684,67.684,0,0,1,.629-12.012.479.479,0,0,0-.213-.49,20.09,20.09,0,0,1-5.278-6.448,7.8,7.8,0,0,0-.515,3.56c.262,5.135.581,10.268.833,15.4.034.693.078,1.087.919,1.043.763-.04,1.328-.095,1.31-1.086A50.772,50.772,0,0,1,91.185,198.384ZM25.539,119.666,37.176,95.73c-.976.426-1.616.753-2.288.988A4.8,4.8,0,0,0,32.175,99.1c-1.778,3.151-3.2,6.467-4.807,9.7C25.7,112.151,24.705,115.6,25.539,119.666Zm26.775,78.555c-1.564.974-3.67,1.136-4.766,2.552-3.364,4.349-6.508,8.868-9.738,13.321-.5.689-.226.859.517.929,3.677.35,3.675.366,5.457-2.962.2-.383.41-.767.638-1.135Q48.364,204.57,52.314,198.221ZM42.129,154.665l.354-.442c.633.3,1.249.651,1.9.89.492.18,1.085.926,1.523-.11.311-.735.634-1.374-.434-1.869a20.748,20.748,0,0,1-2.839-1.74c-.411-.279-.74-.336-.917.147-.579,1.576-1.465,3.156-1.522,4.76-.031.891,1.726,1.328,2.624,2.043.414.33.867.61,1.308.917,1.013-2.191,1.016-2.194-.849-3.731C42.911,155.225,42.514,154.952,42.129,154.665ZM75.414,86.69c-1.538,5.154-3.15,9.836-4.826,14.53.764-.611,1.345-1.393,2.093-1.953,2.739-2.051,3.58-4.753,3.091-8.048C75.572,89.869,75.884,88.459,75.414,86.69ZM40.7,150.4c-.352-.693-1.226-.849-1.833-1.337-.7-.562-1.107-.607-1.341.44a15.828,15.828,0,0,1-1.054,3.282c-.547,1.165-.207,1.793.906,2.149.417.134.937.886,1.212.361C39.4,153.763,39.981,152.121,40.7,150.4Zm8.976,9.387c-.929,1.337-1.276,2.613.757,3.52-2.228-.28-2.228-.28-2.977,1.949a2.518,2.518,0,0,1-.141.408c-.373.679-.1.947.555,1.283,1.03.53,1.589.455,1.958-.736a19.343,19.343,0,0,1,1.14-2.485C52.17,161.2,52.171,161.2,49.68,159.784ZM31.706,98.165A2.5,2.5,0,0,0,29.2,99.828c-.961,2.142-2.012,4.244-3.034,6.358a7.56,7.56,0,0,0-.637,5.091A113.454,113.454,0,0,1,31.706,98.165ZM31.69,161.5c.208-.733.945-1.377.332-2.264-.136-.2-.1-.6.123-.648,1.317-.307,1.032-1.571,1.478-2.388.684-1.256-.455-1.473-1.155-1.821-1.035-.514-.76.6-.94.962-.429.852-.553,1.863-1.009,2.695C29.661,159.6,29.818,160.751,31.69,161.5Zm24.147-9.705c1.022-1.467-.136-1.453-.819-1.741a4.317,4.317,0,0,0-.53-.228c-.346-.093-.717-.558-1,.168-.2.531-.265.887.294,1.2.922.522,1.846,1.049,2.726,1.638.718.48,1.023.349,1.321-.473.224-.617-.1-1.578.118-1.68.969-.461.787-1.441,1.211-2.118.4-.64-.116-.8-.529-1.049-.726-.43-.656.276-.807.579C57.24,149.266,57.052,150.633,55.837,151.792Zm-21.913,22.4c1.332.011,2.561-1.119,3.069-2.841.367-1.244-1.037-1.216-1.516-1.871-.352-.481-.754-.415-1.008.24-.4,1.024-.837,2.037-1.334,3.016C32.587,173.807,33.442,173.9,33.924,174.187Zm9.685-26.95a1.464,1.464,0,0,0-.05,2.767c.787.475,1.564.968,2.372,1.4.345.185.834.768,1.1.307.335-.579,1.043-1.557.6-1.933A31.486,31.486,0,0,0,43.609,147.237Zm-3.192,15.74c.4.133.357-.225.426-.4.337-.845.642-1.7.973-2.552.092-.239.186-.529-.04-.659a7.139,7.139,0,0,0-2.311-1.125c-.459-.066-.511.923-.755,1.432-.062.13-.109.268-.161.4A2.307,2.307,0,0,0,40.417,162.977Zm-9.778-9c.26-.948-.6-.981-1.067-1.284-.272-.177-.61-.293-.76.248-.436,1.568-.945,3.116-1.37,4.687-.207.763.575.9.975,1.256.309.271.541.017.643-.278C29.6,157.068,30.114,155.522,30.639,153.979Zm26.035,1.4c.137-.514-.282-.582-.539-.748a23.307,23.307,0,0,1-2.316-1.481c-1.14-.95-1.573-.413-1.928.7-.214.673-.1,1.066.581,1.352.8.334,1.562.751,2.325,1.163C55.966,156.994,56.6,156.653,56.674,155.375ZM31.433,168.292c-.084.1-.162.289-.244.29-1.408.022-1.091,1.325-1.334,2.034-.253.733.687,1.2,1.262,1.512.723.4.656-.479.843-.818.369-.667.564-1.434.95-2.09.6-1.011.526-1.769-.612-2.263-.308-.134-.512-.777-.885-.4-.313.316-.692.817-.272,1.37C31.227,168.041,31.318,168.15,31.433,168.292ZM25.443,105.4l.342.014,2.859-6.207c-1.125.168-1.894.678-2.791.541-.418-.064-.4.344-.4.615C25.437,102.046,25.443,103.725,25.443,105.4Zm10.828,55.042a.327.327,0,0,0,.438-.241,9.255,9.255,0,0,0,1-2.677c.044-.914-1.123-.976-1.79-1.325-.778-.407-.634.46-.842.793a4.685,4.685,0,0,0-.348.94A1.854,1.854,0,0,0,36.271,160.446Zm23.374,2.114a4.916,4.916,0,0,0,3.468-3.758c.2-.634-.152-.841-.594-.894s-1-.808-1.334.012A24.639,24.639,0,0,0,59.645,162.56Zm-2.308-15.481c-.018-.4-1.659-1.683-1.961-1.491-.728.461-.706,1.363-.988,2.082-.1.244,1.744,1.785,1.964,1.634C57.129,148.77,56.918,147.76,57.337,147.079ZM43.93,145.693c1.436.74,2.673,1.364,3.894,2.017.34.181.654.342.775-.157.081-.334.591-.7.133-1.029a10.45,10.45,0,0,0-2.709-1.63C45.514,144.734,44.763,145.349,43.93,145.693Zm-9.588,7.588c.74-.344.675-1.112.87-1.686.2-.594.872-1.358.378-1.792-.43-.379-1.189.34-1.826.453-1.052.186-1.109,1.117-1.081,1.758C32.718,152.815,33.757,152.8,34.342,153.281Zm22.693-12.106a.851.851,0,0,0-.552.77c-.086.7-1.042,1.359-.238,2.07.456.4,1.12,1.2,1.626.832a2.631,2.631,0,0,0,.794-2.33C58.577,141.84,57.6,141.664,57.035,141.175Zm-4.149,18.284a4.582,4.582,0,0,0,.972-1.8,5.6,5.6,0,0,0-2.65-1.408c-.587.312-.64.991-.806,1.56A6.955,6.955,0,0,0,52.886,159.459Zm-.936-16.507c-.271.891-.506,1.669-.744,2.445-.368,1.2.789,1.144,1.326,1.493.676.438.6-.433.715-.7C54.084,144.355,54.06,144.344,51.95,142.952Zm-12,21.857a4.742,4.742,0,0,0-2.33-1.614c-.473-.212-.5.649-.712,1.037-.771,1.384.648,1.305,1.21,1.751.286.228.742.691,1.116.287A5.651,5.651,0,0,0,39.949,164.809Zm18.877-5.223c.174-.542-.269-.5-.569-.616-.391-.148-.87-.5-1.136.011a9.88,9.88,0,0,0-.9,2.41c-.146.672.554.922,1,1.259.332.25.57.055.669-.222C58.225,161.49,58.517,160.535,58.826,159.586Zm-8.167,7.274c2.564-.278,2.551-2.352,3.179-3.928.179-.449-.278-.681-.593-.882-.5-.318-.573.193-.686.443C51.917,163.916,51.31,165.355,50.659,166.86Zm-24.5-3.9a3.238,3.238,0,0,0,.136,1.137c.137.266.628.735.862.144a22.887,22.887,0,0,0,1.087-3.569c.127-.585-.52-.876-.955-1.149-.264-.166-.458.1-.479.346C26.716,160.921,26.112,161.87,26.154,162.957ZM59,141.647c.243-.789.447-1.42.631-2.057.166-.572.3-1.27-.389-1.48a1.74,1.74,0,0,0-1.808.824c-.319.439-.7,1.128.013,1.657C57.9,140.928,58.376,141.228,59,141.647Zm-12.207,20.47c.006-.376-.532-.412-.827-.637-.315-.24-.534-.032-.651.277-.354.939-.709,1.879-1.044,2.825-.2.565.236.738.618.962s.65.153.794-.246C46.039,164.309,46.375,163.31,46.789,162.117ZM63.6,141.04c-.983,2.646-.982,2.645.595,3.4.324.156.564.434.883-.136C65.857,142.928,65.765,142.629,63.6,141.04ZM36.452,166.051c-.618.216-.623.831-.856,1.256-.131.239,1.812,1.965,2.174,1.862a1.394,1.394,0,0,0,.854-1.471C38.473,166.576,37.142,166.721,36.452,166.051Zm-10.671-9.139.506.045c.439-1.473.89-2.943,1.309-4.422.154-.541-.285-.572-.605-.491-.4.1-1.129-.431-1.18.325C25.71,153.877,25.781,155.4,25.781,156.912Zm10.04,5.534c-.009-.415-1.6-1.734-1.915-1.607a1.51,1.51,0,0,0-.831,1.532A2.1,2.1,0,0,0,34.9,163.9C35.494,163.991,35.526,162.908,35.821,162.446Zm-6.171,5.571a2.232,2.232,0,0,0-1.718-1.349c-.738-.029-.795,1.04-.806,1.59a1.84,1.84,0,0,0,1.536,1.651C29.414,169.906,29.2,168.661,29.65,168.017ZM75.682,126.17c-1.479,1.17-2.6,2.06-3.736,2.955.379.571.967.736,1.437,1.063.331.231.577.255.753-.2C74.583,128.842,75.058,127.706,75.682,126.17ZM62.638,150.276a1.7,1.7,0,0,0-1.526-1.093c-.906.1-.827,1.194-1.01,1.848-.237.851.841,1.268,1.274,1.207C62.293,152.109,62.118,150.948,62.638,150.276Zm3.056-16.412c1.281.033,1.864,1.516,2.69.783a1.777,1.777,0,0,0,.121-2.846Zm-.256,18a1.909,1.909,0,0,0-1.574-1.093c-.77.123-.8,1.182-.884,1.835-.116.947.963,1.151,1.5,1.108C65.315,153.65,65.058,152.615,65.438,151.867Zm-3.326-6.7c-.016,1-1.561,2.058.295,2.867.387.169.71.533,1.059-.094C64.317,146.4,63.237,145.82,62.112,145.162ZM43.669,160.754c.04-.557-.333-.642-.621-.789-.494-.251-.6.2-.682.471-.271.911-.488,1.838-.709,2.763a.652.652,0,0,0,.344.729c.253.16.459.111.565-.173C42.951,162.724,43.326,161.689,43.669,160.754Zm6.177-6.918a2.492,2.492,0,0,0,1.049-1.919c.164-.708-.748-1.026-1.139-.988-.942.092-.818,1.134-1.025,1.775C48.476,153.5,49.431,153.412,49.846,153.836ZM64.538,138.4c-.689,1.224-.927,2.247.723,2.825.493.173.65.352.9-.305C66.79,139.213,65.217,139.137,64.538,138.4Zm-8.869,1.366c-.714.407-1.294.705-1.837,1.06-.382.25-1.092.276-1.1.75-.011.564.749.611,1.132.937.479.406.858.321,1.036-.32A8.276,8.276,0,0,0,55.669,139.761ZM33.858,166.593c1.464-1.54.213-1.989-.717-2.562-.317-.195-.548-.543-.862.1C31.372,165.976,33.382,165.746,33.858,166.593Zm-4.276-5.183a1.406,1.406,0,0,0-.666,1.352c.045.869,1,1.169,1.619,1.406.432.165.66-.71.605-1.189C31.039,162.1,30.113,161.94,29.582,161.41Zm32.464-20.955c.053-.593-.252-.812-.7-1-.709-.3-.523.39-.629.6-.272.545-.358,1.18-.607,1.74-.264.59.217.641.509.811.373.217.658.041.795-.325C61.654,141.661,61.853,141.023,62.046,140.455Zm6.042,4.251c-.522-.451-1.026-1.233-1.5-1.216-.665.024-.87,1.023-.9,1.586-.033.678.868.944,1.384,1.009C67.818,146.178,67.614,145.239,68.088,144.706ZM28.709,163.431a16.653,16.653,0,0,0-.529,1.62c-.2,1.047.815,1.108,1.324,1.581.341.317.432.066.585-.216a1.181,1.181,0,0,0-.309-1.639A11.126,11.126,0,0,1,28.709,163.431Zm17.942-5.487c-.22.636-.456,1.263-.652,1.9-.184.6.349.708.691.932.175.116.3.3.575.021A1.653,1.653,0,0,0,46.651,157.944ZM67.62,136.908c-.269-.675-1-.851-1.458-1.312-.23-.233-.779-.687-.792-.535-.053.6-.72,1.251-.24,1.75a4.015,4.015,0,0,0,1.768.91C67.4,137.867,67.319,137.205,67.62,136.908Zm-6.262.919c-.366.8.356.923.7,1.238a.3.3,0,0,0,.519-.217c0-.72,1.041-1.3.322-2.077-.275-.3-.685-.675-1.135-.44C61.132,136.663,61.675,137.411,61.358,137.827Zm-1.447,8.586c.242-.685.45-1.372.727-2.031.231-.548-.218-.638-.489-.861-.193-.158-.369-.264-.615-.039A1.958,1.958,0,0,0,59.911,146.413Zm1.25,7.086c-.245-.615-.771-1.127-1.261-1.063-.747.1-.8.945-.82,1.564-.018.662.758.881,1.118.872C60.942,154.853,60.779,153.936,61.161,153.5Zm5.82-11.672c.169.841.935.955,1.508,1.14.638.206.852-.542.818-.9-.084-.881-.953-1.187-1.624-1.328C67.157,140.631,67.282,141.478,66.981,141.827Zm-1.012,8.188c.442-1.025,1.007-1.939-.414-2.534-.8-.334-.737.371-.911.718C63.894,149.7,65.5,149.368,65.969,150.015Zm-16.39,5.512c-.5-.285-.941-.739-1.366-.729-.785.02-.767.92-.867,1.41-.125.61.7.823,1.114.832C49.285,157.058,49,156.082,49.579,155.527Zm17.535-2.9a3.536,3.536,0,0,0-.717,1.73.81.81,0,0,0,.905.871c.813-.195.82-1.11.963-1.74C68.377,153,67.626,152.958,67.114,152.631Zm-8.591,3.376a1.664,1.664,0,0,0-.792,1.4c-.109.664.659.9,1.03.967.824.158.762-.751.893-1.211C59.883,156.352,58.965,156.427,58.523,156.007ZM41.058,168.516c.033-.175-.378-.147-.579-.31a.428.428,0,0,0-.716.161c-.194.614-.762,1.161-.558,1.829.092.3.559.493.877.7.039.026.273-.126.309-.232C40.606,170.036,40.79,169.4,41.058,168.516ZM70.844,142.46c-.522.149-.539.639-.6,1-.163.918.677,1.146,1.231,1.3.657.187.665-.633.721-.995C72.339,142.821,71.29,142.961,70.844,142.46Zm.423-11.59c-.873,1.155-.272,1.766.735,2.216.264.119.517.583.828.083.23-.37.478-.762-.03-1.134S71.8,131.278,71.267,130.87ZM31.039,173.581a3.032,3.032,0,0,0-1.686-1.025c-.354-.07-.566.516-.523.865.107.859.923,1.112,1.549,1.273C30.9,174.827,30.8,174.068,31.039,173.581Zm43.447-40.467a.692.692,0,0,0-.739.751,1.25,1.25,0,0,0,1.161,1.114A1.079,1.079,0,0,0,76,133.921C75.992,132.823,74.787,133.805,74.486,133.114ZM55.593,158.236c-.033-.509-.658-.557-.732-.518-.809.431-.841,1.362-1.156,2.092-.116.269.571.791.773.639C55.181,159.92,55.147,158.939,55.593,158.236Zm18.5-11.757c-.377-.8,1.326-1.464-.12-2.268-.277-.155-.568-.549-.863.113C72.659,145.329,72.707,146.048,74.089,146.479ZM44.1,169.185c.653-.264.492-.962.691-1.42.314-.725-.371-1-.838-1.028-.821-.041-.621.835-.8,1.29C42.863,168.734,43.72,168.755,44.1,169.185Zm20.021-13.479a2.469,2.469,0,0,0-1.486-1.239c-.41-.128-.568.59-.551.943.045.937.96.939,1.57,1.154C64.007,156.69,64.084,156.182,64.117,155.706ZM50.306,142.83c-.836.29-1.856.313-2.171,1.215-.095.272.73.806,1.109.748C50.255,144.638,49.905,143.509,50.306,142.83Zm20.339-3.769A3.544,3.544,0,0,0,69,137.811c-.465-.25-.609.255-.588.539.071.922.96,1.059,1.568,1.417C70.43,140.031,70.483,139.531,70.645,139.061Zm5.344-3.291c-1.211,3.562-1.211,3.562,0,4.166Zm-7.1,15.936a1.922,1.922,0,0,0,.714-1.229c.123-.716-.548-.925-.987-.985-.675-.094-.528.673-.683,1.048C67.639,151.258,68.385,151.339,68.892,151.706Zm2.223-.793c-.683.146-.668.787-.722,1.222-.075.612.593.738.992.766.787.055.634-.761.713-1.169C72.214,151.129,71.456,151.211,71.115,150.913ZM26.6,170.469a2.068,2.068,0,0,0-.013,1.605,1.652,1.652,0,0,0,1.106.865c.311.06.31-.311.414-.488.333-.566-.046-.858-.481-1.145A12.763,12.763,0,0,1,26.6,170.469Zm23.942-22.831c-.169.421-.449.77-.4,1.066.126.776.938.873,1.5,1.126.216.1.489-.6.442-.862C51.945,148.211,51.067,148.225,50.542,147.638Zm20.52-.679c-.441-.317-.841-.819-1.3-.879-.542-.072-.448.635-.53,1-.164.724.6.881.973.977C70.844,148.224,70.654,147.426,71.062,146.959Zm-28.474-.623c-.68.333-1.095.522-1.5.736s-.9.31-1.158.757C41.506,148.789,41.506,148.789,42.588,146.336Zm28.818,8.444c-1.881-.985-2.168-.8-2.269,1.454Zm3.56-5.325a.766.766,0,0,0-.526.89,1.2,1.2,0,0,0,1.169.819c.412-.059,1.162-.465.926-.877C76.29,149.857,75.52,149.725,74.966,149.455Zm.992-17.637V128.7C75.8,129.709,73.963,130.761,75.958,131.818Zm-2.81,9.05c-.053-.831-.942-.877-1.495-1.229-.327-.209-.49.353-.478.506.071.859.891.979,1.469,1.3C73.05,141.666,73.083,141.259,73.148,140.868Zm-43.236,34.7c-1.688-1.357-1.7-1.355-2.26.9Zm11.936-9.443a.585.585,0,0,0-.639-.751c-.7.13-.509.917-.765,1.389-.307.567.379.683.578.675C41.853,167.406,41.5,166.532,41.848,166.125Zm6.655,2.122c-2.129-.653-2.227-.593-2.378,1.236Zm-4.077,1.943c-1.77-1.183-1.9-1.128-2.175.769Zm31.509-28.45c-.276-.428-.827-.27-1.192-.438-.5-.231-.688.252-.708.623-.039.711.68.84,1.085.916C75.721,142.954,75.608,142.2,75.935,141.74Zm-3.357,7.739a.76.76,0,0,0,.553-.867c-.029-.525-.5-.731-.87-.807-.473-.1-.537.416-.58.748C71.6,149.2,72.2,149.231,72.578,149.479ZM26.587,175.857c1.167-1.784,1.167-1.784-.118-2.237C26.51,174.389,26.548,175.123,26.587,175.857Zm49.921-27.388c-.077-.943-.157-1.91-.236-2.877C75.773,146.621,74.793,147.7,76.508,148.469Z"/>
    <path d="M53.257,33.055c-.562.738-.928.629-1.237.614a91.206,91.206,0,0,0-11.613.381c-4.669.377-9.087-.819-13.6-1.375-3.194-.393-6.35-1.079-9.528-1.6-.5-.082-1.129-.085-1.036-.709.089-.588.771-.508,1.228-.441,2.047.3,4.082.684,6.133.95a55.8,55.8,0,0,0,7.037.724,107.268,107.268,0,0,1,16.318,1.136A23.806,23.806,0,0,0,53.257,33.055Z"/>
    <path d="M53.531,39.313c-4.776,2.846-36.949-1.831-40.395-5.536A115.314,115.314,0,0,0,32.98,38.039C39.775,38.9,46.628,38.937,53.531,39.313Z"/>
    <path d="M60.635,32.364c4.993-.422,9.983-.873,14.979-1.251,2.21-.168,4.419-.31,6.619-.593.544-.07,1.306.045,1.383.741.08.728-.616.812-1.2.968-1.89.5-3.839.313-5.752.5-3.362.324-6.778.087-10.136.428-2.548.259-5.122-.077-7.644.482a2.782,2.782,0,0,1-1.155-.036c-.441-.095-.84-.34-.762-.889.074-.524.5-.492.9-.491.921,0,1.843,0,2.764,0Z"/>
    <path d="M91.611,42.192a17.8,17.8,0,0,1-5.279,1.645c-1.819.435-3.7.6-5.558.877-.441.064-1.025.084-1.13-.394-.126-.567.516-.645.9-.685,3.354-.36,6.633-1.122,9.936-1.761A1.064,1.064,0,0,1,91.611,42.192Z"/>
    <path d="M58.3,25.284c-.213.493-.636.536-1.078.521-3.086-.107-6.188.268-9.26-.29a2.5,2.5,0,0,1-.7-.142c-.27-.14-.7-.172-.65-.644.06-.529.493-.378.785-.369,1.445.047,2.891.2,4.318.348C53.9,24.942,56.123,24.786,58.3,25.284Z"/>
    <path d="M22.594,47.651c-2.239.063-4.316-.783-6.452-1.277-1.069-.247-2.1-.645-3.153-.982-.291-.093-.549-.253-.461-.616.1-.407.448-.331.706-.256Q17.95,45.9,22.658,47.3Z"/>
    <path d="M30.51,46.541c-3.682-.52-7.425-.673-11.155-1.948C20.561,44.038,28.84,45.465,30.51,46.541Z"/>
    <path d="M93.139,49.111a12.2,12.2,0,0,1-6.456,1.052c-.3-.029-.847-.137-.734-.691.094-.462.526-.325.838-.337C88.891,49.054,91,49.317,93.139,49.111Z"/>
    <path d="M84.752,46.48c-.585,0-.828.017-1.068,0-.3-.026-.614-.107-.633-.457-.021-.405.359-.4.625-.437q2.781-.4,5.567-.776c.176-.023.4-.049.45.213a.476.476,0,0,1-.353.557,18.834,18.834,0,0,1-2.075.553C86.321,46.3,85.363,46.4,84.752,46.48Z"/>
    <path d="M57.664,27.326c-.915,1.1-2.2.972-3.378,1.043-.784.047-2.241.483-2.256-.469-.018-1.09,1.385-.5,2.167-.555C55.348,27.272,56.508,27.326,57.664,27.326Z"/>
    <path d="M94.405,51.236c-1.122,1-2.627.815-3.967,1.051-.651.115-1.923.475-2-.283-.084-.9,1.139-.453,1.778-.573,1.353-.256,2.727-.4,4.092-.588Z"/>
    <path d="M51.109,21.86c-1.327.778-2.8.4-4.23.357-.111,0-.31-.277-.3-.415.025-.394.365-.364.652-.365q1.92,0,3.84,0Z"/>
    <path d="M56.148,54.64a9.572,9.572,0,0,1-3.857.934c-.259.01-.63.075-.667-.331-.025-.283.271-.44.478-.444C53.45,54.77,54.767,54.164,56.148,54.64Z"/>
    <path d="M38.181,6.443h5.678A9.13,9.13,0,0,1,38.181,6.443Z"/>
    <path d="M21.283,49.71a8.007,8.007,0,0,1,4.437.657A6.137,6.137,0,0,1,21.283,49.71Z"/>
    <path d="M57.142,251.5a4.938,4.938,0,0,1-2.993.732c-3.875.094-7.736.508-11.621.388a78.565,78.565,0,0,1-14.483-2.172c-2.805-.617-5.6-1.269-8.4-1.929a12.5,12.5,0,0,1-1.776-.6c-.457-.184-.97-.473-.806-1.043.184-.643.832-.421,1.255-.343,2.071.383,4.12.894,6.2,1.239,3.583.595,7.171,1.174,10.774,1.626,5.14.646,10.292,1.206,15.446,1.732C52.863,251.349,55.007,251.385,57.142,251.5Z"/>
    <path d="M90.614,240.62A55.483,55.483,0,0,1,81.137,244a51.753,51.753,0,0,1-16.16,2.011,7.888,7.888,0,0,1-.871-.034c-.4-.062-1.024.03-1.013-.522.007-.424.571-.4.963-.421A102.762,102.762,0,0,0,89.443,240.5,1.5,1.5,0,0,1,90.614,240.62Z"/>
    <path d="M82.522,216.729c-.318,1.151-1.2,1.328-1.915,1.626-3.586,1.5-7.432,1.962-11.195,2.757a3.5,3.5,0,0,1-.58.018c-.451.014-.944.009-1.038-.542-.108-.631.422-.784.887-.885,1.741-.378,3.471-.85,5.232-1.071A65.45,65.45,0,0,0,82.522,216.729Z"/>
    <path d="M82.961,234.026a10.314,10.314,0,0,1,2.919-1.307,36.862,36.862,0,0,0,8.307-3.979c.37-.249.778-.576,1.139-.125.341.427-.146.7-.408.921-3.327,2.764-7.3,3.97-11.464,4.691C83.351,234.245,83.226,234.139,82.961,234.026Z"/>
    <path d="M80.284,225.982A11.506,11.506,0,0,1,84.1,224.1a22.9,22.9,0,0,0,2.739-1.233c.321-.183.745-.557,1.02-.147.341.51-.247.8-.574.966a15.746,15.746,0,0,1-2.626,1.129C83.218,225.251,81.86,226.022,80.284,225.982Z"/>
    <path d="M32.21,263.692a28.858,28.858,0,0,1-6.574-1.213.44.44,0,0,1-.37-.527.35.35,0,0,1,.436-.282c2.2.532,4.4,1.078,6.607,1.62Z"/>
    <path d="M87.2,234.634a20.013,20.013,0,0,1,4.454-1.96c.315-.13.558-.169.676.21a.547.547,0,0,1-.352.7A12.437,12.437,0,0,1,87.2,234.634Z"/>
    <path d="M85.062,226.018a16.839,16.839,0,0,1,4.8-1.955.4.4,0,0,1,.541.342c.037.345-.219.492-.517.584q-2.316.717-4.629,1.444Z"/>
    <path d="M46.716,263.388a10.03,10.03,0,0,1-5.251-.052c-.129-.037-.317-.321-.28-.406a.684.684,0,0,1,.846-.369C43.566,262.918,45.185,262.674,46.716,263.388Z"/>
    <path d="M85.072,227.973A5.17,5.17,0,0,1,88.1,226.4a.432.432,0,0,1,.547.339c.066.278-.095.442-.35.521A12.817,12.817,0,0,1,85.072,227.973Z"/>
    <path d="M90.7,236.271c-.364-.008-.72-.094-.6-.348a1.921,1.921,0,0,1,1.732-1.08c.333-.017.618.13.52.491C92.109,236.248,91.172,235.946,90.7,236.271Z"/>
    <path d="M70.054,87.083c.1,1.531-2.469,9.638-3.667,11.581C66.146,97.609,69.314,87.605,70.054,87.083Z"/>
    <path d="M68.765,97.457c1.073-3.5,1.6-6.809,3.155-10.083C72.422,88.94,70.191,96.052,68.765,97.457Z"/>
  </g>
</svg>
