<svg xmlns="http://www.w3.org/2000/svg" viewBox="0 0 88.094 284.29">
  <g>
    <path d="M58.672,284.089a12.136,12.136,0,0,1-5.1-.139c-3.052-1.01-4.615-3.532-5.525-6.587-2.458-8.251-2.26-16.666-1.724-25.1.163-2.574.845-5.016-2.33-6.643-2.822-1.446-4.528-4.335-6.594-6.713-.346-.4-.521-.784-1.1-.249-1.693,1.568-3.362,3.119-2.928,5.763a2.8,2.8,0,0,1-.061.724c-.986,9.12-5.006,17.373-7.525,26.054-.636,2.189-2.621,3.525-4.957,4.059a29.215,29.215,0,0,1-14.9-.548,4.5,4.5,0,0,1-3.3-2.623,44.533,44.533,0,0,1-2.6-13.451,80.158,80.158,0,0,1,4.56-29.423c3.277-9.063,6.18-18.246,9.379-27.331,3.435-9.756,5.826-19.8,8.216-29.836,2.653-11.147,4.764-22.371,4.836-33.889.042-6.7.367-13.413.144-20.106-.3-9.147-.673-18.293-1-27.441a85.767,85.767,0,0,0-.708-9.06c-.678-4.764-1.347-9.531-1.924-14.308a261.828,261.828,0,0,0-5.006-27.924C17,32.733,14.987,26.261,13.965,19.564a45.565,45.565,0,0,1-.52-8.954c.113-2.495,1.39-3.221,3.546-2.059,3.254,1.756,4.932,4.679,5.862,8.123,2.94,10.885,5.42,21.881,8.029,32.847,2.178,9.151,4.7,18.223,6.254,27.51,1.783,10.651,3.7,21.3,3.463,32.166-.1,4.513-.343,9.023-.377,13.536-.071,9.47.081,18.942-.241,28.409-.064,1.889-.216,3.775-.321,5.663-.233,4.209-.449,8.418-.709,12.625-.04.651.226.916.787.877.543-.037,1.2.491,1.592-.429,2.032-4.8,4.3-9.516,6.019-14.445,3.109-8.9,5.5-18.03,8.2-27.057,3.475-11.587,6.871-23.174,8.749-35.163,1.237-7.9,4.027-15.484,4.891-23.482.44-4.066,1.1-8.1,1.343-12.2.251-4.26.216-8.527.335-12.788.172-6.15.895-12.285.491-18.455-.454-6.941.6-13.842.673-20.771a11.071,11.071,0,0,1,.8-3.685A2.381,2.381,0,0,1,74.875,0a2.469,2.469,0,0,1,2.308,1.537A22.914,22.914,0,0,1,78.74,5.417C80.163,10.679,81.6,15.943,82.6,21.306c1.146,6.187,2.3,12.377,2.973,18.64.553,5.148,1.087,10.3,1.562,15.455a140.786,140.786,0,0,1,.908,18.441c-.273,6.981-.6,13.96-.88,20.941-.1,2.466-.029,4.941-.187,7.4-.332,5.146-1.061,10.257-1.557,15.384-.936,9.656-2.888,19.119-4.717,28.618-2.537,13.167-7.565,25.579-11.471,38.329-2.511,8.2-4.576,16.445-4.876,25.03-.242,6.941-.03,13.877,1.681,20.675,1.181,4.693,1.8,9.52,3.313,14.133a66.663,66.663,0,0,1,3.611,23.785c-.183,4.268-1.374,8.205-4.609,11.266C65.178,282.416,62.992,283.563,58.672,284.089ZM22.6,246.178c-.1.43.251.4.559.4,2.172,0,4.346-.027,6.518.025,1.007.024.66-.74.8-1.2.179-.606-.211-.722-.725-.739-1.882-.063-3.764-.136-5.644-.247-.335-.019-.807.17-.99-.349,2.047-.485,4.124-.1,6.174-.286.546-.051,1.4.453,1.46-.774.059-1.152-.648-1.018-1.377-1.135a11.333,11.333,0,0,1-3.2-.5A7.625,7.625,0,0,1,29.349,241c.857.058,1.467.018,1.662-1.028.079-.422.549-.771.931-1.271-2.879-.309-5.688-.611-8.5-.907-.251-.027-.552.027-.532.335.128,1.976-.378,3.981.259,5.934C22.359,244.6,22.773,245.469,22.6,246.178Zm4.97-85.9c-.092.111-.247.213-.266.335-.719,4.578-2.157,9.019-2.384,13.7-.33,6.775-1.366,13.484-2.108,20.22-.956,8.669-2.184,17.312-2.659,26.032a25.81,25.81,0,0,0,1.122,7.735,43.588,43.588,0,0,1,1.4,7.682c.041.612.241.926.94,1,2.744.3,5.48.676,8.221,1.005,1.5.18,2.007-1.155,2.842-1.955.674-.645-.1-1.14-.336-1.643-2.371-5.026-4.572-10.109-4.4-15.823a27.824,27.824,0,0,1,5.988-16.757c.624-.793.726-1.321.047-2.117a14.176,14.176,0,0,0-2.459-2.839,1.055,1.055,0,0,1-.359-1.174A190.655,190.655,0,0,0,37.1,166.634c.3-5.47.716-10.956.577-16.422-.212-8.342.064-16.672.066-25.007,0-3.925-.232-7.841-.036-11.777.443-8.871-1.118-17.588-2.528-26.286-1.5-9.24-3.362-18.419-4.923-27.649-.964-5.694-2.649-11.21-3.824-16.845-1.729-8.291-3.469-16.571-5.94-24.683A16.161,16.161,0,0,0,16.962,12.2c-.2-.237-.428-.634-.809-.509-.4.131-.266.57-.285.887a43.9,43.9,0,0,0,1.918,14.879,244.248,244.248,0,0,1,6.77,30.965c1.023,6.626,2.391,13.2,3.188,19.858.429,3.581.638,7.19.908,10.79.35,4.659.77,9.316.957,13.982.164,4.108.556,8.206.5,12.324-.109,7.524.246,15.052-.209,22.574-.343,5.664-.724,11.324-1.584,16.939a1.918,1.918,0,0,0-.039,1.137ZM74.717,6.871c-.036,9.907-.166,19.815-.054,29.721.075,6.6.726,13.2.355,19.79-.257,4.552-.156,9.122-.625,13.656-.275,2.657-1,5.272-1.211,7.93-.469,5.894-1.537,11.7-2.34,17.547-.8,5.806-1.976,11.563-3.142,17.316-3.051,15.06-6.606,30-10.473,44.866-1.364,5.244-3.732,10.136-5.9,15.077a174.922,174.922,0,0,0-8.414,25.362c-.526,1.964-1.906,2.853-3.158,3.922a19.681,19.681,0,0,0-6.578,11.574c-1.223,6.108.073,11.847,2.365,17.444a29.594,29.594,0,0,0,8.794,11.7,15.552,15.552,0,0,0,3.955,2.1,12.183,12.183,0,0,1,6.448,5.973c.346.71.71.772,1.337.48q2.877-1.343,5.771-2.651c.472-.212.862-.353.681-1.038-.2-.759-.642-.5-1.115-.426-.888.14-1.784.232-2.961.379.8-.989,1.761-1.045,2.531-1.417.559-.27,1.059-.352.758-1.188-.317-.88-.822-.423-1.269-.275-1.868.618-3.724,1.268-5.591,1.888-.256.085-.552.248-.895-.094.931-.83,2.182-.9,3.232-1.4,1.253-.593,3.188-.695,3.647-1.736.393-.892-.714-2.455-1.178-3.713-2.312-6.261-2.956-12.835-3.735-19.395-.581-4.887-1.089-9.767-.163-14.646a122.234,122.234,0,0,1,3.992-14.679c2.136-6.615,4.012-13.314,6.041-19.964.231-.757.281-2.162,1.211-1.943.819.194.227,1.488.075,2.232-.96,4.7-2.38,9.286-3.738,13.884-2.092,7.081-4.365,14.124-4.955,21.541a41.694,41.694,0,0,0,.826,10.435c.61,3.5.967,7.024,1.23,10.559a45.081,45.081,0,0,0,2.2,11.411c1.194,3.462,1.191,7.181,2.358,10.638a104.955,104.955,0,0,1,3.595,16.131,17.019,17.019,0,0,1-1.268,9.868c-.108.25-.3.562-.229.775.4,1.256.431,1.384-.8,1.616-2.224.419-4.468.746-6.716,1.012-.784.093-1.255.339-1.444,1.111a6.2,6.2,0,0,1-1.688,2.708c3-.618,5.947-.43,8.275-2.28,4.367-3.469,6.7-7.831,5.918-13.631-.606-4.5-.929-9.027-1.39-13.542A34.317,34.317,0,0,0,67.2,243.9c-2-4.886-2.708-10.077-3.944-15.151a80.048,80.048,0,0,1-1.746-22.718,91.774,91.774,0,0,1,4.916-24.871c3.514-10.583,7.4-21.047,10.018-31.935,2.027-8.439,4.143-16.85,5.467-25.429.808-5.24,1.283-10.532,2.035-15.782.513-3.579,1.436-7.093,1.735-10.715.2-2.406.171-4.8.145-7.211-.074-6.8.131-13.6.146-20.4.012-6.064-.9-12.06-1.5-18.078-.447-4.475-1.142-8.927-1.271-13.431A70.131,70.131,0,0,0,80.5,22.472c-1.1-4.22-1.828-8.508-2.568-12.8a16.951,16.951,0,0,0-2.555-6.761A10.7,10.7,0,0,0,74.717,6.871ZM16.1,211.959c1.846-1.813,6.823-28.66,6.739-34.4-.557.361-.465.928-.554,1.373-2.218,11.142-5.878,21.846-9.5,32.59-3.3,9.8-7.6,19.305-9.509,29.549a84.1,84.1,0,0,0-1.413,18.663c.006.146-.007.293.008.437.26,2.479.261,2.479,2.878,2.886-.13-1.451-.248-2.9-.39-4.339a72.432,72.432,0,0,1,2.326-25.637c1.1-4.223,2.268-8.28,4.577-12.078a42.414,42.414,0,0,0,4.411-10.325,3.746,3.746,0,0,1,1.193-2.433C16.919,209.664,16.175,210.723,16.1,211.959Zm31.961-36.824c.21-.678-.664-.708-1.073-.811-1.891-.472-3.8-.864-5.712-1.257-2.441-.5-2.445-.491-2.754,2.09-.143,1.2-.262,2.4-.426,3.59-.085.622-.037.935.762.963a24.4,24.4,0,0,1,6.51,1c.336.106.534.126.671-.061C46.746,178.752,47.488,176.97,48.057,175.135ZM52.7,276.385a41.879,41.879,0,0,1-2.63-17.982,45.483,45.483,0,0,1,1.1-7.38c.264-1.013-.464-1.868-2.264-2.7-.077.98-.206,1.913-.214,2.846-.058,6.867-.285,13.742.964,20.551a41.035,41.035,0,0,0,1.916,6.849,6.356,6.356,0,0,0,2,2.789c.88.717,1.3.434,1.741-.383a4.252,4.252,0,0,0,.632-1.644A4.073,4.073,0,0,1,52.7,276.385Zm-28.458-10.7c1.612.268,1.229-1.074,1.5-1.764.375-.959-.685-.635-1-.711-1.774-.43-3.586-.694-5.375-1.065-.656-.136-.943.051-1.165.682-.431,1.229-.94,2.433-1.467,3.625-.308.7-.286.98.612,1.055,2.115.176,4.221.473,6.327.747.482.063.828.069.993-.512.218-.769-.367-.59-.733-.708-.92-.3-2.045-.164-2.653-1.212C22.258,265.049,23.294,265.531,24.238,265.688ZM53.329,143.147a114.957,114.957,0,0,1-8.669,23.915,11.287,11.287,0,0,1-1.591,2.711c-.17.187-.612.622-.241.852a4.78,4.78,0,0,0,1.634.469c.512.095.246-.362.333-.568,2.761-6.5,4.562-13.359,7.426-19.823.734-1.657.591-3.52,1.1-5.247,1.454-4.926,2.837-9.872,4.24-14.812.156-.551.261-1.116.39-1.674A113.86,113.86,0,0,0,53.329,143.147ZM61.2,260.817c1.4-.125,2.715-.257,4.031-.352.51-.037.494-.281.421-.678-.286-1.573-.561-3.148-.8-4.728-.107-.717-.493-.708-1.021-.521-1.861.66-3.718,1.334-5.59,1.962-.412.138-.584.286-.421.709a3.972,3.972,0,0,1,.114.422c.553,2.106.553,2.106,2.718,2.014.721-.031,1.442-.059,2.306-.095C62.5,260.534,61.612,260.153,61.2,260.817Zm4.055,7.851a1.144,1.144,0,0,0,.88-1.649c-.259-.878-.916-.19-1.316-.139-1.427.184-2.829.559-4.253.778-.611.094-.81.309-.784.919.045,1.115.031,2.233,0,3.348-.016.647.029.992.871.757,1.665-.464,3.359-.838,5.056-1.171.912-.179.647-.717.591-1.293-.084-.87-.616-.485-1.029-.412a7.383,7.383,0,0,1-2.653.313A4.4,4.4,0,0,1,65.251,268.668ZM28.333,252.72c.831.066.964-.319,1.093-.942.155-.75-.315-.747-.826-.824a42.861,42.861,0,0,1-4.954-.855c-1.482-.409-2.009.078-2.05,1.475a5.406,5.406,0,0,1-.163.812C23.812,252.492,26.078,252.541,28.333,252.72Zm-5.57,18.795c.726.078.674-.694.867-1.111.3-.651-.394-.544-.658-.6-1.7-.343-3.439-.51-5.1-.964-1.6-.436-2.7-.211-3.167,1.7C17.415,270.876,20.086,271.226,22.763,271.515Zm4.1-11.326c-.034-.351-.714-.312-1.132-.359-1.674-.187-3.365-.283-5.015-.6-1.249-.238-1.469.486-1.723,1.358-.124.425-.028.618.429.663,2.154.215,4.307.446,6.461.67.172.018.372.146.606-.341A3.52,3.52,0,0,0,26.867,260.189Zm-4.042-11.066c1.967.205,3.938.372,5.9.633.992.133,1.178-.289,1.288-1.166.14-1.128-.607-.858-1.16-.9-1.828-.146-3.657-.267-5.487-.394-.428-.029-.924-.142-1.047.463a12.357,12.357,0,0,0-.128,1.305C22.453,249.087,22.64,249.1,22.825,249.123Zm4.976,8.264c.015-.5-.468-.379-.762-.435-1.929-.373-3.869-.692-5.791-1.1-1.415-.3-.89.941-1.151,1.463-.4.792.377.645.8.674a51.086,51.086,0,0,1,5.751.558.945.945,0,0,0,.867-.1A4.478,4.478,0,0,0,27.8,257.387Zm29.355-3.712c1.859-.911,3.716-1.829,5.593-2.7.537-.249.708-.478.5-1.088-.282-.814-.765-.4-1.15-.255-1.8.677-3.593,1.4-5.389,2.1-1.164.453-1.294,1.087-.413,1.946C56.6,254.135,56.863,253.818,57.156,253.675ZM60.5,119.457a116.9,116.9,0,0,0,5.811-24.039C64.77,103.544,62.7,111.516,60.5,119.457ZM21.037,272.875c-2.546-.4-4.838-.885-7.153-1.075-1.131-.093-1.757,1.24-3.128,1.715C15.4,274.033,18.31,273.854,21.037,272.875Zm.568-19.559c-.794-.074-.526.648-.685,1.025-.2.481.144.545.526.586,2.155.229,4.3.536,6.464.687.973.068.6-.951,1.021-1.577C26.391,253.786,24,253.539,21.605,253.316ZM8.235,271.529a16.866,16.866,0,0,1-2.54-3.81c-.5-.95-1.88-.483-2.837-1.42C3.364,270.075,5.688,272.268,8.235,271.529Zm52.858-7.671a25.1,25.1,0,0,1,4.287-.457c1.2-.083.509-.912.537-1.383s-.011-1.04-.91-.806a36.22,36.22,0,0,1-5.8,1.163C59.109,263.936,59.715,264.2,61.093,263.858ZM7.827,237.206c.656-.348.49-.938.648-1.359a14.513,14.513,0,0,0,.433-1.52,22.184,22.184,0,0,1,2.645-6.524c1.241-1.954,1.473-4.278,2.133-6.446C10.4,226.1,8.952,231.515,7.827,237.206Zm58.538,35.938c-.086-.445-.413-.213-.681-.176-1.753.239-3.5.5-5.262.678-1.214.125-.981,1.133-.919,1.721.083.779.787.191,1.15.114,1.592-.34,3.166-.771,4.745-1.173.277-.07.549-.161.853-.252C66.514,273.8,66.422,273.442,66.365,273.144Zm-.654,2.309c-1.989.3-3.984.566-5.969.893-.889.146-.7,1.026-.7,1.532,0,.573.611.2.915.136,1.828-.388,3.639-.864,5.473-1.216.886-.17.844-.72.905-1.249C66.062,275.278,65.891,275.426,65.711,275.453Zm-7.692-19.83c1.859-.8,3.724-1.578,5.576-2.39.262-.116.74-.168.543-.677-.224-.579-.6-.27-.951-.148-1.909.668-3.8,1.374-5.733,1.983-.967.306-.372.757-.252,1.185A.67.67,0,0,0,58.019,255.623Zm8.092,8.9c-.072-.523-.464-.176-.642-.142-1.7.32-3.379.7-5.075,1.026-.652.123-.675.493-.622,1.026.069.7.487.416.825.336q2.31-.541,4.614-1.1c.276-.067.541-.177.715-.234A.893.893,0,0,0,66.111,264.519ZM2.42,263.577c-.128,2.654,1.981,1.307,2.775,2.415C5.259,263.509,3.335,264.558,2.42,263.577Z"/>
    <path d="M27.574,160.279c-.183,3.715-.846,7.377-1.223,11.071-.156,1.538-.306,3.081-.344,4.625-.255,10.214-.6,20.422-1.637,30.594-.146,1.443-.182,2.9-.231,4.349-.013.387-.189.946.5.994.648.045.634-.511.719-.9a61.552,61.552,0,0,0,1.205-9.039c.556-8.016,1.142-16.028,1.324-24.071.161-7.056.77-14.1,1.191-21.149.032-.525.148-1.045.234-1.629-.706-.027-.661.682-1.044.9Z"/>
    <path d="M48.214,223.851a7.3,7.3,0,0,1-10.368-.178c-1.538-1.514-1.071-7.78.715-9.6a6.891,6.891,0,0,1,9.457.131C50.481,216.653,50.578,221.468,48.214,223.851Zm-2.3-7.117a3.251,3.251,0,0,0-4.224-.063c-1.337,1.31-1.508,4.4-.313,5.669,1.145,1.213,3.944,1.082,5.287-.246C47.769,221,47.386,218.257,45.911,216.734Z"/>
    <path d="M74.992,125.778a28.08,28.08,0,0,0-1.283,5.053c-1.61,7.807-4,15.405-6.1,23.082q-3.729,13.65-8.456,26.983c-2.737,7.72-5.481,15.432-7.471,23.388a2,2,0,0,0-.084.277c-.058.537-.527,1.328.155,1.526.724.209.766-.729.928-1.219,3.1-9.4,6.252-18.788,9.22-28.232,3.379-10.756,6.428-21.612,9.486-32.465,1.557-5.525,3.191-11.024,3.767-16.767A2.607,2.607,0,0,0,74.992,125.778Z"/>
    <path d="M77.759,38.234c.015,1.99-.055,3.931.063,5.861.262,4.293.646,8.579.928,12.872.382,5.815.331,11.643.185,17.461-.161,6.431-.57,12.856-.9,19.282-.029.572-.088,1.223.533,1.315.677.1.756-.59.821-1.13a38.355,38.355,0,0,0,.553-4.887c-.065-6.453.773-12.873.641-19.322A185.361,185.361,0,0,0,79.213,48.7c-.438-3.253-.587-6.546-.87-9.82C78.324,38.652,78.4,38.373,77.759,38.234Z"/>
    <path d="M59.221,163.671c-1.365,2.759-2.717,5.526-4.1,8.277a135.283,135.283,0,0,0-7.376,16.323,71.468,71.468,0,0,0-2.141,7.952c-.116.525-.438,1.281.393,1.459.7.15.778-.619.919-1.085q2-6.62,4.538-13.049c2.491-6.273,5.178-12.462,7.837-18.664a8.142,8.142,0,0,0,.3-1.057Z"/>
    <path d="M80.53,111.19c.581-3.37,1-6.538,1.69-9.649a61.994,61.994,0,0,0,1.462-17.4c-.04-.622.17-1.7-.47-1.731-.611-.024-.509,1.061-.574,1.694q-.912,8.805-1.806,17.61c-.241,2.354-.5,4.707-.713,7.064A2.993,2.993,0,0,0,80.53,111.19Z"/>
    <path d="M69.817,133.912c-2.856,7.944-4.555,16.16-6.951,24.176-.125.416-.569,1.069.069,1.257.552.162.788-.532.976-1.025a113.641,113.641,0,0,0,3.646-12.288c.91-3.539,1.709-7.107,2.53-10.669C70.194,134.9,70.569,134.336,69.817,133.912Z"/>
    <path d="M78.088,37.319c-.045-.976-.145-1.953-.128-2.928.112-6.215-.5-12.411-.474-18.624a4.592,4.592,0,0,0-.1-.865c-.091-.479-.17-1.031-.827-.99-.672.043-.452.639-.5,1.022a34.72,34.72,0,0,0,.232,7.838q.606,6.953,1.236,13.9a4.635,4.635,0,0,0,.156.667Z"/>
    <path d="M54.944,181.809c-1.635,3.787-2.887,7.551-4.206,11.29-.255.723-.5,1.449-.767,2.169-.091.248-.111.5.1.661.319.239.554-.024.714-.253a4.469,4.469,0,0,0,.644-1.119q1.89-5.849,3.728-11.713A.9.9,0,0,0,54.944,181.809Z"/>
    <path d="M76.415,78.4c-.575,3.1-.827,6.16-1.145,9.209-.115,1.1-.169,2.214-.215,3.322-.017.408-.122,1,.547.954.517-.035.434-.564.456-.93.15-2.51.269-5.021.435-7.53.095-1.445.262-2.885.386-4.328C76.9,78.871,76.929,78.609,76.415,78.4Z"/>
    <path d="M76.987,127.707c-.3,1.334-.663,2.657-.876,4a44.222,44.222,0,0,1-1.1,5.072c-.136.484-.564,1.159.126,1.349.482.132.738-.582.96-1.082a17.2,17.2,0,0,0,1.146-5.477c.121-1.262.52-2.541.144-3.818Z"/>
    <path d="M64.146,145.823c-1.153,3.439-2.227,6.637-3.288,9.839-.071.216-.1.5.168.637.341.168.482-.06.657-.332a9.5,9.5,0,0,0,1.144-2.619c.54-1.945,1.015-3.908,1.53-5.861A1.6,1.6,0,0,0,64.146,145.823Z"/>
    <path d="M70.917,153.136c-.711,1.692-1.283,3.027-1.833,4.372-.132.322-.185.688.238.861.237.1.57.043.645-.177C70.48,156.691,71.447,155.278,70.917,153.136Z"/>
    <path d="M33.739,95.808c.261-2.822-.241-5.444-.4-8.078-.546-9.1-2.429-17.99-4.517-26.83-1.677-7.1-3.637-14.136-5.354-21.229-1.375-5.679-2.573-11.4-3.858-17.1-.1-.432.017-1.231-.578-1.12-.741.138-.317.906-.231,1.362,2.02,10.679,4.166,21.328,6.95,31.844A260.44,260.44,0,0,1,31.777,86.4,77.725,77.725,0,0,0,33.1,94.838,1.147,1.147,0,0,0,33.739,95.808Z"/>
    <path d="M34.24,128.659c.849-.617.721-1.559.764-2.423.3-5.97-.67-11.851-1.291-17.756-.177-1.679-.349-3.359-.532-5.038-.047-.431-.131-.858-.191-1.287s-.272-.8-.718-.766c-.5.033-.517.5-.513.891a44.833,44.833,0,0,0,.68,5.752,170.405,170.405,0,0,1,1.577,17.888A15.964,15.964,0,0,1,34.24,128.659Z"/>
    <path d="M34.255,162.748a4.573,4.573,0,0,0-.791,3.087c-.163,3.237-.188,6.482-.241,9.724-.009.525.131,1.051.171,1.578.041.554.1,1.186.784,1.162.631-.022.821-.662.827-1.2a85.487,85.487,0,0,0-.071-8.856c-.147-1.584.09-3.2-.387-4.754C34.482,163.278,34.385,163.076,34.255,162.748Z"/>
    <path d="M30.716,156.8c-.7.989-.456,2.218-.513,3.291-.216,4.061-.649,8.117-.5,12.193.017.487-.232,1.235.522,1.3.7.057.764-.692.8-1.183.092-1.353.088-2.713.119-4.07q.129-5.73.256-11.46Z"/>
  </g>
</svg>
